<?xml version="1.0" encoding="UTF-8" standalone="no"?>
<!DOCTYPE svg PUBLIC "-//W3C//DTD SVG 1.1//EN" "http://www.w3.org/Graphics/SVG/1.1/DTD/svg11.dtd">
<svg xmlns="http://www.w3.org/2000/svg" version="1.1" viewBox="0.00 0.00 500.00 500.00">
<g stroke-width="2.00" fill="none" stroke-linecap="butt">
<path stroke="#045745" vector-effect="non-scaling-stroke" d="
  M 291.93 47.38
  Q 300.38 50.18 307.96 54.27
  Q 309.45 55.08 322.99 63.13
  Q 332.11 68.54 339.93 74.07
  Q 349.94 81.15 359.01 90.03"
/>
<path stroke="#7d9536" vector-effect="non-scaling-stroke" d="
  M 359.01 90.03
  Q 359.50 92.53 363.20 95.16"
/>
<path stroke="#045745" vector-effect="non-scaling-stroke" d="
  M 363.20 95.16
  C 361.38 97.77 359.02 100.05 355.95 98.52
  A 0.26 0.25 -82.5 0 0 355.59 98.80
  Q 355.74 99.53 356.23 100.33"
/>
<path stroke="#7d9536" vector-effect="non-scaling-stroke" d="
  M 356.23 100.33
  C 352.91 96.34 348.48 92.67 345.29 89.51
  Q 336.45 80.75 324.20 73.32
  Q 301.33 59.47 276.53 55.73
  Q 262.71 53.65 252.27 53.43
  Q 219.53 52.75 188.03 66.78
  Q 180.53 70.11 173.15 73.67
  C 162.88 78.62 153.84 85.28 144.70 91.55
  Q 138.46 95.83 132.44 101.71
  Q 120.45 113.41 117.64 116.39
  Q 115.07 119.11 100.48 137.59
  C 98.23 140.44 95.42 145.07 93.52 148.88
  C 91.06 153.78 87.91 158.29 85.55 163.04
  Q 79.81 174.57 75.94 184.16
  C 73.71 189.71 72.42 194.64 70.35 201.21
  Q 67.66 209.78 66.58 214.12
  C 57.91 249.01 59.11 284.58 69.93 319.04
  C 73.19 329.42 75.88 337.56 81.21 346.49"
/>
<path stroke="#74882a" vector-effect="non-scaling-stroke" d="
  M 81.21 346.49
  C 84.07 352.70 88.31 358.51 92.45 364.41
  Q 97.23 371.22 102.09 376.15
  Q 116.92 391.21 134.91 401.42
  Q 142.04 405.46 152.35 409.42
  C 176.20 418.58 199.87 422.52 225.26 418.56
  Q 241.80 415.97 260.44 408.88
  C 266.40 406.61 272.22 404.65 278.11 401.59
  Q 299.99 390.21 318.06 374.70
  Q 318.48 374.33 324.15 368.99
  Q 326.37 366.90 330.39 363.40
  Q 337.16 357.53 344.67 346.89"
/>
<path stroke="#426029" vector-effect="non-scaling-stroke" d="
  M 344.67 346.89
  Q 346.60 346.77 349.08 343.71"
/>
<path stroke="#045745" vector-effect="non-scaling-stroke" d="
  M 349.08 343.71
  Q 345.66 349.11 345.12 351.89
  Q 343.04 362.45 338.94 370.63"
/>
<path stroke="#4f6a28" vector-effect="non-scaling-stroke" d="
  M 338.94 370.63
  L 316.20 390.50
  A 0.53 0.53 0.0 0 0 316.24 391.33
  L 319.05 393.38"
/>
<path stroke="#045745" vector-effect="non-scaling-stroke" d="
  M 319.05 393.38
  L 306.93 397.01"
/>
<path stroke="#4f6a28" vector-effect="non-scaling-stroke" d="
  M 306.93 397.01
  Q 302.89 399.24 298.53 402.03
  Q 293.18 405.46 290.07 406.89
  Q 284.33 409.52 278.77 412.46
  A 0.34 0.34 0.0 0 0 278.71 413.03
  L 281.34 415.24"
/>
<path stroke="#045745" vector-effect="non-scaling-stroke" d="
  M 281.34 415.24
  L 270.18 418.21"
/>
<path stroke="#4f6a28" vector-effect="non-scaling-stroke" d="
  M 270.18 418.21
  Q 268.86 416.90 267.52 417.44
  Q 250.99 424.11 236.88 427.09"
/>
<path stroke="#045745" vector-effect="non-scaling-stroke" d="
  M 236.88 427.09
  L 222.16 428.80"
/>
<path stroke="#4f6a28" vector-effect="non-scaling-stroke" d="
  M 222.16 428.80
  Q 204.59 430.08 188.20 428.08
  A 0.35 0.35 0.0 0 0 187.98 428.73
  L 190.76 430.34"
/>
<path stroke="#045745" vector-effect="non-scaling-stroke" d="
  M 190.76 430.34
  Q 184.21 430.91 178.45 429.39"
/>
<path stroke="#426029" vector-effect="non-scaling-stroke" d="
  M 178.45 429.39
  L 143.87 417.27
  A 0.34 0.34 0.0 0 0 143.43 417.47
  Q 143.33 417.71 143.48 417.71"
/>
<path stroke="#045745" vector-effect="non-scaling-stroke" d="
  M 143.48 417.71
  C 136.92 411.82 126.63 407.35 121.56 404.24
  Q 108.91 396.47 95.54 384.45"
/>
<path stroke="#c49f14" vector-effect="non-scaling-stroke" d="
  M 378.04 107.61
  Q 380.15 112.96 383.59 117.17
  Q 385.23 119.17 386.97 125.31"
/>
<path stroke="#e9bd16" vector-effect="non-scaling-stroke" d="
  M 357.48 101.92
  Q 355.93 103.73 357.41 105.83
  C 359.36 108.61 361.31 111.21 362.97 114.20
  C 371.71 129.95 377.90 144.79 381.18 162.55
  Q 385.52 185.99 384.67 210.00
  Q 384.27 221.61 383.90 226.24
  Q 383.23 234.74 379.87 248.93
  Q 378.74 253.71 373.97 272.24
  Q 372.69 277.23 371.12 281.37
  Q 368.81 287.46 362.60 301.63
  Q 359.04 309.76 352.00 319.69
  Q 346.26 327.78 344.67 330.40
  Q 339.64 338.67 336.40 342.15
  Q 323.07 356.46 320.65 358.90
  Q 317.58 361.99 315.51 363.51
  Q 306.65 370.04 300.64 375.54
  C 298.02 377.94 295.35 379.69 292.62 381.81
  C 289.34 384.37 285.19 386.15 281.56 388.63
  Q 279.71 389.89 276.95 391.34
  Q 269.81 395.09 258.38 400.61
  Q 251.25 404.05 244.87 405.84
  C 232.49 409.31 223.90 412.11 212.57 412.37
  Q 201.99 412.61 191.78 412.21
  Q 183.65 411.90 177.81 410.65
  Q 172.90 409.60 164.11 407.38
  Q 158.49 405.96 151.99 403.15
  Q 142.33 398.97 140.27 397.79
  Q 130.01 391.93 124.17 388.29
  C 113.41 381.58 104.05 373.11 95.29 363.78
  C 93.44 361.81 92.51 360.13 90.60 357.90
  Q 90.00 357.20 87.32 353.32
  Q 84.73 349.58 81.21 346.49"
/>
<path stroke="#ad8809" vector-effect="non-scaling-stroke" d="
  M 381.14 283.54
  Q 374.02 299.83 366.25 315.56
  Q 363.28 321.55 360.15 326.11
  C 356.53 331.36 353.21 336.59 348.97 341.55
  Q 346.75 344.16 344.67 346.89"
/>
<path stroke="#3e5724" vector-effect="non-scaling-stroke" d="
  M 143.48 417.71
  Q 152.64 424.19 157.51 426.74
  Q 165.03 430.68 181.25 437.30
  Q 186.70 439.53 191.86 440.78
  A 0.43 0.43 0.0 0 0 192.19 440.00
  Q 184.60 435.05 178.45 429.39"
/>
<path stroke="#4b6122" vector-effect="non-scaling-stroke" d="
  M 190.76 430.34
  Q 200.10 436.74 209.51 442.72
  Q 213.40 445.20 217.25 445.78
  Q 231.37 447.91 245.45 446.07
  A 0.48 0.47 58.7 0 0 245.66 445.21
  L 222.16 428.80"
/>
<path stroke="#4b6122" vector-effect="non-scaling-stroke" d="
  M 236.88 427.09
  L 260.68 443.49
  A 2.85 2.81 -32.3 0 0 262.78 443.95
  Q 278.85 441.18 293.95 435.77
  A 0.81 0.81 0.0 0 0 294.12 434.34
  L 270.18 418.21"
/>
<path stroke="#4b6122" vector-effect="non-scaling-stroke" d="
  M 281.34 415.24
  L 304.00 430.38
  A 1.60 1.60 0.0 0 0 305.41 430.56
  Q 319.77 425.44 332.40 416.42
  A 0.67 0.67 0.0 0 0 332.40 415.33
  L 306.93 397.01"
/>
<path stroke="#4b6122" vector-effect="non-scaling-stroke" d="
  M 319.05 393.38
  L 340.71 409.55
  A 0.97 0.96 45.5 0 0 341.83 409.57
  Q 353.25 401.68 364.27 391.68
  A 0.92 0.91 43.5 0 0 364.23 390.28
  Q 359.57 386.54 356.65 384.57
  Q 347.92 378.68 338.94 370.63"
/>
<path stroke="#3e5724" vector-effect="non-scaling-stroke" d="
  M 349.08 343.71
  Q 359.65 330.39 364.42 321.92
  Q 369.06 313.67 380.07 289.06
  Q 381.26 286.39 381.14 283.54"
/>
<path stroke="#707f24" vector-effect="non-scaling-stroke" d="
  M 381.14 283.54
  Q 383.91 278.41 385.12 273.14
  Q 388.20 259.70 389.43 254.28
  Q 395.94 225.69 393.94 197.58
  C 392.91 183.08 389.98 170.31 385.87 156.03
  C 382.00 142.58 376.27 130.27 368.75 118.08
  Q 367.63 116.26 363.99 110.61
  C 361.85 107.30 359.80 104.75 357.48 101.92"
/>
<path stroke="#798c31" vector-effect="non-scaling-stroke" d="
  M 357.48 101.92
  L 356.23 100.33"
/>
<path stroke="#798c31" vector-effect="non-scaling-stroke" d="
  M 363.20 95.16
  Q 374.10 109.84 380.05 118.70
  Q 382.78 122.75 386.97 125.31"
/>
<path stroke="#4b6122" vector-effect="non-scaling-stroke" d="
  M 386.97 125.31
  L 400.40 135.42
  A 0.16 0.16 0.0 0 0 400.63 135.21
  Q 391.29 120.16 378.04 107.61"
/>
<path stroke="#798c31" vector-effect="non-scaling-stroke" d="
  M 378.04 107.61
  Q 376.22 105.69 374.17 103.55
  Q 372.25 101.54 370.11 99.68
  Q 364.85 95.14 359.01 90.03"
/>
<path stroke="#566f28" vector-effect="non-scaling-stroke" d="
  M 402.95 164.16
  Q 411.69 172.85 422.15 180.69
  A 0.16 0.16 0.0 0 0 422.40 180.51
  Q 418.12 167.73 411.89 155.69
  C 410.11 152.26 408.35 150.11 405.41 147.59
  Q 398.73 141.84 393.64 137.99"
/>
<path stroke="#798c31" vector-effect="non-scaling-stroke" d="
  M 393.64 137.99
  Q 391.91 136.02 389.57 134.86
  A 0.22 0.22 0.0 0 0 389.27 135.14
  Q 393.53 144.52 397.80 158.40
  Q 398.81 161.71 402.95 164.16"
/>
<path stroke="#cfad1a" vector-effect="non-scaling-stroke" d="
  M 393.64 137.99
  Q 393.46 139.21 393.89 140.11
  Q 399.40 151.57 402.95 164.16"
/>
<path stroke="#566f28" vector-effect="non-scaling-stroke" d="
  M 405.70 203.85
  Q 405.88 204.24 406.20 204.56
  Q 411.81 210.31 415.83 213.95
  C 419.97 217.70 424.97 220.92 428.75 225.07
  A 0.31 0.31 0.0 0 0 429.29 224.83
  Q 428.56 216.80 427.04 202.73
  C 426.73 199.86 426.40 196.48 424.40 194.62
  Q 414.43 185.33 404.40 176.20"
/>
<path stroke="#798c31" vector-effect="non-scaling-stroke" d="
  M 404.40 176.20
  L 401.85 173.61
  A 0.23 0.23 0.0 0 0 401.46 173.82
  Q 404.50 188.04 405.08 202.65
  Q 405.09 203.03 405.70 203.85"
/>
<path stroke="#cfad1a" vector-effect="non-scaling-stroke" d="
  M 404.40 176.20
  Q 405.66 189.77 406.22 203.25
  Q 406.24 203.72 405.70 203.85"
/>
<path stroke="#566f28" vector-effect="non-scaling-stroke" d="
  M 405.27 250.64
  Q 407.04 254.20 410.73 257.28
  Q 418.88 264.12 426.66 271.10
  A 0.55 0.55 0.0 0 0 427.57 270.76
  Q 429.33 256.41 429.53 239.85
  A 3.35 3.33 20.8 0 0 428.36 237.27
  L 406.89 218.84"
/>
<path stroke="#798c31" vector-effect="non-scaling-stroke" d="
  M 406.89 218.84
  L 405.56 216.92
  A 0.30 0.30 0.0 0 0 405.01 217.10
  Q 405.24 231.75 402.56 246.24
  A 1.21 1.20 -57.9 0 0 402.76 247.15
  L 405.27 250.64"
/>
<path stroke="#cfad1a" vector-effect="non-scaling-stroke" d="
  M 406.89 218.84
  Q 407.12 234.86 405.27 250.64"
/>
<path stroke="#566f28" vector-effect="non-scaling-stroke" d="
  M 399.26 260.94
  Q 396.15 275.63 390.38 289.41
  A 1.23 1.22 -59.0 0 0 390.73 290.84
  L 416.47 311.89
  A 0.43 0.43 0.0 0 0 417.16 311.68
  L 425.76 284.70
  A 1.96 1.96 0.0 0 0 424.91 282.43
  Q 422.35 280.87 419.63 278.62
  Q 409.00 269.78 400.50 260.60
  A 0.73 0.72 29.6 0 0 399.26 260.94"
/>
<path stroke="#566f28" vector-effect="non-scaling-stroke" d="
  M 385.76 301.33
  Q 380.75 314.98 373.19 326.25
  A 1.08 1.08 0.0 0 0 373.42 327.70
  Q 380.97 333.64 384.27 336.61
  C 389.63 341.44 393.42 343.75 399.04 348.16
  A 0.53 0.52 36.2 0 0 399.79 348.05
  C 405.08 340.45 408.69 330.86 411.94 323.69
  A 0.95 0.95 0.0 0 0 411.71 322.60
  Q 401.46 313.51 389.52 303.48
  Q 388.31 302.46 386.22 301.17
  A 0.32 0.31 -63.5 0 0 385.76 301.33"
/>
<path stroke="#566f28" vector-effect="non-scaling-stroke" d="
  M 356.59 349.99
  C 352.09 355.46 349.58 358.27 345.57 361.98
  A 0.68 0.68 0.0 0 0 345.60 363.00
  L 371.08 383.84
  A 0.63 0.63 0.0 0 0 371.93 383.79
  Q 378.13 377.40 382.88 371.62
  Q 387.63 365.85 392.71 358.53
  A 0.63 0.63 0.0 0 0 392.60 357.69
  L 367.24 336.70
  A 0.68 0.68 0.0 0 0 366.23 336.87
  C 363.36 341.52 361.09 344.52 356.59 349.99"
/>
<path stroke="#c49f14" vector-effect="non-scaling-stroke" d="
  M 78.88 240.72
  Q 76.78 259.11 79.35 277.44
  Q 80.46 285.37 81.61 291.64
  C 83.01 299.27 85.73 306.04 88.62 313.60
  C 93.20 325.62 99.26 336.79 107.50 346.53
  Q 113.22 353.28 115.66 356.52
  C 119.60 361.75 126.31 366.09 131.69 370.27
  Q 138.74 375.76 139.90 376.49
  Q 168.51 394.56 199.52 396.30
  Q 223.03 397.62 246.37 390.15
  Q 263.36 384.72 275.58 377.63
  C 281.16 374.39 287.21 369.73 292.14 366.71
  C 300.26 361.73 308.28 354.05 314.95 347.70
  Q 320.11 342.79 324.86 336.67
  Q 332.19 327.24 336.79 321.07
  Q 340.60 315.95 342.50 312.30
  Q 345.55 306.44 346.40 304.99
  Q 355.96 288.73 362.61 269.19
  C 364.10 264.82 364.68 261.10 365.98 256.69
  Q 367.05 253.03 368.22 247.23
  Q 374.71 215.10 369.48 182.55
  C 368.55 176.75 366.63 169.61 365.57 164.73
  Q 364.02 157.62 361.45 151.71
  Q 352.81 131.80 340.83 116.64
  Q 336.84 111.60 325.82 100.95
  Q 320.45 95.76 313.10 91.32
  C 303.50 85.53 297.21 81.66 288.04 78.24"
/>
<path stroke="#b79515" vector-effect="non-scaling-stroke" d="
  M 288.04 78.24
  Q 268.76 71.14 248.25 71.05
  Q 238.44 71.01 226.01 72.28
  C 210.95 73.82 196.76 79.54 182.70 86.39
  C 177.90 88.72 173.36 91.79 168.25 94.38
  C 165.39 95.83 161.14 98.70 159.38 100.13
  C 152.54 105.70 141.04 114.23 133.81 121.97
  C 126.54 129.76 118.96 138.32 112.71 148.26
  Q 110.05 152.49 105.78 159.00
  Q 102.76 163.61 97.98 172.78
  Q 94.71 179.08 92.13 186.41
  Q 89.27 194.53 87.25 200.46
  Q 80.55 220.09 78.88 240.72"
/>
<path stroke="#896907" vector-effect="non-scaling-stroke" d="
  M 288.04 78.24
  Q 285.51 81.77 285.51 85.84"
/>
<path stroke="#b79515" vector-effect="non-scaling-stroke" d="
  M 285.51 85.84
  Q 253.09 74.47 220.13 82.40
  Q 208.69 85.15 195.79 90.20
  Q 183.80 94.89 173.07 101.81
  Q 147.66 118.19 129.46 139.99
  C 125.89 144.28 122.51 149.29 119.75 152.83
  Q 116.38 157.15 113.17 162.88
  Q 108.06 172.03 107.25 173.52
  Q 102.22 182.76 95.94 199.11
  C 93.24 206.15 91.75 213.85 89.51 222.04
  Q 88.14 227.03 86.83 239.12"
/>
<path stroke="#896907" vector-effect="non-scaling-stroke" d="
  M 86.83 239.12
  Q 82.65 239.13 78.88 240.72"
/>
<path stroke="#c49f14" vector-effect="non-scaling-stroke" d="
  M 86.83 239.12
  Q 86.01 247.65 85.25 256.25
  Q 84.71 262.24 86.39 280.22
  Q 87.58 292.93 91.73 304.96
  C 93.06 308.81 94.28 313.92 96.43 318.58
  Q 101.97 330.62 108.67 340.09
  C 112.49 345.50 118.52 353.49 125.63 360.35
  C 128.38 362.99 131.12 364.75 133.64 366.96
  C 141.27 373.63 150.26 378.75 159.80 383.42
  C 164.05 385.50 168.05 386.34 173.69 388.18
  Q 178.23 389.67 184.43 390.87
  Q 208.88 395.64 233.32 390.22
  Q 237.70 389.25 240.76 388.21
  C 247.33 385.97 253.10 385.09 259.08 382.35
  Q 272.80 376.07 277.98 372.70
  Q 294.25 362.09 295.01 361.51
  C 301.98 356.14 308.12 349.99 316.77 341.76
  Q 318.40 340.20 319.86 338.36
  Q 332.11 322.91 334.68 319.94
  Q 335.69 318.77 341.75 309.20
  C 343.15 306.98 343.65 304.82 344.99 302.75
  Q 345.87 301.40 347.31 298.59
  Q 356.80 280.13 362.16 259.86
  Q 363.90 253.28 364.89 245.76
  Q 366.28 235.23 366.66 231.50
  Q 368.29 215.70 366.96 200.76
  Q 366.69 197.72 365.16 185.86
  C 363.12 170.15 357.84 155.44 350.13 141.50
  C 347.80 137.30 345.40 134.40 343.27 130.71
  Q 341.37 127.42 337.65 122.92
  Q 328.33 111.67 321.13 105.62
  Q 306.12 93.00 285.51 85.84"
/>
<path stroke="#7d9536" vector-effect="non-scaling-stroke" d="
  M 239.76 107.70
  A 0.73 0.72 52.6 0 0 238.75 107.56
  C 229.81 114.16 220.35 123.24 217.71 134.50
  Q 215.47 144.04 217.92 152.18
  C 219.91 158.75 226.67 163.80 232.44 167.60
  A 0.93 0.91 -47.1 0 0 233.50 167.55
  Q 239.49 162.86 245.23 156.23
  C 254.06 146.03 252.89 134.66 248.72 122.00
  C 246.98 116.72 243.29 112.34 239.76 107.70"
/>
<path stroke="#7d9536" vector-effect="non-scaling-stroke" d="
  M 296.20 134.45
  C 287.15 134.08 276.70 138.31 269.19 143.56
  C 257.19 151.93 257.66 166.58 258.99 179.73
  A 0.69 0.69 0.0 0 0 259.63 180.35
  Q 267.39 180.92 275.06 178.27
  Q 279.97 176.58 284.37 172.08
  Q 298.77 157.35 296.84 135.06
  A 0.68 0.68 0.0 0 0 296.20 134.45"
/>
<path stroke="#7d9536" vector-effect="non-scaling-stroke" d="
  M 177.64 135.31
  A 0.80 0.80 0.0 0 0 176.85 135.92
  Q 173.44 150.02 177.00 163.25
  C 178.85 170.15 184.78 175.76 191.70 178.19
  Q 197.04 180.07 202.16 180.59
  A 1.50 1.50 0.0 0 0 203.73 179.59
  C 208.31 166.53 208.28 154.32 198.86 143.91
  C 193.45 137.93 185.18 135.48 177.64 135.31"
/>
<path stroke="#7d9536" vector-effect="non-scaling-stroke" d="
  M 140.01 163.62
  C 139.47 176.26 141.20 187.99 152.73 195.02
  C 158.40 198.48 167.51 198.25 174.08 197.07
  A 0.66 0.66 0.0 0 0 174.61 196.38
  Q 174.06 189.56 173.06 184.22
  C 171.87 177.86 168.23 169.95 162.41 166.98
  Q 152.27 161.80 140.60 163.00
  A 0.66 0.65 -2.1 0 0 140.01 163.62"
/>
<path stroke="#7d9536" vector-effect="non-scaling-stroke" d="
  M 329.96 164.60
  A 0.96 0.96 0.0 0 0 329.13 163.54
  Q 321.05 162.46 314.16 163.87
  C 305.90 165.58 301.28 169.76 296.54 176.57
  C 292.51 182.38 291.58 190.55 292.03 197.29
  A 0.66 0.64 89.0 0 0 292.65 197.90
  C 300.93 198.26 308.56 198.10 315.80 193.14
  C 324.07 187.48 328.87 174.31 329.96 164.60"
/>
<path stroke="#7d9536" vector-effect="non-scaling-stroke" d="
  M 226.97 223.87
  Q 232.04 220.33 236.04 215.95
  C 239.75 211.87 242.61 204.69 242.12 199.10
  C 241.61 193.38 238.43 180.32 232.93 176.77
  A 1.36 1.36 0.0 0 0 231.69 176.65
  C 225.90 178.89 219.77 186.98 216.88 193.03
  C 213.40 200.34 214.38 207.52 218.05 214.47
  C 219.98 218.12 223.29 221.18 226.08 223.81
  A 0.71 0.71 0.0 0 0 226.97 223.87"
/>
<path stroke="#7d9536" vector-effect="non-scaling-stroke" d="
  M 278.77 188.75
  Q 270.05 190.88 260.50 196.56
  Q 256.12 199.16 254.34 201.43
  C 248.35 209.04 247.89 220.34 250.61 229.36
  A 0.80 0.80 0.0 0 0 251.55 229.91
  C 260.62 227.91 273.80 221.52 277.90 212.57
  C 281.28 205.16 281.53 197.11 279.58 189.24
  A 0.67 0.67 0.0 0 0 278.77 188.75"
/>
<path stroke="#7d9536" vector-effect="non-scaling-stroke" d="
  M 201.49 230.61
  A 0.90 0.89 15.7 0 0 202.46 230.07
  C 206.19 221.18 208.23 211.98 204.30 202.66
  C 201.37 195.71 191.16 190.88 184.47 189.00
  A 0.91 0.90 19.4 0 0 183.39 189.51
  C 180.47 196.30 178.26 205.01 179.91 211.99
  C 182.39 222.57 190.68 228.92 201.49 230.61"
/>
<path stroke="#7d9536" vector-effect="non-scaling-stroke" d="
  M 111.72 209.15
  Q 118.73 219.32 124.08 224.94
  C 131.11 232.34 141.06 233.85 150.82 232.70
  C 156.43 232.04 163.46 228.75 168.46 225.98
  A 0.94 0.93 63.1 0 0 168.85 224.77
  C 165.60 217.82 159.57 207.83 152.95 204.50
  C 141.51 198.76 127.25 201.32 115.69 205.88
  Q 113.75 206.65 111.82 208.37
  A 0.60 0.60 0.0 0 0 111.72 209.15"
/>
<path stroke="#7d9536" vector-effect="non-scaling-stroke" d="
  M 343.85 209.26
  Q 341.90 207.72 339.38 206.79
  C 327.28 202.32 311.22 200.62 300.68 209.77
  Q 293.49 216.00 288.61 224.39
  A 1.20 1.20 0.0 0 0 289.00 226.00
  C 294.50 229.56 302.73 233.03 309.44 232.73
  C 321.70 232.18 331.13 224.33 339.35 216.10
  Q 342.26 213.19 344.04 210.39
  A 0.85 0.85 0.0 0 0 343.85 209.26"
/>
<path stroke="#7d9536" vector-effect="non-scaling-stroke" d="
  M 291.33 236.76
  L 249.77 237.33
  A 1.88 1.87 -69.0 0 0 248.41 237.94
  C 243.01 243.91 239.20 251.25 234.55 257.58
  C 228.42 265.95 226.03 269.55 219.43 278.87
  A 0.34 0.34 0.0 0 1 218.84 278.81
  Q 215.56 271.29 211.39 264.19
  C 205.45 254.09 201.73 246.92 196.49 237.60
  A 1.18 1.17 -14.1 0 0 195.48 237.00
  L 155.15 236.45
  A 0.30 0.30 0.0 0 0 154.88 236.88
  Q 158.73 244.63 160.90 248.33
  Q 165.37 255.96 174.92 271.78
  Q 176.79 274.88 179.00 278.55
  Q 195.39 305.77 196.77 308.16
  Q 198.05 310.37 197.87 314.23
  Q 197.60 319.96 197.36 321.76
  Q 194.78 341.04 192.72 360.46
  A 0.48 0.48 0.0 0 0 193.19 360.99
  L 229.20 361.48
  A 0.96 0.95 -87.1 0 0 230.16 360.61
  Q 231.94 341.55 235.64 317.89
  C 236.58 311.93 238.29 308.06 241.77 303.83
  Q 245.34 299.47 245.63 299.08
  Q 260.67 278.58 276.82 257.83
  Q 279.19 254.78 283.43 248.17
  Q 287.02 242.57 291.64 237.45
  A 0.41 0.41 0.0 0 0 291.33 236.76"
/>
<path stroke="#7d9536" vector-effect="non-scaling-stroke" d="
  M 154.22 254.39
  Q 146.17 243.32 132.22 242.26
  C 122.02 241.48 114.62 247.90 108.47 254.95
  A 1.01 1.00 48.4 0 0 108.40 256.19
  Q 114.38 264.93 124.50 266.46
  Q 133.19 267.78 140.46 264.29
  C 145.39 261.92 150.41 258.86 154.15 255.21
  A 0.63 0.63 0.0 0 0 154.22 254.39"
/>
<path stroke="#7d9536" vector-effect="non-scaling-stroke" d="
  M 289.78 256.06
  Q 293.65 261.43 300.11 265.68
  C 313.35 274.40 325.12 267.69 335.90 259.22
  A 1.34 1.33 56.9 0 0 336.25 257.54
  C 333.10 251.57 326.64 246.46 320.72 244.34
  C 316.36 242.79 309.40 243.19 304.87 245.12
  Q 297.14 248.41 289.88 255.09
  A 0.74 0.73 50.9 0 0 289.78 256.06"
/>
<path stroke="#7d9536" vector-effect="non-scaling-stroke" d="
  M 274.63 278.01
  Q 276.32 286.58 280.02 293.48
  Q 283.39 299.76 289.15 301.25
  Q 301.32 304.39 314.15 300.17
  A 0.74 0.73 79.8 0 0 314.66 299.43
  C 314.20 290.09 309.24 283.43 301.91 277.55
  C 294.01 271.22 283.71 273.67 275.12 277.11
  A 0.81 0.81 0.0 0 0 274.63 278.01"
/>
<path stroke="#7d9536" vector-effect="non-scaling-stroke" d="
  M 139.37 277.69
  C 130.50 282.12 125.34 289.58 125.06 299.82
  A 0.83 0.82 9.3 0 0 125.64 300.62
  C 133.14 302.91 143.73 304.11 150.81 300.56
  C 157.89 297.02 163.28 287.83 165.96 280.46
  A 0.83 0.82 -62.4 0 0 165.66 279.51
  C 157.30 273.59 148.23 273.25 139.37 277.69"
/>
</g>
<path fill="#08604a" d="
  M 291.93 47.38
  Q 300.38 50.18 307.96 54.27
  Q 309.45 55.08 322.99 63.13
  Q 332.11 68.54 339.93 74.07
  Q 349.94 81.15 359.01 90.03
  Q 359.50 92.53 363.20 95.16
  C 361.38 97.77 359.02 100.05 355.95 98.52
  A 0.26 0.25 -82.5 0 0 355.59 98.80
  Q 355.74 99.53 356.23 100.33
  C 352.91 96.34 348.48 92.67 345.29 89.51
  Q 336.45 80.75 324.20 73.32
  Q 301.33 59.47 276.53 55.73
  Q 262.71 53.65 252.27 53.43
  Q 219.53 52.75 188.03 66.78
  Q 180.53 70.11 173.15 73.67
  C 162.88 78.62 153.84 85.28 144.70 91.55
  Q 138.46 95.83 132.44 101.71
  Q 120.45 113.41 117.64 116.39
  Q 115.07 119.11 100.48 137.59
  C 98.23 140.44 95.42 145.07 93.52 148.88
  C 91.06 153.78 87.91 158.29 85.55 163.04
  Q 79.81 174.57 75.94 184.16
  C 73.71 189.71 72.42 194.64 70.35 201.21
  Q 67.66 209.78 66.58 214.12
  C 57.91 249.01 59.11 284.58 69.93 319.04
  C 73.19 329.42 75.88 337.56 81.21 346.49
  C 84.07 352.70 88.31 358.51 92.45 364.41
  Q 97.23 371.22 102.09 376.15
  Q 116.92 391.21 134.91 401.42
  Q 142.04 405.46 152.35 409.42
  C 176.20 418.58 199.87 422.52 225.26 418.56
  Q 241.80 415.97 260.44 408.88
  C 266.40 406.61 272.22 404.65 278.11 401.59
  Q 299.99 390.21 318.06 374.70
  Q 318.48 374.33 324.15 368.99
  Q 326.37 366.90 330.39 363.40
  Q 337.16 357.53 344.67 346.89
  Q 346.60 346.77 349.08 343.71
  Q 345.66 349.11 345.12 351.89
  Q 343.04 362.45 338.94 370.63
  L 316.20 390.50
  A 0.53 0.53 0.0 0 0 316.24 391.33
  L 319.05 393.38
  L 306.93 397.01
  Q 302.89 399.24 298.53 402.03
  Q 293.18 405.46 290.07 406.89
  Q 284.33 409.52 278.77 412.46
  A 0.34 0.34 0.0 0 0 278.71 413.03
  L 281.34 415.24
  L 270.18 418.21
  Q 268.86 416.90 267.52 417.44
  Q 250.99 424.11 236.88 427.09
  L 222.16 428.80
  Q 204.59 430.08 188.20 428.08
  A 0.35 0.35 0.0 0 0 187.98 428.73
  L 190.76 430.34
  Q 184.21 430.91 178.45 429.39
  L 143.87 417.27
  A 0.34 0.34 0.0 0 0 143.43 417.47
  Q 143.33 417.71 143.48 417.71
  C 136.92 411.82 126.63 407.35 121.56 404.24
  Q 108.91 396.47 95.54 384.45
  Q 69.03 355.38 58.41 317.31
  Q 54.02 301.62 52.41 287.47
  Q 51.48 279.31 51.05 271.25
  Q 49.83 248.27 54.52 222.97
  Q 60.63 190.05 77.40 157.11
  Q 102.07 108.65 147.33 77.32
  Q 174.13 58.78 202.69 50.24
  Q 209.18 48.29 218.52 46.36
  Q 227.81 44.44 234.58 43.91
  Q 241.28 43.39 247.37 42.90
  Q 253.81 42.38 260.14 42.91
  Q 272.94 43.99 277.19 44.37
  Q 281.56 44.76 291.93 47.38
  Z"
/>
<path fill="#004e3f" d="
  M 95.54 384.45
  Q 108.91 396.47 121.56 404.24
  C 126.63 407.35 136.92 411.82 143.48 417.71
  Q 152.64 424.19 157.51 426.74
  Q 165.03 430.68 181.25 437.30
  Q 186.70 439.53 191.86 440.78
  A 0.43 0.43 0.0 0 0 192.19 440.00
  Q 184.60 435.05 178.45 429.39
  Q 184.21 430.91 190.76 430.34
  Q 200.10 436.74 209.51 442.72
  Q 213.40 445.20 217.25 445.78
  Q 231.37 447.91 245.45 446.07
  A 0.48 0.47 58.7 0 0 245.66 445.21
  L 222.16 428.80
  L 236.88 427.09
  L 260.68 443.49
  A 2.85 2.81 -32.3 0 0 262.78 443.95
  Q 278.85 441.18 293.95 435.77
  A 0.81 0.81 0.0 0 0 294.12 434.34
  L 270.18 418.21
  L 281.34 415.24
  L 304.00 430.38
  A 1.60 1.60 0.0 0 0 305.41 430.56
  Q 319.77 425.44 332.40 416.42
  A 0.67 0.67 0.0 0 0 332.40 415.33
  L 306.93 397.01
  L 319.05 393.38
  L 340.71 409.55
  A 0.97 0.96 45.5 0 0 341.83 409.57
  Q 353.25 401.68 364.27 391.68
  A 0.92 0.91 43.5 0 0 364.23 390.28
  Q 359.57 386.54 356.65 384.57
  Q 347.92 378.68 338.94 370.63
  Q 343.04 362.45 345.12 351.89
  Q 345.66 349.11 349.08 343.71
  Q 359.65 330.39 364.42 321.92
  Q 369.06 313.67 380.07 289.06
  Q 381.26 286.39 381.14 283.54
  Q 383.91 278.41 385.12 273.14
  Q 388.20 259.70 389.43 254.28
  Q 395.94 225.69 393.94 197.58
  C 392.91 183.08 389.98 170.31 385.87 156.03
  C 382.00 142.58 376.27 130.27 368.75 118.08
  Q 367.63 116.26 363.99 110.61
  C 361.85 107.30 359.80 104.75 357.48 101.92
  L 356.23 100.33
  Q 355.74 99.53 355.59 98.80
  A 0.26 0.25 -82.5 0 1 355.95 98.52
  C 359.02 100.05 361.38 97.77 363.20 95.16
  Q 374.10 109.84 380.05 118.70
  Q 382.78 122.75 386.97 125.31
  L 400.40 135.42
  A 0.16 0.16 0.0 0 0 400.63 135.21
  Q 391.29 120.16 378.04 107.61
  Q 376.22 105.69 374.17 103.55
  Q 372.25 101.54 370.11 99.68
  Q 364.85 95.14 359.01 90.03
  Q 349.94 81.15 339.93 74.07
  Q 332.11 68.54 322.99 63.13
  Q 309.45 55.08 307.96 54.27
  Q 300.38 50.18 291.93 47.38
  Q 301.31 49.33 312.44 53.82
  Q 349.82 68.90 379.02 96.24
  Q 402.51 118.23 417.75 145.74
  Q 426.36 161.28 432.16 179.79
  Q 432.20 179.89 436.00 194.04
  Q 438.01 201.54 438.73 208.50
  Q 440.42 224.89 440.68 234.50
  Q 441.09 249.90 439.66 263.76
  Q 437.94 280.49 432.84 299.87
  Q 428.20 317.54 420.25 334.32
  Q 400.72 375.52 366.95 404.94
  C 352.03 417.95 335.07 429.73 317.20 438.19
  Q 300.28 446.20 280.54 451.21
  Q 262.09 455.89 241.31 456.32
  Q 220.77 456.74 202.00 452.27
  Q 177.41 446.42 158.66 436.06
  Q 123.77 416.78 95.54 384.45
  Z
  M 402.95 164.16
  Q 411.69 172.85 422.15 180.69
  A 0.16 0.16 0.0 0 0 422.40 180.51
  Q 418.12 167.73 411.89 155.69
  C 410.11 152.26 408.35 150.11 405.41 147.59
  Q 398.73 141.84 393.64 137.99
  Q 391.91 136.02 389.57 134.86
  A 0.22 0.22 0.0 0 0 389.27 135.14
  Q 393.53 144.52 397.80 158.40
  Q 398.81 161.71 402.95 164.16
  Z
  M 405.70 203.85
  Q 405.88 204.24 406.20 204.56
  Q 411.81 210.31 415.83 213.95
  C 419.97 217.70 424.97 220.92 428.75 225.07
  A 0.31 0.31 0.0 0 0 429.29 224.83
  Q 428.56 216.80 427.04 202.73
  C 426.73 199.86 426.40 196.48 424.40 194.62
  Q 414.43 185.33 404.40 176.20
  L 401.85 173.61
  A 0.23 0.23 0.0 0 0 401.46 173.82
  Q 404.50 188.04 405.08 202.65
  Q 405.09 203.03 405.70 203.85
  Z
  M 405.27 250.64
  Q 407.04 254.20 410.73 257.28
  Q 418.88 264.12 426.66 271.10
  A 0.55 0.55 0.0 0 0 427.57 270.76
  Q 429.33 256.41 429.53 239.85
  A 3.35 3.33 20.8 0 0 428.36 237.27
  L 406.89 218.84
  L 405.56 216.92
  A 0.30 0.30 0.0 0 0 405.01 217.10
  Q 405.24 231.75 402.56 246.24
  A 1.21 1.20 -57.9 0 0 402.76 247.15
  L 405.27 250.64
  Z
  M 399.26 260.94
  Q 396.15 275.63 390.38 289.41
  A 1.23 1.22 -59.0 0 0 390.73 290.84
  L 416.47 311.89
  A 0.43 0.43 0.0 0 0 417.16 311.68
  L 425.76 284.70
  A 1.96 1.96 0.0 0 0 424.91 282.43
  Q 422.35 280.87 419.63 278.62
  Q 409.00 269.78 400.50 260.60
  A 0.73 0.72 29.6 0 0 399.26 260.94
  Z
  M 385.76 301.33
  Q 380.75 314.98 373.19 326.25
  A 1.08 1.08 0.0 0 0 373.42 327.70
  Q 380.97 333.64 384.27 336.61
  C 389.63 341.44 393.42 343.75 399.04 348.16
  A 0.53 0.52 36.2 0 0 399.79 348.05
  C 405.08 340.45 408.69 330.86 411.94 323.69
  A 0.95 0.95 0.0 0 0 411.71 322.60
  Q 401.46 313.51 389.52 303.48
  Q 388.31 302.46 386.22 301.17
  A 0.32 0.31 -63.5 0 0 385.76 301.33
  Z
  M 356.59 349.99
  C 352.09 355.46 349.58 358.27 345.57 361.98
  A 0.68 0.68 0.0 0 0 345.60 363.00
  L 371.08 383.84
  A 0.63 0.63 0.0 0 0 371.93 383.79
  Q 378.13 377.40 382.88 371.62
  Q 387.63 365.85 392.71 358.53
  A 0.63 0.63 0.0 0 0 392.60 357.69
  L 367.24 336.70
  A 0.68 0.68 0.0 0 0 366.23 336.87
  C 363.36 341.52 361.09 344.52 356.59 349.99
  Z"
/>
<path fill="#f2ca22" d="
  M 356.23 100.33
  L 357.48 101.92
  Q 355.93 103.73 357.41 105.83
  C 359.36 108.61 361.31 111.21 362.97 114.20
  C 371.71 129.95 377.90 144.79 381.18 162.55
  Q 385.52 185.99 384.67 210.00
  Q 384.27 221.61 383.90 226.24
  Q 383.23 234.74 379.87 248.93
  Q 378.74 253.71 373.97 272.24
  Q 372.69 277.23 371.12 281.37
  Q 368.81 287.46 362.60 301.63
  Q 359.04 309.76 352.00 319.69
  Q 346.26 327.78 344.67 330.40
  Q 339.64 338.67 336.40 342.15
  Q 323.07 356.46 320.65 358.90
  Q 317.58 361.99 315.51 363.51
  Q 306.65 370.04 300.64 375.54
  C 298.02 377.94 295.35 379.69 292.62 381.81
  C 289.34 384.37 285.19 386.15 281.56 388.63
  Q 279.71 389.89 276.95 391.34
  Q 269.81 395.09 258.38 400.61
  Q 251.25 404.05 244.87 405.84
  C 232.49 409.31 223.90 412.11 212.57 412.37
  Q 201.99 412.61 191.78 412.21
  Q 183.65 411.90 177.81 410.65
  Q 172.90 409.60 164.11 407.38
  Q 158.49 405.96 151.99 403.15
  Q 142.33 398.97 140.27 397.79
  Q 130.01 391.93 124.17 388.29
  C 113.41 381.58 104.05 373.11 95.29 363.78
  C 93.44 361.81 92.51 360.13 90.60 357.90
  Q 90.00 357.20 87.32 353.32
  Q 84.73 349.58 81.21 346.49
  C 75.88 337.56 73.19 329.42 69.93 319.04
  C 59.11 284.58 57.91 249.01 66.58 214.12
  Q 67.66 209.78 70.35 201.21
  C 72.42 194.64 73.71 189.71 75.94 184.16
  Q 79.81 174.57 85.55 163.04
  C 87.91 158.29 91.06 153.78 93.52 148.88
  C 95.42 145.07 98.23 140.44 100.48 137.59
  Q 115.07 119.11 117.64 116.39
  Q 120.45 113.41 132.44 101.71
  Q 138.46 95.83 144.70 91.55
  C 153.84 85.28 162.88 78.62 173.15 73.67
  Q 180.53 70.11 188.03 66.78
  Q 219.53 52.75 252.27 53.43
  Q 262.71 53.65 276.53 55.73
  Q 301.33 59.47 324.20 73.32
  Q 336.45 80.75 345.29 89.51
  C 348.48 92.67 352.91 96.34 356.23 100.33
  Z
  M 78.88 240.72
  Q 76.78 259.11 79.35 277.44
  Q 80.46 285.37 81.61 291.64
  C 83.01 299.27 85.73 306.04 88.62 313.60
  C 93.20 325.62 99.26 336.79 107.50 346.53
  Q 113.22 353.28 115.66 356.52
  C 119.60 361.75 126.31 366.09 131.69 370.27
  Q 138.74 375.76 139.90 376.49
  Q 168.51 394.56 199.52 396.30
  Q 223.03 397.62 246.37 390.15
  Q 263.36 384.72 275.58 377.63
  C 281.16 374.39 287.21 369.73 292.14 366.71
  C 300.26 361.73 308.28 354.05 314.95 347.70
  Q 320.11 342.79 324.86 336.67
  Q 332.19 327.24 336.79 321.07
  Q 340.60 315.95 342.50 312.30
  Q 345.55 306.44 346.40 304.99
  Q 355.96 288.73 362.61 269.19
  C 364.10 264.82 364.68 261.10 365.98 256.69
  Q 367.05 253.03 368.22 247.23
  Q 374.71 215.10 369.48 182.55
  C 368.55 176.75 366.63 169.61 365.57 164.73
  Q 364.02 157.62 361.45 151.71
  Q 352.81 131.80 340.83 116.64
  Q 336.84 111.60 325.82 100.95
  Q 320.45 95.76 313.10 91.32
  C 303.50 85.53 297.21 81.66 288.04 78.24
  Q 268.76 71.14 248.25 71.05
  Q 238.44 71.01 226.01 72.28
  C 210.95 73.82 196.76 79.54 182.70 86.39
  C 177.90 88.72 173.36 91.79 168.25 94.38
  C 165.39 95.83 161.14 98.70 159.38 100.13
  C 152.54 105.70 141.04 114.23 133.81 121.97
  C 126.54 129.76 118.96 138.32 112.71 148.26
  Q 110.05 152.49 105.78 159.00
  Q 102.76 163.61 97.98 172.78
  Q 94.71 179.08 92.13 186.41
  Q 89.27 194.53 87.25 200.46
  Q 80.55 220.09 78.88 240.72
  Z"
/>
<path fill="#7b5f08" d="
  M 288.04 78.24
  Q 285.51 81.77 285.51 85.84
  Q 253.09 74.47 220.13 82.40
  Q 208.69 85.15 195.79 90.20
  Q 183.80 94.89 173.07 101.81
  Q 147.66 118.19 129.46 139.99
  C 125.89 144.28 122.51 149.29 119.75 152.83
  Q 116.38 157.15 113.17 162.88
  Q 108.06 172.03 107.25 173.52
  Q 102.22 182.76 95.94 199.11
  C 93.24 206.15 91.75 213.85 89.51 222.04
  Q 88.14 227.03 86.83 239.12
  Q 82.65 239.13 78.88 240.72
  Q 80.55 220.09 87.25 200.46
  Q 89.27 194.53 92.13 186.41
  Q 94.71 179.08 97.98 172.78
  Q 102.76 163.61 105.78 159.00
  Q 110.05 152.49 112.71 148.26
  C 118.96 138.32 126.54 129.76 133.81 121.97
  C 141.04 114.23 152.54 105.70 159.38 100.13
  C 161.14 98.70 165.39 95.83 168.25 94.38
  C 173.36 91.79 177.90 88.72 182.70 86.39
  C 196.76 79.54 210.95 73.82 226.01 72.28
  Q 238.44 71.01 248.25 71.05
  Q 268.76 71.14 288.04 78.24
  Z"
/>
<path fill="#967305" d="
  M 78.88 240.72
  Q 82.65 239.13 86.83 239.12
  Q 86.01 247.65 85.25 256.25
  Q 84.71 262.24 86.39 280.22
  Q 87.58 292.93 91.73 304.96
  C 93.06 308.81 94.28 313.92 96.43 318.58
  Q 101.97 330.62 108.67 340.09
  C 112.49 345.50 118.52 353.49 125.63 360.35
  C 128.38 362.99 131.12 364.75 133.64 366.96
  C 141.27 373.63 150.26 378.75 159.80 383.42
  C 164.05 385.50 168.05 386.34 173.69 388.18
  Q 178.23 389.67 184.43 390.87
  Q 208.88 395.64 233.32 390.22
  Q 237.70 389.25 240.76 388.21
  C 247.33 385.97 253.10 385.09 259.08 382.35
  Q 272.80 376.07 277.98 372.70
  Q 294.25 362.09 295.01 361.51
  C 301.98 356.14 308.12 349.99 316.77 341.76
  Q 318.40 340.20 319.86 338.36
  Q 332.11 322.91 334.68 319.94
  Q 335.69 318.77 341.75 309.20
  C 343.15 306.98 343.65 304.82 344.99 302.75
  Q 345.87 301.40 347.31 298.59
  Q 356.80 280.13 362.16 259.86
  Q 363.90 253.28 364.89 245.76
  Q 366.28 235.23 366.66 231.50
  Q 368.29 215.70 366.96 200.76
  Q 366.69 197.72 365.16 185.86
  C 363.12 170.15 357.84 155.44 350.13 141.50
  C 347.80 137.30 345.40 134.40 343.27 130.71
  Q 341.37 127.42 337.65 122.92
  Q 328.33 111.67 321.13 105.62
  Q 306.12 93.00 285.51 85.84
  Q 285.51 81.77 288.04 78.24
  C 297.21 81.66 303.50 85.53 313.10 91.32
  Q 320.45 95.76 325.82 100.95
  Q 336.84 111.60 340.83 116.64
  Q 352.81 131.80 361.45 151.71
  Q 364.02 157.62 365.57 164.73
  C 366.63 169.61 368.55 176.75 369.48 182.55
  Q 374.71 215.10 368.22 247.23
  Q 367.05 253.03 365.98 256.69
  C 364.68 261.10 364.10 264.82 362.61 269.19
  Q 355.96 288.73 346.40 304.99
  Q 345.55 306.44 342.50 312.30
  Q 340.60 315.95 336.79 321.07
  Q 332.19 327.24 324.86 336.67
  Q 320.11 342.79 314.95 347.70
  C 308.28 354.05 300.26 361.73 292.14 366.71
  C 287.21 369.73 281.16 374.39 275.58 377.63
  Q 263.36 384.72 246.37 390.15
  Q 223.03 397.62 199.52 396.30
  Q 168.51 394.56 139.90 376.49
  Q 138.74 375.76 131.69 370.27
  C 126.31 366.09 119.60 361.75 115.66 356.52
  Q 113.22 353.28 107.50 346.53
  C 99.26 336.79 93.20 325.62 88.62 313.60
  C 85.73 306.04 83.01 299.27 81.61 291.64
  Q 80.46 285.37 79.35 277.44
  Q 76.78 259.11 78.88 240.72
  Z"
/>
<path fill="#f2ca22" d="
  M 285.51 85.84
  Q 306.12 93.00 321.13 105.62
  Q 328.33 111.67 337.65 122.92
  Q 341.37 127.42 343.27 130.71
  C 345.40 134.40 347.80 137.30 350.13 141.50
  C 357.84 155.44 363.12 170.15 365.16 185.86
  Q 366.69 197.72 366.96 200.76
  Q 368.29 215.70 366.66 231.50
  Q 366.28 235.23 364.89 245.76
  Q 363.90 253.28 362.16 259.86
  Q 356.80 280.13 347.31 298.59
  Q 345.87 301.40 344.99 302.75
  C 343.65 304.82 343.15 306.98 341.75 309.20
  Q 335.69 318.77 334.68 319.94
  Q 332.11 322.91 319.86 338.36
  Q 318.40 340.20 316.77 341.76
  C 308.12 349.99 301.98 356.14 295.01 361.51
  Q 294.25 362.09 277.98 372.70
  Q 272.80 376.07 259.08 382.35
  C 253.10 385.09 247.33 385.97 240.76 388.21
  Q 237.70 389.25 233.32 390.22
  Q 208.88 395.64 184.43 390.87
  Q 178.23 389.67 173.69 388.18
  C 168.05 386.34 164.05 385.50 159.80 383.42
  C 150.26 378.75 141.27 373.63 133.64 366.96
  C 131.12 364.75 128.38 362.99 125.63 360.35
  C 118.52 353.49 112.49 345.50 108.67 340.09
  Q 101.97 330.62 96.43 318.58
  C 94.28 313.92 93.06 308.81 91.73 304.96
  Q 87.58 292.93 86.39 280.22
  Q 84.71 262.24 85.25 256.25
  Q 86.01 247.65 86.83 239.12
  Q 88.14 227.03 89.51 222.04
  C 91.75 213.85 93.24 206.15 95.94 199.11
  Q 102.22 182.76 107.25 173.52
  Q 108.06 172.03 113.17 162.88
  Q 116.38 157.15 119.75 152.83
  C 122.51 149.29 125.89 144.28 129.46 139.99
  Q 147.66 118.19 173.07 101.81
  Q 183.80 94.89 195.79 90.20
  Q 208.69 85.15 220.13 82.40
  Q 253.09 74.47 285.51 85.84
  Z
  M 239.76 107.70
  A 0.73 0.72 52.6 0 0 238.75 107.56
  C 229.81 114.16 220.35 123.24 217.71 134.50
  Q 215.47 144.04 217.92 152.18
  C 219.91 158.75 226.67 163.80 232.44 167.60
  A 0.93 0.91 -47.1 0 0 233.50 167.55
  Q 239.49 162.86 245.23 156.23
  C 254.06 146.03 252.89 134.66 248.72 122.00
  C 246.98 116.72 243.29 112.34 239.76 107.70
  Z
  M 296.20 134.45
  C 287.15 134.08 276.70 138.31 269.19 143.56
  C 257.19 151.93 257.66 166.58 258.99 179.73
  A 0.69 0.69 0.0 0 0 259.63 180.35
  Q 267.39 180.92 275.06 178.27
  Q 279.97 176.58 284.37 172.08
  Q 298.77 157.35 296.84 135.06
  A 0.68 0.68 0.0 0 0 296.20 134.45
  Z
  M 177.64 135.31
  A 0.80 0.80 0.0 0 0 176.85 135.92
  Q 173.44 150.02 177.00 163.25
  C 178.85 170.15 184.78 175.76 191.70 178.19
  Q 197.04 180.07 202.16 180.59
  A 1.50 1.50 0.0 0 0 203.73 179.59
  C 208.31 166.53 208.28 154.32 198.86 143.91
  C 193.45 137.93 185.18 135.48 177.64 135.31
  Z
  M 140.01 163.62
  C 139.47 176.26 141.20 187.99 152.73 195.02
  C 158.40 198.48 167.51 198.25 174.08 197.07
  A 0.66 0.66 0.0 0 0 174.61 196.38
  Q 174.06 189.56 173.06 184.22
  C 171.87 177.86 168.23 169.95 162.41 166.98
  Q 152.27 161.80 140.60 163.00
  A 0.66 0.65 -2.1 0 0 140.01 163.62
  Z
  M 329.96 164.60
  A 0.96 0.96 0.0 0 0 329.13 163.54
  Q 321.05 162.46 314.16 163.87
  C 305.90 165.58 301.28 169.76 296.54 176.57
  C 292.51 182.38 291.58 190.55 292.03 197.29
  A 0.66 0.64 89.0 0 0 292.65 197.90
  C 300.93 198.26 308.56 198.10 315.80 193.14
  C 324.07 187.48 328.87 174.31 329.96 164.60
  Z
  M 226.97 223.87
  Q 232.04 220.33 236.04 215.95
  C 239.75 211.87 242.61 204.69 242.12 199.10
  C 241.61 193.38 238.43 180.32 232.93 176.77
  A 1.36 1.36 0.0 0 0 231.69 176.65
  C 225.90 178.89 219.77 186.98 216.88 193.03
  C 213.40 200.34 214.38 207.52 218.05 214.47
  C 219.98 218.12 223.29 221.18 226.08 223.81
  A 0.71 0.71 0.0 0 0 226.97 223.87
  Z
  M 278.77 188.75
  Q 270.05 190.88 260.50 196.56
  Q 256.12 199.16 254.34 201.43
  C 248.35 209.04 247.89 220.34 250.61 229.36
  A 0.80 0.80 0.0 0 0 251.55 229.91
  C 260.62 227.91 273.80 221.52 277.90 212.57
  C 281.28 205.16 281.53 197.11 279.58 189.24
  A 0.67 0.67 0.0 0 0 278.77 188.75
  Z
  M 201.49 230.61
  A 0.90 0.89 15.7 0 0 202.46 230.07
  C 206.19 221.18 208.23 211.98 204.30 202.66
  C 201.37 195.71 191.16 190.88 184.47 189.00
  A 0.91 0.90 19.4 0 0 183.39 189.51
  C 180.47 196.30 178.26 205.01 179.91 211.99
  C 182.39 222.57 190.68 228.92 201.49 230.61
  Z
  M 111.72 209.15
  Q 118.73 219.32 124.08 224.94
  C 131.11 232.34 141.06 233.85 150.82 232.70
  C 156.43 232.04 163.46 228.75 168.46 225.98
  A 0.94 0.93 63.1 0 0 168.85 224.77
  C 165.60 217.82 159.57 207.83 152.95 204.50
  C 141.51 198.76 127.25 201.32 115.69 205.88
  Q 113.75 206.65 111.82 208.37
  A 0.60 0.60 0.0 0 0 111.72 209.15
  Z
  M 343.85 209.26
  Q 341.90 207.72 339.38 206.79
  C 327.28 202.32 311.22 200.62 300.68 209.77
  Q 293.49 216.00 288.61 224.39
  A 1.20 1.20 0.0 0 0 289.00 226.00
  C 294.50 229.56 302.73 233.03 309.44 232.73
  C 321.70 232.18 331.13 224.33 339.35 216.10
  Q 342.26 213.19 344.04 210.39
  A 0.85 0.85 0.0 0 0 343.85 209.26
  Z
  M 291.33 236.76
  L 249.77 237.33
  A 1.88 1.87 -69.0 0 0 248.41 237.94
  C 243.01 243.91 239.20 251.25 234.55 257.58
  C 228.42 265.95 226.03 269.55 219.43 278.87
  A 0.34 0.34 0.0 0 1 218.84 278.81
  Q 215.56 271.29 211.39 264.19
  C 205.45 254.09 201.73 246.92 196.49 237.60
  A 1.18 1.17 -14.1 0 0 195.48 237.00
  L 155.15 236.45
  A 0.30 0.30 0.0 0 0 154.88 236.88
  Q 158.73 244.63 160.90 248.33
  Q 165.37 255.96 174.92 271.78
  Q 176.79 274.88 179.00 278.55
  Q 195.39 305.77 196.77 308.16
  Q 198.05 310.37 197.87 314.23
  Q 197.60 319.96 197.36 321.76
  Q 194.78 341.04 192.72 360.46
  A 0.48 0.48 0.0 0 0 193.19 360.99
  L 229.20 361.48
  A 0.96 0.95 -87.1 0 0 230.16 360.61
  Q 231.94 341.55 235.64 317.89
  C 236.58 311.93 238.29 308.06 241.77 303.83
  Q 245.34 299.47 245.63 299.08
  Q 260.67 278.58 276.82 257.83
  Q 279.19 254.78 283.43 248.17
  Q 287.02 242.57 291.64 237.45
  A 0.41 0.41 0.0 0 0 291.33 236.76
  Z
  M 154.22 254.39
  Q 146.17 243.32 132.22 242.26
  C 122.02 241.48 114.62 247.90 108.47 254.95
  A 1.01 1.00 48.4 0 0 108.40 256.19
  Q 114.38 264.93 124.50 266.46
  Q 133.19 267.78 140.46 264.29
  C 145.39 261.92 150.41 258.86 154.15 255.21
  A 0.63 0.63 0.0 0 0 154.22 254.39
  Z
  M 289.78 256.06
  Q 293.65 261.43 300.11 265.68
  C 313.35 274.40 325.12 267.69 335.90 259.22
  A 1.34 1.33 56.9 0 0 336.25 257.54
  C 333.10 251.57 326.64 246.46 320.72 244.34
  C 316.36 242.79 309.40 243.19 304.87 245.12
  Q 297.14 248.41 289.88 255.09
  A 0.74 0.73 50.9 0 0 289.78 256.06
  Z
  M 274.63 278.01
  Q 276.32 286.58 280.02 293.48
  Q 283.39 299.76 289.15 301.25
  Q 301.32 304.39 314.15 300.17
  A 0.74 0.73 79.8 0 0 314.66 299.43
  C 314.20 290.09 309.24 283.43 301.91 277.55
  C 294.01 271.22 283.71 273.67 275.12 277.11
  A 0.81 0.81 0.0 0 0 274.63 278.01
  Z
  M 139.37 277.69
  C 130.50 282.12 125.34 289.58 125.06 299.82
  A 0.83 0.82 9.3 0 0 125.64 300.62
  C 133.14 302.91 143.73 304.11 150.81 300.56
  C 157.89 297.02 163.28 287.83 165.96 280.46
  A 0.83 0.82 -62.4 0 0 165.66 279.51
  C 157.30 273.59 148.23 273.25 139.37 277.69
  Z"
/>
<path fill="#f2ca22" d="
  M 359.01 90.03
  Q 364.85 95.14 370.11 99.68
  Q 372.25 101.54 374.17 103.55
  Q 376.22 105.69 378.04 107.61
  Q 380.15 112.96 383.59 117.17
  Q 385.23 119.17 386.97 125.31
  Q 382.78 122.75 380.05 118.70
  Q 374.10 109.84 363.20 95.16
  Q 359.50 92.53 359.01 90.03
  Z"
/>
<path fill="#dfb009" d="
  M 357.48 101.92
  C 359.80 104.75 361.85 107.30 363.99 110.61
  Q 367.63 116.26 368.75 118.08
  C 376.27 130.27 382.00 142.58 385.87 156.03
  C 389.98 170.31 392.91 183.08 393.94 197.58
  Q 395.94 225.69 389.43 254.28
  Q 388.20 259.70 385.12 273.14
  Q 383.91 278.41 381.14 283.54
  Q 374.02 299.83 366.25 315.56
  Q 363.28 321.55 360.15 326.11
  C 356.53 331.36 353.21 336.59 348.97 341.55
  Q 346.75 344.16 344.67 346.89
  Q 337.16 357.53 330.39 363.40
  Q 326.37 366.90 324.15 368.99
  Q 318.48 374.33 318.06 374.70
  Q 299.99 390.21 278.11 401.59
  C 272.22 404.65 266.40 406.61 260.44 408.88
  Q 241.80 415.97 225.26 418.56
  C 199.87 422.52 176.20 418.58 152.35 409.42
  Q 142.04 405.46 134.91 401.42
  Q 116.92 391.21 102.09 376.15
  Q 97.23 371.22 92.45 364.41
  C 88.31 358.51 84.07 352.70 81.21 346.49
  Q 84.73 349.58 87.32 353.32
  Q 90.00 357.20 90.60 357.90
  C 92.51 360.13 93.44 361.81 95.29 363.78
  C 104.05 373.11 113.41 381.58 124.17 388.29
  Q 130.01 391.93 140.27 397.79
  Q 142.33 398.97 151.99 403.15
  Q 158.49 405.96 164.11 407.38
  Q 172.90 409.60 177.81 410.65
  Q 183.65 411.90 191.78 412.21
  Q 201.99 412.61 212.57 412.37
  C 223.90 412.11 232.49 409.31 244.87 405.84
  Q 251.25 404.05 258.38 400.61
  Q 269.81 395.09 276.95 391.34
  Q 279.71 389.89 281.56 388.63
  C 285.19 386.15 289.34 384.37 292.62 381.81
  C 295.35 379.69 298.02 377.94 300.64 375.54
  Q 306.65 370.04 315.51 363.51
  Q 317.58 361.99 320.65 358.90
  Q 323.07 356.46 336.40 342.15
  Q 339.64 338.67 344.67 330.40
  Q 346.26 327.78 352.00 319.69
  Q 359.04 309.76 362.60 301.63
  Q 368.81 287.46 371.12 281.37
  Q 372.69 277.23 373.97 272.24
  Q 378.74 253.71 379.87 248.93
  Q 383.23 234.74 383.90 226.24
  Q 384.27 221.61 384.67 210.00
  Q 385.52 185.99 381.18 162.55
  C 377.90 144.79 371.71 129.95 362.97 114.20
  C 361.31 111.21 359.36 108.61 357.41 105.83
  Q 355.93 103.73 357.48 101.92
  Z"
/>
<path fill="#08604a" d="
  M 239.76 107.70
  C 243.29 112.34 246.98 116.72 248.72 122.00
  C 252.89 134.66 254.06 146.03 245.23 156.23
  Q 239.49 162.86 233.50 167.55
  A 0.93 0.91 -47.1 0 1 232.44 167.60
  C 226.67 163.80 219.91 158.75 217.92 152.18
  Q 215.47 144.04 217.71 134.50
  C 220.35 123.24 229.81 114.16 238.75 107.56
  A 0.73 0.72 52.6 0 1 239.76 107.70
  Z"
/>
<path fill="#967305" d="
  M 386.97 125.31
  Q 385.23 119.17 383.59 117.17
  Q 380.15 112.96 378.04 107.61
  Q 391.29 120.16 400.63 135.21
  A 0.16 0.16 0.0 0 1 400.40 135.42
  L 386.97 125.31
  Z"
/>
<path fill="#08604a" d="
  M 296.84 135.06
  Q 298.77 157.35 284.37 172.08
  Q 279.97 176.58 275.06 178.27
  Q 267.39 180.92 259.63 180.35
  A 0.69 0.69 0.0 0 1 258.99 179.73
  C 257.66 166.58 257.19 151.93 269.19 143.56
  C 276.70 138.31 287.15 134.08 296.20 134.45
  A 0.68 0.68 0.0 0 1 296.84 135.06
  Z"
/>
<path fill="#f2ca22" d="
  M 393.64 137.99
  Q 393.46 139.21 393.89 140.11
  Q 399.40 151.57 402.95 164.16
  Q 398.81 161.71 397.80 158.40
  Q 393.53 144.52 389.27 135.14
  A 0.22 0.22 0.0 0 1 389.57 134.86
  Q 391.91 136.02 393.64 137.99
  Z"
/>
<path fill="#08604a" d="
  M 177.64 135.31
  C 185.18 135.48 193.45 137.93 198.86 143.91
  C 208.28 154.32 208.31 166.53 203.73 179.59
  A 1.50 1.50 0.0 0 1 202.16 180.59
  Q 197.04 180.07 191.70 178.19
  C 184.78 175.76 178.85 170.15 177.00 163.25
  Q 173.44 150.02 176.85 135.92
  A 0.80 0.80 0.0 0 1 177.64 135.31
  Z"
/>
<path fill="#ac8f11" d="
  M 402.95 164.16
  Q 399.40 151.57 393.89 140.11
  Q 393.46 139.21 393.64 137.99
  Q 398.73 141.84 405.41 147.59
  C 408.35 150.11 410.11 152.26 411.89 155.69
  Q 418.12 167.73 422.40 180.51
  A 0.16 0.16 0.0 0 1 422.15 180.69
  Q 411.69 172.85 402.95 164.16
  Z"
/>
<path fill="#08604a" d="
  M 140.60 163.00
  Q 152.27 161.80 162.41 166.98
  C 168.23 169.95 171.87 177.86 173.06 184.22
  Q 174.06 189.56 174.61 196.38
  A 0.66 0.66 0.0 0 1 174.08 197.07
  C 167.51 198.25 158.40 198.48 152.73 195.02
  C 141.20 187.99 139.47 176.26 140.01 163.62
  A 0.66 0.65 -2.1 0 1 140.60 163.00
  Z"
/>
<path fill="#08604a" d="
  M 329.96 164.60
  C 328.87 174.31 324.07 187.48 315.80 193.14
  C 308.56 198.10 300.93 198.26 292.65 197.90
  A 0.66 0.64 89.0 0 1 292.03 197.29
  C 291.58 190.55 292.51 182.38 296.54 176.57
  C 301.28 169.76 305.90 165.58 314.16 163.87
  Q 321.05 162.46 329.13 163.54
  A 0.96 0.96 0.0 0 1 329.96 164.60
  Z"
/>
<path fill="#f2ca22" d="
  M 404.40 176.20
  Q 405.66 189.77 406.22 203.25
  Q 406.24 203.72 405.70 203.85
  Q 405.09 203.03 405.08 202.65
  Q 404.50 188.04 401.46 173.82
  A 0.23 0.23 0.0 0 1 401.85 173.61
  L 404.40 176.20
  Z"
/>
<path fill="#ac8f11" d="
  M 405.70 203.85
  Q 406.24 203.72 406.22 203.25
  Q 405.66 189.77 404.40 176.20
  Q 414.43 185.33 424.40 194.62
  C 426.40 196.48 426.73 199.86 427.04 202.73
  Q 428.56 216.80 429.29 224.83
  A 0.31 0.31 0.0 0 1 428.75 225.07
  C 424.97 220.92 419.97 217.70 415.83 213.95
  Q 411.81 210.31 406.20 204.56
  Q 405.88 204.24 405.70 203.85
  Z"
/>
<path fill="#08604a" d="
  M 226.97 223.87
  A 0.71 0.71 0.0 0 1 226.08 223.81
  C 223.29 221.18 219.98 218.12 218.05 214.47
  C 214.38 207.52 213.40 200.34 216.88 193.03
  C 219.77 186.98 225.90 178.89 231.69 176.65
  A 1.36 1.36 0.0 0 1 232.93 176.77
  C 238.43 180.32 241.61 193.38 242.12 199.10
  C 242.61 204.69 239.75 211.87 236.04 215.95
  Q 232.04 220.33 226.97 223.87
  Z"
/>
<path fill="#08604a" d="
  M 278.77 188.75
  A 0.67 0.67 0.0 0 1 279.58 189.24
  C 281.53 197.11 281.28 205.16 277.90 212.57
  C 273.80 221.52 260.62 227.91 251.55 229.91
  A 0.80 0.80 0.0 0 1 250.61 229.36
  C 247.89 220.34 248.35 209.04 254.34 201.43
  Q 256.12 199.16 260.50 196.56
  Q 270.05 190.88 278.77 188.75
  Z"
/>
<path fill="#08604a" d="
  M 201.49 230.61
  C 190.68 228.92 182.39 222.57 179.91 211.99
  C 178.26 205.01 180.47 196.30 183.39 189.51
  A 0.91 0.90 19.4 0 1 184.47 189.00
  C 191.16 190.88 201.37 195.71 204.30 202.66
  C 208.23 211.98 206.19 221.18 202.46 230.07
  A 0.90 0.89 15.7 0 1 201.49 230.61
  Z"
/>
<path fill="#08604a" d="
  M 111.82 208.37
  Q 113.75 206.65 115.69 205.88
  C 127.25 201.32 141.51 198.76 152.95 204.50
  C 159.57 207.83 165.60 217.82 168.85 224.77
  A 0.94 0.93 63.1 0 1 168.46 225.98
  C 163.46 228.75 156.43 232.04 150.82 232.70
  C 141.06 233.85 131.11 232.34 124.08 224.94
  Q 118.73 219.32 111.72 209.15
  A 0.60 0.60 0.0 0 1 111.82 208.37
  Z"
/>
<path fill="#08604a" d="
  M 343.85 209.26
  A 0.85 0.85 0.0 0 1 344.04 210.39
  Q 342.26 213.19 339.35 216.10
  C 331.13 224.33 321.70 232.18 309.44 232.73
  C 302.73 233.03 294.50 229.56 289.00 226.00
  A 1.20 1.20 0.0 0 1 288.61 224.39
  Q 293.49 216.00 300.68 209.77
  C 311.22 200.62 327.28 202.32 339.38 206.79
  Q 341.90 207.72 343.85 209.26
  Z"
/>
<path fill="#f2ca22" d="
  M 406.89 218.84
  Q 407.12 234.86 405.27 250.64
  L 402.76 247.15
  A 1.21 1.20 -57.9 0 1 402.56 246.24
  Q 405.24 231.75 405.01 217.10
  A 0.30 0.30 0.0 0 1 405.56 216.92
  L 406.89 218.84
  Z"
/>
<path fill="#ac8f11" d="
  M 405.27 250.64
  Q 407.12 234.86 406.89 218.84
  L 428.36 237.27
  A 3.35 3.33 20.8 0 1 429.53 239.85
  Q 429.33 256.41 427.57 270.76
  A 0.55 0.55 0.0 0 1 426.66 271.10
  Q 418.88 264.12 410.73 257.28
  Q 407.04 254.20 405.27 250.64
  Z"
/>
<path fill="#08604a" d="
  M 291.33 236.76
  A 0.41 0.41 0.0 0 1 291.64 237.45
  Q 287.02 242.57 283.43 248.17
  Q 279.19 254.78 276.82 257.83
  Q 260.67 278.58 245.63 299.08
  Q 245.34 299.47 241.77 303.83
  C 238.29 308.06 236.58 311.93 235.64 317.89
  Q 231.94 341.55 230.16 360.61
  A 0.96 0.95 -87.1 0 1 229.20 361.48
  L 193.19 360.99
  A 0.48 0.48 0.0 0 1 192.72 360.46
  Q 194.78 341.04 197.36 321.76
  Q 197.60 319.96 197.87 314.23
  Q 198.05 310.37 196.77 308.16
  Q 195.39 305.77 179.00 278.55
  Q 176.79 274.88 174.92 271.78
  Q 165.37 255.96 160.90 248.33
  Q 158.73 244.63 154.88 236.88
  A 0.30 0.30 0.0 0 1 155.15 236.45
  L 195.48 237.00
  A 1.18 1.17 -14.1 0 1 196.49 237.60
  C 201.73 246.92 205.45 254.09 211.39 264.19
  Q 215.56 271.29 218.84 278.81
  A 0.34 0.34 0.0 0 0 219.43 278.87
  C 226.03 269.55 228.42 265.95 234.55 257.58
  C 239.20 251.25 243.01 243.91 248.41 237.94
  A 1.88 1.87 -69.0 0 1 249.77 237.33
  L 291.33 236.76
  Z"
/>
<path fill="#08604a" d="
  M 154.15 255.21
  C 150.41 258.86 145.39 261.92 140.46 264.29
  Q 133.19 267.78 124.50 266.46
  Q 114.38 264.93 108.40 256.19
  A 1.01 1.00 48.4 0 1 108.47 254.95
  C 114.62 247.90 122.02 241.48 132.22 242.26
  Q 146.17 243.32 154.22 254.39
  A 0.63 0.63 0.0 0 1 154.15 255.21
  Z"
/>
<path fill="#08604a" d="
  M 289.88 255.09
  Q 297.14 248.41 304.87 245.12
  C 309.40 243.19 316.36 242.79 320.72 244.34
  C 326.64 246.46 333.10 251.57 336.25 257.54
  A 1.34 1.33 56.9 0 1 335.90 259.22
  C 325.12 267.69 313.35 274.40 300.11 265.68
  Q 293.65 261.43 289.78 256.06
  A 0.74 0.73 50.9 0 1 289.88 255.09
  Z"
/>
<path fill="#ac8f11" d="
  M 399.26 260.94
  A 0.73 0.72 29.6 0 1 400.50 260.60
  Q 409.00 269.78 419.63 278.62
  Q 422.35 280.87 424.91 282.43
  A 1.96 1.96 0.0 0 1 425.76 284.70
  L 417.16 311.68
  A 0.43 0.43 0.0 0 1 416.47 311.89
  L 390.73 290.84
  A 1.23 1.22 -59.0 0 1 390.38 289.41
  Q 396.15 275.63 399.26 260.94
  Z"
/>
<path fill="#08604a" d="
  M 275.12 277.11
  C 283.71 273.67 294.01 271.22 301.91 277.55
  C 309.24 283.43 314.20 290.09 314.66 299.43
  A 0.74 0.73 79.8 0 1 314.15 300.17
  Q 301.32 304.39 289.15 301.25
  Q 283.39 299.76 280.02 293.48
  Q 276.32 286.58 274.63 278.01
  A 0.81 0.81 0.0 0 1 275.12 277.11
  Z"
/>
<path fill="#08604a" d="
  M 150.81 300.56
  C 143.73 304.11 133.14 302.91 125.64 300.62
  A 0.83 0.82 9.3 0 1 125.06 299.82
  C 125.34 289.58 130.50 282.12 139.37 277.69
  C 148.23 273.25 157.30 273.59 165.66 279.51
  A 0.83 0.82 -62.4 0 1 165.96 280.46
  C 163.28 287.83 157.89 297.02 150.81 300.56
  Z"
/>
<path fill="#7b5f08" d="
  M 381.14 283.54
  Q 381.26 286.39 380.07 289.06
  Q 369.06 313.67 364.42 321.92
  Q 359.65 330.39 349.08 343.71
  Q 346.60 346.77 344.67 346.89
  Q 346.75 344.16 348.97 341.55
  C 353.21 336.59 356.53 331.36 360.15 326.11
  Q 363.28 321.55 366.25 315.56
  Q 374.02 299.83 381.14 283.54
  Z"
/>
<path fill="#ac8f11" d="
  M 385.76 301.33
  A 0.32 0.31 -63.5 0 1 386.22 301.17
  Q 388.31 302.46 389.52 303.48
  Q 401.46 313.51 411.71 322.60
  A 0.95 0.95 0.0 0 1 411.94 323.69
  C 408.69 330.86 405.08 340.45 399.79 348.05
  A 0.53 0.52 36.2 0 1 399.04 348.16
  C 393.42 343.75 389.63 341.44 384.27 336.61
  Q 380.97 333.64 373.42 327.70
  A 1.08 1.08 0.0 0 1 373.19 326.25
  Q 380.75 314.98 385.76 301.33
  Z"
/>
<path fill="#ac8f11" d="
  M 382.88 371.62
  Q 378.13 377.40 371.93 383.79
  A 0.63 0.63 0.0 0 1 371.08 383.84
  L 345.60 363.00
  A 0.68 0.68 0.0 0 1 345.57 361.98
  C 349.58 358.27 352.09 355.46 356.59 349.99
  C 361.09 344.52 363.36 341.52 366.23 336.87
  A 0.68 0.68 0.0 0 1 367.24 336.70
  L 392.60 357.69
  A 0.63 0.63 0.0 0 1 392.71 358.53
  Q 387.63 365.85 382.88 371.62
  Z"
/>
<path fill="#967305" d="
  M 338.94 370.63
  Q 347.92 378.68 356.65 384.57
  Q 359.57 386.54 364.23 390.28
  A 0.92 0.91 43.5 0 1 364.27 391.68
  Q 353.25 401.68 341.83 409.57
  A 0.97 0.96 45.5 0 1 340.71 409.55
  L 319.05 393.38
  L 316.24 391.33
  A 0.53 0.53 0.0 0 1 316.20 390.50
  L 338.94 370.63
  Z"
/>
<path fill="#967305" d="
  M 306.93 397.01
  L 332.40 415.33
  A 0.67 0.67 0.0 0 1 332.40 416.42
  Q 319.77 425.44 305.41 430.56
  A 1.60 1.60 0.0 0 1 304.00 430.38
  L 281.34 415.24
  L 278.71 413.03
  A 0.34 0.34 0.0 0 1 278.77 412.46
  Q 284.33 409.52 290.07 406.89
  Q 293.18 405.46 298.53 402.03
  Q 302.89 399.24 306.93 397.01
  Z"
/>
<path fill="#7b5f08" d="
  M 178.45 429.39
  Q 184.60 435.05 192.19 440.00
  A 0.43 0.43 0.0 0 1 191.86 440.78
  Q 186.70 439.53 181.25 437.30
  Q 165.03 430.68 157.51 426.74
  Q 152.64 424.19 143.48 417.71
  Q 143.33 417.71 143.43 417.47
  A 0.34 0.34 0.0 0 1 143.87 417.27
  L 178.45 429.39
  Z"
/>
<path fill="#967305" d="
  M 270.18 418.21
  L 294.12 434.34
  A 0.81 0.81 0.0 0 1 293.95 435.77
  Q 278.85 441.18 262.78 443.95
  A 2.85 2.81 -32.3 0 1 260.68 443.49
  L 236.88 427.09
  Q 250.99 424.11 267.52 417.44
  Q 268.86 416.90 270.18 418.21
  Z"
/>
<path fill="#967305" d="
  M 222.16 428.80
  L 245.66 445.21
  A 0.48 0.47 58.7 0 1 245.45 446.07
  Q 231.37 447.91 217.25 445.78
  Q 213.40 445.20 209.51 442.72
  Q 200.10 436.74 190.76 430.34
  L 187.98 428.73
  A 0.35 0.35 0.0 0 1 188.20 428.08
  Q 204.59 430.08 222.16 428.80
  Z"
/>
</svg>
