<?xml version="1.0" encoding="UTF-8" standalone="no"?>
<!DOCTYPE svg PUBLIC "-//W3C//DTD SVG 1.1//EN" "http://www.w3.org/Graphics/SVG/1.1/DTD/svg11.dtd">
<svg xmlns="http://www.w3.org/2000/svg" version="1.1" viewBox="0.00 0.00 1024.00 1024.00">
<g stroke-width="2.00" fill="none" stroke-linecap="butt">
<path stroke="#80a493" vector-effect="non-scaling-stroke" d="
  M 442.00 95.95
  Q 424.97 98.96 408.19 105.26"
/>
<path stroke="#84ac98" vector-effect="non-scaling-stroke" d="
  M 408.19 105.26
  Q 399.14 107.31 387.72 111.99
  C 366.21 120.82 347.69 129.09 329.02 140.50"
/>
<path stroke="#80a493" vector-effect="non-scaling-stroke" d="
  M 329.02 140.50
  C 293.57 162.10 262.62 185.78 233.73 215.46"
/>
<path stroke="#84ac98" vector-effect="non-scaling-stroke" d="
  M 233.73 215.46
  Q 189.81 261.22 160.35 317.58
  Q 132.53 370.81 117.68 428.17
  Q 99.52 498.31 105.27 571.25
  Q 110.11 632.77 133.82 690.73
  Q 147.01 722.95 166.70 751.52"
/>
<path stroke="#80a493" vector-effect="non-scaling-stroke" d="
  M 166.70 751.52
  Q 184.21 776.18 204.95 798.05
  Q 219.92 813.84 227.06 820.70
  Q 265.73 857.85 312.25 886.01
  C 336.92 900.94 363.87 912.28 391.74 920.72
  Q 443.80 936.49 497.97 934.87
  Q 552.65 933.23 606.30 915.07
  C 634.26 905.60 661.07 893.58 686.16 877.91
  Q 718.23 857.87 746.06 834.56
  C 798.78 790.40 839.10 734.86 866.90 671.88
  Q 875.30 652.87 882.69 628.44
  Q 893.50 592.69 898.56 557.80
  C 903.49 523.78 904.33 489.11 901.32 454.66
  Q 899.80 437.20 898.54 424.50
  Q 897.54 414.44 894.30 401.71
  Q 887.98 376.90 882.75 360.10
  Q 879.88 350.86 871.84 331.54
  Q 861.59 306.90 847.29 283.75
  Q 834.65 263.31 816.28 239.96
  Q 797.74 216.40 777.52 197.82
  C 751.39 173.80 723.44 152.34 693.05 135.45
  Q 665.61 120.19 637.44 108.81
  Q 599.86 93.61 555.20 89.44"
/>
<path stroke="#84ac98" vector-effect="non-scaling-stroke" d="
  M 555.20 89.44
  Q 539.01 87.79 522.59 87.18
  Q 517.68 87.00 509.93 87.48
  Q 505.05 87.78 497.27 88.13
  Q 471.12 89.30 442.00 95.95"
/>
<path stroke="#045745" vector-effect="non-scaling-stroke" d="
  M 555.20 89.44
  Q 555.09 90.96 558.28 90.66
  A 3.27 3.08 46.7 0 1 559.28 90.72
  Q 564.14 91.76 569.19 92.31
  C 574.01 92.85 578.18 93.89 582.85 94.45
  C 586.44 94.88 590.27 96.19 594.19 96.89
  Q 594.61 96.96 597.39 98.46
  A 4.08 3.84 -22.3 0 0 598.30 98.81
  Q 607.22 101.19 609.52 102.27
  Q 618.45 106.45 633.46 113.03
  Q 638.40 115.20 643.47 118.36
  Q 644.85 119.22 653.37 123.78
  C 679.42 137.71 704.40 156.27 727.24 176.33
  A 2.84 2.70 -11.7 0 0 728.03 176.82
  Q 733.22 179.06 734.73 184.58"
/>
<path stroke="#7d9536" vector-effect="non-scaling-stroke" d="
  M 734.73 184.58
  Q 734.32 184.16 733.89 184.08
  A 0.34 0.34 0.0 0 0 733.49 184.48
  Q 733.52 184.61 733.58 184.79"
/>
<path stroke="#045745" vector-effect="non-scaling-stroke" d="
  M 733.58 184.79
  Q 734.86 189.60 737.49 192.24
  Q 744.85 199.61 748.03 203.60
  A 1.24 1.19 -61.7 0 1 748.28 204.50
  Q 747.10 214.12 742.94 223.09"
/>
<path stroke="#74882a" vector-effect="non-scaling-stroke" d="
  M 742.94 223.09
  Q 731.59 207.08 717.78 193.41"
/>
<path stroke="#7d9536" vector-effect="non-scaling-stroke" d="
  M 717.78 193.41
  C 694.38 169.11 665.93 148.93 635.73 134.91
  C 608.96 122.48 579.24 115.22 549.74 112.26
  Q 526.84 109.96 515.00 109.80
  Q 483.25 109.35 451.20 115.70
  Q 426.06 120.69 398.25 131.01
  Q 390.37 133.94 376.12 140.61
  Q 358.24 148.99 354.34 151.07
  Q 325.05 166.68 302.02 183.28
  C 272.37 204.64 246.88 230.72 223.19 259.54
  Q 206.27 280.11 192.25 303.39
  Q 167.33 344.81 151.67 388.67
  Q 139.40 423.02 133.46 450.22
  Q 123.16 497.33 124.85 547.51
  C 126.68 602.17 139.51 656.79 163.98 705.75"
/>
<path stroke="#74882a" vector-effect="non-scaling-stroke" d="
  M 163.98 705.75
  Q 176.82 730.50 193.86 752.62
  Q 205.12 767.25 220.05 780.95
  C 237.21 796.71 254.87 810.21 274.76 820.88
  Q 294.84 831.65 305.95 836.33
  Q 326.52 845.01 352.68 851.65
  Q 417.53 868.11 482.96 852.90
  C 505.37 847.69 526.35 840.86 547.14 832.35
  Q 560.95 826.68 583.75 814.72
  Q 596.06 808.26 608.28 800.02
  Q 643.16 776.47 673.29 747.29
  Q 681.80 739.06 686.84 733.29"
/>
<path stroke="#43602a" vector-effect="non-scaling-stroke" d="
  M 686.84 733.29
  Q 688.72 732.97 689.66 731.91
  Q 694.11 726.88 698.75 722.03"
/>
<path stroke="#045745" vector-effect="non-scaling-stroke" d="
  M 698.75 722.03
  Q 697.68 732.99 693.38 743.15
  Q 688.18 755.45 683.45 768.01"
/>
<path stroke="#506a28" vector-effect="non-scaling-stroke" d="
  M 683.45 768.01
  Q 666.23 785.33 647.01 800.26
  A 0.69 0.69 0.0 0 0 647.01 801.34
  L 649.47 803.23"
/>
<path stroke="#045745" vector-effect="non-scaling-stroke" d="
  M 649.47 803.23
  Q 641.00 809.17 633.39 816.30"
/>
<path stroke="#506a28" vector-effect="non-scaling-stroke" d="
  M 633.39 816.30
  L 628.81 812.94
  A 1.28 1.26 46.6 0 0 627.37 812.89
  C 608.55 824.98 590.43 836.23 570.15 845.01
  A 0.56 0.55 -38.7 0 0 570.04 845.97
  L 574.47 849.14"
/>
<path stroke="#045745" vector-effect="non-scaling-stroke" d="
  M 574.47 849.14
  Q 564.14 854.19 552.45 856.07"
/>
<path stroke="#506a28" vector-effect="non-scaling-stroke" d="
  M 552.45 856.07
  C 551.31 854.84 550.10 854.53 548.43 855.13
  Q 543.46 856.91 538.55 858.79
  Q 512.72 868.66 484.71 873.99"
/>
<path stroke="#045745" vector-effect="non-scaling-stroke" d="
  M 484.71 873.99
  Q 473.46 878.63 460.64 881.83"
/>
<path stroke="#506a28" vector-effect="non-scaling-stroke" d="
  M 460.64 881.83
  Q 457.25 878.70 454.75 878.85
  Q 428.95 880.35 403.16 878.85
  Q 396.87 878.48 384.08 876.86"
/>
<path stroke="#045745" vector-effect="non-scaling-stroke" d="
  M 384.08 876.86
  L 355.78 874.55"
/>
<path stroke="#43602a" vector-effect="non-scaling-stroke" d="
  M 355.78 874.55
  Q 352.05 872.10 348.23 871.27
  Q 319.90 865.16 294.28 854.26"
/>
<path stroke="#045745" vector-effect="non-scaling-stroke" d="
  M 294.28 854.26
  Q 292.90 852.27 290.69 851.07
  Q 284.12 847.51 278.08 844.85
  Q 268.98 840.86 265.33 838.58
  Q 259.80 835.13 251.66 828.64
  C 244.61 823.02 235.17 818.44 227.77 813.07
  C 220.19 807.57 210.94 802.13 204.39 795.36
  Q 186.54 776.90 170.67 755.37
  Q 169.02 753.14 166.70 751.52"
/>
<path stroke="#045745" vector-effect="non-scaling-stroke" d="
  M 233.73 215.46
  Q 234.94 215.74 236.59 214.05
  Q 243.17 207.33 256.06 195.37
  C 258.21 193.37 260.05 192.42 262.13 190.12
  Q 263.15 189.00 266.56 186.08
  C 279.73 174.81 293.98 164.65 308.50 154.70
  C 312.62 151.88 318.67 148.35 323.42 144.83
  A 3.88 3.64 -73.4 0 1 324.21 144.37
  Q 327.61 142.91 329.02 140.50"
/>
<path stroke="#045745" vector-effect="non-scaling-stroke" d="
  M 408.19 105.26
  L 443.65 96.59
  A 0.33 0.32 -6.1 0 0 443.90 96.29
  Q 443.95 95.42 442.00 95.95"
/>
<path stroke="#3f5825" vector-effect="non-scaling-stroke" d="
  M 294.28 854.26
  Q 293.71 854.13 293.36 854.20
  A 0.38 0.38 0.0 0 0 293.21 854.88
  Q 317.10 871.81 341.68 883.26
  Q 366.80 894.96 393.39 902.82
  A 0.57 0.57 0.0 0 0 393.90 901.82
  Q 375.05 887.36 355.78 874.55"
/>
<path stroke="#4c6223" vector-effect="non-scaling-stroke" d="
  M 384.08 876.86
  Q 383.71 877.48 384.05 877.71
  Q 395.17 884.86 431.78 907.99
  Q 436.29 910.84 441.31 911.70
  Q 458.68 914.69 473.54 914.65
  Q 482.81 914.63 497.27 913.77
  Q 500.35 913.59 503.47 912.84
  A 0.57 0.57 0.0 0 0 503.73 911.87
  Q 503.72 911.86 503.63 911.66
  A 0.14 0.10 18.0 0 0 503.58 911.59
  L 460.64 881.83"
/>
<path stroke="#4c6223" vector-effect="non-scaling-stroke" d="
  M 484.71 873.99
  Q 487.02 876.64 490.07 878.70
  Q 501.89 886.71 512.40 893.97
  C 520.62 899.66 526.99 903.46 535.06 908.54
  A 1.85 1.82 -33.4 0 0 536.32 908.79
  Q 548.42 906.86 560.77 904.29
  Q 582.44 899.79 603.08 891.75
  A 0.35 0.35 0.0 0 0 603.15 891.14
  L 552.45 856.07"
/>
<path stroke="#4c6223" vector-effect="non-scaling-stroke" d="
  M 574.47 849.14
  Q 597.84 863.80 620.04 879.93
  Q 622.51 881.72 623.37 882.14
  A 3.34 3.30 62.5 0 0 624.27 882.43
  Q 625.31 882.60 627.41 881.65
  C 634.25 878.58 641.79 875.54 648.81 871.54
  Q 654.81 868.12 664.71 863.03
  C 670.71 859.94 676.93 855.78 681.52 852.13
  A 0.57 0.57 0.0 0 0 681.50 851.22
  L 633.39 816.30"
/>
<path stroke="#4c6223" vector-effect="non-scaling-stroke" d="
  M 649.47 803.23
  L 698.46 839.52
  A 1.07 1.06 45.2 0 0 699.70 839.53
  C 714.94 828.58 727.44 817.94 745.12 802.86
  Q 745.24 802.76 747.01 801.76
  A 0.63 0.62 -41.3 0 0 747.08 800.72
  L 693.46 759.88
  A 1.43 1.43 0.0 0 0 691.59 760.00
  L 683.45 768.01"
/>
<path stroke="#3f5825" vector-effect="non-scaling-stroke" d="
  M 698.75 722.03
  Q 709.15 710.83 713.48 705.48
  Q 722.97 693.74 736.38 674.13
  Q 748.05 657.05 756.85 638.32
  Q 761.74 627.92 772.05 605.05
  Q 780.58 586.14 784.53 571.61"
/>
<path stroke="#708025" vector-effect="non-scaling-stroke" d="
  M 784.53 571.61
  Q 785.83 566.43 787.66 561.13
  Q 790.15 553.93 790.94 550.71
  C 796.25 529.23 802.17 504.56 804.84 481.23
  Q 809.57 439.90 806.40 398.60
  Q 805.32 384.48 803.67 375.55
  Q 801.32 362.85 799.33 352.72
  Q 797.64 344.13 791.79 324.68
  Q 774.95 268.61 742.94 223.09"
/>
<path stroke="#798d31" vector-effect="non-scaling-stroke" d="
  M 733.58 184.79
  Q 737.05 188.78 740.89 192.61
  Q 745.71 197.43 755.17 210.07
  Q 769.36 229.03 781.26 248.29
  A 8.35 8.24 0.6 0 0 783.87 250.92
  L 794.67 257.73"
/>
<path stroke="#4c6223" vector-effect="non-scaling-stroke" d="
  M 794.67 257.73
  Q 801.52 262.89 808.76 268.07
  C 813.43 271.41 816.47 274.17 820.19 277.53
  A 0.35 0.35 0.0 0 0 820.72 277.08
  C 811.33 262.45 801.18 249.45 789.37 235.40
  Q 780.56 224.91 770.03 215.78"
/>
<path stroke="#798d31" vector-effect="non-scaling-stroke" d="
  M 770.03 215.78
  Q 764.28 209.75 760.58 206.43
  Q 750.04 196.96 734.73 184.58"
/>
<path stroke="#ae8809" vector-effect="non-scaling-stroke" d="
  M 784.53 571.61
  Q 778.01 584.89 770.11 603.62
  Q 764.09 617.92 751.41 644.17
  Q 748.37 650.47 743.94 657.41
  Q 740.25 663.17 735.75 670.26
  C 722.96 690.40 709.41 706.87 689.81 729.56
  Q 689.15 730.32 686.84 733.29"
/>
<path stroke="#e8bd16" vector-effect="non-scaling-stroke" d="
  M 717.78 193.41
  Q 717.54 194.76 717.51 194.79
  A 1.70 1.69 -47.9 0 0 717.63 197.22
  Q 723.81 202.65 727.42 208.35
  Q 733.49 217.94 739.67 227.12
  Q 745.48 235.74 749.35 243.58
  Q 758.67 262.42 759.18 263.57
  Q 763.71 273.79 769.63 290.78
  Q 773.88 302.98 776.08 312.92
  Q 779.08 326.48 780.72 335.51
  Q 780.82 336.07 784.30 359.09
  Q 786.12 371.15 786.65 382.78
  Q 787.79 407.91 787.15 431.87
  Q 787.10 434.12 786.33 454.19
  C 785.88 466.14 784.11 478.20 782.19 488.51
  C 778.91 506.12 775.37 519.68 768.98 545.40
  Q 764.78 562.31 762.08 570.49
  Q 757.54 584.22 752.76 594.83
  Q 742.23 618.19 737.05 628.34
  Q 731.25 639.70 725.47 647.98
  Q 718.36 658.17 711.62 668.56
  C 703.17 681.58 694.21 694.21 685.99 703.73
  Q 670.53 721.63 650.96 739.70
  C 642.41 747.60 632.21 755.30 624.21 761.96
  Q 610.14 773.67 596.39 783.61
  C 591.41 787.21 584.64 791.24 581.26 793.44
  Q 576.30 796.66 569.56 800.20
  Q 558.91 805.78 541.78 814.24
  Q 520.46 824.78 502.05 830.73
  Q 477.11 838.78 462.20 841.83
  Q 449.89 844.35 439.24 844.54
  C 424.92 844.81 414.58 845.44 402.25 844.78
  Q 397.60 844.53 380.61 843.62
  C 376.56 843.40 371.77 842.77 367.96 842.03
  C 353.05 839.13 335.64 835.06 319.56 828.64
  Q 304.02 822.44 295.87 818.61
  C 271.29 807.06 247.76 792.73 226.95 775.36
  Q 217.87 767.78 214.43 764.67
  Q 206.37 757.37 193.51 742.79
  Q 180.92 728.51 173.83 717.23
  A 3.48 3.42 4.3 0 0 173.12 716.42
  Q 170.78 714.43 169.08 710.87
  A 2.92 2.86 -81.8 0 0 168.43 709.98
  Q 167.17 708.80 166.67 707.01
  A 1.10 1.09 89.0 0 0 165.87 706.23
  L 163.98 705.75"
/>
<path stroke="#c49f14" vector-effect="non-scaling-stroke" d="
  M 770.03 215.78
  Q 770.52 218.01 772.13 219.66"
/>
<path stroke="#b79516" vector-effect="non-scaling-stroke" d="
  M 772.13 219.66
  Q 781.94 234.19 790.47 249.44"
/>
<path stroke="#c49f14" vector-effect="non-scaling-stroke" d="
  M 790.47 249.44
  L 794.67 257.73"
/>
<path stroke="#8a6a08" vector-effect="non-scaling-stroke" d="
  M 790.47 249.44
  Q 790.78 248.34 789.52 246.21
  Q 779.91 230.10 774.38 221.42
  Q 773.16 219.49 772.13 219.66"
/>
<path stroke="#566f29" vector-effect="non-scaling-stroke" d="
  M 824.44 336.34
  L 864.54 370.48
  A 0.19 0.19 0.0 0 0 864.84 370.28
  Q 853.99 338.11 839.55 310.89
  A 3.00 2.89 -85.2 0 0 838.85 310.03
  L 806.09 282.51"
/>
<path stroke="#798d31" vector-effect="non-scaling-stroke" d="
  M 806.09 282.51
  L 796.72 274.58
  A 0.18 0.18 0.0 0 0 796.44 274.79
  Q 807.51 298.65 814.70 324.58
  C 815.62 327.89 816.73 329.65 819.16 331.84
  Q 822.67 335.01 824.44 336.34"
/>
<path stroke="#cfad1a" vector-effect="non-scaling-stroke" d="
  M 806.09 282.51
  Q 805.64 283.94 805.93 284.52
  Q 814.79 302.18 820.87 321.27
  C 822.59 326.67 823.26 331.37 825.16 336.04
  A 0.21 0.21 0.0 0 1 824.91 336.32
  Q 824.73 336.27 824.44 336.34"
/>
<path stroke="#566f29" vector-effect="non-scaling-stroke" d="
  M 831.77 418.76
  Q 833.61 421.15 835.42 422.82
  C 846.26 432.82 853.17 439.49 862.58 447.43
  Q 869.99 453.68 878.84 461.46
  A 0.49 0.49 0.0 0 0 879.65 461.05
  Q 877.02 432.01 871.76 402.35
  A 3.84 3.81 16.7 0 0 870.59 400.20
  L 828.57 361.44"
/>
<path stroke="#798d31" vector-effect="non-scaling-stroke" d="
  M 828.57 361.44
  L 822.19 354.91
  A 0.25 0.25 0.0 0 0 821.76 355.14
  Q 826.58 378.53 828.52 402.51
  Q 828.91 407.31 828.97 415.01
  Q 828.98 416.79 831.77 418.76"
/>
<path stroke="#cfad1a" vector-effect="non-scaling-stroke" d="
  M 828.57 361.44
  Q 829.02 370.59 829.57 379.51
  Q 829.69 381.49 829.76 383.50
  Q 830.23 396.70 830.79 409.89
  Q 830.87 411.79 831.24 414.33
  Q 831.55 416.45 831.77 418.76"
/>
<path stroke="#566f29" vector-effect="non-scaling-stroke" d="
  M 828.74 512.13
  Q 831.67 517.32 836.32 521.69
  Q 855.22 539.48 874.39 555.86
  A 0.76 0.75 -66.0 0 0 875.63 555.38
  C 877.46 541.13 878.72 531.20 879.25 516.90
  C 879.73 503.90 880.15 495.81 879.87 489.25
  A 2.99 2.98 -71.2 0 0 878.80 487.07
  L 835.90 450.75"
/>
<path stroke="#798d31" vector-effect="non-scaling-stroke" d="
  M 835.90 450.75
  L 829.55 443.24
  A 0.31 0.31 0.0 0 0 829.01 443.44
  Q 829.33 474.41 824.15 504.66
  A 2.65 2.64 -58.9 0 0 824.65 506.70
  L 828.74 512.13"
/>
<path stroke="#cfad1a" vector-effect="non-scaling-stroke" d="
  M 835.90 450.75
  L 834.10 451.08
  A 0.57 0.56 -8.4 0 0 833.64 451.69
  Q 834.21 457.48 834.11 460.50
  Q 833.78 470.09 832.27 493.98
  Q 831.79 501.60 828.74 512.13"
/>
<path stroke="#566f29" vector-effect="non-scaling-stroke" d="
  M 853.87 638.12
  Q 863.58 610.10 871.56 581.65
  A 1.42 1.42 0.0 0 0 871.08 580.15
  Q 847.34 561.00 824.71 539.25
  C 823.21 537.81 821.42 535.25 819.74 534.30
  A 0.69 0.58 4.7 0 1 819.51 534.07
  L 818.83 532.85
  A 0.42 0.42 0.0 0 0 818.08 532.90
  C 816.77 536.22 816.70 540.05 815.75 543.73
  Q 813.94 550.79 810.95 560.50
  Q 805.88 577.00 799.67 593.92
  A 1.16 1.15 29.6 0 0 800.03 595.21
  L 852.78 638.42
  A 0.69 0.68 29.3 0 0 853.87 638.12"
/>
<path stroke="#566f29" vector-effect="non-scaling-stroke" d="
  M 818.29 713.37
  Q 833.13 688.00 844.19 662.34
  A 1.15 1.14 32.0 0 0 843.88 661.02
  L 791.22 616.12
  A 0.59 0.59 0.0 0 0 790.29 616.35
  Q 779.41 644.23 764.10 669.28
  A 1.24 1.23 -54.9 0 0 764.38 670.89
  L 817.31 713.55
  A 0.66 0.65 34.3 0 0 818.29 713.37"
/>
<path stroke="#566f29" vector-effect="non-scaling-stroke" d="
  M 751.20 688.52
  Q 750.50 689.19 750.27 689.52
  C 744.20 698.35 738.67 706.72 732.22 714.57
  Q 720.61 728.67 708.23 741.72
  A 1.51 1.51 0.0 0 0 708.40 743.95
  C 716.04 749.80 722.26 755.89 729.87 761.75
  Q 748.59 776.14 752.18 779.00
  C 755.25 781.44 757.68 783.93 760.69 785.81
  A 1.14 1.13 38.1 0 0 762.11 785.64
  Q 781.20 765.66 797.64 743.27
  C 800.25 739.72 802.12 736.28 804.52 734.15
  A 0.41 0.41 0.0 0 0 804.44 733.48
  C 801.53 731.83 798.59 728.51 795.52 726.03
  Q 781.74 714.85 769.93 703.80
  C 763.81 698.08 758.03 693.60 751.62 688.50
  A 0.33 0.32 -46.4 0 0 751.20 688.52"
/>
<path stroke="#b79516" vector-effect="non-scaling-stroke" d="
  M 160.91 545.63
  Q 162.59 570.99 167.34 596.49
  Q 169.28 606.94 172.19 616.09
  Q 179.95 640.52 190.50 662.76
  C 196.58 675.58 204.20 686.52 211.39 698.11
  Q 213.18 700.98 216.72 705.04"
/>
<path stroke="#c49f14" vector-effect="non-scaling-stroke" d="
  M 216.72 705.04
  Q 231.66 725.69 247.60 740.39
  Q 276.24 766.81 314.92 786.82
  Q 326.71 792.92 344.96 799.34
  Q 359.40 804.41 375.12 807.28
  Q 394.21 810.77 406.00 811.46
  Q 459.26 814.55 509.92 797.34
  Q 544.97 785.44 574.61 766.81
  C 583.41 761.27 594.06 754.38 599.86 750.05
  Q 624.60 731.58 640.82 716.06
  C 645.52 711.57 652.47 704.70 657.09 699.02
  C 662.36 692.53 667.14 687.45 671.75 681.44
  Q 690.97 656.36 700.50 640.51
  Q 710.36 624.11 716.65 611.87
  Q 735.33 575.56 747.20 534.95
  Q 757.23 500.63 760.42 463.83
  Q 761.35 453.09 761.47 435.17
  Q 761.59 417.70 760.74 406.51
  Q 759.25 386.68 757.97 379.76
  Q 755.64 367.11 752.05 350.63
  Q 748.28 333.29 744.11 321.98
  Q 736.22 300.60 725.48 280.74
  Q 708.27 248.92 684.06 223.88"
/>
<path stroke="#b79516" vector-effect="non-scaling-stroke" d="
  M 684.06 223.88
  Q 668.91 207.15 650.84 193.93
  Q 632.12 180.24 612.53 170.71
  C 605.75 167.40 598.54 163.73 591.85 161.26
  Q 579.56 156.74 566.73 153.79"
/>
<path stroke="#798d31" vector-effect="non-scaling-stroke" d="
  M 566.73 153.79
  Q 537.50 145.23 506.99 145.34
  Q 493.86 145.39 478.01 146.61
  Q 450.79 148.69 425.17 156.70
  Q 392.19 167.00 361.26 183.90
  C 327.31 202.45 295.97 227.67 268.68 255.68
  Q 262.80 261.72 254.81 271.55
  Q 228.67 303.68 208.66 339.68
  Q 198.23 358.45 191.26 375.57
  Q 183.43 394.82 177.95 413.17
  Q 171.94 433.30 169.41 443.63
  Q 166.03 457.45 163.88 475.51
  Q 161.91 492.15 160.53 512.00
  Q 159.70 524.00 160.91 545.63"
/>
<path stroke="#3f5825" vector-effect="non-scaling-stroke" d="
  M 566.73 153.79
  L 566.92 154.03
  A 0.14 0.14 0.0 0 1 566.82 154.25
  Q 566.47 154.29 566.24 154.22
  Q 554.30 150.56 541.30 148.69
  Q 528.14 146.79 523.50 146.54
  Q 513.46 146.00 497.21 146.25
  Q 487.70 146.39 480.20 147.09
  C 466.03 148.41 452.19 150.38 438.42 153.68
  Q 427.38 156.33 414.24 161.00
  Q 362.41 179.39 318.30 212.54
  Q 300.77 225.71 283.24 242.23
  Q 268.76 255.88 259.85 266.35
  Q 251.85 275.75 238.56 293.80
  Q 225.76 311.19 212.38 334.34
  Q 200.98 354.07 192.80 373.62
  Q 184.22 394.13 178.18 414.99
  Q 172.22 435.54 170.37 442.83
  Q 168.28 451.08 167.13 459.67
  C 166.51 464.31 165.68 468.30 164.95 473.09
  A 4.70 4.47 -43.6 0 0 164.90 474.09
  Q 165.04 477.12 164.30 479.64
  A 5.55 5.04 -36.5 0 0 164.10 480.65
  Q 163.31 488.58 162.44 495.90
  Q 161.57 503.27 161.39 511.04
  Q 160.99 528.18 160.91 545.63"
/>
<path stroke="#8a6a08" vector-effect="non-scaling-stroke" d="
  M 684.06 223.88
  Q 671.10 211.01 661.62 203.17
  Q 650.66 194.12 634.84 183.93
  Q 623.95 176.91 612.31 171.37
  Q 600.40 165.71 588.67 160.96
  A 0.95 0.95 0.0 0 0 587.50 161.35
  Q 584.12 166.95 584.04 173.90
  A 0.69 0.68 9.5 0 0 584.51 174.55
  Q 606.73 181.98 626.41 193.87
  Q 633.71 198.28 648.28 208.20
  Q 663.69 218.69 675.60 231.90
  C 680.95 237.83 685.76 244.23 691.02 250.21
  Q 691.34 250.57 696.92 257.35
  Q 700.48 261.67 707.38 273.09"
/>
<path stroke="#b79516" vector-effect="non-scaling-stroke" d="
  M 707.38 273.09
  C 701.86 265.45 696.53 257.57 690.65 250.53
  Q 679.56 237.28 674.08 231.02
  C 662.93 218.27 646.70 207.54 629.94 196.79
  C 603.43 179.77 572.40 169.78 541.37 164.65
  C 510.46 159.54 477.34 161.79 446.94 169.49
  Q 427.36 174.45 412.82 179.61
  Q 382.45 190.39 351.31 210.27
  Q 345.36 214.08 333.61 222.75
  Q 318.61 233.82 316.25 235.76
  Q 294.68 253.54 273.69 276.45
  C 261.74 289.49 250.87 304.58 241.36 318.33
  Q 225.30 341.57 213.23 367.73
  Q 202.22 391.60 193.73 416.19
  Q 183.90 444.64 179.06 476.19
  C 177.10 488.94 176.06 504.91 174.68 518.07
  Q 174.12 523.50 174.21 534.25
  Q 174.42 557.71 177.37 580.99
  Q 179.30 596.27 181.25 603.03
  Q 183.51 610.91 185.38 619.01"
/>
<path stroke="#8a6a08" vector-effect="non-scaling-stroke" d="
  M 185.38 619.01
  Q 184.66 619.83 184.11 617.28
  Q 182.51 609.93 180.29 602.96
  A 0.92 0.92 0.0 0 0 179.56 602.33
  C 175.35 601.67 173.35 604.32 171.25 607.75
  A 1.37 1.32 -36.8 0 0 171.09 608.74
  C 173.92 620.59 178.45 632.13 182.86 643.43
  Q 192.00 666.81 203.72 684.82
  Q 208.44 692.07 208.81 692.69
  Q 209.99 694.69 212.87 698.79
  Q 214.97 701.78 216.72 705.04"
/>
<path stroke="#c49f14" vector-effect="non-scaling-stroke" d="
  M 185.38 619.01
  Q 191.48 637.30 193.98 643.51
  Q 200.11 658.76 208.32 674.09
  C 214.07 684.85 222.06 696.40 229.30 706.21
  Q 242.28 723.78 257.35 738.14
  Q 267.30 747.62 281.83 758.59
  Q 291.95 766.23 304.99 773.56
  Q 319.67 781.83 329.50 785.99
  Q 351.54 795.33 368.52 798.93
  Q 387.00 802.86 402.48 804.27
  C 433.65 807.10 465.82 803.90 496.18 794.62
  C 513.92 789.20 531.34 783.33 547.31 775.30
  C 583.50 757.09 616.85 733.29 644.61 703.85
  Q 659.53 688.03 668.95 676.21
  Q 674.85 668.82 677.24 665.82
  Q 683.61 657.81 685.33 655.29
  Q 698.52 636.00 704.78 624.31
  Q 715.00 605.21 718.62 597.16
  Q 739.69 550.39 748.14 499.57
  C 750.74 483.95 751.77 469.97 752.71 454.50
  C 754.19 430.20 752.08 407.12 748.20 381.01
  Q 746.83 371.79 745.05 362.82"
/>
<path stroke="#8a6a08" vector-effect="non-scaling-stroke" d="
  M 745.05 362.82
  Q 745.06 357.79 742.65 352.74"
/>
<path stroke="#c49f14" vector-effect="non-scaling-stroke" d="
  M 742.65 352.74
  Q 736.88 333.37 732.11 320.88
  Q 722.90 296.77 707.38 273.09"
/>
<path stroke="#b79516" vector-effect="non-scaling-stroke" d="
  M 742.65 352.74
  L 745.05 362.82"
/>
<path stroke="#7d9536" vector-effect="non-scaling-stroke" d="
  M 477.27 343.50
  Q 488.19 335.44 497.89 325.38
  C 510.00 312.82 516.96 296.59 515.81 278.98
  Q 515.20 269.59 512.10 258.28
  C 508.04 243.42 500.67 231.30 490.81 219.94
  A 0.99 0.99 0.0 0 0 489.56 219.74
  C 483.97 223.07 479.67 226.92 474.18 232.19
  Q 459.63 246.15 450.57 262.87
  C 446.41 270.55 444.53 278.14 443.63 286.76
  C 441.70 305.35 447.01 320.48 461.83 332.69
  Q 467.04 336.99 476.20 343.51
  A 0.92 0.91 44.4 0 0 477.27 343.50"
/>
<path stroke="#7d9536" vector-effect="non-scaling-stroke" d="
  M 607.64 275.03
  C 600.23 274.17 592.97 276.02 584.83 278.55
  Q 568.46 283.65 557.24 290.21
  Q 530.24 306.01 529.06 337.75
  Q 528.47 353.71 530.10 368.83
  A 0.71 0.71 0.0 0 0 530.72 369.46
  C 551.68 371.94 569.96 365.12 584.73 350.00
  Q 598.69 335.69 604.23 315.24
  Q 607.92 301.61 608.01 290.74
  Q 608.14 277.25 608.04 275.46
  A 0.46 0.46 0.0 0 0 607.64 275.03"
/>
<path stroke="#7d9536" vector-effect="non-scaling-stroke" d="
  M 362.76 277.30
  A 1.06 1.05 3.1 0 0 361.86 278.10
  Q 356.00 302.10 360.13 326.44
  C 364.58 352.73 390.08 369.77 415.92 370.09
  A 0.97 0.97 0.0 0 0 416.84 369.46
  Q 421.34 357.30 423.04 343.79
  Q 425.71 322.56 415.12 304.79
  C 405.13 288.01 389.24 281.11 370.40 277.60
  Q 366.54 276.88 362.76 277.30"
/>
<path stroke="#7d9536" vector-effect="non-scaling-stroke" d="
  M 287.21 334.41
  Q 286.65 341.53 286.81 349.27
  C 287.23 369.06 295.41 391.69 314.97 400.34
  C 327.69 405.96 343.12 406.98 356.61 403.09
  A 0.62 0.61 -8.6 0 0 357.06 402.49
  Q 356.47 381.97 350.21 363.63
  Q 347.00 354.23 338.71 346.36
  Q 333.13 341.07 323.45 338.02
  C 311.53 334.25 299.80 333.06 287.79 333.84
  A 0.63 0.63 0.0 0 0 287.21 334.41"
/>
<path stroke="#7d9536" vector-effect="non-scaling-stroke" d="
  M 675.49 335.64
  C 665.86 333.23 654.86 333.79 645.37 335.37
  C 620.84 339.48 602.56 359.30 599.07 383.51
  Q 597.45 394.75 598.27 405.10
  A 0.67 0.67 0.0 0 0 598.90 405.72
  C 606.51 406.17 614.31 406.25 621.31 405.11
  Q 654.65 399.64 667.91 367.38
  Q 674.06 352.44 676.09 336.51
  A 0.80 0.79 10.6 0 0 675.49 335.64"
/>
<path stroke="#7d9536" vector-effect="non-scaling-stroke" d="
  M 465.31 458.63
  C 476.70 450.42 488.14 438.28 493.59 425.02
  C 498.98 411.90 495.64 396.66 490.26 383.77
  C 486.68 375.22 482.75 367.85 476.36 361.34
  A 1.51 1.50 50.9 0 0 474.46 361.14
  C 462.26 369.24 452.43 380.55 445.06 392.77
  C 436.21 407.43 438.22 426.67 447.46 440.47
  C 451.95 447.19 457.11 453.19 463.17 458.52
  A 1.72 1.71 47.8 0 0 465.31 458.63"
/>
<path stroke="#7d9536" vector-effect="non-scaling-stroke" d="
  M 514.29 470.97
  C 531.70 467.28 549.12 459.62 560.92 446.44
  Q 568.85 437.57 571.45 428.82
  Q 577.46 408.53 572.05 387.25
  A 1.21 1.20 75.3 0 0 570.57 386.38
  Q 550.67 391.72 532.14 403.27
  Q 524.99 407.73 521.65 411.67
  C 508.15 427.56 507.94 451.35 513.35 470.41
  A 0.80 0.80 0.0 0 0 514.29 470.97"
/>
<path stroke="#7d9536" vector-effect="non-scaling-stroke" d="
  M 376.91 386.91
  A 1.32 1.31 -83.3 0 0 375.96 387.67
  Q 368.62 404.11 367.81 422.14
  Q 367.48 429.62 369.23 435.79
  C 373.23 449.90 382.00 462.11 395.93 467.56
  Q 404.97 471.09 413.73 472.27
  A 0.97 0.97 0.0 0 0 414.77 471.66
  C 422.60 451.44 428.10 429.40 415.48 409.75
  Q 412.50 405.10 408.70 402.32
  Q 395.28 392.49 378.16 387.07
  Q 377.39 386.82 376.91 386.91"
/>
<path stroke="#7d9536" vector-effect="non-scaling-stroke" d="
  M 227.97 427.55
  Q 236.75 439.24 245.92 451.15
  Q 254.90 462.80 260.76 466.85
  Q 270.29 473.44 280.55 475.42
  C 293.44 477.90 308.04 477.84 320.67 473.65
  Q 333.31 469.47 345.22 462.75
  A 1.31 1.31 0.0 0 0 345.77 461.09
  Q 339.33 446.39 330.40 434.11
  C 316.89 415.52 294.67 410.67 272.98 413.02
  Q 254.60 415.01 239.03 421.09
  Q 232.86 423.51 228.12 426.65
  A 0.63 0.63 0.0 0 0 227.97 427.55"
/>
<path stroke="#7d9536" vector-effect="non-scaling-stroke" d="
  M 705.39 429.81
  A 0.58 0.58 0.0 0 0 705.23 428.95
  C 692.95 421.60 679.79 418.61 665.26 416.96
  C 651.27 415.37 635.38 417.01 623.46 424.19
  C 609.43 432.64 599.04 445.51 591.36 459.63
  A 2.70 2.69 30.7 0 0 592.27 463.18
  C 602.92 470.05 618.38 476.55 631.42 476.49
  C 662.67 476.35 686.67 453.53 705.39 429.81"
/>
<path stroke="#7d9536" vector-effect="non-scaling-stroke" d="
  M 315.98 484.09
  C 321.20 492.26 325.61 501.33 330.44 509.56
  C 355.66 552.52 382.22 596.29 405.18 635.03
  C 406.67 637.53 405.85 644.28 405.42 647.43
  Q 398.57 697.21 394.46 738.30
  A 0.64 0.64 0.0 0 0 395.09 739.00
  L 469.93 740.08
  A 1.45 1.44 -87.2 0 0 471.39 738.75
  C 473.94 708.08 478.12 680.07 482.89 646.94
  Q 484.24 637.55 488.85 631.35
  Q 508.13 605.42 537.92 565.66
  C 545.13 556.05 556.12 542.47 564.16 531.28
  Q 589.29 496.30 597.64 484.95
  A 0.26 0.26 0.0 0 0 597.43 484.54
  L 510.53 485.74
  A 2.49 2.49 0.0 0 0 508.53 486.80
  L 449.37 571.50
  A 0.50 0.49 -40.8 0 1 448.52 571.44
  C 442.81 559.99 436.69 548.17 429.65 535.59
  Q 416.21 511.56 412.20 503.82
  C 408.81 497.28 405.01 492.07 401.62 485.59
  A 0.98 0.95 -12.6 0 0 400.77 485.07
  L 316.12 483.85
  A 0.16 0.15 -16.1 0 0 315.98 484.09"
/>
<path stroke="#7d9536" vector-effect="non-scaling-stroke" d="
  M 316.26 521.41
  C 308.21 511.81 300.18 503.94 287.93 500.00
  C 273.03 495.20 259.52 494.41 246.33 501.83
  Q 232.14 509.81 221.47 522.46
  A 1.12 1.11 49.6 0 0 221.37 523.76
  C 228.86 535.95 240.29 543.55 254.64 545.82
  Q 276.21 549.23 295.26 537.81
  C 302.80 533.28 308.87 527.72 316.21 521.89
  A 0.33 0.33 0.0 0 0 316.26 521.41"
/>
<path stroke="#7d9536" vector-effect="non-scaling-stroke" d="
  M 593.02 523.35
  C 600.78 534.30 609.88 543.47 622.75 548.67
  C 646.94 558.44 670.25 547.24 688.13 530.14
  A 2.01 2.00 56.0 0 0 688.57 527.86
  Q 685.05 520.15 678.96 514.54
  C 671.33 507.50 661.40 500.99 651.02 499.41
  C 634.18 496.85 617.10 503.50 603.81 513.89
  Q 598.09 518.35 593.11 522.65
  A 0.52 0.52 0.0 0 0 593.02 523.35"
/>
<path stroke="#7d9536" vector-effect="non-scaling-stroke" d="
  M 644.24 613.70
  C 644.24 592.62 627.46 570.97 608.60 562.62
  C 599.10 558.41 584.51 560.52 575.12 563.36
  Q 567.73 565.61 562.65 567.25
  A 0.66 0.66 0.0 0 0 562.20 567.96
  C 563.87 579.91 568.27 594.19 574.50 603.24
  Q 582.46 614.78 597.92 618.08
  C 612.83 621.26 629.24 619.10 643.93 614.12
  A 0.45 0.44 -9.1 0 0 644.24 613.70"
/>
<path stroke="#7d9536" vector-effect="non-scaling-stroke" d="
  M 256.33 615.26
  Q 266.21 618.36 277.97 619.55
  C 284.52 620.21 291.38 619.45 297.09 618.59
  C 320.23 615.10 333.77 593.56 339.95 573.05
  A 0.79 0.79 0.0 0 0 339.59 572.13
  Q 332.91 568.28 326.48 565.49
  C 302.94 555.29 277.86 568.74 263.75 587.69
  C 260.17 592.49 258.41 597.16 257.18 603.20
  Q 255.36 612.07 255.64 614.42
  A 1.01 0.99 6.0 0 0 256.33 615.26"
/>
</g>
<path fill="#fff9e6" d="
  M 1024.00 0.00
  L 1024.00 1024.00
  L 0.00 1024.00
  L 0.00 0.00
  L 1024.00 0.00
  Z
  M 442.00 95.95
  Q 424.97 98.96 408.19 105.26
  Q 399.14 107.31 387.72 111.99
  C 366.21 120.82 347.69 129.09 329.02 140.50
  C 293.57 162.10 262.62 185.78 233.73 215.46
  Q 189.81 261.22 160.35 317.58
  Q 132.53 370.81 117.68 428.17
  Q 99.52 498.31 105.27 571.25
  Q 110.11 632.77 133.82 690.73
  Q 147.01 722.95 166.70 751.52
  Q 184.21 776.18 204.95 798.05
  Q 219.92 813.84 227.06 820.70
  Q 265.73 857.85 312.25 886.01
  C 336.92 900.94 363.87 912.28 391.74 920.72
  Q 443.80 936.49 497.97 934.87
  Q 552.65 933.23 606.30 915.07
  C 634.26 905.60 661.07 893.58 686.16 877.91
  Q 718.23 857.87 746.06 834.56
  C 798.78 790.40 839.10 734.86 866.90 671.88
  Q 875.30 652.87 882.69 628.44
  Q 893.50 592.69 898.56 557.80
  C 903.49 523.78 904.33 489.11 901.32 454.66
  Q 899.80 437.20 898.54 424.50
  Q 897.54 414.44 894.30 401.71
  Q 887.98 376.90 882.75 360.10
  Q 879.88 350.86 871.84 331.54
  Q 861.59 306.90 847.29 283.75
  Q 834.65 263.31 816.28 239.96
  Q 797.74 216.40 777.52 197.82
  C 751.39 173.80 723.44 152.34 693.05 135.45
  Q 665.61 120.19 637.44 108.81
  Q 599.86 93.61 555.20 89.44
  Q 539.01 87.79 522.59 87.18
  Q 517.68 87.00 509.93 87.48
  Q 505.05 87.78 497.27 88.13
  Q 471.12 89.30 442.00 95.95
  Z"
/>
<path fill="#085f4a" d="
  M 555.20 89.44
  Q 555.09 90.96 558.28 90.66
  A 3.27 3.08 46.7 0 1 559.28 90.72
  Q 564.14 91.76 569.19 92.31
  C 574.01 92.85 578.18 93.89 582.85 94.45
  C 586.44 94.88 590.27 96.19 594.19 96.89
  Q 594.61 96.96 597.39 98.46
  A 4.08 3.84 -22.3 0 0 598.30 98.81
  Q 607.22 101.19 609.52 102.27
  Q 618.45 106.45 633.46 113.03
  Q 638.40 115.20 643.47 118.36
  Q 644.85 119.22 653.37 123.78
  C 679.42 137.71 704.40 156.27 727.24 176.33
  A 2.84 2.70 -11.7 0 0 728.03 176.82
  Q 733.22 179.06 734.73 184.58
  Q 734.32 184.16 733.89 184.08
  A 0.34 0.34 0.0 0 0 733.49 184.48
  Q 733.52 184.61 733.58 184.79
  Q 734.86 189.60 737.49 192.24
  Q 744.85 199.61 748.03 203.60
  A 1.24 1.19 -61.7 0 1 748.28 204.50
  Q 747.10 214.12 742.94 223.09
  Q 731.59 207.08 717.78 193.41
  C 694.38 169.11 665.93 148.93 635.73 134.91
  C 608.96 122.48 579.24 115.22 549.74 112.26
  Q 526.84 109.96 515.00 109.80
  Q 483.25 109.35 451.20 115.70
  Q 426.06 120.69 398.25 131.01
  Q 390.37 133.94 376.12 140.61
  Q 358.24 148.99 354.34 151.07
  Q 325.05 166.68 302.02 183.28
  C 272.37 204.64 246.88 230.72 223.19 259.54
  Q 206.27 280.11 192.25 303.39
  Q 167.33 344.81 151.67 388.67
  Q 139.40 423.02 133.46 450.22
  Q 123.16 497.33 124.85 547.51
  C 126.68 602.17 139.51 656.79 163.98 705.75
  Q 176.82 730.50 193.86 752.62
  Q 205.12 767.25 220.05 780.95
  C 237.21 796.71 254.87 810.21 274.76 820.88
  Q 294.84 831.65 305.95 836.33
  Q 326.52 845.01 352.68 851.65
  Q 417.53 868.11 482.96 852.90
  C 505.37 847.69 526.35 840.86 547.14 832.35
  Q 560.95 826.68 583.75 814.72
  Q 596.06 808.26 608.28 800.02
  Q 643.16 776.47 673.29 747.29
  Q 681.80 739.06 686.84 733.29
  Q 688.72 732.97 689.66 731.91
  Q 694.11 726.88 698.75 722.03
  Q 697.68 732.99 693.38 743.15
  Q 688.18 755.45 683.45 768.01
  Q 666.23 785.33 647.01 800.26
  A 0.69 0.69 0.0 0 0 647.01 801.34
  L 649.47 803.23
  Q 641.00 809.17 633.39 816.30
  L 628.81 812.94
  A 1.28 1.26 46.6 0 0 627.37 812.89
  C 608.55 824.98 590.43 836.23 570.15 845.01
  A 0.56 0.55 -38.7 0 0 570.04 845.97
  L 574.47 849.14
  Q 564.14 854.19 552.45 856.07
  C 551.31 854.84 550.10 854.53 548.43 855.13
  Q 543.46 856.91 538.55 858.79
  Q 512.72 868.66 484.71 873.99
  Q 473.46 878.63 460.64 881.83
  Q 457.25 878.70 454.75 878.85
  Q 428.95 880.35 403.16 878.85
  Q 396.87 878.48 384.08 876.86
  L 355.78 874.55
  Q 352.05 872.10 348.23 871.27
  Q 319.90 865.16 294.28 854.26
  Q 292.90 852.27 290.69 851.07
  Q 284.12 847.51 278.08 844.85
  Q 268.98 840.86 265.33 838.58
  Q 259.80 835.13 251.66 828.64
  C 244.61 823.02 235.17 818.44 227.77 813.07
  C 220.19 807.57 210.94 802.13 204.39 795.36
  Q 186.54 776.90 170.67 755.37
  Q 169.02 753.14 166.70 751.52
  Q 147.01 722.95 133.82 690.73
  Q 110.11 632.77 105.27 571.25
  Q 99.52 498.31 117.68 428.17
  Q 132.53 370.81 160.35 317.58
  Q 189.81 261.22 233.73 215.46
  Q 234.94 215.74 236.59 214.05
  Q 243.17 207.33 256.06 195.37
  C 258.21 193.37 260.05 192.42 262.13 190.12
  Q 263.15 189.00 266.56 186.08
  C 279.73 174.81 293.98 164.65 308.50 154.70
  C 312.62 151.88 318.67 148.35 323.42 144.83
  A 3.88 3.64 -73.4 0 1 324.21 144.37
  Q 327.61 142.91 329.02 140.50
  C 347.69 129.09 366.21 120.82 387.72 111.99
  Q 399.14 107.31 408.19 105.26
  L 443.65 96.59
  A 0.33 0.32 -6.1 0 0 443.90 96.29
  Q 443.95 95.42 442.00 95.95
  Q 471.12 89.30 497.27 88.13
  Q 505.05 87.78 509.93 87.48
  Q 517.68 87.00 522.59 87.18
  Q 539.01 87.79 555.20 89.44
  Z"
/>
<path fill="#004f40" d="
  M 166.70 751.52
  Q 169.02 753.14 170.67 755.37
  Q 186.54 776.90 204.39 795.36
  C 210.94 802.13 220.19 807.57 227.77 813.07
  C 235.17 818.44 244.61 823.02 251.66 828.64
  Q 259.80 835.13 265.33 838.58
  Q 268.98 840.86 278.08 844.85
  Q 284.12 847.51 290.69 851.07
  Q 292.90 852.27 294.28 854.26
  Q 293.71 854.13 293.36 854.20
  A 0.38 0.38 0.0 0 0 293.21 854.88
  Q 317.10 871.81 341.68 883.26
  Q 366.80 894.96 393.39 902.82
  A 0.57 0.57 0.0 0 0 393.90 901.82
  Q 375.05 887.36 355.78 874.55
  L 384.08 876.86
  Q 383.71 877.48 384.05 877.71
  Q 395.17 884.86 431.78 907.99
  Q 436.29 910.84 441.31 911.70
  Q 458.68 914.69 473.54 914.65
  Q 482.81 914.63 497.27 913.77
  Q 500.35 913.59 503.47 912.84
  A 0.57 0.57 0.0 0 0 503.73 911.87
  Q 503.72 911.86 503.63 911.66
  A 0.14 0.10 18.0 0 0 503.58 911.59
  L 460.64 881.83
  Q 473.46 878.63 484.71 873.99
  Q 487.02 876.64 490.07 878.70
  Q 501.89 886.71 512.40 893.97
  C 520.62 899.66 526.99 903.46 535.06 908.54
  A 1.85 1.82 -33.4 0 0 536.32 908.79
  Q 548.42 906.86 560.77 904.29
  Q 582.44 899.79 603.08 891.75
  A 0.35 0.35 0.0 0 0 603.15 891.14
  L 552.45 856.07
  Q 564.14 854.19 574.47 849.14
  Q 597.84 863.80 620.04 879.93
  Q 622.51 881.72 623.37 882.14
  A 3.34 3.30 62.5 0 0 624.27 882.43
  Q 625.31 882.60 627.41 881.65
  C 634.25 878.58 641.79 875.54 648.81 871.54
  Q 654.81 868.12 664.71 863.03
  C 670.71 859.94 676.93 855.78 681.52 852.13
  A 0.57 0.57 0.0 0 0 681.50 851.22
  L 633.39 816.30
  Q 641.00 809.17 649.47 803.23
  L 698.46 839.52
  A 1.07 1.06 45.2 0 0 699.70 839.53
  C 714.94 828.58 727.44 817.94 745.12 802.86
  Q 745.24 802.76 747.01 801.76
  A 0.63 0.62 -41.3 0 0 747.08 800.72
  L 693.46 759.88
  A 1.43 1.43 0.0 0 0 691.59 760.00
  L 683.45 768.01
  Q 688.18 755.45 693.38 743.15
  Q 697.68 732.99 698.75 722.03
  Q 709.15 710.83 713.48 705.48
  Q 722.97 693.74 736.38 674.13
  Q 748.05 657.05 756.85 638.32
  Q 761.74 627.92 772.05 605.05
  Q 780.58 586.14 784.53 571.61
  Q 785.83 566.43 787.66 561.13
  Q 790.15 553.93 790.94 550.71
  C 796.25 529.23 802.17 504.56 804.84 481.23
  Q 809.57 439.90 806.40 398.60
  Q 805.32 384.48 803.67 375.55
  Q 801.32 362.85 799.33 352.72
  Q 797.64 344.13 791.79 324.68
  Q 774.95 268.61 742.94 223.09
  Q 747.10 214.12 748.28 204.50
  A 1.24 1.19 -61.7 0 0 748.03 203.60
  Q 744.85 199.61 737.49 192.24
  Q 734.86 189.60 733.58 184.79
  Q 737.05 188.78 740.89 192.61
  Q 745.71 197.43 755.17 210.07
  Q 769.36 229.03 781.26 248.29
  A 8.35 8.24 0.6 0 0 783.87 250.92
  L 794.67 257.73
  Q 801.52 262.89 808.76 268.07
  C 813.43 271.41 816.47 274.17 820.19 277.53
  A 0.35 0.35 0.0 0 0 820.72 277.08
  C 811.33 262.45 801.18 249.45 789.37 235.40
  Q 780.56 224.91 770.03 215.78
  Q 764.28 209.75 760.58 206.43
  Q 750.04 196.96 734.73 184.58
  Q 733.22 179.06 728.03 176.82
  A 2.84 2.70 -11.7 0 1 727.24 176.33
  C 704.40 156.27 679.42 137.71 653.37 123.78
  Q 644.85 119.22 643.47 118.36
  Q 638.40 115.20 633.46 113.03
  Q 618.45 106.45 609.52 102.27
  Q 607.22 101.19 598.30 98.81
  A 4.08 3.84 -22.3 0 1 597.39 98.46
  Q 594.61 96.96 594.19 96.89
  C 590.27 96.19 586.44 94.88 582.85 94.45
  C 578.18 93.89 574.01 92.85 569.19 92.31
  Q 564.14 91.76 559.28 90.72
  A 3.27 3.08 46.7 0 0 558.28 90.66
  Q 555.09 90.96 555.20 89.44
  Q 599.86 93.61 637.44 108.81
  Q 665.61 120.19 693.05 135.45
  C 723.44 152.34 751.39 173.80 777.52 197.82
  Q 797.74 216.40 816.28 239.96
  Q 834.65 263.31 847.29 283.75
  Q 861.59 306.90 871.84 331.54
  Q 879.88 350.86 882.75 360.10
  Q 887.98 376.90 894.30 401.71
  Q 897.54 414.44 898.54 424.50
  Q 899.80 437.20 901.32 454.66
  C 904.33 489.11 903.49 523.78 898.56 557.80
  Q 893.50 592.69 882.69 628.44
  Q 875.30 652.87 866.90 671.88
  C 839.10 734.86 798.78 790.40 746.06 834.56
  Q 718.23 857.87 686.16 877.91
  C 661.07 893.58 634.26 905.60 606.30 915.07
  Q 552.65 933.23 497.97 934.87
  Q 443.80 936.49 391.74 920.72
  C 363.87 912.28 336.92 900.94 312.25 886.01
  Q 265.73 857.85 227.06 820.70
  Q 219.92 813.84 204.95 798.05
  Q 184.21 776.18 166.70 751.52
  Z
  M 824.44 336.34
  L 864.54 370.48
  A 0.19 0.19 0.0 0 0 864.84 370.28
  Q 853.99 338.11 839.55 310.89
  A 3.00 2.89 -85.2 0 0 838.85 310.03
  L 806.09 282.51
  L 796.72 274.58
  A 0.18 0.18 0.0 0 0 796.44 274.79
  Q 807.51 298.65 814.70 324.58
  C 815.62 327.89 816.73 329.65 819.16 331.84
  Q 822.67 335.01 824.44 336.34
  Z
  M 831.77 418.76
  Q 833.61 421.15 835.42 422.82
  C 846.26 432.82 853.17 439.49 862.58 447.43
  Q 869.99 453.68 878.84 461.46
  A 0.49 0.49 0.0 0 0 879.65 461.05
  Q 877.02 432.01 871.76 402.35
  A 3.84 3.81 16.7 0 0 870.59 400.20
  L 828.57 361.44
  L 822.19 354.91
  A 0.25 0.25 0.0 0 0 821.76 355.14
  Q 826.58 378.53 828.52 402.51
  Q 828.91 407.31 828.97 415.01
  Q 828.98 416.79 831.77 418.76
  Z
  M 828.74 512.13
  Q 831.67 517.32 836.32 521.69
  Q 855.22 539.48 874.39 555.86
  A 0.76 0.75 -66.0 0 0 875.63 555.38
  C 877.46 541.13 878.72 531.20 879.25 516.90
  C 879.73 503.90 880.15 495.81 879.87 489.25
  A 2.99 2.98 -71.2 0 0 878.80 487.07
  L 835.90 450.75
  L 829.55 443.24
  A 0.31 0.31 0.0 0 0 829.01 443.44
  Q 829.33 474.41 824.15 504.66
  A 2.65 2.64 -58.9 0 0 824.65 506.70
  L 828.74 512.13
  Z
  M 853.87 638.12
  Q 863.58 610.10 871.56 581.65
  A 1.42 1.42 0.0 0 0 871.08 580.15
  Q 847.34 561.00 824.71 539.25
  C 823.21 537.81 821.42 535.25 819.74 534.30
  A 0.69 0.58 4.7 0 1 819.51 534.07
  L 818.83 532.85
  A 0.42 0.42 0.0 0 0 818.08 532.90
  C 816.77 536.22 816.70 540.05 815.75 543.73
  Q 813.94 550.79 810.95 560.50
  Q 805.88 577.00 799.67 593.92
  A 1.16 1.15 29.6 0 0 800.03 595.21
  L 852.78 638.42
  A 0.69 0.68 29.3 0 0 853.87 638.12
  Z
  M 818.29 713.37
  Q 833.13 688.00 844.19 662.34
  A 1.15 1.14 32.0 0 0 843.88 661.02
  L 791.22 616.12
  A 0.59 0.59 0.0 0 0 790.29 616.35
  Q 779.41 644.23 764.10 669.28
  A 1.24 1.23 -54.9 0 0 764.38 670.89
  L 817.31 713.55
  A 0.66 0.65 34.3 0 0 818.29 713.37
  Z
  M 751.20 688.52
  Q 750.50 689.19 750.27 689.52
  C 744.20 698.35 738.67 706.72 732.22 714.57
  Q 720.61 728.67 708.23 741.72
  A 1.51 1.51 0.0 0 0 708.40 743.95
  C 716.04 749.80 722.26 755.89 729.87 761.75
  Q 748.59 776.14 752.18 779.00
  C 755.25 781.44 757.68 783.93 760.69 785.81
  A 1.14 1.13 38.1 0 0 762.11 785.64
  Q 781.20 765.66 797.64 743.27
  C 800.25 739.72 802.12 736.28 804.52 734.15
  A 0.41 0.41 0.0 0 0 804.44 733.48
  C 801.53 731.83 798.59 728.51 795.52 726.03
  Q 781.74 714.85 769.93 703.80
  C 763.81 698.08 758.03 693.60 751.62 688.50
  A 0.33 0.32 -46.4 0 0 751.20 688.52
  Z"
/>
<path fill="#004f40" d="
  M 442.00 95.95
  Q 443.95 95.42 443.90 96.29
  A 0.33 0.32 -6.1 0 1 443.65 96.59
  L 408.19 105.26
  Q 424.97 98.96 442.00 95.95
  Z"
/>
<path fill="#f1ca22" d="
  M 717.78 193.41
  Q 717.54 194.76 717.51 194.79
  A 1.70 1.69 -47.9 0 0 717.63 197.22
  Q 723.81 202.65 727.42 208.35
  Q 733.49 217.94 739.67 227.12
  Q 745.48 235.74 749.35 243.58
  Q 758.67 262.42 759.18 263.57
  Q 763.71 273.79 769.63 290.78
  Q 773.88 302.98 776.08 312.92
  Q 779.08 326.48 780.72 335.51
  Q 780.82 336.07 784.30 359.09
  Q 786.12 371.15 786.65 382.78
  Q 787.79 407.91 787.15 431.87
  Q 787.10 434.12 786.33 454.19
  C 785.88 466.14 784.11 478.20 782.19 488.51
  C 778.91 506.12 775.37 519.68 768.98 545.40
  Q 764.78 562.31 762.08 570.49
  Q 757.54 584.22 752.76 594.83
  Q 742.23 618.19 737.05 628.34
  Q 731.25 639.70 725.47 647.98
  Q 718.36 658.17 711.62 668.56
  C 703.17 681.58 694.21 694.21 685.99 703.73
  Q 670.53 721.63 650.96 739.70
  C 642.41 747.60 632.21 755.30 624.21 761.96
  Q 610.14 773.67 596.39 783.61
  C 591.41 787.21 584.64 791.24 581.26 793.44
  Q 576.30 796.66 569.56 800.20
  Q 558.91 805.78 541.78 814.24
  Q 520.46 824.78 502.05 830.73
  Q 477.11 838.78 462.20 841.83
  Q 449.89 844.35 439.24 844.54
  C 424.92 844.81 414.58 845.44 402.25 844.78
  Q 397.60 844.53 380.61 843.62
  C 376.56 843.40 371.77 842.77 367.96 842.03
  C 353.05 839.13 335.64 835.06 319.56 828.64
  Q 304.02 822.44 295.87 818.61
  C 271.29 807.06 247.76 792.73 226.95 775.36
  Q 217.87 767.78 214.43 764.67
  Q 206.37 757.37 193.51 742.79
  Q 180.92 728.51 173.83 717.23
  A 3.48 3.42 4.3 0 0 173.12 716.42
  Q 170.78 714.43 169.08 710.87
  A 2.92 2.86 -81.8 0 0 168.43 709.98
  Q 167.17 708.80 166.67 707.01
  A 1.10 1.09 89.0 0 0 165.87 706.23
  L 163.98 705.75
  C 139.51 656.79 126.68 602.17 124.85 547.51
  Q 123.16 497.33 133.46 450.22
  Q 139.40 423.02 151.67 388.67
  Q 167.33 344.81 192.25 303.39
  Q 206.27 280.11 223.19 259.54
  C 246.88 230.72 272.37 204.64 302.02 183.28
  Q 325.05 166.68 354.34 151.07
  Q 358.24 148.99 376.12 140.61
  Q 390.37 133.94 398.25 131.01
  Q 426.06 120.69 451.20 115.70
  Q 483.25 109.35 515.00 109.80
  Q 526.84 109.96 549.74 112.26
  C 579.24 115.22 608.96 122.48 635.73 134.91
  C 665.93 148.93 694.38 169.11 717.78 193.41
  Z
  M 160.91 545.63
  Q 162.59 570.99 167.34 596.49
  Q 169.28 606.94 172.19 616.09
  Q 179.95 640.52 190.50 662.76
  C 196.58 675.58 204.20 686.52 211.39 698.11
  Q 213.18 700.98 216.72 705.04
  Q 231.66 725.69 247.60 740.39
  Q 276.24 766.81 314.92 786.82
  Q 326.71 792.92 344.96 799.34
  Q 359.40 804.41 375.12 807.28
  Q 394.21 810.77 406.00 811.46
  Q 459.26 814.55 509.92 797.34
  Q 544.97 785.44 574.61 766.81
  C 583.41 761.27 594.06 754.38 599.86 750.05
  Q 624.60 731.58 640.82 716.06
  C 645.52 711.57 652.47 704.70 657.09 699.02
  C 662.36 692.53 667.14 687.45 671.75 681.44
  Q 690.97 656.36 700.50 640.51
  Q 710.36 624.11 716.65 611.87
  Q 735.33 575.56 747.20 534.95
  Q 757.23 500.63 760.42 463.83
  Q 761.35 453.09 761.47 435.17
  Q 761.59 417.70 760.74 406.51
  Q 759.25 386.68 757.97 379.76
  Q 755.64 367.11 752.05 350.63
  Q 748.28 333.29 744.11 321.98
  Q 736.22 300.60 725.48 280.74
  Q 708.27 248.92 684.06 223.88
  Q 668.91 207.15 650.84 193.93
  Q 632.12 180.24 612.53 170.71
  C 605.75 167.40 598.54 163.73 591.85 161.26
  Q 579.56 156.74 566.73 153.79
  Q 537.50 145.23 506.99 145.34
  Q 493.86 145.39 478.01 146.61
  Q 450.79 148.69 425.17 156.70
  Q 392.19 167.00 361.26 183.90
  C 327.31 202.45 295.97 227.67 268.68 255.68
  Q 262.80 261.72 254.81 271.55
  Q 228.67 303.68 208.66 339.68
  Q 198.23 358.45 191.26 375.57
  Q 183.43 394.82 177.95 413.17
  Q 171.94 433.30 169.41 443.63
  Q 166.03 457.45 163.88 475.51
  Q 161.91 492.15 160.53 512.00
  Q 159.70 524.00 160.91 545.63
  Z"
/>
<path fill="#004f40" d="
  M 329.02 140.50
  Q 327.61 142.91 324.21 144.37
  A 3.88 3.64 -73.4 0 0 323.42 144.83
  C 318.67 148.35 312.62 151.88 308.50 154.70
  C 293.98 164.65 279.73 174.81 266.56 186.08
  Q 263.15 189.00 262.13 190.12
  C 260.05 192.42 258.21 193.37 256.06 195.37
  Q 243.17 207.33 236.59 214.05
  Q 234.94 215.74 233.73 215.46
  C 262.62 185.78 293.57 162.10 329.02 140.50
  Z"
/>
<path fill="#004f40" d="
  M 566.73 153.79
  L 566.92 154.03
  A 0.14 0.14 0.0 0 1 566.82 154.25
  Q 566.47 154.29 566.24 154.22
  Q 554.30 150.56 541.30 148.69
  Q 528.14 146.79 523.50 146.54
  Q 513.46 146.00 497.21 146.25
  Q 487.70 146.39 480.20 147.09
  C 466.03 148.41 452.19 150.38 438.42 153.68
  Q 427.38 156.33 414.24 161.00
  Q 362.41 179.39 318.30 212.54
  Q 300.77 225.71 283.24 242.23
  Q 268.76 255.88 259.85 266.35
  Q 251.85 275.75 238.56 293.80
  Q 225.76 311.19 212.38 334.34
  Q 200.98 354.07 192.80 373.62
  Q 184.22 394.13 178.18 414.99
  Q 172.22 435.54 170.37 442.83
  Q 168.28 451.08 167.13 459.67
  C 166.51 464.31 165.68 468.30 164.95 473.09
  A 4.70 4.47 -43.6 0 0 164.90 474.09
  Q 165.04 477.12 164.30 479.64
  A 5.55 5.04 -36.5 0 0 164.10 480.65
  Q 163.31 488.58 162.44 495.90
  Q 161.57 503.27 161.39 511.04
  Q 160.99 528.18 160.91 545.63
  Q 159.70 524.00 160.53 512.00
  Q 161.91 492.15 163.88 475.51
  Q 166.03 457.45 169.41 443.63
  Q 171.94 433.30 177.95 413.17
  Q 183.43 394.82 191.26 375.57
  Q 198.23 358.45 208.66 339.68
  Q 228.67 303.68 254.81 271.55
  Q 262.80 261.72 268.68 255.68
  C 295.97 227.67 327.31 202.45 361.26 183.90
  Q 392.19 167.00 425.17 156.70
  Q 450.79 148.69 478.01 146.61
  Q 493.86 145.39 506.99 145.34
  Q 537.50 145.23 566.73 153.79
  Z"
/>
<path fill="#7d6009" d="
  M 566.73 153.79
  Q 579.56 156.74 591.85 161.26
  C 598.54 163.73 605.75 167.40 612.53 170.71
  Q 632.12 180.24 650.84 193.93
  Q 668.91 207.15 684.06 223.88
  Q 671.10 211.01 661.62 203.17
  Q 650.66 194.12 634.84 183.93
  Q 623.95 176.91 612.31 171.37
  Q 600.40 165.71 588.67 160.96
  A 0.95 0.95 0.0 0 0 587.50 161.35
  Q 584.12 166.95 584.04 173.90
  A 0.69 0.68 9.5 0 0 584.51 174.55
  Q 606.73 181.98 626.41 193.87
  Q 633.71 198.28 648.28 208.20
  Q 663.69 218.69 675.60 231.90
  C 680.95 237.83 685.76 244.23 691.02 250.21
  Q 691.34 250.57 696.92 257.35
  Q 700.48 261.67 707.38 273.09
  C 701.86 265.45 696.53 257.57 690.65 250.53
  Q 679.56 237.28 674.08 231.02
  C 662.93 218.27 646.70 207.54 629.94 196.79
  C 603.43 179.77 572.40 169.78 541.37 164.65
  C 510.46 159.54 477.34 161.79 446.94 169.49
  Q 427.36 174.45 412.82 179.61
  Q 382.45 190.39 351.31 210.27
  Q 345.36 214.08 333.61 222.75
  Q 318.61 233.82 316.25 235.76
  Q 294.68 253.54 273.69 276.45
  C 261.74 289.49 250.87 304.58 241.36 318.33
  Q 225.30 341.57 213.23 367.73
  Q 202.22 391.60 193.73 416.19
  Q 183.90 444.64 179.06 476.19
  C 177.10 488.94 176.06 504.91 174.68 518.07
  Q 174.12 523.50 174.21 534.25
  Q 174.42 557.71 177.37 580.99
  Q 179.30 596.27 181.25 603.03
  Q 183.51 610.91 185.38 619.01
  Q 184.66 619.83 184.11 617.28
  Q 182.51 609.93 180.29 602.96
  A 0.92 0.92 0.0 0 0 179.56 602.33
  C 175.35 601.67 173.35 604.32 171.25 607.75
  A 1.37 1.32 -36.8 0 0 171.09 608.74
  C 173.92 620.59 178.45 632.13 182.86 643.43
  Q 192.00 666.81 203.72 684.82
  Q 208.44 692.07 208.81 692.69
  Q 209.99 694.69 212.87 698.79
  Q 214.97 701.78 216.72 705.04
  Q 213.18 700.98 211.39 698.11
  C 204.20 686.52 196.58 675.58 190.50 662.76
  Q 179.95 640.52 172.19 616.09
  Q 169.28 606.94 167.34 596.49
  Q 162.59 570.99 160.91 545.63
  Q 160.99 528.18 161.39 511.04
  Q 161.57 503.27 162.44 495.90
  Q 163.31 488.58 164.10 480.65
  A 5.55 5.04 -36.5 0 1 164.30 479.64
  Q 165.04 477.12 164.90 474.09
  A 4.70 4.47 -43.6 0 1 164.95 473.09
  C 165.68 468.30 166.51 464.31 167.13 459.67
  Q 168.28 451.08 170.37 442.83
  Q 172.22 435.54 178.18 414.99
  Q 184.22 394.13 192.80 373.62
  Q 200.98 354.07 212.38 334.34
  Q 225.76 311.19 238.56 293.80
  Q 251.85 275.75 259.85 266.35
  Q 268.76 255.88 283.24 242.23
  Q 300.77 225.71 318.30 212.54
  Q 362.41 179.39 414.24 161.00
  Q 427.38 156.33 438.42 153.68
  C 452.19 150.38 466.03 148.41 480.20 147.09
  Q 487.70 146.39 497.21 146.25
  Q 513.46 146.00 523.50 146.54
  Q 528.14 146.79 541.30 148.69
  Q 554.30 150.56 566.24 154.22
  Q 566.47 154.29 566.82 154.25
  A 0.14 0.14 0.0 0 0 566.92 154.03
  L 566.73 153.79
  Z"
/>
<path fill="#977406" d="
  M 684.06 223.88
  Q 708.27 248.92 725.48 280.74
  Q 736.22 300.60 744.11 321.98
  Q 748.28 333.29 752.05 350.63
  Q 755.64 367.11 757.97 379.76
  Q 759.25 386.68 760.74 406.51
  Q 761.59 417.70 761.47 435.17
  Q 761.35 453.09 760.42 463.83
  Q 757.23 500.63 747.20 534.95
  Q 735.33 575.56 716.65 611.87
  Q 710.36 624.11 700.50 640.51
  Q 690.97 656.36 671.75 681.44
  C 667.14 687.45 662.36 692.53 657.09 699.02
  C 652.47 704.70 645.52 711.57 640.82 716.06
  Q 624.60 731.58 599.86 750.05
  C 594.06 754.38 583.41 761.27 574.61 766.81
  Q 544.97 785.44 509.92 797.34
  Q 459.26 814.55 406.00 811.46
  Q 394.21 810.77 375.12 807.28
  Q 359.40 804.41 344.96 799.34
  Q 326.71 792.92 314.92 786.82
  Q 276.24 766.81 247.60 740.39
  Q 231.66 725.69 216.72 705.04
  Q 214.97 701.78 212.87 698.79
  Q 209.99 694.69 208.81 692.69
  Q 208.44 692.07 203.72 684.82
  Q 192.00 666.81 182.86 643.43
  C 178.45 632.13 173.92 620.59 171.09 608.74
  A 1.37 1.32 -36.8 0 1 171.25 607.75
  C 173.35 604.32 175.35 601.67 179.56 602.33
  A 0.92 0.92 0.0 0 1 180.29 602.96
  Q 182.51 609.93 184.11 617.28
  Q 184.66 619.83 185.38 619.01
  Q 191.48 637.30 193.98 643.51
  Q 200.11 658.76 208.32 674.09
  C 214.07 684.85 222.06 696.40 229.30 706.21
  Q 242.28 723.78 257.35 738.14
  Q 267.30 747.62 281.83 758.59
  Q 291.95 766.23 304.99 773.56
  Q 319.67 781.83 329.50 785.99
  Q 351.54 795.33 368.52 798.93
  Q 387.00 802.86 402.48 804.27
  C 433.65 807.10 465.82 803.90 496.18 794.62
  C 513.92 789.20 531.34 783.33 547.31 775.30
  C 583.50 757.09 616.85 733.29 644.61 703.85
  Q 659.53 688.03 668.95 676.21
  Q 674.85 668.82 677.24 665.82
  Q 683.61 657.81 685.33 655.29
  Q 698.52 636.00 704.78 624.31
  Q 715.00 605.21 718.62 597.16
  Q 739.69 550.39 748.14 499.57
  C 750.74 483.95 751.77 469.97 752.71 454.50
  C 754.19 430.20 752.08 407.12 748.20 381.01
  Q 746.83 371.79 745.05 362.82
  Q 745.06 357.79 742.65 352.74
  Q 736.88 333.37 732.11 320.88
  Q 722.90 296.77 707.38 273.09
  Q 700.48 261.67 696.92 257.35
  Q 691.34 250.57 691.02 250.21
  C 685.76 244.23 680.95 237.83 675.60 231.90
  Q 663.69 218.69 648.28 208.20
  Q 633.71 198.28 626.41 193.87
  Q 606.73 181.98 584.51 174.55
  A 0.69 0.68 9.5 0 1 584.04 173.90
  Q 584.12 166.95 587.50 161.35
  A 0.95 0.95 0.0 0 1 588.67 160.96
  Q 600.40 165.71 612.31 171.37
  Q 623.95 176.91 634.84 183.93
  Q 650.66 194.12 661.62 203.17
  Q 671.10 211.01 684.06 223.88
  Z"
/>
<path fill="#f1ca22" d="
  M 707.38 273.09
  Q 722.90 296.77 732.11 320.88
  Q 736.88 333.37 742.65 352.74
  L 745.05 362.82
  Q 746.83 371.79 748.20 381.01
  C 752.08 407.12 754.19 430.20 752.71 454.50
  C 751.77 469.97 750.74 483.95 748.14 499.57
  Q 739.69 550.39 718.62 597.16
  Q 715.00 605.21 704.78 624.31
  Q 698.52 636.00 685.33 655.29
  Q 683.61 657.81 677.24 665.82
  Q 674.85 668.82 668.95 676.21
  Q 659.53 688.03 644.61 703.85
  C 616.85 733.29 583.50 757.09 547.31 775.30
  C 531.34 783.33 513.92 789.20 496.18 794.62
  C 465.82 803.90 433.65 807.10 402.48 804.27
  Q 387.00 802.86 368.52 798.93
  Q 351.54 795.33 329.50 785.99
  Q 319.67 781.83 304.99 773.56
  Q 291.95 766.23 281.83 758.59
  Q 267.30 747.62 257.35 738.14
  Q 242.28 723.78 229.30 706.21
  C 222.06 696.40 214.07 684.85 208.32 674.09
  Q 200.11 658.76 193.98 643.51
  Q 191.48 637.30 185.38 619.01
  Q 183.51 610.91 181.25 603.03
  Q 179.30 596.27 177.37 580.99
  Q 174.42 557.71 174.21 534.25
  Q 174.12 523.50 174.68 518.07
  C 176.06 504.91 177.10 488.94 179.06 476.19
  Q 183.90 444.64 193.73 416.19
  Q 202.22 391.60 213.23 367.73
  Q 225.30 341.57 241.36 318.33
  C 250.87 304.58 261.74 289.49 273.69 276.45
  Q 294.68 253.54 316.25 235.76
  Q 318.61 233.82 333.61 222.75
  Q 345.36 214.08 351.31 210.27
  Q 382.45 190.39 412.82 179.61
  Q 427.36 174.45 446.94 169.49
  C 477.34 161.79 510.46 159.54 541.37 164.65
  C 572.40 169.78 603.43 179.77 629.94 196.79
  C 646.70 207.54 662.93 218.27 674.08 231.02
  Q 679.56 237.28 690.65 250.53
  C 696.53 257.57 701.86 265.45 707.38 273.09
  Z
  M 477.27 343.50
  Q 488.19 335.44 497.89 325.38
  C 510.00 312.82 516.96 296.59 515.81 278.98
  Q 515.20 269.59 512.10 258.28
  C 508.04 243.42 500.67 231.30 490.81 219.94
  A 0.99 0.99 0.0 0 0 489.56 219.74
  C 483.97 223.07 479.67 226.92 474.18 232.19
  Q 459.63 246.15 450.57 262.87
  C 446.41 270.55 444.53 278.14 443.63 286.76
  C 441.70 305.35 447.01 320.48 461.83 332.69
  Q 467.04 336.99 476.20 343.51
  A 0.92 0.91 44.4 0 0 477.27 343.50
  Z
  M 607.64 275.03
  C 600.23 274.17 592.97 276.02 584.83 278.55
  Q 568.46 283.65 557.24 290.21
  Q 530.24 306.01 529.06 337.75
  Q 528.47 353.71 530.10 368.83
  A 0.71 0.71 0.0 0 0 530.72 369.46
  C 551.68 371.94 569.96 365.12 584.73 350.00
  Q 598.69 335.69 604.23 315.24
  Q 607.92 301.61 608.01 290.74
  Q 608.14 277.25 608.04 275.46
  A 0.46 0.46 0.0 0 0 607.64 275.03
  Z
  M 362.76 277.30
  A 1.06 1.05 3.1 0 0 361.86 278.10
  Q 356.00 302.10 360.13 326.44
  C 364.58 352.73 390.08 369.77 415.92 370.09
  A 0.97 0.97 0.0 0 0 416.84 369.46
  Q 421.34 357.30 423.04 343.79
  Q 425.71 322.56 415.12 304.79
  C 405.13 288.01 389.24 281.11 370.40 277.60
  Q 366.54 276.88 362.76 277.30
  Z
  M 287.21 334.41
  Q 286.65 341.53 286.81 349.27
  C 287.23 369.06 295.41 391.69 314.97 400.34
  C 327.69 405.96 343.12 406.98 356.61 403.09
  A 0.62 0.61 -8.6 0 0 357.06 402.49
  Q 356.47 381.97 350.21 363.63
  Q 347.00 354.23 338.71 346.36
  Q 333.13 341.07 323.45 338.02
  C 311.53 334.25 299.80 333.06 287.79 333.84
  A 0.63 0.63 0.0 0 0 287.21 334.41
  Z
  M 675.49 335.64
  C 665.86 333.23 654.86 333.79 645.37 335.37
  C 620.84 339.48 602.56 359.30 599.07 383.51
  Q 597.45 394.75 598.27 405.10
  A 0.67 0.67 0.0 0 0 598.90 405.72
  C 606.51 406.17 614.31 406.25 621.31 405.11
  Q 654.65 399.64 667.91 367.38
  Q 674.06 352.44 676.09 336.51
  A 0.80 0.79 10.6 0 0 675.49 335.64
  Z
  M 465.31 458.63
  C 476.70 450.42 488.14 438.28 493.59 425.02
  C 498.98 411.90 495.64 396.66 490.26 383.77
  C 486.68 375.22 482.75 367.85 476.36 361.34
  A 1.51 1.50 50.9 0 0 474.46 361.14
  C 462.26 369.24 452.43 380.55 445.06 392.77
  C 436.21 407.43 438.22 426.67 447.46 440.47
  C 451.95 447.19 457.11 453.19 463.17 458.52
  A 1.72 1.71 47.8 0 0 465.31 458.63
  Z
  M 514.29 470.97
  C 531.70 467.28 549.12 459.62 560.92 446.44
  Q 568.85 437.57 571.45 428.82
  Q 577.46 408.53 572.05 387.25
  A 1.21 1.20 75.3 0 0 570.57 386.38
  Q 550.67 391.72 532.14 403.27
  Q 524.99 407.73 521.65 411.67
  C 508.15 427.56 507.94 451.35 513.35 470.41
  A 0.80 0.80 0.0 0 0 514.29 470.97
  Z
  M 376.91 386.91
  A 1.32 1.31 -83.3 0 0 375.96 387.67
  Q 368.62 404.11 367.81 422.14
  Q 367.48 429.62 369.23 435.79
  C 373.23 449.90 382.00 462.11 395.93 467.56
  Q 404.97 471.09 413.73 472.27
  A 0.97 0.97 0.0 0 0 414.77 471.66
  C 422.60 451.44 428.10 429.40 415.48 409.75
  Q 412.50 405.10 408.70 402.32
  Q 395.28 392.49 378.16 387.07
  Q 377.39 386.82 376.91 386.91
  Z
  M 227.97 427.55
  Q 236.75 439.24 245.92 451.15
  Q 254.90 462.80 260.76 466.85
  Q 270.29 473.44 280.55 475.42
  C 293.44 477.90 308.04 477.84 320.67 473.65
  Q 333.31 469.47 345.22 462.75
  A 1.31 1.31 0.0 0 0 345.77 461.09
  Q 339.33 446.39 330.40 434.11
  C 316.89 415.52 294.67 410.67 272.98 413.02
  Q 254.60 415.01 239.03 421.09
  Q 232.86 423.51 228.12 426.65
  A 0.63 0.63 0.0 0 0 227.97 427.55
  Z
  M 705.39 429.81
  A 0.58 0.58 0.0 0 0 705.23 428.95
  C 692.95 421.60 679.79 418.61 665.26 416.96
  C 651.27 415.37 635.38 417.01 623.46 424.19
  C 609.43 432.64 599.04 445.51 591.36 459.63
  A 2.70 2.69 30.7 0 0 592.27 463.18
  C 602.92 470.05 618.38 476.55 631.42 476.49
  C 662.67 476.35 686.67 453.53 705.39 429.81
  Z
  M 315.98 484.09
  C 321.20 492.26 325.61 501.33 330.44 509.56
  C 355.66 552.52 382.22 596.29 405.18 635.03
  C 406.67 637.53 405.85 644.28 405.42 647.43
  Q 398.57 697.21 394.46 738.30
  A 0.64 0.64 0.0 0 0 395.09 739.00
  L 469.93 740.08
  A 1.45 1.44 -87.2 0 0 471.39 738.75
  C 473.94 708.08 478.12 680.07 482.89 646.94
  Q 484.24 637.55 488.85 631.35
  Q 508.13 605.42 537.92 565.66
  C 545.13 556.05 556.12 542.47 564.16 531.28
  Q 589.29 496.30 597.64 484.95
  A 0.26 0.26 0.0 0 0 597.43 484.54
  L 510.53 485.74
  A 2.49 2.49 0.0 0 0 508.53 486.80
  L 449.37 571.50
  A 0.50 0.49 -40.8 0 1 448.52 571.44
  C 442.81 559.99 436.69 548.17 429.65 535.59
  Q 416.21 511.56 412.20 503.82
  C 408.81 497.28 405.01 492.07 401.62 485.59
  A 0.98 0.95 -12.6 0 0 400.77 485.07
  L 316.12 483.85
  A 0.16 0.15 -16.1 0 0 315.98 484.09
  Z
  M 316.26 521.41
  C 308.21 511.81 300.18 503.94 287.93 500.00
  C 273.03 495.20 259.52 494.41 246.33 501.83
  Q 232.14 509.81 221.47 522.46
  A 1.12 1.11 49.6 0 0 221.37 523.76
  C 228.86 535.95 240.29 543.55 254.64 545.82
  Q 276.21 549.23 295.26 537.81
  C 302.80 533.28 308.87 527.72 316.21 521.89
  A 0.33 0.33 0.0 0 0 316.26 521.41
  Z
  M 593.02 523.35
  C 600.78 534.30 609.88 543.47 622.75 548.67
  C 646.94 558.44 670.25 547.24 688.13 530.14
  A 2.01 2.00 56.0 0 0 688.57 527.86
  Q 685.05 520.15 678.96 514.54
  C 671.33 507.50 661.40 500.99 651.02 499.41
  C 634.18 496.85 617.10 503.50 603.81 513.89
  Q 598.09 518.35 593.11 522.65
  A 0.52 0.52 0.0 0 0 593.02 523.35
  Z
  M 644.24 613.70
  C 644.24 592.62 627.46 570.97 608.60 562.62
  C 599.10 558.41 584.51 560.52 575.12 563.36
  Q 567.73 565.61 562.65 567.25
  A 0.66 0.66 0.0 0 0 562.20 567.96
  C 563.87 579.91 568.27 594.19 574.50 603.24
  Q 582.46 614.78 597.92 618.08
  C 612.83 621.26 629.24 619.10 643.93 614.12
  A 0.45 0.44 -9.1 0 0 644.24 613.70
  Z
  M 256.33 615.26
  Q 266.21 618.36 277.97 619.55
  C 284.52 620.21 291.38 619.45 297.09 618.59
  C 320.23 615.10 333.77 593.56 339.95 573.05
  A 0.79 0.79 0.0 0 0 339.59 572.13
  Q 332.91 568.28 326.48 565.49
  C 302.94 555.29 277.86 568.74 263.75 587.69
  C 260.17 592.49 258.41 597.16 257.18 603.20
  Q 255.36 612.07 255.64 614.42
  A 1.01 0.99 6.0 0 0 256.33 615.26
  Z"
/>
<path fill="#f1ca22" d="
  M 734.73 184.58
  Q 750.04 196.96 760.58 206.43
  Q 764.28 209.75 770.03 215.78
  Q 770.52 218.01 772.13 219.66
  Q 781.94 234.19 790.47 249.44
  L 794.67 257.73
  L 783.87 250.92
  A 8.35 8.24 0.6 0 1 781.26 248.29
  Q 769.36 229.03 755.17 210.07
  Q 745.71 197.43 740.89 192.61
  Q 737.05 188.78 733.58 184.79
  Q 733.52 184.61 733.49 184.48
  A 0.34 0.34 0.0 0 1 733.89 184.08
  Q 734.32 184.16 734.73 184.58
  Z"
/>
<path fill="#dfb009" d="
  M 742.94 223.09
  Q 774.95 268.61 791.79 324.68
  Q 797.64 344.13 799.33 352.72
  Q 801.32 362.85 803.67 375.55
  Q 805.32 384.48 806.40 398.60
  Q 809.57 439.90 804.84 481.23
  C 802.17 504.56 796.25 529.23 790.94 550.71
  Q 790.15 553.93 787.66 561.13
  Q 785.83 566.43 784.53 571.61
  Q 778.01 584.89 770.11 603.62
  Q 764.09 617.92 751.41 644.17
  Q 748.37 650.47 743.94 657.41
  Q 740.25 663.17 735.75 670.26
  C 722.96 690.40 709.41 706.87 689.81 729.56
  Q 689.15 730.32 686.84 733.29
  Q 681.80 739.06 673.29 747.29
  Q 643.16 776.47 608.28 800.02
  Q 596.06 808.26 583.75 814.72
  Q 560.95 826.68 547.14 832.35
  C 526.35 840.86 505.37 847.69 482.96 852.90
  Q 417.53 868.11 352.68 851.65
  Q 326.52 845.01 305.95 836.33
  Q 294.84 831.65 274.76 820.88
  C 254.87 810.21 237.21 796.71 220.05 780.95
  Q 205.12 767.25 193.86 752.62
  Q 176.82 730.50 163.98 705.75
  L 165.87 706.23
  A 1.10 1.09 89.0 0 1 166.67 707.01
  Q 167.17 708.80 168.43 709.98
  A 2.92 2.86 -81.8 0 1 169.08 710.87
  Q 170.78 714.43 173.12 716.42
  A 3.48 3.42 4.3 0 1 173.83 717.23
  Q 180.92 728.51 193.51 742.79
  Q 206.37 757.37 214.43 764.67
  Q 217.87 767.78 226.95 775.36
  C 247.76 792.73 271.29 807.06 295.87 818.61
  Q 304.02 822.44 319.56 828.64
  C 335.64 835.06 353.05 839.13 367.96 842.03
  C 371.77 842.77 376.56 843.40 380.61 843.62
  Q 397.60 844.53 402.25 844.78
  C 414.58 845.44 424.92 844.81 439.24 844.54
  Q 449.89 844.35 462.20 841.83
  Q 477.11 838.78 502.05 830.73
  Q 520.46 824.78 541.78 814.24
  Q 558.91 805.78 569.56 800.20
  Q 576.30 796.66 581.26 793.44
  C 584.64 791.24 591.41 787.21 596.39 783.61
  Q 610.14 773.67 624.21 761.96
  C 632.21 755.30 642.41 747.60 650.96 739.70
  Q 670.53 721.63 685.99 703.73
  C 694.21 694.21 703.17 681.58 711.62 668.56
  Q 718.36 658.17 725.47 647.98
  Q 731.25 639.70 737.05 628.34
  Q 742.23 618.19 752.76 594.83
  Q 757.54 584.22 762.08 570.49
  Q 764.78 562.31 768.98 545.40
  C 775.37 519.68 778.91 506.12 782.19 488.51
  C 784.11 478.20 785.88 466.14 786.33 454.19
  Q 787.10 434.12 787.15 431.87
  Q 787.79 407.91 786.65 382.78
  Q 786.12 371.15 784.30 359.09
  Q 780.82 336.07 780.72 335.51
  Q 779.08 326.48 776.08 312.92
  Q 773.88 302.98 769.63 290.78
  Q 763.71 273.79 759.18 263.57
  Q 758.67 262.42 749.35 243.58
  Q 745.48 235.74 739.67 227.12
  Q 733.49 217.94 727.42 208.35
  Q 723.81 202.65 717.63 197.22
  A 1.70 1.69 -47.9 0 1 717.51 194.79
  Q 717.54 194.76 717.78 193.41
  Q 731.59 207.08 742.94 223.09
  Z"
/>
<path fill="#977406" d="
  M 794.67 257.73
  L 790.47 249.44
  Q 790.78 248.34 789.52 246.21
  Q 779.91 230.10 774.38 221.42
  Q 773.16 219.49 772.13 219.66
  Q 770.52 218.01 770.03 215.78
  Q 780.56 224.91 789.37 235.40
  C 801.18 249.45 811.33 262.45 820.72 277.08
  A 0.35 0.35 0.0 0 1 820.19 277.53
  C 816.47 274.17 813.43 271.41 808.76 268.07
  Q 801.52 262.89 794.67 257.73
  Z"
/>
<path fill="#085f4a" d="
  M 477.27 343.50
  A 0.92 0.91 44.4 0 1 476.20 343.51
  Q 467.04 336.99 461.83 332.69
  C 447.01 320.48 441.70 305.35 443.63 286.76
  C 444.53 278.14 446.41 270.55 450.57 262.87
  Q 459.63 246.15 474.18 232.19
  C 479.67 226.92 483.97 223.07 489.56 219.74
  A 0.99 0.99 0.0 0 1 490.81 219.94
  C 500.67 231.30 508.04 243.42 512.10 258.28
  Q 515.20 269.59 515.81 278.98
  C 516.96 296.59 510.00 312.82 497.89 325.38
  Q 488.19 335.44 477.27 343.50
  Z"
/>
<path fill="#7d6009" d="
  M 790.47 249.44
  Q 781.94 234.19 772.13 219.66
  Q 773.16 219.49 774.38 221.42
  Q 779.91 230.10 789.52 246.21
  Q 790.78 248.34 790.47 249.44
  Z"
/>
<path fill="#f1ca22" d="
  M 806.09 282.51
  Q 805.64 283.94 805.93 284.52
  Q 814.79 302.18 820.87 321.27
  C 822.59 326.67 823.26 331.37 825.16 336.04
  A 0.21 0.21 0.0 0 1 824.91 336.32
  Q 824.73 336.27 824.44 336.34
  Q 822.67 335.01 819.16 331.84
  C 816.73 329.65 815.62 327.89 814.70 324.58
  Q 807.51 298.65 796.44 274.79
  A 0.18 0.18 0.0 0 1 796.72 274.58
  L 806.09 282.51
  Z"
/>
<path fill="#085f4a" d="
  M 607.64 275.03
  A 0.46 0.46 0.0 0 1 608.04 275.46
  Q 608.14 277.25 608.01 290.74
  Q 607.92 301.61 604.23 315.24
  Q 598.69 335.69 584.73 350.00
  C 569.96 365.12 551.68 371.94 530.72 369.46
  A 0.71 0.71 0.0 0 1 530.10 368.83
  Q 528.47 353.71 529.06 337.75
  Q 530.24 306.01 557.24 290.21
  Q 568.46 283.65 584.83 278.55
  C 592.97 276.02 600.23 274.17 607.64 275.03
  Z"
/>
<path fill="#085f4a" d="
  M 362.76 277.30
  Q 366.54 276.88 370.40 277.60
  C 389.24 281.11 405.13 288.01 415.12 304.79
  Q 425.71 322.56 423.04 343.79
  Q 421.34 357.30 416.84 369.46
  A 0.97 0.97 0.0 0 1 415.92 370.09
  C 390.08 369.77 364.58 352.73 360.13 326.44
  Q 356.00 302.10 361.86 278.10
  A 1.06 1.05 3.1 0 1 362.76 277.30
  Z"
/>
<path fill="#ac8f11" d="
  M 824.44 336.34
  Q 824.73 336.27 824.91 336.32
  A 0.21 0.21 0.0 0 0 825.16 336.04
  C 823.26 331.37 822.59 326.67 820.87 321.27
  Q 814.79 302.18 805.93 284.52
  Q 805.64 283.94 806.09 282.51
  L 838.85 310.03
  A 3.00 2.89 -85.2 0 1 839.55 310.89
  Q 853.99 338.11 864.84 370.28
  A 0.19 0.19 0.0 0 1 864.54 370.48
  L 824.44 336.34
  Z"
/>
<path fill="#085f4a" d="
  M 287.21 334.41
  A 0.63 0.63 0.0 0 1 287.79 333.84
  C 299.80 333.06 311.53 334.25 323.45 338.02
  Q 333.13 341.07 338.71 346.36
  Q 347.00 354.23 350.21 363.63
  Q 356.47 381.97 357.06 402.49
  A 0.62 0.61 -8.6 0 1 356.61 403.09
  C 343.12 406.98 327.69 405.96 314.97 400.34
  C 295.41 391.69 287.23 369.06 286.81 349.27
  Q 286.65 341.53 287.21 334.41
  Z"
/>
<path fill="#085f4a" d="
  M 675.49 335.64
  A 0.80 0.79 10.6 0 1 676.09 336.51
  Q 674.06 352.44 667.91 367.38
  Q 654.65 399.64 621.31 405.11
  C 614.31 406.25 606.51 406.17 598.90 405.72
  A 0.67 0.67 0.0 0 1 598.27 405.10
  Q 597.45 394.75 599.07 383.51
  C 602.56 359.30 620.84 339.48 645.37 335.37
  C 654.86 333.79 665.86 333.23 675.49 335.64
  Z"
/>
<path fill="#7d6009" d="
  M 745.05 362.82
  L 742.65 352.74
  Q 745.06 357.79 745.05 362.82
  Z"
/>
<path fill="#f1ca22" d="
  M 828.57 361.44
  Q 829.02 370.59 829.57 379.51
  Q 829.69 381.49 829.76 383.50
  Q 830.23 396.70 830.79 409.89
  Q 830.87 411.79 831.24 414.33
  Q 831.55 416.45 831.77 418.76
  Q 828.98 416.79 828.97 415.01
  Q 828.91 407.31 828.52 402.51
  Q 826.58 378.53 821.76 355.14
  A 0.25 0.25 0.0 0 1 822.19 354.91
  L 828.57 361.44
  Z"
/>
<path fill="#085f4a" d="
  M 465.31 458.63
  A 1.72 1.71 47.8 0 1 463.17 458.52
  C 457.11 453.19 451.95 447.19 447.46 440.47
  C 438.22 426.67 436.21 407.43 445.06 392.77
  C 452.43 380.55 462.26 369.24 474.46 361.14
  A 1.51 1.50 50.9 0 1 476.36 361.34
  C 482.75 367.85 486.68 375.22 490.26 383.77
  C 495.64 396.66 498.98 411.90 493.59 425.02
  C 488.14 438.28 476.70 450.42 465.31 458.63
  Z"
/>
<path fill="#ac8f11" d="
  M 831.77 418.76
  Q 831.55 416.45 831.24 414.33
  Q 830.87 411.79 830.79 409.89
  Q 830.23 396.70 829.76 383.50
  Q 829.69 381.49 829.57 379.51
  Q 829.02 370.59 828.57 361.44
  L 870.59 400.20
  A 3.84 3.81 16.7 0 1 871.76 402.35
  Q 877.02 432.01 879.65 461.05
  A 0.49 0.49 0.0 0 1 878.84 461.46
  Q 869.99 453.68 862.58 447.43
  C 853.17 439.49 846.26 432.82 835.42 422.82
  Q 833.61 421.15 831.77 418.76
  Z"
/>
<path fill="#085f4a" d="
  M 514.29 470.97
  A 0.80 0.80 0.0 0 1 513.35 470.41
  C 507.94 451.35 508.15 427.56 521.65 411.67
  Q 524.99 407.73 532.14 403.27
  Q 550.67 391.72 570.57 386.38
  A 1.21 1.20 75.3 0 1 572.05 387.25
  Q 577.46 408.53 571.45 428.82
  Q 568.85 437.57 560.92 446.44
  C 549.12 459.62 531.70 467.28 514.29 470.97
  Z"
/>
<path fill="#085f4a" d="
  M 376.91 386.91
  Q 377.39 386.82 378.16 387.07
  Q 395.28 392.49 408.70 402.32
  Q 412.50 405.10 415.48 409.75
  C 428.10 429.40 422.60 451.44 414.77 471.66
  A 0.97 0.97 0.0 0 1 413.73 472.27
  Q 404.97 471.09 395.93 467.56
  C 382.00 462.11 373.23 449.90 369.23 435.79
  Q 367.48 429.62 367.81 422.14
  Q 368.62 404.11 375.96 387.67
  A 1.32 1.31 -83.3 0 1 376.91 386.91
  Z"
/>
<path fill="#085f4a" d="
  M 227.97 427.55
  A 0.63 0.63 0.0 0 1 228.12 426.65
  Q 232.86 423.51 239.03 421.09
  Q 254.60 415.01 272.98 413.02
  C 294.67 410.67 316.89 415.52 330.40 434.11
  Q 339.33 446.39 345.77 461.09
  A 1.31 1.31 0.0 0 1 345.22 462.75
  Q 333.31 469.47 320.67 473.65
  C 308.04 477.84 293.44 477.90 280.55 475.42
  Q 270.29 473.44 260.76 466.85
  Q 254.90 462.80 245.92 451.15
  Q 236.75 439.24 227.97 427.55
  Z"
/>
<path fill="#085f4a" d="
  M 705.39 429.81
  C 686.67 453.53 662.67 476.35 631.42 476.49
  C 618.38 476.55 602.92 470.05 592.27 463.18
  A 2.70 2.69 30.7 0 1 591.36 459.63
  C 599.04 445.51 609.43 432.64 623.46 424.19
  C 635.38 417.01 651.27 415.37 665.26 416.96
  C 679.79 418.61 692.95 421.60 705.23 428.95
  A 0.58 0.58 0.0 0 1 705.39 429.81
  Z"
/>
<path fill="#f1ca22" d="
  M 835.90 450.75
  L 834.10 451.08
  A 0.57 0.56 -8.4 0 0 833.64 451.69
  Q 834.21 457.48 834.11 460.50
  Q 833.78 470.09 832.27 493.98
  Q 831.79 501.60 828.74 512.13
  L 824.65 506.70
  A 2.65 2.64 -58.9 0 1 824.15 504.66
  Q 829.33 474.41 829.01 443.44
  A 0.31 0.31 0.0 0 1 829.55 443.24
  L 835.90 450.75
  Z"
/>
<path fill="#ac8f11" d="
  M 828.74 512.13
  Q 831.79 501.60 832.27 493.98
  Q 833.78 470.09 834.11 460.50
  Q 834.21 457.48 833.64 451.69
  A 0.57 0.56 -8.4 0 1 834.10 451.08
  L 835.90 450.75
  L 878.80 487.07
  A 2.99 2.98 -71.2 0 1 879.87 489.25
  C 880.15 495.81 879.73 503.90 879.25 516.90
  C 878.72 531.20 877.46 541.13 875.63 555.38
  A 0.76 0.75 -66.0 0 1 874.39 555.86
  Q 855.22 539.48 836.32 521.69
  Q 831.67 517.32 828.74 512.13
  Z"
/>
<path fill="#085f4a" d="
  M 315.98 484.09
  A 0.16 0.15 -16.1 0 1 316.12 483.85
  L 400.77 485.07
  A 0.98 0.95 -12.6 0 1 401.62 485.59
  C 405.01 492.07 408.81 497.28 412.20 503.82
  Q 416.21 511.56 429.65 535.59
  C 436.69 548.17 442.81 559.99 448.52 571.44
  A 0.50 0.49 -40.8 0 0 449.37 571.50
  L 508.53 486.80
  A 2.49 2.49 0.0 0 1 510.53 485.74
  L 597.43 484.54
  A 0.26 0.26 0.0 0 1 597.64 484.95
  Q 589.29 496.30 564.16 531.28
  C 556.12 542.47 545.13 556.05 537.92 565.66
  Q 508.13 605.42 488.85 631.35
  Q 484.24 637.55 482.89 646.94
  C 478.12 680.07 473.94 708.08 471.39 738.75
  A 1.45 1.44 -87.2 0 1 469.93 740.08
  L 395.09 739.00
  A 0.64 0.64 0.0 0 1 394.46 738.30
  Q 398.57 697.21 405.42 647.43
  C 405.85 644.28 406.67 637.53 405.18 635.03
  C 382.22 596.29 355.66 552.52 330.44 509.56
  C 325.61 501.33 321.20 492.26 315.98 484.09
  Z"
/>
<path fill="#085f4a" d="
  M 316.26 521.41
  A 0.33 0.33 0.0 0 1 316.21 521.89
  C 308.87 527.72 302.80 533.28 295.26 537.81
  Q 276.21 549.23 254.64 545.82
  C 240.29 543.55 228.86 535.95 221.37 523.76
  A 1.12 1.11 49.6 0 1 221.47 522.46
  Q 232.14 509.81 246.33 501.83
  C 259.52 494.41 273.03 495.20 287.93 500.00
  C 300.18 503.94 308.21 511.81 316.26 521.41
  Z"
/>
<path fill="#085f4a" d="
  M 593.02 523.35
  A 0.52 0.52 0.0 0 1 593.11 522.65
  Q 598.09 518.35 603.81 513.89
  C 617.10 503.50 634.18 496.85 651.02 499.41
  C 661.40 500.99 671.33 507.50 678.96 514.54
  Q 685.05 520.15 688.57 527.86
  A 2.01 2.00 56.0 0 1 688.13 530.14
  C 670.25 547.24 646.94 558.44 622.75 548.67
  C 609.88 543.47 600.78 534.30 593.02 523.35
  Z"
/>
<path fill="#ac8f11" d="
  M 853.87 638.12
  A 0.69 0.68 29.3 0 1 852.78 638.42
  L 800.03 595.21
  A 1.16 1.15 29.6 0 1 799.67 593.92
  Q 805.88 577.00 810.95 560.50
  Q 813.94 550.79 815.75 543.73
  C 816.70 540.05 816.77 536.22 818.08 532.90
  A 0.42 0.42 0.0 0 1 818.83 532.85
  L 819.51 534.07
  A 0.69 0.58 4.7 0 0 819.74 534.30
  C 821.42 535.25 823.21 537.81 824.71 539.25
  Q 847.34 561.00 871.08 580.15
  A 1.42 1.42 0.0 0 1 871.56 581.65
  Q 863.58 610.10 853.87 638.12
  Z"
/>
<path fill="#085f4a" d="
  M 644.24 613.70
  A 0.45 0.44 -9.1 0 1 643.93 614.12
  C 629.24 619.10 612.83 621.26 597.92 618.08
  Q 582.46 614.78 574.50 603.24
  C 568.27 594.19 563.87 579.91 562.20 567.96
  A 0.66 0.66 0.0 0 1 562.65 567.25
  Q 567.73 565.61 575.12 563.36
  C 584.51 560.52 599.10 558.41 608.60 562.62
  C 627.46 570.97 644.24 592.62 644.24 613.70
  Z"
/>
<path fill="#085f4a" d="
  M 255.64 614.42
  Q 255.36 612.07 257.18 603.20
  C 258.41 597.16 260.17 592.49 263.75 587.69
  C 277.86 568.74 302.94 555.29 326.48 565.49
  Q 332.91 568.28 339.59 572.13
  A 0.79 0.79 0.0 0 1 339.95 573.05
  C 333.77 593.56 320.23 615.10 297.09 618.59
  C 291.38 619.45 284.52 620.21 277.97 619.55
  Q 266.21 618.36 256.33 615.26
  A 1.01 0.99 6.0 0 1 255.64 614.42
  Z"
/>
<path fill="#7d6009" d="
  M 784.53 571.61
  Q 780.58 586.14 772.05 605.05
  Q 761.74 627.92 756.85 638.32
  Q 748.05 657.05 736.38 674.13
  Q 722.97 693.74 713.48 705.48
  Q 709.15 710.83 698.75 722.03
  Q 694.11 726.88 689.66 731.91
  Q 688.72 732.97 686.84 733.29
  Q 689.15 730.32 689.81 729.56
  C 709.41 706.87 722.96 690.40 735.75 670.26
  Q 740.25 663.17 743.94 657.41
  Q 748.37 650.47 751.41 644.17
  Q 764.09 617.92 770.11 603.62
  Q 778.01 584.89 784.53 571.61
  Z"
/>
<path fill="#ac8f11" d="
  M 817.31 713.55
  L 764.38 670.89
  A 1.24 1.23 -54.9 0 1 764.10 669.28
  Q 779.41 644.23 790.29 616.35
  A 0.59 0.59 0.0 0 1 791.22 616.12
  L 843.88 661.02
  A 1.15 1.14 32.0 0 1 844.19 662.34
  Q 833.13 688.00 818.29 713.37
  A 0.66 0.65 34.3 0 1 817.31 713.55
  Z"
/>
<path fill="#ac8f11" d="
  M 751.20 688.52
  A 0.33 0.32 -46.4 0 1 751.62 688.50
  C 758.03 693.60 763.81 698.08 769.93 703.80
  Q 781.74 714.85 795.52 726.03
  C 798.59 728.51 801.53 731.83 804.44 733.48
  A 0.41 0.41 0.0 0 1 804.52 734.15
  C 802.12 736.28 800.25 739.72 797.64 743.27
  Q 781.20 765.66 762.11 785.64
  A 1.14 1.13 38.1 0 1 760.69 785.81
  C 757.68 783.93 755.25 781.44 752.18 779.00
  Q 748.59 776.14 729.87 761.75
  C 722.26 755.89 716.04 749.80 708.40 743.95
  A 1.51 1.51 0.0 0 1 708.23 741.72
  Q 720.61 728.67 732.22 714.57
  C 738.67 706.72 744.20 698.35 750.27 689.52
  Q 750.50 689.19 751.20 688.52
  Z"
/>
<path fill="#977406" d="
  M 649.47 803.23
  L 647.01 801.34
  A 0.69 0.69 0.0 0 1 647.01 800.26
  Q 666.23 785.33 683.45 768.01
  L 691.59 760.00
  A 1.43 1.43 0.0 0 1 693.46 759.88
  L 747.08 800.72
  A 0.63 0.62 -41.3 0 1 747.01 801.76
  Q 745.24 802.76 745.12 802.86
  C 727.44 817.94 714.94 828.58 699.70 839.53
  A 1.07 1.06 45.2 0 1 698.46 839.52
  L 649.47 803.23
  Z"
/>
<path fill="#977406" d="
  M 633.39 816.30
  L 681.50 851.22
  A 0.57 0.57 0.0 0 1 681.52 852.13
  C 676.93 855.78 670.71 859.94 664.71 863.03
  Q 654.81 868.12 648.81 871.54
  C 641.79 875.54 634.25 878.58 627.41 881.65
  Q 625.31 882.60 624.27 882.43
  A 3.34 3.30 62.5 0 1 623.37 882.14
  Q 622.51 881.72 620.04 879.93
  Q 597.84 863.80 574.47 849.14
  L 570.04 845.97
  A 0.56 0.55 -38.7 0 1 570.15 845.01
  C 590.43 836.23 608.55 824.98 627.37 812.89
  A 1.28 1.26 46.6 0 1 628.81 812.94
  L 633.39 816.30
  Z"
/>
<path fill="#7d6009" d="
  M 294.28 854.26
  Q 319.90 865.16 348.23 871.27
  Q 352.05 872.10 355.78 874.55
  Q 375.05 887.36 393.90 901.82
  A 0.57 0.57 0.0 0 1 393.39 902.82
  Q 366.80 894.96 341.68 883.26
  Q 317.10 871.81 293.21 854.88
  A 0.38 0.38 0.0 0 1 293.36 854.20
  Q 293.71 854.13 294.28 854.26
  Z"
/>
<path fill="#977406" d="
  M 552.45 856.07
  L 603.15 891.14
  A 0.35 0.35 0.0 0 1 603.08 891.75
  Q 582.44 899.79 560.77 904.29
  Q 548.42 906.86 536.32 908.79
  A 1.85 1.82 -33.4 0 1 535.06 908.54
  C 526.99 903.46 520.62 899.66 512.40 893.97
  Q 501.89 886.71 490.07 878.70
  Q 487.02 876.64 484.71 873.99
  Q 512.72 868.66 538.55 858.79
  Q 543.46 856.91 548.43 855.13
  C 550.10 854.53 551.31 854.84 552.45 856.07
  Z"
/>
<path fill="#977406" d="
  M 460.64 881.83
  L 503.58 911.59
  A 0.14 0.10 18.0 0 1 503.63 911.66
  Q 503.72 911.86 503.73 911.87
  A 0.57 0.57 0.0 0 1 503.47 912.84
  Q 500.35 913.59 497.27 913.77
  Q 482.81 914.63 473.54 914.65
  Q 458.68 914.69 441.31 911.70
  Q 436.29 910.84 431.78 907.99
  Q 395.17 884.86 384.05 877.71
  Q 383.71 877.48 384.08 876.86
  Q 396.87 878.48 403.16 878.85
  Q 428.95 880.35 454.75 878.85
  Q 457.25 878.70 460.64 881.83
  Z"
/>
</svg>
