<svg xmlns="http://www.w3.org/2000/svg" width="1440" height="1440" viewBox="0 0 1440 1440"><defs><clipPath id="a" clipPathUnits="userSpaceOnUse"><path d="M-301.14 868.37h1080v-1080h-1080Z"/></clipPath><clipPath id="b" clipPathUnits="userSpaceOnUse"><path d="M-301.14 866.87h1080v-1080h-1080Z"/></clipPath><clipPath id="c" clipPathUnits="userSpaceOnUse"><path d="M-784.366 838.339h1080v-1080h-1080Z"/></clipPath><clipPath id="d" clipPathUnits="userSpaceOnUse"><path d="M-784.366 836.839h1080v-1080h-1080Z"/></clipPath><clipPath id="e" clipPathUnits="userSpaceOnUse"><path d="M-826.957 884.76h1080v-1080h-1080Z"/></clipPath><clipPath id="f" clipPathUnits="userSpaceOnUse"><path d="M-826.957 883.26h1080v-1080h-1080Z"/></clipPath><clipPath id="g" clipPathUnits="userSpaceOnUse"><path d="M-839.348 758.76h1080v-1080h-1080Z"/></clipPath><clipPath id="h" clipPathUnits="userSpaceOnUse"><path d="M-839.348 757.26h1080v-1080h-1080Z"/></clipPath><clipPath id="i" clipPathUnits="userSpaceOnUse"><path d="M-781.826 726.674h1080v-1080h-1080Z"/></clipPath><clipPath id="j" clipPathUnits="userSpaceOnUse"><path d="M-781.427 725.227h1080v-1080h-1080Z"/></clipPath><clipPath id="k" clipPathUnits="userSpaceOnUse"><path d="m-19.391 4.174 86.087-1.565s34.435 90.783 133.043 95.478l-65.74 62.609S27.566 126.262-19.39 4.174"/></clipPath><clipPath id="l" clipPathUnits="userSpaceOnUse"><path d="M-20.686 4.93 65.4 3.367S99.835 94.15 198.443 98.845l-65.74 62.609S26.27 127.019-20.685 4.93"/></clipPath><clipPath id="m" clipPathUnits="userSpaceOnUse"><path d="m-46.32 17.498 86.086-1.565s34.435 90.783 133.043 95.478l-65.739 62.61S.635 139.585-46.32 17.497"/></clipPath><clipPath id="n" clipPathUnits="userSpaceOnUse"><path d="m-47.767 17.897 86.087-1.565s34.435 90.783 133.043 95.478l-65.739 62.61S-.811 139.984-47.767 17.896"/></clipPath><clipPath id="o" clipPathUnits="userSpaceOnUse"><path d="M-781.427 725.227h1080v-1080h-1080Z"/></clipPath><clipPath id="p" clipPathUnits="userSpaceOnUse"><path d="M-825.313 676.811h1080v-1080h-1080Z"/></clipPath><clipPath id="q" clipPathUnits="userSpaceOnUse"><path d="M-824.018 677.569h1080v-1080h-1080Z"/></clipPath><clipPath id="r" clipPathUnits="userSpaceOnUse"><path d="M-818.512 717.242h1080v-1080h-1080Z"/></clipPath><clipPath id="s" clipPathUnits="userSpaceOnUse"><path d="M-817.217 717.999h1080v-1080h-1080Z"/></clipPath><clipPath id="t" clipPathUnits="userSpaceOnUse"><path d="M-624.361 839.607h1080v-1080h-1080Z"/></clipPath><clipPath id="u" clipPathUnits="userSpaceOnUse"><path d="M-623.066 840.364h1080v-1080h-1080Z"/></clipPath><clipPath id="v" clipPathUnits="userSpaceOnUse"><path d="M-307.443 850.095h1080v-1080h-1080Z"/></clipPath><clipPath id="w" clipPathUnits="userSpaceOnUse"><path d="M-334.155 851.35h1080v-1080h-1080Z"/></clipPath><clipPath id="x" clipPathUnits="userSpaceOnUse"><path d="M-426.853 851.435h1080v-1080h-1080Z"/></clipPath><clipPath id="y" clipPathUnits="userSpaceOnUse"><path d="M-565.565 850.765h1080v-1080h-1080Z"/></clipPath><clipPath id="z" clipPathUnits="userSpaceOnUse"><path d="M-399.295 700.417h1080v-1080h-1080Z"/></clipPath><clipPath id="A" clipPathUnits="userSpaceOnUse"><path d="M-398.538 699.122h1080v-1080h-1080Z"/></clipPath><clipPath id="B" clipPathUnits="userSpaceOnUse"><path d="M-535.256 599.076h1080v-1080h-1080Z"/></clipPath><clipPath id="C" clipPathUnits="userSpaceOnUse"><path d="M-534.499 597.781h1080v-1080h-1080Z"/></clipPath><clipPath id="D" clipPathUnits="userSpaceOnUse"><path d="M-471.683 490.93h1080v-1080h-1080Z"/></clipPath><clipPath id="E" clipPathUnits="userSpaceOnUse"><path d="M-470.237 491.329h1080v-1080h-1080Z"/></clipPath><clipPath id="F" clipPathUnits="userSpaceOnUse"><path d="M-273.437 421.4h1080v-1080h-1080Z"/></clipPath><clipPath id="G" clipPathUnits="userSpaceOnUse"><path d="M-274.732 420.643h1080v-1080h-1080Z"/></clipPath><clipPath id="H" clipPathUnits="userSpaceOnUse"><path d="M-527.854 560.013h1080v-1080h-1080Z"/></clipPath><clipPath id="I" clipPathUnits="userSpaceOnUse"><path d="M-529.15 559.256h1080v-1080h-1080Z"/></clipPath><clipPath id="J" clipPathUnits="userSpaceOnUse"><path d="M-720.688 681.216h1080v-1080h-1080Z"/></clipPath><clipPath id="K" clipPathUnits="userSpaceOnUse"><path d="M-721.983 681.973h1080v-1080h-1080Z"/></clipPath><clipPath id="L" clipPathUnits="userSpaceOnUse"><path d="M-521.246 596.728h1080v-1080h-1080Z"/></clipPath><clipPath id="M" clipPathUnits="userSpaceOnUse"><path d="M-520.488 598.024h1080v-1080h-1080Z"/></clipPath><clipPath id="N" clipPathUnits="userSpaceOnUse"><path d="M-584.818 488.582h1080v-1080h-1080Z"/></clipPath><clipPath id="O" clipPathUnits="userSpaceOnUse"><path d="M-583.372 488.184h1080v-1080h-1080Z"/></clipPath><clipPath id="P" clipPathUnits="userSpaceOnUse"><path d="M-783.064 419.052h1080v-1080h-1080Z"/></clipPath><clipPath id="Q" clipPathUnits="userSpaceOnUse"><path d="M-784.36 419.81h1080v-1080h-1080Z"/></clipPath><clipPath id="R" clipPathUnits="userSpaceOnUse"><path d="M-528.647 557.665h1080v-1080h-1080Z"/></clipPath><clipPath id="S" clipPathUnits="userSpaceOnUse"><path d="M-529.942 558.422h1080v-1080h-1080Z"/></clipPath><clipPath id="T" clipPathUnits="userSpaceOnUse"><path d="M-463.911 541.67h1080v-1080h-1080Z"/></clipPath><clipPath id="U" clipPathUnits="userSpaceOnUse"><path d="M-367.38 471.672h1080v-1080h-1080Z"/></clipPath><clipPath id="V" clipPathUnits="userSpaceOnUse"><path d="M-615.75 509.229h1080v-1080h-1080Z"/></clipPath><clipPath id="W" clipPathUnits="userSpaceOnUse"><path d="M-612.436 510.004h1080v-1080h-1080Z"/></clipPath><clipPath id="X" clipPathUnits="userSpaceOnUse"><path d="M-451.985 640.818h1080v-1080h-1080Z"/></clipPath><clipPath id="Y" clipPathUnits="userSpaceOnUse"><path d="M-451.985 639.318h1080v-1080h-1080Z"/></clipPath><clipPath id="Z" clipPathUnits="userSpaceOnUse"><path d="M-620.197 619.363h1080v-1080h-1080Z"/></clipPath><clipPath id="aa" clipPathUnits="userSpaceOnUse"><path d="M-620.197 617.863h1080v-1080h-1080Z"/></clipPath><clipPath id="ab" clipPathUnits="userSpaceOnUse"><path d="M-617.969 493.936h1080v-1080h-1080Z"/></clipPath><clipPath id="ac" clipPathUnits="userSpaceOnUse"><path d="M-616.522 493.537h1080v-1080h-1080Z"/></clipPath><clipPath id="ad" clipPathUnits="userSpaceOnUse"><path d="M-479.473 335.965h1080v-1080h-1080Z"/></clipPath><clipPath id="ae" clipPathUnits="userSpaceOnUse"><path d="M-480.973 335.965h1080v-1080h-1080Z"/></clipPath><clipPath id="af" clipPathUnits="userSpaceOnUse"><path d="M-632.945 581.704h1080v-1080h-1080Z"/></clipPath><clipPath id="ag" clipPathUnits="userSpaceOnUse"><path d="M-634.445 581.704h1080v-1080h-1080Z"/></clipPath><clipPath id="ah" clipPathUnits="userSpaceOnUse"><path d="M-538.038 456.381h1080v-1080h-1080Z"/></clipPath><clipPath id="ai" clipPathUnits="userSpaceOnUse"><path d="M-539.538 456.381h1080v-1080h-1080Z"/></clipPath><clipPath id="aj" clipPathUnits="userSpaceOnUse"><path d="M-70.736-3.564H11.25C11.25 18.011-7.104 35.5-29.743 35.5c-22.641 0-40.993-17.489-40.993-39.064"/></clipPath><clipPath id="ak" clipPathUnits="userSpaceOnUse"><path d="M-41.404-16.996h81.986c0 21.575-18.354 39.064-40.993 39.064s-40.993-17.49-40.993-39.064"/></clipPath><clipPath id="al" clipPathUnits="userSpaceOnUse"><path d="M-55.456-11.107H26.53c0 21.575-18.354 39.064-40.993 39.064-22.641 0-40.993-17.489-40.993-39.064"/></clipPath><clipPath id="am" clipPathUnits="userSpaceOnUse"><path d="M-611.597 456.381h1080v-1080h-1080Z"/></clipPath><clipPath id="an" clipPathUnits="userSpaceOnUse"><path d="M-613.097 456.381h1080v-1080h-1080Z"/></clipPath><clipPath id="ao" clipPathUnits="userSpaceOnUse"><path d="M-70.738-3.564H11.25C11.25 18.011-7.104 35.5-29.744 35.5S-70.738 18.011-70.738-3.564"/></clipPath><clipPath id="ap" clipPathUnits="userSpaceOnUse"><path d="M-41.405-16.996h81.987c0 21.575-18.353 39.064-40.993 39.064s-40.994-17.49-40.994-39.064"/></clipPath><clipPath id="aq" clipPathUnits="userSpaceOnUse"><path d="M-55.458-11.107H26.53c0 21.575-18.353 39.064-40.993 39.064s-40.994-17.489-40.994-39.064"/></clipPath><clipPath id="ar" clipPathUnits="userSpaceOnUse"><path d="M-549.95 460.097h1080v-1080h-1080Z"/></clipPath><clipPath id="as" clipPathUnits="userSpaceOnUse"><path d="M-548.45 460.097h1080v-1080h-1080Z"/></clipPath><clipPath id="at" clipPathUnits="userSpaceOnUse"><path d="M-529.96 456.533h1080v-1080h-1080Z"/></clipPath><clipPath id="au" clipPathUnits="userSpaceOnUse"><path d="M-528.46 456.533h1080v-1080h-1080Z"/></clipPath><clipPath id="av" clipPathUnits="userSpaceOnUse"><path d="M-521.124 482.902h1080v-1080h-1080Z"/></clipPath><clipPath id="aw" clipPathUnits="userSpaceOnUse"><path d="M-521.124 484.402h1080v-1080h-1080Z"/></clipPath><clipPath id="ax" clipPathUnits="userSpaceOnUse"><path d="M-522.38 496.016h1080v-1080h-1080Z"/></clipPath><clipPath id="ay" clipPathUnits="userSpaceOnUse"><path d="M-558.05 481.686h1080v-1080h-1080Z"/></clipPath><clipPath id="az" clipPathUnits="userSpaceOnUse"><path d="M-521.68 489.773h1080v-1080h-1080Z"/></clipPath></defs><path d="M0 0h1080v1080H0Z" style="fill:#feffff;fill-opacity:1;fill-rule:nonzero;stroke:none" transform="matrix(1.33333 0 0 -1.33333 0 1440)"/><path d="M0 0c-24.752 0-44.817 20.065-44.817 44.817v375.998c0 74.503 29.013 144.547 81.694 197.229 52.682 52.683 122.726 81.695 197.229 81.695s144.547-29.012 197.229-81.695 81.695-122.726 81.695-197.229V44.817C513.03 20.065 492.964 0 468.212 0Z" clip-path="url(#a)" style="fill:#ff8fdd;fill-opacity:1;fill-rule:nonzero;stroke:none" transform="matrix(1.33333 0 0 -1.33333 401.519 1157.826)"/><path d="M0 0c-24.042.256-43.23 19.808-43.317 43.783-.02 5.449 0 10.898 0 16.346v307.975c0 16.942-.013 33.884 0 50.827.042 59.322 18.876 117.535 54.221 165.251 38.97 52.611 96.236 90.583 160.049 105.381 63.341 14.689 131.377 6.649 189.294-23 57.872-29.627 104.655-79.851 129.819-139.827 12.468-29.718 19.6-61.606 21.139-93.789.362-7.59.325-15.177.325-22.771V46.406c0-1.029.009-2.059 0-3.089-.132-14.118-6.963-27.548-18.642-35.611C483.987 1.56 474.009 0 463.552 0zc-1.93 0-1.934-3 0-3h465.709c14.153 0 27.531 4.727 37.117 15.544 8.801 9.931 11.704 22.053 11.704 34.925v339.379c0 21.727.623 43.585-1.888 65.203-7.434 63.993-37.237 123.941-83.493 168.749-46.509 45.053-107.83 72.884-172.389 78.039-64.783 5.172-130.418-12.34-183.596-49.8-52.616-37.065-91.863-91.879-109.174-153.93-6.936-24.86-10.293-50.612-10.307-76.409-.004-5.714 0-11.428 0-17.142V89.646c0-15.438-.143-30.884 0-46.322C-46.083 17.887-25.412-2.729 0-3c1.931-.021 1.932 2.979 0 3" clip-path="url(#b)" style="fill:#000;fill-opacity:1;fill-rule:nonzero;stroke:none" transform="matrix(1.33333 0 0 -1.33333 401.519 1155.826)"/><path d="M0 0h-498.241v390.557c0 137.586 111.535 249.121 249.12 249.121h.001C-111.535 639.678 0 528.143 0 390.557Z" clip-path="url(#c)" style="fill:#ff3342;fill-opacity:1;fill-rule:nonzero;stroke:none" transform="matrix(1.33333 0 0 -1.33333 1045.821 1117.785)"/><path d="M0 0h-490.722c-2.121 0-4.577.346-6.676 0-.265-.044-.572 0-.843 0l1.5-1.5v373.635c0 11.313-.188 22.649.572 33.942 2.587 38.426 14.296 76.049 33.948 109.168 19.28 32.492 46.017 60.439 77.633 81.127 32.049 20.971 68.91 34.366 106.978 38.694 38.909 4.425 78.682-.332 115.372-14.053 35.269-13.189 67.321-34.603 93.171-61.964 26.131-27.658 45.752-61.291 56.847-97.694 7.506-24.629 10.72-50.03 10.72-75.728V-1.5c0-1.93 3-1.934 3 0v375.55c0 13.059.098 26.077-1.15 39.103-3.646 38.047-16.069 75.057-36.18 107.565-19.63 31.731-46.361 58.942-77.719 79.16-32.185 20.752-69.038 33.863-107.082 38.188-38.853 4.418-78.688-.289-115.371-13.863-35.152-13.007-67.213-33.974-93.269-60.915-26.095-26.981-46.021-59.777-57.824-95.416-8.703-26.277-12.646-53.676-12.646-81.316V-1.5c0-.811.687-1.5 1.5-1.5h477.972c6.455 0 12.974-.268 19.425 0 .28.012.563 0 .844 0 1.93 0 1.934 3 0 3" clip-path="url(#d)" style="fill:#000;fill-opacity:1;fill-rule:nonzero;stroke:none" transform="matrix(1.33333 0 0 -1.33333 1045.821 1115.785)"/><path d="M0 0h-594.261l-30 153.391H30Z" clip-path="url(#e)" style="fill:#ffe30d;fill-opacity:1;fill-rule:nonzero;stroke:none" transform="matrix(1.33333 0 0 -1.33333 1102.609 1179.681)"/><path d="M0 0h-585.311c-2.58 0-5.387.313-7.952 0-.322-.039-.672 0-.998 0l1.447-1.101-10.129 51.788-16.153 82.588-3.718 19.015-1.447-1.899H20.138c2.846 0 5.918-.329 8.75 0 .36.042.748 0 1.112 0l-1.446 1.899-10.129-51.788L2.272 17.913-1.446-1.101c-.369-1.886 2.522-2.694 2.892-.798L11.575 49.89l16.153 82.588 3.718 19.015c.185.944-.413 1.898-1.446 1.898h-627.703c-8.478 0-16.968.135-25.445 0-.371-.006-.742 0-1.113 0-1.033 0-1.631-.954-1.446-1.898l10.128-51.789 16.153-82.588 3.719-19.015c.125-.639.824-1.101 1.446-1.101h570.104c7.715 0 15.445-.142 23.159 0 .333.006.666 0 .998 0 1.93 0 1.934 3 0 3" clip-path="url(#f)" style="fill:#000;fill-opacity:1;fill-rule:nonzero;stroke:none" transform="matrix(1.33333 0 0 -1.33333 1102.609 1177.681)"/><path d="M0 0h-635.478c-9.293 0-16.826 7.533-16.826 16.826s7.533 16.826 16.826 16.826H0c9.293 0 16.826-7.533 16.826-16.826S9.293 0 0 0" clip-path="url(#g)" style="fill:#feffff;fill-opacity:1;fill-rule:nonzero;stroke:none" transform="matrix(1.33333 0 0 -1.33333 1119.13 1011.681)"/><path d="M0 0h-620.687c-8.744 0-20.67-1.887-26.783 5.767-8.021 10.045-.452 24.541 11.993 24.885.42.012.842-.001 1.262 0 3.107.01 6.215 0 9.322 0H-23.45c7.681 0 15.379.147 23.059 0 4.82-.092 9.317-1.928 12.382-5.767C20.003 14.851 12.448.336 0 0c-1.927-.052-1.934-3.052 0-3 9.987.269 18.303 8.148 18.326 18.326C18.349 25.478 9.953 33.416 0 33.652c-1.631.039-3.267 0-4.898 0h-602.279c-9.056 0-18.113.029-27.17 0-10.692-.034-20.011-8.009-19.432-19.249.547-10.641 9.541-17.373 19.632-17.403 9.239-.028 18.479 0 27.718 0H0c1.93 0 1.934 3 0 3" clip-path="url(#h)" style="fill:#000;fill-opacity:1;fill-rule:nonzero;stroke:none" transform="matrix(1.33333 0 0 -1.33333 1119.13 1009.681)"/><path d="M0 0s-106.435-34.435-153.391-156.522l86.087-1.565S-32.87-67.304 65.739-62.609z" clip-path="url(#i)" style="fill:#1d5bd6;fill-opacity:1;fill-rule:nonzero;stroke:none" transform="matrix(1.33333 0 0 -1.33333 1042.435 968.899)"/><path d="M0 0c-3.855-1.249-7.614-2.868-11.32-4.496-9.625-4.229-18.937-9.177-27.927-14.624-13.335-8.079-25.975-17.317-37.761-27.523a275.7 275.7 0 0 1-39.588-42.375c-13.938-18.474-25.44-38.706-34.412-60.031a304 304 0 0 1-3.431-8.52c-.362-.94.555-1.883 1.446-1.899l8.573-.156 20.584-.374 24.771-.451 21.534-.391c3.474-.063 7.002-.311 10.477-.191q.074.001.148-.002c.709-.013 1.213.484 1.447 1.101q.12.31.246.619.159.388.32.774c-.199-.478-.027-.065.06.138q.122.284.246.566a126 126 0 0 0 3.127 6.592c3.855 7.594 8.326 14.881 13.274 21.811 6.889 9.649 14.783 18.596 23.568 26.56 10.593 9.603 22.531 17.698 35.459 23.819 15.193 7.192 31.694 11.508 48.422 13.024 2.288.207 4.58.362 6.875.474 1.248.061 2.043 1.625 1.061 2.561l-6.55 6.238L45.01-41.862 25.997-23.755 9.555-8.096C6.9-5.567 4.316-2.923 1.57-.491l-.111.105C.061.946-2.063-1.172-.662-2.507l6.55-6.238 15.639-14.894 19.012-18.107 16.442-15.659 5.399-5.142c.829-.789 1.648-1.803 2.587-2.464.04-.028.075-.071.11-.105l1.061 2.561c-17.505-.853-34.822-4.503-50.992-11.312C1.452-79.634-11.238-87.54-22.588-97.119c-9.573-8.079-18.12-17.315-25.642-27.323-5.488-7.3-10.426-15.028-14.691-23.106a138 138 0 0 1-3.711-7.547c-.56-1.236-1.328-2.562-1.659-3.882-.013-.053-.041-.106-.061-.158l1.446 1.102-8.572.155-20.584.375-24.771.45-21.534.392-7.102.129c-1.082.019-2.299.201-3.375.061-.047-.006-.1.002-.149.003l1.447-1.899c8.397 21.788 19.432 42.549 32.964 61.586 11.378 16.007 24.526 30.747 39.081 43.93a273.3 273.3 0 0 0 37.777 28.675c9.405 5.925 19.177 11.299 29.293 15.914 3.277 1.495 5.58 2.485 8.82 3.751 1.401.548 2.819 1.043 4.232 1.56q.088.03.177.058C2.627-2.3 1.844.597 0 0" clip-path="url(#j)" style="fill:#000;fill-opacity:1;fill-rule:nonzero;stroke:none" transform="matrix(1.33333 0 0 -1.33333 1041.903 966.97)"/><path d="M0 0s45.783 99.783 132.652 137.348l38.739-49.305-70.435-98.608Z" clip-path="url(#k)" style="fill:#ff3342;fill-opacity:1;fill-rule:nonzero;stroke:none" transform="matrix(1.33333 0 0 -1.33333 863.768 1183.16)"/><path d="M0 0c1.592 3.466 3.388 6.848 5.199 10.203 4.723 8.75 9.864 17.277 15.326 25.586 7.781 11.837 16.239 23.234 25.404 34.037C56.67 82.487 68.38 94.355 81.146 104.981c13.706 11.408 28.69 21.351 44.802 29.027q3.059 1.456 6.166 2.802l-1.818.234 13.077-16.642 20.856-26.545 4.806-6.117-.234 1.818-6.994-9.792-16.8-23.52-20.405-28.566-17.574-24.605-5.792-8.108c-.896-1.255-1.998-2.501-2.75-3.85-.033-.059-.08-.113-.12-.168l1.295.743-10.027 1.049-24.085 2.521-29.15 3.05L11.18.952l-8.378.876c-1.293.136-2.617.372-3.917.41-.06.002-.121.013-.18.019-1.918.201-1.904-2.801 0-3L8.732-1.792l24.086-2.521 29.149-3.05 25.219-2.64 8.379-.876c1.292-.136 2.617-.372 3.916-.41.06-.002.121-.013.18-.019.545-.057 1.006.338 1.296.743l6.994 9.791 16.8 23.521 20.404 28.566 17.575 24.604 5.792 8.109c.909 1.273 1.924 2.518 2.749 3.849.036.058.08.113.12.168.419.586.155 1.323-.234 1.818l-13.077 16.643-20.856 26.544-4.806 6.118c-.442.561-1.254.479-1.818.234-16.628-7.21-32.086-16.84-46.312-28.037-13.301-10.468-25.497-22.307-36.672-35.008-9.673-10.993-18.605-22.643-26.818-34.763C14.796 32.736 9.166 23.62 3.994 14.253c-2.275-4.12-4.555-8.282-6.506-12.57l-.078-.169C-3.39-.228-.805-1.754 0 0" clip-path="url(#l)" style="fill:#000;fill-opacity:1;fill-rule:nonzero;stroke:none" transform="matrix(1.33333 0 0 -1.33333 865.495 1184.169)"/><path d="M0 0s37.188 94.121 132.539 132.621l24.706-35.537L70.068-39.197Z" clip-path="url(#m)" style="fill:#ff8fdd;fill-opacity:1;fill-rule:nonzero;stroke:none" transform="matrix(1.33333 0 0 -1.33333 899.674 1200.926)"/><path d="M0 0q.13.325.265.647c.111.272.156.368.02.051l.194.454q.23.539.467 1.074a181 181 0 0 0 3.313 7.068c4.137 8.382 8.782 16.515 13.796 24.401 7.204 11.332 15.205 22.156 23.969 32.332 10.692 12.415 22.512 23.874 35.387 34.016 14.551 11.461 30.506 21.172 47.43 28.708q3.301 1.468 6.65 2.823l-1.694.689 8.356-12.019 13.259-19.073 3.091-4.446v1.514l-8.707-13.612-20.769-32.466-25.246-39.467-21.71-33.939-7.195-11.247c-1.111-1.737-2.486-3.473-3.405-5.323-.039-.079-.097-.152-.144-.226l2.052.538-23.664 13.238L7.986-3.159-.689 1.694C-2.376 2.638-3.89.047-2.203-.896L21.46-14.134 59.189-35.24l8.676-4.853c.728-.408 1.608-.156 2.052.538l8.708 13.612L99.393 6.524l25.246 39.467 28.905 45.186c1.131 1.768 2.35 3.507 3.405 5.322.045.077.097.151.145.226.269.421.29 1.096 0 1.514l-8.356 12.02-13.26 19.072-3.091 4.446c-.345.496-1.056.947-1.694.689-17.691-7.161-34.396-16.576-49.719-27.953-13.509-10.029-25.945-21.457-37.195-33.961C34.367 62.091 25.76 50.897 18.015 39.15 12.484 30.759 7.376 22.077 2.824 13.116a198 198 0 0 1-3.905-8.113C-1.674 3.689-2.392 2.338-2.827.962c-.017-.056-.044-.11-.066-.164C-3.603-.998-.703-1.777 0 0" clip-path="url(#n)" style="fill:#000;fill-opacity:1;fill-rule:nonzero;stroke:none" transform="matrix(1.33333 0 0 -1.33333 901.603 1201.457)"/><path d="M0 0c-3.855-1.249-7.614-2.868-11.32-4.496-9.625-4.229-18.937-9.177-27.927-14.624-13.335-8.079-25.975-17.317-37.761-27.523a275.7 275.7 0 0 1-39.588-42.375c-13.938-18.474-25.44-38.706-34.412-60.031a304 304 0 0 1-3.431-8.52c-.362-.94.555-1.883 1.446-1.899l8.573-.156 20.584-.374 24.771-.451 21.534-.391c3.474-.063 7.002-.311 10.477-.191q.074.001.148-.002c.709-.013 1.213.484 1.447 1.101q.12.31.246.619.159.388.32.774c-.199-.478-.027-.065.06.138q.122.284.246.566a126 126 0 0 0 3.127 6.592c3.855 7.594 8.326 14.881 13.274 21.811 6.889 9.649 14.783 18.596 23.568 26.56 10.593 9.603 22.531 17.698 35.459 23.819 15.193 7.192 31.694 11.508 48.422 13.024 2.288.207 4.58.362 6.875.474 1.248.061 2.043 1.625 1.061 2.561l-6.55 6.238L45.01-41.862 25.997-23.755 9.555-8.096C6.9-5.567 4.316-2.923 1.57-.491l-.111.105C.061.946-2.063-1.172-.662-2.507l6.55-6.238 15.639-14.894 19.012-18.107 16.442-15.659 5.399-5.142c.829-.789 1.648-1.803 2.587-2.464.04-.028.075-.071.11-.105l1.061 2.561c-17.505-.853-34.822-4.503-50.992-11.312C1.452-79.634-11.238-87.54-22.588-97.119c-9.573-8.079-18.12-17.315-25.642-27.323-5.488-7.3-10.426-15.028-14.691-23.106a138 138 0 0 1-3.711-7.547c-.56-1.236-1.328-2.562-1.659-3.882-.013-.053-.041-.106-.061-.158l1.446 1.102-8.572.155-20.584.375-24.771.45-21.534.392-7.102.129c-1.082.019-2.299.201-3.375.061-.047-.006-.1.002-.149.003l1.447-1.899c8.397 21.788 19.432 42.549 32.964 61.586 11.378 16.007 24.526 30.747 39.081 43.93a273.3 273.3 0 0 0 37.777 28.675c9.405 5.925 19.177 11.299 29.293 15.914 3.277 1.495 5.58 2.485 8.82 3.751 1.401.548 2.819 1.043 4.232 1.56q.088.03.177.058C2.627-2.3 1.844.597 0 0" clip-path="url(#o)" style="fill:#000;fill-opacity:1;fill-rule:nonzero;stroke:none" transform="matrix(1.33333 0 0 -1.33333 1041.903 966.97)"/><path d="m0 0 14.483-29.347a12.9 12.9 0 0 1 9.714-7.057l32.386-4.706c10.582-1.538 14.807-14.542 7.15-22.006L40.299-85.959a12.9 12.9 0 0 1-3.711-11.419l5.532-32.255c1.808-10.539-9.254-18.576-18.719-13.6l-28.967 15.228a12.9 12.9 0 0 1-12.007 0l-28.966-15.228c-9.465-4.976-20.527 3.061-18.719 13.6l5.532 32.255a12.9 12.9 0 0 1-3.711 11.419l-23.434 22.843c-7.657 7.464-3.432 20.468 7.15 22.006l32.386 4.706a12.9 12.9 0 0 1 9.713 7.057L-23.138 0C-18.406 9.589-4.732 9.589 0 0" clip-path="url(#p)" style="fill:#ffb510;fill-opacity:1;fill-rule:nonzero;stroke:none" transform="matrix(1.33333 0 0 -1.33333 1100.418 902.415)"/><path d="m0 0 10.297-20.864c1.377-2.791 2.731-5.595 4.133-8.374 2.3-4.559 6.539-7.256 11.509-7.978l26.058-3.787c2.859-.415 6.234-.534 8.883-1.773 5.281-2.468 7.823-8.762 5.896-14.23-1.079-3.063-3.725-5.185-5.981-7.385L50.384-74.539l-8.853-8.63c-.994-.969-1.959-1.926-2.765-3.071-2.218-3.152-2.933-7.036-2.325-10.802 1.263-7.834 2.683-15.646 4.025-23.467.498-2.908 1.043-5.811 1.496-8.726.963-6.181-3.267-12.039-9.434-13.106-3.84-.665-6.944 1.091-10.172 2.788l-12.378 6.508-11.623 6.11c-.747.393-1.486.807-2.246 1.174a14.64 14.64 0 0 1-12.765 0c-6.997-3.375-13.793-7.244-20.668-10.858-2.846-1.496-5.685-3.005-8.538-4.489-5.149-2.678-11.631-1.182-14.887 3.716-1.607 2.417-2.207 5.291-1.761 8.157.145.934.32 1.866.48 2.798l2.3 13.412 2.296 13.384c.148.866.306 1.731.445 2.599.607 3.763-.104 7.654-2.324 10.802-1.755 2.486-4.28 4.547-6.445 6.658l-10.816 10.543c-2.534 2.47-5.072 4.937-7.603 7.411-3.485 3.408-4.82 8.253-2.939 12.867a11.38 11.38 0 0 0 5.689 5.985c1.373.642 2.849.897 4.333 1.112l11.589 1.684 14.664 2.131c3.247.472 6.673.68 9.631 2.216 2.705 1.403 4.866 3.686 6.232 6.395.472.935.927 1.878 1.39 2.816l6.184 12.53 5.834 11.821c.341.69.674 1.384 1.022 2.071 1.344 2.653 3.527 4.795 6.371 5.78C-8.6 7.712-2.655 5.23 0 0c.874-1.722 3.463-.205 2.59 1.514-2.963 5.837-9.444 8.903-15.845 7.627-4.762-.95-8.209-4.234-10.301-8.473l-11.945-24.204c-1.579-3.2-2.91-6.725-6.004-8.789-2.938-1.96-6.638-2.123-10.041-2.618l-26.475-3.847c-4.819-.7-9.08-3.25-11.333-7.693a14.54 14.54 0 0 1 2.724-16.943c5.708-5.679 11.534-11.243 17.299-16.862 2.041-1.99 4.107-3.957 6.124-5.97 2.636-2.63 3.884-6.293 3.326-9.987-.135-.892-.306-1.78-.458-2.67l-4.657-27.15c-.138-.804-.284-1.606-.413-2.411-.551-3.433-.058-6.908 1.746-9.918 3.546-5.914 11.115-8.684 17.575-6.105 2.771 1.106 5.392 2.72 8.025 4.105l13.661 7.182c2.914 1.532 5.82 3.08 8.742 4.596 3.051 1.582 6.69 1.814 9.872.442.9-.388 1.762-.896 2.629-1.351l24.349-12.801c3.583-1.884 7.06-3.583 11.286-3.035 6.916.896 12.404 6.798 12.629 13.799.097 3.026-.788 6.261-1.296 9.223l-2.604 15.186c-.604 3.519-1.224 7.035-1.811 10.557-.441 2.644-.079 5.33 1.237 7.688.781 1.399 1.855 2.481 2.982 3.58l19.491 18.999c2.525 2.461 5.101 4.735 6.416 8.126 2.238 5.775.234 12.666-4.628 16.45-3.064 2.384-6.562 2.839-10.239 3.373l-14.169 2.059-12.935 1.879c-1.146.167-2.306.298-3.42.625-3.153.924-5.618 3.148-7.089 6.053-3.742 7.391-7.335 14.862-11.001 22.291L2.59 1.514C1.736 3.245-.852 1.727 0 0" clip-path="url(#q)" style="fill:#000;fill-opacity:1;fill-rule:nonzero;stroke:none" transform="matrix(1.33333 0 0 -1.33333 1098.69 903.425)"/><path d="m0 0 5.969-12.095a5.32 5.32 0 0 1 4.004-2.909l13.348-1.939c4.361-.634 6.102-5.994 2.946-9.07l-9.658-9.415a5.32 5.32 0 0 1-1.529-4.706l2.28-13.294c.745-4.344-3.814-7.656-7.715-5.605l-11.939 6.276a5.31 5.31 0 0 1-4.948 0l-11.939-6.276c-3.901-2.051-8.46 1.261-7.715 5.605l2.28 13.294a5.32 5.32 0 0 1-1.529 4.706l-9.659 9.415c-3.156 3.076-1.414 8.436 2.947 9.07l13.348 1.939a5.32 5.32 0 0 1 4.003 2.909L-9.536 0C-7.586 3.952-1.95 3.952 0 0" clip-path="url(#r)" style="fill:#ff3342;fill-opacity:1;fill-rule:nonzero;stroke:none" transform="matrix(1.33333 0 0 -1.33333 1091.35 956.322)"/><path d="m0 0 4.171-8.45c1.554-3.151 2.831-6.596 6.793-7.257 3.394-.566 6.818-.991 10.223-1.485 1.059-.154 2.132-.269 3.184-.467 2.242-.424 3.816-2.552 3.16-4.841-.352-1.224-1.37-2.028-2.248-2.883l-4.235-4.128c-2.585-2.52-6.467-5.238-6.237-9.269.07-1.235.373-2.488.582-3.704l1.029-6.001c.505-2.945 2.098-7.661-2.03-8.78-1.514-.41-2.706.29-3.98.96L5.286-53.61c-3.094 1.626-6.854 4.461-10.519 3.49-1.241-.328-2.42-1.083-3.549-1.677l-5.424-2.851c-2.607-1.371-6.532-4.442-9.104-1.358-1.051 1.261-.891 2.665-.639 4.135l.935 5.448.946 5.521c.317 1.847.481 3.6-.354 5.373-.639 1.356-1.791 2.332-2.843 3.358l-4.331 4.221-3.484 3.396c-1.178 1.148-1.88 2.544-1.366 4.22.994 3.247 5.631 3.042 8.364 3.44l6.04.877c1.253.182 2.558.273 3.732.772 3.335 1.42 4.616 5.624 6.103 8.638l2.583 5.232C-7.062-.235-6.59.999-5.445 1.683-3.437 2.884-1.047 1.983 0 0c.902-1.708 3.492-.194 2.59 1.514C.004 6.413-7.051 6.323-9.579 1.429c-1.643-3.182-3.171-6.427-4.756-9.638-.547-1.108-1.049-2.571-1.933-3.464-1.114-1.125-2.729-1.183-4.203-1.397-3.708-.539-7.419-1.062-11.125-1.617-4.821-.722-7.785-6.276-4.894-10.513.744-1.09 1.804-1.977 2.743-2.893l4.59-4.474c1.053-1.026 2.121-2.038 3.159-3.079 1.257-1.26 1.339-2.703 1.062-4.318l-1.942-11.322c-.321-1.87-.447-3.651.455-5.414 1.338-2.613 4.34-4.082 7.219-3.587 1.431.247 2.713 1.051 3.983 1.719l5.593 2.94c1.406.739 2.8 1.505 4.218 2.218 1.476.741 2.855.536 4.255-.201l10.124-5.322c1.511-.795 2.998-1.556 4.774-1.455 2.901.164 5.521 2.22 6.267 5.05.422 1.6.075 3.161-.196 4.744l-1.042 6.072c-.291 1.695-.605 3.389-.872 5.088-.254 1.611.246 2.894 1.396 4.026 2.69 2.647 5.406 5.269 8.108 7.903 1.102 1.074 2.193 2.077 2.785 3.546.996 2.47.38 5.391-1.469 7.296-1.271 1.31-2.887 1.804-4.627 2.057l-5.629.818-5.666.823c-1.776.258-3.317.636-4.24 2.387-1.568 2.974-2.981 6.04-4.469 9.055L2.59 1.514C1.736 3.245-.852 1.727 0 0" clip-path="url(#s)" style="fill:#000;fill-opacity:1;fill-rule:nonzero;stroke:none" transform="matrix(1.33333 0 0 -1.33333 1089.623 957.332)"/><path d="m0 0 7.181-14.55a6.4 6.4 0 0 1 4.816-3.499l16.056-2.333c5.247-.762 7.341-7.21 3.545-10.91L19.98-42.617a6.4 6.4 0 0 1-1.84-5.662l2.743-15.992c.896-5.225-4.588-9.209-9.281-6.742l-14.361 7.55a6.4 6.4 0 0 1-5.953 0l-14.362-7.55c-4.692-2.467-10.177 1.517-9.28 6.742l2.742 15.992a6.4 6.4 0 0 1-1.839 5.662L-43.07-31.292c-3.796 3.7-1.701 10.148 3.545 10.91l16.057 2.333a6.4 6.4 0 0 1 4.816 3.499L-11.472 0C-9.125 4.754-2.346 4.754 0 0" clip-path="url(#t)" style="fill:#ffb510;fill-opacity:1;fill-rule:nonzero;stroke:none" transform="matrix(1.33333 0 0 -1.33333 832.482 1119.476)"/><path d="m0 0 5.036-10.205c.703-1.424 1.378-2.865 2.11-4.274a8.04 8.04 0 0 1 5.981-4.293c4.174-.641 8.359-1.215 12.538-1.822 1.333-.194 2.74-.288 4.047-.635 2.733-.725 4.307-3.766 3.328-6.425-.513-1.391-1.792-2.39-2.827-3.399l-5.076-4.948c-3.174-3.094-7.818-6.327-7.23-11.331.451-3.836 1.294-7.658 1.947-11.463.282-1.645.617-3.291.848-4.945.362-2.587-1.162-5.03-3.755-5.641-1.833-.432-3.301.424-4.843 1.235l-6.07 3.191-5.718 3.006c-2.255 1.186-4.621 1.943-7.172 1.094-1.42-.472-2.759-1.313-4.077-2.006l-6.59-3.465c-1.58-.831-3.156-1.67-4.741-2.492-2.143-1.112-4.69-.805-6.285 1.113-1.294 1.556-1.146 3.313-.833 5.141l1.12 6.525 1.148 6.698c.374 2.18.598 4.254-.408 6.348-.755 1.57-2.098 2.705-3.322 3.898l-5.21 5.078-4.217 4.111c-1.467 1.43-2.338 3.179-1.755 5.267 1.157 4.14 6.599 3.917 10.036 4.417l7.328 1.064c1.553.226 3.206.327 4.662.946 2.178.927 3.445 2.663 4.45 4.699l2.859 5.793 3.07 6.22c.725 1.47 1.354 2.964 2.898 3.772C-4.192 3.596-1.278 2.446 0 0c.894-1.712 3.484-.197 2.59 1.514-3.02 5.783-11.285 5.532-14.166-.212-1.954-3.894-3.857-7.814-5.785-11.721-.704-1.426-1.353-3.289-2.609-4.321-1.41-1.157-3.376-1.218-5.111-1.47-4.389-.638-8.78-1.259-13.166-1.913-6.114-.911-9.173-8.202-5.016-13.016.945-1.093 2.071-2.058 3.104-3.065l5.555-5.415c1.117-1.089 2.264-2.156 3.355-3.271 1.608-1.642 1.609-3.516 1.255-5.582l-2.316-13.503c-.383-2.233-.512-4.366.635-6.443 1.694-3.064 5.347-4.667 8.746-3.867 1.571.369 3.074 1.346 4.491 2.091l6.765 3.557c1.601.842 3.192 1.705 4.804 2.526 1.928.981 3.702.607 5.499-.338l12.1-6.361c1.86-.978 3.683-1.88 5.874-1.652 3.369.35 6.369 2.888 7.012 6.269.345 1.82-.082 3.605-.389 5.397l-1.266 7.379c-.333 1.942-.686 3.883-1 5.828-.321 1.997.318 3.638 1.747 5.031l9.689 9.445c1.261 1.229 2.572 2.378 3.285 4.037 1.261 2.933.589 6.451-1.667 8.719-1.523 1.531-3.43 2.057-5.481 2.355l-6.815.99-6.746.981c-2.193.318-4.081.852-5.207 3.007C7.874-9.406 6.146-5.691 4.339-2.03L2.59 1.514C1.736 3.245-.852 1.727 0 0" clip-path="url(#u)" style="fill:#000;fill-opacity:1;fill-rule:nonzero;stroke:none" transform="matrix(1.33333 0 0 -1.33333 830.755 1120.486)"/><path d="M43.71 2.93q-15.33 0-24.797-4.429-9.457-4.439-13.77-12.434Q.83-21.935.832-32.495q0-10.791 4.184-18.41 4.192-7.628 11.601-11.649c4.946-2.677 10.63-4.02 17.051-4.02q6.608.002 11.297 1.348 4.698 1.336 7.242 4.606 2.552 3.26 2.649 9.035a14.8 14.8 0 0 0 .878-6.48 561 561 0 0 0-.632-6.668q4.016-.08 9.129-.2 5.107-.126 9.96-.293 4.861-.175 8.215-.175.585 2.602.914 6.492.34 3.894.375 8.332a125 125 0 0 1-.21 8.707q-.248 4.268-.833 7.617-2.59.423-6.527.68-3.937.247-8.508.293-4.56.035-9.047 0-4.478-.047-8.25-.293-3.761-.257-6.187-.68l-.082-3.433h-4.442v10.804h4.442v-3.937a372 372 0 0 1 19.137-.504q9.42.001 20.05.504-.42 11.475-4.57 18.972c-2.76 4.993-6.984 8.704-12.68 11.133Q57.443 2.93 43.71 2.931M83.404 1.42q-.667-1.757-1.09-4.43a40 40 0 0 1-.468-5.566 61 61 0 0 1 .176-5.567q.209-2.682.796-4.44 2.681-.585 4.149-2.474 1.463-1.885 2.133-4.605a58 58 0 0 0 1.09-5.66q.5-3.094.667-5.977.163-2.892-.632-4.898-.8-2.014-3.387-2.438-.751-1.497-1.09-4.09-.342-2.6-.293-5.578a44 44 0 0 1 .457-5.777q.421-2.812 1.266-4.816 3.42.33 8.449.62 5.028.295 13.406.294 5.694 0 12.352-.457 6.654-.457 13.687-.88 7.03-.42 13.735-.421 5.696 0 9 2.39 3.303 2.391 4.98 6.247 1.674 3.846 2.18 8.285.5 4.443.457 8.672a897 897 0 0 0-.035 7.324q0 4.935.914 7.828.924 2.884 2.472 4.312 1.547 1.421 3.317 2.098.584 1.76.785 4.441.209 2.675.164 5.567a39 39 0 0 1-.457 5.566q-.412 2.673-1.078 4.43-3.436-.33-8.25-.832-4.816-.505-11.602-.504-6.952 0-13.113.504-6.154.501-9.586.832-.33-1.757-.586-4.43a87 87 0 0 1-.328-5.566 93 93 0 0 1 0-5.567q.08-2.682.328-4.44h2.344v-4.196h-7.277v4.195h2.343q.326 1.76.457 4.441.127 2.675.047 5.567a85 85 0 0 1-.34 5.566q-.248 2.673-.75 4.43-2.263-.248-4.816-.54a152 152 0 0 0-5.953-.55q-3.389-.246-8.32-.246-7.796 0-13.407.457-5.615.466-9.293.879m40.618-36.504h6.023v-3.937h-6.023zM176.606 1.42q-.75-1.757-1.171-4.43a43.5 43.5 0 0 1-.504-5.566 40 40 0 0 1 .21-5.567q.29-2.682.88-4.44 1.253-.503 2.46-1.724 1.218-1.217 2.051-3.937.844-2.715.844-7.664-.002-5.353-.96-8.074-.963-2.716-2.263-3.68-1.302-.972-2.297-.973-.764-1.497-1.101-4.09a41 41 0 0 1-.293-5.578q.046-2.974.469-5.777.42-2.812 1.254-4.816 6.195.247 11.18.082a299 299 0 0 0 9.96-.493q4.99-.338 10.887-.632 5.905-.292 13.945-.293 11.813.001 20.145 2.05 8.33 2.053 12.773 7.243 4.44 5.194 4.348 14.73 0 4.865-1.547 8.754-1.548 3.894-4.477 6.574 1.674 3.355 3.844 5.367 2.18 2.006 4.113 2.93.583 1.76.786 4.441.209 2.675.164 5.567a39 39 0 0 1-.457 5.566q-.412 2.673-1.078 4.43a602 602 0 0 0-4.16-.54q-2.3-.294-5.485-.55-3.178-.246-7.863-.246-6.284 0-10.348.246-4.057.256-6.773.55-2.72.293-4.899.54.913-6.773.867-11.883-.035-5.106-1.464-8.965-1.42-3.853-4.852-6.867v7.711l3.023.082q.748 2.848.868 6.574a53 53 0 0 1-.246 7.29q-.378 3.55-1.208 5.976-3.527-.33-9.222-.832Q203.323 0 196.622.084q-5.862.08-11.226.54-5.357.466-8.79.796m38.86-36.668h5.11v-5.789h-5.11zm91.526 37.266q-6.704 0-11.73-.211-5.03-.211-9.469-.422c-2.953-.14-6.023-.229-9.21-.258q-4.773-.035-10.958.211-.68-1.758-1.102-4.395a40 40 0 0 1-.457-5.566q-.036-2.928.165-5.566.21-2.637.808-4.395a6.35 6.35 0 0 0 3.012-1.887q1.253-1.38 1.922-4.312.668-2.928.668-7.957-.001-4.769-.797-7.278-.786-2.517-2.051-3.527-1.256-1.007-2.754-1.254-.844-2.426-1.183-6.152a41 41 0 0 1 .046-7.617q.375-3.902 1.465-6.668 5.355.505 10.172.504 4.816 0 9.926-.211 5.107-.21 11.133-.41 6.032-.211 13.828-.211 17.753.001 27.164 7.37 9.422 7.362 9.422 23.614-.001 5.44-.961 10.758a34 34 0 0 1-3.434 9.972q-2.474 4.642-6.996 8.204-4.513 3.551-11.508 5.613-6.995 2.049-17.12 2.05m-3.773-28.899h5.11v-10.804h-5.11zm0 0" aria-label="CARD" style="fill:#feffff;fill-opacity:1;fill-rule:nonzero;stroke:none" transform="translate(321.943 1134.409)scale(1.33333)"/><path d="M0 0q8.541 3.643 12.686 11.137t4.564 18.967q-10.635.502-20.056.502-9.42 0-19.134-.502v-3.936h-4.438v10.803h4.438l.084-3.434q2.429-.419 6.197-.67 3.768-.25 8.248-.293t9.044 0q4.562.042 8.499.293 3.935.251 6.532.67.585 3.35.837 7.62.25 4.27.209 8.709a110 110 0 0 1-.377 8.332q-.335 3.894-.92 6.49-3.351 0-8.207-.167-4.857-.168-9.965-.293a2074 2074 0 0 0-9.127-.209q.333-3.352.628-6.658a14.8 14.8 0 0 0-.88-6.49q-.084 5.777-2.637 9.044-2.556 3.265-7.244 4.606-4.69 1.338-11.304 1.339-9.631 0-17.041-4.019-7.412-4.02-11.598-11.64t-4.187-18.423q0-10.55 4.313-18.548 4.31-7.997 13.774-12.435 9.463-4.437 24.787-4.438Q-8.542-3.643 0 0z" clip-path="url(#v)" style="fill:none;stroke:#000;stroke-width:3;stroke-linecap:butt;stroke-linejoin:miter;stroke-miterlimit:10;stroke-dasharray:none;stroke-opacity:1" transform="matrix(1.33333 0 0 -1.33333 409.925 1133.46)"/><path d="M0 0q5.61.46 13.398.46 4.94 0 8.332-.251a148 148 0 0 0 5.945-.544q2.554-.293 4.815-.545.503 1.758.754 4.439.252 2.679.335 5.568a74 74 0 0 1-.042 5.568q-.126 2.68-.46 4.439h-2.345v4.187h7.285v-4.187h-2.345q-.25-1.759-.335-4.439a92 92 0 0 1 0-5.568 87 87 0 0 1 .335-5.568q.251-2.68.587-4.439 3.433.336 9.588.838T58.952.46q6.782 0 11.598-.502 4.813-.502 8.248-.838.668 1.758 1.089 4.439.417 2.679.46 5.568a61 61 0 0 1-.167 5.568q-.21 2.68-.796 4.439-1.758.668-3.308 2.094-1.55 1.422-2.47 4.312-.922 2.888-.921 7.829 0 3.099.042 7.327a71 71 0 0 1-.461 8.667q-.503 4.438-2.177 8.29-1.675 3.852-4.983 6.24-3.308 2.386-9.002 2.386-6.699 0-13.732-.419-7.034-.42-13.692-.88-6.657-.459-12.351-.459-8.375-.001-13.398.292-5.025.294-8.458.628-.837-2.01-1.256-4.814a43 43 0 0 1-.461-5.778q-.042-2.974.293-5.569.335-2.596 1.089-4.103 2.595-.42 3.391-2.429t.629-4.898a59 59 0 0 0-.67-5.988 58 58 0 0 0-1.089-5.652q-.67-2.721-2.135-4.606c-.978-1.255-2.359-2.081-4.145-2.47q-.587-1.759-.796-4.439a60 60 0 0 1-.167-5.568q.04-2.889.46-5.568.418-2.68 1.089-4.439Q-5.611-.46 0 0Zm31.318 39.566h6.029V35.63h-6.029z" clip-path="url(#w)" style="fill:none;stroke:#000;stroke-width:3;stroke-linecap:butt;stroke-linejoin:miter;stroke-miterlimit:10;stroke-dasharray:none;stroke-opacity:1" transform="matrix(1.33333 0 0 -1.33333 445.54 1135.134)"/><path d="M0 0q5.359.462 11.221.544 6.698.085 12.393-.418 5.694-.502 9.212-.838.837 2.427 1.214 5.987.377 3.558.251 7.286-.125 3.724-.879 6.573l-3.015.084v7.704q3.433-3.016 4.857-6.866 1.422-3.854 1.465-8.96.042-5.109-.879-11.892 2.177.252 4.899.545 2.72.294 6.783.544 4.061.252 10.341.251 4.689 0 7.872-.251 3.181-.25 5.485-.544 2.301-.293 4.145-.545.668 1.758 1.089 4.439.417 2.679.46 5.568a61 61 0 0 1-.167 5.568q-.211 2.68-.796 4.439-1.927.921-4.103 2.93-2.178 2.01-3.852 5.36 2.93 2.679 4.48 6.573 1.549 3.895 1.549 8.751.083 9.546-4.355 14.738-4.438 5.191-12.77 7.243t-20.139 2.052q-8.039 0-13.942-.293a634 634 0 0 1-10.886-.628 300 300 0 0 0-9.965-.503q-4.983-.167-11.179.084-.838-2.01-1.256-4.814a43 43 0 0 1-.461-5.778q-.042-2.974.293-5.569.335-2.596 1.089-4.103 1.005-.001 2.303-.963 1.297-.964 2.261-3.685.962-2.722.962-8.081 0-4.942-.837-7.662-.839-2.722-2.051-3.935-1.215-1.215-2.471-1.717-.587-1.759-.879-4.439a40 40 0 0 1-.209-5.568q.082-2.889.502-5.568.418-2.68 1.173-4.439Q-5.36-.46 0 0Zm30.062 41.66h5.108v-5.778h-5.108z" clip-path="url(#x)" style="fill:none;stroke:#000;stroke-width:3;stroke-linecap:butt;stroke-linejoin:miter;stroke-miterlimit:10;stroke-dasharray:none;stroke-opacity:1" transform="matrix(1.33333 0 0 -1.33333 569.137 1135.246)"/><path d="M0 0q6.992 2.05 11.514 5.61t6.992 8.206a34 34 0 0 1 3.433 9.965q.963 5.317.963 10.761 0 16.245-9.42 23.614t-27.173 7.369q-7.788 0-13.817-.209-6.03-.21-11.138-.419a243 243 0 0 0-9.922-.209q-4.817 0-10.175.502-1.089-2.762-1.465-6.657a41 41 0 0 1-.042-7.62q.335-3.726 1.172-6.155 1.507-.25 2.764-1.256 1.255-1.005 2.051-3.517.795-2.512.796-7.285 0-5.024-.67-7.955t-1.926-4.313a6.37 6.37 0 0 0-3.015-1.884q-.587-1.758-.795-4.397a60 60 0 0 1-.168-5.568q.041-2.932.461-5.568.418-2.638 1.088-4.397 6.197.252 10.97.209 4.773-.04 9.211-.251 4.438-.207 9.463-.419 5.024-.208 11.723-.209Q-6.994-2.052 0 0zm-20.893 37.641h5.108V26.838h-5.108z" clip-path="url(#y)" style="fill:none;stroke:#000;stroke-width:3;stroke-linecap:butt;stroke-linejoin:miter;stroke-miterlimit:10;stroke-dasharray:none;stroke-opacity:1" transform="matrix(1.33333 0 0 -1.33333 754.087 1134.353)"/><path d="M0 0c-22.148-12.855-50.626-5.295-63.482 16.854l-131.115 225.898c-12.855 22.148-5.295 50.626 16.854 63.482l145.697 84.565c22.149 12.856 50.627 5.295 63.483-16.853l131.115-225.899c12.855-22.148 5.295-50.626-16.854-63.482z" clip-path="url(#z)" style="fill:#feffff;fill-opacity:1;fill-rule:nonzero;stroke:none" transform="matrix(1.33333 0 0 -1.33333 532.393 933.89)"/><path d="M0 0c-14.614-8.368-32.912-7.947-47.078 1.212-6.656 4.304-11.539 10.259-15.471 17.032l-18.096 31.177-32.225 55.521-36.179 62.332-29.935 51.576c-4.498 7.75-9.029 15.482-13.495 23.251-7.144 12.425-8.11 27.691-2.29 40.842 4.195 9.479 11.363 16.535 20.221 21.676l39.846 23.127 61.405 35.641 40.749 23.651c8.359 4.852 17.33 7.709 27.111 7.159 15.052-.847 28.761-9.394 36.367-22.358 4.379-7.464 8.688-14.969 13.032-22.453l29.691-51.153 36.151-62.286 32.417-55.851 18.485-31.848c3.63-6.254 6.409-12.823 7.139-20.114 1.657-16.549-6.078-33.151-20.043-42.271-3.108-2.03-6.409-3.796-9.617-5.658l-20.862-12.108L57.25 33.229 7.673 4.454zc-1.669-.969-.16-3.562 1.514-2.59l30.315 17.595 61.097 35.462 48.444 28.117c4.415 2.563 8.871 4.996 12.799 8.306 12.587 10.606 18.753 27.482 16.368 43.71-1.708 11.622-8.63 21.556-14.41 31.515l-27.389 47.189-36.055 62.119-34.403 59.271-21.813 37.583c-1.448 2.495-2.833 5.057-4.425 7.464-9.061 13.698-24.924 21.956-41.349 21.512-9.113-.247-17.342-3.322-25.119-7.836l-16.059-9.32-57.618-33.443-55.637-32.293-13.093-7.599c-10.192-5.916-18.041-14.836-22.013-26.003-4.719-13.27-3.202-28.04 3.798-40.21 1.423-2.473 2.865-4.936 4.298-7.405l23.623-40.7 34.903-60.134 35.827-61.725 25.799-44.45 5.939-10.232c4.991-8.6 12.003-15.695 21.015-20.067 14.349-6.962 31.329-6.345 45.158 1.574C3.189-1.631 1.68.962 0 0" clip-path="url(#A)" style="fill:#000;fill-opacity:1;fill-rule:nonzero;stroke:none" transform="matrix(1.33333 0 0 -1.33333 531.384 932.163)"/><path d="m0 0-145.698-84.565c-12.918-7.499-29.47-3.104-36.968 9.814l-131.115 225.898c-7.499 12.919-3.105 29.471 9.814 36.969l145.698 84.566c12.919 7.498 29.47 3.104 36.969-9.815L9.815 36.969C17.313 24.05 12.919 7.498 0 0" clip-path="url(#B)" style="fill:#ff3342;fill-opacity:1;fill-rule:nonzero;stroke:none" transform="matrix(1.33333 0 0 -1.33333 713.674 798.768)"/><path d="m0 0-26.578-15.426-55.815-32.397-50.372-29.236-11.957-6.94c-2.344-1.361-4.754-2.521-7.398-3.209-7.412-1.928-15.464-.33-21.624 4.208-3.883 2.86-6.278 6.691-8.625 10.735l-6.904 11.895-25.069 43.19-66.175 114.013-24.012 41.371-6.103 10.515c-3.425 5.901-5.431 12.284-4.155 19.203 1.365 7.405 5.867 13.78 12.338 17.606.688.407 1.383.802 2.074 1.204l13.954 8.099 52.19 30.292 54.711 31.755 17.48 10.146c4.061 2.357 7.977 4.898 12.639 5.934 11.092 2.467 22.202-2.942 27.833-12.609 1.487-2.553 2.966-5.11 4.449-7.665l21.799-37.558 32.148-55.388 33.693-58.049 27.056-46.615c3.889-6.7 7.825-13.374 11.667-20.102C16.212 22.772 12.089 7.164 0 0c-1.66-.984-.152-3.578 1.514-2.59 13.461 7.977 18.101 25.426 10.35 39.026-1.008 1.769-2.045 3.523-3.067 5.284l-20.275 34.932-31.764 54.726-34.415 59.294-28.115 48.439c-4.435 7.641-8.852 15.294-13.306 22.924-6.135 10.512-18.152 16.237-30.186 14.007-5.137-.952-9.387-3.582-13.8-6.144l-43.195-25.07-58.278-33.826-37.589-21.817c-.901-.524-1.816-1.032-2.699-1.588-6.528-4.114-11.235-10.844-12.766-18.419-1.553-7.68.305-14.972 4.16-21.614l16.185-27.884 29.803-51.348 34.41-59.285 30.571-52.672 17.724-30.536c2.692-4.638 5.703-8.885 10.252-11.974 9.412-6.39 21.392-6.193 31.065-.578l33.762 19.596 58.163 33.759L-5.509-6.667 1.514-2.59C3.183-1.622 1.675.972 0 0" clip-path="url(#C)" style="fill:#000;fill-opacity:1;fill-rule:nonzero;stroke:none" transform="matrix(1.33333 0 0 -1.33333 712.665 797.041)"/><path d="M0 0c11.661-80.51-18.639-151.534-67.677-158.637-49.038-7.102-98.244 52.406-109.905 132.916s18.639 151.535 67.677 158.637S-11.661 80.51 0 0" clip-path="url(#D)" style="fill:#feffff;fill-opacity:1;fill-rule:nonzero;stroke:none" transform="matrix(1.33333 0 0 -1.33333 628.91 654.574)"/><path d="M0 0c4.106-28.554 3.401-58.257-4.218-86.182-5.88-21.55-16.22-43.355-33.848-57.747-7.373-6.019-16.058-10.403-25.405-12.312-9.272-1.893-18.887-1.193-27.904 1.591-21.065 6.504-37.862 23.103-50.133 40.832-16.036 23.167-26.036 50.294-31.324 77.853-5.531 28.826-6.098 59.039.074 87.814 4.845 22.587 14.013 45.641 30.645 62.196 6.867 6.836 15.083 12.409 24.311 15.503a55 55 0 0 0 27.642 1.881c21.114-3.986 38.567-18.757 51.559-35.189 17.07-21.592 28.04-47.836 34.426-74.452A245 245 0 0 0 0 0c.278-1.903 3.169-1.094 2.893.798-4.234 29.022-13.486 57.77-29.007 82.781-12.092 19.484-28.678 37.812-50.227 46.797-9.065 3.779-18.969 5.643-28.788 4.819s-19.259-4.194-27.5-9.575c-19.035-12.427-30.922-33.483-38.004-54.569-9.173-27.309-11.169-56.936-8.333-85.481 2.959-29.78 11.129-59.4 25.529-85.728 11.341-20.734 27.179-40.657 48.357-51.959 8.816-4.704 18.548-7.74 28.568-8.149 9.801-.4 19.576 1.81 28.334 6.201 19.779 9.917 32.863 29.571 40.963 49.547C3.279-78.638 6.539-49.952 5.152-22.207 4.767-14.506 3.99-6.833 2.893.798 2.619 2.701-.272 1.891 0 0" clip-path="url(#E)" style="fill:#000;fill-opacity:1;fill-rule:nonzero;stroke:none" transform="matrix(1.33333 0 0 -1.33333 626.982 655.105)"/><path d="M0 0c-3.125 5.539-10.148 7.495-15.687 4.371-3.526-1.99-5.592-5.56-5.828-9.32-3.34 1.743-7.464 1.82-10.99-.169-5.539-3.125-7.496-10.148-4.371-15.687 2.788-4.941 9.288-6.44 14.5-6.913 1.59-.144 14.599-2.297 14.719-2.01 2.094 5 4.621 9.813 6.547 14.886C.693-10.091 2.696-4.779 0 0" clip-path="url(#F)" style="fill:#ff8fdd;fill-opacity:1;fill-rule:nonzero;stroke:none" transform="matrix(1.33333 0 0 -1.33333 364.583 561.866)"/><path d="M0 0a13.2 13.2 0 0 1-13.692 6.378C-19.634 5.347-23.848.179-24.31-5.706l2.257 1.295c-7.068 3.532-15.698.281-18.38-7.224-1.131-3.164-.899-6.709.493-9.748 1.449-3.167 4.214-5.306 7.372-6.617 2.919-1.212 6.002-1.659 9.122-1.999.073-.008.518-.068.171-.022q.264-.035.527-.074.709-.103 1.418-.21 1.804-.272 3.609-.547c2.361-.359 4.723-.727 7.094-1.018.585-.072 1.218-.203 1.808-.111.596.093.956.395 1.238.918.551 1.018.937 2.169 1.416 3.225 2.105 4.649 4.311 9.241 6.029 14.053C1.482-9.25 2.378-4.441 0 0c-.912 1.703-3.503.189-2.59-1.514 1.824-3.407 1.025-7.172-.153-10.654-1.249-3.689-2.829-7.245-4.46-10.777-.844-1.828-1.695-3.654-2.497-5.501-.041-.095-.532-1.205-.518-1.213.148-.074.927.763 1.099.647-.104.07-.485.03-.612.041-1.711.156-3.414.445-5.112.698-3.79.566-7.626.987-11.401 1.624-2.89.487-5.9 1.318-8.261 3.131-2.254 1.731-3.573 4.465-3.649 7.295-.202 7.527 7.85 12.588 14.587 9.221 1.062-.53 2.166.13 2.257 1.296.361 4.602 3.843 8.447 8.416 9.191 4.146.675 8.213-1.42 10.304-4.999C-1.617-3.18.977-1.672 0 0" clip-path="url(#G)" style="fill:#000;fill-opacity:1;fill-rule:nonzero;stroke:none" transform="matrix(1.33333 0 0 -1.33333 366.31 560.857)"/><path d="M0 0c-3.125 5.539-10.148 7.495-15.687 4.371-3.526-1.99-5.592-5.56-5.828-9.32-3.34 1.743-7.464 1.82-10.99-.169-5.539-3.125-7.496-10.148-4.371-15.687 2.788-4.941 9.288-6.44 14.5-6.913 1.59-.144 14.6-2.297 14.719-2.01 2.094 5 4.621 9.813 6.547 14.886C.693-10.091 2.697-4.779 0 0" clip-path="url(#H)" style="fill:#ff3342;fill-opacity:1;fill-rule:nonzero;stroke:none" transform="matrix(1.33333 0 0 -1.33333 703.805 746.684)"/><path d="M0 0a13.2 13.2 0 0 1-13.692 6.378C-19.634 5.347-23.848.179-24.31-5.706l2.257 1.295c-7.068 3.532-15.698.281-18.38-7.224-1.131-3.164-.899-6.709.493-9.748 1.449-3.167 4.214-5.306 7.372-6.617 2.919-1.212 6.002-1.66 9.122-1.999.073-.008.518-.068.171-.021l.527-.075q.709-.103 1.418-.21 1.804-.272 3.609-.547c2.361-.359 4.723-.727 7.094-1.018.585-.072 1.218-.203 1.808-.111.596.093.956.395 1.238.918.551 1.018.937 2.169 1.416 3.225 2.105 4.649 4.311 9.241 6.029 14.053C1.482-9.25 2.378-4.441 0 0c-.912 1.703-3.503.189-2.59-1.514 1.824-3.407 1.025-7.172-.153-10.654-1.249-3.689-2.829-7.245-4.46-10.777-.844-1.828-1.695-3.654-2.497-5.501-.041-.095-.532-1.205-.518-1.213.148-.074.927.763 1.099.647-.104.07-.485.029-.612.041-1.711.156-3.414.445-5.112.698-3.79.566-7.626.987-11.401 1.624-2.89.487-5.9 1.318-8.261 3.131-2.254 1.731-3.573 4.465-3.649 7.295-.202 7.527 7.85 12.588 14.587 9.221 1.062-.53 2.166.13 2.257 1.296.361 4.602 3.843 8.447 8.416 9.191 4.146.675 8.213-1.42 10.304-4.999C-1.617-3.18.977-1.672 0 0" clip-path="url(#I)" style="fill:#000;fill-opacity:1;fill-rule:nonzero;stroke:none" transform="matrix(1.33333 0 0 -1.33333 705.532 745.675)"/><path d="m0 0 131.115 225.898c12.876 22.184 5.33 50.606-16.854 63.482l-145.697 84.565c-22.184 12.876-50.607 5.331-63.483-16.854l-131.114-225.897c-12.876-22.184-5.331-50.606 16.854-63.482l145.697-84.566C-41.298-29.73-12.876-22.184 0 0" clip-path="url(#J)" style="fill:#feffff;fill-opacity:1;fill-rule:nonzero;stroke:none" transform="matrix(1.33333 0 0 -1.33333 960.917 908.288)"/><path d="m0 0 12.332 21.247 29.683 51.141 36.698 63.227 32.755 56.432 18.487 31.853c3.86 6.65 6.637 13.657 7.415 21.386 1.65 16.376-5.59 32.847-18.658 42.808-3.643 2.777-7.763 4.948-11.719 7.244l-20.285 11.774-60.77 35.272-50.239 29.16c-3.339 1.938-6.641 4.022-10.09 5.764-14.674 7.409-32.537 6.735-46.591-1.816-7.459-4.538-13.091-10.967-17.435-18.451l-6.424-11.067-26.429-45.534-36.01-62.042-34.638-59.678-22.985-39.601c-1.234-2.126-2.478-4.246-3.702-6.378-7.682-13.381-8.545-29.691-2.265-43.792 4.369-9.809 11.895-17.281 21.087-22.616l14.27-8.283 56.624-32.865L-82.14-7.753l14.925-8.663c8.832-5.126 18.511-8.05 28.814-7.36C-22.491-22.711-8.074-13.726 0 0c.981 1.668-1.611 3.179-2.59 1.514-8.547-14.528-24.622-23.26-41.487-22.323-8.36.465-15.758 3.578-22.87 7.707l-42.975 24.943-61.32 35.591-37.504 21.768c-9.989 5.798-17.669 14.607-21.209 25.702-3.919 12.279-2.307 25.522 4.125 36.643 4.866 8.411 9.755 16.807 14.633 25.21l30.527 52.595 36.225 62.413 31.727 54.661 17.031 29.344c4.712 8.117 11.135 14.776 19.606 19.006 13.5 6.743 29.641 6.074 42.676-1.416 10.67-6.13 21.286-12.354 31.928-18.531l60.709-35.236 47.278-27.441c4.611-2.677 9.276-5.205 13.265-8.811 12.215-11.04 17.506-28.374 13.471-44.348-1.354-5.365-3.859-10.094-6.599-14.814l-7.492-12.908-27.652-47.642-35.875-61.809-33.741-58.132L.387 6.644l-2.977-5.13C-3.561-.159-.97-1.671 0 0" clip-path="url(#K)" style="fill:#000;fill-opacity:1;fill-rule:nonzero;stroke:none" transform="matrix(1.33333 0 0 -1.33333 962.644 909.297)"/><path d="m0 0 145.698-84.565c12.918-7.499 29.47-3.104 36.968 9.814l131.115 225.898c7.499 12.919 3.104 29.471-9.814 36.969l-145.698 84.566c-12.919 7.498-29.47 3.104-36.969-9.815L-9.815 36.969C-17.313 24.05-12.919 7.498 0 0" clip-path="url(#L)" style="fill:#0aff9f;fill-opacity:1;fill-rule:nonzero;stroke:none" transform="matrix(1.33333 0 0 -1.33333 694.994 795.638)"/><path d="m0 0 27.069-15.711L83.923-48.71l50.11-29.085c3.697-2.146 7.391-4.295 11.089-6.437 10.183-5.897 22.897-5.527 32.334 1.749 3.956 3.051 6.527 7.003 8.972 11.216l6.855 11.81 25.482 43.902a1742387 1742387 0 0 0 66.938 115.328l23.699 40.831 5.67 9.77c4.127 7.11 5.82 15.133 3.601 23.21-1.981 7.214-6.775 13.328-13.196 17.125-.715.422-1.437.834-2.155 1.251l-14.279 8.288-53.017 30.771-55.076 31.968-16.839 9.773c-4.811 2.793-9.447 5.433-15.139 6.148-11.552 1.451-22.638-4.433-28.444-14.393-1.476-2.531-2.942-5.068-4.413-7.602l-22.166-38.191-32.567-56.109-33.967-58.521L.498 57.717C-3.2 51.344-7.026 45.028-10.601 38.584-18.102 25.066-13.232 7.842 0 0c1.665-.987 3.176 1.606 1.514 2.59-12.125 7.187-16.199 22.81-9.213 35.026 1.196 2.091 2.418 4.167 3.627 6.249l20.649 35.577 31.657 54.541 33.864 58.344 27.893 48.057c4.387 7.558 8.758 15.125 13.16 22.674 5.974 10.242 18.134 15.44 29.622 12.007 4.009-1.197 7.628-3.621 11.227-5.71l43.724-25.378 57.643-33.457 36.834-21.379c.877-.509 1.766-1.003 2.624-1.544 6.557-4.132 10.991-11.277 11.747-18.999.533-5.441-.693-10.791-3.402-15.524-.387-.677-.783-1.349-1.174-2.024l-16.841-29.015-29.653-51.089-34.243-58.996-30.005-51.696-17.506-30.161c-2.624-4.521-5.473-8.683-10.051-11.563-6.513-4.096-14.624-5.061-21.911-2.595-2.053.694-3.927 1.714-5.788 2.795L111.074-61l-57.74 33.513L8.395-1.404 1.514 2.59C-.159 3.561-1.671.97 0 0" clip-path="url(#M)" style="fill:#000;fill-opacity:1;fill-rule:nonzero;stroke:none" transform="matrix(1.33333 0 0 -1.33333 693.985 797.365)"/><path d="M0 0c-11.661-80.51 18.639-151.534 67.677-158.637 49.038-7.102 98.244 52.406 109.905 132.916s-18.639 151.534-67.677 158.637S11.661 80.51 0 0" clip-path="url(#N)" style="fill:#feffff;fill-opacity:1;fill-rule:nonzero;stroke:none" transform="matrix(1.33333 0 0 -1.33333 779.757 651.443)"/><path d="M0 0c-4.185-29.106-3.548-59.3 4.218-87.777 6.025-22.091 16.721-44.591 34.866-59.271 7.677-6.211 16.625-10.843 26.333-12.853 9.636-1.995 19.64-1.428 29.057 1.381 21.728 6.482 39.063 23.26 51.827 41.4 16.528 23.49 26.853 51.237 32.27 79.317 5.683 29.453 6.28 60.245-.027 89.652-4.971 23.177-14.515 46.836-31.648 63.749-7.122 7.031-15.613 12.706-25.117 15.948-9.288 3.17-19.279 3.808-28.925 2.088-21.69-3.867-39.876-18.952-53.239-35.765C22.273 76.051 10.984 49.673 4.402 22.727A244 244 0 0 1 0 0c-.275-1.888 2.615-2.704 2.893-.798 4.159 28.516 13.137 56.715 28.269 81.36 11.679 19.02 27.726 37.106 48.644 46.027 8.74 3.728 18.264 5.563 27.762 4.845 9.451-.715 18.526-4.034 26.44-9.202 18.461-12.053 29.944-32.713 36.753-53.158 8.907-26.747 10.86-55.619 8.17-83.564-2.812-29.205-10.79-58.331-24.784-84.202-10.998-20.333-26.258-39.862-46.828-51.166-8.481-4.66-17.905-7.745-27.612-8.193a55 55 0 0 0-27.122 5.778c-19.181 9.618-31.919 28.709-39.73 48.116C2.563-78.586-.628-50.392.741-23.004A240 240 0 0 0 2.893-.798C3.164 1.091.274 1.906 0 0" clip-path="url(#O)" style="fill:#000;fill-opacity:1;fill-rule:nonzero;stroke:none" transform="matrix(1.33333 0 0 -1.33333 777.829 650.912)"/><path d="M0 0c3.125 5.539 10.148 7.495 15.687 4.371 3.526-1.99 5.592-5.56 5.828-9.32 3.34 1.743 7.464 1.82 10.99-.169 5.539-3.125 7.496-10.148 4.371-15.687-2.788-4.941-9.288-6.44-14.5-6.913-1.59-.144-14.599-2.297-14.719-2.01-2.094 5-4.621 9.813-6.547 14.886C-.693-10.091-2.696-4.779 0 0" clip-path="url(#P)" style="fill:#6842d5;fill-opacity:1;fill-rule:nonzero;stroke:none" transform="matrix(1.33333 0 0 -1.33333 1044.085 558.736)"/><path d="M0 0c2.091 3.58 6.157 5.674 10.304 5 4.573-.744 8.054-4.591 8.415-9.192.092-1.166 1.196-1.826 2.257-1.295 5.975 2.986 13.239-.603 14.445-7.168.498-2.711-.205-5.734-1.974-7.869-1.857-2.241-4.666-3.415-7.421-4.115-3.86-.98-8.012-1.248-11.952-1.846-1.981-.3-3.962-.613-5.951-.86-.408-.051-1.195.028-1.561-.152-.024-.012.408-.173.648-.346.815-.588.177.268-.009.698a154 154 0 0 1-1.324 2.97C4.051-20.176 2.175-16.214.659-12.083-.761-8.212-2.08-3.884 0 0c.911 1.702-1.678 3.219-2.59 1.514-2.107-3.934-1.677-8.229-.355-12.347 1.358-4.23 3.204-8.295 5.065-12.323.952-2.061 1.826-4.163 2.795-6.214.436-.923 1.09-1.171 2.048-1.103 2.078.148 4.158.533 6.217.841 2.299.343 4.595.707 6.895 1.039l.609.087c-.274-.037.005.002.124.015.524.059 1.049.104 1.572.168 1.725.21 3.443.498 5.117.972 3.251.921 6.415 2.525 8.507 5.252 2.08 2.709 2.895 6.234 2.414 9.594-.541 3.77-2.772 7.151-5.998 9.169-3.953 2.471-8.84 2.497-12.958.439l2.257-1.295c-.461 5.885-4.675 11.053-10.617 12.084A13.2 13.2 0 0 1-2.59 1.514C-3.566-.156-.974-1.668 0 0" clip-path="url(#Q)" style="fill:#000;fill-opacity:1;fill-rule:nonzero;stroke:none" transform="matrix(1.33333 0 0 -1.33333 1045.812 559.745)"/><path d="M0 0c3.125 5.539 10.148 7.495 15.687 4.371 3.526-1.99 5.592-5.56 5.828-9.32 3.34 1.743 7.464 1.82 10.99-.169 5.539-3.125 7.496-10.148 4.371-15.687-2.788-4.941-9.288-6.44-14.5-6.913-1.59-.144-14.6-2.297-14.719-2.01-2.094 5-4.621 9.813-6.547 14.886C-.693-10.091-2.696-4.779 0 0" clip-path="url(#R)" style="fill:#ff3342;fill-opacity:1;fill-rule:nonzero;stroke:none" transform="matrix(1.33333 0 0 -1.33333 704.863 743.554)"/><path d="M0 0c2.091 3.58 6.157 5.674 10.304 5 4.573-.744 8.054-4.591 8.415-9.192.092-1.166 1.196-1.826 2.257-1.295 5.975 2.986 13.239-.603 14.445-7.168.498-2.711-.205-5.734-1.974-7.869-1.857-2.241-4.666-3.415-7.421-4.115-3.86-.98-8.012-1.248-11.952-1.846-1.981-.3-3.963-.613-5.951-.86-.408-.051-1.195.028-1.561-.152-.024-.012.408-.173.648-.346.815-.588.177.268-.009.698a154 154 0 0 1-1.324 2.97C4.051-20.176 2.175-16.214.659-12.083-.761-8.212-2.08-3.884 0 0c.911 1.702-1.678 3.219-2.59 1.514-2.107-3.934-1.677-8.229-.355-12.347 1.358-4.23 3.204-8.295 5.065-12.323.952-2.061 1.826-4.163 2.795-6.214.436-.923 1.09-1.171 2.048-1.103 2.078.148 4.158.533 6.217.841 2.299.343 4.595.707 6.895 1.039l.609.087c-.274-.037.005.002.124.015.524.059 1.049.104 1.572.168 1.725.21 3.443.498 5.117.972 3.251.921 6.415 2.525 8.507 5.252 2.08 2.709 2.895 6.234 2.414 9.594-.541 3.77-2.772 7.151-5.998 9.169-3.953 2.471-8.84 2.497-12.958.439l2.257-1.295c-.461 5.885-4.675 11.053-10.617 12.084A13.2 13.2 0 0 1-2.59 1.514C-3.566-.156-.974-1.668 0 0" clip-path="url(#S)" style="fill:#000;fill-opacity:1;fill-rule:nonzero;stroke:none" transform="matrix(1.33333 0 0 -1.33333 706.59 744.563)"/><path d="m0 0-77.704-32.971q-6.328-2.685-9.015 3.644l-9.025 21.271q-2.686 6.33 3.643 9.015l19.69 8.354-24.915 58.718-16.173-6.862q-6.329-2.686-9.014 3.644l-9.026 21.271q-2.685 6.33 3.643 9.015l50.983 21.631q6.329 2.686 9.014-3.643l36.626-86.318 16.877 7.161q6.328 2.686 9.014-3.644L3.643 9.015Q6.329 2.685 0 0" clip-path="url(#T)" style="fill:#ff8fdd;fill-opacity:1;fill-rule:nonzero;stroke:none" transform="matrix(1.33333 0 0 -1.33333 618.548 722.227)"/><path d="m0 0 26.087-61.479L5.016-70.42c-1.72-.729-2.821-1.664-3.27-2.777-.451-1.114-.309-2.55.421-4.271l9.026-21.271c1.472-3.469 3.582-4.319 7.048-2.849l77.704 32.971c1.72.73 2.821 1.664 3.27 2.777.45 1.113.308 2.55-.422 4.271l-9.025 21.271c-1.472 3.468-3.58 4.319-7.048 2.849l-18.258-7.747-37.211 87.699c-1.472 3.468-3.579 4.32-7.047 2.849L-30.779 23.72c-1.72-.73-2.82-1.665-3.27-2.778s-.308-2.55.422-4.27L-24.602-4.6c.73-1.72 1.665-2.82 2.778-3.27s2.549-.308 4.27.422zm15.382-105.262c-3.049 0-5.452 1.819-6.951 5.351L-.594-78.64c-1.052 2.48-1.201 4.689-.442 6.567s2.401 3.363 4.88 4.415l18.309 7.768L-1.59-3.934l-14.792-6.276c-2.48-1.053-4.69-1.2-6.566-.442-1.878.759-3.364 2.401-4.415 4.881L-36.389 15.5c-1.052 2.479-1.201 4.688-.442 6.566s2.401 3.364 4.88 4.415l50.983 21.632c4.972 2.111 8.871.533 10.981-4.438l36.039-84.938 15.496 6.575c4.973 2.11 8.871.533 10.981-4.438l9.026-21.271c1.052-2.48 1.2-4.689.442-6.567-.759-1.877-2.401-3.363-4.88-4.415L19.413-104.35c-1.439-.61-2.789-.912-4.031-.912" clip-path="url(#U)" style="fill:#000;fill-opacity:1;fill-rule:nonzero;stroke:none" transform="matrix(1.33333 0 0 -1.33333 489.84 628.896)"/><path d="m0 0 44.577-17.621q4.262-1.685 6.138-.578 1.874 1.108 2.718 3.238l1.895 4.796c.562 1.42.624 2.798.196 4.132q-.648 2-4.909 3.685L20.423 9.587q-6.395 2.526-3.866 8.922l7.511 19.002q2.528 6.394 8.921 3.867l18.648-7.371q4.262-1.686 6.137-.579 1.873 1.106 2.718 3.239l1.053 2.663q.84 2.132.231 4.222-.611 2.09-4.874 3.775L23.869 60.385q-6.395 2.526-3.867 8.921l8.354 21.133q2.528 6.394 8.921 3.867l49.551-19.587c9.826-3.884 16.236-9.056 19.231-15.508q4.49-9.68-.144-21.403l-4.071-10.301q-2.671-6.75-6.943-10.808-4.276-4.062-11.118-4.23 12.045-6.409 14.44-14.64 2.39-8.237-2.242-19.957l-7.02-17.761q-5.408-13.676-17.232-18.139-11.827-4.463-28.876 2.277l-56.122 22.184q-6.393 2.529-3.866 8.921l8.214 20.78Q-6.394 2.527 0 0" clip-path="url(#V)" style="fill:#ff8fdd;fill-opacity:1;fill-rule:nonzero;stroke:none" transform="matrix(1.33333 0 0 -1.33333 820.999 678.972)"/><path d="M0 0c-1.918 0-3.239-1.178-4.213-3.643l-8.214-20.779c-.687-1.738-.793-3.178-.316-4.279.478-1.102 1.601-2.009 3.339-2.695l56.121-22.186c10.955-4.33 20.307-5.092 27.795-2.268 7.435 2.807 12.942 8.623 16.367 17.287l7.02 17.761c2.949 7.458 3.687 13.846 2.197 18.988-1.472 5.058-6.083 9.679-13.704 13.733l-5.043 2.684 5.71.14c4.215.104 7.526 1.353 10.122 3.819 2.678 2.545 4.893 6.001 6.581 10.271l4.071 10.301c2.917 7.381 2.978 14.184.178 20.221-2.814 6.064-9.012 11.025-18.421 14.744L40.039 93.686c-1.737.686-3.178.793-4.279.315-1.102-.477-2.009-1.6-2.696-3.338L24.71 69.529c-.687-1.738-.793-3.178-.315-4.279.477-1.102 1.601-2.008 3.338-2.695l33.034-13.058c3.326-1.315 5.211-2.869 5.762-4.748.5-1.72.407-3.466-.276-5.195L65.2 36.891c-.684-1.731-1.81-3.069-3.349-3.979-1.689-.997-4.127-.841-7.453.475l-18.647 7.371c-1.738.687-3.177.792-4.279.315s-2.009-1.601-2.696-3.339l-7.511-19.002c-.688-1.738-.794-3.178-.317-4.28.478-1.101 1.601-2.008 3.339-2.695L54.479-.178c3.307-1.307 5.199-2.817 5.784-4.616.539-1.677.462-3.407-.227-5.148l-1.895-4.795c-.684-1.729-1.81-3.067-3.349-3.978-1.69-.996-4.126-.841-7.453.474L2.762-.62C1.723-.209.808 0 0 0m64.812-60.519c-5.788 0-12.207 1.384-19.198 4.148l-56.121 22.184c-2.505.99-4.183 2.434-4.989 4.293-.805 1.858-.711 4.07.279 6.575L-7.003-2.54c1.985 5.021 5.844 6.694 10.867 4.71l44.577-17.621c3.231-1.276 4.451-.902 4.825-.681.963.57 1.646 1.388 2.085 2.498l1.895 4.795c.433 1.094.486 2.115.163 3.122-.129.395-.783 1.465-4.033 2.749L23.185 8.967c-2.505.99-4.184 2.434-4.989 4.292-.805 1.859-.712 4.071.279 6.576l7.511 19.002c.99 2.505 2.434 4.183 4.292 4.989 1.858.805 4.071.713 6.576-.278l18.647-7.371c3.231-1.278 4.45-.903 4.825-.682.963.569 1.645 1.387 2.084 2.498l1.053 2.663c.438 1.111.499 2.175.186 3.252-.121.413-.754 1.521-3.985 2.799L26.631 59.765c-2.505.989-4.184 2.434-4.989 4.291-.805 1.859-.712 4.07.278 6.576l8.354 21.134c.99 2.505 2.434 4.183 4.293 4.988s4.07.711 6.575-.278l49.55-19.587c10.149-4.012 16.891-9.486 20.04-16.272 3.16-6.812 3.122-14.411-.109-22.586l-4.071-10.301c-1.85-4.678-4.307-8.494-7.304-11.343-2.105-1.999-4.648-3.361-7.595-4.072 6.095-3.93 9.896-8.389 11.324-13.292 1.68-5.796.911-12.837-2.288-20.927l-7.02-17.762c-3.749-9.482-9.838-15.872-18.098-18.99-3.291-1.242-6.884-1.863-10.759-1.863" clip-path="url(#W)" style="fill:#000;fill-opacity:1;fill-rule:nonzero;stroke:none" transform="matrix(1.33333 0 0 -1.33333 816.582 680.005)"/><path d="M0 0c-25.607-.313-46.695 20.265-47.008 45.872l-3.193 261.172c-.313 25.607 20.265 46.695 45.872 47.008l168.449 2.06c25.607.313 46.695-20.266 47.008-45.873l3.193-261.172c.313-25.607-20.265-46.694-45.873-47.008Z" clip-path="url(#X)" style="fill:#feffff;fill-opacity:1;fill-rule:nonzero;stroke:none" transform="matrix(1.33333 0 0 -1.33333 602.647 854.424)"/><path d="M0 0c-16.7-.115-32.335 9.082-40.238 23.828-3.791 7.072-5.199 14.746-5.296 22.678l-.16 13.076-.276 22.638-.366 29.863-.418 34.262-.446 36.437-.437 35.721-.401 32.796-.33 27.015-.231 18.941c-.034 2.718-.076 5.436-.1 8.155-.126 14.263 6.466 27.99 17.903 36.596 8.305 6.249 18.053 8.943 28.328 9.069l16.695.204 29.229.357 35.372.433 35.714.436 47.235.578c1.115.014 2.23.04 3.345.03a44.94 44.94 0 0 0 23.349-6.821c12.93-8.078 20.912-22.391 21.158-37.605.04-2.48.06-4.96.091-7.441l.224-18.383.328-26.754.396-32.391.437-35.788.444-36.298.423-34.607.367-30.042.284-23.212.167-13.62c.088-7.19-.713-14.227-3.613-20.91-6.557-15.106-21.281-25.79-37.74-27.05-3.833-.293-7.722-.189-11.562-.236l-23.995-.294-33.109-.404L66.374.811 33.146.405 8.912.109zc-1.929-.024-1.934-3.024 0-3l9.784.12 25.116.307 34.096.417 36.723.449 32.857.401 22.981.281c5.152.063 10.288-.019 15.379.944 16.139 3.054 29.774 14.655 35.704 29.915 2.564 6.6 3.233 13.478 3.148 20.477l-.173 14.106-.29 23.758-.376 30.769-.43 35.137-.449 36.686-.439 35.961-.397 32.417-.32 26.233-.213 17.406c-.034 2.81.014 5.644-.17 8.449-1.077 16.454-10.812 31.555-25.389 39.29-8.077 4.285-16.778 5.665-25.797 5.555l-18.538-.227-30.406-.372-36.241-.443-35.599-.435-28.605-.35-15.258-.186c-11.822-.145-23.078-4.085-32.033-11.907-10.563-9.227-16.491-22.8-16.364-36.788.026-2.842.07-5.684.105-8.526l.236-19.332.339-27.695.407-33.345.445-36.355.449-36.724.421-34.45.361-29.536.269-21.98.144-11.782c.12-9.835 2.67-19.354 8.248-27.542C-31.241 4.84-16.039-3.111 0-3c1.93.013 1.934 3.013 0 3" clip-path="url(#Y)" style="fill:#000;fill-opacity:1;fill-rule:nonzero;stroke:none" transform="matrix(1.33333 0 0 -1.33333 602.647 852.424)"/><path d="m0 0-168.448-2.059c-14.937-.183-27.193 11.777-27.375 26.713l-3.193 261.172c-.183 14.937 11.777 27.193 26.713 27.376l168.449 2.059c14.936.183 27.192-11.778 27.375-26.714l3.193-261.172C26.896 12.439 14.936.183 0 0" clip-path="url(#Z)" style="fill:#ffe30d;fill-opacity:1;fill-rule:nonzero;stroke:none" transform="matrix(1.33333 0 0 -1.33333 826.929 825.818)"/><path d="m0 0-8.516-.104-22.146-.271-30.525-.373-34.105-.417-32.459-.397-25.715-.314-13.87-.17c-2.721-.033-5.405.139-8.053.848-7.376 1.974-13.563 7.275-16.713 14.224-1.997 4.404-2.207 8.94-2.264 13.629l-.167 13.641-.268 21.955-.343 28.005-.393 32.195-.418 34.144-.415 33.968-.386 31.529-.333 27.265-.253 20.723-.148 12.056c-.008.704-.021 1.407-.026 2.111-.04 6.057 1.948 12.03 5.855 16.699a25.85 25.85 0 0 0 19.362 9.256c.791.014 1.583.019 2.374.029l16.188.197 27.187.333 33.085.404 33.735.413 29.615.362 20.238.247c4.642.057 9.266.347 13.783-1.021 10.874-3.291 17.972-13.421 18.121-24.636.039-2.951.072-5.903.108-8.854l.223-18.198.31-25.415.373-30.508.408-33.318.419-34.319.404-33.045.363-29.647.294-24.028.202-16.516c.027-2.25.068-4.5.082-6.75C25.301 11.906 14.038.285 0 0c-1.928-.039-1.935-3.039 0-3 15.62.318 28.302 13.228 28.214 28.882-.012 2.05-.05 4.102-.076 6.152l-.198 16.218-.296 24.223-.364 29.814-.408 33.316-.423 34.632-.413 33.764-.375 30.713-.312 25.475-.221 18.054c-.034 2.821-.063 5.641-.103 8.462-.172 12.13-7.773 23.038-19.312 27.027-4.981 1.722-10.006 1.524-15.151 1.461l-20.086-.246-29.756-.364-34.185-.418-60.685-.742-16.017-.195c-1.009-.013-2.02-.007-3.028-.052-7.764-.347-15.231-3.899-20.318-9.792-4.577-5.303-7.044-12.073-7.003-19.073.003-.601.014-1.203.022-1.804l.142-11.664.252-20.593.334-27.335.39-31.894.419-34.267.422-34.458.396-32.462.348-28.399.267-21.885.163-13.326c.067-5.436.609-10.677 3.124-15.659 5.096-10.095 15.558-15.75 26.682-15.614l13.523.166 25.73.314 32.696.4 34.419.421 31.026.379 22.088.27L0-3c1.929.024 1.934 3.024 0 3" clip-path="url(#aa)" style="fill:#000;fill-opacity:1;fill-rule:nonzero;stroke:none" transform="matrix(1.33333 0 0 -1.33333 826.929 823.818)"/><path d="M0 0c-29.405-75.85-90.694-122.819-136.894-104.909-46.199 17.91-59.814 93.918-30.409 169.768S-76.609 187.678-30.41 169.768C15.79 151.858 29.405 75.85 0 0" clip-path="url(#ab)" style="fill:#feffff;fill-opacity:1;fill-rule:nonzero;stroke:none" transform="matrix(1.33333 0 0 -1.33333 823.958 658.58)"/><path d="M0 0c-10.015-25.763-24.376-50.219-43.439-70.345-15.012-15.849-33.66-29.875-55.162-35.224-8.854-2.203-18.182-2.779-27.164-.992-9.389 1.868-18.16 6.201-25.385 12.478-17.253 14.991-25.004 38.372-27.615 60.448-3.436 29.055 1.125 58.839 10.312 86.465 8.997 27.056 22.706 52.936 41.269 74.666 14.637 17.135 32.917 32.65 54.493 40.09 8.861 3.055 18.241 4.636 27.619 3.916 9.303-.713 18.322-3.838 26.091-8.999 18.553-12.324 27.943-34.384 31.92-55.555 5.251-27.96 2.119-57.301-5.475-84.525A244 244 0 0 0 0 0c-.697-1.802 2.203-2.582 2.893-.798 5.813 15.042 10.201 30.642 12.815 46.561 2.368 14.42 3.352 29.109 2.398 43.704-.831 12.73-3.084 25.472-7.482 37.474-3.815 10.412-9.247 20.327-16.803 28.505-6.938 7.511-15.648 13.289-25.396 16.438-9.002 2.908-18.577 3.404-27.906 2.047-10.136-1.475-19.88-5.168-28.858-10.032-10.311-5.588-19.725-12.802-28.232-20.85-9.554-9.038-18.012-19.217-25.473-30.036-8.221-11.922-15.221-24.677-21.037-37.935-6.464-14.737-11.545-30.09-14.951-45.822-3.16-14.598-4.925-29.551-4.841-44.496.075-13.202 1.576-26.497 5.135-39.231 3.073-10.997 7.728-21.726 14.564-30.924 6.194-8.337 14.147-15.374 23.607-19.776 8.62-4.011 18.114-5.803 27.604-5.384 10.006.441 19.756 3.175 28.869 7.246 10.377 4.636 19.902 11.05 28.579 18.357 9.798 8.25 18.5 17.734 26.27 27.902 8.607 11.264 16.023 23.427 22.301 36.131A250 250 0 0 1 2.893-.798C3.593 1.003.693 1.783 0 0" clip-path="url(#ac)" style="fill:#000;fill-opacity:1;fill-rule:nonzero;stroke:none" transform="matrix(1.33333 0 0 -1.33333 822.03 658.05)"/><path d="M0 0c0 6.359-5.155 11.515-11.515 11.515-4.048 0-7.602-2.094-9.655-5.254-2.053 3.16-5.607 5.254-9.656 5.254-6.359 0-11.514-5.156-11.514-11.515 0-5.674 4.925-10.173 9.232-13.146 1.314-.907 11.586-9.174 11.832-8.984 4.28 3.327 8.846 6.277 13.016 9.749C-4.355-9.13 0-5.488 0 0" clip-path="url(#ad)" style="fill:#ff3342;fill-opacity:1;fill-rule:nonzero;stroke:none" transform="matrix(1.33333 0 0 -1.33333 639.297 447.953)"/><path d="M0 0c-.083 5.53-3.527 10.436-8.755 12.297-5.68 2.021-11.909-.37-15.21-5.279h2.59c-4.298 6.391-13.116 7.928-19.176 3.057-2.656-2.135-4.329-5.312-4.706-8.683-.426-3.809 1.103-7.281 3.474-10.181 1.967-2.406 4.445-4.163 6.906-6.011 1.608-1.207 3.414-2.661 5.11-3.986 1.783-1.394 3.553-2.821 5.401-4.13.591-.418 1.208-.865 1.981-.662.896.236 1.851 1.289 2.589 1.835.934.691 1.876 1.372 2.818 2.051 3.921 2.826 7.885 5.658 11.416 8.971C-2.49-7.839-.08-4.344 0 0c.036 1.931-2.964 1.931-3 0-.059-3.208-1.823-5.779-4.029-7.97-2.583-2.565-5.521-4.806-8.451-6.952-1.625-1.19-3.267-2.355-4.894-3.543a141 141 0 0 1-2.423-1.803c-.116-.088-.459-.267-.521-.399l-.151-.118 1.055.103c.224.013.331-.241.146-.039-.38.415-1.067.744-1.519 1.082-.745.558-1.482 1.126-2.218 1.696-3.122 2.422-6.268 4.811-9.399 7.218-2.467 1.896-4.883 4.218-6.153 7.11-1.231 2.802-.954 6.044.584 8.67 3.711 6.335 12.936 6.505 17.008.449.648-.964 1.942-.964 2.59 0 2.582 3.839 7.457 5.474 11.822 3.9C-5.604 7.979-3.062 4.143-3 0c.029-1.929 3.029-1.934 3 0" clip-path="url(#ae)" style="fill:#000;fill-opacity:1;fill-rule:nonzero;stroke:none" transform="matrix(1.33333 0 0 -1.33333 641.297 447.953)"/><path d="M0 0c0 6.359-5.155 11.515-11.515 11.515-4.048 0-7.602-2.094-9.655-5.254-2.053 3.16-5.607 5.254-9.656 5.254-6.359 0-11.514-5.156-11.514-11.515 0-5.674 4.925-10.173 9.232-13.146 1.314-.907 11.586-9.174 11.832-8.984 4.28 3.327 8.846 6.277 13.016 9.749C-4.355-9.13 0-5.488 0 0" clip-path="url(#af)" style="fill:#ff3342;fill-opacity:1;fill-rule:nonzero;stroke:none" transform="matrix(1.33333 0 0 -1.33333 843.926 775.606)"/><path d="M0 0c-.083 5.53-3.527 10.436-8.755 12.297-5.68 2.021-11.909-.37-15.21-5.279h2.59c-4.297 6.392-13.116 7.928-19.176 3.057-2.656-2.135-4.329-5.312-4.706-8.683-.426-3.809 1.103-7.281 3.474-10.181 1.967-2.406 4.445-4.163 6.906-6.011 1.608-1.207 3.414-2.661 5.11-3.986 1.783-1.394 3.553-2.821 5.401-4.13.591-.418 1.208-.865 1.981-.662.896.236 1.851 1.289 2.589 1.835.934.692 1.876 1.372 2.818 2.051 3.921 2.826 7.885 5.658 11.416 8.971C-2.49-7.839-.08-4.344 0 0c.036 1.931-2.964 1.931-3 0-.059-3.208-1.823-5.779-4.029-7.97-2.583-2.565-5.52-4.806-8.451-6.952-1.625-1.19-3.267-2.355-4.894-3.543a141 141 0 0 1-2.423-1.803c-.116-.088-.459-.267-.521-.399l-.151-.118 1.055.103c.224.014.331-.241.146-.039-.38.415-1.067.744-1.519 1.082-.745.558-1.482 1.126-2.218 1.696-3.122 2.422-6.268 4.811-9.399 7.218-2.467 1.896-4.883 4.218-6.153 7.11-1.231 2.802-.954 6.044.584 8.67 3.711 6.335 12.936 6.505 17.008.449.648-.964 1.942-.964 2.59 0 2.582 3.839 7.457 5.474 11.822 3.9C-5.604 7.98-3.062 4.143-3 0c.029-1.929 3.029-1.934 3 0" clip-path="url(#ag)" style="fill:#000;fill-opacity:1;fill-rule:nonzero;stroke:none" transform="matrix(1.33333 0 0 -1.33333 845.926 775.606)"/><path d="M0 0c0 21.575-18.353 39.064-40.993 39.064S-81.986 21.575-81.986 0Z" clip-path="url(#ah)" style="fill:#feffff;fill-opacity:1;fill-rule:nonzero;stroke:none" transform="matrix(1.33333 0 0 -1.33333 717.384 608.508)"/><path d="M0 0c-.078 17.313-11.725 32.406-27.88 38.098-16.493 5.811-35.877 1.063-47.36-12.251C-81.443 18.654-84.943 9.51-84.986 0c-.004-.811.69-1.5 1.5-1.5H-1.5c1.93 0 1.934 3 0 3h-81.986l1.5-1.5c.072 15.981 10.868 30.061 25.837 35.261 15.429 5.361 33.239 1.06 44.067-11.289A36.7 36.7 0 0 0-3 0c.009-1.93 3.009-1.934 3 0" clip-path="url(#ai)" style="fill:#000;fill-opacity:1;fill-rule:nonzero;stroke:none" transform="matrix(1.33333 0 0 -1.33333 719.384 608.508)"/><path d="M0 0c0-16.351-13.255-29.607-29.606-29.607-16.352 0-29.607 13.256-29.607 29.607s13.255 29.607 29.607 29.607S0 16.351 0 0" clip-path="url(#aj)" style="fill:#000;fill-opacity:1;fill-rule:nonzero;stroke:none" transform="matrix(1.33333 0 0 -1.33333 702.384 603.756)"/><path d="M0 0a8.77 8.77 0 0 0-8.772-8.772A8.772 8.772 0 1 0 0 0" clip-path="url(#ak)" style="fill:#fff;fill-opacity:1;fill-rule:nonzero;stroke:none" transform="matrix(1.33333 0 0 -1.33333 663.275 585.846)"/><path d="M0 0a5.824 5.824 0 0 0-8.154-1.172 5.825 5.825 0 1 0 6.982 9.326A5.825 5.825 0 0 0 0 0" clip-path="url(#al)" style="fill:#fff;fill-opacity:1;fill-rule:nonzero;stroke:none" transform="matrix(1.33333 0 0 -1.33333 682.011 593.7)"/><path d="M0 0c0 21.575-18.353 39.064-40.993 39.064S-81.986 21.575-81.986 0Z" clip-path="url(#am)" style="fill:#feffff;fill-opacity:1;fill-rule:nonzero;stroke:none" transform="matrix(1.33333 0 0 -1.33333 815.463 608.508)"/><path d="M0 0c-.078 17.313-11.725 32.406-27.88 38.098-16.493 5.811-35.877 1.063-47.36-12.251C-81.443 18.654-84.943 9.51-84.986 0c-.004-.811.69-1.5 1.5-1.5H-1.5c1.93 0 1.934 3 0 3h-81.986l1.5-1.5c.072 15.981 10.868 30.061 25.837 35.261 15.429 5.361 33.239 1.06 44.067-11.289A36.7 36.7 0 0 0-3 0c.009-1.93 3.009-1.934 3 0" clip-path="url(#an)" style="fill:#000;fill-opacity:1;fill-rule:nonzero;stroke:none" transform="matrix(1.33333 0 0 -1.33333 817.463 608.508)"/><path d="M0 0c0-16.351-13.255-29.607-29.606-29.607-16.352 0-29.607 13.256-29.607 29.607s13.255 29.607 29.607 29.607S0 16.351 0 0" clip-path="url(#ao)" style="fill:#000;fill-opacity:1;fill-rule:nonzero;stroke:none" transform="matrix(1.33333 0 0 -1.33333 800.463 603.756)"/><path d="M0 0a8.77 8.77 0 0 0-8.772-8.772A8.772 8.772 0 1 0 0 0" clip-path="url(#ap)" style="fill:#fff;fill-opacity:1;fill-rule:nonzero;stroke:none" transform="matrix(1.33333 0 0 -1.33333 761.354 585.846)"/><path d="M0 0a5.824 5.824 0 0 0-8.154-1.172 5.825 5.825 0 1 0 6.982 9.326A5.825 5.825 0 0 0 0 0" clip-path="url(#aq)" style="fill:#fff;fill-opacity:1;fill-rule:nonzero;stroke:none" transform="matrix(1.33333 0 0 -1.33333 780.09 593.7)"/><path d="M0 0c0-7.873-9.205-14.255-20.56-14.255S-41.12-7.873-41.12 0s9.205 14.255 20.56 14.255S0 7.873 0 0" clip-path="url(#ar)" style="fill:#ff8fdd;fill-opacity:1;fill-rule:nonzero;stroke:none" transform="matrix(1.33333 0 0 -1.33333 733.267 613.463)"/><path d="M0 0c-.092-6.571-6.789-10.535-12.447-11.958-6.975-1.755-15.516-.835-21.25 3.812-2.172 1.76-3.987 4.18-4.36 7.019-.365 2.78.73 5.507 2.568 7.564 4.84 5.419 13.113 6.989 20.038 6.099C-8.921 11.697-.108 7.691 0 0c.027-1.929 3.027-1.934 3 0-.111 7.894-7.506 13-14.467 14.804-8.196 2.123-18.002.867-24.594-4.74-2.677-2.276-4.622-5.405-4.996-8.937-.364-3.436.963-6.742 3.152-9.344 5.466-6.498 15.211-8.343 23.242-7.215C-6.677-14.31 2.871-9.137 3 0 3.027 1.931.027 1.932 0 0" clip-path="url(#as)" style="fill:#000;fill-opacity:1;fill-rule:nonzero;stroke:none" transform="matrix(1.33333 0 0 -1.33333 731.267 613.463)"/><path d="M0 0c0-2.422-2.832-4.386-6.326-4.386S-12.652-2.422-12.652 0s2.832 4.386 6.326 4.386S0 2.422 0 0" clip-path="url(#at)" style="fill:#feffff;fill-opacity:1;fill-rule:nonzero;stroke:none" transform="matrix(1.33333 0 0 -1.33333 706.612 608.71)"/><path d="M0 0q-.001-.142-.013-.283c.027.289-.007-.009-.03-.084-.028-.089-.051-.179-.081-.268-.076-.226.095.183-.013-.032a3.5 3.5 0 0 0-.338-.556c.044.057.147.169-.049-.044a5 5 0 0 0-.326-.326c-.179-.164-.192-.169-.328-.26a7 7 0 0 0-.577-.344 5.8 5.8 0 0 0-1.323-.484c-1.838-.458-4.163-.127-5.485.882a5 5 0 0 0-.514.477c-.204.209-.072.039-.224.28a5 5 0 0 0-.183.311c-.023.043-.109.261-.021.029a3 3 0 0 0-.087.267c-.019.069-.077.463-.047.152a3 3 0 0 0 0 .566c-.027-.279.057.186.088.286.083.273.033.097.004.035q.075.162.169.315.075.125.158.244c.081.114-.077-.075.091.104 1.233 1.313 3.341 1.83 5.309 1.564.972-.132 2.109-.554 2.73-1.032.206-.158.389-.344.566-.532.023-.024.182-.219.049-.044.088-.115.166-.24.238-.366q.071-.124.131-.253c-.087.193 0-.007.025-.102.031-.113.062-.225.083-.34C-.048.426-.002.089 0 0c.044-1.927 3.044-1.934 3 0C2.933 2.929.369 4.914-2.281 5.574c-2.894.721-6.222.22-8.525-1.755-2.149-1.843-2.398-4.876-.59-7.036 1.93-2.305 5.33-2.95 8.171-2.536C-.247-5.32 2.924-3.303 3 0 3.044 1.931.044 1.931 0 0" clip-path="url(#au)" style="fill:#000;fill-opacity:1;fill-rule:nonzero;stroke:none" transform="matrix(1.33333 0 0 -1.33333 704.612 608.71)"/><path d="M0 0c3.013-.323 6.172-1.71 9.574-1.939 5.2-.351 10.587 1.229 14.607 4.587 3.59 3 6.218 7.269 10.454 9.255 7.011 3.286 16.041-1.812 18.292-9.221 2.25-7.409-1.284-15.727-7.208-20.714-5.923-4.987-13.794-7.094-21.511-7.729A67.8 67.8 0 0 0 8-25.143C1.841-24.16-6.114-20.014-9.25-14.39-12.938-7.776-8.061.864 0 0" clip-path="url(#av)" style="fill:#ff3342;fill-opacity:1;fill-rule:nonzero;stroke:none" transform="matrix(1.33333 0 0 -1.33333 694.832 643.87)"/><path d="M0 0c2.946-.359 5.736-1.504 8.692-1.855 2.805-.333 5.729-.052 8.448.703a21.6 21.6 0 0 1 7.473 3.737c2.13 1.66 3.868 3.723 5.746 5.647 1.758 1.801 3.716 3.569 6.183 4.296 2.055.605 4.21.467 6.238-.174 4.273-1.352 7.796-4.933 8.9-9.29 1.293-5.105-.411-10.524-3.424-14.694-3.325-4.601-8.47-7.544-13.809-9.207-5.758-1.793-11.878-2.305-17.884-2.119-5.7.177-11.338.891-16.429 3.606-4.333 2.312-9.368 6.253-9.125 11.693C-8.777-2.863-4.662.425 0 0c1.922-.175 1.91 2.826 0 3-5.011.457-9.532-2.474-11.296-7.159-1.832-4.867.16-9.778 3.689-13.276 3.934-3.898 9.449-6.646 14.893-7.602 6.918-1.214 14.102-1.275 21.045-.244 6.247.928 12.446 3.009 17.48 6.912 4.664 3.615 8.145 8.957 9.048 14.841.834 5.439-.635 10.944-4.655 14.812-3.675 3.536-9.1 5.549-14.153 4.222-6.622-1.738-9.624-8.629-15.26-11.903-2.966-1.723-6.389-2.593-9.814-2.589C7.204 1.018 3.712 2.548 0 3c-1.912.233-1.895-2.769 0-3" clip-path="url(#aw)" style="fill:#000;fill-opacity:1;fill-rule:nonzero;stroke:none" transform="matrix(1.33333 0 0 -1.33333 694.832 645.87)"/><path d="M0 0c7.348-2.93 15.731-3.245 23.25-.739 6.811 2.27 12.689 6.652 16.933 12.422 1.145 1.557-1.457 3.055-2.59 1.514-3.835-5.213-9.347-9.194-15.513-11.165C15.108-.196 7.576.19.798 2.893-.996 3.608-1.775.708 0 0" clip-path="url(#ax)" style="fill:#000;fill-opacity:1;fill-rule:nonzero;stroke:none" transform="matrix(1.33333 0 0 -1.33333 696.507 661.355)"/><path d="M0 0q.302-.066.595-.159L.828-.24c.367-.127-.158.086.041-.014a11 11 0 0 0 1.015-.582c.235-.151-.09.088.04-.026.062-.055.127-.105.188-.16q.232-.204.442-.43.104-.113.204-.23c.101-.115.071-.095-.005.013.119-.168.236-.336.341-.513.1-.169.181-.347.272-.52.11-.208-.105.311.031-.081q.046-.127.089-.257.103-.325.169-.658l.048-.267c-.051.3-.004-.01.001-.075q.026-.339.016-.679-.007-.17-.02-.34c-.008-.141-.017-.155.006-.006q-.106-.674-.354-1.309C3.07-7.108 3.664-8.052 4.4-8.22c.858-.195 1.543.262 1.845 1.048.805 2.091.576 4.577-.561 6.504C4.634 1.113 2.816 2.443.797 2.893c-.764.17-1.659-.231-1.845-1.048C-1.221 1.085-.819.183 0 0" clip-path="url(#ay)" style="fill:#000;fill-opacity:1;fill-rule:nonzero;stroke:none" transform="matrix(1.33333 0 0 -1.33333 744.067 642.248)"/><path d="M0 0c-2.429-2.042-3.004-5.737-1.576-8.508.36-.698 1.396-.961 2.052-.538.713.46.923 1.305.538 2.052-.035.069-.066.142-.103.21-.093.168.106-.283.04-.103-.048.132-.098.261-.139.395a5 5 0 0 0-.116.449l-.035.182c-.053.271.024-.268.008-.077-.024.28-.042.556-.031.836.005.138.032.281.03.419.005-.378-.029-.2-.008-.076q.018.115.043.23.085.41.23.806c.021.058.05.115.067.174-.104-.359-.069-.162-.021-.06a6 6 0 0 0 .439.765c.034.049.081.098.108.151-.059-.115-.182-.226-.032-.049q.287.337.627.621c.603.507.562 1.605 0 2.121C1.48.589.643.541 0 0" clip-path="url(#az)" style="fill:#000;fill-opacity:1;fill-rule:nonzero;stroke:none" transform="matrix(1.33333 0 0 -1.33333 695.574 653.031)"/></svg>