<svg xmlns="http://www.w3.org/2000/svg" width="1440" height="1440" viewBox="0 0 1440 1440"><defs><clipPath id="a" clipPathUnits="userSpaceOnUse"><path d="M-242.157 475.252h1080v-1080h-1080Z"/></clipPath><clipPath id="b" clipPathUnits="userSpaceOnUse"><path d="M-243.657 475.252h1080v-1080h-1080Z"/></clipPath><clipPath id="c" clipPathUnits="userSpaceOnUse"><path d="M-808.436 221.202h1080v-1080h-1080Z"/></clipPath><clipPath id="d" clipPathUnits="userSpaceOnUse"><path d="M-806.936 221.202h1080v-1080h-1080Z"/></clipPath><clipPath id="e" clipPathUnits="userSpaceOnUse"><path d="M0 1080h1080V0H0Z"/></clipPath><clipPath id="f" clipPathUnits="userSpaceOnUse"><path d="M-807.587 382.36h1080v-1080h-1080Z"/></clipPath><clipPath id="g" clipPathUnits="userSpaceOnUse"><path d="M0 1080h1080V0H0Z"/></clipPath><clipPath id="h" clipPathUnits="userSpaceOnUse"><path d="M-807.587 366.36h1080v-1080h-1080Z"/></clipPath><clipPath id="i" clipPathUnits="userSpaceOnUse"><path d="M-298.094 312.294h1080v-1080h-1080Z"/></clipPath><clipPath id="j" clipPathUnits="userSpaceOnUse"><path d="M-297.337 311h1080V-769h-1080Z"/></clipPath><clipPath id="k" clipPathUnits="userSpaceOnUse"><path d="M-298.094 458.294h1080v-1080h-1080Z"/></clipPath><clipPath id="l" clipPathUnits="userSpaceOnUse"><path d="M-297.337 457h1080V-623h-1080Z"/></clipPath><clipPath id="m" clipPathUnits="userSpaceOnUse"><path d="M-835.094 458.294h1080v-1080h-1080Z"/></clipPath><clipPath id="n" clipPathUnits="userSpaceOnUse"><path d="M-834.337 457h1080V-623h-1080Z"/></clipPath><clipPath id="o" clipPathUnits="userSpaceOnUse"><path d="M-836.094 312.294h1080v-1080h-1080Z"/></clipPath><clipPath id="p" clipPathUnits="userSpaceOnUse"><path d="M-835.337 311h1080V-769h-1080Z"/></clipPath><clipPath id="q" clipPathUnits="userSpaceOnUse"><path d="M-662.457 262.642h1080v-1080h-1080Z"/></clipPath><clipPath id="r" clipPathUnits="userSpaceOnUse"><path d="M-663.957 262.642h1080v-1080h-1080Z"/></clipPath><clipPath id="s" clipPathUnits="userSpaceOnUse"><path d="M-489.82 242.751h1080v-1080h-1080Z"/></clipPath><clipPath id="t" clipPathUnits="userSpaceOnUse"><path d="M-512.337 231.995h1080v-1080h-1080Z"/></clipPath><clipPath id="u" clipPathUnits="userSpaceOnUse"><path d="M-547.17 231.995h1080v-1080h-1080Z"/></clipPath><clipPath id="v" clipPathUnits="userSpaceOnUse"><path d="M-595.07 217.92h1080v-1080h-1080Z"/></clipPath><clipPath id="w" clipPathUnits="userSpaceOnUse"><path d="M-360.97 339.18h1080v-1080h-1080Z"/></clipPath><clipPath id="x" clipPathUnits="userSpaceOnUse"><path d="M-382.592 329.894h1080v-1080h-1080Z"/></clipPath><clipPath id="y" clipPathUnits="userSpaceOnUse"><path d="M-432.137 339.18h1080v-1080h-1080Z"/></clipPath><clipPath id="z" clipPathUnits="userSpaceOnUse"><path d="M-509.34 339.18h1080v-1080h-1080Z"/></clipPath><clipPath id="A" clipPathUnits="userSpaceOnUse"><path d="M-563.992 296.2h1080v-1080h-1080Z"/></clipPath><clipPath id="B" clipPathUnits="userSpaceOnUse"><path d="M-600.736 329.894h1080v-1080h-1080Z"/></clipPath><clipPath id="C" clipPathUnits="userSpaceOnUse"><path d="M-657.91 339.18h1080v-1080h-1080Z"/></clipPath><clipPath id="D" clipPathUnits="userSpaceOnUse"><path d="M-710.308 339.18h1080v-1080h-1080Z"/></clipPath><clipPath id="E" clipPathUnits="userSpaceOnUse"><path d="M-732.858 339.18h1080v-1080h-1080Z"/></clipPath><clipPath id="F" clipPathUnits="userSpaceOnUse"><path d="M-684.795 907.358h1080v-1080h-1080Z"/></clipPath><clipPath id="G" clipPathUnits="userSpaceOnUse"><path d="M-684.795 905.858h1080v-1080h-1080Z"/></clipPath><clipPath id="H" clipPathUnits="userSpaceOnUse"><path d="M-369.998 356.445c-18.477 0-33.455-14.98-33.455-33.456V-13.015c0-63.694 51.634-115.327 115.328-115.327h174.67c18.478 0 33.456 14.978 33.456 33.455v336.004c0 63.694-51.634 115.328-115.328 115.328z"/></clipPath><clipPath id="I" clipPathUnits="userSpaceOnUse"><path d="M-370.755 355.15c-18.477 0-33.455-14.98-33.455-33.456V-14.31c0-63.694 51.634-115.327 115.328-115.327h174.67c18.478 0 33.456 14.978 33.456 33.455v336.004c0 63.694-51.634 115.328-115.328 115.328z"/></clipPath><clipPath id="J" clipPathUnits="userSpaceOnUse"><path d="M-363.345 432.447c-18.477 0-33.455-14.979-33.455-33.456V62.987c0-63.694 51.634-115.327 115.328-115.327H-106.8c18.477 0 33.455 14.978 33.455 33.455v336.004c0 63.694-51.634 115.328-115.328 115.328z"/></clipPath><clipPath id="K" clipPathUnits="userSpaceOnUse"><path d="M-364.102 431.152c-18.477 0-33.455-14.98-33.455-33.456V61.692c0-63.694 51.634-115.327 115.328-115.327h174.671c18.477 0 33.455 14.978 33.455 33.455v336.004c0 63.694-51.634 115.328-115.328 115.328z"/></clipPath><clipPath id="L" clipPathUnits="userSpaceOnUse"><path d="M-684.795 905.858h1080v-1080h-1080Z"/></clipPath><clipPath id="M" clipPathUnits="userSpaceOnUse"><path d="M-662.52 879.189h1080v-1080h-1080Z"/></clipPath><clipPath id="N" clipPathUnits="userSpaceOnUse"><path d="M-662.52 877.689h1080v-1080h-1080Z"/></clipPath><clipPath id="O" clipPathUnits="userSpaceOnUse"><path d="M-646.408 625.817h1080v-1080h-1080Z"/></clipPath><clipPath id="P" clipPathUnits="userSpaceOnUse"><path d="M-646.408 624.317h1080v-1080h-1080Z"/></clipPath><clipPath id="Q" clipPathUnits="userSpaceOnUse"><path d="M0 1080h1080V0H0Z"/></clipPath><clipPath id="R" clipPathUnits="userSpaceOnUse"><path d="M-641.193 611.987h1080v-1080h-1080Z"/></clipPath><clipPath id="S" clipPathUnits="userSpaceOnUse"><path d="M0 1080h1080V0H0Z"/></clipPath><clipPath id="T" clipPathUnits="userSpaceOnUse"><path d="M-383.505 455.793h1080v-1080h-1080Z"/></clipPath><clipPath id="U" clipPathUnits="userSpaceOnUse"><path d="M-582.72 440.702h1080v-1080h-1080Z"/></clipPath><clipPath id="V" clipPathUnits="userSpaceOnUse"><path d="M-582.72 439.202h1080v-1080h-1080Z"/></clipPath><clipPath id="W" clipPathUnits="userSpaceOnUse"><path d="M-513.626 728.277h1080v-1080h-1080Z"/></clipPath><clipPath id="X" clipPathUnits="userSpaceOnUse"><path d="M-512.126 728.277h1080v-1080h-1080Z"/></clipPath><clipPath id="Y" clipPathUnits="userSpaceOnUse"><path d="M-499.467 728.277h1080v-1080h-1080Z"/></clipPath><clipPath id="Z" clipPathUnits="userSpaceOnUse"><path d="M-497.967 728.277h1080v-1080h-1080Z"/></clipPath><clipPath id="aa" clipPathUnits="userSpaceOnUse"><path d="M-487.548 686.337h1080v-1080h-1080Z"/></clipPath><clipPath id="ab" clipPathUnits="userSpaceOnUse"><path d="M-486.048 686.337h1080v-1080h-1080Z"/></clipPath><clipPath id="ac" clipPathUnits="userSpaceOnUse"><path d="M-487.548 770.844h1080v-1080h-1080Z"/></clipPath><clipPath id="ad" clipPathUnits="userSpaceOnUse"><path d="M-486.048 770.844h1080v-1080h-1080Z"/></clipPath><clipPath id="ae" clipPathUnits="userSpaceOnUse"><path d="M-443.547 727.56h1080v-1080h-1080Z"/></clipPath><clipPath id="af" clipPathUnits="userSpaceOnUse"><path d="M-442.047 727.56h1080v-1080h-1080Z"/></clipPath><clipPath id="ag" clipPathUnits="userSpaceOnUse"><path d="M-531.49 727.56h1080v-1080h-1080Z"/></clipPath><clipPath id="ah" clipPathUnits="userSpaceOnUse"><path d="M-529.99 727.56h1080v-1080h-1080Z"/></clipPath><clipPath id="ai" clipPathUnits="userSpaceOnUse"><path d="M-477.176 685.978h1080v-1080h-1080Z"/></clipPath><clipPath id="aj" clipPathUnits="userSpaceOnUse"><path d="M-432.727 727.201h1080v-1080h-1080Z"/></clipPath><clipPath id="ak" clipPathUnits="userSpaceOnUse"><path d="M-476.818 770.575h1080v-1080h-1080Z"/></clipPath><clipPath id="al" clipPathUnits="userSpaceOnUse"><path d="M-521.434 727.208h1080v-1080h-1080Z"/></clipPath><clipPath id="am" clipPathUnits="userSpaceOnUse"><path d="M-654.367 699.645h1080v-1080h-1080Z"/></clipPath><clipPath id="an" clipPathUnits="userSpaceOnUse"><path d="M-654.367 698.145h1080v-1080h-1080Z"/></clipPath><clipPath id="ao" clipPathUnits="userSpaceOnUse"><path d="M-594.1 691.242h1080v-1080h-1080Z"/></clipPath><clipPath id="ap" clipPathUnits="userSpaceOnUse"><path d="M-583.997 699.78h1080v-1080h-1080Z"/></clipPath><clipPath id="aq" clipPathUnits="userSpaceOnUse"><path d="M-650.641 699.78h1080v-1080h-1080Z"/></clipPath><clipPath id="ar" clipPathUnits="userSpaceOnUse"><path d="M-594.459 759.708h1080v-1080h-1080Z"/></clipPath><clipPath id="as" clipPathUnits="userSpaceOnUse"><path d="M-675.673 634.689h1080v-1080h-1080Z"/></clipPath><clipPath id="at" clipPathUnits="userSpaceOnUse"><path d="M-675.673 633.189h1080v-1080h-1080Z"/></clipPath><clipPath id="au" clipPathUnits="userSpaceOnUse"><path d="M-675.673 683.35h1080v-1080h-1080Z"/></clipPath><clipPath id="av" clipPathUnits="userSpaceOnUse"><path d="M-675.673 681.85h1080v-1080h-1080Z"/></clipPath><clipPath id="aw" clipPathUnits="userSpaceOnUse"><path d="M-572.951 644.457h1080v-1080h-1080Z"/></clipPath><clipPath id="ax" clipPathUnits="userSpaceOnUse"><path d="M-572.951 642.957h1080v-1080h-1080Z"/></clipPath><clipPath id="ay" clipPathUnits="userSpaceOnUse"><path d="M-533.58 537.396h1080v-1080h-1080Z"/></clipPath><clipPath id="az" clipPathUnits="userSpaceOnUse"><path d="M-532.08 537.396h1080v-1080h-1080Z"/></clipPath><clipPath id="aA" clipPathUnits="userSpaceOnUse"><path d="M-52.232-2.867c0-14.75 14.203-26.706 31.723-26.706 17.521 0 31.724 11.956 31.724 26.706S-2.988 23.837-20.509 23.837c-17.52 0-31.723-11.955-31.723-26.704"/></clipPath><clipPath id="aB" clipPathUnits="userSpaceOnUse"><path d="M-46.958 1.882c0-14.75 14.203-26.706 31.723-26.706S16.489-12.868 16.489 1.882 2.286 28.586-15.235 28.586c-17.52 0-31.723-11.955-31.723-26.704"/></clipPath><clipPath id="aC" clipPathUnits="userSpaceOnUse"><path d="M-31.698 6.184c0-14.75 14.203-26.706 31.723-26.706 17.521 0 31.724 11.956 31.724 26.706S17.546 32.888.025 32.888c-17.52 0-31.723-11.955-31.723-26.704"/></clipPath><clipPath id="aD" clipPathUnits="userSpaceOnUse"><path d="M470.133 542.604c0-14.75 14.203-26.706 31.723-26.706 17.521 0 31.724 11.956 31.724 26.706s-14.203 26.704-31.724 26.704c-17.52 0-31.723-11.955-31.723-26.704"/></clipPath><clipPath id="aE" clipPathUnits="userSpaceOnUse"><path d="M-64.881-6.697c0-14.75 14.203-26.706 31.723-26.706S-1.434-21.447-1.434-6.697s-14.203 26.704-31.724 26.704c-17.52 0-31.723-11.955-31.723-26.704"/></clipPath><clipPath id="aF" clipPathUnits="userSpaceOnUse"><path d="M-532.08 537.396h1080v-1080h-1080Z"/></clipPath><clipPath id="aG" clipPathUnits="userSpaceOnUse"><path d="M-591.98 537.396h1080v-1080h-1080Z"/></clipPath><clipPath id="aH" clipPathUnits="userSpaceOnUse"><path d="M-590.48 537.396h1080v-1080h-1080Z"/></clipPath><clipPath id="aI" clipPathUnits="userSpaceOnUse"><path d="M-52.232-2.867c0-14.75 14.203-26.706 31.723-26.706 17.522 0 31.724 11.956 31.724 26.706S-2.987 23.837-20.509 23.837c-17.52 0-31.723-11.955-31.723-26.704"/></clipPath><clipPath id="aJ" clipPathUnits="userSpaceOnUse"><path d="M-46.958 1.882c0-14.75 14.203-26.706 31.723-26.706 17.522 0 31.724 11.956 31.724 26.706S2.287 28.586-15.235 28.586c-17.52 0-31.723-11.955-31.723-26.704"/></clipPath><clipPath id="aK" clipPathUnits="userSpaceOnUse"><path d="M-31.698 6.184c0-14.75 14.203-26.706 31.723-26.706 17.522 0 31.724 11.956 31.724 26.706S17.547 32.888.025 32.888c-17.52 0-31.723-11.955-31.723-26.704"/></clipPath><clipPath id="aL" clipPathUnits="userSpaceOnUse"><path d="M528.532 542.604c0-14.75 14.203-26.706 31.723-26.706 17.522 0 31.724 11.956 31.724 26.706s-14.202 26.704-31.724 26.704c-17.52 0-31.723-11.955-31.723-26.704"/></clipPath><clipPath id="aM" clipPathUnits="userSpaceOnUse"><path d="M-64.881-6.697c0-14.75 14.203-26.706 31.723-26.706 17.522 0 31.724 11.956 31.724 26.706s-14.202 26.704-31.724 26.704c-17.52 0-31.723-11.955-31.723-26.704"/></clipPath><clipPath id="aN" clipPathUnits="userSpaceOnUse"><path d="M-590.48 537.396h1080v-1080h-1080Z"/></clipPath><clipPath id="aO" clipPathUnits="userSpaceOnUse"><path d="M-543.916 556.634h1080v-1080h-1080Z"/></clipPath><clipPath id="aP" clipPathUnits="userSpaceOnUse"><path d="M-542.416 556.634h1080v-1080h-1080Z"/></clipPath><clipPath id="aQ" clipPathUnits="userSpaceOnUse"><path d="M-530.846 554.304h1080v-1080h-1080Z"/></clipPath><clipPath id="aR" clipPathUnits="userSpaceOnUse"><path d="M-529.346 554.304h1080v-1080h-1080Z"/></clipPath><clipPath id="aS" clipPathUnits="userSpaceOnUse"><path d="M-496.723 579.808h1080v-1080h-1080Z"/></clipPath><clipPath id="aT" clipPathUnits="userSpaceOnUse"><path d="M-494.482 583.01h1080v-1080h-1080Z"/></clipPath><clipPath id="aU" clipPathUnits="userSpaceOnUse"><path d="M-563.566 576.904h1080v-1080h-1080Z"/></clipPath><clipPath id="aV" clipPathUnits="userSpaceOnUse"><path d="M-395.872 820.885h1080v-1080h-1080Z"/></clipPath></defs><path d="M0 0h1080v1080H0Z" style="fill:#feffff;fill-opacity:1;fill-rule:nonzero;stroke:none" transform="matrix(1.33333 0 0 -1.33333 0 1440)"/><path d="M0 0v254.739c0 15.741 12.675 28.548 28.416 28.71l269.432 2.771 269.423-2.771c15.74-.162 28.416-12.969 28.416-28.71V0a47.9 47.9 0 0 0-12.846-32.644l-204.77-219.893-66.951-71.906c-7.171-7.701-19.369-7.702-26.541-.001L12.846-32.644A47.9 47.9 0 0 0 0 0" clip-path="url(#a)" style="fill:#6842d5;fill-opacity:1;fill-rule:nonzero;stroke:none" transform="matrix(1.33333 0 0 -1.33333 322.876 633.67)"/><path d="M0 0v250.475c0 4.248-.038 8.346 1.268 12.491 3.629 11.512 14.392 18.82 26.268 18.989 9.342.133 18.686.192 28.029.288l57.317.59 69.434.714 64.379.662 42.153.433c3.934.041 7.861.074 11.794.033l37.575-.386 62.253-.64 69.76-.718 60.097-.618 33.264-.342c7.541-.078 14.689-1.979 20.372-7.264 6.248-5.811 8.724-13.587 8.724-21.897V29.203c0-9.56.027-19.121 0-28.681-.035-11.979-4.345-23.321-12.462-32.164-1.461-1.593-2.946-3.164-4.419-4.746L549.599-64.53l-41.557-44.627-47.528-51.038-44.116-47.374-31.324-33.637-10.737-11.53-38.086-40.905-20.434-21.946c-3.876-4.164-8.055-9.984-13.52-12.045-7.232-2.728-14.233.035-19.23 5.401l-5.947 6.387-24.925 26.765-37.889 40.687-45.515 48.876-47.802 51.332-44.752 48.057-36.364 39.049L17.236-36.77c-1.475 1.584-2.954 3.164-4.425 4.752C4.659-23.217.123-12.012 0 0c-.02 1.929-3.02 1.934-3 0 .13-12.728 4.937-24.678 13.572-34.013 1.489-1.609 2.988-3.209 4.482-4.813l22.829-24.515 36.771-39.486 45.439-48.795 48.222-51.783 45.889-49.277 37.666-40.448 24.238-26.028c1.753-1.882 3.499-3.769 5.258-5.646 5.691-6.072 14.145-8.693 22.109-5.569 5.742 2.253 9.709 7.557 13.801 11.953l20.279 21.78 49.64 53.312 31.835 34.186 44.632 47.928 48.094 51.646 41.485 44.549 25.453 27.333c1.236 1.327 2.483 2.644 3.707 3.981 8.653 9.448 13.251 21.536 13.286 34.325.026 9.868 0 19.737 0 29.606v191.35c0 10.674.015 21.348 0 32.022-.014 9.336-3.511 18.212-10.799 24.283-5.984 4.984-13.181 7.007-20.834 7.085l-32.661.336-60.283.62-70.342.724-63.007.648-37.45.385c-4.085.042-8.164-.003-12.249-.045l-43.571-.448-65.806-.677-69.794-.717-56.409-.581c-8.471-.087-16.948-.087-25.418-.261-12.894-.265-24.498-8.443-28.566-20.797C-2.958 259.731-3 255.289-3 250.73V0c0-1.93 3-1.934 3 0" clip-path="url(#b)" style="fill:#000;fill-opacity:1;fill-rule:nonzero;stroke:none" transform="matrix(1.33333 0 0 -1.33333 324.876 633.67)"/><path d="M0 0v-261.327l-209.729-225.218-58.702-63.046-58.711 63.046-209.729 225.218V0l211.443 2.172 56.997.589 56.987-.589z" clip-path="url(#c)" style="fill:#0aff9f;fill-opacity:1;fill-rule:nonzero;stroke:none" transform="matrix(1.33333 0 0 -1.33333 1077.914 294.937)"/><path d="M0 0v-256.297c0-1.319-.409-3.414 0-4.685.278-.864-.138.709.382.654-.114.012-.605-.656-.682-.732-1.311-1.295-2.523-2.71-3.779-4.058l-15.588-16.739L-72.88-339l-64.531-69.296-52.81-56.71-20.058-21.54-52.718-56.62-4.994-5.365h2.121l-49.111 52.738-20.236 21.731-46.546 49.983-63.807 68.519-58.199 62.497-19.727 21.184c-3.358 3.605-6.578 7.45-10.124 10.872-.064.062-.574.726-.658.706 1.238.291.095-1.724.407-.584.378 1.385 0 3.418 0 4.841V0l-1.5-1.5 32.728.336 71.615.736 72.708.747 34.345.353 55.138.569c17.762.184 35.553-.327 53.315-.511l26.867-.276 142.383-1.463 45.517-.468L1.5-1.5c1.931-.02 1.932 2.98 0 3l-32.728.336-71.615.736-72.708.747-34.345.353-55.129.569c-17.765.184-35.558-.327-53.324-.511l-26.867-.276-66.583-.684-75.8-.779-45.517-.468-2.255-.023c-.811-.008-1.5-.68-1.5-1.5v-256.544c0-1.451-.199-3.062 0-4.503.305-2.216 3.214-4.32 4.662-5.876l15.304-16.434 53.432-57.377 64.532-69.298 53.055-56.973 20.172-21.662 52.727-56.621 4.996-5.364c.538-.578 1.583-.578 2.121 0l49.102 52.737 20.324 21.827 46.967 50.435 63.855 68.571 58.052 62.339c9.856 10.584 19.873 21.041 29.579 31.763 1.597 1.764.991 4.504.991 6.767V0c0 1.93-3 1.934-3 0" clip-path="url(#d)" style="fill:#000;fill-opacity:1;fill-rule:nonzero;stroke:none" transform="matrix(1.33333 0 0 -1.33333 1075.914 294.937)"/><path d="M807.587 696.14H272.283v104.87h535.304z" clip-path="url(#e)" style="fill:#ff3342;fill-opacity:1;fill-rule:nonzero;stroke:none" transform="matrix(1.33333 0 0 -1.33333 0 1440)"/><path d="M0 0h-527.235c-2.343 0-4.825.235-7.159 0-.297-.03-.611 0-.91 0l1.5-1.5v104.87l-1.5-1.5H-8.069c2.343 0 4.825-.235 7.159 0 .297.029.611 0 .91 0l-1.5 1.5V-1.5c0-1.93 3-1.934 3 0v104.87c0 .81-.687 1.5-1.5 1.5h-513.575c-6.936 0-13.884.118-20.819 0-.303-.006-.607 0-.91 0-.811 0-1.5-.688-1.5-1.5V-1.5c0-.811.687-1.5 1.5-1.5h513.575C-14.793-3-7.846-3.119-.91-3c.303.005.607 0 .91 0 1.93 0 1.934 3 0 3" clip-path="url(#f)" style="fill:#000;fill-opacity:1;fill-rule:nonzero;stroke:none" transform="matrix(1.33333 0 0 -1.33333 1076.783 509.813)"/><path d="M807.587 712.14H272.283v104.87h535.304z" clip-path="url(#g)" style="fill:#ffe30d;fill-opacity:1;fill-rule:nonzero;stroke:none" transform="matrix(1.33333 0 0 -1.33333 0 1440)"/><path d="M0 0h-527.235c-2.343 0-4.825.235-7.159 0-.297-.03-.611 0-.91 0l1.5-1.5v104.87l-1.5-1.5H-8.069c2.343 0 4.825-.235 7.159 0 .297.029.611 0 .91 0l-1.5 1.5V-1.5c0-1.93 3-1.934 3 0v104.87c0 .81-.687 1.5-1.5 1.5h-513.575c-6.936 0-13.884.118-20.819 0-.303-.006-.607 0-.91 0-.811 0-1.5-.688-1.5-1.5V-1.5c0-.811.687-1.5 1.5-1.5h513.575C-14.793-3-7.846-3.119-.91-3c.303.005.607 0 .91 0 1.93 0 1.934 3 0 3" clip-path="url(#h)" style="fill:#000;fill-opacity:1;fill-rule:nonzero;stroke:none" transform="matrix(1.33333 0 0 -1.33333 1076.783 488.48)"/><path d="M0 0c-14.087-6.916-19.693-12.522-26.609-26.609C-33.524-12.522-39.13-6.916-53.217 0c14.087 6.916 19.693 12.522 26.608 26.609C-19.693 12.522-14.087 6.916 0 0" clip-path="url(#i)" style="fill:#feffff;fill-opacity:1;fill-rule:nonzero;stroke:none" transform="matrix(1.33333 0 0 -1.33333 397.459 416.393)"/><path d="M0 0c-5.867-2.89-11.638-6.191-16.297-10.85s-7.96-10.43-10.85-16.297h2.591c-2.891 5.867-6.191 11.639-10.85 16.297S-45.836-2.89-51.703 0v-2.59C-45.836.3-40.065 3.6-35.406 8.259s7.959 10.43 10.85 16.297h-2.591c2.89-5.867 6.191-11.638 10.85-16.297S-5.867.3 0-2.59C1.726-3.441 3.248-.854 1.514 0c-5.64 2.779-11.21 5.901-15.69 10.38s-7.602 10.05-10.38 15.691c-.483.979-2.108.979-2.591 0-2.778-5.641-5.9-11.211-10.38-15.691-4.48-4.479-10.05-7.601-15.69-10.38-.98-.482-.98-2.108 0-2.59 5.64-2.779 11.21-5.901 15.69-10.381s7.602-10.05 10.38-15.69c.483-.979 2.108-.979 2.591 0 2.778 5.64 5.9 11.21 10.38 15.69S-4.126-5.369 1.514-2.59C3.246-1.737 1.728.851 0 0" clip-path="url(#j)" style="fill:#000;fill-opacity:1;fill-rule:nonzero;stroke:none" transform="matrix(1.33333 0 0 -1.33333 396.45 414.666)"/><path d="M0 0c-14.087-6.916-19.693-12.522-26.609-26.609C-33.524-12.522-39.13-6.916-53.217 0c14.087 6.916 19.693 12.522 26.608 26.609C-19.693 12.522-14.087 6.916 0 0" clip-path="url(#k)" style="fill:#feffff;fill-opacity:1;fill-rule:nonzero;stroke:none" transform="matrix(1.33333 0 0 -1.33333 397.459 611.06)"/><path d="M0 0c-5.867-2.89-11.638-6.191-16.297-10.85s-7.96-10.43-10.85-16.297h2.591c-2.891 5.867-6.191 11.639-10.85 16.297S-45.836-2.89-51.703 0v-2.59C-45.836.3-40.065 3.6-35.406 8.259s7.959 10.43 10.85 16.297h-2.591c2.89-5.867 6.191-11.638 10.85-16.297S-5.867.3 0-2.59C1.726-3.441 3.248-.854 1.514 0c-5.64 2.779-11.21 5.901-15.69 10.38s-7.602 10.05-10.38 15.691c-.483.979-2.108.979-2.591 0-2.778-5.641-5.9-11.211-10.38-15.691-4.48-4.479-10.05-7.601-15.69-10.38-.98-.482-.98-2.108 0-2.59 5.64-2.779 11.21-5.901 15.69-10.381s7.602-10.05 10.38-15.69c.483-.979 2.108-.979 2.591 0 2.778 5.64 5.9 11.21 10.38 15.69S-4.126-5.369 1.514-2.59C3.246-1.737 1.728.851 0 0" clip-path="url(#l)" style="fill:#000;fill-opacity:1;fill-rule:nonzero;stroke:none" transform="matrix(1.33333 0 0 -1.33333 396.45 609.332)"/><path d="M0 0c-14.087-6.916-19.693-12.522-26.609-26.609C-33.524-12.522-39.13-6.916-53.217 0c14.087 6.916 19.693 12.522 26.608 26.609C-19.693 12.522-14.087 6.916 0 0" clip-path="url(#m)" style="fill:#feffff;fill-opacity:1;fill-rule:nonzero;stroke:none" transform="matrix(1.33333 0 0 -1.33333 1113.459 611.06)"/><path d="M0 0c-5.867-2.89-11.638-6.191-16.297-10.85s-7.96-10.43-10.85-16.297h2.591c-2.891 5.867-6.191 11.639-10.85 16.297S-45.836-2.89-51.703 0v-2.59C-45.836.3-40.065 3.6-35.406 8.259s7.959 10.43 10.85 16.297h-2.591c2.89-5.867 6.191-11.638 10.85-16.297S-5.867.3 0-2.59C1.726-3.441 3.248-.854 1.514 0c-5.64 2.779-11.21 5.901-15.69 10.38s-7.602 10.05-10.38 15.691c-.483.979-2.108.979-2.591 0-2.778-5.641-5.9-11.211-10.38-15.691-4.48-4.479-10.05-7.601-15.69-10.38-.98-.482-.98-2.108 0-2.59 5.64-2.779 11.21-5.901 15.69-10.381s7.602-10.05 10.38-15.69c.483-.979 2.108-.979 2.591 0 2.778 5.64 5.9 11.21 10.38 15.69S-4.126-5.369 1.514-2.59C3.246-1.737 1.728.851 0 0" clip-path="url(#n)" style="fill:#000;fill-opacity:1;fill-rule:nonzero;stroke:none" transform="matrix(1.33333 0 0 -1.33333 1112.45 609.332)"/><path d="M0 0c-14.087-6.916-19.693-12.522-26.609-26.609C-33.524-12.522-39.13-6.916-53.217 0c14.087 6.916 19.693 12.522 26.608 26.609C-19.693 12.522-14.087 6.916 0 0" clip-path="url(#o)" style="fill:#feffff;fill-opacity:1;fill-rule:nonzero;stroke:none" transform="matrix(1.33333 0 0 -1.33333 1114.792 416.393)"/><path d="M0 0c-5.867-2.89-11.638-6.191-16.297-10.85s-7.96-10.43-10.85-16.297h2.591c-2.891 5.867-6.191 11.639-10.85 16.297S-45.836-2.89-51.703 0v-2.59C-45.836.3-40.065 3.6-35.406 8.259s7.959 10.43 10.85 16.297h-2.591c2.89-5.867 6.191-11.638 10.85-16.297S-5.867.3 0-2.59C1.726-3.441 3.248-.854 1.514 0c-5.64 2.779-11.21 5.901-15.69 10.38s-7.602 10.05-10.38 15.691c-.483.979-2.108.979-2.591 0-2.778-5.641-5.9-11.211-10.38-15.691-4.48-4.479-10.05-7.601-15.69-10.38-.98-.482-.98-2.108 0-2.59 5.64-2.779 11.21-5.901 15.69-10.381s7.602-10.05 10.38-15.69c.483-.979 2.108-.979 2.591 0 2.778 5.64 5.9 11.21 10.38 15.69S-4.126-5.369 1.514-2.59C3.246-1.737 1.728.851 0 0" clip-path="url(#p)" style="fill:#000;fill-opacity:1;fill-rule:nonzero;stroke:none" transform="matrix(1.33333 0 0 -1.33333 1113.783 414.666)"/><path d="M0 0c0 49.706-58.865 90-131.478 90-72.614 0-131.479-40.294-131.479-90Z" clip-path="url(#q)" style="fill:#3bb4fb;fill-opacity:1;fill-rule:nonzero;stroke:none" transform="matrix(1.33333 0 0 -1.33333 883.276 350.19)"/><path d="M0 0c-.048 20.496-10.151 39.151-24.674 53.139-17.18 16.547-39.676 27.065-62.627 32.828-26.661 6.695-54.985 7.313-81.958 2.087-23.837-4.619-47.314-14.087-66.139-29.665-15.672-12.97-27.828-30.764-30.16-51.328A64 64 0 0 1-265.957 0a1.52 1.52 0 0 1 1.5-1.5h252.283c3.407 0 6.821-.065 10.227 0 .149.003.298 0 .447 0 1.93 0 1.934 3 0 3h-252.282c-3.385 0-6.848.214-10.227 0-.148-.009-.299 0-.448 0l1.5-1.5c.047 19.836 9.947 37.766 24.03 51.243 16.885 16.158 38.962 26.335 61.454 31.928 26.008 6.467 53.675 7.086 79.978 1.99 23.299-4.514 46.397-13.652 64.815-28.894C-17.682 43.856-5.638 26.81-3.399 7.061A64 64 0 0 0-3 0c.005-1.93 3.005-1.934 3 0" clip-path="url(#r)" style="fill:#000;fill-opacity:1;fill-rule:nonzero;stroke:none" transform="matrix(1.33333 0 0 -1.33333 885.276 350.19)"/><path d="M26.438.001H4.219Q2.414.002 2.415-1.804v-6.082Q2.414-9.7 4.219-9.702h5.637v-16.781H5.227q-1.805.001-1.805-1.817v-6.082q-.001-1.803 1.805-1.804h14.578q1.803.001 1.805 1.804v24.68h4.828q1.803 0 1.805 1.816v6.082Q28.24.001 26.438.001m24.325-13.676q-2.51.763-6.387.762-4.525.002-7.113-1.008-2.58-1.005-3.633-3.035-1.054-2.039-1.054-5.004v-4.828q0-3.069 1.195-5.356 1.205-2.283 4.348-3.539 3.15-1.253 8.93-1.253 4.614 0 7.581.726 2.976.728 4.606 2.063 1.628 1.325 2.262 3.187.632 1.864.632 4.172V-10.3q0 3.059-1.113 5.38-1.102 2.31-3.797 3.62Q54.536 0 49.755.001H38.201q-1.805.001-1.805-1.805v-5.941q-.001-1.803 1.805-1.805h9.398q1.862.001 2.508-.574.655-.584.656-2.437zm0-9.34v-2.964q-.001-.81-.574-1.336-.575-.528-2.79-.528-2.263 0-2.87.528a1.7 1.7 0 0 0-.598 1.336v2.964q0 .75.598 1.278.607.527 2.87.527 2.215 0 2.79-.527.572-.527.574-1.278m34.834 9.34q-2.51.763-6.387.762-4.525.002-7.113-1.008-2.58-1.005-3.633-3.035-1.054-2.039-1.054-5.004v-4.828q0-3.069 1.195-5.356 1.205-2.283 4.348-3.539 3.15-1.253 8.93-1.253 4.614 0 7.581.726 2.976.728 4.606 2.063 1.628 1.325 2.262 3.187.632 1.864.632 4.172V-10.3q0 3.059-1.113 5.38-1.102 2.31-3.797 3.62Q89.37 0 84.59.001H73.035q-1.806.001-1.805-1.805v-5.941q-.001-1.803 1.805-1.805h9.398q1.862.001 2.508-.574.655-.584.656-2.437zm0-9.34v-2.964q-.001-.81-.574-1.336-.575-.528-2.79-.528-2.263 0-2.87.528a1.7 1.7 0 0 0-.598 1.336v2.964q0 .75.598 1.278.607.527 2.87.527 2.215 0 2.79-.527.572-.527.574-1.278m47.898 13.512q-.002 2.321-.68 4.207-.667 1.877-2.356 3.235Q128.772-.7 125.784.024q-2.99.727-7.618.727-4.618 0-7.64-.727c-2.01-.483-3.574-1.177-4.7-2.085q-1.678-1.359-2.355-3.235-.68-1.886-.68-4.207v-17.133q0-2.306.68-4.195.677-1.885 2.356-3.246 1.687-1.357 4.699-2.11 3.022-.748 7.64-.75 4.628.002 7.618.75 2.988.753 4.675 2.11 1.687 1.362 2.356 3.246.678 1.889.68 4.195zm-19.348-1.805q-.002 1.011.727 1.688.726.68 3.292.68 2.612 0 3.317-.68.703-.677.703-1.688V-24.83q0-1.006-.703-1.652-.704-.656-3.317-.657c-1.71 0-2.81.22-3.292.657q-.729.645-.727 1.652zm0 0" aria-label="1990" style="fill:#feffff;fill-opacity:1;fill-rule:nonzero;stroke:none" transform="translate(615.43 326.08)scale(1.33333)"/><path d="M0 0v6.082q0 1.809-1.81 1.809h-4.825v24.68q0 1.809-1.809 1.809h-14.577q-1.809 0-1.809-1.809v-6.082q0-1.809 1.809-1.809h4.625V7.891h-5.63q-1.809 0-1.809-1.809V0q0-1.81 1.809-1.81H-1.81Q0-1.81 0 0Z" clip-path="url(#s)" style="fill:none;stroke:#000;stroke-width:3;stroke-linecap:butt;stroke-linejoin:miter;stroke-miterlimit:10;stroke-dasharray:none;stroke-opacity:1" transform="matrix(1.33333 0 0 -1.33333 653.093 323.668)"/><path d="M0 0q0-1.86-.653-2.438-.654-.578-2.513-.578h-9.399q-1.81 0-1.81-1.809v-5.931q0-1.81 1.81-1.81h11.56q4.775 0 7.464 1.307t3.795 3.619 1.106 5.378v16.487q0 2.312-.629 4.171-.627 1.86-2.261 3.192-1.633 1.332-4.6 2.061t-7.589.729q-5.781-.001-8.922-1.256-3.141-1.258-4.348-3.544-1.206-2.288-1.206-5.353V9.399q0-2.966 1.055-5.001t3.645-3.041Q-10.908.352-6.383.352q3.869 0 6.383.754zm-.578 9.173q-.579-.527-2.789-.527-2.262 0-2.865.527-.604.528-.604 1.282v2.965q0 .804.604 1.332.603.528 2.865.528 2.21 0 2.789-.528Q0 14.224 0 13.42v-2.965q0-.754-.578-1.282Z" clip-path="url(#t)" style="fill:none;stroke:#000;stroke-width:3;stroke-linecap:butt;stroke-linejoin:miter;stroke-miterlimit:10;stroke-dasharray:none;stroke-opacity:1" transform="matrix(1.33333 0 0 -1.33333 683.117 309.326)"/><path d="M0 0q0-1.86-.653-2.438-.654-.578-2.513-.578h-9.399q-1.81 0-1.81-1.809v-5.931q0-1.81 1.81-1.81h11.56q4.775 0 7.464 1.307t3.795 3.619 1.106 5.378v16.487q0 2.312-.629 4.171-.627 1.86-2.261 3.192-1.633 1.332-4.6 2.061t-7.589.729q-5.781-.001-8.922-1.256-3.141-1.258-4.348-3.544-1.206-2.288-1.206-5.353V9.399q0-2.966 1.055-5.001t3.645-3.041Q-10.908.352-6.383.352q3.869 0 6.383.754zm-.578 9.173q-.579-.527-2.789-.527-2.262 0-2.865.527-.604.528-.604 1.282v2.965q0 .804.604 1.332.603.528 2.865.528 2.21 0 2.789-.528Q0 14.224 0 13.42v-2.965q0-.754-.578-1.282Z" clip-path="url(#u)" style="fill:none;stroke:#000;stroke-width:3;stroke-linecap:butt;stroke-linejoin:miter;stroke-miterlimit:10;stroke-dasharray:none;stroke-opacity:1" transform="matrix(1.33333 0 0 -1.33333 729.56 309.326)"/><path d="M0 0q0 2.311-.679 4.197-.68 1.886-2.362 3.242-1.685 1.358-4.675 2.111t-7.615.754-7.64-.754q-3.016-.753-4.7-2.111-1.684-1.356-2.362-3.242T-30.712 0v-17.14q0-2.312.679-4.197.678-1.884 2.362-3.242 1.684-1.357 4.7-2.086t7.64-.729 7.615.729q2.99.73 4.675 2.086 1.683 1.358 2.362 3.242Q0-19.452 0-17.14Zm-19.352-1.809q0 1.005.729 1.659.728.653 3.292.653 2.613 0 3.317-.653.704-.654.704-1.659V-15.33q0-1.006-.704-1.684t-3.317-.679q-2.564 0-3.292.679a2.2 2.2 0 0 0-.729 1.684z" clip-path="url(#v)" style="fill:none;stroke:#000;stroke-width:3;stroke-linecap:butt;stroke-linejoin:miter;stroke-miterlimit:10;stroke-dasharray:none;stroke-opacity:1" transform="matrix(1.33333 0 0 -1.33333 793.428 290.561)"/><path d="M41.061-.001H20.167Q11.799 0 7.815-3.317q-3.972-3.315-3.972-10.22V-34.23q0-6.89 3.972-10.207 3.984-3.316 12.352-3.317h16.582q2.378 0 2.379 2.39v8.016q0 2.391-2.379 2.391H22.944q-4.043.001-4.043 3.316v15.856q-.001 3.247 3.047 3.246h6.434v-10.348q0-2.378 2.39-2.379h10.29q2.377 0 2.378 2.38v20.495Q43.44 0 41.061 0m24.003-2.39q0 2.39-2.39 2.39h-9.75q-2.381 0-2.38-2.39V-19.9q-.001-1.992.622-4.57.631-2.589 1.957-6.048L58.9-45.563q.726-2.191 3.375-2.192h17.848q2.588.002 3.316 2.192l5.766 15.046q1.334 3.46 1.957 6.047.633 2.58.633 4.57v17.508Q91.795 0 89.405 0h-10.01q-2.591 0-2.59-2.39v-9.282h-11.74Zm3.786-31.442-3.118 10.09H76.14l-3.118-10.09q-.457-1.125-1.253-1.125h-1.665q-.798 0-1.253 1.125M112.23-.001h-9.891q-2.381 0-2.38-2.39v-42.973q-.001-2.39 2.38-2.39h10.687q1.979 0 3.047 1.991l5.965 10.805q.338.598.563.867.233.259.632.258h.598q.396 0 .633-.258.233-.27.562-.867l5.907-10.805q1.053-1.991 3.046-1.992h10.747q2.39 0 2.39 2.39v42.973q0 2.391-2.39 2.391h-10.22q-2.38 0-2.378-2.39v-23.344l-3.914 7.23q-1.138 2.122-3.516 2.121h-2.66q-2.382 0-3.516-2.12l-3.914-7.231v23.343Q114.608 0 112.23 0m77.203 0h-30.786q-2.38 0-2.378-2.39v-42.973q-.002-2.39 2.378-2.39h30.786q2.378 0 2.378 2.39v7.758q0 2.39-2.378 2.39h-18.317v5.098h12.938q2.39 0 2.39 2.39v7.102q0 2.38-2.39 2.379h-12.938v5.707h18.317q2.378 0 2.378 2.39v7.758q0 2.391-2.378 2.391m59.425-47.754h9.88q2.39 0 2.39 2.39v25.735q0 2.121-.14 3.95-.133 1.817-1.055 4.265l-3.317 9.023q-.33.996-.96 1.7-.634.692-1.688.691h-8.824q-1.068 0-1.899-.457-.821-.466-1.16-1.535l-3.047-10.805q-.33-1.136-1.195-1.137h-.598q-.857.001-1.195 1.137l-3.117 10.805Q232.334 0 230.155-.001h-8.754q-1.067.001-1.828-.656-.764-.668-1.101-1.735l-3.317-9.152q-.856-2.449-1.02-4.277a44 44 0 0 1-.163-3.95v-25.593c0-1.594.79-2.39 2.379-2.39h10.218q2.39 0 2.39 2.39v24.398l3.845-8.355q.526-1.126 1.382-1.582c.578-.31 1.29-.47 2.133-.47h2.79c.881 0 1.596.16 2.144.47q.83.456 1.371 1.582l3.844 8.355v-24.398q0-2.39 2.39-2.39m34.354 45.363q0 2.391-2.39 2.391h-9.75q-2.382 0-2.38-2.39V-19.9q-.002-1.992.621-4.57.632-2.589 1.957-6.048l5.778-15.046q.724-2.191 3.375-2.192h17.847q2.588.002 3.317 2.192l5.766 15.046q1.333 3.46 1.957 6.047.632 2.58.632 4.57v17.508q0 2.391-2.39 2.391h-10.008q-2.592 0-2.59-2.39v-9.282h-11.742zm3.785-31.441-3.117 10.09h10.406l-3.117-10.09q-.458-1.125-1.254-1.125h-1.664q-.799 0-1.254 1.125M338-.001h-10.746q-2.39 0-2.39-2.39v-32.567h-9.75q-2.391 0-2.391-2.39v-8.016q0-2.39 2.39-2.39h35.028q2.378 0 2.378 2.39v8.015q0 2.391-2.378 2.391h-9.75v32.566Q340.39 0 338 0m52.4 0h-16.183q-8.368.001-12.352-3.316-3.972-3.315-3.972-10.22V-34.16q0-6.96 3.972-10.277 3.984-3.316 12.352-3.317H390.4q2.379 0 2.38 2.39v8.016q-.001 2.391-2.38 2.391h-13.336q-4.043.001-4.043 3.316v15.786q0 3.188 4.043 3.187H390.4q2.379 0 2.38 2.39v7.887Q392.778 0 390.4 0m22.55 0h-10.289q-2.38 0-2.379-2.39v-42.973q-.002-2.39 2.38-2.39h10.288q2.379 0 2.38 2.39v14.39h11.085v-14.39q-.001-2.39 2.379-2.39h10.289q2.378 0 2.379 2.39v42.972q0 2.391-2.379 2.391h-10.29q-2.38 0-2.378-2.39v-14.72h-11.086v14.72q0 2.39-2.379 2.39m0 0" aria-label="GAME WATCH" style="fill:#feffff;fill-opacity:1;fill-rule:nonzero;stroke:none" transform="translate(423.369 455.423)scale(1.33333)"/><path d="M0 0v20.495q0 2.388-2.388 2.388h-10.28q-2.388 0-2.388-2.388V10.147h-6.433q-3.051 0-3.051 3.25V29.25q0 3.316 4.046 3.316h13.796q2.388 0 2.387 2.388v8.025q0 2.388-2.387 2.388H-23.28q-8.358 0-12.337-3.316-3.98-3.318-3.98-10.214V11.143q0-6.899 3.98-10.214 3.98-3.318 12.337-3.317h20.892Q0-2.388 0 0Z" clip-path="url(#w)" style="fill:none;stroke:#000;stroke-width:3;stroke-linecap:butt;stroke-linejoin:miter;stroke-miterlimit:10;stroke-dasharray:none;stroke-opacity:1" transform="matrix(1.33333 0 0 -1.33333 481.293 452.24)"/><path d="M0 0h11.739v-9.286q0-2.388 2.587-2.388h10.015q2.389 0 2.388 2.388v17.51q0 1.99-.63 4.577-.631 2.585-1.956 6.035l-5.771 15.057q-.73 2.188-3.316 2.188H-2.786q-2.654 0-3.383-2.188l-5.77-15.057q-1.327-3.45-1.957-6.035-.63-2.587-.629-4.577v-17.51q0-2.388 2.387-2.388h9.75Q0-11.674 0-9.286zm5.04 23.28h1.658q.796 0 1.261-1.128l3.117-10.081H.663L3.78 22.152q.464 1.128 1.26 1.128z" clip-path="url(#x)" style="fill:none;stroke:#000;stroke-width:3;stroke-linecap:butt;stroke-linejoin:miter;stroke-miterlimit:10;stroke-dasharray:none;stroke-opacity:1" transform="matrix(1.33333 0 0 -1.33333 510.122 439.858)"/><path d="M0 0v23.347l3.913-7.23q1.128-2.123 3.516-2.122h2.653q2.388-.001 3.515 2.122l3.914 7.23V0q0-2.388 2.387-2.388h10.214Q32.5-2.388 32.5 0v42.979q0 2.388-2.388 2.388H19.367q-1.99 0-3.051-1.99l-5.903-10.811q-.332-.598-.563-.862-.234-.267-.63-.266h-.597q-.4 0-.631.266-.233.264-.563.862l-5.97 10.811q-1.06 1.99-3.051 1.99h-10.679q-2.387 0-2.387-2.388V0q0-2.388 2.387-2.388h9.883Q0-2.388 0 0Z" clip-path="url(#y)" style="fill:none;stroke:#000;stroke-width:3;stroke-linecap:butt;stroke-linejoin:miter;stroke-miterlimit:10;stroke-dasharray:none;stroke-opacity:1" transform="matrix(1.33333 0 0 -1.33333 576.182 452.24)"/><path d="M0 0v7.76q0 2.388-2.388 2.387h-18.305v5.705H-7.76q2.388 0 2.388 2.387v7.098q0 2.388-2.388 2.388h-12.933v5.106h18.305Q0 32.831 0 35.219v7.76q0 2.388-2.388 2.388h-30.775q-2.388 0-2.388-2.388V0q0-2.388 2.388-2.388h30.775Q0-2.388 0 0Z" clip-path="url(#z)" style="fill:none;stroke:#000;stroke-width:3;stroke-linecap:butt;stroke-linejoin:miter;stroke-miterlimit:10;stroke-dasharray:none;stroke-opacity:1" transform="matrix(1.33333 0 0 -1.33333 679.12 452.24)"/><path d="M0 0v-24.408l-3.847 8.357q-.53 1.126-1.36 1.592-.83.464-2.155.464h-2.786q-1.26 0-2.123-.464-.862-.466-1.392-1.592l-3.847-8.357V0q0 2.388-2.388 2.388h-10.214Q-32.5 2.388-32.5 0v-25.602q0-2.123.166-3.947.164-1.824 1.028-4.277l3.316-9.153q.332-1.064 1.094-1.725.762-.663 1.825-.663h8.755q2.188 0 2.786 1.99l3.117 10.811q.331 1.128 1.193 1.128h.598q.86 0 1.193-1.128l3.051-10.811q.33-1.062 1.161-1.526.829-.465 1.891-.464h8.821q1.06 0 1.692.696.628.697.96 1.692l3.317 9.02q.929 2.453 1.061 4.278.133 1.823.133 3.947V0q0 2.388-2.387 2.388H2.388Q0 2.388 0 0Z" clip-path="url(#A)" style="fill:none;stroke:#000;stroke-width:3;stroke-linecap:butt;stroke-linejoin:miter;stroke-miterlimit:10;stroke-dasharray:none;stroke-opacity:1" transform="matrix(1.33333 0 0 -1.33333 751.99 394.934)"/><path d="M0 0h11.739v-9.286q0-2.388 2.587-2.388h10.015q2.389 0 2.388 2.388v17.51q0 1.99-.63 4.577-.631 2.585-1.956 6.035l-5.771 15.057q-.73 2.188-3.316 2.188H-2.786q-2.654 0-3.383-2.188l-5.77-15.057q-1.327-3.45-1.957-6.035-.63-2.587-.629-4.577v-17.51q0-2.388 2.387-2.388h9.75Q0-11.674 0-9.286zm5.04 23.28h1.658q.796 0 1.261-1.128l3.117-10.081H.663L3.78 22.152q.464 1.128 1.26 1.128z" clip-path="url(#B)" style="fill:none;stroke:#000;stroke-width:3;stroke-linecap:butt;stroke-linejoin:miter;stroke-miterlimit:10;stroke-dasharray:none;stroke-opacity:1" transform="matrix(1.33333 0 0 -1.33333 800.982 439.858)"/><path d="M0 0v32.566h9.75q2.388 0 2.388 2.388v8.025q0 2.388-2.388 2.388h-35.02q-2.387 0-2.387-2.388v-8.025q0-2.388 2.387-2.388h9.75V0q0-2.388 2.388-2.388h10.744Q0-2.388 0 0Z" clip-path="url(#C)" style="fill:none;stroke:#000;stroke-width:3;stroke-linecap:butt;stroke-linejoin:miter;stroke-miterlimit:10;stroke-dasharray:none;stroke-opacity:1" transform="matrix(1.33333 0 0 -1.33333 877.212 452.24)"/><path d="M0 0v7.893q0 2.387-2.388 2.387h-13.331q-4.046 0-4.046 3.184V29.25q0 3.316 4.046 3.316h13.331Q0 32.566 0 34.954v8.025q0 2.388-2.388 2.388h-16.183q-8.358 0-12.337-3.316-3.98-3.318-3.98-10.28V11.143q0-6.899 3.98-10.214 3.98-3.318 12.337-3.317h16.183Q0-2.388 0 0Z" clip-path="url(#D)" style="fill:none;stroke:#000;stroke-width:3;stroke-linecap:butt;stroke-linejoin:miter;stroke-miterlimit:10;stroke-dasharray:none;stroke-opacity:1" transform="matrix(1.33333 0 0 -1.33333 947.077 452.24)"/><path d="M0 0v14.725h11.076V0q0-2.388 2.388-2.388h10.28q2.388 0 2.388 2.388v42.979q0 2.388-2.388 2.388h-10.28q-2.388 0-2.388-2.388V28.587H0v14.392q0 2.388-2.388 2.388h-10.281q-2.388 0-2.388-2.388V0q0-2.388 2.388-2.388h10.281Q0-2.388 0 0Z" clip-path="url(#E)" style="fill:none;stroke:#000;stroke-width:3;stroke-linecap:butt;stroke-linejoin:miter;stroke-miterlimit:10;stroke-dasharray:none;stroke-opacity:1" transform="matrix(1.33333 0 0 -1.33333 977.145 452.24)"/><path d="M0 0h-174.671c-63.694 0-115.328 51.634-115.328 115.328v336.004c0 18.477 14.979 33.456 33.456 33.456h174.671c63.694 0 115.328-51.634 115.328-115.328V33.456C33.456 14.979 18.477 0 0 0" clip-path="url(#F)" style="fill:#e51f37;fill-opacity:1;fill-rule:nonzero;stroke:none" transform="matrix(1.33333 0 0 -1.33333 913.06 1209.81)"/><path d="M0 0h-166.655c-8.173 0-16.298-.02-24.42 1.162-40.884 5.948-76.279 34.607-90.487 73.43-4.735 12.941-6.937 26.53-6.937 40.29v331.289c0 1.132-.006 2.263 0 3.395.038 6.864 2.059 13.484 6.101 19.062 5.993 8.273 15.698 13.073 25.862 13.16 1.344.012 2.688 0 4.032 0h112.108c19.252 0 38.503.009 57.755 0 37.105-.016 72.473-17.876 93.886-48.335 11.842-16.844 18.993-36.795 20.428-57.344.327-4.693.283-9.387.283-14.086V65.669c0-11.158.072-22.319 0-33.477C31.842 14.552 17.691.177 0 0c-1.929-.019-1.934-3.019 0-3 19.213.192 34.805 15.818 34.956 35.031.025 3.111 0 6.223 0 9.333v301.797c0 12.12.631 24.553-.6 36.632-4.156 40.772-30.2 77.282-67.488 94.365-15.507 7.105-32.331 10.62-49.371 10.63-6.456.004-12.912 0-19.368 0h-151.098c-1.643 0-3.294.039-4.936-.027-10.159-.407-19.795-5.309-26.086-13.299-5.694-7.231-7.508-15.703-7.508-24.649V152.251c0-12.551-.006-25.103 0-37.654.016-35.383 15.797-69.372 43.423-91.651 15.803-12.743 34.821-21.311 54.889-24.478C-184.503-2.902-175.835-3-167.086-3H0c1.93 0 1.934 3 0 3" clip-path="url(#G)" style="fill:#000;fill-opacity:1;fill-rule:nonzero;stroke:none" transform="matrix(1.33333 0 0 -1.33333 913.06 1207.81)"/><path d="m0 0-186.708 132.691 21.803 30.68L21.804 30.68Z" clip-path="url(#H)" style="fill:#feffff;fill-opacity:1;fill-rule:nonzero;stroke:none" transform="matrix(1.33333 0 0 -1.33333 1064.333 1038.687)"/><path d="m0 0-5.01 3.561-13.568 9.642-20.136 14.311-24.476 17.394-26.804 19.049-27.159 19.302-25.23 17.931-21.401 15.209-15.331 10.895c-2.405 1.71-4.76 3.625-7.276 5.171-.11.068-.212.151-.317.226l.538-2.053 19.074 26.84 2.73 3.84-2.053-.538 5.01-3.56 13.568-9.643 20.137-14.311 24.475-17.394 26.804-19.049 27.159-19.301 25.23-17.931 21.401-15.21 15.331-10.895c2.406-1.71 4.76-3.625 7.276-5.171.11-.068.212-.151.317-.226l-.538 2.053L.677 3.302l-2.729-3.84C-3.173-2.115-.572-3.615.538-2.052l19.074 26.839 2.73 3.84c.498.702.074 1.618-.538 2.053l-5.01 3.56-13.568 9.643-20.137 14.311-24.475 17.394-26.804 19.049-27.159 19.301-25.23 17.931-21.401 15.209-15.331 10.896c-2.419 1.719-4.795 3.541-7.276 5.171-.108.071-.212.15-.318.226-.701.498-1.617.073-2.052-.539l-19.074-26.839-2.729-3.84c-.499-.702-.074-1.618.538-2.053l5.01-3.56 13.568-9.643 20.136-14.31 24.475-17.395 26.805-19.049 27.158-19.301 25.231-17.931L-9.108 2.806c2.42-1.719 4.795-3.541 7.276-5.171.109-.071.212-.15.318-.225C.062-3.711 1.562-1.11 0 0" clip-path="url(#I)" style="fill:#000;fill-opacity:1;fill-rule:nonzero;stroke:none" transform="matrix(1.33333 0 0 -1.33333 1065.343 1036.96)"/><path d="m0 0-186.708 132.691 8.562 12.048L8.563 12.048Z" clip-path="url(#J)" style="fill:#feffff;fill-opacity:1;fill-rule:nonzero;stroke:none" transform="matrix(1.33333 0 0 -1.33333 1055.462 1140.023)"/><path d="m0 0-5.01 3.561-13.568 9.642-20.136 14.311-24.476 17.394-26.804 19.049-27.159 19.302-25.23 17.931-21.401 15.209-15.331 10.895c-2.405 1.71-4.76 3.625-7.276 5.171-.11.068-.212.151-.317.226l.538-2.052 8.562 12.048-2.052-.538 5.01-3.561 13.568-9.642 20.137-14.311 24.475-17.394 26.804-19.05 27.159-19.301 25.23-17.931 21.401-15.209L-.545 14.854c2.405-1.709 4.76-3.624 7.276-5.171.11-.067.212-.15.317-.225L6.51 11.51-2.052-.538C-3.173-2.115-.572-3.615.538-2.052L9.101 9.996c.498.701.073 1.617-.538 2.052l-5.011 3.561-13.567 9.642-20.137 14.311-24.475 17.394-26.804 19.05-27.159 19.301-25.231 17.931-21.4 15.209-15.331 10.895c-2.42 1.72-4.795 3.541-7.276 5.171-.108.072-.212.151-.318.226-.701.499-1.617.074-2.052-.538l-8.562-12.048c-.499-.702-.074-1.618.538-2.053l5.01-3.56 13.568-9.643 20.136-14.31 24.475-17.395 26.805-19.049 27.158-19.301 25.231-17.931 21.4-15.209L-9.108 2.806c2.42-1.719 4.795-3.541 7.276-5.171.109-.071.212-.15.318-.225C.062-3.711 1.562-1.11 0 0" clip-path="url(#K)" style="fill:#000;fill-opacity:1;fill-rule:nonzero;stroke:none" transform="matrix(1.33333 0 0 -1.33333 1056.472 1138.296)"/><path d="M0 0h-166.655c-8.173 0-16.298-.02-24.42 1.162-40.884 5.948-76.279 34.607-90.487 73.43-4.735 12.941-6.937 26.53-6.937 40.29v331.289c0 1.132-.006 2.263 0 3.395.038 6.864 2.059 13.484 6.101 19.062 5.993 8.273 15.698 13.073 25.862 13.16 1.344.012 2.688 0 4.032 0h112.108c19.252 0 38.503.009 57.755 0 37.105-.016 72.473-17.876 93.886-48.335 11.842-16.844 18.993-36.795 20.428-57.344.327-4.693.283-9.387.283-14.086V65.669c0-11.158.072-22.319 0-33.477C31.842 14.552 17.691.177 0 0c-1.929-.019-1.934-3.019 0-3 19.213.192 34.805 15.818 34.956 35.031.025 3.111 0 6.223 0 9.333v301.797c0 12.12.631 24.553-.6 36.632-4.156 40.772-30.2 77.282-67.488 94.365-15.507 7.105-32.331 10.62-49.371 10.63-6.456.004-12.912 0-19.368 0h-151.098c-1.643 0-3.294.039-4.936-.027-10.159-.407-19.795-5.309-26.086-13.299-5.694-7.231-7.508-15.703-7.508-24.649V152.251c0-12.551-.006-25.103 0-37.654.016-35.383 15.797-69.372 43.423-91.651 15.803-12.743 34.821-21.311 54.889-24.478C-184.503-2.902-175.835-3-167.086-3H0c1.93 0 1.934 3 0 3" clip-path="url(#L)" style="fill:#000;fill-opacity:1;fill-rule:nonzero;stroke:none" transform="matrix(1.33333 0 0 -1.33333 913.06 1207.81)"/><path d="M0 0h-167.661c-61.631 0-111.593 49.962-111.593 111.592v327.155c0 17.879 14.494 32.373 32.373 32.373H-79.22c61.631 0 111.592-49.962 111.592-111.593V32.372C32.372 14.494 17.879 0 0 0" clip-path="url(#M)" style="fill:#ff3342;fill-opacity:1;fill-rule:nonzero;stroke:none" transform="matrix(1.33333 0 0 -1.33333 883.36 1172.252)"/><path d="M0 0h-161.014c-8.849 0-17.624.162-26.378 1.757-39.003 7.105-72.031 35.613-84.646 73.223-3.955 11.79-5.716 24.039-5.716 36.453v322.263c0 1.098-.006 2.195 0 3.293.041 6.632 1.991 13.03 5.897 18.421 5.79 7.99 15.166 12.624 24.983 12.71 1.323.011 2.646 0 3.969 0h108.974c18.09 0 36.179.014 54.269 0 36.972-.03 72.092-18.652 92.453-49.616 11.031-16.774 17.31-36.436 18.012-56.503.123-3.522.069-7.055.069-10.58V63.285c0-10.727.07-21.457 0-32.184C30.762 14.059 17.093.171 0 0c-1.929-.019-1.934-3.019 0-3 18.612.186 33.724 15.324 33.872 33.938.024 3.02 0 6.041 0 9.061v292.65c0 11.045.497 22.259-.276 33.291-2.78 39.682-26.989 75.836-62.664 93.475-15.675 7.75-32.971 11.687-50.445 11.705-5.836.005-11.671 0-17.507 0h-146.343c-1.61 0-3.227.038-4.836-.027-9.606-.385-18.824-4.926-24.893-12.401-5.736-7.065-7.662-15.415-7.662-24.275V111.114c0-33.218 14.141-65.159 39.456-86.853 14.935-12.798 33.136-21.641 52.478-25.28C-179.73-2.729-170.609-3-161.406-3H0c1.93 0 1.934 3 0 3" clip-path="url(#N)" style="fill:#000;fill-opacity:1;fill-rule:nonzero;stroke:none" transform="matrix(1.33333 0 0 -1.33333 883.36 1170.252)"/><path d="M0 0h-224.699a8.307 8.307 0 0 0-8.307 8.307v133.94a8.307 8.307 0 0 0 8.307 8.306H0a8.307 8.307 0 0 0 8.307-8.306V8.307A8.307 8.307 0 0 0 0 0" clip-path="url(#O)" style="fill:#ffe30d;fill-opacity:1;fill-rule:nonzero;stroke:none" transform="matrix(1.33333 0 0 -1.33333 861.877 834.422)"/><path d="M0 0h-223.832c-.849 0-1.677-.012-2.514.2-3.29.833-5.152 3.766-5.16 7.034-.008 3.211 0 6.422 0 9.633V131.71c0 2.938-.018 5.878 0 8.816.023 3.843 2.905 6.961 6.808 7.027.376.007.752 0 1.128 0H-3.59c1.881 0 4.083.236 5.88-.391 2.994-1.044 4.511-3.883 4.517-6.908V9.796c0-.919.005-1.838 0-2.757C6.785 3.181 3.911.081 0 0c-1.928-.04-1.934-3.04 0-3 5.441.113 9.728 4.426 9.807 9.868.011.795 0 1.591 0 2.386v127.551q.002 1.742 0 3.482c-.008 3.323-1.324 6.371-4.039 8.381-2.687 1.988-5.637 1.885-8.729 1.885h-220.725c-.569 0-1.145.017-1.712-.029-5.17-.419-9.038-4.713-9.108-9.859-.037-2.701 0-5.405 0-8.106V16.867c0-3.221-.009-6.443 0-9.665C-234.489 1.292-229.995-3-224.147-3H0c1.93 0 1.934 3 0 3" clip-path="url(#P)" style="fill:#000;fill-opacity:1;fill-rule:nonzero;stroke:none" transform="matrix(1.33333 0 0 -1.33333 861.877 832.422)"/><path d="M641.193 466.513H427.444v125.894h213.749z" clip-path="url(#Q)" style="fill:#3bb4fb;fill-opacity:1;fill-rule:nonzero;stroke:none" transform="matrix(1.33333 0 0 -1.33333 0 1440)"/><path d="M0 0h-205.037c-2.758 0-5.602.2-8.355 0-.118-.009-.239 0-.357 0l1.5-1.5v120.754c0 1.591.213 3.349 0 4.929-.009.068 0 .142 0 .211l-1.5-1.5H-8.712c2.759 0 5.602-.2 8.355 0 .118.008.239 0 .357 0l-1.5 1.5V14.044c0-5.096-.203-10.24 0-15.333.003-.07 0-.141 0-.211 0-1.93 3-1.934 3 0v110.35c0 5.096.203 10.24 0 15.333-.003.07 0 .141 0 .211 0 .811-.687 1.5-1.5 1.5h-205.037c-2.782 0-5.573.064-8.355 0-.119-.003-.238 0-.357 0-.811 0-1.5-.687-1.5-1.5V14.044c0-5.096-.203-10.24 0-15.333.003-.07 0-.141 0-.211 0-.811.687-1.5 1.5-1.5H-8.712c2.782 0 5.573-.064 8.355 0 .119.003.238 0 .357 0 1.93 0 1.934 3 0 3" clip-path="url(#R)" style="fill:#000;fill-opacity:1;fill-rule:nonzero;stroke:none" transform="matrix(1.33333 0 0 -1.33333 854.924 815.983)"/><path d="M641.193 466.513H427.416v5.235h213.777z" clip-path="url(#S)" style="fill:#000;fill-opacity:1;fill-rule:nonzero;stroke:none" transform="matrix(1.33333 0 0 -1.33333 0 1440)"/><path d="M0 0h277.535c3.748 0 7.504-.072 11.251 0 .164.003.328 0 .492 0 1.93 0 1.933 3 0 3H11.743C7.995 3 4.239 3.072.492 3 .328 2.997.164 3 0 3c-1.93 0-1.934-3 0-3" clip-path="url(#T)" style="fill:#000;fill-opacity:1;fill-rule:nonzero;stroke:none" transform="matrix(1.33333 0 0 -1.33333 511.34 607.725)"/><path d="M0 0h-97.591a8.065 8.065 0 0 0 0 16.131H0a8.065 8.065 0 0 0 8.065-8.066A8.065 8.065 0 0 0 0 0" clip-path="url(#U)" style="fill:#ffe30d;fill-opacity:1;fill-rule:nonzero;stroke:none" transform="matrix(1.33333 0 0 -1.33333 776.96 587.602)"/><path d="M0 0h-92.921c-1.502 0-3.004-.011-4.505 0-2.034.015-3.94.81-5.249 2.402-2.165 2.632-1.887 6.574.559 8.919 1.845 1.767 4.053 1.81 6.382 1.81H-.717c.468 0 .947.017 1.413-.03 3.454-.345 6.014-3.462 5.862-6.886C6.403 2.715 3.425.073 0 0c-1.928-.041-1.934-3.041 0-3 3.815.081 7.283 2.277 8.79 5.822 1.47 3.46.749 7.509-1.8 10.272-2.281 2.471-5.325 3.037-8.489 3.037H-82.06c-5.105 0-10.212.032-15.317 0-6.02-.038-10.666-5.335-9.609-11.34C-106.127-.091-101.717-3-96.988-3H0c1.93 0 1.934 3 0 3" clip-path="url(#V)" style="fill:#000;fill-opacity:1;fill-rule:nonzero;stroke:none" transform="matrix(1.33333 0 0 -1.33333 776.96 585.602)"/><path d="M0 0c0-25.538-20.703-46.241-46.241-46.241-25.539 0-46.242 20.703-46.242 46.241s20.703 46.241 46.242 46.241S0 25.538 0 0" clip-path="url(#W)" style="fill:#ffe30d;fill-opacity:1;fill-rule:nonzero;stroke:none" transform="matrix(1.33333 0 0 -1.33333 684.835 971.036)"/><path d="M0 0c-.069-18.563-11.862-35.693-29.388-42.043-17.747-6.429-37.956-.86-49.962 13.674-11.901 14.408-13.363 35.441-3.744 51.423 9.65 16.034 28.868 24.55 47.231 20.81C-17.674 40.16-3.405 25.19-.514 6.865-.156 4.596-.009 2.296 0 0c.007-1.93 3.007-1.934 3 0-.074 19.852-12.648 37.918-31.277 44.821-18.767 6.954-40.617 1.005-53.298-14.457-12.703-15.49-14.444-37.898-4.024-55.072 10.403-17.149 30.894-26.049 50.534-22.049C-15.846-42.843-.484-26.732 2.431-7.324A50.4 50.4 0 0 1 3 0C3.007 1.931.007 1.933 0 0" clip-path="url(#X)" style="fill:#000;fill-opacity:1;fill-rule:nonzero;stroke:none" transform="matrix(1.33333 0 0 -1.33333 682.835 971.036)"/><path d="M0 0c0-17.719-14.364-32.082-32.082-32.082-17.719 0-32.082 14.363-32.082 32.082s14.363 32.082 32.082 32.082C-14.364 32.082 0 17.719 0 0" clip-path="url(#Y)" style="fill:#ffe30d;fill-opacity:1;fill-rule:nonzero;stroke:none" transform="matrix(1.33333 0 0 -1.33333 665.956 971.036)"/><path d="M0 0c-.068-12.63-8.027-24.328-19.96-28.693-12.149-4.444-25.959-.691-34.226 9.237-8.198 9.844-9.191 24.275-2.607 35.22 6.595 10.964 19.766 16.798 32.319 14.211C-12.077 27.422-2.379 17.259-.361 4.771-.106 3.194-.009 1.596 0 0c.01-1.93 3.01-1.934 3 0-.075 13.98-8.888 26.656-22.006 31.528-13.14 4.879-28.497.734-37.406-10.076-8.999-10.918-10.273-26.741-2.887-38.871 7.292-11.976 21.548-18.195 35.29-15.516C-10.431-30.288.517-18.921 2.585-5.232 2.847-3.496 2.991-1.755 3 0 3.01 1.931.01 1.933 0 0" clip-path="url(#Z)" style="fill:#000;fill-opacity:1;fill-rule:nonzero;stroke:none" transform="matrix(1.33333 0 0 -1.33333 663.956 971.036)"/><path d="M0 0c0-10.69-8.666-19.357-19.357-19.357S-38.714-10.69-38.714 0s8.667 19.357 19.357 19.357C-8.666 19.357 0 10.69 0 0" clip-path="url(#aa)" style="fill:#ff8fdd;fill-opacity:1;fill-rule:nonzero;stroke:none" transform="matrix(1.33333 0 0 -1.33333 650.064 915.116)"/><path d="M0 0c-.066-7.399-4.699-14.26-11.728-16.781-7.12-2.555-15.147-.341-19.966 5.482-4.749 5.737-5.291 14.143-1.47 20.5 3.804 6.328 11.415 9.784 18.685 8.341C-6.116 15.882-.076 8.502 0 0c.017-1.929 3.017-1.934 3 0-.078 8.737-5.555 16.602-13.773 19.618-8.137 2.986-17.658.374-23.146-6.324-5.533-6.754-6.355-16.49-1.835-24.009 4.531-7.539 13.465-11.422 22.072-9.72C-4.025-18.525 2.913-9.749 3 0 3.017 1.931.017 1.933 0 0" clip-path="url(#ab)" style="fill:#000;fill-opacity:1;fill-rule:nonzero;stroke:none" transform="matrix(1.33333 0 0 -1.33333 648.064 915.116)"/><path d="M0 0c0-10.691-8.666-19.357-19.357-19.357S-38.714-10.691-38.714 0s8.667 19.357 19.357 19.357C-8.666 19.357 0 10.69 0 0" clip-path="url(#ac)" style="fill:#6842d5;fill-opacity:1;fill-rule:nonzero;stroke:none" transform="matrix(1.33333 0 0 -1.33333 650.064 1027.792)"/><path d="M0 0c-.066-7.399-4.699-14.26-11.728-16.781-7.12-2.555-15.147-.341-19.966 5.482-4.749 5.737-5.291 14.143-1.47 20.5 3.804 6.328 11.415 9.784 18.685 8.341C-6.116 15.882-.076 8.502 0 0c.017-1.929 3.017-1.934 3 0-.078 8.737-5.555 16.602-13.773 19.618-8.137 2.986-17.658.374-23.146-6.324-5.533-6.754-6.355-16.49-1.835-24.009 4.531-7.539 13.465-11.422 22.072-9.72C-4.025-18.525 2.913-9.749 3 0 3.017 1.931.017 1.933 0 0" clip-path="url(#ad)" style="fill:#000;fill-opacity:1;fill-rule:nonzero;stroke:none" transform="matrix(1.33333 0 0 -1.33333 648.064 1027.792)"/><path d="M0 0c0-10.691-8.666-19.357-19.357-19.357S-38.714-10.691-38.714 0s8.667 19.357 19.357 19.357C-8.666 19.357 0 10.69 0 0" clip-path="url(#ae)" style="fill:#0aff9f;fill-opacity:1;fill-rule:nonzero;stroke:none" transform="matrix(1.33333 0 0 -1.33333 591.396 970.08)"/><path d="M0 0c-.066-7.399-4.699-14.26-11.728-16.781-7.12-2.555-15.147-.341-19.966 5.482-4.749 5.737-5.291 14.143-1.47 20.5 3.804 6.328 11.415 9.784 18.685 8.341C-6.116 15.882-.076 8.502 0 0c.017-1.929 3.017-1.934 3 0-.078 8.737-5.555 16.602-13.773 19.618-8.137 2.986-17.658.374-23.146-6.324-5.533-6.754-6.355-16.49-1.835-24.009 4.531-7.539 13.465-11.422 22.072-9.72C-4.025-18.525 2.913-9.749 3 0 3.017 1.931.017 1.933 0 0" clip-path="url(#af)" style="fill:#000;fill-opacity:1;fill-rule:nonzero;stroke:none" transform="matrix(1.33333 0 0 -1.33333 589.396 970.08)"/><path d="M0 0c0-10.691-8.666-19.357-19.357-19.357S-38.714-10.691-38.714 0s8.667 19.357 19.357 19.357C-8.666 19.357 0 10.69 0 0" clip-path="url(#ag)" style="fill:#dfff77;fill-opacity:1;fill-rule:nonzero;stroke:none" transform="matrix(1.33333 0 0 -1.33333 708.652 970.08)"/><path d="M0 0c-.066-7.399-4.699-14.26-11.728-16.781-7.12-2.555-15.147-.341-19.966 5.482-4.749 5.737-5.291 14.143-1.47 20.5 3.804 6.328 11.415 9.784 18.685 8.341C-6.116 15.882-.076 8.502 0 0c.017-1.929 3.017-1.934 3 0-.078 8.737-5.555 16.602-13.773 19.618-8.137 2.986-17.658.374-23.146-6.324-5.533-6.754-6.355-16.49-1.835-24.009 4.531-7.539 13.465-11.422 22.072-9.72C-4.025-18.525 2.913-9.749 3 0 3.017 1.931.017 1.933 0 0" clip-path="url(#ah)" style="fill:#000;fill-opacity:1;fill-rule:nonzero;stroke:none" transform="matrix(1.33333 0 0 -1.33333 706.652 970.08)"/><path d="M0 0c-.049-3.607-2.269-6.948-5.706-8.186-3.493-1.259-7.455-.173-9.801 2.71-2.281 2.804-2.537 6.861-.69 9.952 1.83 3.061 5.514 4.783 9.039 4.106C-3.018 7.788-.058 4.199 0 0c.026-1.929 3.027-1.934 3 0-.067 4.896-3.072 9.242-7.655 10.985-4.552 1.732-9.976.276-13.057-3.491-3.105-3.796-3.611-9.241-1.075-13.484 2.53-4.234 7.469-6.377 12.291-5.51C-.996-10.51 2.925-5.499 3 0 3.027 1.931.027 1.932 0 0" clip-path="url(#ai)" style="fill:#000;fill-opacity:1;fill-rule:nonzero;stroke:none" transform="matrix(1.33333 0 0 -1.33333 636.235 914.638)"/><path d="M0 0c-.05-3.607-2.269-6.948-5.706-8.186-3.493-1.259-7.455-.173-9.801 2.71-2.281 2.804-2.537 6.861-.69 9.952 1.83 3.061 5.514 4.783 9.039 4.106C-3.018 7.788-.058 4.199 0 0c.026-1.929 3.027-1.934 3 0-.067 4.896-3.072 9.242-7.655 10.985-4.552 1.732-9.976.276-13.057-3.491-3.105-3.796-3.611-9.241-1.075-13.484 2.53-4.234 7.469-6.377 12.291-5.51C-.996-10.51 2.925-5.499 3 0 3.026 1.931.027 1.932 0 0" clip-path="url(#aj)" style="fill:#000;fill-opacity:1;fill-rule:nonzero;stroke:none" transform="matrix(1.33333 0 0 -1.33333 576.97 969.602)"/><path d="M0 0c-.049-3.607-2.269-6.948-5.706-8.186-3.493-1.259-7.455-.173-9.801 2.71-2.281 2.804-2.537 6.861-.69 9.952 1.83 3.061 5.514 4.783 9.039 4.106C-3.018 7.788-.058 4.199 0 0c.026-1.929 3.027-1.934 3 0-.067 4.896-3.072 9.242-7.655 10.985-4.552 1.732-9.976.276-13.057-3.491-3.105-3.796-3.611-9.241-1.075-13.484 2.53-4.234 7.469-6.377 12.291-5.51C-.996-10.51 2.925-5.499 3 0 3.027 1.931.027 1.932 0 0" clip-path="url(#ak)" style="fill:#000;fill-opacity:1;fill-rule:nonzero;stroke:none" transform="matrix(1.33333 0 0 -1.33333 635.757 1027.434)"/><path d="M0 0c-.049-3.607-2.269-6.948-5.706-8.186-3.493-1.259-7.455-.173-9.801 2.71-2.281 2.804-2.537 6.861-.69 9.952 1.83 3.061 5.514 4.783 9.039 4.106C-3.018 7.788-.058 4.199 0 0c.026-1.929 3.027-1.934 3 0-.067 4.896-3.072 9.242-7.654 10.985-4.553 1.732-9.977.276-13.058-3.491-3.105-3.796-3.611-9.241-1.075-13.484 2.53-4.234 7.469-6.377 12.291-5.51C-.996-10.51 2.925-5.499 3 0 3.027 1.931.027 1.932 0 0" clip-path="url(#al)" style="fill:#000;fill-opacity:1;fill-rule:nonzero;stroke:none" transform="matrix(1.33333 0 0 -1.33333 695.245 969.61)"/><path d="M0 0h-11.964v11.964a8.603 8.603 0 0 1-8.603 8.603h-31.186a8.603 8.603 0 0 1-8.603-8.603V0h-11.963a8.603 8.603 0 0 1-8.603-8.603v-31.186a8.603 8.603 0 0 1 8.603-8.603h11.963v-11.964a8.603 8.603 0 0 1 8.603-8.603h31.186a8.603 8.603 0 0 1 8.603 8.603v11.964H0a8.603 8.603 0 0 1 8.603 8.603v31.186A8.603 8.603 0 0 1 0 0" clip-path="url(#am)" style="fill:#ff8fdd;fill-opacity:1;fill-rule:nonzero;stroke:none" transform="matrix(1.33333 0 0 -1.33333 872.489 932.86)"/><path d="M0 0h-11.964l1.5-1.5v7.463c0 2.682.309 5.631-.698 8.173-1.553 3.922-5.313 6.376-9.498 6.431-1.593.021-3.187 0-4.779 0h-19.346c-5.049 0-10.841.828-14.549-3.433-2.56-2.942-2.522-6.367-2.522-9.996V-1.5l1.5 1.5h-7.463c-2.681 0-5.631.308-8.172-.698-3.923-1.553-6.376-5.314-6.431-9.498-.021-1.593 0-3.187 0-4.78v-19.346c0-5.049-.829-10.84 3.432-14.548 2.942-2.561 6.367-2.522 9.996-2.522h8.638l-1.5 1.5v-7.464c0-2.681-.308-5.63.698-8.172 1.554-3.923 5.314-6.376 9.499-6.431 1.592-.021 3.186 0 4.779 0h19.346c5.049 0 10.841-.828 14.549 3.433 2.56 2.942 2.521 6.367 2.521 9.996v8.638l-1.5-1.5c3.967 0 7.938-.062 11.903 0 3.659.057 7.102 1.951 8.892 5.192 1.002 1.814 1.272 3.771 1.272 5.802v28.031c0 1.675.085 3.37-.376 5.003C8.497-3.002 4.478-.088 0 0c-1.931.038-1.931-2.962 0-3 3.509-.069 6.56-2.609 7.049-6.14.137-.982.054-2.038.054-3.026V-39.16c0-.931.056-1.888-.027-2.818-.317-3.542-3.38-6.316-6.903-6.411-4.04-.109-8.095-.003-12.137-.003-.81 0-1.5-.687-1.5-1.5v-6.851c0-2.327.372-5.12-.364-7.371-1.006-3.079-3.911-4.83-7.046-4.845-1.713-.008-3.425 0-5.137 0h-24.71c-2.437 0-4.685.505-6.386 2.432-2.156 2.441-1.749 5.685-1.749 8.692v7.943c0 .811-.687 1.5-1.5 1.5h-6.851c-2.326 0-5.12-.371-7.37.364-3.079 1.007-4.831 3.911-4.845 7.047-.009 1.712 0 3.424 0 5.136v24.71c0 2.438.504 4.685 2.431 6.387C-74.55-2.593-71.306-3-68.299-3h7.943c.811 0 1.5.687 1.5 1.5v6.851c0 2.326-.371 5.12.365 7.37 1.006 3.079 3.91 4.831 7.046 4.846 1.712.008 3.424 0 5.137 0h24.709c2.438 0 4.686-.505 6.387-2.432 2.155-2.441 1.748-5.685 1.748-8.692V-1.5c0-.811.688-1.5 1.5-1.5H0c1.93 0 1.934 3 0 3" clip-path="url(#an)" style="fill:#000;fill-opacity:1;fill-rule:nonzero;stroke:none" transform="matrix(1.33333 0 0 -1.33333 872.489 930.86)"/><path d="M0 0h47.675c1.931 0 1.934 3 0 3H0c-1.93 0-1.934-3 0-3" clip-path="url(#ao)" style="fill:#000;fill-opacity:1;fill-rule:nonzero;stroke:none" transform="matrix(1.33333 0 0 -1.33333 792.134 921.656)"/><path d="m0 0-.122-16.034-.192-25.416-.044-5.867c-.015-1.931 2.985-1.933 3 0l.121 16.034.193 25.417L3 0C3.015 1.931.015 1.933 0 0" clip-path="url(#ap)" style="fill:#000;fill-opacity:1;fill-rule:nonzero;stroke:none" transform="matrix(1.33333 0 0 -1.33333 778.663 933.039)"/><path d="m0 0-.122-16.034-.192-25.416-.044-5.867c-.015-1.931 2.985-1.933 3 0l.121 16.034.193 25.417L3 0C3.015 1.931.015 1.933 0 0" clip-path="url(#aq)" style="fill:#000;fill-opacity:1;fill-rule:nonzero;stroke:none" transform="matrix(1.33333 0 0 -1.33333 867.522 933.039)"/><path d="m0 0 16.034.121L41.45.314l5.867.044c1.929.015 1.934 3.015 0 3l-16.034-.121-25.417-.193L0 3c-1.93-.015-1.934-3.015 0-3" clip-path="url(#ar)" style="fill:#000;fill-opacity:1;fill-rule:nonzero;stroke:none" transform="matrix(1.33333 0 0 -1.33333 792.612 1012.944)"/><path d="M0 0a9.275 9.275 0 0 0-9.275 9.275v98.398a9.275 9.275 0 1 0 18.55 0V9.275A9.276 9.276 0 0 0 0 0" clip-path="url(#as)" style="fill:#feffff;fill-opacity:1;fill-rule:nonzero;stroke:none" transform="matrix(1.33333 0 0 -1.33333 900.897 846.252)"/><path d="M0 0c-4.688 0-7.775 3.913-7.775 8.351v96.335c0 2.915.505 5.695 2.998 7.634 5.135 3.994 12.478.081 12.552-6.24.017-1.438 0-2.877 0-4.315V10.521c0-1.533.142-3.214-.249-4.705C6.625 2.378 3.515.065 0 0c-1.928-.035-1.934-3.036 0-3 6.094.112 10.748 4.997 10.775 11.043.008 1.751 0 3.502 0 5.253v91.99c0 4.263-1.747 8.289-5.669 10.375-7.133 3.793-15.76-1.491-15.881-9.489-.019-1.236 0-2.474 0-3.71V9.731c0-2.731.133-5.355 1.699-7.763C-7.09-1.086-3.656-3 0-3c1.93 0 1.934 3 0 3" clip-path="url(#at)" style="fill:#000;fill-opacity:1;fill-rule:nonzero;stroke:none" transform="matrix(1.33333 0 0 -1.33333 900.897 844.252)"/><path d="M0 0c-5.494 0-9.947 4.454-9.947 9.947V23.39c0 5.493 4.453 9.947 9.947 9.947s9.947-4.454 9.947-9.947V9.947C9.947 4.454 5.494 0 0 0" clip-path="url(#au)" style="fill:#feffff;fill-opacity:1;fill-rule:nonzero;stroke:none" transform="matrix(1.33333 0 0 -1.33333 900.897 911.133)"/><path d="M0 0c-3.373 0-6.515 2.08-7.813 5.203-.757 1.824-.634 3.756-.634 5.68v7.522c0 1.66-.18 3.494.157 5.132.706 3.434 3.498 6.155 6.975 6.706 3.359.533 6.805-1.085 8.553-3.996 1.147-1.909 1.209-3.918 1.209-6.054v-7.346c0-1.945.242-4.126-.157-6.047C7.468 2.841 4.016.069 0 0c-1.928-.033-1.934-3.033 0-3 4.212.073 8.198 2.357 10.147 6.148 1.228 2.389 1.3 4.849 1.3 7.447v8.454c0 2.455.095 4.859-.867 7.187-1.604 3.877-5.212 6.556-9.372 7.027-4.065.46-8.094-1.404-10.493-4.689-1.761-2.412-2.162-5.158-2.162-8.051v-8.254c0-2.694-.215-5.46.804-8.016C-8.919-.067-4.67-3 0-3c1.93 0 1.934 3 0 3" clip-path="url(#av)" style="fill:#000;fill-opacity:1;fill-rule:nonzero;stroke:none" transform="matrix(1.33333 0 0 -1.33333 900.897 909.133)"/><path d="M0 0h-79.937c-10.096 0-18.281 8.185-18.281 18.281H18.281C18.281 8.185 10.097 0 0 0" clip-path="url(#aw)" style="fill:#0cfae2;fill-opacity:1;fill-rule:nonzero;stroke:none" transform="matrix(1.33333 0 0 -1.33333 763.935 859.276)"/><path d="M0 0h-78.208c-2 0-3.956.02-5.919.528-5.865 1.516-10.547 6.198-12.063 12.063a16.6 16.6 0 0 0-.528 4.19l-1.5-1.5h111.75c1.471 0 3.084-.187 4.546 0 .066.009.137 0 .203 0l-1.5 1.5C16.781 7.565 9.15.086 0 0c-1.929-.018-1.934-3.018 0-3 10.771.101 19.781 8.932 19.781 19.781 0 .811-.687 1.5-1.5 1.5H-83.917c-4.686 0-9.414.185-14.098 0q-.101-.002-.203 0c-.811 0-1.5-.687-1.5-1.5 0-6.281 3.056-12.189 8.07-15.932C-88.153-1.76-83.904-2.994-79.571-3c4.716-.007 9.432 0 14.147 0h51.791C-9.169-3-4.661-3.183-.2-3c.066.003.133 0 .2 0 1.93 0 1.934 3 0 3" clip-path="url(#ax)" style="fill:#000;fill-opacity:1;fill-rule:nonzero;stroke:none" transform="matrix(1.33333 0 0 -1.33333 763.935 857.276)"/><path d="M0 0c0-14.749-14.203-26.705-31.724-26.705-17.52 0-31.724 11.956-31.724 26.705s14.204 26.705 31.724 26.705C-14.203 26.705 0 14.749 0 0" clip-path="url(#ay)" style="fill:#feffff;fill-opacity:1;fill-rule:nonzero;stroke:none" transform="matrix(1.33333 0 0 -1.33333 711.44 716.529)"/><path d="M0 0c-.081-11.547-9.238-20.43-19.778-23.658-11.476-3.514-25.111-1.074-33.724 7.589-3.73 3.752-6.369 8.687-6.852 14.005-.489 5.392 1.081 10.653 4.214 15.043 6.986 9.787 20.303 13.708 31.821 11.753C-13.347 22.869-2.625 15.449-.374 3.994-.114 2.675-.009 1.343 0 0c.013-1.93 3.013-1.934 3 0-.09 12.843-10.06 22.836-21.812 26.498-12.607 3.929-27.681 1.088-37.036-8.536-4.162-4.282-6.908-9.775-7.491-15.74-.578-5.9 1.178-11.909 4.609-16.715 7.8-10.928 22.118-15.287 35.028-13.161C-11.616-25.664.277-17.096 2.577-4.485 2.847-3.004 2.99-1.505 3 0 3.013 1.931.013 1.933 0 0" clip-path="url(#az)" style="fill:#000;fill-opacity:1;fill-rule:nonzero;stroke:none" transform="matrix(1.33333 0 0 -1.33333 709.44 716.529)"/><path d="M0 0c0-10.591-9.205-19.178-20.56-19.178S-41.12-10.591-41.12 0s9.205 19.178 20.56 19.178S0 10.592 0 0" clip-path="url(#aA)" style="fill:#000;fill-opacity:1;fill-rule:nonzero;stroke:none" transform="matrix(1.33333 0 0 -1.33333 696.486 712.705)"/><path d="M0 0c0-3.118-2.407-5.646-5.377-5.646S-10.754-3.118-10.754 0s2.408 5.646 5.377 5.646C-2.407 5.646 0 3.118 0 0" clip-path="url(#aB)" style="fill:#feffff;fill-opacity:1;fill-rule:nonzero;stroke:none" transform="matrix(1.33333 0 0 -1.33333 689.455 719.038)"/><path d="M0 0c0-2.227-1.72-4.033-3.841-4.033S-7.681-2.227-7.681 0s1.719 4.033 3.84 4.033S0 2.227 0 0" clip-path="url(#aC)" style="fill:#feffff;fill-opacity:1;fill-rule:nonzero;stroke:none" transform="matrix(1.33333 0 0 -1.33333 669.108 724.773)"/><path d="M535.014 547.801H466.19v29.394h68.824z" clip-path="url(#aD)" style="fill:#ff3342;fill-opacity:1;fill-rule:nonzero;stroke:none" transform="matrix(1.33333 0 0 -1.33333 0 1440)"/><path d="M0 0h-68.824l1.5-1.5v29.394l-1.5-1.5H0l-1.5 1.5V-1.5c0-1.93 3-1.934 3 0v29.394c0 .811-.687 1.5-1.5 1.5h-68.824c-.811 0-1.5-.688-1.5-1.5V-1.5c0-.811.687-1.5 1.5-1.5H0c1.93 0 1.934 3 0 3" clip-path="url(#aE)" style="fill:#000;fill-opacity:1;fill-rule:nonzero;stroke:none" transform="matrix(1.33333 0 0 -1.33333 713.352 707.598)"/><path d="M0 0c-.081-11.547-9.238-20.43-19.778-23.658-11.476-3.514-25.111-1.074-33.724 7.589-3.73 3.752-6.369 8.687-6.852 14.005-.489 5.392 1.081 10.653 4.214 15.043 6.986 9.787 20.303 13.708 31.821 11.753C-13.347 22.869-2.625 15.449-.374 3.994-.114 2.675-.009 1.343 0 0c.013-1.93 3.013-1.934 3 0-.09 12.843-10.06 22.836-21.812 26.498-12.607 3.929-27.681 1.088-37.036-8.536-4.162-4.282-6.908-9.775-7.491-15.74-.578-5.9 1.178-11.909 4.609-16.715 7.8-10.928 22.118-15.287 35.028-13.161C-11.616-25.664.277-17.096 2.577-4.485 2.847-3.004 2.99-1.505 3 0 3.013 1.931.013 1.933 0 0" clip-path="url(#aF)" style="fill:#000;fill-opacity:1;fill-rule:nonzero;stroke:none" transform="matrix(1.33333 0 0 -1.33333 709.44 716.529)"/><path d="M0 0c0-14.749-14.203-26.705-31.724-26.705-17.52 0-31.724 11.956-31.724 26.705s14.204 26.705 31.724 26.705C-14.203 26.705 0 14.749 0 0" clip-path="url(#aG)" style="fill:#feffff;fill-opacity:1;fill-rule:nonzero;stroke:none" transform="matrix(1.33333 0 0 -1.33333 789.306 716.529)"/><path d="M0 0c-.081-11.547-9.238-20.43-19.778-23.658-11.475-3.514-25.111-1.074-33.724 7.589-3.73 3.752-6.369 8.687-6.852 14.005-.489 5.392 1.081 10.653 4.214 15.043 6.986 9.787 20.303 13.708 31.821 11.753C-13.346 22.869-2.625 15.449-.374 3.994-.114 2.675-.009 1.343 0 0c.013-1.93 3.013-1.934 3 0-.09 12.843-10.06 22.836-21.812 26.498-12.606 3.929-27.681 1.088-37.036-8.536-4.162-4.282-6.908-9.775-7.491-15.74-.577-5.9 1.178-11.909 4.609-16.715 7.8-10.928 22.118-15.287 35.029-13.161C-11.616-25.664.277-17.096 2.577-4.485 2.847-3.004 2.99-1.505 3 0 3.013 1.931.013 1.933 0 0" clip-path="url(#aH)" style="fill:#000;fill-opacity:1;fill-rule:nonzero;stroke:none" transform="matrix(1.33333 0 0 -1.33333 787.306 716.529)"/><path d="M0 0c0-10.591-9.205-19.178-20.56-19.178S-41.12-10.591-41.12 0s9.205 19.178 20.56 19.178S0 10.592 0 0" clip-path="url(#aI)" style="fill:#000;fill-opacity:1;fill-rule:nonzero;stroke:none" transform="matrix(1.33333 0 0 -1.33333 774.352 712.705)"/><path d="M0 0c0-3.118-2.407-5.646-5.377-5.646S-10.754-3.118-10.754 0s2.408 5.646 5.377 5.646C-2.407 5.646 0 3.118 0 0" clip-path="url(#aJ)" style="fill:#feffff;fill-opacity:1;fill-rule:nonzero;stroke:none" transform="matrix(1.33333 0 0 -1.33333 767.32 719.038)"/><path d="M0 0c0-2.227-1.72-4.033-3.841-4.033S-7.681-2.227-7.681 0s1.719 4.033 3.84 4.033S0 2.227 0 0" clip-path="url(#aK)" style="fill:#feffff;fill-opacity:1;fill-rule:nonzero;stroke:none" transform="matrix(1.33333 0 0 -1.33333 746.974 724.773)"/><path d="M593.413 547.801h-68.824v29.394h68.824z" clip-path="url(#aL)" style="fill:#ff3342;fill-opacity:1;fill-rule:nonzero;stroke:none" transform="matrix(1.33333 0 0 -1.33333 0 1440)"/><path d="M0 0h-68.824l1.5-1.5v29.394l-1.5-1.5H0l-1.5 1.5V-1.5c0-1.93 3-1.934 3 0v29.394c0 .811-.687 1.5-1.5 1.5h-68.824c-.811 0-1.5-.688-1.5-1.5V-1.5c0-.811.687-1.5 1.5-1.5H0c1.93 0 1.934 3 0 3" clip-path="url(#aM)" style="fill:#000;fill-opacity:1;fill-rule:nonzero;stroke:none" transform="matrix(1.33333 0 0 -1.33333 791.218 707.598)"/><path d="M0 0c-.081-11.547-9.238-20.43-19.778-23.658-11.475-3.514-25.111-1.074-33.724 7.589-3.73 3.752-6.369 8.687-6.852 14.005-.489 5.392 1.081 10.653 4.214 15.043 6.986 9.787 20.303 13.708 31.821 11.753C-13.346 22.869-2.625 15.449-.374 3.994-.114 2.675-.009 1.343 0 0c.013-1.93 3.013-1.934 3 0-.09 12.843-10.06 22.836-21.812 26.498-12.606 3.929-27.681 1.088-37.036-8.536-4.162-4.282-6.908-9.775-7.491-15.74-.577-5.9 1.178-11.909 4.609-16.715 7.8-10.928 22.118-15.287 35.029-13.161C-11.616-25.664.277-17.096 2.577-4.485 2.847-3.004 2.99-1.505 3 0 3.013 1.931.013 1.933 0 0" clip-path="url(#aN)" style="fill:#000;fill-opacity:1;fill-rule:nonzero;stroke:none" transform="matrix(1.33333 0 0 -1.33333 787.306 716.529)"/><path d="M0 0c0-5.147-6.018-9.32-13.442-9.32S-26.885-5.147-26.885 0s6.019 9.32 13.443 9.32S0 5.147 0 0" clip-path="url(#aO)" style="fill:#ff8fdd;fill-opacity:1;fill-rule:nonzero;stroke:none" transform="matrix(1.33333 0 0 -1.33333 725.221 742.179)"/><path d="M0 0c-.087-4.116-4.383-6.501-7.911-7.355-4.353-1.053-9.65-.466-13.237 2.4-2.925 2.338-3.688 6.11-1.01 8.969 3.092 3.301 8.27 4.244 12.589 3.661C-5.572 7.136-.1 4.721 0 0c.041-1.928 3.041-1.934 3 0-.115 5.44-5.086 8.976-9.933 10.204-5.518 1.398-12.021.517-16.458-3.228-3.912-3.302-4.598-8.692-1.282-12.665 3.63-4.349 10.117-5.654 15.488-4.935C-3.606-9.877 2.865-6.338 3 0 3.041 1.931.041 1.931 0 0" clip-path="url(#aP)" style="fill:#000;fill-opacity:1;fill-rule:nonzero;stroke:none" transform="matrix(1.33333 0 0 -1.33333 723.221 742.179)"/><path d="M0 0c0-1.584-1.852-2.868-4.136-2.868S-8.272-1.584-8.272 0s1.852 2.868 4.136 2.868S0 1.584 0 0" clip-path="url(#aQ)" style="fill:#feffff;fill-opacity:1;fill-rule:nonzero;stroke:none" transform="matrix(1.33333 0 0 -1.33333 707.795 739.072)"/><path d="M0 0c0-.008-.019-.166-.008-.185-.087.151.076.324-.002.083-.018-.056-.042-.117-.052-.175-.034-.179.158.244.043.103-.01-.013-.2-.375-.221-.363-.022.012.259.279.05.076-.073-.07-.139-.145-.213-.213-.039-.035-.115-.12-.157-.135.021.008.291.192.047.046C-.639-.838-.76-.919-.89-.988c-.066-.035-.139-.064-.204-.101.257.147.124.046.038.016-.191-.065-.379-.13-.575-.179a7 7 0 0 0-.243-.055c-.003 0-.409-.065-.176-.034.2.026-.075-.005-.122-.008a6 6 0 0 0-.862-.006q-.13.01-.26.023c.266-.024.022 0-.104.025a5.6 5.6 0 0 0-.927.277c.336-.133-.067.046-.155.095-.08.045-.155.096-.234.143-.184.11-.14.033.002-.017-.119.042-.25.229-.336.312-.25.239.104-.213-.066.078q-.058.102-.119.203c-.109.177.09-.008.038-.105.006.01-.057.179-.056.175l-.023.089q-.047.241.01-.128c.012.021.015.345 0 .37.081-.14-.069-.313-.01-.128.018.055.036.12.049.177.061.253-.013-.095-.049-.101.02.003.093.177.11.206.033.054.074.104.104.159.08.147-.213-.22-.022-.037.109.104.224.208.33.315.135.134-.23-.114-.051-.044.077.031.156.104.228.147.129.077.264.139.396.21-.044-.024-.299-.111-.037-.016q.168.062.34.114.236.071.478.12.123.023.248.044c-.303-.056-.085-.011-.015-.007a7.4 7.4 0 0 0 1.187-.012c-.324.032-.041.002.043-.013q.152-.03.304-.067c.195-.049.385-.112.575-.179.262-.093.007-.008-.038.016.1-.054.203-.099.302-.154A5 5 0 0 0-.469.732Q-.333.636-.56.809c.141-.055.261-.245.37-.348.171-.163-.096.052-.05.077.01.005.15-.229.156-.24.013-.022.079-.164.086-.165-.066.01-.103.352-.036.057.009-.039.029-.202.054-.222C-.054.029-.008.339 0 0c.018-.784.677-1.537 1.5-1.5.797.036 1.519.66 1.5 1.5-.049 2.149-1.869 3.655-3.834 4.145-2.084.519-4.427.135-6.079-1.281A3.92 3.92 0 0 1-8.253.276c-.105-1.014.309-1.984.954-2.746 1.396-1.649 3.809-2.095 5.848-1.792C.738-3.938 2.945-2.391 3 0c.018.785-.703 1.536-1.5 1.5C.672 1.463.019.841 0 0" clip-path="url(#aR)" style="fill:#000;fill-opacity:1;fill-rule:nonzero;stroke:none" transform="matrix(1.33333 0 0 -1.33333 705.795 739.072)"/><path d="M0 0c2.489-4.114 7.538-6.352 12.253-5.226 4.413 1.054 8.971 6.174 13.67 3.681 2.294-1.217 4.155-2.953 6.681-3.751a13.6 13.6 0 0 1 7.79-.087c2.548.742 4.597 2.396 6.922 3.593 1.072.552 2.27.988 3.496.833 1.267-.16 2.388-.895 3.427-1.585C56.714-4.185 59-5.584 62.03-5.883a13.05 13.05 0 0 1 8.503 2.151c1.592 1.074.093 3.674-1.514 2.591-2.064-1.391-4.503-2.032-6.989-1.742-2.513.294-4.392 1.693-6.44 3.04-2.015 1.324-4.208 2.206-6.652 1.782-2.405-.418-4.419-1.91-6.479-3.118-2.238-1.311-4.675-2.003-7.284-1.64-2.497.347-4.37 1.71-6.414 3.058-2.057 1.358-4.256 2.193-6.747 1.831-2.323-.338-4.394-1.549-6.431-2.642-2.191-1.176-4.453-2.26-7.009-1.87-2.476.378-4.687 1.814-5.984 3.956C1.592 3.164-1.003 1.658 0 0" clip-path="url(#aS)" style="fill:#000;fill-opacity:1;fill-rule:nonzero;stroke:none" transform="matrix(1.33333 0 0 -1.33333 662.298 773.078)"/><path d="M0 0a19.73 19.73 0 0 1 7.331 7.1c.404.674.173 1.677-.538 2.052-.725.384-1.621.181-2.052-.538a19 19 0 0 0-.972-1.463l-.165-.22c-.111-.148.176.22-.002.001a19 19 0 0 0-1.587-1.747A19 19 0 0 0 .737 4.061C.683 4.018.414 3.77.694 4.026c-.067-.061-.147-.111-.22-.165A18 18 0 0 0-1.514 2.59c-.687-.38-.97-1.382-.538-2.052C-1.604-.158-.735-.407 0 0" clip-path="url(#aT)" style="fill:#000;fill-opacity:1;fill-rule:nonzero;stroke:none" transform="matrix(1.33333 0 0 -1.33333 659.31 777.347)"/><path d="M0 0c.71-3.792 3.697-6.982 7.364-8.091.751-.228 1.668.271 1.845 1.047.184.81-.243 1.602-1.048 1.846a9 9 0 0 0-.577.193c-.091.035-.361.188-.017.001-.088.048-.187.083-.277.126a9 9 0 0 0-1.017.567c-.171.11-.334.23-.5.347-.151.106.235-.195.023-.017l-.234.194q-.461.398-.869.853c-.121.134-.314.302-.392.466.064-.136.147-.194.02-.02q-.089.123-.175.249A9.4 9.4 0 0 0 3.42-.962c-.04.085-.133.389-.012.012-.062.192-.149.378-.213.57A9 9 0 0 0 2.893.798c-.145.772-1.119 1.282-1.845 1.047C.221 1.578-.155.828 0 0" clip-path="url(#aU)" style="fill:#000;fill-opacity:1;fill-rule:nonzero;stroke:none" transform="matrix(1.33333 0 0 -1.33333 751.422 769.206)"/><path d="M0 0h286.305c3.866 0 7.74-.074 11.606 0 .169.003.338 0 .507 0 1.931 0 1.934 3 0 3H12.114C8.247 3 4.373 3.074.507 3 .338 2.997.169 3 0 3c-1.93 0-1.934-3 0-3" clip-path="url(#aV)" style="fill:#000;fill-opacity:1;fill-rule:nonzero;stroke:none" transform="matrix(1.33333 0 0 -1.33333 527.829 1094.514)"/></svg>