<svg xmlns="http://www.w3.org/2000/svg" width="1440" height="1440" viewBox="0 0 1440 1440"><defs><clipPath id="a" clipPathUnits="userSpaceOnUse"><path d="M-476.603 725.587h1080v-1080h-1080Z"/></clipPath><clipPath id="b" clipPathUnits="userSpaceOnUse"><path d="M-476.603 724.087h1080v-1080h-1080Z"/></clipPath><clipPath id="c" clipPathUnits="userSpaceOnUse"><path d="M-632.556 708.587h1080v-1080h-1080Z"/></clipPath><clipPath id="d" clipPathUnits="userSpaceOnUse"><path d="M-632.556 707.087h1080v-1080h-1080Z"/></clipPath><clipPath id="e" clipPathUnits="userSpaceOnUse"><path d="M-812.066 619.281h1080v-1080h-1080Z"/></clipPath><clipPath id="f" clipPathUnits="userSpaceOnUse"><path d="M-811.309 617.986h1080v-1080h-1080Z"/></clipPath><clipPath id="g" clipPathUnits="userSpaceOnUse"><path d="M-736.9 560.585h1080v-1080h-1080Z"/></clipPath><clipPath id="h" clipPathUnits="userSpaceOnUse"><path d="M-736.143 559.29h1080v-1080h-1080Z"/></clipPath><clipPath id="i" clipPathUnits="userSpaceOnUse"><path d="M-507.481 609.337h1080v-1080h-1080Z"/></clipPath><clipPath id="j" clipPathUnits="userSpaceOnUse"><path d="M-588.063 573.858h1080v-1080h-1080Z"/></clipPath><clipPath id="k" clipPathUnits="userSpaceOnUse"><path d="M-638.912 609.337h1080v-1080h-1080Z"/></clipPath><clipPath id="l" clipPathUnits="userSpaceOnUse"><path d="M-688.826 609.337h1080v-1080h-1080Z"/></clipPath><clipPath id="m" clipPathUnits="userSpaceOnUse"><path d="M-507.553 675.307h1080v-1080h-1080Z"/></clipPath><clipPath id="n" clipPathUnits="userSpaceOnUse"><path d="M-567.666 677.893h1080v-1080h-1080Z"/></clipPath><clipPath id="o" clipPathUnits="userSpaceOnUse"><path d="M-620.813 675.307h1080v-1080h-1080Z"/></clipPath><clipPath id="p" clipPathUnits="userSpaceOnUse"><path d="M-644.872 675.307h1080v-1080h-1080Z"/></clipPath><clipPath id="q" clipPathUnits="userSpaceOnUse"><path d="M-656.621 532.028h1080v-1080h-1080Z"/></clipPath><clipPath id="r" clipPathUnits="userSpaceOnUse"><path d="M-704.905 498.9h1080v-1080h-1080Z"/></clipPath><clipPath id="s" clipPathUnits="userSpaceOnUse"><path d="M-597.492 393.685h1080v-1080h-1080Z"/></clipPath><clipPath id="t" clipPathUnits="userSpaceOnUse"><path d="M-597.492 392.185h1080v-1080h-1080Z"/></clipPath><clipPath id="u" clipPathUnits="userSpaceOnUse"><path d="M-432.304 608.657h1080v-1080h-1080Z"/></clipPath><clipPath id="v" clipPathUnits="userSpaceOnUse"><path d="M-432.304 607.157h1080v-1080h-1080Z"/></clipPath><clipPath id="w" clipPathUnits="userSpaceOnUse"><path d="M-418.789 356.598h1080v-1080h-1080Z"/></clipPath><clipPath id="x" clipPathUnits="userSpaceOnUse"><path d="M-418.789 355.098h1080v-1080h-1080Z"/></clipPath><clipPath id="y" clipPathUnits="userSpaceOnUse"><path d="M-415.982 640.872h1080v-1080h-1080Z"/></clipPath><clipPath id="z" clipPathUnits="userSpaceOnUse"><path d="M-415.982 639.372h1080v-1080h-1080Z"/></clipPath><clipPath id="A" clipPathUnits="userSpaceOnUse"><path d="M-441.925 380.362h1080v-1080h-1080Z"/></clipPath><clipPath id="B" clipPathUnits="userSpaceOnUse"><path d="M-441.925 378.862h1080v-1080h-1080Z"/></clipPath><clipPath id="C" clipPathUnits="userSpaceOnUse"><path d="M-439.481 627.924h1080v-1080h-1080Z"/></clipPath><clipPath id="D" clipPathUnits="userSpaceOnUse"><path d="M-439.481 626.424h1080v-1080h-1080Z"/></clipPath><clipPath id="E" clipPathUnits="userSpaceOnUse"><path d="M-332.414 378.544h1080v-1080h-1080Z"/></clipPath><clipPath id="F" clipPathUnits="userSpaceOnUse"><path d="M-332.414 377.044h1080v-1080h-1080Z"/></clipPath><clipPath id="G" clipPathUnits="userSpaceOnUse"><path d="M-505.06 526.123h1080v-1080h-1080Z"/></clipPath><clipPath id="H" clipPathUnits="userSpaceOnUse"><path d="M-505.06 524.623h1080v-1080h-1080Z"/></clipPath><clipPath id="I" clipPathUnits="userSpaceOnUse"><path d="M-545.768 526.525h1080v-1080h-1080Z"/></clipPath><clipPath id="J" clipPathUnits="userSpaceOnUse"><path d="M-545.768 525.025h1080v-1080h-1080Z"/></clipPath><clipPath id="K" clipPathUnits="userSpaceOnUse"><path d="M-586.476 526.927h1080v-1080h-1080Z"/></clipPath><clipPath id="L" clipPathUnits="userSpaceOnUse"><path d="M-586.476 525.427h1080v-1080h-1080Z"/></clipPath><clipPath id="M" clipPathUnits="userSpaceOnUse"><path d="M-506.045 426.345h1080v-1080h-1080Z"/></clipPath><clipPath id="N" clipPathUnits="userSpaceOnUse"><path d="M-506.045 424.845h1080v-1080h-1080Z"/></clipPath><clipPath id="O" clipPathUnits="userSpaceOnUse"><path d="M-465.569 425.946h1080v-1080h-1080Z"/></clipPath><clipPath id="P" clipPathUnits="userSpaceOnUse"><path d="M-465.569 424.446h1080v-1080h-1080Z"/></clipPath><clipPath id="Q" clipPathUnits="userSpaceOnUse"><path d="M-546.753 426.747h1080v-1080h-1080Z"/></clipPath><clipPath id="R" clipPathUnits="userSpaceOnUse"><path d="M-546.753 425.247h1080v-1080h-1080Z"/></clipPath><clipPath id="S" clipPathUnits="userSpaceOnUse"><path d="M-587.461 427.15h1080v-1080h-1080Z"/></clipPath><clipPath id="T" clipPathUnits="userSpaceOnUse"><path d="M-587.461 425.65h1080v-1080h-1080Z"/></clipPath><clipPath id="U" clipPathUnits="userSpaceOnUse"><path d="M-415.428 626.54h1080v-1080h-1080Z"/></clipPath><clipPath id="V" clipPathUnits="userSpaceOnUse"><path d="M-415.428 625.04h1080v-1080h-1080Z"/></clipPath><clipPath id="W" clipPathUnits="userSpaceOnUse"><path d="M-301.44 378.99h1080v-1080h-1080Z"/></clipPath><clipPath id="X" clipPathUnits="userSpaceOnUse"><path d="M-367.47 464.399h1080v-1080h-1080Z"/></clipPath><clipPath id="Y" clipPathUnits="userSpaceOnUse"><path d="M-365.97 464.399h1080v-1080h-1080Z"/></clipPath><clipPath id="Z" clipPathUnits="userSpaceOnUse"><path d="M-63.339-2.85c-.176-17.876 16.895-32.537 38.129-32.747 21.235-.21 38.592 14.111 38.769 31.987s-16.895 32.537-38.13 32.746l-.46.003c-21.024 0-38.133-14.244-38.308-31.99"/></clipPath><clipPath id="aa" clipPathUnits="userSpaceOnUse"><path d="M-56.89 2.843c-.177-17.875 16.894-32.536 38.128-32.746s38.592 14.11 38.77 31.987C20.182 19.96 3.111 34.62-18.123 34.83l-.46.003c-21.025-.001-38.134-14.244-38.309-31.99"/></clipPath><clipPath id="ab" clipPathUnits="userSpaceOnUse"><path d="M-38.344 7.873C-38.52-10.002-21.449-24.663-.215-24.873c21.235-.21 38.592 14.111 38.769 31.987S21.659 39.651.424 39.86l-.46.003c-21.024 0-38.133-14.244-38.308-31.99"/></clipPath><clipPath id="ac" clipPathUnits="userSpaceOnUse"><path d="M-78.698-5.523c-.176-17.875 16.895-32.536 38.129-32.746C-19.334-38.48-1.977-24.16-1.8-6.282s-16.895 32.537-38.13 32.746l-.46.003c-21.024-.001-38.133-14.244-38.308-31.99"/></clipPath><clipPath id="ad" clipPathUnits="userSpaceOnUse"><path d="M-78.698-7.023c-.176-17.875 16.895-32.536 38.129-32.746C-19.334-39.98-1.977-25.66-1.8-7.782s-16.895 32.537-38.13 32.746l-.46.003c-21.024-.001-38.133-14.244-38.308-31.99"/></clipPath><clipPath id="ae" clipPathUnits="userSpaceOnUse"><path d="M-365.97 464.399h1080v-1080h-1080Z"/></clipPath><clipPath id="af" clipPathUnits="userSpaceOnUse"><path d="M-417.148 561.64h1080v-1080h-1080Z"/></clipPath><clipPath id="ag" clipPathUnits="userSpaceOnUse"><path d="M-417.148 560.14h1080v-1080h-1080Z"/></clipPath><clipPath id="ah" clipPathUnits="userSpaceOnUse"><path d="M-416.868 589.992h1080v-1080h-1080Z"/></clipPath><clipPath id="ai" clipPathUnits="userSpaceOnUse"><path d="M-416.868 588.492h1080v-1080h-1080Z"/></clipPath><clipPath id="aj" clipPathUnits="userSpaceOnUse"><path d="M-434.548 465.061h1080v-1080h-1080Z"/></clipPath><clipPath id="ak" clipPathUnits="userSpaceOnUse"><path d="M-433.048 465.061h1080v-1080h-1080Z"/></clipPath><clipPath id="al" clipPathUnits="userSpaceOnUse"><path d="M-63.34-2.85c-.175-17.877 16.896-32.538 38.13-32.747 21.236-.21 38.592 14.112 38.769 31.986.177 17.876-16.894 32.537-38.13 32.747l-.46.002c-21.024 0-38.132-14.243-38.308-31.989"/></clipPath><clipPath id="am" clipPathUnits="userSpaceOnUse"><path d="M-56.891 2.843c-.176-17.876 16.895-32.537 38.129-32.746 21.236-.21 38.592 14.112 38.769 31.986.177 17.876-16.894 32.537-38.13 32.747l-.46.002c-21.024-.001-38.132-14.243-38.308-31.99"/></clipPath><clipPath id="an" clipPathUnits="userSpaceOnUse"><path d="M-38.344 7.874C-38.52-10.002-21.45-24.663-.215-24.872c21.236-.21 38.592 14.112 38.769 31.986C38.73 24.99 21.66 39.65.424 39.86l-.46.002c-21.024-.001-38.132-14.243-38.308-31.99"/></clipPath><clipPath id="ao" clipPathUnits="userSpaceOnUse"><path d="M-78.698-5.523C-78.874-23.4-61.803-38.06-40.57-38.27-19.333-38.48-1.977-24.157-1.8-6.283c.177 17.876-16.894 32.537-38.13 32.747l-.46.002c-21.024-.001-38.132-14.243-38.308-31.99"/></clipPath><clipPath id="ap" clipPathUnits="userSpaceOnUse"><path d="M-78.698-7.023C-78.874-24.9-61.803-39.56-40.57-39.77-19.333-39.98-1.977-25.657-1.8-7.783c.177 17.876-16.894 32.537-38.13 32.747l-.46.002c-21.024-.001-38.132-14.243-38.308-31.99"/></clipPath><clipPath id="aq" clipPathUnits="userSpaceOnUse"><path d="M-433.048 465.061h1080v-1080h-1080Z"/></clipPath><clipPath id="ar" clipPathUnits="userSpaceOnUse"><path d="M-378.376 491.985h1080v-1080h-1080Z"/></clipPath><clipPath id="as" clipPathUnits="userSpaceOnUse"><path d="M-376.876 491.985h1080v-1080h-1080Z"/></clipPath><clipPath id="at" clipPathUnits="userSpaceOnUse"><path d="M-360.526 488.621h1080v-1080h-1080Z"/></clipPath><clipPath id="au" clipPathUnits="userSpaceOnUse"><path d="M-359.026 488.621h1080v-1080h-1080Z"/></clipPath><clipPath id="av" clipPathUnits="userSpaceOnUse"><path d="M-331.546 516.088h1080v-1080h-1080Z"/></clipPath><clipPath id="aw" clipPathUnits="userSpaceOnUse"><path d="M-329.532 519.094h1080v-1080h-1080Z"/></clipPath><clipPath id="ax" clipPathUnits="userSpaceOnUse"><path d="M-394.48 513.956h1080v-1080h-1080Z"/></clipPath></defs><path d="M0 0h1080v1080H0Z" style="fill:#feffff;fill-opacity:1;fill-rule:nonzero;stroke:none" transform="matrix(1.33333 0 0 -1.33333 0 1440)"/><path d="M0 0c-79.979 0-145.045 65.067-145.045 145.045S-79.979 290.091 0 290.091h155.953c79.978 0 145.045-65.068 145.045-145.046S235.931 0 155.953 0Z" clip-path="url(#a)" style="fill:#0aff9f;fill-opacity:1;fill-rule:nonzero;stroke:none" transform="matrix(1.33333 0 0 -1.33333 635.47 967.45)"/><path d="M0 0c-25.289.054-50.286 6.718-72.139 19.478-21.15 12.349-39.006 30.091-51.481 51.167-12.862 21.73-19.76 46.709-19.922 71.956-.162 25.288 6.414 50.398 19.032 72.32 12.217 21.224 29.853 39.19 50.852 51.792 21.632 12.983 46.546 20.043 71.772 20.366 7.69.098 15.387.012 23.078.012h133.292c19.863 0 39.505-3.651 57.798-11.503 22.533-9.673 42.459-25.147 57.428-44.569 15.149-19.656 25.046-43.179 28.452-67.763 3.506-25.303.129-51.47-9.739-75.032-9.477-22.63-24.854-42.636-44.144-57.772-19.568-15.353-43.102-25.396-67.705-28.987C165.589-.138 154.577 0 143.521 0zc-1.93 0-1.934-3 0-3h127.013c9.477 0 18.954-.005 28.431 0 22.139.011 44.051 4.874 64.01 14.49 22.277 10.732 41.641 27.181 55.985 47.307 14.633 20.532 23.718 44.751 26.297 69.824 2.635 25.615-1.626 51.748-12.226 75.208-10.149 22.462-26.056 42.136-45.735 56.951-20.094 15.127-43.996 24.833-68.927 28.085-10.849 1.416-21.725 1.226-32.632 1.226H3.747c-17.272 0-34.26-2.133-50.678-7.709-23.492-7.977-44.805-21.982-61.487-40.342-16.695-18.375-28.657-40.941-34.295-65.131-5.871-25.184-4.977-51.888 2.675-76.597 7.348-23.724 20.822-45.423 38.762-62.591C-83.367 20.582-61.156 8.065-37.17 1.775-25.048-1.404-12.528-2.973 0-3c1.931-.004 1.933 2.996 0 3" clip-path="url(#b)" style="fill:#000;fill-opacity:1;fill-rule:nonzero;stroke:none" transform="matrix(1.33333 0 0 -1.33333 635.47 965.45)"/><path d="M0 0h-155.953c-70.717 0-128.045 57.328-128.045 128.045v.001c0 70.717 57.328 128.045 128.045 128.045H0c70.717 0 128.045-57.328 128.045-128.045v-.001C128.045 57.328 70.717 0 0 0" clip-path="url(#c)" style="fill:#3bb4fb;fill-opacity:1;fill-rule:nonzero;stroke:none" transform="matrix(1.33333 0 0 -1.33333 843.408 944.783)"/><path d="M0 0h-150.293c-13.429 0-26.641.998-39.657 4.619-22.047 6.134-42.195 18.344-57.926 34.955-15.852 16.737-26.944 37.728-31.801 60.265-4.972 23.069-3.34 47.437 4.643 69.64 7.715 21.455 21.364 40.595 38.979 55.047 17.84 14.637 39.671 24.169 62.519 27.365 9.707 1.358 19.446 1.2 29.212 1.2h132.465c9.748 0 19.471.167 29.162-1.16 22.853-3.13 44.727-12.637 62.59-27.234 17.641-14.416 31.338-33.521 39.095-54.96 8.061-22.278 9.724-46.734 4.736-69.898-4.833-22.448-15.863-43.367-31.616-60.07C76.416 23.131 56.295 10.87 34.264 4.693 23.107 1.565 11.583.026 0 0c-1.93-.004-1.934-3.004 0-3 23.701.053 47.156 6.529 67.399 18.892 19.588 11.963 35.895 29.149 46.761 49.37 11.192 20.825 16.464 44.609 15.201 68.213-1.258 23.499-8.959 46.478-22.23 65.922-12.948 18.971-30.904 34.423-51.675 44.251C37.826 251.99 18.6 256.091-.88 256.091h-153.73c-18.561 0-36.818-3.564-53.822-11.081-21.035-9.299-39.359-24.309-52.791-42.959-13.718-19.048-21.994-41.755-23.862-65.146-1.887-23.625 2.781-47.592 13.464-68.75 10.351-20.501 26.235-38.077 45.519-50.535 19.828-12.81 43.082-19.949 66.673-20.574 7.316-.193 14.652-.046 21.97-.046H0c1.93 0 1.934 3 0 3" clip-path="url(#d)" style="fill:#000;fill-opacity:1;fill-rule:nonzero;stroke:none" transform="matrix(1.33333 0 0 -1.33333 843.408 942.783)"/><path d="M0 0c-27.798-13.07-38.394-23.666-51.464-51.464C-64.535-23.666-75.13-13.07-102.929 0c27.799 13.07 38.394 23.666 51.465 51.464C-38.394 23.666-27.798 13.07 0 0" clip-path="url(#e)" style="fill:#ffe30d;fill-opacity:1;fill-rule:nonzero;stroke:none" transform="matrix(1.33333 0 0 -1.33333 1082.754 825.708)"/><path d="M0 0c-9.183-4.326-18.231-9.129-26.136-15.558-6.994-5.687-12.689-12.691-17.377-20.364-3.162-5.176-5.906-10.597-8.49-16.08h2.591c-4.326 9.183-9.129 18.231-15.558 26.136-5.687 6.993-12.691 12.688-20.364 17.376C-90.51-5.327-95.931-2.583-101.415 0v-2.59c9.184 4.325 18.232 9.128 26.137 15.557 6.993 5.688 12.688 12.692 17.376 20.365 3.162 5.176 5.907 10.596 8.49 16.08h-2.591c4.326-9.183 9.129-18.231 15.558-26.136 5.688-6.994 12.692-12.689 20.365-17.377C-10.904 2.737-5.484-.007 0-2.59 1.737-3.409 3.261-.823 1.514 0c-8.969 4.225-17.925 8.88-25.639 15.179-6.802 5.553-12.323 12.321-16.879 19.802-3.128 5.135-5.847 10.509-8.408 15.945-.462.981-2.129.981-2.591 0-4.225-8.969-8.88-17.925-15.178-25.639-5.553-6.802-12.321-12.323-19.803-16.879C-92.119 5.28-97.492 2.561-102.929 0c-.98-.462-.98-2.128 0-2.59 8.97-4.225 17.926-8.881 25.64-15.179 6.801-5.553 12.322-12.321 16.879-19.802 3.128-5.136 5.847-10.509 8.407-15.946.462-.98 2.129-.98 2.591 0 4.225 8.97 8.88 17.926 15.179 25.64 5.553 6.801 12.321 12.323 19.802 16.879C-9.296-7.87-3.922-5.151 1.514-2.59 3.26-1.768 1.738.819 0 0" clip-path="url(#f)" style="fill:#000;fill-opacity:1;fill-rule:nonzero;stroke:none" transform="matrix(1.33333 0 0 -1.33333 1081.745 823.981)"/><path d="M0 0c-11.293-5.31-15.598-9.614-20.907-20.907C-26.217-9.614-30.522-5.31-41.815 0c11.293 5.31 15.598 9.614 20.908 20.907C-15.598 9.614-11.293 5.31 0 0" clip-path="url(#g)" style="fill:#ffe30d;fill-opacity:1;fill-rule:nonzero;stroke:none" transform="matrix(1.33333 0 0 -1.33333 982.533 747.447)"/><path d="M0 0c-4.683-2.212-9.307-4.751-13.001-8.445s-6.233-8.317-8.445-13.001h2.591c-2.212 4.684-4.751 9.308-8.445 13.001C-30.993-4.751-35.617-2.212-40.301 0v-2.59c4.684 2.212 9.308 4.751 13.001 8.444 3.694 3.694 6.233 8.318 8.445 13.001h-2.591c2.212-4.683 4.751-9.307 8.445-13.001S-4.683-.378 0-2.59C1.736-3.41 3.261-.825 1.514 0-2.937 2.102-7.368 4.463-10.88 7.975s-5.873 7.943-7.975 12.394c-.463.981-2.127.981-2.591 0-2.102-4.451-4.463-8.882-7.975-12.394S-37.364 2.102-41.815 0c-.98-.463-.98-2.127 0-2.59 4.451-2.103 8.882-4.464 12.394-7.976s5.873-7.942 7.975-12.394c.464-.98 2.128-.98 2.591 0 2.102 4.452 4.463 8.882 7.975 12.394S-2.937-4.693 1.514-2.59C3.259-1.766 1.738.821 0 0" clip-path="url(#h)" style="fill:#000;fill-opacity:1;fill-rule:nonzero;stroke:none" transform="matrix(1.33333 0 0 -1.33333 981.524 745.72)"/><path d="M18.597 0H7.546c-1.729 0-2.59-.86-2.59-2.589v-46.535q-.002-2.59 2.59-2.59h23.918q5.378 0 8.46 1.512 3.093 1.512 4.384 4.207 1.3 2.686 1.3 6.281v3.305q0 3.015-.867 5.097-.857 2.076-3.152 3.082 3.946.435 6.316 3.165 2.366 2.732 2.368 7.253v15.223Q50.27.003 47.694.001H36.562q-2.592.002-2.59-2.59v-10.98q-.001-1.652-.61-2.368-.61-.725-2.12-.726H21.186V-2.59Q21.185.002 18.596 0m2.59-38.788v9.2h5.39q1.862.001 2.508-.974.643-.97.645-2.402v-2.45q-.002-1.426-.645-2.401-.645-.972-2.508-.973zm80.59 25.219q-.001 3.305-.973 6-.975 2.686-3.422 4.629-2.44 1.934-6.785 2.976Q86.26 1.078 79.51 1.08 72.748 1.078 68.4.036q-4.337-1.042-6.785-2.976-2.439-1.944-3.445-4.63-1.01-2.693-1.008-6v-24.492c0-2.203.334-4.2 1.008-6q1.006-2.694 3.445-4.628 2.448-1.943 6.785-3.024 4.347-1.078 11.11-1.078 6.749 0 11.086 1.078 4.346 1.08 6.785 3.024 2.447 1.935 3.422 4.628c.647 1.8.972 3.797.972 6zm-28.301-2.59q-.002 1.441 1.078 2.414 1.077.96 4.957.96 3.947 0 4.98-.96 1.043-.972 1.043-2.414v-19.324q0-1.428-1.043-2.368-1.034-.936-4.98-.937-3.881 0-4.957.937-1.079.94-1.078 2.368zM150.03 0h-36.55q-2.592.002-2.59-2.59v-46.535q-.002-2.59 2.59-2.59h11.132q2.577 0 2.578 2.59v35.555h9.844v-11.637q0-2.59 2.578-2.59h10.418q2.59 0 2.59 2.59V-2.59q0 2.592-2.59 2.59m49.916 0h-36.55q-2.592.002-2.59-2.59v-46.535q-.002-2.59 2.59-2.59h11.132q2.577 0 2.578 2.59v35.555h9.844v-11.637q0-2.59 2.578-2.59h10.418q2.59 0 2.59 2.59V-2.59q0 2.592-2.59 2.59m0 0" aria-label="roll" style="fill:#feffff;fill-opacity:1;fill-rule:nonzero;stroke:none" transform="translate(648.392 815.897)scale(1.33333)"/><path d="M0 0v14.076h10.055q1.507 0 2.118-.718.61-.718.611-2.37V0q0-2.586 2.586-2.586h11.131q2.586 0 2.586 2.586v15.226q0 4.523-2.37 7.253t-6.32 3.161q2.298 1.004 3.16 3.088.861 2.081.862 5.099v3.304q0 3.59-1.293 6.284-1.293 2.692-4.381 4.201t-8.475 1.509h-23.916q-2.586 0-2.585-2.586V0q0-2.586 2.585-2.586h11.061Q0-2.586 0 0Zm5.386 36.197q1.868 0 2.514-.969.646-.971.646-2.407V30.38q0-1.438-.646-2.406-.647-.97-2.514-.97H0v9.193z" clip-path="url(#i)" style="fill:none;stroke:#000;stroke-width:3;stroke-linecap:butt;stroke-linejoin:miter;stroke-miterlimit:10;stroke-dasharray:none;stroke-opacity:1" transform="matrix(1.33333 0 0 -1.33333 676.641 812.45)"/><path d="M0 0q0 3.304-.969 5.997-.97 2.694-3.412 4.633t-6.787 3.016q-4.346 1.078-11.096 1.078-6.752 0-11.096-1.078-4.347-1.077-6.787-3.016-2.442-1.94-3.448-4.633T-44.6 0v-24.49q0-3.305 1.005-5.997 1.006-2.694 3.448-4.633 2.44-1.939 6.787-2.981 4.344-1.04 11.096-1.041 6.75 0 11.096 1.041 4.345 1.042 6.787 2.981 2.442 1.94 3.412 4.633T0-24.49zm-28.297-2.585q0 1.436 1.077 2.37 1.078.933 4.956.934 3.95-.001 4.992-.934 1.04-.934 1.041-2.37v-19.32q0-1.436-1.041-2.406-1.043-.969-4.992-.969-3.878 0-4.956.969-1.077.97-1.077 2.406z" clip-path="url(#j)" style="fill:none;stroke:#000;stroke-width:3;stroke-linecap:butt;stroke-linejoin:miter;stroke-miterlimit:10;stroke-dasharray:none;stroke-opacity:1" transform="matrix(1.33333 0 0 -1.33333 784.084 765.145)"/><path d="M0 0v22.623q0 2.585-2.585 2.585H-13q-2.585 0-2.585-2.585V10.988h-9.839v35.551q0 2.586-2.586 2.586h-11.132q-2.586 0-2.586-2.586V0q0-2.586 2.586-2.586h36.557Q0-2.586 0 0Z" clip-path="url(#k)" style="fill:none;stroke:#000;stroke-width:3;stroke-linecap:butt;stroke-linejoin:miter;stroke-miterlimit:10;stroke-dasharray:none;stroke-opacity:1" transform="matrix(1.33333 0 0 -1.33333 851.882 812.45)"/><path d="M0 0v22.623q0 2.585-2.585 2.585H-13q-2.585 0-2.585-2.585V10.988h-9.839v35.551q0 2.586-2.586 2.586h-11.132q-2.586 0-2.586-2.586V0q0-2.586 2.586-2.586h36.557Q0-2.586 0 0Z" clip-path="url(#l)" style="fill:none;stroke:#000;stroke-width:3;stroke-linecap:butt;stroke-linejoin:miter;stroke-miterlimit:10;stroke-dasharray:none;stroke-opacity:1" transform="matrix(1.33333 0 0 -1.33333 918.435 812.45)"/><path d="M18.679-.001H7.546q-2.592.002-2.59-2.59v-46.535q-.002-2.59 2.59-2.59h32.027q2.59 0 2.59 2.59v8.543q0 2.591-2.59 2.59H21.257v7.465H33.76q2.577 0 2.578 2.59v8.613q-.001 2.591-2.578 2.59H21.257v14.144Q21.256.001 18.679 0m32.092 0q-2.58.002-2.579-2.59v-8.543q0-2.589 2.579-2.59h7.113v-24.129H50.77c-1.72 0-2.579-.86-2.579-2.59v-8.683q0-2.59 2.579-2.59h30.597q2.59 0 2.59 2.59v8.684q0 2.591-2.59 2.59h-6.96v24.128h6.96q2.59.001 2.59 2.59v8.543q0 2.592-2.59 2.59zm81.164 0H95.384q-2.592.002-2.59-2.59v-46.535q-.002-2.59 2.59-2.59h11.133c1.716 0 2.578.864 2.578 2.59v35.555h9.844v-11.637q-.001-2.59 2.578-2.59h10.418q2.589 0 2.59 2.59V-2.59q-.001 2.592-2.59 2.59m24.061 0h-10.7q-2.59.002-2.589-2.59v-46.535q-.002-2.59 2.59-2.59h11.555q2.153.001 3.304 2.156l6.469 11.707q.361.647.61.938.245.28.68.281h.644q.431 0 .68-.281.255-.29.62-.938l6.387-11.707q1.147-2.154 3.305-2.156h11.637q2.589 0 2.59 2.59V-2.59q-.001 2.592-2.59 2.59h-11.063q-2.591.002-2.59-2.59v-25.277l-4.23 7.828q-1.221 2.297-3.809 2.297h-2.871q-2.591 0-3.809-2.297l-4.242-7.828V-2.59Q158.573.001 155.996 0m0 0" aria-label="FILM" style="fill:#feffff;fill-opacity:1;fill-rule:nonzero;stroke:none" transform="translate(648.392 903.857)scale(1.33333)"/><path d="M0 0v14.148h12.497q2.585 0 2.585 2.585v8.62q0 2.584-2.585 2.584H0v7.47h18.314q2.586 0 2.585 2.585v8.547q0 2.586-2.585 2.586h-32.032q-2.585 0-2.585-2.586V0q0-2.586 2.585-2.586h11.133Q0-2.586 0 0Z" clip-path="url(#m)" style="fill:none;stroke:#000;stroke-width:3;stroke-linecap:butt;stroke-linejoin:miter;stroke-miterlimit:10;stroke-dasharray:none;stroke-opacity:1" transform="matrix(1.33333 0 0 -1.33333 676.737 900.409)"/><path d="M0 0q2.585 0 2.585 2.586v8.546q0 2.585-2.585 2.586h-6.966V37.85H0q2.585 0 2.585 2.585v8.69q0 2.586-2.585 2.586h-30.595q-2.586 0-2.586-2.586v-8.69q0-2.585 2.586-2.585h7.11V13.718h-7.11q-2.586 0-2.586-2.586V2.586Q-33.181 0-30.595 0Z" clip-path="url(#n)" style="fill:none;stroke:#000;stroke-width:3;stroke-linecap:butt;stroke-linejoin:miter;stroke-miterlimit:10;stroke-dasharray:none;stroke-opacity:1" transform="matrix(1.33333 0 0 -1.33333 756.888 903.857)"/><path d="M0 0v22.623q0 2.585-2.585 2.585H-13q-2.585 0-2.585-2.585V10.988h-9.839v35.551q0 2.586-2.586 2.586h-11.132q-2.586 0-2.586-2.586V0q0-2.586 2.586-2.586h36.557Q0-2.586 0 0Z" clip-path="url(#o)" style="fill:none;stroke:#000;stroke-width:3;stroke-linecap:butt;stroke-linejoin:miter;stroke-miterlimit:10;stroke-dasharray:none;stroke-opacity:1" transform="matrix(1.33333 0 0 -1.33333 827.75 900.409)"/><path d="M0 0v25.28l4.238-7.828q1.22-2.3 3.806-2.299h2.873q2.585 0 3.806 2.299l4.237 7.828V0q0-2.586 2.586-2.586h11.06q2.586 0 2.586 2.586v46.539q0 2.586-2.586 2.586H20.972q-2.156 0-3.304-2.155l-6.392-11.706q-.36-.648-.61-.935-.252-.287-.683-.287h-.646q-.431 0-.683.287-.252.288-.61.935L1.58 46.97q-1.149 2.154-3.304 2.155h-11.563q-2.585 0-2.585-2.586V0q0-2.586 2.585-2.586h10.702Q0-2.586 0 0Z" clip-path="url(#p)" style="fill:none;stroke:#000;stroke-width:3;stroke-linecap:butt;stroke-linejoin:miter;stroke-miterlimit:10;stroke-dasharray:none;stroke-opacity:1" transform="matrix(1.33333 0 0 -1.33333 859.829 900.409)"/><path d="M37.019 0H5.097C3.486 0 2.683-.802 2.683-2.414v-11.53q0-5.24 1.336-8.052 1.344-2.822 3.727-4.265 2.377-1.44 5.46-2.38l8.989-2.812q1.077-.338 1.441-.843.375-.502.375-1.57 0-1.008-.41-1.372-.4-.374-1.406-.375H7.64q-2.415.001-2.414-2.414v-7.851q-.001-2.414 2.414-2.414h19.793q5.765.002 8.777 2.859 3.024 2.849 3.024 8.273v6.305q-.002 5.098-2.79 7.723c-1.85 1.743-4.411 3.126-7.675 4.148L19.652-16.1q-1.01.272-1.383.574-.364.308-.363 1.442v1.406h19.113q2.413 0 2.414 2.414v7.851Q39.432.002 37.02 0m50.704-12.68q0 3.095-.914 5.614-.903 2.51-3.152 4.324-2.24 1.806-6.235 2.778-3.986.971-10.16.972-6.165 0-10.195-.972-4.02-.972-6.27-2.778-2.25-1.815-3.152-4.324-.904-2.518-.902-5.613v-22.863q-.002-3.08.902-5.602.901-2.518 3.152-4.324 2.25-1.815 6.27-2.813 4.03-1.007 10.195-1.008 6.174 0 10.16 1.008 3.993.998 6.235 2.813 2.249 1.806 3.152 4.324.915 2.522.914 5.602zm-25.828-2.413q-.002 1.35.973 2.25.97.903 4.394.902 3.49.001 4.43-.902.936-.9.937-2.25v-18.035q0-1.345-.937-2.215-.94-.866-4.43-.867-3.423 0-4.394.867-.974.87-.973 2.215zm0 0" aria-label="20" style="fill:#feffff;fill-opacity:1;fill-rule:nonzero;stroke:none" transform="translate(822.919 712.59)scale(1.33333)"/><path d="M0 0v7.846q0 2.415-2.414 2.415h-19.113v1.408q0 1.14.369 1.442.368.3 1.375.57l9.12 2.883q4.895 1.543 7.679 4.158 2.783 2.615 2.783 7.712v6.304q0 5.431-3.018 8.282t-8.785 2.85h-19.783q-2.414 0-2.414-2.414V35.61q0-2.415 2.414-2.415h14.552q1.006 0 1.408-.368.403-.369.403-1.375 0-1.074-.369-1.576-.37-.503-1.442-.838l-8.986-2.817q-3.086-.94-5.466-2.381-2.381-1.442-3.721-4.258-1.342-2.816-1.342-8.047V0q0-2.414 2.415-2.414h31.921Q0-2.414 0 0Z" clip-path="url(#q)" style="fill:none;stroke:#000;stroke-width:3;stroke-linecap:butt;stroke-linejoin:miter;stroke-miterlimit:10;stroke-dasharray:none;stroke-opacity:1" transform="matrix(1.33333 0 0 -1.33333 875.495 709.37)"/><path d="M0 0q0 3.084-.905 5.6-.906 2.514-3.153 4.325-2.247 1.81-6.236 2.817-3.991 1.005-10.16 1.006-6.17 0-10.193-1.006-4.024-1.006-6.27-2.817-2.248-1.81-3.152-4.325-.906-2.516-.906-5.6v-22.868q0-3.085.906-5.599.904-2.515 3.152-4.326 2.246-1.81 6.27-2.783 4.022-.972 10.193-.972 6.169 0 10.16.972 3.989.972 6.236 2.783t3.153 4.326Q0-25.953 0-22.868zm-25.819-2.414q0 1.34.973 2.213.971.871 4.392.872 3.486-.001 4.426-.872.939-.873.939-2.213v-18.04q0-1.342-.939-2.246-.94-.905-4.426-.905-3.42 0-4.392.905-.973.904-.973 2.246z" clip-path="url(#r)" style="fill:none;stroke:#000;stroke-width:3;stroke-linecap:butt;stroke-linejoin:miter;stroke-miterlimit:10;stroke-dasharray:none;stroke-opacity:1" transform="matrix(1.33333 0 0 -1.33333 939.873 665.2)"/><path d="m0 0-213.635 2.109a5.893 5.893 0 0 1-5.951-5.835l-.451-45.674-.902-91.347-.451-45.674a5.893 5.893 0 0 1 5.835-5.951l86.927-.858a5.894 5.894 0 0 1 5.952 5.835l.393 39.78a5.893 5.893 0 0 0 5.951 5.835l114.921-1.134a5.894 5.894 0 0 1 5.952 5.835L5.835-5.952A5.894 5.894 0 0 1 0 0" clip-path="url(#s)" style="fill:#ffe30d;fill-opacity:1;fill-rule:nonzero;stroke:none" transform="matrix(1.33333 0 0 -1.33333 796.656 524.914)"/><path d="m0 0-5.055.05-13.849.137-20.669.204-25.515.252-28.387.28-29.287.289-28.096.277-25.18.249-20.165.199-13.177.13c-2.469.025-5.336.381-7.61-.736-2.536-1.246-4.009-3.835-4.097-6.612-.02-.639-.012-1.281-.019-1.922l-.101-10.272-.268-27.155-.086-8.659-.184-18.677-.276-27.974-.265-26.846-.147-14.866-.392-39.639c-.021-2.175-.083-4.354-.064-6.529.037-4.309 3.367-7.485 7.621-7.555 4.715-.078 9.432-.093 14.148-.14l26.782-.264 27.788-.274 16.802-.166c3.144-.031 6.21.944 7.743 3.981 1.15 2.278.846 5.109.871 7.593l.263 26.663c.028 2.825.045 5.649.084 8.474.039 2.824 1.995 4.739 4.814 4.725 3.972-.021 7.943-.079 11.915-.118l23.795-.235 28.868-.285 27.026-.267 18.63-.184c1.333-.013 2.667-.033 4-.039 4.221-.021 7.636 3.052 7.78 7.338.092 2.754.054 5.519.081 8.275l.202 20.442.27 27.373a284461 284461 0 0 1 .539 54.59l.166 16.743c.011 1.123.028 2.246.033 3.369C7.352-3.547 4.284-.166 0 0c-1.931.075-1.927-2.925 0-3 2.462-.096 4.31-2.027 4.335-4.483.002-.255-.005-.511-.008-.767l-.043-4.42-.177-17.906-.257-25.978-.284-28.767-.263-26.721-.192-19.387-.054-5.446c-.01-1.081.085-2.272-.326-3.29-.944-2.337-3.126-2.759-5.311-2.738l-5.249.052-20.209.2-27.587.272-28.214.278-22.47.222c-3.317.033-6.641.132-9.958.099-4.412-.045-7.462-3.498-7.521-7.785-.038-2.806-.055-5.611-.083-8.417l-.261-26.418c-.02-2.056.425-5.091-.788-6.888-1.35-2.001-3.414-1.945-5.495-1.925l-17.813.176-27.855.275-26.169.259c-4.383.043-8.774.013-13.155.129-1.811.049-3.466 1.008-4.163 2.737-.353.874-.32 1.749-.311 2.66l.087 8.818.269 27.175.099 10.088.163 16.483.269 27.216.27 27.337.17 17.257.092 9.361.269 27.194.093 9.405c.004.472-.004.946.014 1.417.093 2.454 2.02 4.31 4.47 4.335 1.848.019 3.7-.037 5.547-.055l14.092-.139 20.615-.203 25.28-.25 28.171-.278 29.038-.287 27.866-.275 25.018-.247 20.048-.198 13.334-.132L0-3c1.931-.019 1.933 2.981 0 3" clip-path="url(#t)" style="fill:#000;fill-opacity:1;fill-rule:nonzero;stroke:none" transform="matrix(1.33333 0 0 -1.33333 796.656 522.914)"/><path d="m0 0-142.914 1.411 2.371 240.155 142.914-1.411z" clip-path="url(#u)" style="fill:#ff3342;fill-opacity:1;fill-rule:nonzero;stroke:none" transform="matrix(1.33333 0 0 -1.33333 576.405 811.543)"/><path d="m0 0-14.292.141-34.055.336-41.294.408-35.696.352-11.787.117c-1.809.018-3.734.227-5.538.054-.082-.007-.169.002-.252.003l1.5-1.5.063 6.448.173 17.466.255 25.811.312 31.606.34 34.497.344 34.821.322 32.58.271 27.43.194 19.73c.031 3.098.271 6.276.093 9.371-.008.13.002.264.004.395l-1.5-1.5 14.292-.141 34.055-.336 41.294-.408 35.695-.353 11.788-.116c1.808-.018 3.734-.228 5.537-.055.083.008.17-.001.253-.002l-1.5 1.5-.064-6.448-.172-17.466-.255-25.812-.312-31.606-.341-34.497-.343-34.82-.322-32.58-.271-27.43-.195-19.731c-.03-3.12-.132-6.25-.092-9.37.002-.132-.003-.263-.004-.395-.019-1.931 2.981-1.933 3 0l.064 6.448.172 17.466.255 25.811.312 31.607.341 34.496.343 34.821.322 32.58.271 27.43.195 19.73c.03 3.121.132 6.25.092 9.371-.002.132.003.263.004.395.008.817-.694 1.492-1.5 1.5l-14.292.141-34.055.336-41.294.408-35.696.352c-5.761.057-11.564.32-17.325.171-.084-.002-.168.002-.252.003-.817.008-1.492-.694-1.5-1.5l-.064-6.448-.172-17.466-.255-25.812-.312-31.606-.341-34.497-.344-34.82-.321-32.58-.271-27.43-.195-19.731c-.031-3.12-.133-6.25-.092-9.37q0-.198-.004-.395c-.008-.817.694-1.492 1.5-1.5l14.292-.141 34.055-.336 41.294-.408 35.695-.352c5.762-.057 11.564-.32 17.325-.172.084.003.169-.001.253-.002 1.931-.019 1.933 2.981 0 3" clip-path="url(#v)" style="fill:#000;fill-opacity:1;fill-rule:nonzero;stroke:none" transform="matrix(1.33333 0 0 -1.33333 576.405 809.543)"/><path d="m0 0-113.857 1.124.189 19.154L.189 19.153z" clip-path="url(#w)" style="fill:#0aff9f;fill-opacity:1;fill-rule:nonzero;stroke:none" transform="matrix(1.33333 0 0 -1.33333 558.385 475.465)"/><path d="m0 0-11.319.112-27.183.268-32.89.325-28.44.281-9.402.092c-1.425.015-3.01.227-4.427.044-.063-.008-.132.001-.196.002l1.5-1.5.189 19.154-1.5-1.5 11.319-.112 27.184-.269 32.89-.324 28.439-.281 9.402-.093c1.426-.014 3.01-.227 4.427-.044.063.009.133-.001.196-.002l-1.5 1.5L-1.5-1.5c-.019-1.931 2.981-1.933 3 0l.189 19.153c.008.817-.694 1.493-1.5 1.5l-11.319.112-27.183.269-32.89.324-28.439.281c-4.594.045-9.238.296-13.83.137-.065-.003-.13.001-.196.002-.816.008-1.492-.694-1.5-1.5l-.189-19.154c-.008-.817.694-1.492 1.5-1.5l11.319-.112 27.183-.268 32.891-.325 28.439-.281c4.593-.045 9.237-.295 13.829-.136Q-.098-2.997 0-3c1.931-.019 1.933 2.981 0 3" clip-path="url(#x)" style="fill:#000;fill-opacity:1;fill-rule:nonzero;stroke:none" transform="matrix(1.33333 0 0 -1.33333 558.385 473.465)"/><path d="m0 0-113.857 1.124.189 19.154L.189 19.153z" clip-path="url(#y)" style="fill:#0aff9f;fill-opacity:1;fill-rule:nonzero;stroke:none" transform="matrix(1.33333 0 0 -1.33333 554.643 854.496)"/><path d="m0 0-11.319.112-27.183.268-32.89.325-28.44.281-9.402.092c-1.425.015-3.01.227-4.427.044-.063-.008-.132.001-.196.002l1.5-1.5.189 19.154-1.5-1.5 11.319-.112 27.184-.269 32.89-.324 28.439-.281 9.402-.093c1.426-.014 3.01-.227 4.427-.044.063.009.133-.001.196-.002l-1.5 1.5L-1.5-1.5c-.019-1.931 2.981-1.933 3 0l.189 19.153c.008.817-.694 1.493-1.5 1.5l-11.319.112-27.183.269-32.89.324-28.439.281c-4.594.045-9.238.296-13.83.137-.065-.003-.13.001-.196.002-.816.008-1.492-.694-1.5-1.5l-.189-19.154c-.008-.817.694-1.492 1.5-1.5l11.319-.112 27.183-.268 32.891-.325 28.439-.281c4.593-.045 9.237-.295 13.829-.136Q-.098-2.997 0-3c1.931-.019 1.933 2.981 0 3" clip-path="url(#z)" style="fill:#000;fill-opacity:1;fill-rule:nonzero;stroke:none" transform="matrix(1.33333 0 0 -1.33333 554.643 852.496)"/><path d="m0 0-157.648 1.556.262 26.521L.262 26.52Z" clip-path="url(#A)" style="fill:#0aff9f;fill-opacity:1;fill-rule:nonzero;stroke:none" transform="matrix(1.33333 0 0 -1.33333 589.234 507.149)"/><path d="m0 0-15.729.155-37.755.373-45.389.448-39.433.389-12.919.128c-2.013.02-4.14.241-6.148.061-.089-.008-.184.002-.275.002l1.5-1.5.229 23.183.033 3.338-1.5-1.5 15.729-.156 37.755-.372 45.39-.449 39.432-.389 12.919-.127c2.013-.02 4.14-.242 6.148-.061.09.008.184-.002.275-.003l-1.5 1.5-.229-23.182L-1.5-1.5c-.019-1.931 2.981-1.933 3 0l.229 23.182.033 3.338c.008.817-.694 1.492-1.5 1.5l-15.729.155-37.755.373-45.39.448-39.432.39c-6.343.062-12.725.338-19.067.188-.091-.002-.183.002-.275.003-.817.008-1.492-.694-1.5-1.5l-.229-23.183-.033-3.338c-.008-.816.694-1.492 1.5-1.5l15.729-.155 37.755-.373 45.39-.448 39.433-.389c6.342-.063 12.724-.338 19.066-.188.091.002.183-.002.275-.003 1.931-.019 1.933 2.981 0 3" clip-path="url(#B)" style="fill:#000;fill-opacity:1;fill-rule:nonzero;stroke:none" transform="matrix(1.33333 0 0 -1.33333 589.234 505.149)"/><path d="m0 0-157.648 1.556.262 26.521L.262 26.52Z" clip-path="url(#C)" style="fill:#0aff9f;fill-opacity:1;fill-rule:nonzero;stroke:none" transform="matrix(1.33333 0 0 -1.33333 585.975 837.232)"/><path d="m0 0-15.729.155-37.755.373-45.39.448-39.432.389-12.919.128c-2.013.02-4.14.241-6.148.061-.089-.008-.184.002-.275.002l1.5-1.5.229 23.183.033 3.338-1.5-1.5 15.729-.156 37.755-.372 45.39-.449 39.432-.389 12.919-.127c2.013-.02 4.14-.242 6.148-.061.09.008.184-.002.275-.003l-1.5 1.5-.229-23.182L-1.5-1.5c-.019-1.931 2.981-1.933 3 0l.229 23.182.033 3.338c.008.817-.694 1.492-1.5 1.5l-15.729.155-37.755.373-45.39.448-39.432.39c-6.343.062-12.725.338-19.067.188-.091-.002-.183.002-.275.003-.817.008-1.492-.694-1.5-1.5l-.229-23.183-.033-3.338c-.008-.816.694-1.492 1.5-1.5l15.729-.155 37.755-.373 45.39-.448 39.433-.389c6.342-.063 12.724-.338 19.066-.188.091.002.183-.002.275-.003 1.931-.019 1.933 2.981 0 3" clip-path="url(#D)" style="fill:#000;fill-opacity:1;fill-rule:nonzero;stroke:none" transform="matrix(1.33333 0 0 -1.33333 585.975 835.232)"/><path d="m0 0-19.89.196.247 25.047 19.89-.196z" clip-path="url(#E)" style="fill:#feffff;fill-opacity:1;fill-rule:nonzero;stroke:none" transform="matrix(1.33333 0 0 -1.33333 443.219 504.725)"/><path d="m0 0-19.89.196 1.5-1.5.216 21.895.031 3.152-1.5-1.5 19.89-.196-1.5 1.5-.216-21.895L-1.5-1.5c-.019-1.931 2.981-1.933 3 0l.216 21.895.031 3.152c.008.817-.694 1.492-1.5 1.5l-19.89.196c-.817.008-1.492-.694-1.5-1.5l-.216-21.895-.031-3.152c-.008-.816.694-1.492 1.5-1.5L0-3c1.931-.019 1.933 2.981 0 3" clip-path="url(#F)" style="fill:#000;fill-opacity:1;fill-rule:nonzero;stroke:none" transform="matrix(1.33333 0 0 -1.33333 443.219 502.725)"/><path d="m0 0-22.945.227a3.805 3.805 0 0 0-3.769 3.843l.157 15.961a3.807 3.807 0 0 0 3.844 3.769l22.946-.227a3.806 3.806 0 0 0 3.769-3.844l-.158-15.96A3.807 3.807 0 0 0 0 0" clip-path="url(#G)" style="fill:#feffff;fill-opacity:1;fill-rule:nonzero;stroke:none" transform="matrix(1.33333 0 0 -1.33333 673.413 701.498)"/><path d="m0 0-18.783.185c-2.116.021-6.281-.719-6.431 2.391-.142 2.929.058 5.914.087 8.846l.054 5.4c.01 1.076-.166 2.349.608 3.211.792.883 1.878.766 2.938.755l4.325-.042 12.032-.119 4.276-.042c1.039-.011 2.07.067 2.836-.812.77-.884.553-2.243.542-3.333l-.054-5.444c-.028-2.887.129-5.844-.086-8.725C2.246.965 1.318.046 0 0c-1.925-.067-1.934-3.068 0-3 3.004.105 5.224 2.336 5.345 5.332.051 1.282.025 2.572.038 3.855.038 3.853.095 7.706.114 11.559.011 2.241-.919 4.3-3.03 5.306-1.181.562-2.404.523-3.667.536l-11.78.116c-3.186.031-6.375.112-9.561.094-2.468-.013-4.764-1.539-5.355-4.021-.284-1.193-.173-2.524-.185-3.74l-.12-12.142c-.017-1.764.067-3.415 1.297-4.846 1.196-1.391 2.869-1.812 4.619-1.829l21.668-.214L0-3c1.931-.019 1.933 2.981 0 3" clip-path="url(#H)" style="fill:#000;fill-opacity:1;fill-rule:nonzero;stroke:none" transform="matrix(1.33333 0 0 -1.33333 673.413 699.498)"/><path d="m0 0-22.945.227a3.806 3.806 0 0 0-3.769 3.843l.157 15.961a3.807 3.807 0 0 0 3.844 3.769l22.946-.227a3.806 3.806 0 0 0 3.769-3.844l-.158-15.96A3.807 3.807 0 0 0 0 0" clip-path="url(#I)" style="fill:#feffff;fill-opacity:1;fill-rule:nonzero;stroke:none" transform="matrix(1.33333 0 0 -1.33333 727.69 702.034)"/><path d="m0 0-18.783.185c-2.116.021-6.281-.719-6.431 2.391-.142 2.929.058 5.914.087 8.846l.054 5.4c.01 1.076-.166 2.349.608 3.211.792.883 1.878.766 2.938.755l4.325-.042 12.032-.119 4.276-.042c1.039-.011 2.07.067 2.836-.812.77-.884.553-2.243.542-3.333l-.054-5.444c-.028-2.887.129-5.844-.086-8.725C2.246.965 1.318.046 0 0c-1.925-.067-1.934-3.068 0-3 3.004.105 5.224 2.336 5.345 5.332.051 1.282.025 2.572.038 3.855.038 3.853.095 7.706.114 11.559.011 2.241-.919 4.3-3.03 5.306-1.181.562-2.404.523-3.667.536l-11.78.116c-3.186.031-6.375.112-9.561.094-2.468-.013-4.764-1.539-5.355-4.021-.284-1.193-.173-2.524-.185-3.74l-.12-12.142c-.017-1.764.067-3.415 1.297-4.846 1.196-1.391 2.869-1.812 4.619-1.829l21.668-.214L0-3c1.931-.019 1.933 2.981 0 3" clip-path="url(#J)" style="fill:#000;fill-opacity:1;fill-rule:nonzero;stroke:none" transform="matrix(1.33333 0 0 -1.33333 727.69 700.034)"/><path d="m0 0-22.945.227a3.806 3.806 0 0 0-3.769 3.843l.157 15.961a3.807 3.807 0 0 0 3.844 3.769l22.946-.227a3.806 3.806 0 0 0 3.769-3.843L3.844 3.769A3.807 3.807 0 0 0 0 0" clip-path="url(#K)" style="fill:#feffff;fill-opacity:1;fill-rule:nonzero;stroke:none" transform="matrix(1.33333 0 0 -1.33333 781.968 702.57)"/><path d="m0 0-18.783.185c-2.116.021-6.281-.719-6.431 2.391-.142 2.929.058 5.914.087 8.846l.054 5.4c.01 1.076-.166 2.349.608 3.211.792.883 1.878.766 2.938.755l4.325-.042 12.032-.119 4.276-.042c1.039-.011 2.07.067 2.836-.812.77-.884.553-2.243.542-3.333l-.054-5.444c-.028-2.887.129-5.844-.086-8.725C2.246.965 1.318.046 0 0c-1.925-.067-1.934-3.068 0-3 3.004.105 5.224 2.336 5.345 5.332.051 1.282.025 2.572.038 3.855.038 3.853.095 7.706.114 11.559.011 2.241-.919 4.3-3.03 5.306-1.181.562-2.404.523-3.667.536l-11.78.116c-3.186.031-6.375.112-9.561.094-2.468-.013-4.764-1.539-5.355-4.021-.284-1.193-.173-2.524-.185-3.74l-.12-12.142c-.017-1.764.067-3.415 1.297-4.846 1.196-1.391 2.869-1.812 4.619-1.829l21.668-.214L0-3c1.931-.019 1.933 2.981 0 3" clip-path="url(#L)" style="fill:#000;fill-opacity:1;fill-rule:nonzero;stroke:none" transform="matrix(1.33333 0 0 -1.33333 781.968 700.57)"/><path d="m0 0-22.945.227a3.805 3.805 0 0 0-3.769 3.843l.157 15.961a3.807 3.807 0 0 0 3.844 3.769l22.946-.227a3.806 3.806 0 0 0 3.769-3.844l-.158-15.96A3.807 3.807 0 0 0 0 0" clip-path="url(#M)" style="fill:#feffff;fill-opacity:1;fill-rule:nonzero;stroke:none" transform="matrix(1.33333 0 0 -1.33333 674.727 568.46)"/><path d="m0 0-18.783.185c-2.116.021-6.281-.719-6.431 2.391-.142 2.929.058 5.914.087 8.846l.054 5.4c.01 1.076-.166 2.349.608 3.211.792.883 1.878.766 2.938.755l4.325-.042 12.032-.119 4.276-.042c1.039-.011 2.07.067 2.836-.812.77-.884.553-2.243.542-3.333l-.054-5.444c-.028-2.887.129-5.844-.086-8.725C2.246.965 1.318.046 0 0c-1.925-.067-1.934-3.068 0-3 3.004.105 5.224 2.336 5.345 5.332.051 1.282.025 2.572.038 3.855.038 3.853.095 7.706.114 11.559.011 2.241-.919 4.3-3.03 5.306-1.181.562-2.404.523-3.667.536l-11.78.116c-3.186.031-6.375.112-9.561.094-2.469-.013-4.764-1.539-5.355-4.021-.284-1.193-.173-2.524-.185-3.74l-.12-12.142c-.017-1.764.067-3.415 1.297-4.846 1.196-1.391 2.869-1.812 4.619-1.829l21.668-.214L0-3c1.931-.019 1.933 2.981 0 3" clip-path="url(#N)" style="fill:#000;fill-opacity:1;fill-rule:nonzero;stroke:none" transform="matrix(1.33333 0 0 -1.33333 674.727 566.46)"/><path d="m0 0-22.945.227a3.805 3.805 0 0 0-3.769 3.843l.157 15.961a3.807 3.807 0 0 0 3.844 3.769l22.946-.227a3.806 3.806 0 0 0 3.769-3.844l-.158-15.96A3.807 3.807 0 0 0 0 0" clip-path="url(#O)" style="fill:#feffff;fill-opacity:1;fill-rule:nonzero;stroke:none" transform="matrix(1.33333 0 0 -1.33333 620.759 567.928)"/><path d="m0 0-18.783.185c-2.116.021-6.281-.719-6.431 2.391-.142 2.929.058 5.914.087 8.846l.054 5.4c.01 1.076-.166 2.349.608 3.211.792.883 1.878.766 2.938.755l4.325-.042 12.032-.119 4.276-.042c1.039-.011 2.07.067 2.836-.812.77-.884.553-2.243.542-3.333l-.054-5.444c-.028-2.887.129-5.844-.086-8.725C2.246.965 1.318.046 0 0c-1.925-.067-1.934-3.068 0-3 3.004.105 5.224 2.336 5.345 5.332.051 1.282.025 2.572.038 3.855.038 3.853.095 7.706.114 11.559.011 2.241-.919 4.3-3.03 5.306-1.181.562-2.404.523-3.667.536l-11.78.116c-3.186.031-6.375.112-9.561.094-2.468-.013-4.764-1.539-5.355-4.021-.284-1.193-.173-2.524-.185-3.74l-.12-12.142c-.017-1.764.067-3.415 1.297-4.846 1.196-1.391 2.869-1.812 4.619-1.829l21.668-.214L0-3c1.931-.019 1.933 2.981 0 3" clip-path="url(#P)" style="fill:#000;fill-opacity:1;fill-rule:nonzero;stroke:none" transform="matrix(1.33333 0 0 -1.33333 620.759 565.928)"/><path d="m0 0-22.945.227a3.806 3.806 0 0 0-3.769 3.843l.157 15.961a3.807 3.807 0 0 0 3.844 3.769l22.946-.227a3.806 3.806 0 0 0 3.769-3.844l-.158-15.96A3.807 3.807 0 0 0 0 0" clip-path="url(#Q)" style="fill:#feffff;fill-opacity:1;fill-rule:nonzero;stroke:none" transform="matrix(1.33333 0 0 -1.33333 729.004 568.996)"/><path d="m0 0-18.783.185c-2.116.021-6.281-.719-6.431 2.391-.142 2.929.058 5.914.087 8.846l.054 5.4c.01 1.076-.166 2.349.608 3.211.792.883 1.878.766 2.938.755l4.325-.042 12.032-.119 4.276-.042c1.039-.011 2.07.067 2.836-.812.77-.884.553-2.243.542-3.333l-.054-5.444c-.028-2.887.129-5.844-.086-8.725C2.246.965 1.318.046 0 0c-1.925-.067-1.934-3.068 0-3 3.004.105 5.224 2.336 5.345 5.332.051 1.282.025 2.572.038 3.855.038 3.853.095 7.706.114 11.559.011 2.241-.919 4.3-3.03 5.306-1.181.562-2.404.523-3.667.536l-11.78.116c-3.186.031-6.375.112-9.561.094-2.469-.013-4.764-1.539-5.355-4.021-.284-1.193-.173-2.524-.185-3.74l-.12-12.142c-.017-1.764.067-3.415 1.297-4.846 1.196-1.391 2.869-1.812 4.619-1.829l21.668-.214L0-3c1.931-.019 1.933 2.981 0 3" clip-path="url(#R)" style="fill:#000;fill-opacity:1;fill-rule:nonzero;stroke:none" transform="matrix(1.33333 0 0 -1.33333 729.004 566.996)"/><path d="m0 0-22.945.227a3.805 3.805 0 0 0-3.769 3.843l.157 15.961a3.807 3.807 0 0 0 3.844 3.769l22.946-.227a3.806 3.806 0 0 0 3.769-3.844l-.158-15.96A3.807 3.807 0 0 0 0 0" clip-path="url(#S)" style="fill:#feffff;fill-opacity:1;fill-rule:nonzero;stroke:none" transform="matrix(1.33333 0 0 -1.33333 783.281 569.532)"/><path d="m0 0-18.783.185c-2.116.021-6.281-.719-6.431 2.391-.142 2.929.058 5.914.087 8.846l.054 5.4c.01 1.076-.166 2.349.608 3.211.792.883 1.878.766 2.938.755l4.325-.042 12.032-.119 4.276-.042c1.039-.011 2.07.067 2.836-.812.77-.884.553-2.243.542-3.333l-.054-5.444c-.028-2.887.129-5.844-.086-8.725C2.246.965 1.318.046 0 0c-1.925-.067-1.934-3.068 0-3 3.004.105 5.224 2.336 5.345 5.332.051 1.282.025 2.572.038 3.855.038 3.853.095 7.706.114 11.559.011 2.241-.919 4.3-3.03 5.306-1.181.562-2.404.523-3.667.536l-11.78.116c-3.186.031-6.375.112-9.561.094-2.469-.013-4.764-1.539-5.355-4.021-.284-1.193-.173-2.524-.185-3.74l-.12-12.142c-.017-1.764.067-3.415 1.297-4.846 1.196-1.391 2.869-1.812 4.619-1.829l21.668-.214L0-3c1.931-.019 1.933 2.981 0 3" clip-path="url(#T)" style="fill:#000;fill-opacity:1;fill-rule:nonzero;stroke:none" transform="matrix(1.33333 0 0 -1.33333 783.281 567.532)"/><path d="m0 0-19.89.196.247 25.047 19.89-.196z" clip-path="url(#U)" style="fill:#feffff;fill-opacity:1;fill-rule:nonzero;stroke:none" transform="matrix(1.33333 0 0 -1.33333 553.904 835.388)"/><path d="m0 0-19.89.196 1.5-1.5.216 21.895.031 3.152-1.5-1.5 19.89-.196-1.5 1.5-.216-21.895L-1.5-1.5c-.019-1.931 2.981-1.933 3 0l.216 21.895.031 3.152c.008.817-.694 1.492-1.5 1.5l-19.89.196c-.817.008-1.492-.694-1.5-1.5l-.216-21.895-.031-3.152c-.008-.816.694-1.492 1.5-1.5L0-3c1.931-.019 1.933 2.981 0 3" clip-path="url(#V)" style="fill:#000;fill-opacity:1;fill-rule:nonzero;stroke:none" transform="matrix(1.33333 0 0 -1.33333 553.904 833.388)"/><path d="m0 0-.038-5.883-.105-16.011-.155-23.683-.188-28.9-.208-31.786-.208-31.961-.195-29.801-.164-25.184-.119-18.111c-.018-2.858-.106-5.725-.056-8.583.003-.123-.001-.246-.002-.369-.013-1.931 2.987-1.933 3 0l.038 5.883.105 16.011.155 23.683.188 28.9.208 31.786.208 31.961.195 29.801.164 25.184.119 18.111c.018 2.858.106 5.725.056 8.583-.003.123.001.246.002.369.013 1.931-2.987 1.933-3 0" clip-path="url(#W)" style="fill:#000;fill-opacity:1;fill-rule:nonzero;stroke:none" transform="matrix(1.33333 0 0 -1.33333 401.92 505.32)"/><path d="M0 0c-.176-17.876-17.534-32.197-38.768-31.987S-77.074-17.116-76.898.759c.177 17.876 17.534 32.197 38.769 31.987C-16.895 32.537.176 17.876 0 0" clip-path="url(#X)" style="fill:#feffff;fill-opacity:1;fill-rule:nonzero;stroke:none" transform="matrix(1.33333 0 0 -1.33333 489.961 619.199)"/><path d="M0 0c-.222-14.179-11.634-24.963-24.608-28.76-14.07-4.119-30.676-.907-41.055 9.804-4.491 4.636-7.608 10.684-8.143 17.17-.545 6.617 1.459 13.075 5.36 18.413 8.716 11.929 25.092 16.52 39.205 13.931C-15.865 28.103-2.932 18.816-.387 4.795-.1 3.212.007 1.608 0 0c-.008-1.931 2.992-1.933 3 0 .063 15.405-11.839 27.515-25.872 32.047-15.104 4.878-33.221 1.672-44.618-9.74-5.117-5.124-8.525-11.772-9.266-19.005-.723-7.062 1.331-14.242 5.39-20.033 9.244-13.191 26.431-18.577 41.936-16.171C-14.883-30.646-.525-20.545 2.434-5.429 2.784-3.641 2.972-1.822 3 0 3.03 1.931.03 1.932 0 0" clip-path="url(#Y)" style="fill:#000;fill-opacity:1;fill-rule:nonzero;stroke:none" transform="matrix(1.33333 0 0 -1.33333 487.961 619.199)"/><path d="M0 0c-.127-12.837-11.386-23.133-25.148-22.997S-49.963-12.345-49.837.492s11.386 23.133 25.148 22.997S.127 12.837 0 0" clip-path="url(#Z)" style="fill:#000;fill-opacity:1;fill-rule:nonzero;stroke:none" transform="matrix(1.33333 0 0 -1.33333 471.883 614.386)"/><path d="M0 0c-.037-3.779-2.985-6.814-6.584-6.778-3.599.035-6.487 3.128-6.45 6.907.038 3.779 2.986 6.814 6.585 6.778S.037 3.779 0 0" clip-path="url(#aa)" style="fill:#feffff;fill-opacity:1;fill-rule:nonzero;stroke:none" transform="matrix(1.33333 0 0 -1.33333 463.285 621.977)"/><path d="M0 0c-.027-2.699-2.132-4.867-4.703-4.842S-9.336-2.607-9.31.092c.027 2.699 2.133 4.867 4.703 4.842S.027 2.699 0 0" clip-path="url(#ab)" style="fill:#feffff;fill-opacity:1;fill-rule:nonzero;stroke:none" transform="matrix(1.33333 0 0 -1.33333 438.556 628.685)"/><path d="m0 0-83.415.824.352 35.625 83.415-.824z" clip-path="url(#ac)" style="fill:#0aff9f;fill-opacity:1;fill-rule:nonzero;stroke:none" transform="matrix(1.33333 0 0 -1.33333 492.361 610.822)"/><path d="m0 0-28.311.279-44.806.443-10.298.102 1.5-1.5.309 31.224.043 4.401-1.5-1.5 28.311-.28 44.806-.442 10.298-.102-1.5 1.5L-1.457 2.9-1.5-1.5c-.019-1.931 2.981-1.933 3 0l.308 31.225.044 4.4c.008.817-.694 1.492-1.5 1.5l-28.311.279-44.806.443-10.298.102c-.817.008-1.492-.694-1.5-1.5l-.308-31.225-.044-4.4c-.008-.817.694-1.493 1.5-1.5l28.311-.28 44.806-.442L0-3c1.931-.019 1.933 2.981 0 3" clip-path="url(#ad)" style="fill:#000;fill-opacity:1;fill-rule:nonzero;stroke:none" transform="matrix(1.33333 0 0 -1.33333 492.361 608.822)"/><path d="M0 0c-.222-14.179-11.634-24.963-24.608-28.76-14.07-4.119-30.676-.907-41.055 9.804-4.491 4.636-7.608 10.684-8.143 17.17-.545 6.617 1.459 13.075 5.36 18.413 8.716 11.929 25.092 16.52 39.205 13.931C-15.865 28.103-2.932 18.816-.387 4.795-.1 3.212.007 1.608 0 0c-.008-1.931 2.992-1.933 3 0 .063 15.405-11.839 27.515-25.872 32.047-15.104 4.878-33.221 1.672-44.618-9.74-5.117-5.124-8.525-11.772-9.266-19.005-.723-7.062 1.331-14.242 5.39-20.033 9.244-13.191 26.431-18.577 41.936-16.171C-14.883-30.646-.525-20.545 2.434-5.429 2.784-3.641 2.972-1.822 3 0 3.03 1.931.03 1.932 0 0" clip-path="url(#ae)" style="fill:#000;fill-opacity:1;fill-rule:nonzero;stroke:none" transform="matrix(1.33333 0 0 -1.33333 487.961 619.199)"/><path d="M0 0a6.85 6.85 0 0 0-6.784 6.919l.928 94.035a6.853 6.853 0 0 0 13.704-.135L6.919 6.784A6.85 6.85 0 0 0 0 0" clip-path="url(#af)" style="fill:#feffff;fill-opacity:1;fill-rule:nonzero;stroke:none" transform="matrix(1.33333 0 0 -1.33333 556.197 748.853)"/><path d="M0 0c-2.979.029-5.25 2.508-5.284 5.425-.004.297.006.595.009.892l.058 5.907.232 23.447.293 29.721.246 24.913.071 7.228c.019 1.916-.06 3.753 1.305 5.339 2.105 2.447 6.001 2.462 8.115.017.948-1.098 1.306-2.43 1.3-3.851-.006-1.553-.031-3.107-.046-4.661l-.217-21.951-.292-29.554-.257-26.073c-.038-3.834.001-7.677-.114-11.509C5.33 2.307 2.964.043 0 0c-1.929-.028-1.934-3.028 0-3 4.94.072 8.366 3.982 8.424 8.779.022 1.836.037 3.671.055 5.507l.236 23.898.304 30.795.25 25.399.067 6.722c.032 3.292-.874 6.352-3.795 8.293-2.851 1.894-6.771 1.743-9.499-.295-2.149-1.605-3.326-4.043-3.398-6.707-.037-1.357-.027-2.717-.041-4.074l-.219-22.187-.303-30.735-.263-26.63-.079-7.976c-.018-1.887-.144-3.745.588-5.545C-6.41-.863-3.368-2.967 0-3c1.931-.019 1.933 2.981 0 3" clip-path="url(#ag)" style="fill:#000;fill-opacity:1;fill-rule:nonzero;stroke:none" transform="matrix(1.33333 0 0 -1.33333 556.197 746.853)"/><path d="M0 0a6.85 6.85 0 0 0-6.784 6.919l.051 5.198a6.852 6.852 0 0 0 13.704-.135l-.052-5.198A6.85 6.85 0 0 0 0 0" clip-path="url(#ah)" style="fill:#feffff;fill-opacity:1;fill-rule:nonzero;stroke:none" transform="matrix(1.33333 0 0 -1.33333 555.823 786.656)"/><path d="M0 0a5.37 5.37 0 0 0-4.235 2.157c-.833 1.127-1.058 2.392-1.044 3.756l.037 3.821c.012 1.193.07 2.32.672 3.397 1.761 3.151 6.129 3.685 8.606 1.067 1.903-2.012 1.423-4.951 1.398-7.482-.014-1.326.031-2.627-.617-3.838C3.851 1.075 2.034.018 0 0c-1.929-.017-1.934-3.017 0-3 4.784.043 8.363 3.863 8.422 8.572.041 3.223.557 6.895-1.41 9.687-2.927 4.156-8.938 4.854-12.663 1.329-1.659-1.57-2.531-3.762-2.582-6.026-.031-1.37-.027-2.742-.041-4.112-.02-2.026.207-3.975 1.379-5.706C-5.346-1.542-2.775-2.973 0-3c1.931-.019 1.933 2.981 0 3" clip-path="url(#ai)" style="fill:#000;fill-opacity:1;fill-rule:nonzero;stroke:none" transform="matrix(1.33333 0 0 -1.33333 555.823 784.656)"/><path d="M0 0c-.176-17.876-17.534-32.197-38.768-31.987S-77.074-17.116-76.898.759c.177 17.876 17.534 32.197 38.769 31.987C-16.895 32.537.176 17.876 0 0" clip-path="url(#aj)" style="fill:#feffff;fill-opacity:1;fill-rule:nonzero;stroke:none" transform="matrix(1.33333 0 0 -1.33333 579.398 620.082)"/><path d="M0 0c-.222-14.179-11.634-24.963-24.608-28.76-14.07-4.119-30.676-.907-41.055 9.804-4.491 4.636-7.608 10.684-8.143 17.17-.545 6.617 1.459 13.075 5.36 18.413 8.716 11.929 25.092 16.52 39.205 13.93C-15.865 28.103-2.932 18.816-.387 4.795-.1 3.212.007 1.607 0 0c-.008-1.931 2.992-1.933 3 0 .063 15.405-11.839 27.515-25.872 32.047-15.104 4.878-33.221 1.672-44.618-9.74-5.117-5.124-8.525-11.772-9.266-19.005-.723-7.062 1.331-14.242 5.39-20.033 9.244-13.191 26.431-18.577 41.936-16.171C-14.883-30.646-.525-20.545 2.434-5.429 2.784-3.641 2.972-1.822 3 0 3.03 1.931.03 1.932 0 0" clip-path="url(#ak)" style="fill:#000;fill-opacity:1;fill-rule:nonzero;stroke:none" transform="matrix(1.33333 0 0 -1.33333 577.398 620.082)"/><path d="M0 0c-.127-12.837-11.386-23.133-25.148-22.997S-49.963-12.345-49.837.492s11.386 23.133 25.148 22.997S.127 12.837 0 0" clip-path="url(#al)" style="fill:#000;fill-opacity:1;fill-rule:nonzero;stroke:none" transform="matrix(1.33333 0 0 -1.33333 561.32 615.269)"/><path d="M0 0c-.037-3.779-2.985-6.814-6.584-6.778-3.599.035-6.487 3.128-6.45 6.907.038 3.779 2.986 6.814 6.585 6.778S.037 3.779 0 0" clip-path="url(#am)" style="fill:#feffff;fill-opacity:1;fill-rule:nonzero;stroke:none" transform="matrix(1.33333 0 0 -1.33333 552.721 622.86)"/><path d="M0 0c-.027-2.699-2.132-4.867-4.703-4.842S-9.336-2.607-9.31.092c.027 2.699 2.133 4.867 4.703 4.842S.027 2.699 0 0" clip-path="url(#an)" style="fill:#feffff;fill-opacity:1;fill-rule:nonzero;stroke:none" transform="matrix(1.33333 0 0 -1.33333 527.993 629.568)"/><path d="m0 0-83.415.824.352 35.625 83.415-.824z" clip-path="url(#ao)" style="fill:#0aff9f;fill-opacity:1;fill-rule:nonzero;stroke:none" transform="matrix(1.33333 0 0 -1.33333 581.798 611.705)"/><path d="m0 0-28.311.279-44.806.443-10.298.102 1.5-1.5.309 31.224.043 4.401-1.5-1.5 28.311-.28 44.806-.442 10.298-.102-1.5 1.5L-1.457 2.9-1.5-1.5c-.019-1.931 2.981-1.933 3 0l.308 31.225.044 4.4c.008.817-.694 1.492-1.5 1.5l-28.311.279-44.806.443-10.298.102c-.817.008-1.492-.694-1.5-1.5l-.308-31.225-.044-4.4c-.008-.817.694-1.493 1.5-1.5l28.311-.28 44.806-.442L0-3c1.931-.019 1.933 2.981 0 3" clip-path="url(#ap)" style="fill:#000;fill-opacity:1;fill-rule:nonzero;stroke:none" transform="matrix(1.33333 0 0 -1.33333 581.798 609.705)"/><path d="M0 0c-.222-14.179-11.634-24.963-24.608-28.76-14.07-4.119-30.676-.907-41.055 9.804-4.491 4.636-7.608 10.684-8.143 17.17-.545 6.617 1.459 13.075 5.36 18.413 8.716 11.929 25.092 16.52 39.205 13.93C-15.865 28.103-2.932 18.816-.387 4.795-.1 3.212.007 1.607 0 0c-.008-1.931 2.992-1.933 3 0 .063 15.405-11.839 27.515-25.872 32.047-15.104 4.878-33.221 1.672-44.618-9.74-5.117-5.124-8.525-11.772-9.266-19.005-.723-7.062 1.331-14.242 5.39-20.033 9.244-13.191 26.431-18.577 41.936-16.171C-14.883-30.646-.525-20.545 2.434-5.429 2.784-3.641 2.972-1.822 3 0 3.03 1.931.03 1.932 0 0" clip-path="url(#aq)" style="fill:#000;fill-opacity:1;fill-rule:nonzero;stroke:none" transform="matrix(1.33333 0 0 -1.33333 577.398 620.082)"/><path d="M0 0c-.07-7.042-8.36-12.67-18.517-12.569S-36.851-6.679-36.782.363c.07 7.042 8.36 12.67 18.517 12.57C-8.108 12.832.07 7.042 0 0" clip-path="url(#ar)" style="fill:#ff8fdd;fill-opacity:1;fill-rule:nonzero;stroke:none" transform="matrix(1.33333 0 0 -1.33333 504.5 655.98)"/><path d="M0 0c-.149-5.837-6.204-9.26-11.232-10.447-6.169-1.457-13.688-.561-18.704 3.58-1.911 1.577-3.508 3.73-3.801 6.253-.288 2.478.725 4.859 2.389 6.661 4.335 4.695 11.654 6.015 17.744 5.165C-7.825 10.405-.039 6.824 0 0c.011-1.93 3.011-1.934 3 0-.04 7.097-6.591 11.772-12.838 13.486-7.395 2.029-16.288.967-22.299-4.056-2.413-2.015-4.185-4.8-4.564-7.953-.376-3.124.759-6.115 2.713-8.52 4.832-5.947 13.667-7.742 20.919-6.771C-5.813-12.844 2.789-8.28 3 0 3.049 1.931.049 1.93 0 0" clip-path="url(#as)" style="fill:#000;fill-opacity:1;fill-rule:nonzero;stroke:none" transform="matrix(1.33333 0 0 -1.33333 502.5 655.98)"/><path d="M0 0c-.021-2.167-2.572-3.898-5.697-3.867-3.126.03-5.642 1.812-5.62 3.979.021 2.167 2.572 3.898 5.697 3.867S.021 2.167 0 0" clip-path="url(#at)" style="fill:#feffff;fill-opacity:1;fill-rule:nonzero;stroke:none" transform="matrix(1.33333 0 0 -1.33333 480.7 651.495)"/><path d="M0 0a4 4 0 0 0-.014-.253C.018.078-.011-.2-.04-.285l-.074-.24c-.068-.209.114.202 0 .011-.044-.075-.329-.524-.153-.295-.14-.182-.31-.331-.47-.493-.028-.028-.215-.181-.027-.034a5.6 5.6 0 0 0-.759-.471c-.307-.158-.656-.283-1.151-.401-.833-.199-1.909-.212-2.712-.041a8 8 0 0 0-.652.17c-.09.028-.549.198-.399.134a5.4 5.4 0 0 0-.871.478c-.071.046-.268.2-.106.068-.163.133-.311.28-.456.431-.028.029-.206.248-.098.106.107-.14-.052.082-.073.117-.057.096-.256.566-.16.27-.026.08-.054.157-.075.239-.025.091-.048.442-.032.095-.008.17-.012.336.005.506-.033-.344.051.108.079.212.069.261.022.052-.009-.008q.075.141.154.281c.02.035.17.263.067.117-.106-.151.112.13.137.157.078.085.161.163.244.243.025.024.244.213.117.11-.128-.105.11.078.139.097q.154.104.314.198c.457.267.582.314 1.094.463.39.113.864.206 1.123.22.54.027 1.086.045 1.624-.034-.183.027.167-.036.204-.044a7.3 7.3 0 0 0 1.199-.348c-.178.072.061-.028.08-.038q.207-.1.41-.215.13-.074.256-.156c.01-.007.376-.279.168-.109.181-.148.338-.316.501-.481.04-.041.168-.225.016-.01q.113-.159.21-.329A1.3 1.3 0 0 0 0 0c.025-1.929 3.025-1.934 3 0C2.965 2.693.625 4.545-1.803 5.175c-2.632.683-5.687.246-7.792-1.548-1.997-1.701-2.237-4.502-.572-6.512 1.753-2.114 4.844-2.735 7.444-2.369C.027-4.867 2.9-3.036 3 0c.027.81-.708 1.5-1.5 1.5C.665 1.5.027.813 0 0" clip-path="url(#au)" style="fill:#000;fill-opacity:1;fill-rule:nonzero;stroke:none" transform="matrix(1.33333 0 0 -1.33333 478.7 651.495)"/><path d="M0 0c2.31-3.893 6.969-6.01 11.419-5.093 2.274.468 4.3 1.734 6.345 2.77 2.055 1.042 4.228 1.835 6.429.725 2.255-1.138 4.024-2.902 6.47-3.712 2.328-.77 4.933-.825 7.298-.189 2.478.665 4.464 2.258 6.725 3.381.98.487 2.085.866 3.195.715 1.252-.171 2.355-.95 3.371-1.646 2.283-1.565 4.428-2.81 7.239-3.103 2.791-.29 5.653.433 7.992 1.971 1.607 1.057.106 3.656-1.514 2.591C63-2.886 60.66-3.47 58.309-3.129c-2.291.332-3.998 1.639-5.864 2.89-1.945 1.303-4.065 2.159-6.438 1.73-2.179-.394-4.032-1.71-5.911-2.796-2.174-1.256-4.516-1.922-7.038-1.513-2.366.384-4.096 1.733-6.034 3.018C25.088 1.484 23 2.218 20.661 1.867c-2.062-.308-3.928-1.342-5.75-2.3-2.13-1.122-4.317-2.202-6.794-1.8A7.9 7.9 0 0 0 2.59 1.514C1.606 3.173-.988 1.666 0 0" clip-path="url(#av)" style="fill:#000;fill-opacity:1;fill-rule:nonzero;stroke:none" transform="matrix(1.33333 0 0 -1.33333 442.061 688.117)"/><path d="M0 0c2.867 1.55 5.292 3.876 6.994 6.652.41.67.167 1.679-.538 2.052-.732.387-1.615.177-2.053-.538a18 18 0 0 0-.929-1.37q-.083-.101-.164-.204A17 17 0 0 0 .793 4.089c-.037-.03-.273-.224-.095-.077.178.146-.059-.045-.097-.074L.39 3.784A17 17 0 0 0-1.514 2.59c-.691-.373-.967-1.387-.538-2.052C-1.6-.163-.739-.4 0 0" clip-path="url(#aw)" style="fill:#000;fill-opacity:1;fill-rule:nonzero;stroke:none" transform="matrix(1.33333 0 0 -1.33333 439.376 692.125)"/><path d="M0 0c.639-3.609 3.46-6.65 6.928-7.737.749-.234 1.669.277 1.845 1.048.186.816-.246 1.594-1.048 1.845q-.275.088-.547.19c-.319.118.311-.146.003-.003q-.133.06-.262.123-.477.233-.921.524c-.161.106-.311.23-.472.334.336-.215.076-.058.001.005a8.8 8.8 0 0 0-1.282 1.308l.116-.152c-.105.162-.229.312-.336.472a9 9 0 0 0-.656 1.179c-.153.334.025.02-.001-.004.017.016-.18.487-.198.543Q2.993.226 2.893.797c-.137.775-1.125 1.281-1.845 1.048C.215 1.576-.147.83 0 0" clip-path="url(#ax)" style="fill:#000;fill-opacity:1;fill-rule:nonzero;stroke:none" transform="matrix(1.33333 0 0 -1.33333 525.974 685.275)"/></svg>