<svg xmlns="http://www.w3.org/2000/svg" width="1440" height="1440" viewBox="0 0 1440 1440"><defs><clipPath id="a" clipPathUnits="userSpaceOnUse"><path d="M-419.637 772.384h1080v-1080h-1080Z"/></clipPath><clipPath id="b" clipPathUnits="userSpaceOnUse"><path d="M-419.637 770.884h1080v-1080h-1080Z"/></clipPath><clipPath id="c" clipPathUnits="userSpaceOnUse"><path d="M-712.574 407.381h1080v-1080h-1080Z"/></clipPath><clipPath id="d" clipPathUnits="userSpaceOnUse"><path d="M-714.074 407.381h1080v-1080h-1080Z"/></clipPath><clipPath id="e" clipPathUnits="userSpaceOnUse"><path d="M-644.693 686.968h1080v-1080h-1080Z"/></clipPath><clipPath id="f" clipPathUnits="userSpaceOnUse"><path d="M-439.217 677.11h1080v-1080h-1080Z"/></clipPath><clipPath id="g" clipPathUnits="userSpaceOnUse"><path d="M-435.174 677.468h1080v-1080h-1080Z"/></clipPath><clipPath id="h" clipPathUnits="userSpaceOnUse"><path d="M-433.674 677.468h1080v-1080h-1080Z"/></clipPath><clipPath id="i" clipPathUnits="userSpaceOnUse"><path d="M-744.652 677.468h1080v-1080h-1080Z"/></clipPath><clipPath id="j" clipPathUnits="userSpaceOnUse"><path d="M-743.152 677.468h1080v-1080h-1080Z"/></clipPath><clipPath id="k" clipPathUnits="userSpaceOnUse"><path d="M-491.817 657.882h1080v-1080h-1080Z"/></clipPath><clipPath id="l" clipPathUnits="userSpaceOnUse"><path d="M-522.82 643.072h1080v-1080h-1080Z"/></clipPath><clipPath id="m" clipPathUnits="userSpaceOnUse"><path d="M-547.595 610.547h1080v-1080h-1080Z"/></clipPath><clipPath id="n" clipPathUnits="userSpaceOnUse"><path d="M-624.03 657.259h1080v-1080h-1080Z"/></clipPath><clipPath id="o" clipPathUnits="userSpaceOnUse"><path d="M-463.736 736.82h1080v-1080h-1080Z"/></clipPath><clipPath id="p" clipPathUnits="userSpaceOnUse"><path d="M-530.178 702.127h1080v-1080h-1080Z"/></clipPath><clipPath id="q" clipPathUnits="userSpaceOnUse"><path d="M-563.317 736.311h1080v-1080h-1080Z"/></clipPath><clipPath id="r" clipPathUnits="userSpaceOnUse"><path d="M-595.976 738.747h1080v-1080h-1080Z"/></clipPath><clipPath id="s" clipPathUnits="userSpaceOnUse"><path d="M-632.06 736.82h1080v-1080h-1080Z"/></clipPath><clipPath id="t" clipPathUnits="userSpaceOnUse"><path d="M-368.18 685.205h1080v-1080h-1080Z"/></clipPath><clipPath id="u" clipPathUnits="userSpaceOnUse"><path d="M-389.481 684.87h1080v-1080h-1080Z"/></clipPath><clipPath id="v" clipPathUnits="userSpaceOnUse"><path d="M-408.172 685.205h1080v-1080h-1080Z"/></clipPath><clipPath id="w" clipPathUnits="userSpaceOnUse"><path d="M-424.747 685.205h1080v-1080h-1080Z"/></clipPath><clipPath id="x" clipPathUnits="userSpaceOnUse"><path d="M-669.46 690.115h1080v-1080h-1080Z"/></clipPath><clipPath id="y" clipPathUnits="userSpaceOnUse"><path d="M-685.26 682.568h1080v-1080h-1080Z"/></clipPath><clipPath id="z" clipPathUnits="userSpaceOnUse"><path d="M-697.885 665.993h1080v-1080h-1080Z"/></clipPath><clipPath id="A" clipPathUnits="userSpaceOnUse"><path d="M-740.98 672.693h1080v-1080h-1080Z"/></clipPath><clipPath id="B" clipPathUnits="userSpaceOnUse"><path d="M-693.012 442.358h1080v-1080h-1080Z"/></clipPath><clipPath id="C" clipPathUnits="userSpaceOnUse"><path d="M-691.512 442.358h1080v-1080h-1080Z"/></clipPath><clipPath id="D" clipPathUnits="userSpaceOnUse"><path d="M-668.835 442.358h1080v-1080h-1080Z"/></clipPath><clipPath id="E" clipPathUnits="userSpaceOnUse"><path d="M-667.335 442.358h1080v-1080h-1080Z"/></clipPath><clipPath id="F" clipPathUnits="userSpaceOnUse"><path d="M-640.842 442.358h1080v-1080h-1080Z"/></clipPath><clipPath id="G" clipPathUnits="userSpaceOnUse"><path d="M-639.342 442.358h1080v-1080h-1080Z"/></clipPath><clipPath id="H" clipPathUnits="userSpaceOnUse"><path d="M-612.437 446.446h1080v-1080h-1080Z"/></clipPath><clipPath id="I" clipPathUnits="userSpaceOnUse"><path d="M-612.038 445h1080V-635h-1080Z"/></clipPath><clipPath id="J" clipPathUnits="userSpaceOnUse"><path d="M-424.607 522.158h1080v-1080h-1080Z"/></clipPath><clipPath id="K" clipPathUnits="userSpaceOnUse"><path d="M-425.364 523.453h1080v-1080h-1080Z"/></clipPath><clipPath id="L" clipPathUnits="userSpaceOnUse"><path d="M-453.438 529.568h1080v-1080h-1080Z"/></clipPath><clipPath id="M" clipPathUnits="userSpaceOnUse"><path d="M-451.938 529.568h1080v-1080h-1080Z"/></clipPath><clipPath id="N" clipPathUnits="userSpaceOnUse"><path d="M-549.802 427.736h1080v-1080h-1080Z"/></clipPath><clipPath id="O" clipPathUnits="userSpaceOnUse"><path d="M-551.302 427.736h1080v-1080h-1080Z"/></clipPath><clipPath id="P" clipPathUnits="userSpaceOnUse"><path d="M-71.892-3.623h83.325c0 21.927-18.653 39.702-41.662 39.702-23.01 0-41.663-17.775-41.663-39.702"/></clipPath><clipPath id="Q" clipPathUnits="userSpaceOnUse"><path d="M-42.08-17.274h83.324c0 21.927-18.653 39.702-41.662 39.702-23.01 0-41.663-17.775-41.663-39.702"/></clipPath><clipPath id="R" clipPathUnits="userSpaceOnUse"><path d="M-56.362-11.288h83.325c0 21.927-18.653 39.702-41.662 39.702-23.01 0-41.663-17.775-41.663-39.702"/></clipPath><clipPath id="S" clipPathUnits="userSpaceOnUse"><path d="M-624.562 427.736h1080v-1080h-1080Z"/></clipPath><clipPath id="T" clipPathUnits="userSpaceOnUse"><path d="M-626.062 427.736h1080v-1080h-1080Z"/></clipPath><clipPath id="U" clipPathUnits="userSpaceOnUse"><path d="M-71.892-3.623h83.325c0 21.927-18.653 39.702-41.663 39.702S-71.892 18.304-71.892-3.623"/></clipPath><clipPath id="V" clipPathUnits="userSpaceOnUse"><path d="M-42.08-17.274h83.324c0 21.927-18.653 39.702-41.663 39.702S-42.08 4.653-42.08-17.274"/></clipPath><clipPath id="W" clipPathUnits="userSpaceOnUse"><path d="M-56.362-11.288h83.325c0 21.927-18.653 39.702-41.663 39.702s-41.662-17.775-41.662-39.702"/></clipPath><clipPath id="X" clipPathUnits="userSpaceOnUse"><path d="M-561.908 431.513h1080v-1080h-1080Z"/></clipPath><clipPath id="Y" clipPathUnits="userSpaceOnUse"><path d="M-560.408 431.513h1080v-1080h-1080Z"/></clipPath><clipPath id="Z" clipPathUnits="userSpaceOnUse"><path d="M-541.591 427.891h1080v-1080h-1080Z"/></clipPath><clipPath id="aa" clipPathUnits="userSpaceOnUse"><path d="M-540.091 427.891h1080v-1080h-1080Z"/></clipPath><clipPath id="ab" clipPathUnits="userSpaceOnUse"><path d="M-539.35 455.586h1080v-1080h-1080Z"/></clipPath><clipPath id="ac" clipPathUnits="userSpaceOnUse"><path d="M-537.67 453.752h1080v-1080h-1080Z"/></clipPath><clipPath id="ad" clipPathUnits="userSpaceOnUse"><path d="M-537.67 455.252h1080v-1080h-1080Z"/></clipPath><clipPath id="ae" clipPathUnits="userSpaceOnUse"><path d="M-538.972 466.14h1080v-1080h-1080Z"/></clipPath><clipPath id="af" clipPathUnits="userSpaceOnUse"><path d="M-572.2 452.217h1080v-1080h-1080Z"/></clipPath><clipPath id="ag" clipPathUnits="userSpaceOnUse"><path d="M-538.226 460.123h1080v-1080h-1080Z"/></clipPath></defs><path d="M0 0h1080v1080H0Z" style="fill:#feffff;fill-opacity:1;fill-rule:nonzero;stroke:none" transform="matrix(1.33333 0 0 -1.33333 0 1440)"/><path d="M0 0c-36.56 0-66.303 29.744-66.303 66.303 0 13.559 4.058 26.478 11.485 37.338-7.427 10.858-11.485 23.776-11.485 37.337 0 13.56 4.058 26.478 11.485 37.337-7.427 10.859-11.485 23.779-11.485 37.338s4.058 26.477 11.486 37.337c-7.428 10.86-11.486 23.779-11.486 37.338s4.058 26.477 11.485 37.337c-7.427 10.86-11.485 23.778-11.485 37.337 0 36.56 29.743 66.304 66.303 66.304h245.453c36.56 0 66.303-29.744 66.303-66.303 0-13.56-4.058-26.478-11.485-37.338 7.427-10.86 11.485-23.778 11.485-37.337s-4.058-26.478-11.485-37.338c7.427-10.86 11.485-23.778 11.485-37.337s-4.058-26.479-11.485-37.338c7.428-10.859 11.485-23.777 11.485-37.337s-4.059-26.479-11.485-37.337c7.427-10.86 11.485-23.778 11.485-37.338C311.756 29.744 282.013 0 245.453 0Z" clip-path="url(#a)" style="fill:#ff8fdd;fill-opacity:1;fill-rule:nonzero;stroke:none" transform="matrix(1.33333 0 0 -1.33333 559.516 1029.845)"/><path d="M0 0c-17.324.078-34.039 7.036-46.199 19.404-12.222 12.43-18.965 29.48-18.587 46.903.271 12.544 4.248 24.696 11.264 35.077.28.415.28 1.099 0 1.514-14.864 21.991-14.864 51.169 0 73.16.28.415.28 1.099 0 1.514-14.864 21.993-14.863 51.168 0 73.161.281.415.281 1.099 0 1.514-14.864 21.993-14.863 51.168 0 73.161.28.415.28 1.099 0 1.514-15.907 23.538-14.747 55.558 3.349 77.561 12.584 15.3 31.268 23.813 51.003 23.823 6.959.003 13.919 0 20.878 0h220.281c1.962 0 3.93.027 5.891-.044 12.455-.45 24.598-4.583 34.796-11.735 21.744-15.249 32.074-43.013 25.66-68.783-1.856-7.458-5.061-14.46-9.36-20.822-.281-.415-.281-1.099 0-1.514 14.863-21.993 14.863-51.168 0-73.161-.281-.415-.281-1.099 0-1.514 14.863-21.993 14.863-51.169 0-73.161-.281-.415-.281-1.099 0-1.514 14.864-21.991 14.862-51.168 0-73.16-.281-.415-.281-1.099 0-1.514 13.375-19.792 14.978-45.919 3.674-67.025C292.972 16.29 274.933 3.555 254.626.635 249.046-.167 243.39 0 237.768 0H15.555C10.597 0 5.626.103.669 0 .446-.005.223 0 0 0c-1.93 0-1.934-3 0-3h235.234c3.81 0 7.626-.059 11.435.011 20.519.378 40.045 10.291 52.55 26.544 13.592 17.668 17.658 41.545 10.579 62.719a68.4 68.4 0 0 1-8.232 16.624v-1.514c15.416 22.81 15.418 53.378 0 76.188v-1.514c15.417 22.811 15.417 53.378 0 76.189v-1.514c15.417 22.811 15.417 53.378 0 76.189v-1.514c15.941 23.587 15.392 55.601-1.661 78.44-12.903 17.28-33.286 27.43-54.83 27.458-6.56.008-13.119 0-19.679 0H2.522c-3.651 0-7.285-.072-10.918-.529-12.365-1.556-24.071-6.518-33.824-14.268-20.822-16.545-30.109-44.539-23.374-70.273 1.944-7.429 5.184-14.47 9.481-20.828v1.514c-15.416-22.812-15.417-53.377.001-76.189v1.514c-15.417-22.812-15.418-53.377-.001-76.189v1.514c-15.417-22.81-15.417-53.378 0-76.188v1.514c-11.912-17.626-14.982-40.43-7.875-60.521 5.908-16.703 18.372-30.771 34.318-38.53C-20.421-.653-10.278-2.954 0-3c1.931-.009 1.933 2.991 0 3" clip-path="url(#b)" style="fill:#000;fill-opacity:1;fill-rule:nonzero;stroke:none" transform="matrix(1.33333 0 0 -1.33333 559.516 1027.845)"/><path d="M0 0c0 26.224-21.259 47.484-47.483 47.484h-245.454c-26.224 0-47.483-21.26-47.483-47.484 0-15.156 7.11-28.644 18.166-37.337-11.056-8.694-18.166-22.181-18.166-37.338s7.11-28.644 18.166-37.337c-11.056-8.694-18.166-22.181-18.166-37.338s7.11-28.644 18.166-37.337c-11.056-8.694-18.166-22.181-18.166-37.338s7.11-28.644 18.166-37.337c-11.056-8.694-18.166-22.181-18.166-37.338 0-26.224 21.259-47.483 47.483-47.483h245.454C-21.259-346.183 0-324.924 0-298.7c0 15.157-7.11 28.644-18.166 37.338C-7.11-252.669 0-239.181 0-224.025s-7.11 28.644-18.166 37.338C-7.11-177.994 0-164.506 0-149.35s-7.11 28.644-18.166 37.338C-7.11-103.319 0-89.831 0-74.675s-7.11 28.644-18.166 37.338C-7.11-28.644 0-15.156 0 0" clip-path="url(#c)" style="fill:#ff3342;fill-opacity:1;fill-rule:nonzero;stroke:none" transform="matrix(1.33333 0 0 -1.33333 950.099 543.175)"/><path d="M0 0c0 22.458-15.939 42.635-37.845 47.71-6.578 1.524-13.258 1.274-19.949 1.274h-233.457c-1.246 0-2.493.012-3.739-.004-11.183-.137-22.033-4.136-30.662-11.238-18.36-15.11-23.076-42.244-10.933-62.699 3.062-5.159 7.081-9.707 11.77-13.441v2.121c-18.504-14.734-23.986-41.312-12.502-62.076 3.141-5.682 7.429-10.68 12.502-14.72v2.121c-18.504-14.734-23.986-41.312-12.502-62.076 3.141-5.682 7.429-10.68 12.502-14.72v2.121c-18.504-14.734-23.986-41.312-12.502-62.076 3.141-5.682 7.429-10.68 12.502-14.72v2.121c-10.482-8.347-17.179-20.676-18.407-34.027-1.078-11.734 2.24-23.763 9.229-33.254 6.912-9.387 17.038-16.191 28.418-18.827 4.245-.984 8.556-1.273 12.896-1.273h238.745c1.613 0 3.227-.007 4.84 0 9.862.042 19.59 2.932 27.735 8.532 9.518 6.543 16.586 16.359 19.632 27.515 3.36 12.303 1.731 25.749-4.518 36.873-3.133 5.575-7.363 10.482-12.361 14.461v-2.121C-.102-247.689 5.38-221.111-6.103-200.346c-3.142 5.681-7.429 10.679-12.503 14.719v-2.121C-.102-173.014 5.38-146.436-6.103-125.671c-3.142 5.681-7.429 10.679-12.503 14.719v-2.121C-.102-98.339 5.38-71.761-6.103-50.996c-3.142 5.681-7.429 10.679-12.503 14.719v-2.121C-6.91-29.085-.097-14.938 0 0c.013 1.931-2.987 1.933-3 0-.093-14.216-6.621-27.433-17.727-36.277-.587-.467-.584-1.656 0-2.121 8.505-6.772 14.51-16.188 16.762-26.853 2.273-10.767.512-22.254-4.871-31.846-3.014-5.372-7.078-10.023-11.891-13.855-.587-.467-.584-1.656 0-2.121 8.505-6.772 14.51-16.188 16.762-26.853 2.273-10.767.512-22.253-4.871-31.846-3.014-5.372-7.078-10.023-11.891-13.855-.587-.467-.584-1.656 0-2.121 8.505-6.772 14.51-16.188 16.762-26.853 2.273-10.766.512-22.253-4.871-31.846-3.014-5.372-7.078-10.023-11.891-13.855-.587-.467-.584-1.656 0-2.121 10.531-8.385 17.155-20.882 17.69-34.391.464-11.701-3.585-23.346-11.324-32.154-7.63-8.683-18.44-14.368-29.97-15.489-2.425-.236-4.843-.226-7.272-.226h-236.598c-1.927 0-3.853-.003-5.779 0-7.826.01-15.497 1.804-22.39 5.557-10.041 5.469-17.899 14.677-21.583 25.518-4.103 12.076-3.022 25.597 3.083 36.815 3.04 5.585 7.209 10.415 12.177 14.37.587.467.584 1.656 0 2.121-8.505 6.773-14.51 16.188-16.762 26.853-2.274 10.767-.512 22.254 4.871 31.847 3.014 5.371 7.078 10.022 11.891 13.854.587.467.584 1.656 0 2.121-8.505 6.772-14.51 16.188-16.762 26.853-2.274 10.767-.512 22.254 4.871 31.847 3.014 5.371 7.078 10.022 11.891 13.854.587.467.584 1.656 0 2.121-8.505 6.772-14.51 16.188-16.762 26.853-2.274 10.767-.512 22.254 4.871 31.846 3.014 5.372 7.078 10.023 11.891 13.855.587.467.584 1.656 0 2.121-9.922 7.901-16.477 19.514-17.555 32.216-.948 11.178 2.182 22.397 8.845 31.43 6.51 8.826 16.197 15.099 26.885 17.507 3.845.866 7.734 1.108 11.657 1.108H-64.42c5.056 0 10.112.009 15.168 0 19.239-.037 36.981-12.112 43.524-30.334A46.3 46.3 0 0 0-3 0c0-1.93 3-1.934 3 0" clip-path="url(#d)" style="fill:#000;fill-opacity:1;fill-rule:nonzero;stroke:none" transform="matrix(1.33333 0 0 -1.33333 952.099 543.175)"/><path d="M0 0h-205.476a5.68 5.68 0 0 0 0 11.359H0a5.68 5.68 0 0 0 5.679-5.68A5.68 5.68 0 0 0 0 0" clip-path="url(#e)" style="fill:#feffff;fill-opacity:1;fill-rule:nonzero;stroke:none" transform="matrix(1.33333 0 0 -1.33333 859.59 915.958)"/><path d="M0 0a4.185 4.185 0 0 1-4.18-4.18A4.184 4.184 0 0 1 0-8.359h205.476a4.184 4.184 0 0 1 4.179 4.179A4.184 4.184 0 0 1 205.476 0zm205.476-11.359H0c-3.959 0-7.18 3.22-7.18 7.179S-3.959 3 0 3h205.476c3.959 0 7.179-3.221 7.179-7.18a7.187 7.187 0 0 0-7.179-7.179" clip-path="url(#f)" style="fill:#000;fill-opacity:1;fill-rule:nonzero;stroke:none" transform="matrix(1.33333 0 0 -1.33333 585.623 902.813)"/><path d="M0 0c0-27.566-22.347-49.913-49.913-49.913S-99.826-27.566-99.826 0s22.347 49.913 49.913 49.913S0 27.566 0 0" clip-path="url(#g)" style="fill:#ff8fdd;fill-opacity:1;fill-rule:nonzero;stroke:none" transform="matrix(1.33333 0 0 -1.33333 580.232 903.29)"/><path d="M0 0c-.069-20.052-12.796-38.562-31.709-45.459-9.558-3.486-20.104-3.897-29.899-1.134-9.426 2.659-17.87 8.225-24.129 15.747-12.995 15.616-14.625 38.482-4.142 55.847 10.448 17.308 31.203 26.493 51.043 22.468C-19.193 43.485-3.748 27.343-.578 7.562-.177 5.062-.009 2.53 0 0c.007-1.93 3.007-1.934 3 0-.037 10.636-3.319 21.152-9.527 29.81-6.072 8.469-14.59 14.97-24.384 18.542-20.164 7.354-43.546.937-57.156-15.637A51.74 51.74 0 0 1-99.68 3.851c-.805-10.558 1.737-21.3 7.21-30.367 5.342-8.847 13.378-16.053 22.806-20.304a52 52 0 0 1 31.626-3.542C-17.364-46.169-.829-28.885 2.368-8.021 2.775-5.364 2.991-2.689 3 0 3.007 1.931.007 1.933 0 0" clip-path="url(#h)" style="fill:#000;fill-opacity:1;fill-rule:nonzero;stroke:none" transform="matrix(1.33333 0 0 -1.33333 578.232 903.29)"/><path d="M0 0c0-27.566-22.347-49.913-49.913-49.913S-99.826-27.566-99.826 0s22.347 49.913 49.913 49.913S0 27.566 0 0" clip-path="url(#i)" style="fill:#ff8fdd;fill-opacity:1;fill-rule:nonzero;stroke:none" transform="matrix(1.33333 0 0 -1.33333 992.87 903.29)"/><path d="M0 0c-.069-20.052-12.796-38.562-31.709-45.459-9.558-3.486-20.104-3.897-29.899-1.134-9.426 2.659-17.87 8.225-24.129 15.747-12.995 15.616-14.625 38.482-4.142 55.847 10.448 17.308 31.203 26.493 51.043 22.468C-19.193 43.485-3.748 27.343-.578 7.562-.177 5.062-.009 2.53 0 0c.007-1.93 3.007-1.934 3 0-.037 10.636-3.319 21.152-9.527 29.81-6.072 8.469-14.59 14.97-24.384 18.542-20.164 7.354-43.546.937-57.156-15.637A51.74 51.74 0 0 1-99.68 3.851c-.805-10.558 1.737-21.3 7.21-30.367 5.342-8.847 13.378-16.053 22.806-20.304a52 52 0 0 1 31.626-3.542C-17.364-46.169-.829-28.885 2.368-8.021 2.775-5.364 2.991-2.689 3 0 3.007 1.931.007 1.933 0 0" clip-path="url(#j)" style="fill:#000;fill-opacity:1;fill-rule:nonzero;stroke:none" transform="matrix(1.33333 0 0 -1.33333 990.87 903.29)"/><path d="M36.397 0H5.812Q3.315 0 3.315-2.498v-8.367q0-2.496 2.497-2.496h7.746v-23.11H7.194q-2.485 0-2.484-2.496v-8.367q-.002-2.496 2.484-2.496H27.27q2.483 0 2.484 2.496v33.973h6.644q2.497 0 2.497 2.496v8.367q0 2.496-2.497 2.496m33.496-18.821q-3.459 1.032-8.79 1.031-6.224 0-9.785-1.383-3.564-1.38-5.015-4.183-1.454-2.8-1.453-6.88v-6.644q0-4.228 1.652-7.37 1.662-3.153 5.988-4.876 4.324-1.733 12.281-1.734 6.364 0 10.442 1.008 4.089.998 6.34 2.835 2.249 1.83 3.117 4.395.866 2.557.867 5.742v22.688q-.002 4.232-1.523 7.418-1.526 3.178-5.227 4.98Q75.083 0 68.51 0H52.596Q50.1 0 50.1-2.497v-8.156q0-2.496 2.496-2.496h12.937q2.566.001 3.457-.797.901-.795.903-3.352zm0-12.867v-4.09q-.001-1.1-.797-1.828-.8-.727-3.832-.727-3.12 0-3.95.727a2.32 2.32 0 0 0-.832 1.828v4.09q-.001 1.032.832 1.757.83.729 3.95.727 3.032.002 3.832-.727.796-.725.797-1.757m56.959-18.141q2.483 0 2.484 2.496v17.508q0 4.359-1.137 6.996-1.137 2.628-3.527 4.113-2.392 1.49-6.129 2.59l-5.121 1.524v12.105q-.002 2.496-2.484 2.496H99.723q-2.496 0-2.496-2.496v-12.516c0-2.953.377-5.29 1.136-7.02a8.9 8.9 0 0 1 3.575-4.089q2.425-1.485 6.093-2.602l5.602-1.511v-6.235H94.672q-2.496 0-2.496-2.496v-8.367q0-2.496 2.496-2.496zM161.24-.001h-22.008q-2.486 0-2.484-2.496v-8.086q-.002-2.496 2.484-2.496h17.86q1.863.001 1.863-1.594v-2.695q0-1.592-1.863-1.594h-17.168q-2.486 0-2.485-2.496v-25.875q-.001-2.496 2.485-2.496h29.824q2.496 0 2.496 2.496v8.238q0 2.487-2.496 2.485h-16.605v4.5h9.48q5.611 0 8.86 2.742 3.256 2.733 3.257 8.262v9.62q-.001 5.264-3.633 8.38-3.634 3.105-9.867 3.105m0 0" aria-label="1975" style="fill:#feffff;fill-opacity:1;fill-rule:nonzero;stroke:none" transform="translate(603.9 880.497)scale(1.33333)"/><path d="M0 0v8.374q0 2.49-2.492 2.491h-6.643v33.979q0 2.491-2.491 2.491h-20.069q-2.492 0-2.492-2.491v-8.373q0-2.492 2.492-2.492h6.366V10.865h-7.751q-2.49 0-2.491-2.491V0q0-2.491 2.491-2.491h30.588Q0-2.491 0 0Z" clip-path="url(#k)" style="fill:none;stroke:#000;stroke-width:3;stroke-linecap:butt;stroke-linejoin:miter;stroke-miterlimit:10;stroke-dasharray:none;stroke-opacity:1" transform="matrix(1.33333 0 0 -1.33333 655.757 877.176)"/><path d="M0 0q-.001-2.56-.899-3.356-.901-.796-3.461-.796h-12.941q-2.491 0-2.491-2.492v-8.166q0-2.491 2.491-2.491h15.917q6.574 0 10.277 1.799 3.7 1.799 5.225 4.983 1.521 3.183 1.522 7.405v22.699q0 3.182-.865 5.743-.865 2.56-3.114 4.395-2.25 1.833-6.332 2.838-4.084 1.002-10.45 1.002-7.96 0-12.284-1.729-4.326-1.73-5.986-4.879-1.66-3.151-1.661-7.37v-6.644q0-4.083 1.454-6.885 1.453-2.803 5.017-4.188T-8.789.484Q-3.461.484 0 1.522zm-.796 12.63q-.796-.726-3.841-.727-3.114 0-3.944.727-.831.726-.831 1.765v4.083q0 1.106.831 1.834.83.726 3.944.726 3.045 0 3.841-.726Q0 19.584 0 18.478v-4.083q0-1.04-.796-1.765Z" clip-path="url(#l)" style="fill:none;stroke:#000;stroke-width:3;stroke-linecap:butt;stroke-linejoin:miter;stroke-miterlimit:10;stroke-dasharray:none;stroke-opacity:1" transform="matrix(1.33333 0 0 -1.33333 697.094 857.43)"/><path d="M0 0q-2.491 0-2.491-2.491v-8.373q0-2.491 2.491-2.491h18.962v-6.229l-5.606-1.522q-3.668-1.109-6.09-2.596a8.9 8.9 0 0 1-3.564-4.083q-1.141-2.595-1.141-7.024v-12.526q0-2.491 2.491-2.491h11.211q2.491 0 2.491 2.491v12.11l5.121 1.523q3.738 1.106 6.125 2.596 2.387 1.486 3.529 4.117 1.143 2.63 1.142 6.99v17.508Q34.671 0 32.18 0Z" clip-path="url(#m)" style="fill:none;stroke:#000;stroke-width:3;stroke-linecap:butt;stroke-linejoin:miter;stroke-miterlimit:10;stroke-dasharray:none;stroke-opacity:1" transform="matrix(1.33333 0 0 -1.33333 730.126 814.063)"/><path d="M0 0q3.633 3.114 3.633 8.373v9.62q0 5.535-3.252 8.27-3.253 2.733-8.858 2.733h-9.481v4.498h16.609q2.491 0 2.491 2.491v8.236q0 2.491-2.491 2.491h-29.827q-2.491 0-2.491-2.491V18.339q0-2.491 2.491-2.491h17.162q1.869-.001 1.869-1.592v-2.699q0-1.592-1.869-1.592h-17.854q-2.491 0-2.491-2.491V-.623q0-2.491 2.491-2.491h22.007Q-3.633-3.114 0 0z" clip-path="url(#n)" style="fill:none;stroke:#000;stroke-width:3;stroke-linecap:butt;stroke-linejoin:miter;stroke-miterlimit:10;stroke-dasharray:none;stroke-opacity:1" transform="matrix(1.33333 0 0 -1.33333 832.04 876.345)"/><path d="M13.606 0h-7.98Q3.691.001 3.691-1.922v-34.7q0-1.932 1.933-1.933h8.614q1.604 0 2.472 1.606l4.817 8.73q.267.483.457.703.186.211.504.211h.48q.327 0 .504-.21.185-.22.457-.704l4.77-8.73q.852-1.605 2.46-1.606h8.672q1.935 0 1.934 1.934v34.7Q41.766 0 39.832 0h-8.238q-1.933.001-1.933-1.922v-18.855l-3.153 5.836q-.914 1.712-2.847 1.71h-2.133q-1.935.001-2.836-1.71l-3.164-5.836v18.855Q15.527.001 13.606 0M81.97-10.125q0 2.473-.726 4.477c-.478 1.335-1.333 2.49-2.567 3.457Q76.822-.751 73.615.023q-3.212.785-8.192.786Q60.44.807 57.232.023q-3.213-.772-5.063-2.214-1.841-1.452-2.566-3.457-.728-2.004-.727-4.477v-26.496q0-1.934 1.934-1.934h8.402q1.934 0 1.934 1.934v24.41q-.001 1.08.797 1.805.808.715 3.586.715 2.846 0 3.644-.715.81-.725.809-1.805v-24.41q-.001-1.934 1.922-1.934h8.144q1.921 0 1.922 1.934zM106.97 0H90.06q-1.935.001-1.935-1.922v-6.27q0-1.932 1.934-1.933h14.402q.69.001 1.032-.445.351-.456.351-1.102 0-.915-.351-1.336-.343-.431-1.032-.48l-8.039-1.125q-3.752-.598-6.023-2.496-2.276-1.899-2.274-6.399v-5.625q-.001-4.59 2.942-7.008 2.952-2.413 8.144-2.414H114.2q1.933 0 1.933 1.934v6.375q0 1.923-1.933 1.922h-12.47q-1.453 0-1.452 1.605-.001 1.561 1.453 1.711l7.969 1.078q2.517.377 4.394 1.313a6.84 6.84 0 0 1 2.918 2.754q1.043 1.82 1.043 4.816v5.625q0 4.549-2.941 6.984Q112.17.001 106.969 0m17.993 0q-1.933.001-1.933-1.922v-6.375q0-1.933 1.933-1.933h5.297v-17.99h-5.297q-1.933.002-1.933-1.922v-6.48q0-1.934 1.933-1.934h22.805q1.934 0 1.934 1.934v6.48q0 1.924-1.934 1.922h-5.191v17.989h5.191q1.934 0 1.934 1.933v6.375q0 1.923-1.934 1.922zm56.965 0h-13.066q-6.751 0-9.961-2.672-3.212-2.681-3.211-8.25v-16.652q0-5.625 3.21-8.297 3.211-2.682 9.962-2.684h13.066q1.921 0 1.922 1.934v6.48q-.001 1.924-1.922 1.922h-10.77q-3.258.002-3.257 2.684v12.738q-.001 2.567 3.258 2.567h10.77q1.92 0 1.921 1.933v6.375Q183.85.001 181.928 0m0 0" aria-label="MUSic" style="fill:#feffff;fill-opacity:1;fill-rule:nonzero;stroke:none" transform="translate(597.613 984.996)scale(1.33333)"/><path d="M0 0v18.846l3.159-5.836q.91-1.714 2.837-1.714h2.142q1.927 0 2.838 1.714l3.158 5.836V0q0-1.928 1.928-1.928h8.245q1.926 0 1.927 1.928v34.692q0 1.928-1.927 1.928h-8.674q-1.606 0-2.463-1.606l-4.765-8.727q-.267-.482-.455-.696a.64.64 0 0 0-.508-.214H6.96a.64.64 0 0 0-.509.214q-.188.214-.455.696l-4.818 8.727Q.321 36.62-1.285 36.62h-8.62q-1.927 0-1.927-1.928V0q0-1.928 1.927-1.928h7.977Q0-1.928 0 0Z" clip-path="url(#o)" style="fill:none;stroke:#000;stroke-width:3;stroke-linecap:butt;stroke-linejoin:miter;stroke-miterlimit:10;stroke-dasharray:none;stroke-opacity:1" transform="matrix(1.33333 0 0 -1.33333 618.314 982.426)"/><path d="M0 0q0 1.928-1.928 1.928h-8.137q-1.928 0-1.928-1.928v-24.413q0-1.072-.803-1.794t-3.641-.723q-2.784 0-3.587.723a2.32 2.32 0 0 0-.803 1.794V0q0 1.928-1.927 1.928h-8.406q-1.927 0-1.927-1.928v-26.501q0-2.464.723-4.471t2.57-3.453 5.059-2.221q3.212-.777 8.192-.777 4.978 0 8.191.777 3.212.774 5.059 2.221 1.847 1.445 2.57 3.453T0-26.501z" clip-path="url(#p)" style="fill:none;stroke:#000;stroke-width:3;stroke-linecap:butt;stroke-linejoin:miter;stroke-miterlimit:10;stroke-dasharray:none;stroke-opacity:1" transform="matrix(1.33333 0 0 -1.33333 706.904 936.17)"/><path d="M0 0q2.945 2.436 2.945 6.987v5.621q0 2.999-1.044 4.82a6.8 6.8 0 0 1-2.918 2.757q-1.875.936-4.39 1.311l-7.978 1.071q-1.445.16-1.445 1.713 0 1.608 1.445 1.607H-.91q1.928 0 1.928 1.926v6.372q0 1.927-1.928 1.927h-14.991q-5.193 0-8.138-2.409-2.944-2.409-2.944-7.014v-5.621q-.001-4.498 2.275-6.398 2.275-1.901 6.023-2.489l8.031-1.124q.695-.055 1.044-.483.348-.428.348-1.338 0-.643-.348-1.097-.349-.456-1.044-.455h-14.402q-1.927 0-1.927-1.928V-.508q0-1.928 1.927-1.928h16.918Q-2.945-2.436 0 0z" clip-path="url(#q)" style="fill:none;stroke:#000;stroke-width:3;stroke-linecap:butt;stroke-linejoin:miter;stroke-miterlimit:10;stroke-dasharray:none;stroke-opacity:1" transform="matrix(1.33333 0 0 -1.33333 751.09 981.749)"/><path d="M0 0q1.928 0 1.928 1.928v6.371q0 1.927-1.928 1.927h-5.193v17.989H0q1.928 0 1.928 1.928v6.477q0 1.928-1.928 1.928h-22.807q-1.928 0-1.928-1.928v-6.477q0-1.929 1.928-1.928h5.3V10.226h-5.3q-1.928 0-1.928-1.927V1.928Q-24.735 0-22.807 0Z" clip-path="url(#r)" style="fill:none;stroke:#000;stroke-width:3;stroke-linecap:butt;stroke-linejoin:miter;stroke-miterlimit:10;stroke-dasharray:none;stroke-opacity:1" transform="matrix(1.33333 0 0 -1.33333 794.634 984.996)"/><path d="M0 0v6.371q0 1.926-1.927 1.927h-10.761q-3.267 0-3.267 2.57V23.61q0 2.677 3.267 2.677h10.761Q0 26.287 0 28.215v6.477q0 1.928-1.927 1.928h-13.064q-6.746 0-9.958-2.677t-3.212-8.298V8.994q0-5.57 3.212-8.245 3.212-2.677 9.958-2.677h13.064Q0-1.928 0 0Z" clip-path="url(#s)" style="fill:none;stroke:#000;stroke-width:3;stroke-linecap:butt;stroke-linejoin:miter;stroke-miterlimit:10;stroke-dasharray:none;stroke-opacity:1" transform="matrix(1.33333 0 0 -1.33333 842.747 982.426)"/><path d="M20.061.001H3.701q-1.265 0-1.265-1.266v-22.851q0-1.266 1.266-1.266h16.36q1.265 0 1.265 1.266v4.125q0 1.266-1.266 1.265h-9.726v2.72h6.867q1.276 0 1.277 1.265v3.773q-.002 1.279-1.277 1.278h-6.867v3.023h9.726q1.266.002 1.266 1.277v4.125q0 1.266-1.266 1.266m17.218 0H26.134q-1.277 0-1.277-1.266V-5.39q0-1.276 1.277-1.277h9.48q.457 0 .68-.293a1.16 1.16 0 0 0 .235-.727q-.001-.596-.235-.878-.223-.281-.68-.317L30.33-9.62q-2.475-.397-3.973-1.64-1.501-1.253-1.5-4.22v-3.703q0-3.033 1.934-4.617 1.943-1.581 5.367-1.582h9.879q1.265 0 1.265 1.266v4.195q0 1.266-1.265 1.266h-8.215q-.95.001-.95 1.066 0 1.02.95 1.125l5.25.703q1.662.247 2.894.867a4.4 4.4 0 0 1 1.91 1.817q.691 1.195.692 3.164v3.703q0 3.001-1.934 4.606Q40.7.003 37.28 0m22.781 0h-5.719q-1.265 0-1.265-1.266v-17.32h-5.18q-1.278 0-1.277-1.266v-4.265q-.001-1.266 1.277-1.266h18.61q1.275 0 1.277 1.266v4.265q-.002 1.266-1.278 1.266h-5.18v17.32Q61.326 0 60.061 0m16.576 0h-7.125q-1.278 0-1.277-1.266v-7.16q0-1.265 1.277-1.265h7.125q1.266 0 1.266 1.265v7.16Q77.903 0 76.637 0m0 0" aria-label="EST." style="fill:#feffff;fill-opacity:1;fill-rule:nonzero;stroke:none" transform="translate(462.459 915.3)scale(1.33333)"/><path d="M0 0v4.126q0 1.27-1.27 1.27h-9.733v3.033h6.877q1.269 0 1.269 1.269v3.774q0 1.269-1.269 1.269h-6.877v2.716h9.733q1.27 0 1.27 1.27v4.126q0 1.269-1.27 1.269h-16.363q-1.27 0-1.27-1.269V0q0-1.27 1.27-1.27H-1.27Q0-1.27 0 0Z" clip-path="url(#t)" style="fill:none;stroke:#000;stroke-width:3;stroke-linecap:butt;stroke-linejoin:miter;stroke-miterlimit:10;stroke-dasharray:none;stroke-opacity:1" transform="matrix(1.33333 0 0 -1.33333 490.908 913.607)"/><path d="M0 0q1.94 1.604 1.94 4.603v3.703q0 1.974-.688 3.173A4.5 4.5 0 0 1-.67 13.296q-1.234.617-2.892.863l-5.254.706q-.953.106-.953 1.128 0 1.059.953 1.059H-.6q1.27 0 1.27 1.269v4.197q0 1.269-1.27 1.269h-9.874q-3.422 0-5.36-1.587-1.94-1.586-1.94-4.62v-3.702q0-2.964 1.499-4.215 1.498-1.253 3.967-1.64l5.29-.741q.459-.035.688-.317t.229-.881q0-.423-.229-.724-.23-.3-.688-.299h-9.486q-1.27 0-1.27-1.27V-.335q0-1.27 1.27-1.269H-5.36Q-1.94-1.604 0 0z" clip-path="url(#u)" style="fill:none;stroke:#000;stroke-width:3;stroke-linecap:butt;stroke-linejoin:miter;stroke-miterlimit:10;stroke-dasharray:none;stroke-opacity:1" transform="matrix(1.33333 0 0 -1.33333 519.308 913.16)"/><path d="M0 0v17.315h5.185q1.269 0 1.269 1.271v4.267q0 1.269-1.269 1.269h-18.622q-1.269 0-1.269-1.269v-4.267q0-1.27 1.269-1.271h5.185V0q0-1.27 1.27-1.27h5.712Q0-1.27 0 0Z" clip-path="url(#v)" style="fill:none;stroke:#000;stroke-width:3;stroke-linecap:butt;stroke-linejoin:miter;stroke-miterlimit:10;stroke-dasharray:none;stroke-opacity:1" transform="matrix(1.33333 0 0 -1.33333 544.23 913.607)"/><path d="M0 0v7.159q0 1.27-1.27 1.27h-7.123q-1.27 0-1.27-1.27V0q0-1.27 1.27-1.27h7.123Q0-1.27 0 0Z" clip-path="url(#w)" style="fill:none;stroke:#000;stroke-width:3;stroke-linecap:butt;stroke-linejoin:miter;stroke-miterlimit:10;stroke-dasharray:none;stroke-opacity:1" transform="matrix(1.33333 0 0 -1.33333 566.33 913.607)"/><path d="M18.55 0H2.966Q1.687.002 1.688-1.264V-5.53q-.001-1.276 1.277-1.278h3.95v-11.777H3.667q-1.266 0-1.266-1.266v-4.265q0-1.266 1.266-1.266h10.23q1.266 0 1.266 1.266v17.308h3.387q1.266.002 1.265 1.278v4.265q0 1.266-1.265 1.266m17.072-9.585q-1.77.527-4.476.527-3.178 0-4.993-.703-1.82-.712-2.566-2.133-.738-1.428-.738-3.515v-3.387q0-2.143.843-3.75.853-1.605 3.059-2.484 2.202-.889 6.258-.89 3.244 0 5.32.515 2.084.517 3.223 1.453 1.146.928 1.594 2.238.444 1.3.445 2.918V-7.23q-.002 2.16-.785 3.786-.775 1.617-2.66 2.53-1.888.915-5.227.915h-8.121q-1.266 0-1.266-1.266v-4.16q0-1.276 1.266-1.277h6.598q1.3 0 1.757-.399c.31-.272.47-.843.47-1.71zm0-6.562v-2.086q-.001-.562-.41-.926-.411-.375-1.957-.375-1.584 0-2.016.375-.422.363-.422.926v2.086q0 .527.422.902.432.364 2.016.363 1.545 0 1.957-.363.409-.375.41-.902m29.022-9.235q1.265 0 1.265 1.266v8.918q0 2.227-.586 3.562a4.53 4.53 0 0 1-1.793 2.098q-1.22.764-3.117 1.324L57.8-7.44v6.175q0 1.266-1.266 1.266h-5.719Q49.55 0 49.55-1.265V-7.65q-.001-2.26.574-3.575a4.6 4.6 0 0 1 1.816-2.086q1.242-.76 3.106-1.324l2.86-.773v-3.176h-9.657q-1.278 0-1.277-1.266v-4.265q0-1.266 1.277-1.266zM91.336-6.667q0 1.63-.48 2.953-.471 1.315-1.653 2.274c-.79.632-1.884 1.119-3.281 1.453q-2.1.514-5.344.515Q77.33.527 75.211.013q-2.11-.502-3.293-1.453-1.173-.96-1.652-2.274-.47-1.323-.47-2.953V-18.69c0-1.079.156-2.057.47-2.942q.479-1.323 1.652-2.273 1.183-.95 3.293-1.477 2.119-.537 5.367-.539 3.244.002 5.344.54 2.095.526 3.281 1.476 1.182.95 1.652 2.273c.32.885.481 1.863.481 2.942zm-13.57-1.266q0 .705.504 1.184.514.47 2.308.469 1.839 0 2.332-.47.492-.478.492-1.183v-9.48q0-.714-.492-1.172-.493-.457-2.332-.457-1.794 0-2.308.457-.505.459-.504 1.172zm0 0" aria-label="1970" style="fill:#feffff;fill-opacity:1;fill-rule:nonzero;stroke:none" transform="translate(866.187 921.846)scale(1.33333)"/><path d="M0 0v4.268q0 1.268-1.27 1.269h-3.385v17.316q0 1.269-1.27 1.269h-10.227q-1.27 0-1.27-1.269v-4.267q0-1.27 1.27-1.271h3.244V5.537h-3.949q-1.27 0-1.27-1.269V0q0-1.27 1.27-1.27H-1.27Q0-1.27 0 0Z" clip-path="url(#x)" style="fill:none;stroke:#000;stroke-width:3;stroke-linecap:butt;stroke-linejoin:miter;stroke-miterlimit:10;stroke-dasharray:none;stroke-opacity:1" transform="matrix(1.33333 0 0 -1.33333 892.614 920.154)"/><path d="M0 0q0-1.305-.458-1.71-.459-.405-1.764-.406h-6.594q-1.27 0-1.27-1.27v-4.161q0-1.27 1.27-1.269h8.111q3.35 0 5.237.917 1.887.916 2.662 2.539.776 1.622.776 3.773V9.98q0 1.623-.44 2.928-.442 1.304-1.588 2.239t-3.226 1.446q-2.082.511-5.325.511-4.056 0-6.26-.881-2.204-.882-3.051-2.487-.846-1.605-.846-3.756V6.595q0-2.08.74-3.509T-9.469.952q1.816-.706 4.99-.705 2.716 0 4.479.529zm-.405 6.437q-.407-.372-1.958-.371-1.587 0-2.01.371-.423.37-.423.899v2.08q0 .564.423.935.423.37 2.01.371 1.551 0 1.958-.371Q0 9.981 0 9.416v-2.08q0-.529-.405-.899Z" clip-path="url(#y)" style="fill:none;stroke:#000;stroke-width:3;stroke-linecap:butt;stroke-linejoin:miter;stroke-miterlimit:10;stroke-dasharray:none;stroke-opacity:1" transform="matrix(1.33333 0 0 -1.33333 913.68 910.091)"/><path d="M0 0q-1.27 0-1.27-1.27v-4.266q0-1.27 1.27-1.271h9.663V-9.98l-2.857-.776q-1.87-.565-3.103-1.322a4.5 4.5 0 0 1-1.816-2.081q-.582-1.323-.582-3.58v-6.383q0-1.27 1.269-1.27h5.714q1.269 0 1.269 1.27v6.172l2.61.775q1.905.565 3.121 1.323a4.54 4.54 0 0 1 1.798 2.098q.583 1.34.582 3.563v8.921q0 1.27-1.269 1.27z" clip-path="url(#z)" style="fill:none;stroke:#000;stroke-width:3;stroke-linecap:butt;stroke-linejoin:miter;stroke-miterlimit:10;stroke-dasharray:none;stroke-opacity:1" transform="matrix(1.33333 0 0 -1.33333 930.513 887.99)"/><path d="M0 0q0 1.622-.476 2.944T-2.134 5.22q-1.181.952-3.28 1.48-2.097.53-5.342.529-3.244 0-5.361-.529t-3.297-1.48q-1.181-.953-1.658-2.276T-21.548 0v-12.026q0-1.622.476-2.945.477-1.322 1.658-2.274 1.181-.953 3.297-1.464 2.116-.512 5.361-.512t5.342.512q2.099.512 3.28 1.464 1.182.952 1.658 2.274T0-12.026zm-13.578-1.27q0 .705.512 1.164.51.458 2.31.459 1.833 0 2.327-.459t.494-1.164v-9.487q0-.705-.494-1.181t-2.327-.476q-1.8 0-2.31.476a1.55 1.55 0 0 0-.512 1.181z" clip-path="url(#A)" style="fill:none;stroke:#000;stroke-width:3;stroke-linecap:butt;stroke-linejoin:miter;stroke-miterlimit:10;stroke-dasharray:none;stroke-opacity:1" transform="matrix(1.33333 0 0 -1.33333 987.973 896.925)"/><path d="M0 0c0-82.924-67.224-150.148-150.148-150.148S-300.296-82.924-300.296 0s67.224 150.148 150.148 150.148S0 82.924 0 0" clip-path="url(#B)" style="fill:#ffe30d;fill-opacity:1;fill-rule:nonzero;stroke:none" transform="matrix(1.33333 0 0 -1.33333 924.016 589.811)"/><path d="M0 0c-.022-15.62-2.435-31.167-7.262-46.027-4.632-14.262-11.467-27.775-20.142-40.004a149 149 0 0 0-30.927-32.057c-11.876-9.079-25.118-16.393-39.16-21.528a148.7 148.7 0 0 0-45.452-8.925c-15.619-.584-31.286 1.249-46.326 5.511-14.535 4.119-28.388 10.48-41.01 18.78-12.402 8.155-23.548 18.182-33.013 29.613-9.549 11.533-17.376 24.567-23.024 38.437-5.79 14.218-9.375 29.326-10.541 44.635-1.197 15.708.046 31.586 3.784 46.893a148.2 148.2 0 0 0 17.22 41.624 149.7 149.7 0 0 0 28.535 34.231 149.3 149.3 0 0 0 37.33 24.267 147.2 147.2 0 0 0 44.183 12.228c15.615 1.775 31.516 1.133 46.918-2.006a148.1 148.1 0 0 0 42.571-15.778A149.6 149.6 0 0 0-41.2 102.719a149.4 149.4 0 0 0 25.69-36.528C-8.72 52.583-4.085 37.924-1.743 22.9-.563 15.327-.011 7.662 0 0c.003-1.93 3.003-1.934 3 0C2.978 15.868.535 31.727-4.369 46.824a151.2 151.2 0 0 1-20.559 40.882 153.4 153.4 0 0 1-31.576 32.733 151.5 151.5 0 0 1-40.002 22.001c-14.805 5.435-30.469 8.481-46.226 9.094-15.935.619-31.989-1.263-47.334-5.612a151 151 0 0 1-41.727-19.081c-12.721-8.365-24.191-18.634-33.871-30.386a152.7 152.7 0 0 1-23.394-39.087c-5.958-14.518-9.568-29.952-10.783-45.594a152.7 152.7 0 0 1 3.827-47.702 151 151 0 0 1 17.57-42.538 152.4 152.4 0 0 1 29.152-34.969c11.389-10.1 24.278-18.503 38.152-24.77a151.9 151.9 0 0 1 44.923-12.426c15.948-1.86 32.192-1.16 47.927 2.026 15.147 3.067 29.813 8.509 43.315 16.024a152.3 152.3 0 0 1 36.033 27.883c10.489 10.993 19.343 23.565 26.111 37.171C-5.911-53.614-1.137-38.652 1.212-23.29A155 155 0 0 1 3 0C3.003 1.93.003 1.933 0 0" clip-path="url(#C)" style="fill:#000;fill-opacity:1;fill-rule:nonzero;stroke:none" transform="matrix(1.33333 0 0 -1.33333 922.016 589.811)"/><path d="M0 0c0-69.572-56.399-125.972-125.972-125.972S-251.943-69.572-251.943 0s56.399 125.972 125.971 125.972S0 69.572 0 0" clip-path="url(#D)" style="fill:#ffe30d;fill-opacity:1;fill-rule:nonzero;stroke:none" transform="matrix(1.33333 0 0 -1.33333 891.78 589.811)"/><path d="M0 0c-.018-13.085-2.04-26.103-6.084-38.552-3.88-11.946-9.608-23.262-16.874-33.505a124.6 124.6 0 0 0-25.861-26.808c-9.947-7.604-21.037-13.737-32.797-18.038a124.5 124.5 0 0 0-38.069-7.479c-13.084-.489-26.203 1.045-38.803 4.615a124.3 124.3 0 0 0-34.349 15.732c-10.387 6.83-19.72 15.232-27.648 24.807-7.983 9.641-14.533 20.546-19.255 32.141-4.849 11.908-7.858 24.562-8.835 37.384-1.002 13.158.035 26.456 3.166 39.279a124.2 124.2 0 0 0 14.423 34.864 125.4 125.4 0 0 0 23.903 28.67 125 125 0 0 0 31.27 20.322 123.2 123.2 0 0 0 36.947 10.226c13.079 1.487 26.399.954 39.299-1.675a124 124 0 0 0 35.659-13.213 125.3 125.3 0 0 0 29.413-22.761 125.1 125.1 0 0 0 21.516-30.598c5.687-11.398 9.563-23.679 11.525-36.263C-.467 12.817-.009 6.407 0 0c.003-1.93 3.003-1.934 3 0C2.982 13.333.929 26.664-3.191 39.349a127.1 127.1 0 0 1-17.273 34.357 129 129 0 0 1-26.579 27.548 127.3 127.3 0 0 1-33.618 18.484c-12.441 4.567-25.607 7.123-38.847 7.638-13.389.52-26.884-1.063-39.777-4.717a127 127 0 0 1-35.066-16.033c-10.69-7.03-20.332-15.655-28.466-25.531a128.5 128.5 0 0 1-19.689-32.9c-5.007-12.201-8.035-25.172-9.056-38.317a128.3 128.3 0 0 1 3.22-40.085 126.8 126.8 0 0 1 14.766-35.747 128 128 0 0 1 24.495-29.387c9.57-8.487 20.399-15.553 32.058-20.819a127.8 127.8 0 0 1 37.811-10.458c13.402-1.564 27.052-.97 40.275 1.708 12.727 2.577 25.052 7.154 36.398 13.468A128 128 0 0 1-32.26-88.011c8.815 9.238 16.258 19.802 21.945 31.235C-4.5-45.085-.483-32.513 1.492-19.604A131 131 0 0 1 3 0C3.003 1.93.003 1.933 0 0" clip-path="url(#E)" style="fill:#000;fill-opacity:1;fill-rule:nonzero;stroke:none" transform="matrix(1.33333 0 0 -1.33333 889.78 589.811)"/><path d="M0 0c0-54.112-43.866-97.978-97.978-97.978S-195.956-54.112-195.956 0s43.866 97.978 97.978 97.978S0 54.112 0 0" clip-path="url(#F)" style="fill:#ffe30d;fill-opacity:1;fill-rule:nonzero;stroke:none" transform="matrix(1.33333 0 0 -1.33333 854.456 589.811)"/><path d="M0 0c-.035-20.046-6.291-39.713-17.931-56.045-11.225-15.75-27.273-28-45.453-34.613-19.005-6.912-40.041-7.684-59.498-2.162-18.731 5.315-35.56 16.391-47.983 31.368-12.637 15.236-20.36 34.368-21.82 54.108-1.479 20.013 3.268 40.193 13.688 57.357 10.055 16.565 25.078 29.873 42.71 37.903 18.372 8.368 39.389 10.67 59.156 6.625 19.211-3.931 36.936-13.778 50.473-27.958C-13.115 52.395-4.143 34.197-1.121 14.818-.357 9.918-.009 4.958 0 0c.003-1.93 3.003-1.934 3 0-.036 20.534-6.412 40.821-18.341 57.559C-26.987 73.9-43.435 86.507-62.274 93.436c-19.554 7.192-41.369 7.963-61.405 2.277-19.298-5.476-36.762-16.912-49.516-32.392-12.983-15.759-20.883-35.27-22.463-55.631-1.601-20.612 3.339-41.54 14.07-59.217 10.361-17.067 25.882-30.899 44.088-39.117 19.029-8.589 40.539-10.974 61-6.824 19.744 4.004 38.06 14.199 51.964 28.764C-10.582-54.086-1.222-35.27 1.824-15.278A102.6 102.6 0 0 1 3 0C3.003 1.93.003 1.933 0 0" clip-path="url(#G)" style="fill:#000;fill-opacity:1;fill-rule:nonzero;stroke:none" transform="matrix(1.33333 0 0 -1.33333 852.456 589.811)"/><path d="M0 0c-18.243-6.49-20.426-13.705-8.111-28.078 2.003-2.338-.099-5.921-3.117-5.316-18.362 3.683-23.517-1.473-19.835-19.835.605-3.018-2.978-5.12-5.316-3.117-14.372 12.315-21.588 10.132-28.078-8.111-1.038-2.918-5.136-2.918-6.174 0-6.491 18.243-13.706 20.426-28.078 8.111-2.338-2.003-5.922.099-5.316 3.117 3.682 18.362-1.473 23.518-19.835 19.835-3.019-.605-5.12 2.978-3.117 5.316C-114.662-13.705-116.845-6.49-135.088 0c-2.919 1.038-2.919 5.136 0 6.175 18.243 6.49 20.426 13.705 8.111 28.078-2.003 2.337.098 5.921 3.117 5.315 18.362-3.682 23.517 1.474 19.835 19.836-.606 3.018 2.978 5.119 5.316 3.116 14.372-12.315 21.587-10.132 28.078 8.112 1.038 2.918 5.136 2.918 6.174 0 6.49-18.244 13.706-20.427 28.078-8.112 2.338 2.003 5.921-.098 5.316-3.116-3.682-18.362 1.473-23.518 19.835-19.836 3.018.606 5.12-2.978 3.117-5.315C-20.426 19.88-18.243 12.665 0 6.175 2.918 5.136 2.918 1.038 0 0" clip-path="url(#H)" style="fill:#ff3342;fill-opacity:1;fill-rule:nonzero;stroke:none" transform="matrix(1.33333 0 0 -1.33333 816.583 595.262)"/><path d="M0 0c-7.844-2.81-19.365-7.799-16.457-18.181.621-2.218 1.732-4.302 2.977-6.227.813-1.256 1.705-2.458 2.625-3.637q.704-.901 1.436-1.777c.388-.464.882-.911.984-1.537.512-3.114-4.081-1.628-5.525-1.413-2.367.352-4.764.614-7.161.531-3.454-.121-7.16-.98-9.466-3.758-2.422-2.917-2.821-6.922-2.662-10.576.117-2.677.525-5.346 1.035-7.973.193-.996.053-1.977-1.008-2.402-1.265-.506-2.177.638-3.061 1.361-3.784 3.093-8.178 6.375-13.186 6.952-3.904.45-7.352-1.489-9.759-4.465-1.616-1.999-2.867-4.242-3.934-6.574a68 68 0 0 1-1.784-4.304c-.389-1.03-.605-2.332-1.859-2.581-.979-.195-1.693.399-2.051 1.251-.625 1.485-1.132 3.019-1.77 4.502-1.038 2.41-2.227 4.789-3.807 6.894-2.336 3.115-5.589 5.535-9.654 5.341-4.795-.228-9.095-3.227-12.744-6.076a71 71 0 0 1-1.929-1.563c-.464-.39-.886-.821-1.52-.863-.889-.058-1.773.598-1.906 1.496-.09.608.163 1.298.272 1.891q.195 1.07.356 2.143c.197 1.329.365 2.663.46 4.003.258 3.635.101 7.825-2.109 10.9-2.115 2.942-5.52 4.073-9.008 4.347-2.31.182-4.637-.009-6.929-.311-1.464-.194-2.91-.468-4.365-.718-.994-.171-1.929.12-2.266 1.169-.407 1.269.804 2.2 1.521 3.083a59 59 0 0 1 2.813 3.721c1.364 1.979 2.577 4.094 3.359 6.375 1.297 3.781.782 7.628-1.786 10.729-3.236 3.908-8.469 6.03-13.085 7.759-1.009.377-2.273.637-2.422 1.91-.123 1.052.579 1.655 1.473 1.999 2.795 1.075 5.589 2.139 8.215 3.595 3.523 1.952 7.214 4.807 8.103 8.969.911 4.267-1.109 8.493-3.402 11.972a52 52 0 0 1-2.563 3.515c-.722.92-2.337 2.186-2.317 3.439.047 2.879 4.11 1.35 5.694 1.119 4.122-.602 8.724-1.053 12.684.567 3.189 1.306 5.245 3.997 6.004 7.332 1.058 4.651.165 9.463-.626 14.075-.178 1.037.166 2.027 1.297 2.305 1.254.308 2.233-.976 3.103-1.68 2.182-1.764 4.462-3.458 6.959-4.755 3.552-1.845 7.622-2.836 11.396-1.041 4.058 1.93 6.524 6.369 8.298 10.282a70 70 0 0 1 1.852 4.521c.367.986.652 2.126 1.888 2.235 1.033.091 1.619-.589 1.952-1.473.586-1.559 1.176-3.112 1.844-4.638 1.762-4.028 4.171-8.601 8.224-10.747 3.659-1.936 7.702-1.132 11.263.612 2.47 1.209 4.714 2.836 6.866 4.534.897.709 2.062 2.213 3.293 2.202a1.803 1.803 0 0 0 1.778-1.794c-.005-1.315-.494-2.748-.682-4.058a51 51 0 0 1-.424-3.826c-.142-2.118-.1-4.26.31-6.347.638-3.242 2.499-6.118 5.563-7.514 3.899-1.775 8.452-1.445 12.582-.88 1.388.189 2.757.506 4.142.699.979.136 1.879-.314 2.129-1.332.317-1.292-1.077-2.352-1.8-3.251a58 58 0 0 1-2.666-3.561c-2.393-3.504-4.581-7.751-3.837-12.124.706-4.148 4.2-7.061 7.647-9.058C-6.72 5.917-4.129 4.823-1.524 3.84c1.023-.386 2.338-.609 2.581-1.858C1.215 1.165.783.315 0 0c-1.769-.711-.997-3.614.798-2.893 2.43.977 3.892 3.424 3.051 6.032-.966 2.997-4.497 3.49-7.031 4.573-3.719 1.59-8.612 3.823-10.266 7.844-1.569 3.817.822 8.042 2.912 11.156a49 49 0 0 0 2.742 3.67c.959 1.173 2.054 2.23 2.299 3.788.421 2.669-1.579 5.278-4.288 5.494-1.42.114-2.932-.395-4.329-.618a44 44 0 0 0-3.851-.452c-1.988-.141-4.039-.175-5.997.256-3.113.684-5.105 2.487-5.883 5.579-.489 1.944-.496 3.985-.377 5.975.075 1.267.214 2.53.404 3.785.217 1.433.697 2.93.719 4.378.041 2.698-2.377 4.933-5.049 4.785-1.587-.088-2.643-1.021-3.809-1.989a52 52 0 0 0-3.713-2.836c-3.123-2.153-7.278-4.629-11.19-3.322-4.098 1.369-6.399 6.276-8.001 9.907-1.108 2.51-1.579 6.15-4.376 7.357a4.795 4.795 0 0 1-6.259-2.433c-2.096-4.671-3.472-10.186-7.661-13.552-2.985-2.397-6.623-1.767-9.834-.146-2.536 1.28-4.858 2.977-7.046 4.776-1.193.981-2.235 2.016-3.839 2.204-1.295.152-2.585-.259-3.592-1.081-2.466-2.014-1.513-4.88-1.085-7.563.382-2.391.624-4.829.514-7.252-.145-3.181-1.078-6.237-3.87-7.731-3.445-1.842-8.202-1.274-11.948-.696-2.723.42-5.691 1.502-7.802-.931-.813-.937-1.268-2.179-1.199-3.424.087-1.586 1.022-2.645 1.989-3.809 2.851-3.43 6.504-7.934 6.518-12.66.013-3.981-3.413-6.619-6.585-8.415-2.699-1.529-5.576-2.51-8.428-3.691-2.353-.975-3.603-3.606-2.733-6.039 1.058-2.957 4.598-3.424 7.151-4.528 2.378-1.029 4.787-2.209 6.835-3.816 2.951-2.316 4.42-5.36 3.382-9.065-.64-2.286-1.882-4.371-3.212-6.318a51 51 0 0 0-2.804-3.698c-.946-1.145-1.9-2.153-2.08-3.688-.311-2.654 1.771-5.179 4.458-5.313 1.423-.07 2.945.441 4.349.662 1.27.199 2.547.35 3.829.436 3.327.224 7.445.155 9.849-2.25s2.474-6.521 2.25-9.849a43 43 0 0 0-.412-3.667c-.219-1.421-.707-2.925-.69-4.364.032-2.701 2.524-4.844 5.181-4.621 1.599.134 2.645 1.122 3.823 2.096a51 51 0 0 0 3.699 2.805c1.947 1.329 4.032 2.571 6.317 3.212 3.703 1.037 6.753-.43 9.065-3.383 1.57-2.005 2.73-4.347 3.745-6.669 1.109-2.537 1.588-6.156 4.483-7.271 2.453-.945 5.165.282 6.156 2.688 1.175 2.854 2.161 5.727 3.69 8.427 1.796 3.17 4.436 6.6 8.416 6.586 4.666-.017 9.111-3.586 12.51-6.395 1.182-.977 2.225-1.962 3.823-2.096a4.84 4.84 0 0 1 3.56 1.182c2.442 2.119 1.352 5.075.931 7.803-.578 3.743-1.147 8.505.696 11.947 1.474 2.753 4.465 3.705 7.61 3.864 2.407.123 4.833-.108 7.21-.481 2.725-.428 5.671-1.457 7.726 1.059.821 1.006 1.233 2.297 1.081 3.592-.187 1.594-1.227 2.649-2.204 3.838-1.799 2.189-3.496 4.51-4.777 7.046-1.601 3.174-2.247 6.77.078 9.749C-9.285-6.499-3.742-4.519.798-2.893 2.602-2.246 1.824.653 0 0" clip-path="url(#I)" style="fill:#000;fill-opacity:1;fill-rule:nonzero;stroke:none" transform="matrix(1.33333 0 0 -1.33333 816.051 593.333)"/><path d="m0 0 66.95 45.975c2.93 2.012 6.282-1.892 3.791-4.416L15.043-14.85Z" clip-path="url(#J)" style="fill:#3bb4fb;fill-opacity:1;fill-rule:nonzero;stroke:none" transform="matrix(1.33333 0 0 -1.33333 566.142 696.21)"/><path d="m0 0 22.936 15.75 36.188 24.851c2.583 1.774 5.12 3.668 7.772 5.337.988.622 2.667.236 2.454-1.247-.066-.459-.412-.755-.714-1.066-.924-.953-1.866-1.89-2.798-2.835L37.224 11.811 13.636-12.078l-.41-.416h2.121L.304 2.356C-1.072 3.714-3.194 1.594-1.818.234l15.044-14.85c.574-.566 1.548-.58 2.121 0L36.071 6.373l30.484 30.874 3.677 3.725c1.397 1.414 2.595 3.003 1.923 5.163-.792 2.547-3.729 3.906-6.149 2.748-.352-.169-.648-.373-.966-.589-1.152-.783-2.296-1.577-3.443-2.365L27.038 22.197-1.044 2.913l-.47-.323C-3.096 1.504-1.597-1.097 0 0" clip-path="url(#K)" style="fill:#000;fill-opacity:1;fill-rule:nonzero;stroke:none" transform="matrix(1.33333 0 0 -1.33333 567.152 697.937)"/><path d="M0 0c0-11.814-9.577-21.391-21.391-21.391S-42.781-11.814-42.781 0s9.577 21.391 21.39 21.391S0 11.814 0 0" clip-path="url(#L)" style="fill:#3bb4fb;fill-opacity:1;fill-rule:nonzero;stroke:none" transform="matrix(1.33333 0 0 -1.33333 604.583 706.09)"/><path d="M0 0c-.066-8.199-5.192-15.824-12.964-18.657-7.932-2.891-16.915-.458-22.307 6.033-5.32 6.406-5.939 15.793-1.655 22.897 4.268 7.078 12.782 10.89 20.906 9.244C-6.76 17.642-.076 9.418 0 0c.015-1.93 3.016-1.934 3 0-.077 9.607-6.126 18.255-15.166 21.55-8.9 3.244-19.324.39-25.33-6.93-6.13-7.471-7.017-18.265-1.936-26.547 4.996-8.144 14.685-12.335 24.044-10.517C-4.758-20.378 2.914-10.731 3 0 3.015 1.931.016 1.933 0 0" clip-path="url(#M)" style="fill:#000;fill-opacity:1;fill-rule:nonzero;stroke:none" transform="matrix(1.33333 0 0 -1.33333 602.583 706.09)"/><path d="M0 0c0 21.927-18.653 39.702-41.662 39.702-23.01 0-41.663-17.775-41.663-39.702Z" clip-path="url(#N)" style="fill:#feffff;fill-opacity:1;fill-rule:nonzero;stroke:none" transform="matrix(1.33333 0 0 -1.33333 733.07 570.315)"/><path d="M0 0c-.078 17.598-11.935 32.956-28.369 38.715-16.728 5.862-36.354 1.064-48.016-12.416C-82.71 18.987-86.282 9.68-86.325 0c-.003-.811.69-1.5 1.5-1.5H-1.5c1.93 0 1.934 3 0 3h-83.325l1.5-1.5c.073 16.277 11.081 30.596 26.327 35.877 15.711 5.443 33.842 1.021 44.83-11.576A37.3 37.3 0 0 0-3 0c.009-1.93 3.009-1.934 3 0" clip-path="url(#O)" style="fill:#000;fill-opacity:1;fill-rule:nonzero;stroke:none" transform="matrix(1.33333 0 0 -1.33333 735.07 570.315)"/><path d="M0 0c0-16.618-13.472-30.09-30.09-30.09S-60.18-16.618-60.18 0s13.472 30.09 30.09 30.09S0 16.618 0 0" clip-path="url(#P)" style="fill:#000;fill-opacity:1;fill-rule:nonzero;stroke:none" transform="matrix(1.33333 0 0 -1.33333 717.825 565.486)"/><path d="M0 0a8.915 8.915 0 0 0-8.915-8.915 8.915 8.915 0 1 0 0 17.831A8.916 8.916 0 0 0 0 0" clip-path="url(#Q)" style="fill:#fff;fill-opacity:1;fill-rule:nonzero;stroke:none" transform="matrix(1.33333 0 0 -1.33333 678.077 547.284)"/><path d="M0 0a5.92 5.92 0 1 0-9.479 7.096A5.921 5.921 0 0 0 0 0" clip-path="url(#R)" style="fill:#fff;fill-opacity:1;fill-rule:nonzero;stroke:none" transform="matrix(1.33333 0 0 -1.33333 697.12 555.265)"/><path d="M0 0c0 21.927-18.653 39.702-41.662 39.702-23.01 0-41.663-17.775-41.663-39.702Z" clip-path="url(#S)" style="fill:#feffff;fill-opacity:1;fill-rule:nonzero;stroke:none" transform="matrix(1.33333 0 0 -1.33333 832.75 570.315)"/><path d="M0 0c-.078 17.598-11.935 32.956-28.369 38.715-16.728 5.862-36.354 1.064-48.016-12.416C-82.71 18.987-86.282 9.68-86.325 0c-.003-.811.69-1.5 1.5-1.5H-1.5c1.93 0 1.934 3 0 3h-83.325l1.5-1.5c.073 16.277 11.081 30.596 26.327 35.877 15.711 5.443 33.842 1.021 44.83-11.576A37.3 37.3 0 0 0-3 0c.009-1.93 3.009-1.934 3 0" clip-path="url(#T)" style="fill:#000;fill-opacity:1;fill-rule:nonzero;stroke:none" transform="matrix(1.33333 0 0 -1.33333 834.75 570.315)"/><path d="M0 0c0-16.618-13.472-30.09-30.09-30.09S-60.18-16.618-60.18 0s13.472 30.09 30.09 30.09S0 16.618 0 0" clip-path="url(#U)" style="fill:#000;fill-opacity:1;fill-rule:nonzero;stroke:none" transform="matrix(1.33333 0 0 -1.33333 817.505 565.486)"/><path d="M0 0a8.915 8.915 0 0 0-8.915-8.915 8.915 8.915 0 1 0 0 17.831A8.916 8.916 0 0 0 0 0" clip-path="url(#V)" style="fill:#fff;fill-opacity:1;fill-rule:nonzero;stroke:none" transform="matrix(1.33333 0 0 -1.33333 777.757 547.284)"/><path d="M0 0a5.92 5.92 0 1 0-9.479 7.096A5.921 5.921 0 0 0 0 0" clip-path="url(#W)" style="fill:#fff;fill-opacity:1;fill-rule:nonzero;stroke:none" transform="matrix(1.33333 0 0 -1.33333 796.8 555.265)"/><path d="M0 0c0-8.001-9.355-14.488-20.896-14.488-11.54 0-20.895 6.487-20.895 14.488s9.355 14.488 20.895 14.488C-9.355 14.488 0 8.001 0 0" clip-path="url(#X)" style="fill:#0aff9f;fill-opacity:1;fill-rule:nonzero;stroke:none" transform="matrix(1.33333 0 0 -1.33333 749.211 575.35)"/><path d="M0 0c-.093-6.75-7.017-10.791-12.825-12.216-7.087-1.738-15.777-.773-21.558 3.999-2.178 1.797-3.977 4.233-4.347 7.098-.369 2.856.783 5.647 2.68 7.746 4.955 5.48 13.381 7.061 20.424 6.124C-9.004 11.87-.107 7.797 0 0c.026-1.929 3.027-1.934 3 0-.11 8.001-7.611 13.188-14.666 15.017-8.317 2.157-18.256.895-24.959-4.779-2.702-2.286-4.682-5.428-5.088-8.981-.401-3.514.923-6.879 3.15-9.554 5.501-6.606 15.411-8.5 23.537-7.376C-6.896-14.548 2.872-9.317 3 0 3.027 1.931.027 1.932 0 0" clip-path="url(#Y)" style="fill:#000;fill-opacity:1;fill-rule:nonzero;stroke:none" transform="matrix(1.33333 0 0 -1.33333 747.211 575.35)"/><path d="M0 0c0-2.462-2.879-4.458-6.429-4.458s-6.43 1.996-6.43 4.458 2.879 4.458 6.43 4.458S0 2.462 0 0" clip-path="url(#Z)" style="fill:#feffff;fill-opacity:1;fill-rule:nonzero;stroke:none" transform="matrix(1.33333 0 0 -1.33333 722.122 570.521)"/><path d="M0 0q-.001-.144-.013-.287c.027.283-.01-.02-.032-.092-.028-.091-.052-.183-.082-.273-.077-.228.093.179-.016-.039a3.4 3.4 0 0 0-.343-.564c.044.057.143.164-.053-.05a6 6 0 0 0-.332-.332c-.56-.51-1.41-.895-2.276-1.111-1.876-.468-4.234-.137-5.597.903a5 5 0 0 0-.523.484c-.199.205-.083.054-.232.29-.054.085-.292.566-.209.352q-.05.133-.089.271c-.018.066-.078.465-.049.161-.018.19-.018.384 0 .574-.026-.268.06.199.091.298.084.274.035.104.007.041a4 4 0 0 0 .332.568c.079.111-.067-.064.096.111 1.257 1.344 3.424 1.867 5.413 1.597 1.007-.137 2.141-.556 2.792-1.057a5 5 0 0 0 .576-.54c.02-.022.182-.219.053-.05.089-.117.169-.244.241-.372A3 3 0 0 0-.111.626c-.086.192.004-.02.028-.11C-.052.402-.02.288.002.171-.047.434-.002.081 0 0c.044-1.927 3.044-1.934 3 0C2.932 2.966.333 4.973-2.349 5.641c-2.933.731-6.307.224-8.641-1.777-2.174-1.864-2.429-4.93-.6-7.116 1.956-2.337 5.402-2.99 8.281-2.572C-.294-5.386 2.923-3.346 3 0 3.044 1.931.044 1.931 0 0" clip-path="url(#aa)" style="fill:#000;fill-opacity:1;fill-rule:nonzero;stroke:none" transform="matrix(1.33333 0 0 -1.33333 720.122 570.521)"/><path d="M0 0c2.827-.303 5.806-1.729 8.996-1.928a18.03 18.03 0 0 1 13.617 5.041c3.319 3.219 5.718 7.768 9.657 9.923 6.52 3.567 15.053-1.709 17.269-9.518 3.863-13.613-6.346-23.325-16.357-27.681C21.095-29.424-.88-30.165-8.456-15.341-12.006-8.392-7.564.81 0 0" clip-path="url(#ab)" style="fill:#000;fill-opacity:1;fill-rule:nonzero;stroke:none" transform="matrix(1.33333 0 0 -1.33333 719.134 607.449)"/><path d="M0 0c2.827-.265 5.804-1.527 8.993-1.699 4.876-.262 9.902 1.291 13.624 4.499 3.324 2.864 5.73 6.909 9.673 8.829 6.525 3.178 15.05-1.495 17.253-8.428 2.204-6.932-.999-14.793-6.483-19.554-5.485-4.762-12.83-6.843-20.051-7.539a63.3 63.3 0 0 0-15.191.372c-5.782.844-13.287 4.637-16.297 9.88C-12.019-7.473-7.563.708 0 0" clip-path="url(#ac)" style="fill:#ff8fdd;fill-opacity:1;fill-rule:nonzero;stroke:none" transform="matrix(1.33333 0 0 -1.33333 716.893 605.003)"/><path d="M0 0c2.89-.317 5.628-1.42 8.539-1.667 2.568-.218 5.243.104 7.708.848a20.4 20.4 0 0 1 6.799 3.539c2.055 1.632 3.698 3.682 5.504 5.57 1.597 1.672 3.388 3.307 5.652 3.982 1.917.571 3.928.448 5.823-.147 4.093-1.286 7.386-4.725 8.371-8.905 1.123-4.769-.502-9.819-3.323-13.693-3.045-4.18-7.717-6.91-12.566-8.491-5.416-1.766-11.185-2.32-16.859-2.206-5.363.109-10.646.74-15.441 3.283-3.974 2.108-8.571 5.678-8.416 10.653C-8.07-2.791-4.341.333 0 0c1.925-.148 1.916 2.853 0 3-4.681.359-8.872-2.379-10.531-6.75-1.713-4.514.027-9.116 3.287-12.41 3.641-3.679 8.795-6.227 13.865-7.173 6.55-1.222 13.493-1.133 20.058-.091 11.139 1.767 22.811 8.296 24.79 20.389.839 5.125-.418 10.354-4.141 14.089-3.349 3.359-8.263 5.273-12.991 4.341-6.501-1.282-9.266-7.931-14.44-11.265-2.76-1.779-5.996-2.753-9.275-2.849C6.97 1.173 3.591 2.606 0 3c-1.916.21-1.902-2.792 0-3" clip-path="url(#ad)" style="fill:#000;fill-opacity:1;fill-rule:nonzero;stroke:none" transform="matrix(1.33333 0 0 -1.33333 716.893 607.003)"/><path d="M0 0c13.657-5.238 29.168-.319 37.606 11.514 1.123 1.575-1.477 3.075-2.59 1.514C27.313 2.227 13.127-1.836.797 2.893-1.007 3.585-1.787.685 0 0" clip-path="url(#ae)" style="fill:#000;fill-opacity:1;fill-rule:nonzero;stroke:none" transform="matrix(1.33333 0 0 -1.33333 718.63 621.52)"/><path d="M0 0a6 6 0 0 0 .779-.215c.01-.004.344-.143.143-.052-.204.092.129-.066.136-.069a6 6 0 0 0 .697-.411c.035-.024.294-.223.127-.089-.151.122.046-.042.073-.065a6 6 0 0 0 .761-.791c-.123.153-.087.113.005-.022q.082-.12.158-.243.143-.236.261-.485c.032-.067.115-.335.026-.052.025-.081.059-.16.086-.24q.1-.304.167-.616.026-.126.048-.251c.071-.391.001.181.003-.045.005-.409.03-.803-.013-1.212.022.214.014.107-.015-.043a6 6 0 0 0-.262-.92c-.272-.738.303-1.676 1.048-1.845.848-.193 1.554.258 1.845 1.048.734 1.994.498 4.359-.604 6.175C4.452 1.233 2.721 2.49.798 2.893c-.766.16-1.658-.224-1.846-1.048C-1.219 1.094-.821.172 0 0" clip-path="url(#af)" style="fill:#000;fill-opacity:1;fill-rule:nonzero;stroke:none" transform="matrix(1.33333 0 0 -1.33333 762.933 602.956)"/><path d="M0 0c-2.279-1.976-2.798-5.498-1.405-8.121.369-.694 1.391-.964 2.052-.538.706.455.933 1.31.539 2.053a4 4 0 0 0-.1.195c-.023.046-.106.242-.014.02.097-.237-.002.01-.021.064l-.057.165a5 5 0 0 0-.114.421c-.017.078-.084.494-.049.23.035-.265-.01.149-.014.235a5 5 0 0 0-.006.394c.003.132.014.262.024.393.022.31-.049-.274-.016-.094l.037.216q.075.388.206.761l.06.164c.105.287-.114-.236-.033-.076.06.116.113.236.176.351q.105.191.226.373l.099.143c.148.215-.169-.199-.049-.062.185.209.369.409.58.592.595.515.568 1.6 0 2.121C1.487.582.635.55 0 0" clip-path="url(#ag)" style="fill:#000;fill-opacity:1;fill-rule:nonzero;stroke:none" transform="matrix(1.33333 0 0 -1.33333 717.635 613.498)"/></svg>