<svg xmlns="http://www.w3.org/2000/svg" width="1440" height="1440" viewBox="0 0 1440 1440"><defs><clipPath id="a" clipPathUnits="userSpaceOnUse"><path d="M-286.387 705.468h1080v-1080h-1080Z"/></clipPath><clipPath id="b" clipPathUnits="userSpaceOnUse"><path d="M-772.822 689.238h1080v-1080h-1080Z"/></clipPath><clipPath id="c" clipPathUnits="userSpaceOnUse"><path d="M-772.423 687.792h1080v-1080h-1080Z"/></clipPath><clipPath id="d" clipPathUnits="userSpaceOnUse"><path d="M-242.449 615.355h1080v-1080h-1080Z"/></clipPath><clipPath id="e" clipPathUnits="userSpaceOnUse"><path d="M-243.949 615.355h1080v-1080h-1080Z"/></clipPath><clipPath id="f" clipPathUnits="userSpaceOnUse"><path d="M-333.396 606.605h1080v-1080h-1080Z"/></clipPath><clipPath id="g" clipPathUnits="userSpaceOnUse"><path d="M-334.896 606.605h1080v-1080h-1080Z"/></clipPath><clipPath id="h" clipPathUnits="userSpaceOnUse"><path d="M-731.449 615.355h1080v-1080h-1080Z"/></clipPath><clipPath id="i" clipPathUnits="userSpaceOnUse"><path d="M-732.949 615.355h1080v-1080h-1080Z"/></clipPath><clipPath id="j" clipPathUnits="userSpaceOnUse"><path d="M-822.396 606.605h1080v-1080h-1080Z"/></clipPath><clipPath id="k" clipPathUnits="userSpaceOnUse"><path d="M-823.896 606.605h1080v-1080h-1080Z"/></clipPath><clipPath id="l" clipPathUnits="userSpaceOnUse"><path d="M-758.492 568.898h1080v-1080h-1080Z"/></clipPath><clipPath id="m" clipPathUnits="userSpaceOnUse"><path d="M-813.671 577.477h1080v-1080h-1080Z"/></clipPath><clipPath id="n" clipPathUnits="userSpaceOnUse"><path d="M-279.112 597.043h1080v-1080h-1080Z"/></clipPath><clipPath id="o" clipPathUnits="userSpaceOnUse"><path d="M-297.087 596.76h1080v-1080h-1080Z"/></clipPath><clipPath id="p" clipPathUnits="userSpaceOnUse"><path d="M-312.86 597.043h1080v-1080h-1080Z"/></clipPath><clipPath id="q" clipPathUnits="userSpaceOnUse"><path d="M-326.847 597.043h1080v-1080h-1080Z"/></clipPath><clipPath id="r" clipPathUnits="userSpaceOnUse"><path d="M-451.67 692.926h1080v-1080h-1080Z"/></clipPath><clipPath id="s" clipPathUnits="userSpaceOnUse"><path d="M-526.068 698.803h1080v-1080h-1080Z"/></clipPath><clipPath id="t" clipPathUnits="userSpaceOnUse"><path d="M-601.878 693.455h1080v-1080h-1080Z"/></clipPath><clipPath id="u" clipPathUnits="userSpaceOnUse"><path d="M-647.835 694.571h1080v-1080h-1080Z"/></clipPath><clipPath id="v" clipPathUnits="userSpaceOnUse"><path d="M-466.269 408.82h1080v-1080h-1080Z"/></clipPath><clipPath id="w" clipPathUnits="userSpaceOnUse"><path d="M0 1080h1080V0H0Z"/></clipPath><clipPath id="x" clipPathUnits="userSpaceOnUse"><path d="M-589.944 406.346h1080v-1080h-1080Z"/></clipPath><clipPath id="y" clipPathUnits="userSpaceOnUse"><path d="M-632.489 274.277h1080v-1080h-1080Z"/></clipPath><clipPath id="z" clipPathUnits="userSpaceOnUse"><path d="M-632.489 275.777h1080v-1080h-1080Z"/></clipPath><clipPath id="A" clipPathUnits="userSpaceOnUse"><path d="M-425.703 281.202h1080v-1080h-1080Z"/></clipPath><clipPath id="B" clipPathUnits="userSpaceOnUse"><path d="M-425.703 279.702h1080v-1080h-1080Z"/></clipPath><clipPath id="C" clipPathUnits="userSpaceOnUse"><path d="M-452.17 369.275h1080v-1080h-1080Z"/></clipPath><clipPath id="D" clipPathUnits="userSpaceOnUse"><path d="M0 1080h1080V0H0Z"/></clipPath><clipPath id="E" clipPathUnits="userSpaceOnUse"><path d="M-558.53 390.763h1080v-1080h-1080Z"/></clipPath><clipPath id="F" clipPathUnits="userSpaceOnUse"><path d="M0 1080h1080V0H0Z"/></clipPath><clipPath id="G" clipPathUnits="userSpaceOnUse"><path d="M-652.03 597.796h1080v-1080h-1080Z"/></clipPath><clipPath id="H" clipPathUnits="userSpaceOnUse"><path d="M-427.187 502.845h1080v-1080h-1080Z"/></clipPath><clipPath id="I" clipPathUnits="userSpaceOnUse"><path d="M-427.187 523.389h1080v-1080h-1080Z"/></clipPath><clipPath id="J" clipPathUnits="userSpaceOnUse"><path d="M-427.187 543.932h1080v-1080h-1080Z"/></clipPath><clipPath id="K" clipPathUnits="userSpaceOnUse"><path d="M-427.187 564.476h1080v-1080h-1080Z"/></clipPath><clipPath id="L" clipPathUnits="userSpaceOnUse"><path d="M-427.187 585.02h1080v-1080h-1080Z"/></clipPath><clipPath id="M" clipPathUnits="userSpaceOnUse"><path d="M-447.965 464.613h1080v-1080h-1080Z"/></clipPath><clipPath id="N" clipPathUnits="userSpaceOnUse"><path d="M-446.465 464.613h1080v-1080h-1080Z"/></clipPath><clipPath id="O" clipPathUnits="userSpaceOnUse"><path d="M-650.243 464.613h1080v-1080h-1080Z"/></clipPath><clipPath id="P" clipPathUnits="userSpaceOnUse"><path d="M-648.743 464.613h1080v-1080h-1080Z"/></clipPath><clipPath id="Q" clipPathUnits="userSpaceOnUse"><path d="M-543.908 410.325h1080v-1080h-1080Z"/></clipPath><clipPath id="R" clipPathUnits="userSpaceOnUse"><path d="M-542.408 410.325h1080v-1080h-1080Z"/></clipPath><clipPath id="S" clipPathUnits="userSpaceOnUse"><path d="M-61.888-3.398c0-17.476 16.829-31.643 37.588-31.643 20.76 0 37.589 14.167 37.589 31.643S-3.54 28.245-24.3 28.245-61.888 14.078-61.888-3.398"/></clipPath><clipPath id="T" clipPathUnits="userSpaceOnUse"><path d="M-55.64 2.23c0-17.476 16.83-31.643 37.589-31.643 20.76 0 37.589 14.167 37.589 31.643s-16.83 31.643-37.59 31.643c-20.758 0-37.587-14.167-37.587-31.643"/></clipPath><clipPath id="U" clipPathUnits="userSpaceOnUse"><path d="M-37.558 7.327c0-17.476 16.83-31.643 37.588-31.643 20.76 0 37.59 14.167 37.59 31.643S20.79 38.97.03 38.97c-20.759 0-37.588-14.167-37.588-31.643"/></clipPath><clipPath id="V" clipPathUnits="userSpaceOnUse"><path d="M468.731 669.675c0-17.476 16.829-31.643 37.588-31.643 20.76 0 37.589 14.167 37.589 31.643s-16.829 31.643-37.589 31.643-37.588-14.167-37.588-31.643"/></clipPath><clipPath id="W" clipPathUnits="userSpaceOnUse"><path d="M-76.876-7.659c0-17.476 16.829-31.643 37.588-31.643 20.76 0 37.589 14.167 37.589 31.643s-16.83 31.643-37.59 31.643c-20.758 0-37.587-14.167-37.587-31.643"/></clipPath><clipPath id="X" clipPathUnits="userSpaceOnUse"><path d="M-542.408 410.325h1080v-1080h-1080Z"/></clipPath><clipPath id="Y" clipPathUnits="userSpaceOnUse"><path d="M-609.485 410.325h1080v-1080h-1080Z"/></clipPath><clipPath id="Z" clipPathUnits="userSpaceOnUse"><path d="M-607.985 410.325h1080v-1080h-1080Z"/></clipPath><clipPath id="aa" clipPathUnits="userSpaceOnUse"><path d="M-61.889-3.398c0-17.476 16.83-31.643 37.59-31.643S13.288-20.874 13.288-3.398-3.54 28.245-24.3 28.245-61.889 14.078-61.889-3.398"/></clipPath><clipPath id="ab" clipPathUnits="userSpaceOnUse"><path d="M-55.64 2.23c0-17.476 16.83-31.643 37.589-31.643 20.76 0 37.589 14.167 37.589 31.643s-16.83 31.643-37.59 31.643c-20.758 0-37.588-14.167-37.588-31.643"/></clipPath><clipPath id="ac" clipPathUnits="userSpaceOnUse"><path d="M-37.559 7.327c0-17.476 16.83-31.643 37.59-31.643S37.618-10.15 37.618 7.327 20.79 38.97.03 38.97-37.559 24.803-37.559 7.327"/></clipPath><clipPath id="ad" clipPathUnits="userSpaceOnUse"><path d="M534.307 669.675c0-17.476 16.83-31.643 37.589-31.643 20.76 0 37.589 14.167 37.589 31.643s-16.829 31.643-37.589 31.643-37.589-14.167-37.589-31.643"/></clipPath><clipPath id="ae" clipPathUnits="userSpaceOnUse"><path d="M-76.877-7.659c0-17.476 16.83-31.643 37.59-31.643S-1.7-25.135-1.7-7.659s-16.829 31.643-37.589 31.643S-76.877 9.817-76.877-7.659"/></clipPath><clipPath id="af" clipPathUnits="userSpaceOnUse"><path d="M-607.985 410.325h1080v-1080h-1080Z"/></clipPath><clipPath id="ag" clipPathUnits="userSpaceOnUse"><path d="M-554.054 434.285h1080v-1080h-1080Z"/></clipPath><clipPath id="ah" clipPathUnits="userSpaceOnUse"><path d="M-552.554 434.285h1080v-1080h-1080Z"/></clipPath><clipPath id="ai" clipPathUnits="userSpaceOnUse"><path d="M-537.44 431.323h1080v-1080h-1080Z"/></clipPath><clipPath id="aj" clipPathUnits="userSpaceOnUse"><path d="M-535.94 431.323h1080v-1080h-1080Z"/></clipPath><clipPath id="ak" clipPathUnits="userSpaceOnUse"><path d="M-563.814 470.233h1080v-1080h-1080Z"/></clipPath><clipPath id="al" clipPathUnits="userSpaceOnUse"><path d="M-561.285 467.705h1080v-1080h-1080Z"/></clipPath><clipPath id="am" clipPathUnits="userSpaceOnUse"><path d="M-559.785 467.705h1080v-1080h-1080Z"/></clipPath><clipPath id="an" clipPathUnits="userSpaceOnUse"><path d="M-551.533 467.705h1080v-1080h-1080Z"/></clipPath><clipPath id="ao" clipPathUnits="userSpaceOnUse"><path d="M-666.87 450.39h1080v-1080h-1080Z"/></clipPath><clipPath id="ap" clipPathUnits="userSpaceOnUse"><path d="M-666.87 448.89h1080v-1080h-1080Z"/></clipPath><clipPath id="aq" clipPathUnits="userSpaceOnUse"><path d="M-666.87 480.073h1080v-1080h-1080Z"/></clipPath><clipPath id="ar" clipPathUnits="userSpaceOnUse"><path d="M-666.87 478.573h1080v-1080h-1080Z"/></clipPath><clipPath id="as" clipPathUnits="userSpaceOnUse"><path d="M-402.956 586.176h1080v-1080h-1080Z"/></clipPath><clipPath id="at" clipPathUnits="userSpaceOnUse"><path d="M-402.956 584.676h1080v-1080h-1080Z"/></clipPath></defs><path d="M0 0h1080v1080H0Z" style="fill:#feffff;fill-opacity:1;fill-rule:nonzero;stroke:none" transform="matrix(1.33333 0 0 -1.33333 0 1440)"/><path d="M0 0v236.537l254.621 66.618 254.621-66.618V0L254.621-66.618Z" style="fill:#ffe30d;fill-opacity:1;fill-rule:nonzero;stroke:none" transform="matrix(1.33333 0 0 -1.33333 379.849 940.624)"/><path d="M0 0v232.923c0 .963.227 2.256 0 3.199-.03.123 0 .286 0 .415l-1.101-1.446 25.48 6.666 60.664 15.872 73.576 19.25 63.595 16.639 20.897 5.467c3.16.827 6.965 1.267 9.959 2.605.88.394-.837.388.151-.012 1.103-.447 2.407-.63 3.556-.931l15.96-4.175 57.792-15.121 73.25-19.164 65.972-17.261 35.911-9.395 1.682-.44-1.102 1.446V3.614c0-.963-.227-2.256 0-3.199.03-.123 0-.286 0-.415l1.102 1.446-25.481-6.666-60.664-15.872-73.575-19.25-84.493-22.106c-3.16-.827-6.965-1.267-9.958-2.605-.88-.394.836-.388-.152.012-1.103.447-2.406.63-3.556.931l-15.96 4.175-57.792 15.121-73.25 19.164L36.492-8.389.58 1.007l-1.681.439c-1.87.489-2.667-2.403-.798-2.892l25.481-6.667 61.133-15.994 73.345-19.19 63.693-16.664 20.875-5.462c3.204-.838 6.467-1.976 9.733-2.547 1.647-.287 3.418.497 5.012.914l15.743 4.119 57.754 15.11 73.465 19.221 66.032 17.277 36.093 9.443 1.681.44c.636.166 1.101.794 1.101 1.446v226.842c0 3.059.237 6.226 0 9.28-.01.136 0 .278 0 .415 0 .652-.465 1.28-1.101 1.447l-25.48 6.666-61.133 15.995-73.346 19.189-63.692 16.664-20.875 5.462c-3.204.838-6.468 1.976-9.734 2.547-1.647.287-3.417-.497-5.012-.914l-15.742-4.119-57.754-15.11-73.465-19.221-66.033-17.277-36.092-9.443-1.682-.439c-.636-.167-1.101-.795-1.101-1.447V9.695c0-3.059-.236-6.226 0-9.28C-2.989.279-3 .137-3 0c0-1.93 3-1.934 3 0" clip-path="url(#a)" style="fill:#000;fill-opacity:1;fill-rule:nonzero;stroke:none" transform="matrix(1.33333 0 0 -1.33333 381.849 940.624)"/><path d="m0 0-233.314-61.044L-466.628 0v204.078l233.314 61.043L0 204.078Z" clip-path="url(#b)" style="fill:#3bb4fb;fill-opacity:1;fill-rule:nonzero;stroke:none" transform="matrix(1.33333 0 0 -1.33333 1030.429 918.985)"/><path d="m0 0-23.348-6.109-55.588-14.544-67.418-17.639-58.274-15.246-19.148-5.01c-2.901-.759-6.374-1.167-9.125-2.388-.844-.374.873-.369-.072.012-1.013.408-2.204.577-3.259.852l-14.624 3.827-52.956 13.855-67.121 17.561-60.45 15.816-32.907 8.61-1.54.403 1.101-1.446v200.968c0 .828.198 1.943 0 2.752-.026.105 0 .247 0 .357l-1.101-1.446 23.348 6.108 55.587 14.544 67.419 17.639 58.274 15.247 19.148 5.01c2.9.759 6.374 1.167 9.125 2.387.844.375-.873.369.072-.011 1.013-.408 2.204-.577 3.258-.853l14.625-3.826 52.956-13.855 67.12-17.562 60.451-15.816 32.906-8.609L0 201.185l-1.101 1.446V6.894c0-2.638-.181-5.349 0-7.983.008-.118 0-.239 0-.357 0-1.931 3-1.934 3 0V194.29c0 2.63.211 5.36 0 7.984-.01.117 0 .239 0 .357 0 .652-.465 1.28-1.101 1.447l-23.349 6.108-56.017 14.656-67.208 17.585-58.362 15.269-19.128 5.005c-2.937.768-5.927 1.807-8.919 2.334-1.537.27-3.171-.448-4.66-.838l-14.425-3.774-52.921-13.846-67.317-17.613-60.507-15.831-33.072-8.652-1.541-.403c-.636-.167-1.101-.795-1.101-1.447V6.894c0-2.63-.211-5.359 0-7.983.009-.118 0-.239 0-.357 0-.652.465-1.28 1.101-1.447l23.348-6.109 56.018-14.656 67.207-17.584 58.363-15.27 19.128-5.004c2.937-.769 5.926-1.808 8.919-2.334 1.537-.27 3.171.448 4.659.837l14.426 3.775 52.921 13.846 67.317 17.612 60.507 15.831L-.743-3.296l1.541.403C2.664-2.405 1.872.49 0 0" clip-path="url(#c)" style="fill:#000;fill-opacity:1;fill-rule:nonzero;stroke:none" transform="matrix(1.33333 0 0 -1.33333 1029.897 917.056)"/><path d="M0 0v61.259l53.051 30.627 53.051-30.627V0L53.051-30.628Z" clip-path="url(#d)" style="fill:#ffe30d;fill-opacity:1;fill-rule:nonzero;stroke:none" transform="matrix(1.33333 0 0 -1.33333 323.265 820.474)"/><path d="M0 0v61.259l-.743-1.295 18.012 10.399 28.46 16.43 6.579 3.798h-1.514l18.012-10.399 28.46-16.43 6.579-3.798-.743 1.295V0l.743 1.295L85.833-9.104l-28.46-16.431-6.579-3.798h1.514L34.296-18.934 5.836-2.503-.743 1.295c-1.675.967-3.187-1.624-1.514-2.59l18.115-10.459 28.651-16.541c2.046-1.182 4.082-2.6 6.228-3.596.935-.434 1.515-.065 2.272.372l3.249 1.876 27.31 15.767c7.137 4.12 14.365 8.115 21.423 12.368q.183.108.368.213c.457.264.743.769.743 1.295v61.259a1.51 1.51 0 0 1-.743 1.295L87.244 73.012 58.593 89.553c-2.047 1.182-4.082 2.6-6.228 3.596-.935.434-1.515.065-2.273-.372l-3.248-1.876-27.31-15.767C12.397 71.015 5.169 67.02-1.889 62.767q-.183-.108-.368-.213A1.51 1.51 0 0 1-3 61.259V0c0-1.93 3-1.934 3 0" clip-path="url(#e)" style="fill:#000;fill-opacity:1;fill-rule:nonzero;stroke:none" transform="matrix(1.33333 0 0 -1.33333 325.265 820.474)"/><path d="M0 0v43.758l-37.896 21.88-37.896-21.88V0l37.896-21.879z" clip-path="url(#f)" style="fill:#feffff;fill-opacity:1;fill-rule:nonzero;stroke:none" transform="matrix(1.33333 0 0 -1.33333 444.528 808.807)"/><path d="M0 0v43.758a1.51 1.51 0 0 1-.743 1.296l-12.988 7.498-20.485 11.827c-1.439.831-2.875 1.845-4.389 2.535-1.378.627-3.164-.914-4.315-1.579L-62.329 54.13c-5.143-2.97-10.396-5.805-15.451-8.921q-.133-.08-.269-.155a1.51 1.51 0 0 1-.743-1.296V0c0-.526.286-1.031.743-1.295l12.988-7.499 20.485-11.827c1.439-.831 2.876-1.845 4.39-2.534 1.378-.628 3.163.913 4.315 1.578l19.408 11.206C-11.32-7.402-6.067-4.567-1.012-1.45c.088.054.18.103.269.155 1.672.965.163 3.558-1.514 2.59l-12.782-7.379-20.398-11.777-4.716-2.723h1.514l-12.781 7.38-20.398 11.776-4.717 2.723.743-1.295v43.758l-.743-1.295 12.782 7.38 20.398 11.776 4.716 2.723h-1.514l12.782-7.379 20.398-11.777 4.716-2.723L-3 43.758V0c0-1.93 3-1.934 3 0" clip-path="url(#g)" style="fill:#000;fill-opacity:1;fill-rule:nonzero;stroke:none" transform="matrix(1.33333 0 0 -1.33333 446.528 808.807)"/><path d="M0 0v61.259l53.051 30.627 53.051-30.627V0L53.051-30.628Z" clip-path="url(#h)" style="fill:#ffe30d;fill-opacity:1;fill-rule:nonzero;stroke:none" transform="matrix(1.33333 0 0 -1.33333 975.265 820.474)"/><path d="M0 0v61.259l-.743-1.295 18.012 10.399 28.46 16.43 6.579 3.798h-1.514l18.012-10.399 28.46-16.43 6.579-3.798-.743 1.295V0l.743 1.295L85.833-9.104l-28.46-16.431-6.579-3.798h1.514L34.296-18.934 5.836-2.503-.743 1.295c-1.675.967-3.187-1.624-1.514-2.59l18.115-10.459 28.651-16.541c2.046-1.182 4.082-2.6 6.228-3.596.935-.434 1.515-.065 2.272.372l3.249 1.876 27.31 15.767c7.137 4.12 14.365 8.115 21.423 12.368q.183.108.368.213c.457.264.743.769.743 1.295v61.259a1.51 1.51 0 0 1-.743 1.295L87.244 73.012 58.593 89.553c-2.046 1.182-4.082 2.6-6.228 3.596-.935.434-1.515.065-2.272-.372l-3.249-1.876-27.31-15.767C12.397 71.015 5.169 67.02-1.889 62.767q-.183-.108-.368-.213A1.51 1.51 0 0 1-3 61.259V0c0-1.93 3-1.934 3 0" clip-path="url(#i)" style="fill:#000;fill-opacity:1;fill-rule:nonzero;stroke:none" transform="matrix(1.33333 0 0 -1.33333 977.265 820.474)"/><path d="M0 0v43.758l-37.896 21.88-37.896-21.88V0l37.896-21.879z" clip-path="url(#j)" style="fill:#feffff;fill-opacity:1;fill-rule:nonzero;stroke:none" transform="matrix(1.33333 0 0 -1.33333 1096.528 808.807)"/><path d="M0 0v43.758a1.51 1.51 0 0 1-.743 1.296l-12.988 7.498-20.485 11.827c-1.439.831-2.875 1.845-4.389 2.535-1.378.627-3.164-.914-4.315-1.579L-62.329 54.13c-5.143-2.97-10.396-5.805-15.451-8.921q-.133-.08-.269-.155a1.51 1.51 0 0 1-.743-1.296V0c0-.526.286-1.031.743-1.295l12.988-7.499 20.485-11.827c1.439-.831 2.876-1.845 4.39-2.534 1.378-.628 3.163.913 4.315 1.578l19.408 11.206C-11.32-7.402-6.067-4.567-1.012-1.45c.088.054.18.103.269.155 1.672.965.163 3.558-1.514 2.59l-12.782-7.379-20.398-11.777-4.716-2.723h1.514l-12.781 7.38-20.398 11.776-4.717 2.723.743-1.295v43.758l-.743-1.295 12.782 7.38 20.398 11.776 4.716 2.723h-1.514l12.782-7.379 20.398-11.777 4.716-2.723L-3 43.758V0c0-1.93 3-1.934 3 0" clip-path="url(#k)" style="fill:#000;fill-opacity:1;fill-rule:nonzero;stroke:none" transform="matrix(1.33333 0 0 -1.33333 1098.528 808.807)"/><path d="M24.34-32.509q1.616.001 1.617 1.63v11.413q-.002 2.848-.75 4.57a5.8 5.8 0 0 1-2.297 2.684q-1.56.975-3.996 1.688l-3.34.996v7.898q0 1.63-1.617 1.63H6.632Q5.015 0 5.015-1.629v-8.168q0-2.893.738-4.582a5.77 5.77 0 0 1 2.332-2.66q1.583-.97 3.973-1.7l3.656-.995v-4.067H3.34q-1.63 0-1.629-1.617v-5.46q-.001-1.629 1.63-1.63zM58.522-8.532q-.001 2.076-.61 3.773-.611 1.689-2.132 2.906Q54.268-.63 51.585.022 48.9.678 44.742.68q-4.149 0-6.856-.657-2.706-.653-4.219-1.875-1.512-1.217-2.132-2.906-.611-1.697-.61-3.773V-23.93q-.001-2.074.61-3.761.62-1.697 2.132-2.918 1.512-1.218 4.22-1.899 2.707-.678 6.855-.68 4.157.002 6.843.68 2.683.681 4.196 1.899 1.52 1.221 2.133 2.918.607 1.687.609 3.761zm-17.39-1.63q-.002.906.656 1.513.654.61 2.953.609 2.355.001 2.988-.61.633-.606.633-1.511v-12.14q0-.901-.633-1.49-.633-.597-2.988-.597-2.3 0-2.953.598-.659.588-.657 1.488zm0 0" aria-label="70" style="fill:#ff8fdd;fill-opacity:1;fill-rule:nonzero;stroke:none" transform="translate(1006.868 801.88)scale(1.33333)"/><path d="M0 0q-1.625 0-1.625-1.626V-7.09q0-1.625 1.625-1.625h12.373v-4.064l-3.658-.993q-2.394-.723-3.974-1.694a5.8 5.8 0 0 1-2.325-2.664q-.745-1.694-.745-4.583v-8.173q0-1.626 1.625-1.626h7.316q1.625 0 1.625 1.626v7.902l3.342.994q2.437.72 3.996 1.693a5.8 5.8 0 0 1 2.303 2.687q.745 1.715.745 4.56v11.424Q22.623 0 20.997 0Z" clip-path="url(#l)" style="fill:none;stroke:#000;stroke-width:2;stroke-linecap:butt;stroke-linejoin:miter;stroke-miterlimit:10;stroke-dasharray:none;stroke-opacity:1" transform="matrix(1.33333 0 0 -1.33333 1011.323 758.531)"/><path d="M0 0q0 2.076-.609 3.77-.611 1.693-2.122 2.913-1.515 1.219-4.2 1.896-2.688.677-6.841.677-4.155 0-6.864-.677-2.71-.677-4.221-1.896-1.514-1.22-2.123-2.913-.609-1.694-.609-3.77v-15.398q0-2.078.609-3.771.608-1.694 2.123-2.912 1.511-1.221 4.221-1.874 2.709-.655 6.864-.655 4.153 0 6.841.655 2.685.653 4.2 1.874 1.511 1.218 2.122 2.912Q0-17.475 0-15.398zm-17.384-1.626q-.001.903.655 1.49.654.587 2.957.587 2.347 0 2.98-.587.632-.587.632-1.49v-12.146q0-.904-.632-1.513-.633-.61-2.98-.611-2.303.001-2.957.611-.656.609-.655 1.513z" clip-path="url(#m)" style="fill:none;stroke:#000;stroke-width:2;stroke-linecap:butt;stroke-linejoin:miter;stroke-miterlimit:10;stroke-dasharray:none;stroke-opacity:1" transform="matrix(1.33333 0 0 -1.33333 1084.895 769.97)"/><path d="M16.932-.001H3.127q-1.079 0-1.078-1.066v-19.29q-.001-1.077 1.078-1.078h13.805q1.077 0 1.078 1.079v3.48q0 1.067-1.078 1.066H8.717v2.297h5.813q1.065.002 1.066 1.067v3.187Q15.595-8.18 14.53-8.18H8.717v2.555h8.215q1.078.001 1.078 1.066v3.493Q18.01 0 16.932 0m14.531 0h-9.41q-1.067 0-1.066-1.066V-4.56q-.001-1.065 1.066-1.066h8.004q.386 0 .574-.246.199-.256.2-.621-.001-.501-.2-.738c-.126-.165-.316-.252-.574-.27l-4.465-.621q-2.086-.327-3.351-1.383-1.256-1.065-1.254-3.562v-3.13q0-2.553 1.629-3.89 1.64-1.346 4.523-1.348h8.344q1.065 0 1.066 1.079v3.539q-.001 1.066-1.066 1.066h-6.938q-.808.001-.808.902 0 .857.808.95l4.43.597q1.407.2 2.438.727a3.7 3.7 0 0 1 1.617 1.535q.585 1.01.586 2.672v3.129q-.001 2.532-1.64 3.89Q34.345 0 31.462 0m19.222 0h-4.828q-1.067 0-1.066-1.066v-14.625h-4.372q-1.079 0-1.078-1.067v-3.597q-.001-1.078 1.078-1.079h15.715q1.066 0 1.067 1.079v3.597q-.002 1.067-1.067 1.067H51.75v14.625q0 1.065-1.065 1.065m13.983 0h-6.011q-1.068 0-1.067-1.066v-6.047q0-1.066 1.067-1.067h6.011q1.078.002 1.079 1.067v6.047q0 1.066-1.079 1.066m0 0" aria-label="EST." style="fill:#ff8fdd;fill-opacity:1;fill-rule:nonzero;stroke:none" transform="translate(348.143 797.486)scale(1.33333)"/><path d="M0 0v3.482q0 1.071-1.071 1.072h-8.214v2.559h5.803q1.072 0 1.072 1.072v3.183q0 1.072-1.072 1.072h-5.803v2.291h8.214Q0 14.731 0 15.803v3.482q0 1.071-1.071 1.071H-14.88q-1.071 0-1.071-1.071V0q0-1.071 1.071-1.071h13.809Q0-1.071 0 0Z" clip-path="url(#n)" style="fill:none;stroke:#000;stroke-width:2;stroke-linecap:butt;stroke-linejoin:miter;stroke-miterlimit:10;stroke-dasharray:none;stroke-opacity:1" transform="matrix(1.33333 0 0 -1.33333 372.15 796.057)"/><path d="M0 0q1.637 1.353 1.637 3.884v3.124q0 1.667-.58 2.679A3.8 3.8 0 0 1-.565 11.22q-1.042.52-2.441.728l-4.434.596q-.804.089-.804.952 0 .893.804.893h6.934q1.071 0 1.071 1.071v3.542q0 1.071-1.071 1.071h-8.333q-2.887 0-4.523-1.34Q-15 17.395-15 14.835V11.71q0-2.5 1.266-3.556 1.264-1.057 3.348-1.383l4.464-.625q.386-.031.58-.269.194-.237.194-.743a.98.98 0 0 0-.194-.611q-.194-.253-.58-.252h-8.006Q-15 4.271-15 3.199V-.283q0-1.071 1.072-1.071h9.405Q-1.637-1.354 0 0Z" clip-path="url(#o)" style="fill:none;stroke:#000;stroke-width:2;stroke-linecap:butt;stroke-linejoin:miter;stroke-miterlimit:10;stroke-dasharray:none;stroke-opacity:1" transform="matrix(1.33333 0 0 -1.33333 396.116 795.68)"/><path d="M0 0v14.612h4.375q1.071 0 1.071 1.072v3.601q0 1.071-1.071 1.071h-15.714q-1.071 0-1.071-1.071v-3.601q0-1.072 1.071-1.072h4.375V0q0-1.071 1.071-1.071h4.821Q0-1.071 0 0Z" clip-path="url(#p)" style="fill:none;stroke:#000;stroke-width:2;stroke-linecap:butt;stroke-linejoin:miter;stroke-miterlimit:10;stroke-dasharray:none;stroke-opacity:1" transform="matrix(1.33333 0 0 -1.33333 417.147 796.057)"/><path d="M0 0v6.041q0 1.072-1.071 1.072h-6.012q-1.071 0-1.071-1.072V0q0-1.071 1.071-1.071h6.012Q0-1.071 0 0Z" clip-path="url(#q)" style="fill:none;stroke:#000;stroke-width:2;stroke-linecap:butt;stroke-linejoin:miter;stroke-miterlimit:10;stroke-dasharray:none;stroke-opacity:1" transform="matrix(1.33333 0 0 -1.33333 435.796 796.057)"/><path d="M51.949.001h-39.61q-4.23 0-4.23-4.23v-76.172q0-4.23 4.23-4.23h39.61q14.81.001 21.867 5.882 7.054 5.872 7.055 18.105v36.668Q80.87-11.75 73.816-5.87 66.759 0 51.949 0M34.793-62.18v39.961h13.98q5.53.002 5.531-5.754V-56.53q-.001-5.648-5.531-5.649zM98.147.001q-4.23 0-4.23-4.23v-13.993q0-4.228 4.23-4.23h11.637v-39.492H98.147q-4.23 0-4.23-4.23v-14.227q0-4.23 4.23-4.23h50.063q4.241 0 4.242 4.23v14.226q0 4.232-4.242 4.23h-11.391v39.493h11.39q4.243.002 4.243 4.23v13.993q0 4.23-4.242 4.23zm108.012 0h-37.137q-4.23 0-4.23-4.23v-13.758q0-4.23 4.23-4.23h31.617q1.521 0 2.285-.997.761-.994.762-2.414 0-1.99-.762-2.93-.764-.948-2.285-1.066l-17.637-2.46q-8.226-1.3-13.218-5.474-4.992-4.17-4.992-14.039v-12.34q-.002-10.111 6.457-15.398 6.468-5.296 17.87-5.297h32.907q4.228.002 4.23 4.23v13.993q-.001 4.23-4.23 4.23h-27.387q-3.176.001-3.176 3.528 0 3.41 3.176 3.761l17.52 2.356q5.52.822 9.633 2.883 4.113 2.052 6.398 6.047 2.296 3.999 2.297 10.582v12.34q0 9.984-6.469 15.34Q217.558 0 206.158 0m59.593 0h-18.223q-4.23 0-4.23-4.23v-76.172q0-4.23 4.23-4.23h18.223q4.228 0 4.23 4.23v27.035h4.7l12.105-27.387q1.651-3.878 5.882-3.879h18.094q4.229.001 2.59 3.88l-11.988 27.386q6.584.353 10.523 4.652 3.938 4.291 3.938 11.332V-4.23q0 4.23-4.242 4.23H293.49q-4.232 0-4.23-4.23v-22.922q0-3.995-3.762-3.996h-15.516V-4.23Q269.98 0 265.752 0m0 0" aria-label="DISK" style="fill:#0aff9f;fill-opacity:1;fill-rule:nonzero;stroke:none" transform="translate(503.81 931.737)scale(1.33333)"/><path d="M0 0q7.053 5.875 7.052 18.101v36.67q0 12.223-7.052 18.101-7.051 5.876-21.861 5.877h-39.61q-4.232 0-4.232-4.231V-1.646q0-4.231 4.232-4.231h39.61Q-7.051-5.877 0 0zm-25.035 56.3q5.523 0 5.524-5.642V22.097q0-5.76-5.524-5.76h-13.987V56.3Z" clip-path="url(#r)" style="fill:none;stroke:#000;stroke-width:3;stroke-linecap:butt;stroke-linejoin:miter;stroke-miterlimit:10;stroke-dasharray:none;stroke-opacity:1" transform="matrix(1.33333 0 0 -1.33333 602.226 923.901)"/><path d="M0 0q4.231 0 4.231 4.231v13.987q0 4.231-4.231 4.231h-11.401v39.492H0q4.231 0 4.231 4.232v14.222q0 4.231-4.231 4.231h-50.07q-4.233 0-4.232-4.231V66.173q0-4.232 4.232-4.232h11.635V22.449H-50.07q-4.233 0-4.232-4.231V4.231Q-54.302 0-50.07 0Z" clip-path="url(#s)" style="fill:none;stroke:#000;stroke-width:3;stroke-linecap:butt;stroke-linejoin:miter;stroke-miterlimit:10;stroke-dasharray:none;stroke-opacity:1" transform="matrix(1.33333 0 0 -1.33333 701.425 931.737)"/><path d="M0 0q6.464 5.347 6.465 15.339V27.68q0 6.581-2.292 10.578-2.292 3.994-6.406 6.054-4.116 2.055-9.638 2.879l-17.513 2.351q-3.174.35-3.173 3.761 0 3.525 3.173 3.526h27.386q4.231 0 4.231 4.232v13.986q0 4.231-4.231 4.231h-32.91q-11.402 0-17.865-5.289-6.466-5.29-6.465-15.397V46.251q0-9.874 4.995-14.046 4.995-4.173 13.223-5.466l17.63-2.468q1.527-.118 2.292-1.057.764-.942.765-2.939 0-1.412-.765-2.409-.765-1-2.292-1h-31.617q-4.231 0-4.231-4.23V-1.116q0-4.233 4.231-4.232h37.142Q-6.465-5.348 0 0Z" clip-path="url(#t)" style="fill:none;stroke:#000;stroke-width:3;stroke-linecap:butt;stroke-linejoin:miter;stroke-miterlimit:10;stroke-dasharray:none;stroke-opacity:1" transform="matrix(1.33333 0 0 -1.33333 802.505 924.607)"/><path d="M0 0v26.916h15.515q3.76-.001 3.761-3.997V0q0-4.231 4.231-4.231h18.101q4.231 0 4.231 4.231v33.146q0 7.05-3.937 11.341-3.94 4.29-10.52 4.643l11.989 27.386q1.645 3.879-2.586 3.879h-18.1q-4.232 0-5.877-3.879L4.702 49.13H0v27.033q0 4.232-4.231 4.232h-18.218q-4.232 0-4.232-4.232V0q0-4.231 4.232-4.231h18.218Q0-4.231 0 0Z" clip-path="url(#u)" style="fill:none;stroke:#000;stroke-width:3;stroke-linecap:butt;stroke-linejoin:miter;stroke-miterlimit:10;stroke-dasharray:none;stroke-opacity:1" transform="matrix(1.33333 0 0 -1.33333 863.78 926.095)"/><path d="M466.269 669.68h-51.944v127.138h51.944z" style="fill:#6842d5;fill-opacity:1;fill-rule:nonzero;stroke:none" transform="matrix(1.33333 0 0 -1.33333 0 1440)"/><path d="M0 0h-51.944l1.5-1.5v121.932c0 1.613.215 3.394 0 4.997-.009.068 0 .141 0 .209l-1.5-1.5H0l-1.5 1.5V14.106c0-5.118-.203-10.282 0-15.397.003-.069 0-.139 0-.209 0-1.93 3-1.934 3 0v111.533c0 5.117.203 10.282 0 15.396-.003.07 0 .14 0 .209 0 .811-.687 1.5-1.5 1.5h-51.944c-.811 0-1.5-.687-1.5-1.5V14.106c0-5.118-.203-10.282 0-15.397.003-.069 0-.139 0-.209 0-.811.688-1.5 1.5-1.5H0c1.93 0 1.934 3 0 3" clip-path="url(#v)" style="fill:#000;fill-opacity:1;fill-rule:nonzero;stroke:none" transform="matrix(1.33333 0 0 -1.33333 621.692 545.093)"/><path d="M589.944 672.154H451.428v133.569h138.516z" clip-path="url(#w)" style="fill:#ffe30d;fill-opacity:1;fill-rule:nonzero;stroke:none" transform="matrix(1.33333 0 0 -1.33333 0 1440)"/><path d="M0 0h-132.888c-1.751 0-3.65.209-5.392 0-.077-.009-.159 0-.236 0l1.5-1.5v128.127c0 1.691.212 3.539 0 5.221-.009.071 0 .149 0 .221l-1.5-1.5H-5.628c1.751 0 3.649-.209 5.392 0 .076.01.159 0 .236 0l-1.5 1.5V14.974c0-5.403-.205-10.852 0-16.253.003-.073 0-.147 0-.221 0-1.93 3-1.934 3 0v117.095c0 5.404.205 10.852 0 16.253-.003.074 0 .148 0 .221 0 .811-.687 1.5-1.5 1.5h-121.532c-5.569 0-11.181.202-16.748 0q-.119-.002-.236 0c-.811 0-1.5-.687-1.5-1.5V14.974c0-5.403-.205-10.852 0-16.253q.002-.11 0-.221c0-.811.687-1.5 1.5-1.5h121.531c5.57 0 11.182-.201 16.749 0 .078.003.157 0 .236 0 1.93 0 1.934 3 0 3" clip-path="url(#x)" style="fill:#000;fill-opacity:1;fill-rule:nonzero;stroke:none" transform="matrix(1.33333 0 0 -1.33333 786.592 541.795)"/><path d="m0 0 17.315.742L66.29-56.396l-.742-257.492-11.873-11.873-13.109.247z" clip-path="url(#y)" style="fill:#ff3342;fill-opacity:1;fill-rule:nonzero;stroke:none" transform="matrix(1.33333 0 0 -1.33333 843.318 365.702)"/><path d="m0 0 17.315.742-1.061.439 16.549-19.307 26.376-30.771 6.05-7.06-.439 1.061-.02-6.884-.054-18.735-.08-27.711-.097-33.811-.107-37.035-.108-37.384-.1-34.856-.085-29.454-.061-21.175c-.009-3.292-.313-6.738-.029-10.021.012-.14-.001-.286-.001-.426l.439 1.06L52.615-323.2l1.06.439-13.109.247 1.5-1.5-1.089 8.734-2.949 23.662-4.374 35.105-5.32 42.684-5.825 46.745-5.9 47.345-5.483 43.996-4.648 37.301-3.331 26.724C2.621-7.494 2.1-3.27 1.568.952L1.5 1.5c-.236 1.891-3.239 1.914-3 0l1.088-8.734 2.949-23.661 4.375-35.106 5.319-42.684 5.826-46.745 5.9-47.345 5.483-43.996 4.648-37.301 3.33-26.724c.527-4.223 1.048-8.447 1.579-12.67l.069-.548c.101-.817.605-1.483 1.5-1.5l10.358-.195c1.164-.022 2.836-.37 3.818.393.832.647 1.551 1.551 2.295 2.295l8.692 8.693c.717.716 1.287 1.298 1.32 2.336.203 6.325.037 12.684.055 19.011l.117 40.683.152 52.694.16 55.385.14 48.783.094 32.523.021 7.196c.002.739.047 1.21-.439 1.883-.643.892-1.458 1.701-2.173 2.536L34.021-14.951 20.645.655c-.721.841-1.416 1.923-2.265 2.642-.818.693-2.088.401-3.079.359l-5.995-.257L0 3c-1.923-.082-1.934-3.083 0-3" clip-path="url(#z)" style="fill:#000;fill-opacity:1;fill-rule:nonzero;stroke:none" transform="matrix(1.33333 0 0 -1.33333 843.318 367.702)"/><path d="m0 0-34.629-.989-7.915-12.863 1.978-296.821 11.873-7.915h276.044l11.873 12.862-1.979 251.309-50.46 61.343h-52.438l-1.374-129.612-153.358-1.979z" clip-path="url(#A)" style="fill:#ff8fdd;fill-opacity:1;fill-rule:nonzero;stroke:none" transform="matrix(1.33333 0 0 -1.33333 567.604 374.937)"/><path d="m0 0-28.597-.817c-1.794-.051-3.59-.085-5.383-.154-.409-.016-.846.018-1.227-.148-.648-.28-.982-1.043-1.335-1.618l-4.429-7.197-2.045-3.323c-.319-.517-.809-1.097-.975-1.696-.163-.589-.047-1.331-.043-1.928l.03-4.562.114-16.992.17-25.511.213-32 .241-36.139.253-38.022.251-37.647.233-34.876.201-30.152.153-23.017.091-13.624c.006-.849-.059-1.733.017-2.58.07-.772.44-1.248 1.069-1.681 2.117-1.459 4.28-2.854 6.419-4.28 1.639-1.092 3.331-2.579 5.121-3.414.42-.196.707-.197 1.119-.21 1.069-.034 2.145 0 3.215 0h264.307c2.641 0 5.443-.269 8.075 0 .961.098 1.366.669 1.973 1.327l5.447 5.901 5.154 5.583c.478.518.831.983.89 1.712.248 3.018-.048 6.183-.072 9.207l-.166 21.108-.234 29.725-.28 35.465-.298 37.952-.294 37.297-.264 33.5-.208 26.466-.13 16.527c-.01 1.169.014 2.344-.028 3.513-.039 1.078-.678 1.734-1.338 2.537l-16.807 20.432-23.064 28.039-7.647 9.296c-.951 1.157-1.822 2.873-3.451 2.927-9.468.313-18.999 0-28.471 0h-23.623c-.817 0-1.491-.688-1.5-1.5l-.137-12.943-.328-30.909-.396-37.374-.344-32.451-.113-10.612c-.017-1.604-.324-3.509-.054-5.098.012-.07-.001-.153-.002-.225l1.5 1.5-15.248-.197-36.619-.472-44.305-.572-38.305-.494-12.625-.163c-1.905-.025-4.111.256-5.994-.077-.082-.015-.178-.003-.262-.004l1.5-1.5.038 12.347.092 29.825.111 35.942.097 31.216.031 10.242c.005 1.61.126 3.268.015 4.875-.005.072.001.146.001.218.006 1.931-2.994 1.933-3 0l-.038-12.347-.092-29.825-.111-35.942-.096-31.216-.032-10.242c-.005-1.61-.126-3.268-.015-4.875.005-.072-.001-.146-.001-.218-.002-.803.689-1.51 1.5-1.5l15.248.197 36.619.472 44.305.572 38.305.494c6.191.08 12.433-.063 18.619.241.087.004.175.002.262.003a1.526 1.526 0 0 1 1.5 1.5l.137 12.943.328 30.909.396 37.374.344 32.451.112 10.612c.017 1.604.324 3.509.055 5.098-.012.07.001.153.002.225l-1.5-1.5h52.438l-1.06.439 17.012-20.682 27.229-33.101 6.218-7.56-.439 1.061.053-6.701.144-18.342.213-27.015.259-32.951.284-36.093.289-36.597.267-33.973.226-28.717.163-20.666c.025-3.225-.254-6.623.077-9.836.014-.136.003-.28.004-.418l.439 1.061-11.873-12.862 1.061.439H-24.083c-1.358 0-2.738.07-4.095 0-1.063-.054.242.13.222-.191.015.228-1.96 1.306-2.147 1.431l-4.039 2.693-5.666 3.778.742-1.296-.058 8.75-.158 23.677-.23 34.606-.279 41.778-.302 45.294-.299 44.814-.269 40.343-.214 32.217-.136 20.319c-.01 1.479.041 2.973-.03 4.45-.055 1.15.112-.198-.203-.176.202-.014 1.181 1.919 1.296 2.106l2.826 4.593 3.788 6.155-1.295-.742 30.271.864L0-3c1.926.055 1.934 3.055 0 3" clip-path="url(#B)" style="fill:#000;fill-opacity:1;fill-rule:nonzero;stroke:none" transform="matrix(1.33333 0 0 -1.33333 567.604 372.937)"/><path d="m0 0 12.58-.074 30.199-.178 36.262-.213 31.57-.186c5.093-.03 10.236-.271 15.327-.09.07.003.141-.001.211-.001 1.931-.011 1.933 2.989 0 3l-12.58.074-30.199.178-36.262.213-31.57.186c-5.093.03-10.236.271-15.327.09C.141 2.996.07 3 0 3c-1.931.011-1.933-2.989 0-3" clip-path="url(#C)" style="fill:#000;fill-opacity:1;fill-rule:nonzero;stroke:none" transform="matrix(1.33333 0 0 -1.33333 602.893 492.367)"/><path d="M558.531 687.737H514.75v105.371h43.781z" clip-path="url(#D)" style="fill:#3bb4fb;fill-opacity:1;fill-rule:nonzero;stroke:none" transform="matrix(1.33333 0 0 -1.33333 0 1440)"/><path d="M0 0h-43.781l1.5-1.5V99.573c0 1.328.176 2.793 0 4.112-.008.06 0 .126 0 .186l-1.5-1.5H0l-1.5 1.5v-92.36c0-4.261-.175-8.565 0-12.824.003-.062 0-.125 0-.187 0-1.93 3-1.934 3 0v92.36c0 4.262.175 8.566 0 12.825-.003.062 0 .124 0 .186 0 .811-.687 1.5-1.5 1.5h-43.781c-.811 0-1.5-.687-1.5-1.5v-92.36c0-4.261-.175-8.565 0-12.824q.002-.093 0-.187c0-.811.687-1.5 1.5-1.5H0c1.93 0 1.934 3 0 3" clip-path="url(#E)" style="fill:#000;fill-opacity:1;fill-rule:nonzero;stroke:none" transform="matrix(1.33333 0 0 -1.33333 744.708 521.017)"/><path d="M652.029 480.704h-224.1v118.728h224.1z" clip-path="url(#F)" style="fill:#feffff;fill-opacity:1;fill-rule:nonzero;stroke:none" transform="matrix(1.33333 0 0 -1.33333 0 1440)"/><path d="M0 0h-215.024c-2.869 0-5.838.222-8.701 0-.124-.01-.251 0-.375 0l1.5-1.5v113.857c0 1.507.202 3.174 0 4.672-.009.064 0 .135 0 .199l-1.5-1.5H-9.076c2.869 0 5.839-.222 8.701 0 .124.01.251 0 .375 0l-1.5 1.5V13.064c0-4.774-.193-9.594 0-14.365.003-.066 0-.133 0-.199 0-1.93 3-1.934 3 0v104.165c0 4.774.193 9.593 0 14.364-.003.066 0 .133 0 .199 0 .811-.687 1.5-1.5 1.5h-215.024c-2.897 0-5.804.069-8.701 0-.125-.003-.25 0-.375 0-.811 0-1.5-.687-1.5-1.5V13.064c0-4.774-.193-9.594 0-14.365.003-.066 0-.133 0-.199 0-.811.687-1.5 1.5-1.5H-9.076c2.897 0 5.804-.068 8.701 0 .125.003.25 0 .375 0 1.93 0 1.934 3 0 3" clip-path="url(#G)" style="fill:#000;fill-opacity:1;fill-rule:nonzero;stroke:none" transform="matrix(1.33333 0 0 -1.33333 869.373 797.06)"/><path d="M0 0h215.694c2.922 0 5.853-.069 8.775 0 .124.003.249 0 .373 0 1.93 0 1.933 3 0 3H9.148C6.226 3 3.295 3.069.373 3 .249 2.997.124 3 0 3c-1.93 0-1.934-3 0-3" clip-path="url(#H)" style="fill:#000;fill-opacity:1;fill-rule:nonzero;stroke:none" transform="matrix(1.33333 0 0 -1.33333 569.583 670.46)"/><path d="M0 0h215.694c2.922 0 5.853-.069 8.775 0 .124.003.249 0 .373 0 1.93 0 1.933 3 0 3H9.148C6.226 3 3.295 3.069.373 3 .249 2.997.124 3 0 3c-1.93 0-1.934-3 0-3" clip-path="url(#I)" style="fill:#000;fill-opacity:1;fill-rule:nonzero;stroke:none" transform="matrix(1.33333 0 0 -1.33333 569.583 697.851)"/><path d="M0 0h215.694c2.922 0 5.853-.069 8.775 0 .124.003.249 0 .373 0 1.93 0 1.933 3 0 3H9.148C6.226 3 3.295 3.069.373 3 .249 2.997.124 3 0 3c-1.93 0-1.934-3 0-3" clip-path="url(#J)" style="fill:#000;fill-opacity:1;fill-rule:nonzero;stroke:none" transform="matrix(1.33333 0 0 -1.33333 569.583 725.243)"/><path d="M0 0h215.694c2.922 0 5.853-.069 8.775 0 .124.003.249 0 .373 0 1.93 0 1.933 3 0 3H9.148C6.226 3 3.295 3.069.373 3 .249 2.997.124 3 0 3c-1.93 0-1.934-3 0-3" clip-path="url(#K)" style="fill:#000;fill-opacity:1;fill-rule:nonzero;stroke:none" transform="matrix(1.33333 0 0 -1.33333 569.583 752.635)"/><path d="M0 0h215.694c2.922 0 5.853-.069 8.775 0 .124.003.249 0 .373 0 1.93 0 1.933 3 0 3H9.148C6.226 3 3.295 3.069.373 3 .249 2.997.124 3 0 3c-1.93 0-1.934-3 0-3" clip-path="url(#L)" style="fill:#000;fill-opacity:1;fill-rule:nonzero;stroke:none" transform="matrix(1.33333 0 0 -1.33333 569.583 780.027)"/><path d="M0 0c0-5.533-4.485-10.018-10.018-10.018-5.532 0-10.017 4.485-10.017 10.018s4.485 10.018 10.017 10.018C-4.485 10.018 0 5.533 0 0" clip-path="url(#M)" style="fill:#ffe30d;fill-opacity:1;fill-rule:nonzero;stroke:none" transform="matrix(1.33333 0 0 -1.33333 597.287 619.484)"/><path d="M0 0c-.048-3.524-2.216-6.789-5.574-7.999-3.416-1.231-7.288-.17-9.582 2.65-2.229 2.739-2.476 6.704-.672 9.723 1.787 2.99 5.387 4.675 8.831 4.014C-2.951 7.611-.056 4.106 0 0c.026-1.929 3.027-1.934 3 0-.066 4.814-3.021 9.086-7.527 10.8-4.473 1.701-9.805.27-12.833-3.431-3.053-3.732-3.552-9.085-1.058-13.257 2.488-4.164 7.344-6.27 12.085-5.417C-.927-10.332 2.926-5.404 3 0 3.026 1.931.026 1.932 0 0" clip-path="url(#N)" style="fill:#000;fill-opacity:1;fill-rule:nonzero;stroke:none" transform="matrix(1.33333 0 0 -1.33333 595.287 619.484)"/><path d="M0 0c0-5.533-4.485-10.018-10.018-10.018-5.532 0-10.017 4.485-10.017 10.018s4.485 10.018 10.017 10.018C-4.485 10.018 0 5.533 0 0" clip-path="url(#O)" style="fill:#ffe30d;fill-opacity:1;fill-rule:nonzero;stroke:none" transform="matrix(1.33333 0 0 -1.33333 866.99 619.484)"/><path d="M0 0c-.048-3.524-2.216-6.789-5.574-7.999-3.416-1.231-7.288-.17-9.582 2.65-2.229 2.739-2.476 6.704-.672 9.723 1.787 2.99 5.387 4.675 8.831 4.014C-2.951 7.611-.056 4.106 0 0c.026-1.929 3.027-1.934 3 0-.066 4.814-3.021 9.086-7.527 10.8-4.473 1.701-9.805.27-12.833-3.431-3.053-3.732-3.552-9.085-1.058-13.257 2.488-4.164 7.344-6.27 12.085-5.417C-.927-10.332 2.926-5.404 3 0 3.026 1.931.026 1.932 0 0" clip-path="url(#P)" style="fill:#000;fill-opacity:1;fill-rule:nonzero;stroke:none" transform="matrix(1.33333 0 0 -1.33333 864.99 619.484)"/><path d="M0 0c0-17.476-16.829-31.643-37.589-31.643S-75.178-17.476-75.178 0s16.829 31.643 37.589 31.643S0 17.476 0 0" clip-path="url(#Q)" style="fill:#feffff;fill-opacity:1;fill-rule:nonzero;stroke:none" transform="matrix(1.33333 0 0 -1.33333 725.21 547.1)"/><path d="M0 0c-.081-13.797-11.029-24.43-23.617-28.292-13.7-4.203-29.983-1.28-40.261 9.067-4.484 4.515-7.624 10.443-8.194 16.835-.575 6.466 1.344 12.79 5.126 18.033 8.374 11.611 24.175 16.253 37.899 13.933C-15.891 27.352-3.036 18.395-.421 4.642-.129 3.109-.009 1.559 0 0c.011-1.93 3.011-1.934 3 0-.089 15.088-11.851 26.841-25.649 31.133-14.835 4.614-32.553 1.295-43.576-10.017-4.913-5.041-8.167-11.531-8.833-18.568-.66-6.974 1.439-14.045 5.521-19.705 9.234-12.802 26.116-17.871 41.287-15.312C-14.051-30.074-.115-19.971 2.529-5.131 2.831-3.436 2.99-1.721 3 0 3.011 1.931.011 1.933 0 0" clip-path="url(#R)" style="fill:#000;fill-opacity:1;fill-rule:nonzero;stroke:none" transform="matrix(1.33333 0 0 -1.33333 723.21 547.1)"/><path d="M0 0c0-12.55-10.907-22.723-24.361-22.723S-48.722-12.55-48.722 0s10.907 22.723 24.361 22.723S0 12.55 0 0" clip-path="url(#S)" style="fill:#000;fill-opacity:1;fill-rule:nonzero;stroke:none" transform="matrix(1.33333 0 0 -1.33333 707.492 542.57)"/><path d="M0 0c0-3.695-2.852-6.69-6.371-6.69S-12.742-3.695-12.742 0s2.852 6.69 6.371 6.69S0 3.695 0 0" clip-path="url(#T)" style="fill:#feffff;fill-opacity:1;fill-rule:nonzero;stroke:none" transform="matrix(1.33333 0 0 -1.33333 699.16 550.073)"/><path d="M0 0c0-2.639-2.037-4.778-4.551-4.778-2.513 0-4.55 2.139-4.55 4.778s2.037 4.778 4.55 4.778S0 2.639 0 0" clip-path="url(#U)" style="fill:#feffff;fill-opacity:1;fill-rule:nonzero;stroke:none" transform="matrix(1.33333 0 0 -1.33333 675.052 556.869)"/><path d="M545.607 675.834h-81.549v34.828h81.549z" clip-path="url(#V)" style="fill:#0aff9f;fill-opacity:1;fill-rule:nonzero;stroke:none" transform="matrix(1.33333 0 0 -1.33333 0 1440)"/><path d="M0 0h-81.549l1.5-1.5v34.828l-1.5-1.5H0l-1.5 1.5V-1.5c0-1.93 3-1.934 3 0v34.828c0 .811-.687 1.5-1.5 1.5h-81.549c-.811 0-1.5-.687-1.5-1.5V-1.5c0-.811.688-1.5 1.5-1.5H0c1.93 0 1.934 3 0 3" clip-path="url(#W)" style="fill:#000;fill-opacity:1;fill-rule:nonzero;stroke:none" transform="matrix(1.33333 0 0 -1.33333 727.476 536.889)"/><path d="M0 0c-.081-13.797-11.029-24.43-23.617-28.292-13.7-4.203-29.983-1.28-40.261 9.067-4.484 4.515-7.624 10.443-8.194 16.835-.575 6.466 1.344 12.79 5.126 18.033 8.374 11.611 24.175 16.253 37.899 13.933C-15.891 27.352-3.036 18.395-.421 4.642-.129 3.109-.009 1.559 0 0c.011-1.93 3.011-1.934 3 0-.089 15.088-11.851 26.841-25.649 31.133-14.835 4.614-32.553 1.295-43.576-10.017-4.913-5.041-8.167-11.531-8.833-18.568-.66-6.974 1.439-14.045 5.521-19.705 9.234-12.802 26.116-17.871 41.287-15.312C-14.051-30.074-.115-19.971 2.529-5.131 2.831-3.436 2.99-1.721 3 0 3.011 1.931.011 1.933 0 0" clip-path="url(#X)" style="fill:#000;fill-opacity:1;fill-rule:nonzero;stroke:none" transform="matrix(1.33333 0 0 -1.33333 723.21 547.1)"/><path d="M0 0c0-17.476-16.829-31.643-37.589-31.643S-75.178-17.476-75.178 0s16.829 31.643 37.589 31.643S0 17.476 0 0" clip-path="url(#Y)" style="fill:#feffff;fill-opacity:1;fill-rule:nonzero;stroke:none" transform="matrix(1.33333 0 0 -1.33333 812.647 547.1)"/><path d="M0 0c-.081-13.797-11.028-24.43-23.616-28.292-13.701-4.203-29.984-1.28-40.262 9.067-4.484 4.515-7.624 10.443-8.194 16.835-.575 6.466 1.344 12.79 5.126 18.033 8.374 11.611 24.175 16.253 37.899 13.933C-15.89 27.352-3.036 18.395-.421 4.642-.129 3.109-.009 1.559 0 0c.011-1.93 3.011-1.934 3 0-.089 15.088-11.851 26.841-25.649 31.133-14.835 4.614-32.553 1.295-43.576-10.017-4.913-5.041-8.166-11.531-8.833-18.568-.66-6.974 1.439-14.045 5.521-19.705 9.234-12.802 26.116-17.871 41.287-15.312C-14.051-30.074-.115-19.971 2.529-5.131 2.831-3.436 2.99-1.721 3 0 3.011 1.931.011 1.933 0 0" clip-path="url(#Z)" style="fill:#000;fill-opacity:1;fill-rule:nonzero;stroke:none" transform="matrix(1.33333 0 0 -1.33333 810.647 547.1)"/><path d="M0 0c0-12.55-10.907-22.723-24.361-22.723S-48.722-12.55-48.722 0s10.907 22.723 24.361 22.723S0 12.55 0 0" clip-path="url(#aa)" style="fill:#000;fill-opacity:1;fill-rule:nonzero;stroke:none" transform="matrix(1.33333 0 0 -1.33333 794.928 542.57)"/><path d="M0 0c0-3.695-2.852-6.69-6.371-6.69S-12.742-3.695-12.742 0s2.852 6.69 6.371 6.69S0 3.695 0 0" clip-path="url(#ab)" style="fill:#feffff;fill-opacity:1;fill-rule:nonzero;stroke:none" transform="matrix(1.33333 0 0 -1.33333 786.596 550.073)"/><path d="M0 0c0-2.639-2.037-4.778-4.551-4.778-2.513 0-4.55 2.139-4.55 4.778s2.037 4.778 4.55 4.778S0 2.639 0 0" clip-path="url(#ac)" style="fill:#feffff;fill-opacity:1;fill-rule:nonzero;stroke:none" transform="matrix(1.33333 0 0 -1.33333 762.488 556.869)"/><path d="M611.184 675.834h-81.549v34.828h81.549z" clip-path="url(#ad)" style="fill:#0aff9f;fill-opacity:1;fill-rule:nonzero;stroke:none" transform="matrix(1.33333 0 0 -1.33333 0 1440)"/><path d="M0 0h-81.549l1.5-1.5v34.828l-1.5-1.5H0l-1.5 1.5V-1.5c0-1.93 3-1.934 3 0v34.828c0 .811-.687 1.5-1.5 1.5h-81.549c-.81 0-1.5-.687-1.5-1.5V-1.5c0-.811.688-1.5 1.5-1.5H0c1.93 0 1.934 3 0 3" clip-path="url(#ae)" style="fill:#000;fill-opacity:1;fill-rule:nonzero;stroke:none" transform="matrix(1.33333 0 0 -1.33333 814.912 536.889)"/><path d="M0 0c-.081-13.797-11.028-24.43-23.616-28.292-13.701-4.203-29.984-1.28-40.262 9.067-4.484 4.515-7.624 10.443-8.194 16.835-.575 6.466 1.344 12.79 5.126 18.033 8.374 11.611 24.175 16.253 37.899 13.933C-15.89 27.352-3.036 18.395-.421 4.642-.129 3.109-.009 1.559 0 0c.011-1.93 3.011-1.934 3 0-.089 15.088-11.851 26.841-25.649 31.133-14.835 4.614-32.553 1.295-43.576-10.017-4.913-5.041-8.166-11.531-8.833-18.568-.66-6.974 1.439-14.045 5.521-19.705 9.234-12.802 26.116-17.871 41.287-15.312C-14.051-30.074-.115-19.971 2.529-5.131 2.831-3.436 2.99-1.721 3 0 3.011 1.931.011 1.933 0 0" clip-path="url(#af)" style="fill:#000;fill-opacity:1;fill-rule:nonzero;stroke:none" transform="matrix(1.33333 0 0 -1.33333 810.647 547.1)"/><path d="M0 0c0-6.543-7.65-11.847-17.088-11.847-9.437 0-17.087 5.304-17.087 11.847s7.65 11.847 17.087 11.847C-7.65 11.847 0 6.543 0 0" clip-path="url(#ag)" style="fill:#ff3342;fill-opacity:1;fill-rule:nonzero;stroke:none" transform="matrix(1.33333 0 0 -1.33333 738.739 579.046)"/><path d="M0 0c-.092-5.411-5.679-8.604-10.328-9.735-5.721-1.392-12.797-.61-17.43 3.298-1.691 1.426-3.101 3.34-3.374 5.591-.282 2.318.689 4.542 2.251 6.216 4.043 4.333 10.829 5.567 16.483 4.769C-7.146 9.399-.105 6.18 0 0c.033-1.928 3.033-1.934 3 0-.113 6.663-6.269 10.995-12.166 12.536-6.909 1.805-15.151.739-20.713-3.978-4.765-4.04-5.674-10.604-1.619-15.483 4.565-5.492 12.749-7.098 19.51-6.161C-5.177-12.143 2.868-7.772 3 0 3.033 1.931.033 1.932 0 0" clip-path="url(#ah)" style="fill:#000;fill-opacity:1;fill-rule:nonzero;stroke:none" transform="matrix(1.33333 0 0 -1.33333 736.739 579.046)"/><path d="M0 0c0-2.013-2.354-3.645-5.258-3.645S-10.516-2.013-10.516 0s2.354 3.645 5.258 3.645S0 2.013 0 0" clip-path="url(#ai)" style="fill:#feffff;fill-opacity:1;fill-rule:nonzero;stroke:none" transform="matrix(1.33333 0 0 -1.33333 716.586 575.097)"/><path d="M0 0q-.004-.117-.011-.235c.019.345.016.098-.016-.003-.023-.071-.056-.15-.067-.223-.028-.183.136.176.015.034-.11-.128-.179-.321-.281-.462.187.259-.202-.192-.272-.256a4 4 0 0 0-.199-.171c.056.045.214.135-.022-.005-.161-.095-.315-.199-.48-.286a7 7 0 0 0-.259-.128c.21.099-.011-.007-.05-.021a7 7 0 0 0-.73-.228c-.73-.182-1.776-.209-2.463-.069-.399.08-.804.19-1.178.352.216-.094-.008.01-.041.028-.084.046-.17.087-.253.134q-.15.087-.297.18c-.092.057-.249.177-.08.043-.153.121-.289.259-.427.396-.032.032-.205.235-.085.086.118-.146-.038.056-.062.096-.068.111-.236.547-.144.222-.021.075-.051.147-.072.222-.027.098-.051.431-.031.059-.008.158 0 .312 0 .47-.001-.355.034.04.064.17.059.251.009.029-.021-.031.045.089.089.176.14.262q.063.102.132.203c.088.134-.163-.155.036.035.141.134.27.273.419.4.174.147-.18-.117.017.008.097.062.191.128.29.187.163.098.332.184.504.266-.058-.028-.238-.085.05.021a8 8 0 0 0 .431.146c.852.256 1.537.319 2.522.197-.222.028.111-.021.162-.031a6.3 6.3 0 0 0 1.117-.312c.289-.105.109-.049.05-.021a6 6 0 0 0 .623-.339c.023-.014.38-.272.138-.08.17-.135.313-.293.47-.442C-.315.83-.187.65-.36.889q.107-.147.197-.305c.04-.068.074-.139.11-.21C-.142.55-.099.513-.058.35L.011.067C-.047.312-.004.178 0 0c.019-.81.676-1.5 1.5-1.5.799 0 1.519.686 1.5 1.5C2.942 2.549.741 4.3-1.575 4.877c-2.499.622-5.347.178-7.332-1.524-1.895-1.625-2.081-4.314-.491-6.205 1.67-1.986 4.588-2.533 7.038-2.174C.234-4.646 2.935-2.859 3 0c.019.81-.703 1.5-1.5 1.5C.672 1.5.019.813 0 0" clip-path="url(#aj)" style="fill:#000;fill-opacity:1;fill-rule:nonzero;stroke:none" transform="matrix(1.33333 0 0 -1.33333 714.586 575.097)"/><path d="M0 0c0-9.016-7.309-16.325-16.325-16.325S-32.65-9.016-32.65 0s7.309 16.325 16.325 16.325S0 9.016 0 0" clip-path="url(#ak)" style="fill:#000;fill-opacity:1;fill-rule:nonzero;stroke:none" transform="matrix(1.33333 0 0 -1.33333 751.752 626.978)"/><path d="M0 0c0-9.016-7.309-16.325-16.325-16.325S-32.65-9.016-32.65 0s7.309 16.325 16.325 16.325S0 9.016 0 0" clip-path="url(#al)" style="fill:#0aff9f;fill-opacity:1;fill-rule:nonzero;stroke:none" transform="matrix(1.33333 0 0 -1.33333 748.38 623.607)"/><path d="M0 0c-.065-6.131-3.884-11.834-9.719-13.926-5.91-2.119-12.567-.307-16.578 4.524-3.939 4.745-4.414 11.7-1.274 16.979 3.156 5.305 9.52 8.204 15.595 6.978C-5.044 13.155-.074 7.045 0 0c.02-1.929 3.02-1.934 3 0-.079 7.477-4.74 14.165-11.765 16.763-6.925 2.561-15.075.331-19.756-5.366-4.732-5.758-5.471-14.048-1.64-20.488 3.844-6.463 11.457-9.797 18.817-8.39C-3.041-15.894 2.912-8.356 3 0 3.02 1.931.02 1.932 0 0" clip-path="url(#am)" style="fill:#000;fill-opacity:1;fill-rule:nonzero;stroke:none" transform="matrix(1.33333 0 0 -1.33333 746.38 623.607)"/><path d="M0 0a6.572 6.572 0 1 0-13.144 0A6.572 6.572 0 0 0 0 0" clip-path="url(#an)" style="fill:#000;fill-opacity:1;fill-rule:nonzero;stroke:none" transform="matrix(1.33333 0 0 -1.33333 735.377 623.607)"/><path d="M0 0a7.173 7.173 0 0 0-7.173 7.173v98.446a7.173 7.173 0 0 0 14.346 0V7.173A7.173 7.173 0 0 0 0 0" clip-path="url(#ao)" style="fill:#feffff;fill-opacity:1;fill-rule:nonzero;stroke:none" transform="matrix(1.33333 0 0 -1.33333 889.16 600.52)"/><path d="M0 0c-3.147 0-5.614 2.583-5.673 5.681-.006.319 0 .64 0 .96v95.444c0 2.035-.106 3.993 1.331 5.689 2.209 2.607 6.295 2.663 8.577.122 1.03-1.146 1.43-2.569 1.438-4.076.009-1.62 0-3.241 0-4.861V17.782c0-4.031.078-8.071 0-12.101C5.613 2.527 3.146.075 0 0c-1.927-.046-1.934-3.046 0-3 5.144.122 8.673 4.23 8.673 9.228v96.567c0 .423.007.847 0 1.27-.049 2.918-1.417 5.593-3.838 7.251-3.094 2.119-7.323 1.882-10.236-.425-2.11-1.671-3.23-4.188-3.272-6.856-.023-1.422 0-2.847 0-4.27V8.201c0-1.873-.126-3.78.555-5.566C-6.845-.707-3.591-3 0-3c1.93 0 1.934 3 0 3" clip-path="url(#ap)" style="fill:#000;fill-opacity:1;fill-rule:nonzero;stroke:none" transform="matrix(1.33333 0 0 -1.33333 889.16 598.52)"/><path d="M0 0a7.173 7.173 0 0 0-7.173 7.173v5.442A7.17 7.17 0 0 0 0 19.788a7.17 7.17 0 0 0 7.173-7.173V7.173A7.173 7.173 0 0 0 0 0" clip-path="url(#aq)" style="fill:#feffff;fill-opacity:1;fill-rule:nonzero;stroke:none" transform="matrix(1.33333 0 0 -1.33333 889.16 640.097)"/><path d="M0 0c-1.756 0-3.46.83-4.524 2.235-.892 1.178-1.149 2.517-1.149 3.955v4.001c0 1.259.045 2.456.67 3.6 1.829 3.346 6.447 3.998 9.104 1.244 2.037-2.11 1.572-5.181 1.572-7.863 0-1.404.055-2.767-.608-4.061C4.082 1.19 2.14.04 0 0c-1.928-.036-1.934-3.036 0-3 4.963.093 8.66 4.076 8.673 8.975.009 3.361.513 7.199-1.558 10.092-3.068 4.285-9.328 4.966-13.157 1.271-1.706-1.648-2.601-3.927-2.631-6.281-.018-1.434 0-2.87 0-4.305 0-2.11.249-4.134 1.485-5.925C-5.562-1.53-2.879-3 0-3c1.93 0 1.934 3 0 3" clip-path="url(#ar)" style="fill:#000;fill-opacity:1;fill-rule:nonzero;stroke:none" transform="matrix(1.33333 0 0 -1.33333 889.16 638.097)"/><path d="M0 0a7.173 7.173 0 0 0-7.173 7.173v98.446a7.173 7.173 0 0 0 14.346 0V7.173A7.173 7.173 0 0 0 0 0" clip-path="url(#as)" style="fill:#feffff;fill-opacity:1;fill-rule:nonzero;stroke:none" transform="matrix(1.33333 0 0 -1.33333 537.274 781.568)"/><path d="M0 0c-3.147 0-5.614 2.583-5.673 5.681-.006.319 0 .64 0 .96v95.444c0 2.035-.106 3.993 1.331 5.689 2.209 2.607 6.295 2.663 8.577.122 1.03-1.146 1.43-2.569 1.438-4.076.009-1.62 0-3.241 0-4.861V17.782c0-4.031.078-8.071 0-12.101C5.613 2.527 3.146.075 0 0c-1.927-.046-1.934-3.046 0-3 5.144.122 8.673 4.23 8.673 9.228v96.567c0 .423.007.847 0 1.27-.049 2.918-1.417 5.593-3.838 7.251-3.094 2.119-7.323 1.882-10.236-.425-2.11-1.671-3.23-4.188-3.272-6.856-.023-1.422 0-2.847 0-4.27V8.201c0-1.873-.126-3.78.555-5.566C-6.845-.707-3.591-3 0-3c1.93 0 1.934 3 0 3" clip-path="url(#at)" style="fill:#000;fill-opacity:1;fill-rule:nonzero;stroke:none" transform="matrix(1.33333 0 0 -1.33333 537.274 779.568)"/></svg>