<svg xmlns="http://www.w3.org/2000/svg" width="1440" height="1440" viewBox="0 0 1440 1440"><defs><clipPath id="a" clipPathUnits="userSpaceOnUse"><path d="M-340.823 787.684h1080v-1080h-1080Z"/></clipPath><clipPath id="b" clipPathUnits="userSpaceOnUse"><path d="M-342.323 787.684h1080v-1080h-1080Z"/></clipPath><clipPath id="c" clipPathUnits="userSpaceOnUse"><path d="M-655.527 592.318h1080v-1080h-1080Z"/></clipPath><clipPath id="d" clipPathUnits="userSpaceOnUse"><path d="M-654.027 592.318h1080v-1080h-1080Z"/></clipPath><clipPath id="e" clipPathUnits="userSpaceOnUse"><path d="M-402.604 743.786h1080v-1080h-1080Z"/></clipPath><clipPath id="f" clipPathUnits="userSpaceOnUse"><path d="M-514.003 699.334h1080v-1080h-1080Z"/></clipPath><clipPath id="g" clipPathUnits="userSpaceOnUse"><path d="M-580.591 685.477h1080v-1080h-1080Z"/></clipPath><clipPath id="h" clipPathUnits="userSpaceOnUse"><path d="M-636.29 742.93h1080v-1080h-1080Z"/></clipPath><clipPath id="i" clipPathUnits="userSpaceOnUse"><path d="M-699.278 743.786h1080v-1080h-1080Z"/></clipPath><clipPath id="j" clipPathUnits="userSpaceOnUse"><path d="M-600.408 303.387h1080v-1080h-1080Z"/></clipPath><clipPath id="k" clipPathUnits="userSpaceOnUse"><path d="M-620.996 292.06h1080v-1080h-1080Z"/></clipPath><clipPath id="l" clipPathUnits="userSpaceOnUse"><path d="M-599.65 302.091h1080v-1080h-1080Z"/></clipPath><clipPath id="m" clipPathUnits="userSpaceOnUse"><path d="M-691.137 490.305h1080v-1080h-1080Z"/></clipPath><clipPath id="n" clipPathUnits="userSpaceOnUse"><path d="M-689.69 489.906h1080v-1080h-1080Z"/></clipPath><clipPath id="o" clipPathUnits="userSpaceOnUse"><path d="M0 1080h1080V0H0Z"/></clipPath><clipPath id="p" clipPathUnits="userSpaceOnUse"><path d="M-554.963 384.573h1080v-1080h-1080Z"/></clipPath><clipPath id="q" clipPathUnits="userSpaceOnUse"><path d="M-644.702 498.595h1080v-1080h-1080Z"/></clipPath><clipPath id="r" clipPathUnits="userSpaceOnUse"><path d="M-643.202 498.595h1080v-1080h-1080Z"/></clipPath><clipPath id="s" clipPathUnits="userSpaceOnUse"><path d="M425.945 581.405c0-81.1 48.971-146.845 109.379-146.845s109.378 65.745 109.378 146.845c0 81.101-48.97 146.846-109.378 146.846s-109.379-65.745-109.379-146.846"/></clipPath><clipPath id="t" clipPathUnits="userSpaceOnUse"><path d="M-264.684-29.903c0-81.1 48.97-146.845 109.379-146.845 60.408 0 109.378 65.745 109.378 146.845 0 81.101-48.97 146.846-109.378 146.846s-109.38-65.745-109.38-146.846"/></clipPath><clipPath id="u" clipPathUnits="userSpaceOnUse"><path d="M425.945 581.405c0-81.1 48.971-146.845 109.379-146.845s109.378 65.745 109.378 146.845c0 81.101-48.97 146.846-109.378 146.846s-109.379-65.745-109.379-146.846"/></clipPath><clipPath id="v" clipPathUnits="userSpaceOnUse"><path d="M-243.635-29.903c0-81.1 48.971-146.845 109.38-146.845 60.407 0 109.377 65.745 109.377 146.845 0 81.101-48.97 146.846-109.378 146.846S-243.635 51.198-243.635-29.903"/></clipPath><clipPath id="w" clipPathUnits="userSpaceOnUse"><path d="M-643.202 498.595h1080v-1080h-1080Z"/></clipPath><clipPath id="x" clipPathUnits="userSpaceOnUse"><path d="M-537.74 508.868h1080v-1080h-1080Z"/></clipPath><clipPath id="y" clipPathUnits="userSpaceOnUse"><path d="M-537.74 507.368h1080v-1080h-1080Z"/></clipPath><clipPath id="z" clipPathUnits="userSpaceOnUse"><path d="M-537.74 495.875h1080v-1080h-1080Z"/></clipPath><clipPath id="A" clipPathUnits="userSpaceOnUse"><path d="M-537.74 494.375h1080v-1080h-1080Z"/></clipPath><clipPath id="B" clipPathUnits="userSpaceOnUse"><path d="M-460.266 542.851h1080v-1080h-1080Z"/></clipPath><clipPath id="C" clipPathUnits="userSpaceOnUse"><path d="M-458.82 543.25h1080v-1080h-1080Z"/></clipPath><clipPath id="D" clipPathUnits="userSpaceOnUse"><path d="M-604.643 436.347h1080v-1080h-1080Z"/></clipPath><clipPath id="E" clipPathUnits="userSpaceOnUse"><path d="M-606.09 435.949h1080v-1080h-1080Z"/></clipPath><clipPath id="F" clipPathUnits="userSpaceOnUse"><path d="M-583.539 270.086h1080v-1080h-1080Z"/></clipPath><clipPath id="G" clipPathUnits="userSpaceOnUse"><path d="M-542.015 548.462h1080v-1080h-1080Z"/></clipPath><clipPath id="H" clipPathUnits="userSpaceOnUse"><path d="M-543.515 548.462h1080v-1080h-1080Z"/></clipPath><clipPath id="I" clipPathUnits="userSpaceOnUse"><path d="M-65.656-3.308h76.098c0 20.025-17.035 36.259-38.05 36.259-21.012 0-38.048-16.234-38.048-36.26"/></clipPath><clipPath id="J" clipPathUnits="userSpaceOnUse"><path d="M-38.43-15.776h76.097c0 20.025-17.035 36.26-38.049 36.26S-38.43 4.248-38.43-15.777"/></clipPath><clipPath id="K" clipPathUnits="userSpaceOnUse"><path d="M-51.474-10.31h76.098c0 20.026-17.035 36.26-38.049 36.26S-51.474 9.716-51.474-10.31"/></clipPath><clipPath id="L" clipPathUnits="userSpaceOnUse"><path d="M-610.29 548.462h1080v-1080h-1080Z"/></clipPath><clipPath id="M" clipPathUnits="userSpaceOnUse"><path d="M-611.79 548.462h1080v-1080h-1080Z"/></clipPath><clipPath id="N" clipPathUnits="userSpaceOnUse"><path d="M-65.656-3.308h76.097c0 20.025-17.034 36.259-38.048 36.259S-65.656 16.717-65.656-3.31"/></clipPath><clipPath id="O" clipPathUnits="userSpaceOnUse"><path d="M-38.43-15.776h76.097c0 20.025-17.034 36.26-38.048 36.26s-38.05-16.235-38.05-36.26"/></clipPath><clipPath id="P" clipPathUnits="userSpaceOnUse"><path d="M-51.473-10.31h76.097c0 20.026-17.034 36.26-38.048 36.26s-38.05-16.234-38.05-36.26"/></clipPath><clipPath id="Q" clipPathUnits="userSpaceOnUse"><path d="M-553.071 551.91h1080v-1080h-1080Z"/></clipPath><clipPath id="R" clipPathUnits="userSpaceOnUse"><path d="M-551.571 551.91h1080v-1080h-1080Z"/></clipPath><clipPath id="S" clipPathUnits="userSpaceOnUse"><path d="M-534.516 548.603h1080v-1080h-1080Z"/></clipPath><clipPath id="T" clipPathUnits="userSpaceOnUse"><path d="M-533.016 548.603h1080v-1080h-1080Z"/></clipPath><clipPath id="U" clipPathUnits="userSpaceOnUse"><path d="M-527.76 572.513h1080v-1080h-1080Z"/></clipPath><clipPath id="V" clipPathUnits="userSpaceOnUse"><path d="M-526.552 568.888h1080v-1080h-1080Z"/></clipPath><clipPath id="W" clipPathUnits="userSpaceOnUse"><path d="M-526.552 570.388h1080v-1080h-1080Z"/></clipPath><clipPath id="X" clipPathUnits="userSpaceOnUse"><path d="M-527.69 581.164h1080v-1080h-1080Z"/></clipPath><clipPath id="Y" clipPathUnits="userSpaceOnUse"><path d="M-560.797 567.863h1080v-1080h-1080Z"/></clipPath><clipPath id="Z" clipPathUnits="userSpaceOnUse"><path d="M-526.992 575.19h1080v-1080h-1080Z"/></clipPath><clipPath id="aa" clipPathUnits="userSpaceOnUse"><path d="M-536.712 582.11h1080v-1080h-1080Z"/></clipPath><clipPath id="ab" clipPathUnits="userSpaceOnUse"><path d="M-535.265 582.508h1080v-1080h-1080Z"/></clipPath></defs><path d="M0 0h1080v1080H0Z" style="fill:#feffff;fill-opacity:1;fill-rule:nonzero;stroke:none" transform="matrix(1.33333 0 0 -1.33333 0 1440)"/><path d="M0 0v130.765c0 11.346 9.494 20.384 20.826 19.825.687-.034 1.398-.05 2.112-.05 24.718 0 44.828 20.109 44.828 44.826 0 24.718-20.11 44.828-44.828 44.828a42 42 0 0 1-2.112-.052C9.494 239.584 0 248.622 0 259.968v138.387h398.354V260.027c0-10.863-8.73-19.707-19.592-19.849-24.377-.316-44.209-20.418-44.209-44.812s19.832-44.495 44.209-44.811h.001c10.861-.141 19.591-8.986 19.591-19.848V0Z" clip-path="url(#a)" style="fill:#ff3342;fill-opacity:1;fill-rule:nonzero;stroke:none" transform="matrix(1.33333 0 0 -1.33333 454.43 1050.246)"/><path d="M0 0v121.553c0 3-.024 6.001 0 9.002.035 4.312 1.38 8.481 4.142 11.835 4.009 4.868 9.719 6.852 15.878 6.672 12.346-.36 24.483 4.302 33.416 12.832 8.811 8.414 14.01 20.175 14.316 32.352.632 25.11-19.84 46.652-44.914 47.425-3.146.097-6.189-.256-9.274.578a18.36 18.36 0 0 0-8.025 4.581C1.956 250.33.054 255.059 0 260.042c-.029 2.623 0 5.249 0 7.872v130.441l-1.5-1.5h392.349c1.753 0 3.58-.148 5.328 0 .222.018.454 0 .677 0l-1.5 1.5V262.944c0-5.303-.642-10.358-4.229-14.646a18.56 18.56 0 0 0-7.044-5.213c-2.871-1.199-5.729-1.303-8.778-1.476a46.3 46.3 0 0 1-17.44-4.506c-10.721-5.153-19.157-14.472-23.37-25.576-4.362-11.496-3.77-24.497 1.391-35.625 5.006-10.794 14.22-19.342 25.265-23.702a44.3 44.3 0 0 1 8.822-2.465c2.895-.493 5.772-.504 8.683-.748 6.233-.524 11.852-4.401 14.7-9.94 2.051-3.988 2-8.1 2-12.395V0l1.5 1.5H14.67c-5.161 0-10.332.095-15.493 0-.225-.004-.451 0-.677 0-1.93 0-1.934-3 0-3h382.184c5.161 0 10.332-.095 15.493 0 .226.004.452 0 .677 0 .811 0 1.5.687 1.5 1.5v120.391c0 3.287.011 6.574 0 9.861-.03 9.196-5.526 17.482-14.283 20.603-2.685.957-5.396 1.116-8.21 1.241a42.5 42.5 0 0 0-9.333 1.471 43.2 43.2 0 0 0-16.158 8.401c-9.498 7.901-15.407 19.615-15.794 31.996-.389 12.448 4.733 24.565 13.821 33.06 4.451 4.161 9.788 7.392 15.559 9.354 2.956 1.005 6.029 1.718 9.135 2.05 2.892.31 5.807.145 8.662.783 9.817 2.194 16.521 11.138 16.601 21.051.023 2.849 0 5.699 0 8.547v129.546c0 .811-.687 1.5-1.5 1.5H14.67c-5.161 0-10.332.095-15.493 0-.225-.005-.451 0-.677 0-.811 0-1.5-.688-1.5-1.5V262.338c0-5.709 1.006-11.097 4.696-15.716 3.757-4.702 9.426-7.604 15.427-7.968 3.105-.188 6.191.112 9.302-.236 3.083-.344 6.137-1.059 9.071-2.062 11.649-3.986 21.29-13.072 25.999-24.445 4.812-11.625 4.268-25.145-1.512-36.323-5.657-10.941-15.879-19.144-27.819-22.204a42.8 42.8 0 0 0-9.326-1.322c-3.147-.097-6.194.21-9.302-.492-5.619-1.271-10.592-4.953-13.539-9.889C-2.671 137.213-3 132.425-3 127.426V0c0-1.93 3-1.934 3 0" clip-path="url(#b)" style="fill:#000;fill-opacity:1;fill-rule:nonzero;stroke:none" transform="matrix(1.33333 0 0 -1.33333 456.43 1050.246)"/><path d="M0 0c0-35.427 28.482-64.201 63.801-64.66v-110.857h-358.655v110.915a63 63 0 0 1 3.089-.075c35.719 0 64.677 28.958 64.677 64.677s-28.958 64.677-64.677 64.677c-1.035 0-2.062-.025-3.089-.075v118.536H63.801V64.66C28.482 64.201 0 35.427 0 0" clip-path="url(#c)" style="fill:#0aff9f;fill-opacity:1;fill-rule:nonzero;stroke:none" transform="matrix(1.33333 0 0 -1.33333 874.035 789.757)"/><path d="M0 0c.104-27.253 17.197-52.131 42.681-61.872 7.217-2.758 14.901-4.159 22.62-4.288l-1.5 1.5v-110.857l1.5 1.5h-344.096c-4.597 0-9.362.362-13.949 0-.2-.015-.408 0-.61 0l1.5-1.5v110.915l-1.5-1.5c14.204-.624 28.433 3.295 40.202 11.308 11.259 7.666 19.977 18.697 24.815 31.431 10.079 26.529 1.493 57.532-20.73 75.142-12.539 9.937-28.303 15.024-44.287 14.323l1.5-1.5v118.536l-1.5-1.5H50.742c4.597 0 9.362-.362 13.949 0 .2.016.408 0 .61 0l-1.5 1.5V64.66l1.5 1.5c-27.225-.458-51.882-17.854-61.293-43.441C1.337 15.455.03 7.733 0 0c-.007-1.931 2.993-1.933 3 0 .099 25.915 16.364 49.866 40.702 59.064 6.915 2.614 14.212 3.972 21.599 4.096.81.014 1.5.677 1.5 1.5v118.478c0 .811-.688 1.5-1.5 1.5h-344.096c-4.646 0-9.303.087-13.949 0-.203-.004-.407 0-.61 0-.811 0-1.5-.687-1.5-1.5V64.602c0-.785.688-1.536 1.5-1.5 13.647.599 27.16-3.11 38.493-10.766 10.794-7.293 19.261-17.999 23.799-30.217 9.433-25.396 1.323-54.528-19.76-71.484-11.967-9.625-27.23-14.409-42.532-13.737-.81.036-1.5-.716-1.5-1.5v-110.915c0-.81.688-1.5 1.5-1.5H50.742c4.647 0 9.303-.087 13.949 0 .203.004.407 0 .61 0 .811 0 1.5.688 1.5 1.5V-64.66c0 .821-.688 1.486-1.5 1.5-25.899.435-49.604 17.037-58.482 41.463C4.288-14.732 3.028-7.405 3 0 2.993 1.93-.007 1.934 0 0" clip-path="url(#d)" style="fill:#000;fill-opacity:1;fill-rule:nonzero;stroke:none" transform="matrix(1.33333 0 0 -1.33333 872.035 789.757)"/><path d="M22.852.001H9.445q-3.234 0-3.234-3.234v-58.313q0-3.245 3.234-3.246h14.496q2.695.001 4.137 2.695l8.098 14.672q.444.811.761 1.172.316.364.856.363h.809q.537 0 .855-.363.317-.362.773-1.172l8.004-14.672q1.44-2.695 4.137-2.695H66.95q3.245.001 3.246 3.246v58.313Q70.193 0 66.95 0H53.098q-3.247 0-3.246-3.234V-34.91l-5.309 9.808q-1.526 2.873-4.77 2.871h-3.597q-3.235.001-4.77-2.87l-5.308-9.81v31.677Q26.096 0 22.852 0m114.647-17.004q0 4.138-1.219 7.512-1.207 3.375-4.265 5.8-3.06 2.427-8.508 3.727-5.451 1.311-13.899 1.313-8.462-.002-13.91-1.313-5.44-1.301-8.508-3.726-3.058-2.426-4.324-5.801-1.255-3.373-1.254-7.512v-30.691q-.002-4.136 1.254-7.512 1.266-3.376 4.324-5.8 3.068-2.437 8.508-3.786 5.448-1.346 13.91-1.348 8.448.002 13.899 1.348 5.45 1.35 8.508 3.785 3.058 2.425 4.265 5.8 1.219 3.376 1.219 7.513zm-35.45-3.246q0 1.806 1.348 3.023 1.346 1.208 6.211 1.207 4.945.002 6.246-1.207 1.312-1.217 1.313-3.023v-24.2q-.002-1.802-1.313-2.976-1.301-1.171-6.246-1.172-4.865.002-6.21 1.172-1.349 1.174-1.348 2.977zm102.036 3.246q0 4.138-1.219 7.512-1.209 3.375-4.312 5.8-3.108 2.427-8.508 3.727-5.405 1.311-13.77 1.313-8.368-.002-13.77-1.313-5.392-1.301-8.495-3.726-3.108-2.427-4.324-5.801-1.221-3.373-1.22-7.512v-44.543q0-3.245 3.247-3.246h14.133q3.234.001 3.234 3.246v41.027q-.001 1.807 1.348 3.024 1.345 1.208 6.035 1.207 4.769.001 6.117-1.207 1.347-1.218 1.348-3.024v-41.027q0-3.245 3.234-3.246h13.688q3.234.001 3.234 3.246zM246.11.001h-28.44q-3.234 0-3.234-3.234V-13.77q0-3.234 3.234-3.234h24.21q1.17.002 1.747-.762.586-.771.586-1.851 0-1.535-.586-2.25-.577-.712-1.746-.809l-13.5-1.887q-6.307-.993-10.125-4.183-3.822-3.2-3.82-10.758v-9.445q-.002-7.745 4.945-11.79 4.944-4.052 13.676-4.054h25.195q3.245.001 3.246 3.246v10.7q-.001 3.245-3.246 3.245h-20.965q-2.426.001-2.426 2.696 0 2.614 2.426 2.883l13.406 1.792q4.228.633 7.383 2.215a11.4 11.4 0 0 1 4.899 4.63c1.171 2.038 1.757 4.74 1.757 8.097v9.445q0 7.655-4.945 11.754Q254.84.002 246.111.001m73.418 0h-41.754q-3.234 0-3.234-3.234v-58.313q0-3.245 3.234-3.246h41.754q3.244.001 3.246 3.246v10.524q-.002 3.234-3.246 3.234h-24.832v6.937h17.543q3.245 0 3.246 3.235v9.633q-.001 3.234-3.246 3.234h-17.543v7.746h24.832q3.244 0 3.246 3.234v10.536Q322.773 0 319.53 0m0 0" aria-label="mouse" style="fill:#feffff;fill-opacity:1;fill-rule:nonzero;stroke:none" transform="translate(502.012 996.034)scale(1.33333)"/><path d="M0 0v31.675l5.309-9.809q1.53-2.88 4.769-2.88h3.6q3.238 0 4.769 2.88l5.309 9.809V0q0-3.239 3.239-3.239h13.858q3.239 0 3.239 3.239v58.31q0 3.239-3.239 3.239H26.275q-2.7 0-4.139-2.699l-8.009-14.668q-.45-.81-.764-1.169-.316-.362-.855-.361h-.81q-.54-.001-.855.361-.316.359-.765 1.169L1.979 58.85Q.54 61.549-2.16 61.549h-14.487q-3.24 0-3.239-3.239V0q0-3.239 3.239-3.239h13.408Q0-3.239 0 0Z" clip-path="url(#e)" style="fill:none;stroke:#000;stroke-width:3;stroke-linecap:butt;stroke-linejoin:miter;stroke-miterlimit:10;stroke-dasharray:none;stroke-opacity:1" transform="matrix(1.33333 0 0 -1.33333 536.805 991.715)"/><path d="M0 0q0 4.139-1.215 7.514-1.215 3.373-4.274 5.803t-8.503 3.78q-5.446 1.349-13.903 1.349-8.459 0-13.902-1.349-5.445-1.35-8.504-3.78-3.06-2.43-4.319-5.803Q-55.88 4.139-55.879 0v-30.685q0-4.138 1.259-7.513 1.26-3.374 4.319-5.804t8.504-3.734 13.902-1.305 13.903 1.305q5.443 1.304 8.503 3.734t4.274 5.804Q0-34.823 0-30.685zm-35.453-3.239q0 1.798 1.349 2.968 1.35 1.17 6.209 1.17 4.949 0 6.254-1.17t1.305-2.968v-24.206q0-1.8-1.305-3.015t-6.254-1.215q-4.859 0-6.209 1.215t-1.349 3.015z" clip-path="url(#f)" style="fill:none;stroke:#000;stroke-width:3;stroke-linecap:butt;stroke-linejoin:miter;stroke-miterlimit:10;stroke-dasharray:none;stroke-opacity:1" transform="matrix(1.33333 0 0 -1.33333 685.338 932.445)"/><path d="M0 0q0 3.239-3.239 3.239h-13.678q-3.239 0-3.239-3.239v-41.032q0-1.8-1.35-3.015-1.35-1.214-6.119-1.215-4.68 0-6.029 1.215-1.35 1.214-1.349 3.015V0q0 3.239-3.24 3.239H-52.37q-3.24 0-3.24-3.239v-44.542q0-4.14 1.215-7.514t4.319-5.803q3.105-2.43 8.504-3.735t13.767-1.304 13.768 1.304q5.398 1.304 8.503 3.735 3.105 2.429 4.319 5.803Q0-48.681 0-44.542z" clip-path="url(#g)" style="fill:none;stroke:#000;stroke-width:3;stroke-linecap:butt;stroke-linejoin:miter;stroke-miterlimit:10;stroke-dasharray:none;stroke-opacity:1" transform="matrix(1.33333 0 0 -1.33333 774.122 913.969)"/><path d="M0 0q4.948 4.093 4.949 11.742v9.448q0 5.04-1.755 8.099a11.44 11.44 0 0 1-4.904 4.634q-3.151 1.574-7.378 2.205l-13.408 1.8q-2.43.268-2.429 2.879 0 2.7 2.429 2.7H-1.53q3.24 0 3.239 3.239v10.708q0 3.239-3.239 3.239h-25.195q-8.729 0-13.678-4.048-4.95-4.051-4.949-11.789v-9.448q0-7.56 3.825-10.753 3.823-3.195 10.123-4.184l13.497-1.89q1.169-.09 1.755-.81.584-.72.585-2.25 0-1.08-.585-1.844-.587-.765-1.755-.765h-24.205q-3.24 0-3.24-3.239V-.855q0-3.24 3.24-3.24h28.434Q-4.95-4.095 0 0Z" clip-path="url(#h)" style="fill:none;stroke:#000;stroke-width:3;stroke-linecap:butt;stroke-linejoin:miter;stroke-miterlimit:10;stroke-dasharray:none;stroke-opacity:1" transform="matrix(1.33333 0 0 -1.33333 848.387 990.574)"/><path d="M0 0v10.528q0 3.24-3.239 3.24h-24.836v7.738h17.547q3.24 0 3.239 3.24v9.628q0 3.239-3.239 3.239h-17.547v6.929h24.836Q0 44.542 0 47.781V58.31q0 3.239-3.239 3.239h-41.753q-3.239 0-3.239-3.239V0q0-3.239 3.239-3.239h41.753Q0-3.239 0 0Z" clip-path="url(#i)" style="fill:none;stroke:#000;stroke-width:3;stroke-linecap:butt;stroke-linejoin:miter;stroke-miterlimit:10;stroke-dasharray:none;stroke-opacity:1" transform="matrix(1.33333 0 0 -1.33333 932.37 991.715)"/><path d="M0 0c-5.05-2.239-11.667.471-13.304 6.378-2.008 7.258 2.664 14.64 9.08 17.829q.57.29 1.151.533a32.4 32.4 0 0 0 4.88-7.698C4.092 11.961 5.444 2.417 0 0m19.088 11.328c-.556 4.988-2.07 9.829-4.347 14.308-2.842 5.629-6.88 10.687-11.668 14.748a49 49 0 0 1-1.575 1.282c-17.667 13.845-42.454 15.281-60.947 1.714-9.698-7.104-16.694-17.026-19.652-28.748-3.088-12.246-1.915-25.157 1.058-37.311 1.467-5.976 3.436-11.806 5.629-17.559 1.483-3.891 5.197-6.571 9.498-5.389 3.729 1.027 6.888 5.583 5.39 9.497-6.811 17.861-13.166 40.354-1.884 57.812 8.988 13.907 27.813 19.814 42.94 13.065-2.68-2.038-5.112-4.548-7.22-7.567-6.347-9.088-7.637-22.555-1.336-32.014 5.953-8.926 17.883-13.474 28.261-10.347 11.467 3.46 17.119 15.088 15.853 26.509" clip-path="url(#j)" style="fill:#feffff;fill-opacity:1;fill-rule:nonzero;stroke:none" transform="matrix(1.33333 0 0 -1.33333 800.544 404.516)"/><path d="M0 0c-2.708 23.076-23.195 40.291-45.687 42.717-10.369 1.119-21.009-1.033-30.104-6.144-9.303-5.227-17.102-13.413-21.748-23.027-5.316-11.002-6.317-23.507-4.835-35.511.788-6.383 2.185-12.672 4.058-18.823.965-3.168 2.047-6.3 3.201-9.403.886-2.384 1.8-4.67 3.798-6.353 3.885-3.275 9.607-2.7 12.834 1.215 1.504 1.825 2.457 4.155 2.201 6.549-.132 1.239-.629 2.354-1.06 3.511a200 200 0 0 0-1.455 4.032c-3.578 10.281-6.434 21.183-5.783 32.159.613 10.34 5.004 20.368 13.367 26.737 7.508 5.718 17.487 8.305 26.796 6.503a31.2 31.2 0 0 0 6.602-2.037v2.59c-6.516-5.022-11.23-12.057-12.801-20.186-1.483-7.677-.33-16.095 4.429-22.468 8.958-11.999 27.986-15.316 38.996-4.16C-1.51-16.343.831-7.933 0 0c-.199 1.901-3.201 1.921-3 0 .661-6.319-.708-12.876-4.588-18.002-3.971-5.247-10.304-8.068-16.83-7.99-6.634.078-13.171 2.975-17.698 7.821-4.845 5.185-6.649 12.332-5.986 19.292.79 8.303 5.218 15.93 11.801 21.004.775.597 1.158 2.081 0 2.59-17.619 7.743-39.16-.486-47.357-17.856-4.521-9.583-4.708-20.363-2.941-30.643.9-5.24 2.301-10.384 3.957-15.433a186 186 0 0 1 2.541-7.21c.41-1.095.922-2.161.863-3.356-.055-1.097-.484-2.133-1.09-3.038-1.253-1.871-3.395-3.085-5.673-2.901-2.239.181-4.06 1.721-5.112 3.631-1.387 2.518-2.173 5.553-3.084 8.273a132 132 0 0 0-2.64 8.834c-3.143 12.133-4.513 25.125-1.519 37.431 4.867 19.999 22.64 35.737 43.274 37.402 21.065 1.7 42.865-10.906 50.037-31.174C-4.053 5.87-3.347 2.957-3 0c.222-1.895 3.225-1.917 3 0" clip-path="url(#k)" style="fill:#000;fill-opacity:1;fill-rule:nonzero;stroke:none" transform="matrix(1.33333 0 0 -1.33333 827.994 389.412)"/><path d="M0 0c-2.315-.979-5.074-.68-7.231.55-2.532 1.444-3.985 4.016-4.239 6.891-.578 6.563 4.159 12.214 9.911 14.709l-1.818.234c3.123-3.722 5.453-8.095 6.212-12.923C3.338 6.264 3.418 1.614 0 0c-1.745-.824-.224-3.411 1.514-2.59C5.904-.518 6.413 5.005 5.871 9.253c-.732 5.741-3.434 10.851-7.126 15.253-.462.55-1.239.485-1.818.234-5.519-2.393-10.157-7.464-11.195-13.507-1.002-5.829 1.407-11.77 7.113-14.019 2.835-1.118 5.888-.981 8.669.196.752.318.902 1.413.538 2.052C1.61.239.742.314 0 0" clip-path="url(#l)" style="fill:#000;fill-opacity:1;fill-rule:nonzero;stroke:none" transform="matrix(1.33333 0 0 -1.33333 799.535 402.789)"/><path d="M0 0c-10.695-46.994-51.666-76.607-89.139-102.296-3.451-2.363-8.571-.634-10.563 2.772-2.216 3.783-.664 8.208 2.772 10.563 34.917 23.945 73.703 51.387 82.591 95.648 3.984 19.829 1.513 41.473-6.849 59.904-4.772 10.502-11.158 20.177-16.046 30.625-4.81 10.292-8.409 21.118-10.339 32.33-1.931 11.196-2.046 22.323-1.969 33.651.069 10.123.162 20.941-4.147 30.346-4.061 8.865-12.679 16.277-22.3 19.011-2.841 5.629-6.88 10.687-11.667 14.748a52 52 0 0 1-1.575 1.282c12.995 1.367 27.11-3.39 37.071-11.922 9.058-7.753 14.671-18.841 16.625-30.509 2.147-12.833.996-25.728 1.475-38.654.479-12.787 3.25-25.381 7.922-37.288 4.811-12.293 12.455-23.219 17.976-35.172C2.641 51.666 5.729 25.165 0 0" clip-path="url(#m)" style="fill:#feffff;fill-opacity:1;fill-rule:nonzero;stroke:none" transform="matrix(1.33333 0 0 -1.33333 921.516 653.74)"/><path d="M0 0c-7.239-31.453-28.951-55.962-53.411-75.815-6.182-5.017-12.563-9.783-19.034-14.419a774 774 0 0 0-9.621-6.769 1633 1633 0 0 0-4.394-3.032c-1.684-1.157-3.187-2.401-5.35-2.236-3.831.293-6.855 3.936-5.733 7.766 1.082 3.691 5.399 5.617 8.336 7.647 6.412 4.432 12.782 8.926 19.008 13.616 24.393 18.378 47.736 40.774 56.7 70.878 5.126 17.213 5.2 35.845.733 53.209-2.359 9.168-6.185 17.725-10.679 26.028-4.727 8.733-9.799 17.265-13.587 26.469-3.714 9.022-6.467 18.456-7.959 28.105-1.57 10.15-1.67 20.462-1.609 30.71.055 9.215.23 18.735-2.709 27.59-2.558 7.708-7.596 14.211-14.264 18.823a36.7 36.7 0 0 1-10.571 5.031l.897-.689c-3.258 6.356-7.875 11.911-13.477 16.334l-1.061-2.561c15.831 1.564 32.42-5.439 42.237-17.983 4.844-6.19 8.041-13.587 9.624-21.263 1.898-9.201 1.731-18.722 1.689-28.069-.041-9.199.151-18.317 1.739-27.403a115.2 115.2 0 0 1 7.649-25.683c3.518-8.169 8.149-15.783 12.375-23.591 4.244-7.842 7.829-15.955 10.376-24.511C3.515 39.33 4.318 19.2 0 0c-.423-1.88 2.469-2.683 2.893-.797 3.914 17.405 3.787 35.56-.278 52.928-2.054 8.781-5.117 17.32-9.061 25.429-3.976 8.173-8.804 15.892-12.888 24.009-4.203 8.353-7.304 17.22-9.314 26.353-2.074 9.428-2.612 18.916-2.597 28.544.015 9.698.238 19.434-1.293 29.046-1.258 7.902-4.129 15.601-8.63 22.238-10.102 14.893-28.663 23.709-46.617 21.935-1.123-.111-2.193-1.667-1.061-2.561 3.638-2.871 6.905-6.201 9.572-9.998a47 47 0 0 0 1.965-3.043c.534-.902.961-2.258 1.706-2.989.61-.598 1.787-.717 2.572-.994a30 30 0 0 0 3.128-1.306c7.846-3.798 14.319-10.514 17.32-18.746 3.433-9.416 3.014-19.631 2.975-29.491-.042-10.636.226-21.303 2.035-31.808 1.726-10.026 4.817-19.762 8.865-29.084 4.142-9.537 9.62-18.37 14.412-27.576 9.153-17.587 13.299-37.212 11.238-57.001-1.762-16.931-8.435-32.831-18.312-46.607-9.563-13.337-21.787-24.589-34.617-34.719-6.492-5.127-13.199-9.976-19.974-14.72-3.348-2.344-6.733-4.632-10.083-6.972-3.115-2.175-5.182-5.609-4.64-9.504.513-3.688 3.417-6.621 6.975-7.539 4.2-1.084 7.086 1.191 10.358 3.446 6.807 4.691 13.575 9.443 20.202 14.386 13.281 9.906 26.109 20.582 37.164 32.97C-15.094-41.967-6.046-28.086-.544-12.62A107 107 0 0 1 2.893-.797C3.325 1.082.434 1.884 0 0" clip-path="url(#n)" style="fill:#000;fill-opacity:1;fill-rule:nonzero;stroke:none" transform="matrix(1.33333 0 0 -1.33333 919.588 653.208)"/><path d="M554.963 693.927h-37.165v52.03h37.165z" clip-path="url(#o)" style="fill:#6842d5;fill-opacity:1;fill-rule:nonzero;stroke:none" transform="matrix(1.33333 0 0 -1.33333 0 1440)"/><path d="M0 0h-37.165l1.5-1.5v52.03l-1.5-1.5H0l-1.5 1.5V-1.5c0-1.93 3-1.934 3 0v52.03c0 .811-.687 1.5-1.5 1.5h-37.165c-.811 0-1.5-.687-1.5-1.5V-1.5c0-.811.688-1.5 1.5-1.5H0c1.93 0 1.934 3 0 3" clip-path="url(#p)" style="fill:#000;fill-opacity:1;fill-rule:nonzero;stroke:none" transform="matrix(1.33333 0 0 -1.33333 739.951 512.765)"/><path d="M0 0c0-81.101-48.971-146.846-109.379-146.846S-218.758-81.101-218.758 0s48.971 146.846 109.379 146.846S0 81.101 0 0" clip-path="url(#q)" style="fill:#ffe30d;fill-opacity:1;fill-rule:nonzero;stroke:none" transform="matrix(1.33333 0 0 -1.33333 859.603 664.793)"/><path d="M0 0c-.034-29.094-6.312-58.464-19.984-84.267-11.55-21.798-28.675-41.387-51.073-52.387-20.745-10.189-44.804-11.41-66.412-3.157-22.907 8.748-41.156 26.906-53.762 47.561-14.852 24.335-22.622 52.702-24.214 81.06-1.655 29.499 3.127 59.693 15.365 86.683 10.324 22.766 26.183 43.805 47.743 56.963 19.834 12.104 43.71 16.148 66.227 9.926 23.184-6.407 42.481-22.582 56.206-41.958C-13.661 77.496-4.37 49.954-1.236 22.151A200 200 0 0 0 0 0c.002-1.93 3.002-1.934 3 0-.018 15.402-1.758 30.819-5.381 45.796-3.369 13.929-8.377 27.501-15.107 40.163-6.16 11.588-13.815 22.453-22.987 31.86-8.47 8.688-18.303 16.164-29.223 21.502-10.567 5.165-22.062 8.291-33.82 8.91-11.804.621-23.711-1.312-34.749-5.527-11.229-4.289-21.488-10.771-30.504-18.695-9.671-8.5-17.879-18.631-24.637-29.571-7.352-11.902-13.018-24.842-17.113-38.209-4.431-14.461-7.015-29.484-7.897-44.577-.916-15.663.012-31.441 2.809-46.88 2.594-14.318 6.86-28.328 12.854-41.592 5.524-12.223 12.576-23.773 21.201-34.059 7.936-9.466 17.281-17.833 27.853-24.258 10.078-6.126 21.306-10.441 32.983-12.216 11.686-1.776 23.665-1.116 35.075 1.988 11.435 3.11 22.166 8.593 31.644 15.676 10.137 7.576 18.873 16.847 26.237 27.12 8.033 11.207 14.369 23.584 19.185 36.491 5.195 13.925 8.548 28.494 10.263 43.25C2.567-15.251 2.991-7.628 3 0 3.002 1.93.002 1.933 0 0" clip-path="url(#r)" style="fill:#000;fill-opacity:1;fill-rule:nonzero;stroke:none" transform="matrix(1.33333 0 0 -1.33333 857.603 664.793)"/><path d="M690.629 609.808H399.355v148.658h291.274z" clip-path="url(#s)" style="fill:#3bb4fb;fill-opacity:1;fill-rule:nonzero;stroke:none" transform="matrix(1.33333 0 0 -1.33333 0 1440)"/><path d="M0 0h-279.45c-3.744 0-7.591.255-11.329 0-.163-.011-.331 0-.495 0l1.5-1.5v142.617c0 1.86.263 3.938 0 5.785-.012.082 0 .173 0 .256l-1.5-1.5h279.45c3.745 0 7.591-.254 11.329 0 .163.012.331 0 .495 0l-1.5 1.5V16.816c0-6.004-.229-12.059 0-18.06.003-.085 0-.171 0-.256 0-1.93 3-1.934 3 0v130.343c0 6.004.229 12.058 0 18.059-.003.085 0 .171 0 .256 0 .811-.687 1.5-1.5 1.5h-279.45c-3.774 0-7.556.073-11.329 0-.165-.003-.33 0-.495 0-.811 0-1.5-.687-1.5-1.5V16.816c0-6.004-.229-12.059 0-18.06.003-.085 0-.171 0-.256 0-.811.687-1.5 1.5-1.5h279.45C-8.05-3-4.268-3.072-.495-3c.165.003.33 0 .495 0 1.93 0 1.934 3 0 3" clip-path="url(#t)" style="fill:#000;fill-opacity:1;fill-rule:nonzero;stroke:none" transform="matrix(1.33333 0 0 -1.33333 920.84 624.923)"/><path d="M669.579 609.808H536.632v149.867h132.947z" clip-path="url(#u)" style="fill:#ff8fdd;fill-opacity:1;fill-rule:nonzero;stroke:none" transform="matrix(1.33333 0 0 -1.33333 0 1440)"/><path d="M0 0h-127.531c-1.682 0-3.521.212-5.193 0-.072-.009-.15 0-.223 0l1.5-1.5v143.805c0 1.892.203 3.913 0 5.798-.009.086 0 .177 0 .264l-1.5-1.5H-5.415c1.681 0 3.52-.212 5.192 0 .072.009.15 0 .223 0l-1.5 1.5V16.898c0-6.033-.198-12.103 0-18.134.003-.088 0-.176 0-.264 0-1.93 3-1.934 3 0v131.469c0 6.033.198 12.103 0 18.134-.003.088 0 .176 0 .264 0 .811-.687 1.5-1.5 1.5h-116.57c-5.371 0-10.786.204-16.154 0-.074-.003-.149 0-.223 0-.811 0-1.5-.687-1.5-1.5V16.898c0-6.033-.198-12.103 0-18.134.003-.088 0-.176 0-.264 0-.811.688-1.5 1.5-1.5h116.57C-11.006-3-5.59-3.204-.223-3c.074.003.149 0 .223 0 1.93 0 1.934 3 0 3" clip-path="url(#v)" style="fill:#000;fill-opacity:1;fill-rule:nonzero;stroke:none" transform="matrix(1.33333 0 0 -1.33333 892.773 624.923)"/><path d="M0 0c-.034-29.094-6.312-58.464-19.984-84.267-11.55-21.798-28.675-41.387-51.073-52.387-20.745-10.189-44.804-11.41-66.412-3.157-22.907 8.748-41.156 26.906-53.762 47.561-14.852 24.335-22.622 52.702-24.214 81.06-1.655 29.499 3.127 59.693 15.365 86.683 10.324 22.766 26.183 43.805 47.743 56.963 19.834 12.104 43.71 16.148 66.227 9.926 23.184-6.407 42.481-22.582 56.206-41.958C-13.661 77.496-4.37 49.954-1.236 22.151A200 200 0 0 0 0 0c.002-1.93 3.002-1.934 3 0-.018 15.402-1.758 30.819-5.381 45.796-3.369 13.929-8.377 27.501-15.107 40.163-6.16 11.588-13.815 22.453-22.987 31.86-8.47 8.688-18.303 16.164-29.223 21.502-10.567 5.165-22.062 8.291-33.82 8.91-11.804.621-23.711-1.312-34.749-5.527-11.229-4.289-21.488-10.771-30.504-18.695-9.671-8.5-17.879-18.631-24.637-29.571-7.352-11.902-13.018-24.842-17.113-38.209-4.431-14.461-7.015-29.484-7.897-44.577-.916-15.663.012-31.441 2.809-46.88 2.594-14.318 6.86-28.328 12.854-41.592 5.524-12.223 12.576-23.773 21.201-34.059 7.936-9.466 17.281-17.833 27.853-24.258 10.078-6.126 21.306-10.441 32.983-12.216 11.686-1.776 23.665-1.116 35.075 1.988 11.435 3.11 22.166 8.593 31.644 15.676 10.137 7.576 18.873 16.847 26.237 27.12 8.033 11.207 14.369 23.584 19.185 36.491 5.195 13.925 8.548 28.494 10.263 43.25C2.567-15.251 2.991-7.628 3 0 3.002 1.93.002 1.933 0 0" clip-path="url(#w)" style="fill:#000;fill-opacity:1;fill-rule:nonzero;stroke:none" transform="matrix(1.33333 0 0 -1.33333 857.603 664.793)"/><path d="M0 0c-11.681 0-21.151 9.469-21.151 21.151v24.172c0 11.681 9.47 21.15 21.151 21.15s21.151-9.469 21.151-21.15V21.151C21.151 9.469 11.681 0 0 0" clip-path="url(#x)" style="fill:#feffff;fill-opacity:1;fill-rule:nonzero;stroke:none" transform="matrix(1.33333 0 0 -1.33333 716.988 678.49)"/><path d="M0 0c-7.152 0-13.828 3.99-17.263 10.255-1.587 2.895-2.367 6.132-2.388 9.426-.007 1.218 0 2.436 0 3.654v15.014c0 4.142-.24 8.256 1.188 12.23 2.427 6.75 8.675 11.748 15.767 12.723 7.072.973 14.369-2.087 18.566-7.877 2.086-2.878 3.424-6.316 3.711-9.868.108-1.347.07-2.709.07-4.06V26.894c0-3.726.364-7.774-.447-11.436C17.649 8.433 12.267 2.684 5.331.732 3.585.24 1.812.015 0 0c-1.93-.016-1.934-3.016 0-3 7.919.064 15.361 4.217 19.447 11.031 2.035 3.393 3.133 7.318 3.201 11.27.021 1.223.003 2.448.003 3.672v16c0 4.938.035 9.659-2.066 14.292-3.252 7.174-10.216 12.115-17.997 13.051-7.768.934-15.649-2.413-20.443-8.574-2.394-3.077-3.988-6.73-4.541-10.594-.251-1.763-.255-3.508-.255-5.28V26.326c0-4.42-.332-9.005.981-13.284C-19.365 5.529-13.127-.446-5.482-2.332A23 23 0 0 1 0-3c1.93 0 1.934 3 0 3" clip-path="url(#y)" style="fill:#000;fill-opacity:1;fill-rule:nonzero;stroke:none" transform="matrix(1.33333 0 0 -1.33333 716.988 676.49)"/><path d="M0 0c-7.115 0-12.883 5.768-12.883 12.883v14.723c0 7.115 5.768 12.882 12.883 12.882s12.883-5.767 12.883-12.882V12.883C12.883 5.768 7.115 0 0 0" clip-path="url(#z)" style="fill:#0aff9f;fill-opacity:1;fill-rule:nonzero;stroke:none" transform="matrix(1.33333 0 0 -1.33333 716.988 661.167)"/><path d="M0 0c-4.183 0-8.056 2.346-10.042 6.017-1.312 2.424-1.341 4.964-1.341 7.62v9.014c0 2.372-.166 4.776.583 7.065 1.317 4.026 4.961 7.046 9.143 7.663 4.114.606 8.38-1.168 10.835-4.527 1.798-2.46 2.205-5.206 2.205-8.153v-8.745c0-2.699.267-5.583-.583-8.182C9.28 3.124 4.832.064 0 0c-1.929-.026-1.934-3.026 0-3 5.009.066 9.69 2.636 12.307 6.937 1.803 2.961 2.076 6.162 2.076 9.518v9.818c0 3.173-.045 6.176-1.453 9.129-4.438 9.306-17.624 10.774-24.072 2.786-2.403-2.977-3.241-6.446-3.241-10.196v-9.719c0-3.523-.114-6.9 1.453-10.186C-10.592.184-5.41-3 0-3c1.93 0 1.934 3 0 3" clip-path="url(#A)" style="fill:#000;fill-opacity:1;fill-rule:nonzero;stroke:none" transform="matrix(1.33333 0 0 -1.33333 716.988 659.167)"/><path d="M0 0c5.246-14.893 20.522-50.935 50.968-70.715 2.995-1.945 3.577-6.229 1.305-9.624l-.121-.181c-2.343-3.502-6.792-4.689-9.855-2.646C29.102-74.363-3.117-49.007-13.296-5.77c-.784 3.331 1.002 7.085 4.234 8.808C-5.391 4.994-1.274 3.618 0 0" clip-path="url(#B)" style="fill:#feffff;fill-opacity:1;fill-rule:nonzero;stroke:none" transform="matrix(1.33333 0 0 -1.33333 613.688 723.802)"/><path d="M0 0c4.058-11.5 9.299-22.635 15.665-33.038 8.736-14.279 19.802-27.371 33.612-36.972 1.615-1.123 3.523-1.989 4.117-4.017.538-1.839-.001-3.75-1.06-5.292-1.068-1.554-2.758-2.732-4.665-2.926-1.558-.159-2.746.482-3.985 1.323a134 134 0 0 0-10.96 8.314C22.043-63.627 12.586-53.13 5.075-41.355c-4.614 7.234-8.5 14.938-11.46 22.995-1.596 4.346-3.084 8.847-4.018 13.388-.787 3.821 2.491 7.998 6.485 7.794C-2.153 2.732-.634 1.655 0 0c.684-1.785 3.585-1.01 2.893.798C1.257 5.069-3.315 6.894-7.522 5.126c-4.076-1.712-6.652-6.177-5.844-10.561.879-4.776 2.538-9.544 4.223-14.086a122 122 0 0 1 5.599-12.797C3.71-46.609 13.787-59.43 25.552-70.281A147 147 0 0 1 38.864-81.19c1.875-1.361 3.95-3.195 6.212-3.809 4.185-1.134 8.496 1.419 10.417 5.112 1.012 1.945 1.386 4.196.876 6.344-.531 2.238-1.981 3.714-3.838 4.943a94.6 94.6 0 0 0-11.032 8.566c-6.675 6-12.577 12.836-17.754 20.16C15.583-28.327 9.019-15.601 4.047-2.372Q3.454-.793 2.893.798C2.255 2.606-.645 1.827 0 0" clip-path="url(#C)" style="fill:#000;fill-opacity:1;fill-rule:nonzero;stroke:none" transform="matrix(1.33333 0 0 -1.33333 611.76 724.333)"/><path d="M0 0c-5.09 12.792-19.668 43.367-46.986 56.9-2.687 1.33-3.34 5.147-1.464 8.573l.1.182c1.935 3.534 5.791 5.271 8.541 3.86C-27.962 63.44 1.095 45.09 11.45 7.211c.798-2.917-.641-6.6-3.414-8.644C4.887-3.754 1.236-3.107 0 0" clip-path="url(#D)" style="fill:#feffff;fill-opacity:1;fill-rule:nonzero;stroke:none" transform="matrix(1.33333 0 0 -1.33333 806.19 581.797)"/><path d="M0 0c-3.962 9.939-8.985 19.494-15.122 28.265-8.244 11.782-18.684 22.382-31.564 29.03-1.458.753-2.544 1.423-2.753 3.195-.202 1.708.467 3.419 1.426 4.803.929 1.34 2.401 2.517 4.051 2.771 1.118.171 1.964-.243 2.913-.744a102 102 0 0 0 10.067-6.11c9.633-6.618 18.235-14.868 25.052-24.373C-1.661 30.886 1.962 24.44 4.738 17.66c1.511-3.69 3.121-7.638 3.896-11.562.649-3.285-2.041-7.364-5.433-7.802C1.602-1.91.466-1.056-.151.358c-.77 1.766-3.356.24-2.591-1.514 1.647-3.774 6.131-4.385 9.431-2.409 3.262 1.953 5.452 5.918 4.952 9.742-.285 2.176-1.139 4.365-1.836 6.439a96 96 0 0 1-2.247 6.018 99 99 0 0 1-5.314 10.978C-4.492 41.529-13.758 51.89-24.581 60.237a107 107 0 0 1-11.992 8.039c-1.639.942-3.501 2.254-5.361 2.671-3.765.844-7.391-1.781-9.158-4.933-1.726-3.08-2.151-7.586.831-10.084 1.468-1.231 3.466-1.941 5.121-2.906a72 72 0 0 0 5.051-3.233c6.378-4.466 12.012-9.956 16.974-15.939 7.953-9.588 14.278-20.586 19.147-32.033Q-3.415.516-2.893-.798C-2.186-2.569.716-1.796 0 0" clip-path="url(#E)" style="fill:#000;fill-opacity:1;fill-rule:nonzero;stroke:none" transform="matrix(1.33333 0 0 -1.33333 808.12 581.265)"/><path d="M0 0a8 8 0 0 0 1.147-.308q.314-.103.624-.219c.135-.051.754-.311.377-.145a22 22 0 0 0 1.703-.831c3.443-1.878 6.309-4.641 8.65-7.815.48-.651 1.3-.978 2.052-.538.642.376 1.022 1.397.538 2.052C11.742-3.263 7.275.924 1.775 2.639c-.32.1-.647.197-.977.254C0 3.029-.818 2.681-1.048 1.845-1.246 1.124-.803.137 0 0" clip-path="url(#F)" style="fill:#000;fill-opacity:1;fill-rule:nonzero;stroke:none" transform="matrix(1.33333 0 0 -1.33333 778.052 360.114)"/><path d="M0 0c0 20.025-17.035 36.258-38.049 36.258S-76.097 20.025-76.097 0Z" clip-path="url(#G)" style="fill:#feffff;fill-opacity:1;fill-rule:nonzero;stroke:none" transform="matrix(1.33333 0 0 -1.33333 722.686 731.282)"/><path d="M0 0c-.078 16.076-10.853 30.09-25.838 35.424-15.345 5.461-33.435 1.072-44.145-11.315C-75.782 17.401-79.054 8.878-79.097 0c-.004-.811.69-1.5 1.5-1.5H-1.5c1.93 0 1.934 3 0 3h-76.097l1.5-1.5c.072 14.812 10.079 27.834 23.955 32.643 14.299 4.956 30.797.928 40.8-10.533A33.93 33.93 0 0 0-3 0c.009-1.93 3.009-1.934 3 0" clip-path="url(#H)" style="fill:#000;fill-opacity:1;fill-rule:nonzero;stroke:none" transform="matrix(1.33333 0 0 -1.33333 724.686 731.282)"/><path d="M0 0c0-15.177-12.303-27.48-27.48-27.48S-54.96-15.177-54.96 0s12.303 27.48 27.48 27.48S0 15.177 0 0" clip-path="url(#I)" style="fill:#000;fill-opacity:1;fill-rule:nonzero;stroke:none" transform="matrix(1.33333 0 0 -1.33333 708.764 726.872)"/><path d="M0 0a8.14 8.14 0 0 0-8.142-8.142A8.14 8.14 0 0 0-16.284 0a8.14 8.14 0 0 0 8.142 8.142A8.14 8.14 0 0 0 0 0" clip-path="url(#J)" style="fill:#fff;fill-opacity:1;fill-rule:nonzero;stroke:none" transform="matrix(1.33333 0 0 -1.33333 672.464 710.248)"/><path d="M0 0a5.406 5.406 0 1 0-8.657 6.481A5.408 5.408 0 0 0 0 0" clip-path="url(#K)" style="fill:#fff;fill-opacity:1;fill-rule:nonzero;stroke:none" transform="matrix(1.33333 0 0 -1.33333 689.855 717.537)"/><path d="M0 0c0 20.025-17.035 36.258-38.049 36.258S-76.097 20.025-76.097 0Z" clip-path="url(#L)" style="fill:#feffff;fill-opacity:1;fill-rule:nonzero;stroke:none" transform="matrix(1.33333 0 0 -1.33333 813.72 731.282)"/><path d="M0 0c-.078 16.076-10.853 30.09-25.838 35.424-15.345 5.461-33.435 1.072-44.144-11.315-5.8-6.708-9.072-15.231-9.115-24.109-.004-.811.69-1.5 1.5-1.5H-1.5c1.93 0 1.934 3 0 3h-76.097l1.5-1.5c.072 14.812 10.079 27.834 23.955 32.643 14.299 4.956 30.797.928 40.8-10.533A33.93 33.93 0 0 0-3 0c.009-1.93 3.009-1.934 3 0" clip-path="url(#M)" style="fill:#000;fill-opacity:1;fill-rule:nonzero;stroke:none" transform="matrix(1.33333 0 0 -1.33333 815.72 731.282)"/><path d="M0 0c0-15.177-12.303-27.48-27.48-27.48S-54.96-15.177-54.96 0s12.303 27.48 27.48 27.48S0 15.177 0 0" clip-path="url(#N)" style="fill:#000;fill-opacity:1;fill-rule:nonzero;stroke:none" transform="matrix(1.33333 0 0 -1.33333 799.798 726.872)"/><path d="M0 0a8.14 8.14 0 0 0-8.142-8.142A8.14 8.14 0 0 0-16.284 0a8.14 8.14 0 0 0 8.142 8.142A8.14 8.14 0 0 0 0 0" clip-path="url(#O)" style="fill:#fff;fill-opacity:1;fill-rule:nonzero;stroke:none" transform="matrix(1.33333 0 0 -1.33333 763.498 710.248)"/><path d="M0 0a5.406 5.406 0 1 0-8.657 6.481A5.408 5.408 0 0 0 0 0" clip-path="url(#P)" style="fill:#fff;fill-opacity:1;fill-rule:nonzero;stroke:none" transform="matrix(1.33333 0 0 -1.33333 780.889 717.537)"/><path d="M0 0c0-7.307-8.544-13.231-19.083-13.231-10.54 0-19.083 5.924-19.083 13.231s8.543 13.231 19.083 13.231S0 7.307 0 0" clip-path="url(#Q)" style="fill:#ff3342;fill-opacity:1;fill-rule:nonzero;stroke:none" transform="matrix(1.33333 0 0 -1.33333 737.428 735.88)"/><path d="M0 0c-.092-6.078-6.318-9.714-11.546-11.013-6.442-1.6-14.36-.74-19.626 3.594-1.984 1.633-3.65 3.873-3.949 6.492-.289 2.528.71 4.981 2.384 6.847 4.487 5.002 12.153 6.444 18.556 5.6C-8.189 10.729-.107 7.059 0 0c.029-1.929 3.029-1.934 3 0-.112 7.402-7.031 12.18-13.566 13.86-7.623 1.96-16.714.774-22.848-4.422-2.501-2.118-4.311-5.023-4.684-8.311-.362-3.193.84-6.271 2.849-8.712 5.037-6.124 14.175-7.896 21.668-6.857C-6.078-13.401 2.87-8.584 3 0 3.029 1.931.029 1.932 0 0" clip-path="url(#R)" style="fill:#000;fill-opacity:1;fill-rule:nonzero;stroke:none" transform="matrix(1.33333 0 0 -1.33333 735.428 735.88)"/><path d="M0 0c0-2.248-2.629-4.071-5.872-4.071S-11.744-2.248-11.744 0s2.629 4.071 5.872 4.071S0 2.248 0 0" clip-path="url(#S)" style="fill:#feffff;fill-opacity:1;fill-rule:nonzero;stroke:none" transform="matrix(1.33333 0 0 -1.33333 712.689 731.47)"/><path d="M0 0a5 5 0 0 0-.012-.262c.025.315.003.035-.024-.05l-.075-.249c-.065-.215.107.195-.002-.004a4 4 0 0 0-.313-.516c.046.062.165.17-.029-.018-.102-.1-.196-.207-.302-.304a4 4 0 0 0-.223-.19c.061.047.179.112-.06-.033-.178-.109-.351-.223-.536-.32a5.2 5.2 0 0 0-1.202-.438c-.885-.221-1.975-.254-2.843-.078-.445.09-.898.212-1.316.393.164-.071-.077.044-.088.05a6 6 0 0 0-.282.149q-.168.096-.332.201c-.061.039-.285.199-.125.076-.172.132-.325.288-.477.442-.026.026-.216.248-.108.114.106-.133-.063.091-.083.124-.055.088-.279.569-.179.291a3 3 0 0 0-.08.247c-.023.081-.067.452-.041.113a3.5 3.5 0 0 0 0 .525c-.025-.323.053.132.078.236.063.258.026.074-.006.007a4 4 0 0 0 .303.519c.085.123-.12-.108.068.074.407.395.435.447.846.693.454.271.634.347 1.143.501a6.6 6.6 0 0 0 2.862.227 8 8 0 0 0 1.476-.39 6 6 0 0 0 .793-.419s.385-.269.189-.118c.192-.148.352-.326.525-.494.034-.032.181-.221.029-.018a3 3 0 0 0 .22-.34C-.055.477-.006.281 0 0c.044-1.927 3.044-1.934 3 0C2.937 2.767.528 4.652-1.981 5.277c-2.726.679-5.849.203-8.017-1.656-2.041-1.751-2.264-4.637-.548-6.683 1.819-2.169 5.014-2.772 7.689-2.382C-.043-5.033 2.929-3.115 3 0 3.044 1.931.044 1.931 0 0" clip-path="url(#T)" style="fill:#000;fill-opacity:1;fill-rule:nonzero;stroke:none" transform="matrix(1.33333 0 0 -1.33333 710.689 731.47)"/><path d="M0 0c2.797-.3 5.729-1.587 8.886-1.8 4.827-.325 9.827 1.141 13.558 4.258 3.332 2.784 5.771 6.747 9.703 8.59 6.507 3.05 14.889-1.682 16.978-8.558 2.089-6.877-1.192-14.598-6.69-19.227-7.278-6.127-17.425-8.249-26.738-7.7-8.114.477-19.163 2.844-23.874 10.209C-12.169-7.988-7.732.829 0 0" clip-path="url(#U)" style="fill:#000;fill-opacity:1;fill-rule:nonzero;stroke:none" transform="matrix(1.33333 0 0 -1.33333 703.681 763.351)"/><path d="M0 0c2.797-.3 5.729-1.587 8.886-1.8 4.827-.325 9.827 1.141 13.558 4.258 3.332 2.784 5.771 6.747 9.703 8.59 6.507 3.05 14.889-1.682 16.978-8.558 2.089-6.877-1.192-14.598-6.69-19.227s-12.803-6.584-19.966-7.173a62.8 62.8 0 0 0-15.044.573c-5.716.913-13.1 4.76-16.01 9.98C-12.009-7.217-7.482.802 0 0" clip-path="url(#V)" style="fill:#ff3342;fill-opacity:1;fill-rule:nonzero;stroke:none" transform="matrix(1.33333 0 0 -1.33333 702.07 758.517)"/><path d="M0 0c2.783-.343 5.415-1.427 8.213-1.737 2.617-.29 5.346-.01 7.874.714a20.1 20.1 0 0 1 6.785 3.416c1.95 1.513 3.549 3.387 5.259 5.152 1.6 1.651 3.377 3.316 5.616 4.026 1.943.617 3.982.512 5.912-.095 3.956-1.244 7.224-4.571 8.22-8.612 1.151-4.675-.394-9.603-3.136-13.432-3.079-4.299-7.882-7.038-12.856-8.578-5.382-1.667-11.103-2.131-16.714-1.939-5.245.18-10.405.859-15.079 3.372-3.936 2.117-8.517 5.701-8.333 10.646C-8.074-2.641-4.299.387 0 0c1.922-.173 1.911 2.828 0 3-4.643.418-8.841-2.258-10.531-6.579-1.763-4.511-.016-9.112 3.242-12.418 3.594-3.647 8.672-6.211 13.685-7.175 6.463-1.244 13.281-1.259 19.781-.311 11.08 1.616 22.85 8.008 24.81 20.061.831 5.111-.456 10.293-4.207 13.976-3.348 3.288-8.236 5.159-12.908 4.155-6.255-1.345-9.066-7.7-14.149-10.876-2.755-1.72-5.981-2.628-9.224-2.675C6.884 1.105 3.55 2.563 0 3c-1.912.235-1.895-2.767 0-3" clip-path="url(#W)" style="fill:#000;fill-opacity:1;fill-rule:nonzero;stroke:none" transform="matrix(1.33333 0 0 -1.33333 702.07 760.517)"/><path d="M0 0c13.465-5.359 28.885-.697 37.419 10.893 1.145 1.557-1.457 3.055-2.591 1.515C27.043 1.835 12.923-1.933.798 2.893-.996 3.607-1.775.707 0 0" clip-path="url(#X)" style="fill:#000;fill-opacity:1;fill-rule:nonzero;stroke:none" transform="matrix(1.33333 0 0 -1.33333 703.586 774.885)"/><path d="M0 0q.28-.061.553-.148l.216-.075c.346-.119-.176.093.012-.002.327-.165.633-.341.942-.54.235-.151-.119.11.015-.008q.088-.073.175-.148.215-.189.41-.399.097-.105.19-.214c.115-.132.057-.041-.022.034.127-.121.227-.324.316-.476.093-.157.168-.322.253-.482.105-.197-.109.32.018-.05q.042-.118.082-.238.096-.302.157-.611c.017-.082.029-.166.044-.248-.059.327-.008.035-.002-.041q.024-.314.014-.63-.006-.158-.017-.315c-.011-.167-.014-.109.009.022a6.3 6.3 0 0 0-.329-1.215c-.282-.734.312-1.678 1.048-1.845.858-.196 1.543.262 1.845 1.047.757 1.967.537 4.309-.531 6.12-.989 1.676-2.7 2.931-4.6 3.355-.765.17-1.66-.231-1.846-1.048C-1.221 1.085-.819.183 0 0" clip-path="url(#Y)" style="fill:#000;fill-opacity:1;fill-rule:nonzero;stroke:none" transform="matrix(1.33333 0 0 -1.33333 747.73 757.15)"/><path d="M0 0c-2.293-1.928-2.826-5.415-1.48-8.027.36-.699 1.397-.961 2.053-.538.712.459.923 1.305.538 2.052-.033.064-.062.131-.097.194-.089.164.113-.296.049-.12-.045.121-.091.241-.129.365a5 5 0 0 0-.108.417l-.032.17c-.052.262.027-.29.011-.1a6 6 0 0 0-.029.776c.004.129.025.259.028.388-.008-.41-.032-.218-.012-.099a5.3 5.3 0 0 0 .254.962c.02.053.045.106.062.161-.123-.382-.077-.181-.03-.081a5 5 0 0 0 .408.709c.032.047.072.092.1.141-.056-.098-.201-.249-.047-.068q.266.313.582.577c.603.507.562 1.605 0 2.121C1.48.589.643.541 0 0" clip-path="url(#Z)" style="fill:#000;fill-opacity:1;fill-rule:nonzero;stroke:none" transform="matrix(1.33333 0 0 -1.33333 702.657 766.92)"/><path d="m0 0 .863-3.972C1.686-7.757 5.667-9.938 9.3-8.596l9.609 3.551a6.373 6.373 0 0 1 3.837 7.994l-1.438 4.315S13.075-.969 0 0" clip-path="url(#aa)" style="fill:#feffff;fill-opacity:1;fill-rule:nonzero;stroke:none" transform="matrix(1.33333 0 0 -1.33333 715.616 776.146)"/><path d="M0 0c.571-2.628.858-5.451 2.728-7.534 2.339-2.604 5.886-3.045 9.035-1.881l7.409 2.738c.795.294 1.614.561 2.383.92 1.97.92 3.461 2.706 4.114 4.768.981 3.094-.503 6.152-1.469 9.05-.352 1.057-1.674 1.49-2.507.662-1.527-1.518-3.3-2.623-5.339-3.703-4.591-2.432-9.731-3.47-14.908-3.121-1.927.13-1.919-2.871 0-3 5.616-.379 11.214.824 16.205 3.416 2.184 1.135 4.407 2.54 6.164 4.287l-2.507.662c.609-1.828 1.706-3.963 1.711-5.917.004-1.667-.864-3.265-2.285-4.146-.614-.381-1.3-.594-1.974-.843l-6.83-2.524c-2.131-.788-4.252-1.494-6.308.033C3.547-4.591 3.401-1.541 2.893.798 2.483 2.683-.41 1.885 0 0" clip-path="url(#ab)" style="fill:#000;fill-opacity:1;fill-rule:nonzero;stroke:none" transform="matrix(1.33333 0 0 -1.33333 713.687 776.677)"/></svg>