<svg xmlns="http://www.w3.org/2000/svg" width="1440" height="1440" viewBox="0 0 1440 1440"><defs><clipPath id="a" clipPathUnits="userSpaceOnUse"><path d="M-540.005 760.624h1080v-1080h-1080Z"/></clipPath><clipPath id="b" clipPathUnits="userSpaceOnUse"><path d="M-540.005 759.124h1080v-1080h-1080Z"/></clipPath><clipPath id="c" clipPathUnits="userSpaceOnUse"><path d="M-786.503 741.624h1080v-1080h-1080Z"/></clipPath><clipPath id="d" clipPathUnits="userSpaceOnUse"><path d="M-786.503 740.124h1080v-1080h-1080Z"/></clipPath><clipPath id="e" clipPathUnits="userSpaceOnUse"><path d="M-378.768 693.541h1080v-1080h-1080Z"/></clipPath><clipPath id="f" clipPathUnits="userSpaceOnUse"><path d="M-330.334 693.541h1080v-1080h-1080Z"/></clipPath><clipPath id="g" clipPathUnits="userSpaceOnUse"><path d="M-758.768 693.541h1080v-1080h-1080Z"/></clipPath><clipPath id="h" clipPathUnits="userSpaceOnUse"><path d="M-710.334 693.541h1080v-1080h-1080Z"/></clipPath><clipPath id="i" clipPathUnits="userSpaceOnUse"><path d="M-555.427 269.215h1080v-1080h-1080Z"/></clipPath><clipPath id="j" clipPathUnits="userSpaceOnUse"><path d="M-554.132 269.972h1080v-1080h-1080Z"/></clipPath><clipPath id="k" clipPathUnits="userSpaceOnUse"><path d="M-446.136 720.528h1080v-1080h-1080Z"/></clipPath><clipPath id="l" clipPathUnits="userSpaceOnUse"><path d="M-492.658 705.86h1080v-1080h-1080Z"/></clipPath><clipPath id="m" clipPathUnits="userSpaceOnUse"><path d="M-571.557 720.528h1080v-1080h-1080Z"/></clipPath><clipPath id="n" clipPathUnits="userSpaceOnUse"><path d="M-675.393 720.528h1080v-1080h-1080Z"/></clipPath><clipPath id="o" clipPathUnits="userSpaceOnUse"><path d="M-535.74 352.414h1080v-1080h-1080Z"/></clipPath><clipPath id="p" clipPathUnits="userSpaceOnUse"><path d="M-574.977 325.493h1080v-1080h-1080Z"/></clipPath><clipPath id="q" clipPathUnits="userSpaceOnUse"><path d="M-701.854 631.179h1080v-1080h-1080Z"/></clipPath><clipPath id="r" clipPathUnits="userSpaceOnUse"><path d="M-701.854 629.679h1080v-1080h-1080Z"/></clipPath><clipPath id="s" clipPathUnits="userSpaceOnUse"><path d="M-668.363 634.476h1080v-1080h-1080Z"/></clipPath><clipPath id="t" clipPathUnits="userSpaceOnUse"><path d="M-668.363 632.976h1080v-1080h-1080Z"/></clipPath><clipPath id="u" clipPathUnits="userSpaceOnUse"><path d="M0 1080h1080V0H0Z"/></clipPath><clipPath id="v" clipPathUnits="userSpaceOnUse"><path d="M-723.282 530.78h1080v-1080h-1080Z"/></clipPath><clipPath id="w" clipPathUnits="userSpaceOnUse"><path d="M-696.086 451.963h1080v-1080h-1080Z"/></clipPath><clipPath id="x" clipPathUnits="userSpaceOnUse"><path d="M-694.586 451.963h1080v-1080h-1080Z"/></clipPath><clipPath id="y" clipPathUnits="userSpaceOnUse"><path d="M-449.062 611.5h1080v-1080h-1080Z"/></clipPath><clipPath id="z" clipPathUnits="userSpaceOnUse"><path d="M-447.562 611.5h1080v-1080h-1080Z"/></clipPath><clipPath id="A" clipPathUnits="userSpaceOnUse"><path d="M-441.27 611.5h1080v-1080h-1080Z"/></clipPath><clipPath id="B" clipPathUnits="userSpaceOnUse"><path d="M-439.77 611.5h1080v-1080h-1080Z"/></clipPath><clipPath id="C" clipPathUnits="userSpaceOnUse"><path d="M-666.573 611.5h1080v-1080h-1080Z"/></clipPath><clipPath id="D" clipPathUnits="userSpaceOnUse"><path d="M-665.073 611.5h1080v-1080h-1080Z"/></clipPath><clipPath id="E" clipPathUnits="userSpaceOnUse"><path d="M-658.781 611.5h1080v-1080h-1080Z"/></clipPath><clipPath id="F" clipPathUnits="userSpaceOnUse"><path d="M-657.281 611.5h1080v-1080h-1080Z"/></clipPath><clipPath id="G" clipPathUnits="userSpaceOnUse"><path d="M-696.086 451.963h1080v-1080h-1080Z"/></clipPath><clipPath id="H" clipPathUnits="userSpaceOnUse"><path d="M-694.586 451.963h1080v-1080h-1080Z"/></clipPath><clipPath id="I" clipPathUnits="userSpaceOnUse"><path d="M455.622 589.078c-16.22 0-29.369-13.15-29.369-29.371s13.149-29.369 29.369-29.369h170.826c16.22 0 29.369 13.149 29.369 29.369 0 16.221-13.149 29.371-29.369 29.371z"/></clipPath><clipPath id="J" clipPathUnits="userSpaceOnUse"><path d="M-149.58 70.427c-16.22 0-29.37-13.15-29.37-29.371s13.15-29.37 29.37-29.37H21.244c16.22 0 29.37 13.15 29.37 29.37s-13.15 29.37-29.37 29.37z"/></clipPath><clipPath id="K" clipPathUnits="userSpaceOnUse"><path d="M455.622 589.078c-16.22 0-29.369-13.15-29.369-29.371s13.149-29.369 29.369-29.369h170.826c16.22 0 29.369 13.149 29.369 29.369 0 16.221-13.149 29.371-29.369 29.371z"/></clipPath><clipPath id="L" clipPathUnits="userSpaceOnUse"><path d="M-149.58 11.454c-16.22 0-29.37-13.15-29.37-29.371s13.15-29.37 29.37-29.37H21.244c16.22 0 29.37 13.15 29.37 29.37s-13.15 29.37-29.37 29.37z"/></clipPath><clipPath id="M" clipPathUnits="userSpaceOnUse"><path d="M-41.691 29.97c-16.22 0-29.369-13.15-29.369-29.371s13.149-29.37 29.369-29.37h170.826c16.22 0 29.369 13.15 29.369 29.37s-13.149 29.37-29.369 29.37z"/></clipPath><clipPath id="N" clipPathUnits="userSpaceOnUse"><path d="M-11.722 29.97c-16.22 0-29.369-13.15-29.369-29.371s13.15-29.37 29.37-29.37h170.825c16.22 0 29.37 13.15 29.37 29.37s-13.15 29.37-29.37 29.37z"/></clipPath><clipPath id="O" clipPathUnits="userSpaceOnUse"><path d="M-10.222 29.97c-16.22 0-29.369-13.15-29.369-29.371s13.15-29.37 29.37-29.37h170.825c16.22 0 29.37 13.15 29.37 29.37s-13.15 29.37-29.37 29.37z"/></clipPath><clipPath id="P" clipPathUnits="userSpaceOnUse"><path d="M-225.503 29.97c-16.22 0-29.37-13.15-29.37-29.371s13.15-29.37 29.37-29.37h170.826c16.22 0 29.369 13.15 29.369 29.37s-13.15 29.37-29.37 29.37z"/></clipPath><clipPath id="Q" clipPathUnits="userSpaceOnUse"><path d="M-193.236 29.97c-16.22 0-29.37-13.15-29.37-29.371s13.15-29.37 29.37-29.37H-22.41C-6.19-28.77 6.959-15.62 6.959.6s-13.15 29.37-29.37 29.37z"/></clipPath><clipPath id="R" clipPathUnits="userSpaceOnUse"><path d="M-191.736 29.97c-16.22 0-29.37-13.15-29.37-29.371s13.15-29.37 29.37-29.37H-20.91C-4.69-28.77 8.459-15.62 8.459.6s-13.15 29.37-29.37 29.37z"/></clipPath><clipPath id="S" clipPathUnits="userSpaceOnUse"><path d="M-626.448 548.162h1080v-1080h-1080Z"/></clipPath><clipPath id="T" clipPathUnits="userSpaceOnUse"><path d="M-372.612 558.07h1080v-1080h-1080Z"/></clipPath><clipPath id="U" clipPathUnits="userSpaceOnUse"><path d="M-372.612 556.57h1080v-1080h-1080Z"/></clipPath><clipPath id="V" clipPathUnits="userSpaceOnUse"><path d="M-372.612 587.952h1080v-1080h-1080Z"/></clipPath><clipPath id="W" clipPathUnits="userSpaceOnUse"><path d="M-372.612 586.452h1080v-1080h-1080Z"/></clipPath><clipPath id="X" clipPathUnits="userSpaceOnUse"><path d="M-708.873 586.393h1080v-1080h-1080Z"/></clipPath><clipPath id="Y" clipPathUnits="userSpaceOnUse"><path d="M-708.873 584.893h1080v-1080h-1080Z"/></clipPath><clipPath id="Z" clipPathUnits="userSpaceOnUse"><path d="M-708.873 616.275h1080v-1080h-1080Z"/></clipPath><clipPath id="aa" clipPathUnits="userSpaceOnUse"><path d="M-708.873 614.775h1080v-1080h-1080Z"/></clipPath><clipPath id="ab" clipPathUnits="userSpaceOnUse"><path d="M-540.445 471.362h1080v-1080h-1080Z"/></clipPath><clipPath id="ac" clipPathUnits="userSpaceOnUse"><path d="M-538.945 471.362h1080v-1080h-1080Z"/></clipPath><clipPath id="ad" clipPathUnits="userSpaceOnUse"><path d="M-53.917 10.825c0-18.28 8.668-33.1 19.36-33.1s19.36 14.82 19.36 33.1-8.668 33.1-19.36 33.1-19.36-14.82-19.36-33.1"/></clipPath><clipPath id="ae" clipPathUnits="userSpaceOnUse"><path d="M-534.824 469.957h1080v-1080h-1080Z"/></clipPath><clipPath id="af" clipPathUnits="userSpaceOnUse"><path d="M-525.457 484.867h1080v-1080h-1080Z"/></clipPath><clipPath id="ag" clipPathUnits="userSpaceOnUse"><path d="M-574.759 471.362h1080v-1080h-1080Z"/></clipPath><clipPath id="ah" clipPathUnits="userSpaceOnUse"><path d="M-573.259 471.362h1080v-1080h-1080Z"/></clipPath><clipPath id="ai" clipPathUnits="userSpaceOnUse"><path d="M-53.918 10.825c0-18.28 8.668-33.1 19.361-33.1 10.692 0 19.36 14.82 19.36 33.1s-8.668 33.1-19.36 33.1-19.36-14.82-19.36-33.1"/></clipPath><clipPath id="aj" clipPathUnits="userSpaceOnUse"><path d="M-569.138 469.957h1080v-1080h-1080Z"/></clipPath><clipPath id="ak" clipPathUnits="userSpaceOnUse"><path d="M-559.77 484.867h1080v-1080h-1080Z"/></clipPath><clipPath id="al" clipPathUnits="userSpaceOnUse"><path d="M-554.078 500.951h1080v-1080h-1080Z"/></clipPath><clipPath id="am" clipPathUnits="userSpaceOnUse"><path d="M-552.578 500.951h1080v-1080h-1080Z"/></clipPath><clipPath id="an" clipPathUnits="userSpaceOnUse"><path d="M-538.898 498.245h1080v-1080h-1080Z"/></clipPath><clipPath id="ao" clipPathUnits="userSpaceOnUse"><path d="M-537.398 498.245h1080v-1080h-1080Z"/></clipPath><clipPath id="ap" clipPathUnits="userSpaceOnUse"><path d="M-511.55 521.345h1080v-1080h-1080Z"/></clipPath><clipPath id="aq" clipPathUnits="userSpaceOnUse"><path d="M-510.314 523.923h1080v-1080h-1080Z"/></clipPath><clipPath id="ar" clipPathUnits="userSpaceOnUse"><path d="M-562.708 519.036h1080v-1080h-1080Z"/></clipPath><clipPath id="as" clipPathUnits="userSpaceOnUse"><path d="M-511.55 521.345h1080v-1080h-1080Z"/></clipPath><clipPath id="at" clipPathUnits="userSpaceOnUse"><path d="M-510.314 523.923h1080v-1080h-1080Z"/></clipPath><clipPath id="au" clipPathUnits="userSpaceOnUse"><path d="M-562.708 519.036h1080v-1080h-1080Z"/></clipPath></defs><path d="M0 0h1080v1080H0Z" style="fill:#feffff;fill-opacity:1;fill-rule:nonzero;stroke:none" transform="matrix(1.33333 0 0 -1.33333 0 1440)"/><path d="m0 0-246.286-2.44c-10.769-.107-19.945 7.792-21.443 18.456-5.674 40.404 7.443 79.845 35.09 105.508 9.848 9.142 21.582 15.82 32.929 22.277 12.481 7.102 25.387 14.447 29.001 21.991 3.392 7.085-5.465 19.651-19.345 27.429-19.717 11.062-47.313 15.626-71.66 19.653-12.148 2.009-20.111 13.813-17.425 25.829 12.774 57.153 49.644 110.793 103.821 151.036 37.964 28.202 98.402 62.478 170.733 65.617 2.886.126 5.822.189 8.727.189 54.798 0 112.389-22.139 171.175-65.803 54.172-40.251 91.039-93.89 103.812-151.039 2.686-12.015-5.276-23.818-17.423-25.829h-.001c-24.352-4.029-51.954-8.597-71.656-19.649-13.881-7.78-22.732-20.345-19.336-27.442 3.612-7.537 16.52-14.883 29.002-21.987 11.343-6.456 23.071-13.131 32.92-22.267 27.638-25.667 40.755-65.103 35.096-105.504v-.002c-1.494-10.668-10.673-18.571-21.445-18.464Z" clip-path="url(#a)" style="fill:#ffe30d;fill-opacity:1;fill-rule:nonzero;stroke:none" transform="matrix(1.33333 0 0 -1.33333 720.007 1014.165)"/><path d="m0 0-31.038-.308-71.819-.711-79.659-.789-55.336-.549c-2.81-.027-5.623-.098-8.434-.083-10.146.053-18.455 7.367-19.997 17.355-1.722 11.154-1.666 22.767-.276 33.95 2.65 21.331 10.936 42.106 24.492 58.864 7.401 9.149 16.227 16.75 26.087 23.145 10.447 6.774 21.662 12.273 32.079 19.088 5.964 3.903 15.825 10 15.397 18.282-.422 8.183-7.605 15.339-13.65 20.029-8.444 6.552-18.725 10.632-28.84 13.825-11.259 3.555-22.858 5.942-34.467 8.025-9.783 1.756-21.802 1.587-28.471 10.132-6.665 8.54-3.563 18.412-.917 27.823 5.713 20.317 14.396 39.725 25.331 57.76 22.417 36.971 53.911 67.424 89.625 91.489 34.82 23.464 73.685 41.51 114.94 49.993 22.865 4.702 46.403 6.504 69.667 4.199 21.785-2.159 43.162-7.734 63.557-15.616 23.143-8.943 45.069-20.884 65.75-34.544 20.159-13.315 39.255-28.187 56.232-45.414 30.076-30.518 53.698-67.946 65.03-109.471 1.283-4.703 3.025-9.782 2.855-14.707-.167-4.842-2.19-9.557-5.543-13.048-3.472-3.615-7.809-5.322-12.662-6.126-5.782-.957-11.563-1.924-17.326-2.988-11.41-2.108-22.806-4.565-33.831-8.223-10.052-3.334-20.14-7.617-28.326-14.472-5.522-4.625-12.484-12.055-11.939-19.911.248-3.565 2.605-6.538 5.032-8.984 3.772-3.803 8.344-6.83 12.866-9.654 10.563-6.596 21.736-12.165 32.067-19.14 9.547-6.446 18.013-14.215 25.05-23.347 13.223-17.161 21.12-38.154 23.326-59.654 1.091-10.637 1.418-22.324-.84-32.839-2-9.312-10.296-15.766-19.737-15.822-10.726-.063-21.466.213-32.192.319l-72.033.714-79.517.788-54.642.542zc-1.931.019-1.932-2.981 0-3l32.204-.319 73.137-.725 80.619-.799 53.866-.534c4.825-.048 9.741-.418 14.368 1.265 8.384 3.049 13.909 10.417 15.109 19.156a131 131 0 0 1 .302 33.386c-2.531 21.052-10.242 41.488-23.085 58.434a108.7 108.7 0 0 1-23.655 22.955c-10.284 7.322-21.552 13.04-32.344 19.541-4.999 3.012-10.08 6.166-14.303 10.232-2.875 2.767-5.385 5.897-4.516 10.077 1.996 9.601 12.19 17.031 20.222 21.375 20.526 11.101 44.697 14.655 67.427 18.428 4.717.783 8.997 1.92 12.858 4.894a23.1 23.1 0 0 1 7.442 10.034c3.452 9.033-.231 18.894-2.846 27.677-6.022 20.229-14.948 39.569-26.067 57.494-24.701 39.82-59.633 71.421-98.763 96.705-38.8 25.069-82.561 44.177-128.95 48.403-45.8 4.173-92.299-7.026-133.755-26.122-36.871-16.983-71.654-40.424-100.357-69.187-30.469-30.531-54.542-68.032-66.428-109.693-2.497-8.752-5.558-17.879-1.568-26.665a23.1 23.1 0 0 1 8.703-9.943c4.102-2.578 8.649-3.2 13.331-3.982 22.577-3.768 46.974-7.421 67.049-19.124 4.842-2.822 9.33-6.351 12.972-10.629 2.595-3.049 5.271-6.96 5.524-11.09.256-4.173-3.302-7.485-6.196-10.006-4.692-4.087-10.135-7.32-15.485-10.457-10.693-6.271-21.73-12.021-31.706-19.432-8.903-6.614-16.664-14.559-23.159-23.545-12.385-17.132-19.662-37.617-21.809-58.59-1.106-10.803-1.116-22.154.807-32.872 1.567-8.738 8.407-15.988 17.021-18.109 4.12-1.014 8.589-.645 12.803-.603l21.889.217 71.983.713 80.842.801 56.408.559L0-3c1.929.019 1.934 3.019 0 3" clip-path="url(#b)" style="fill:#000;fill-opacity:1;fill-rule:nonzero;stroke:none" transform="matrix(1.33333 0 0 -1.33333 720.007 1012.165)"/><path d="m0 0-246.497 2.442L-492.995 0c-4.19 29.833 3.305 63.476 28.444 86.811 20.132 18.687 55.847 28.108 66.68 50.716 9.545 19.941-5.59 42.728-28.198 55.398-17.832 10.003-39.316 15.141-61.121 19.103-9.696 1.762-15.619 11.695-12.559 21.063 14.812 45.349 46.489 87.582 90.719 120.438 45.829 34.044 101.228 58.905 158.877 61.408 60.693 2.636 118.467-25.96 166.187-61.407 44.221-32.856 75.898-75.09 90.709-120.44 3.06-9.368-2.863-19.301-12.559-21.063-21.801-3.962-43.29-9.1-61.121-19.102-22.608-12.67-37.732-35.457-28.187-55.398 10.833-22.608 46.537-32.029 66.68-50.716C-3.316 63.476 4.179 29.833 0 0" clip-path="url(#c)" style="fill:#6842d5;fill-opacity:1;fill-rule:nonzero;stroke:none" transform="matrix(1.33333 0 0 -1.33333 1048.67 988.833)"/><path d="m0 0-24.608.244-58.822.583-71.124.704-61.686.611c-9.954.099-19.909.26-29.864.296-6.564.024-13.132-.122-19.695-.187l-55.801-.553-71.042-.704-63.81-.632-34.902-.346-1.641-.016 1.447-1.101c-2.846 20.746.042 42.543 9.734 61.232 4.971 9.585 11.657 18.316 19.788 25.439 7.312 6.405 15.827 11.318 24.232 16.122 14.864 8.497 33.439 17.3 41.218 33.578 8.687 18.178-2.584 37.406-16.617 49.107-17.997 15.008-42.035 21.333-64.54 25.868-5.441 1.097-11.77 1.282-16.161 5.069-3.598 3.102-5.541 7.853-5.103 12.587.46 4.979 3.022 10.184 4.84 14.798a208 208 0 0 0 6.716 15.2c20.336 41.531 53.179 75.44 91.118 101.351 39.573 27.025 85.183 46.878 133.175 51.746 24.072 2.442 48.109.453 71.497-5.73 23.07-6.098 45.065-15.792 65.786-27.553 40.71-23.106 78.167-53.407 104.477-92.49 6.171-9.168 11.715-18.763 16.503-28.725a208 208 0 0 0 6.317-14.515c1.814-4.651 4.503-10.024 4.617-15.084.111-4.937-2.329-9.748-6.408-12.546-4.462-3.061-10.651-3.239-15.814-4.291-12.191-2.485-24.329-5.53-35.936-10.061-18.854-7.361-38.597-19.848-45.488-39.993-2.887-8.438-2.505-17.561 1.576-25.539 3.885-7.595 10.397-13.466 17.222-18.392 15.502-11.187 33.969-18.135 48.323-30.943C-14.26 70.665-4.401 50.313-1.414 28.928-.026 18.992-.087 8.833-1.446-1.101c-.259-1.888 2.632-2.705 2.892-.798 2.785 20.353.372 41.402-8.354 60.109a91.2 91.2 0 0 1-18.697 26.464c-6.918 6.793-15.114 12.047-23.443 16.927-8.521 4.992-17.289 9.601-25.477 15.14-7.372 4.988-14.577 10.961-18.769 18.976-10.305 19.703 5.762 40.373 21.628 51.042 10.117 6.803 21.711 11.311 33.34 14.782 6.085 1.815 12.254 3.337 18.458 4.684 2.995.65 6 1.259 9.009 1.839 2.914.561 5.965.87 8.736 1.979 8.33 3.333 12.888 12.643 10.516 21.276-2.784 10.135-7.383 20.109-12.057 29.491-20.791 41.731-54.012 75.235-92.093 101.506-39.337 27.136-84.511 48.665-132.754 52.268-48.231 3.603-96.911-11.338-138.947-34.159-41.313-22.429-78.915-53.06-105.621-92.028-6.259-9.133-11.895-18.697-16.78-28.634a220 220 0 0 1-6.478-14.483c-1.948-4.811-4.22-9.878-5.307-14.968-1.873-8.769 3.222-17.741 11.715-20.622 2.63-.892 5.516-1.187 8.235-1.713a378 378 0 0 0 9.9-2.046c6.188-1.371 12.338-2.924 18.399-4.778 21.001-6.426 44.115-17.419 53.747-38.539 4.02-8.817 4.37-18.795-.334-27.423-4.341-7.961-11.636-13.866-19.055-18.829-16.22-10.852-34.948-18.296-48.934-32.262-15.118-15.096-24.1-35.169-26.761-56.252-1.249-9.894-1.063-19.877.291-29.747.087-.635.852-1.107 1.446-1.101l24.609.244 58.821.583 71.124.704 61.686.611c9.954.099 19.909.26 29.864.296 6.564.024 13.132-.122 19.696-.187l55.8-.553 71.042-.704 63.81-.632 34.902-.346L0-3c1.931-.019 1.933 2.981 0 3" clip-path="url(#d)" style="fill:#000;fill-opacity:1;fill-rule:nonzero;stroke:none" transform="matrix(1.33333 0 0 -1.33333 1048.67 986.833)"/><path d="M0 0c-12.13-7.456-18.175-13.5-25.63-25.63C-33.086-13.5-39.13-7.456-51.261 0-39.13 7.456-33.086 13.5-25.63 25.63-18.175 13.5-12.13 7.456 0 0" clip-path="url(#e)" style="fill:#0aff9f;fill-opacity:1;fill-rule:nonzero;stroke:none" transform="matrix(1.33333 0 0 -1.33333 505.024 924.721)"/><path d="M0 0c10.391-6.632 16.174-12.414 22.803-22.804C29.434-12.413 35.216-6.631 45.606 0c-10.39 6.63-16.172 12.413-22.803 22.803C16.174 12.414 10.391 6.631 0 0m22.803-28.495-1.279 2.079C14.193-14.486 8.319-8.612-3.612-1.278L-5.691 0l2.079 1.278C8.319 8.612 14.192 14.485 21.524 26.415l1.279 2.079 1.278-2.079C31.414 14.484 37.288 8.611 49.219 1.278L51.298 0l-2.079-1.278C37.288-8.611 31.414-14.484 24.081-26.416Z" clip-path="url(#f)" style="fill:#000;fill-opacity:1;fill-rule:nonzero;stroke:none" transform="matrix(1.33333 0 0 -1.33333 440.446 924.721)"/><path d="M0 0c-12.13-7.456-18.175-13.5-25.63-25.63C-33.086-13.5-39.13-7.456-51.261 0-39.13 7.456-33.086 13.5-25.63 25.63-18.175 13.5-12.13 7.456 0 0" clip-path="url(#g)" style="fill:#0aff9f;fill-opacity:1;fill-rule:nonzero;stroke:none" transform="matrix(1.33333 0 0 -1.33333 1011.69 924.721)"/><path d="M0 0c10.391-6.632 16.174-12.414 22.803-22.804C29.434-12.413 35.216-6.631 45.606 0c-10.39 6.63-16.172 12.413-22.803 22.803C16.174 12.414 10.391 6.631 0 0m22.803-28.495-1.279 2.079C14.193-14.486 8.319-8.612-3.612-1.278L-5.691 0l2.079 1.278C8.319 8.612 14.192 14.485 21.524 26.415l1.279 2.079 1.278-2.079C31.414 14.484 37.288 8.611 49.219 1.278L51.298 0l-2.079-1.278C37.288-8.611 31.414-14.484 24.081-26.416Z" clip-path="url(#h)" style="fill:#000;fill-opacity:1;fill-rule:nonzero;stroke:none" transform="matrix(1.33333 0 0 -1.33333 947.112 924.721)"/><path d="m0 0 8.19-16.594a17.03 17.03 0 0 1 12.824-9.317l18.312-2.661c13.971-2.03 19.549-19.198 9.44-29.052L35.515-70.541a17.04 17.04 0 0 1-4.899-15.076l3.129-18.238c2.386-13.914-12.218-24.524-24.714-17.955l-16.379 8.611a17.03 17.03 0 0 1-15.851 0l-16.379-8.611c-12.496-6.569-27.1 4.041-24.714 17.955l3.129 18.238a17.04 17.04 0 0 1-4.899 15.076l-13.251 12.917c-10.109 9.854-4.531 27.022 9.44 29.052l18.312 2.661a17.03 17.03 0 0 1 12.824 9.317L-30.547 0C-24.299 12.659-6.248 12.659 0 0" clip-path="url(#i)" style="fill:#ffe30d;fill-opacity:1;fill-rule:nonzero;stroke:none" transform="matrix(1.33333 0 0 -1.33333 740.57 358.953)"/><path d="m0 0 7.736-15.675c1.855-3.759 4.499-6.948 8.254-8.95 2.967-1.582 6.099-2.002 9.352-2.474l11.048-1.606c2.668-.387 5.451-.615 7.957-1.675 8.257-3.491 11.841-13.947 7.47-21.768-1.37-2.451-3.459-4.284-5.444-6.219l-7.997-7.795c-2.297-2.239-4.631-4.379-6.126-7.284-2.12-4.121-2.359-8.464-1.591-12.945.978-5.701 2.016-11.395 2.934-17.106 1.615-10.04-7.174-19.306-17.347-17.928-2.962.402-5.469 1.828-8.058 3.19l-9.872 5.189c-2.886 1.518-5.712 3.186-8.975 3.753-4.695.817-8.997-.274-13.135-2.45-5.181-2.723-10.319-5.555-15.554-8.173-9.158-4.579-20.474 1.273-22.21 11.319-.498 2.883.109 5.689.594 8.519l1.887 11.003c.557 3.242 1.223 6.41.754 9.723-.637 4.497-2.914 8.222-6.117 11.344-4.171 4.066-8.377 8.099-12.514 12.198-6.515 6.457-6.133 17.215.912 23.153 2.591 2.184 5.718 3.084 9 3.561l10.207 1.483c2.444.355 4.902.658 7.337 1.07 5.734.971 10.741 4.777 13.352 9.949 2.616 5.182 5.139 10.413 7.708 15.619 1.511 3.061 3.429 5.735 6.413 7.522 3.702 2.216 8.246 2.776 12.39 1.601C-5.354 6.933-1.989 3.944 0 0c.87-1.724 3.458-.207 2.59 1.514-4.442 8.809-15.126 12.577-24.147 8.637-3.986-1.741-7.122-4.905-9.058-8.775-1.32-2.638-2.612-5.291-3.917-7.937-1.357-2.748-2.706-5.501-4.07-8.246-2.264-4.556-6.289-7.819-11.327-8.778-5.953-1.132-12.037-1.765-18.033-2.636-3.692-.537-7.061-1.755-9.985-4.136-3.55-2.89-5.887-7.206-6.526-11.722-.653-4.613.408-9.407 3.143-13.208 1.634-2.271 3.798-4.148 5.793-6.092l8.024-7.822c.561-.547 1.127-1.088 1.682-1.64 2.256-2.244 3.789-5.032 4.422-8.155.665-3.281-.078-6.47-.631-9.695l-1.882-10.973c-.56-3.262-1.111-6.406-.529-9.731.874-4.992 3.991-9.417 8.212-12.165 4.286-2.79 9.674-3.685 14.624-2.392 2.868.748 5.473 2.331 8.078 3.701l9.831 5.168c.841.443 1.679.893 2.524 1.328a15.8 15.8 0 0 0 8.668 1.706c3.518-.315 6.459-2.085 9.503-3.685l10.021-5.269c2.963-1.557 5.842-3.023 9.236-3.422 4.956-.582 9.938 1.031 13.79 4.153 3.98 3.226 6.433 8.072 6.733 13.177.173 2.95-.548 5.942-1.045 8.837L33.816-87.13c-.65 3.787-1.001 7.417.529 11.111 1.319 3.184 3.753 5.396 6.153 7.735l8.14 7.935c2.16 2.106 4.37 4.129 5.841 6.815 2.263 4.134 2.817 9.056 1.61 13.606-1.193 4.496-4.074 8.476-8.01 10.962-2.787 1.761-5.859 2.423-9.058 2.888l-10.974 1.594c-2.825.411-5.859.616-8.565 1.572-4.293 1.517-7.193 4.774-9.156 8.751L5.707-4.8 2.59 1.514C1.736 3.245-.852 1.727 0 0" clip-path="url(#j)" style="fill:#000;fill-opacity:1;fill-rule:nonzero;stroke:none" transform="matrix(1.33333 0 0 -1.33333 738.843 359.963)"/><path d="M42.856 0h-16.98q-3.762 0-3.762-3.773V-55.22H6.704q-3.774 0-3.773-3.773v-12.68q-.001-3.772 3.773-3.773h55.324q3.773.002 3.774 3.773v12.68q-.001 3.774-3.774 3.773H46.63v51.446Q46.628 0 42.856 0M93.15-3.773Q93.148 0 89.377 0H73.979q-3.775 0-3.774-3.773V-31.43q0-3.15.996-7.23.994-4.088 3.094-9.54L83.4-71.976q1.16-3.467 5.344-3.468h28.184q4.087 0 5.25 3.468l9.105 23.778q2.097 5.45 3.094 9.539.995 4.08.996 7.23v27.657Q135.371 0 131.6 0h-15.82q-4.091 0-4.09-3.773v-14.672H93.15Zm5.977-49.665-4.934 15.926h16.453l-4.921-15.926q-.74-1.78-1.993-1.78h-2.625q-1.255 0-1.98 1.78M168.279 0h-16.242q-3.773 0-3.773-3.773v-67.899q0-3.772 3.773-3.773H184.1q9.526.001 14.918 2.578 5.4 2.565 7.605 7.172 2.202 4.605 2.203 10.687v13.406q0 6.084-2.203 10.7-2.205 4.605-7.605 7.172-5.392 2.566-14.918 2.566h-12.047v17.39Q172.052.002 168.279 0m3.563-55.852v15.832h9.422q3.044.002 3.984-1.57.95-1.58.95-3.574v-5.543q0-2.097-.95-3.621-.94-1.522-3.984-1.524zM272.107 0h-48.609q-3.774 0-3.773-3.773v-67.899q-.001-3.772 3.773-3.773h48.61q3.771.002 3.773 3.773v12.258q-.001 3.774-3.774 3.773h-28.91v8.075h20.426q3.772.002 3.773 3.773v11.203q-.002 3.775-3.773 3.774h-20.426v9.011h28.91q3.773.002 3.774 3.774v12.258Q275.88 0 272.107 0m0 0" aria-label="tape" style="fill:#0aff9f;fill-opacity:1;fill-rule:nonzero;stroke:none" transform="translate(532.678 965.734)scale(1.33333)"/><path d="M0 0v51.446h15.403q3.772 0 3.772 3.773v12.678q0 3.772-3.772 3.772h-55.324q-3.772 0-3.772-3.772V55.219q0-3.773 3.772-3.773h15.402V0q0-3.772 3.773-3.772h16.974Q0-3.772 0 0Z" clip-path="url(#k)" style="fill:none;stroke:#000;stroke-width:3;stroke-linecap:butt;stroke-linejoin:miter;stroke-miterlimit:10;stroke-dasharray:none;stroke-opacity:1" transform="matrix(1.33333 0 0 -1.33333 594.848 960.704)"/><path d="M0 0h18.546v-14.669q0-3.772 4.086-3.772h15.822q3.773 0 3.773 3.772v27.661q0 3.144-.996 7.231-.997 4.084-3.091 9.535l-9.116 23.784Q27.87 57 23.785 57H-4.401q-4.192 0-5.344-3.458l-9.115-23.784q-2.098-5.45-3.092-9.535-.995-4.087-.995-7.231v-27.661q0-3.772 3.772-3.772h15.403Q0-18.441 0-14.669zm7.963 36.777h2.62q1.256 0 1.991-1.781l4.924-15.926H1.048l4.925 15.926q.732 1.782 1.99 1.781z" clip-path="url(#l)" style="fill:none;stroke:#000;stroke-width:3;stroke-linecap:butt;stroke-linejoin:miter;stroke-miterlimit:10;stroke-dasharray:none;stroke-opacity:1" transform="matrix(1.33333 0 0 -1.33333 656.878 941.146)"/><path d="M0 0v17.394h12.05q9.533-.001 14.931 2.566 5.396 2.566 7.597 7.178 2.2 4.61 2.2 10.687v13.412q0 6.075-2.2 10.688-2.201 4.61-7.597 7.177-5.399 2.567-14.931 2.567h-32.063q-3.771 0-3.772-3.772V0q0-3.772 3.772-3.772h16.241Q0-3.772 0 0Zm9.221 52.075q3.038-.001 3.982-1.519.942-1.52.943-3.615v-5.553q0-1.992-.943-3.563-.944-1.572-3.982-1.571h-9.43v15.821z" clip-path="url(#m)" style="fill:none;stroke:#000;stroke-width:3;stroke-linecap:butt;stroke-linejoin:miter;stroke-miterlimit:10;stroke-dasharray:none;stroke-opacity:1" transform="matrix(1.33333 0 0 -1.33333 762.075 960.704)"/><path d="M0 0v12.259q0 3.771-3.772 3.772h-28.919v9.011h20.432q3.771 0 3.772 3.772v11.211q0 3.773-3.772 3.773h-20.432v8.068h28.919Q0 51.866 0 55.638v12.259q0 3.772-3.772 3.772H-52.39q-3.772 0-3.772-3.772V0q0-3.772 3.772-3.772h48.618Q0-3.772 0 0Z" clip-path="url(#n)" style="fill:none;stroke:#000;stroke-width:3;stroke-linecap:butt;stroke-linejoin:miter;stroke-miterlimit:10;stroke-dasharray:none;stroke-opacity:1" transform="matrix(1.33333 0 0 -1.33333 900.524 960.704)"/><path d="M30.082-.001H4.136Q2.178.001 2.18-1.958v-9.375q0-4.254 1.09-6.54 1.09-2.284 3.023-3.456 1.934-1.171 4.442-1.945l7.3-2.286q.879-.267 1.173-.68.303-.407.304-1.277-.001-.818-.328-1.113-.33-.304-1.148-.305H6.21q-1.958 0-1.957-1.968v-6.375q-.002-1.957 1.957-1.957h16.08q4.685 0 7.136 2.32 2.449 2.31 2.45 6.726v5.122q-.002 4.139-2.262 6.27-2.262 2.122-6.235 3.374l-7.418 2.344q-.808.224-1.113.469-.293.236-.293 1.171v1.137h15.528q1.956 0 1.957 1.969v6.375Q32.038.001 30.082-.001m41.197-10.3q0 2.51-.738 4.558-.739 2.04-2.567 3.515-1.82 1.469-5.062 2.25-3.248.796-8.25.797-5.018 0-8.286-.797-3.27-.781-5.097-2.25-1.828-1.476-2.567-3.515-.727-2.048-.726-4.559v-18.574q-.002-2.506.726-4.547.739-2.048 2.567-3.515 1.828-1.477 5.097-2.297 3.268-.819 8.286-.82 5.002.001 8.25.82 3.244.82 5.062 2.297 1.828 1.467 2.567 3.515.738 2.041.738 4.547zM50.302-12.26q0 1.09.785 1.828.783.729 3.575.727 2.82.002 3.586-.727.773-.738.773-1.828v-14.66q0-1.09-.773-1.793-.766-.714-3.586-.715-2.791.001-3.575.715-.785.703-.785 1.793zm0 0" aria-label="20" style="fill:#0aff9f;fill-opacity:1;fill-rule:nonzero;stroke:none" transform="translate(671.594 472.501)scale(1.33333)"/><path d="M0 0v6.376q0 1.962-1.962 1.962h-15.532v1.144q0 .927.3 1.172.299.245 1.117.463l7.412 2.343q3.977 1.254 6.24 3.379 2.26 2.126 2.261 6.267v5.123q0 4.414-2.452 6.73t-7.139 2.316h-16.077q-1.96 0-1.961-1.962v-6.376q0-1.961 1.961-1.961h11.826q.818 0 1.145-.3t.327-1.117q0-.873-.3-1.281-.3-.41-1.172-.681l-7.302-2.289q-2.507-.764-4.442-1.934-1.935-1.172-3.024-3.461-1.09-2.29-1.09-6.539V0q0-1.962 1.962-1.962h25.94Q0-1.962 0 0Z" clip-path="url(#o)" style="fill:none;stroke:#000;stroke-width:3;stroke-linecap:butt;stroke-linejoin:miter;stroke-miterlimit:10;stroke-dasharray:none;stroke-opacity:1" transform="matrix(1.33333 0 0 -1.33333 714.32 469.885)"/><path d="M0 0q0 2.507-.736 4.551-.735 2.043-2.561 3.514-1.827 1.472-5.068 2.289-3.243.818-8.257.818t-8.283-.818T-30 8.065t-2.562-3.514q-.735-2.045-.735-4.551v-18.583q0-2.507.735-4.55.736-2.044 2.562-3.515t5.095-2.262q3.27-.79 8.283-.79 5.014 0 8.257.79 3.241.79 5.068 2.262t2.561 3.515Q0-21.09 0-18.583zm-20.981-1.961q0 1.089.79 1.798.79.708 3.569.708 2.833 0 3.598-.708.762-.71.762-1.798v-14.66q0-1.09-.762-1.826-.765-.735-3.598-.736-2.779 0-3.569.736a2.4 2.4 0 0 0-.79 1.826z" clip-path="url(#p)" style="fill:none;stroke:#000;stroke-width:3;stroke-linecap:butt;stroke-linejoin:miter;stroke-miterlimit:10;stroke-dasharray:none;stroke-opacity:1" transform="matrix(1.33333 0 0 -1.33333 766.635 433.99)"/><path d="M0 0h-322.47c-11.586 0-20.979 9.392-20.979 20.979V205.59c0 11.586 9.393 20.978 20.979 20.978H0c11.586 0 20.979-9.392 20.979-20.978V20.979C20.979 9.392 11.586 0 0 0" clip-path="url(#q)" style="fill:#3bb4fb;fill-opacity:1;fill-rule:nonzero;stroke:none" transform="matrix(1.33333 0 0 -1.33333 935.805 841.572)"/><path d="M0 0h-312.474c-3.148 0-6.296-.005-9.444 0-11.027.019-19.952 8.527-20.031 19.664-.029 4.186 0 8.373 0 12.559v163.45c0 4.335-.473 9.215.653 13.438 2.267 8.498 10.089 14.372 18.828 14.457.556.006 1.113 0 1.67 0H-3.707c1.073 0 2.147.003 3.221 0 4.188-.008 8.191-1.104 11.654-3.512 5.311-3.692 8.285-9.798 8.311-16.208.005-1.389 0-2.779 0-4.168V21.108c0-2.166-.053-4.287-.594-6.414C16.694 6.07 8.835.105 0 0c-1.929-.023-1.934-3.023 0-3 8.8.105 16.938 5.238 20.529 13.336 1.454 3.278 1.95 6.732 1.95 10.281V199.68c0 1.399.009 2.798 0 4.197-.042 6.417-2.624 12.617-7.446 16.92-4.226 3.772-9.606 5.735-15.25 5.771-.905.006-1.809 0-2.714 0h-318.067c-.829 0-1.661.016-2.489-.024-8.752-.418-16.575-5.994-19.851-14.112-2.021-5.008-1.611-10.443-1.611-15.726V32.321c0-4.223-.03-8.447 0-12.67.09-12.548 10.199-22.603 22.741-22.651 2.844-.011 5.688 0 8.532 0H0c1.93 0 1.934 3 0 3" clip-path="url(#r)" style="fill:#000;fill-opacity:1;fill-rule:nonzero;stroke:none" transform="matrix(1.33333 0 0 -1.33333 935.805 839.572)"/><path d="M0 0h-252.642c-5.71 0-10.339 4.629-10.339 10.339v26.074c0 5.71 4.629 10.339 10.339 10.339H0c5.71 0 10.339-4.629 10.339-10.339V10.339C10.339 4.629 5.71 0 0 0" clip-path="url(#s)" style="fill:#ff3342;fill-opacity:1;fill-rule:nonzero;stroke:none" transform="matrix(1.33333 0 0 -1.33333 891.15 845.967)"/><path d="M0 0h-251.623c-3.628 0-6.997 1.304-8.826 4.688-1.124 2.08-1.032 4.29-1.032 6.558v9.274c0 4.913-.181 9.862.007 14.772.181 4.73 4.172 8.387 8.833 8.46.216.004.433 0 .649 0h241.77c3.391 0 6.784.046 10.175 0 3.409-.045 6.51-1.914 8.018-5.004 1.007-2.064.868-4.276.868-6.495V13.119c0-1.55.053-3.109-.006-4.659C8.652 3.723 4.661.084 0 0c-1.928-.035-1.934-3.035 0-3 4.992.09 9.392 3.138 11.139 7.833.812 2.182.7 4.473.7 6.753v19.455c0 1.837.124 3.74-.134 5.566-.681 4.826-4.464 8.928-9.268 9.889-1.487.298-2.961.256-4.463.256h-250.057c-5.314 0-10.1-3.012-11.817-8.172-.71-2.132-.581-4.38-.581-6.591V12.514c0-1.958-.136-3.997.22-5.932C-263.189.754-257.917-2.987-252.18-3c4.327-.01 8.656 0 12.983 0H0c1.93 0 1.934 3 0 3" clip-path="url(#t)" style="fill:#000;fill-opacity:1;fill-rule:nonzero;stroke:none" transform="matrix(1.33333 0 0 -1.33333 891.15 843.967)"/><path d="M723.282 547.72H358.255v68.93h365.027z" clip-path="url(#u)" style="fill:#0aff9f;fill-opacity:1;fill-rule:nonzero;stroke:none" transform="matrix(1.33333 0 0 -1.33333 0 1440)"/><path d="M0 0h-350.209c-4.678 0-9.53.372-14.197 0-.204-.016-.416 0-.621 0l1.5-1.5v68.93l-1.5-1.5h350.21c4.677 0 9.529-.373 14.196 0 .204.016.416 0 .621 0l-1.5 1.5V-1.5c0-1.93 3-1.934 3 0v68.93c0 .81-.687 1.5-1.5 1.5h-350.209c-4.73 0-9.468.088-14.197 0-.207-.004-.414 0-.621 0-.811 0-1.5-.688-1.5-1.5V-1.5c0-.811.687-1.5 1.5-1.5h350.21c4.729 0 9.468-.089 14.196 0 .207.004.414 0 .621 0 1.93 0 1.934 3 0 3" clip-path="url(#v)" style="fill:#000;fill-opacity:1;fill-rule:nonzero;stroke:none" transform="matrix(1.33333 0 0 -1.33333 964.376 707.707)"/><path d="M0 0v-101.893c0-9.604-7.781-17.386-17.386-17.386h-273.32c-9.597 0-17.378 7.782-17.378 17.386V0c0 9.597 7.781 17.386 17.378 17.386h273.32C-7.781 17.386 0 9.597 0 0" clip-path="url(#w)" style="fill:#ffe30d;fill-opacity:1;fill-rule:nonzero;stroke:none" transform="matrix(1.33333 0 0 -1.33333 928.114 602.617)"/><path d="M0 0v-87.832c0-4.51.008-9.021 0-13.531-.017-8.99-6.849-16.335-15.976-16.416-5.733-.05-11.47 0-17.203 0h-253.184c-3.061 0-6-.015-8.928 1.197-5.925 2.453-9.727 8.332-9.793 14.694-.01.923 0 1.847 0 2.771v94.061c0 1.54-.004 3.08 0 4.621.009 4.025 1.256 7.901 3.967 10.942 3.084 3.459 7.398 5.339 12.014 5.379.558.004 1.117 0 1.676 0h251.438c6.555 0 13.11.014 19.666 0C-7.421 15.866-.109 9.021 0 0c.023-1.929 3.023-1.934 3 0-.127 10.519-8.673 18.848-19.149 18.886-2 .007-4.001 0-6.001 0h-265.743c-6.253 0-12.13-2.128-16.11-7.177-2.733-3.466-4.069-7.663-4.081-12.058-.005-1.475 0-2.949 0-4.424v-94.663c0-1.102-.033-2.211.02-3.312.316-6.518 4.051-12.584 9.796-15.716 3.626-1.977 7.45-2.315 11.438-2.315h266.462c1.49 0 2.981-.015 4.471 0 10.647.112 18.874 8.782 18.897 19.321.029 13.022 0 26.045 0 39.067V0c0 1.93-3 1.934-3 0" clip-path="url(#x)" style="fill:#000;fill-opacity:1;fill-rule:nonzero;stroke:none" transform="matrix(1.33333 0 0 -1.33333 926.114 602.617)"/><path d="M0 0c0-8.441-6.843-15.284-15.284-15.284S-30.569-8.441-30.569 0s6.843 15.284 15.285 15.284S0 8.441 0 0" clip-path="url(#y)" style="fill:#ff8fdd;fill-opacity:1;fill-rule:nonzero;stroke:none" transform="matrix(1.33333 0 0 -1.33333 598.75 815.332)"/><path d="M0 0c-.064-5.691-3.594-10.982-9.006-12.938a13.96 13.96 0 0 0-15.407 4.151c-3.714 4.43-4.15 10.952-1.189 15.885 2.947 4.91 8.865 7.582 14.499 6.429C-4.67 12.211-.074 6.54 0 0c.022-1.929 3.022-1.934 3 0-.079 7.035-4.448 13.315-11.052 15.775-6.551 2.439-14.296.307-18.69-5.118-4.407-5.441-5.082-13.228-1.451-19.269 3.645-6.064 10.796-9.177 17.721-7.84C-2.665-14.945 2.912-7.855 3 0 3.022 1.931.022 1.932 0 0" clip-path="url(#z)" style="fill:#000;fill-opacity:1;fill-rule:nonzero;stroke:none" transform="matrix(1.33333 0 0 -1.33333 596.75 815.332)"/><path d="M0 0a7.492 7.492 0 1 0-14.985.001A7.492 7.492 0 0 0 0 0" clip-path="url(#A)" style="fill:#feffff;fill-opacity:1;fill-rule:nonzero;stroke:none" transform="matrix(1.33333 0 0 -1.33333 588.36 815.332)"/><path d="M0 0c-.034-2.46-1.541-4.771-3.891-5.618-2.429-.875-5.178-.139-6.799 1.885-1.546 1.93-1.707 4.699-.443 6.814 1.253 2.097 3.759 3.268 6.177 2.828C-2.09 5.387-.04 2.894 0 0c.026-1.929 3.027-1.934 3 0a9.13 9.13 0 0 1-5.907 8.442c-3.465 1.315-7.617.197-9.966-2.663-2.395-2.917-2.805-7.102-.851-10.374 1.953-3.269 5.751-4.893 9.466-4.224C-.051-8.062 2.942-4.198 3 0 3.026 1.931.027 1.932 0 0" clip-path="url(#B)" style="fill:#000;fill-opacity:1;fill-rule:nonzero;stroke:none" transform="matrix(1.33333 0 0 -1.33333 586.36 815.332)"/><path d="M0 0c0-8.441-6.843-15.284-15.284-15.284S-30.569-8.441-30.569 0s6.843 15.284 15.285 15.284S0 8.441 0 0" clip-path="url(#C)" style="fill:#ff8fdd;fill-opacity:1;fill-rule:nonzero;stroke:none" transform="matrix(1.33333 0 0 -1.33333 888.764 815.332)"/><path d="M0 0c-.064-5.691-3.594-10.982-9.006-12.938a13.96 13.96 0 0 0-15.407 4.151c-3.714 4.43-4.15 10.952-1.189 15.885 2.947 4.91 8.865 7.582 14.499 6.429C-4.67 12.211-.074 6.54 0 0c.022-1.929 3.022-1.934 3 0-.079 7.035-4.448 13.315-11.052 15.775-6.551 2.439-14.296.307-18.69-5.118-4.407-5.441-5.082-13.228-1.451-19.269 3.645-6.064 10.796-9.177 17.721-7.84C-2.665-14.945 2.912-7.855 3 0 3.022 1.931.022 1.932 0 0" clip-path="url(#D)" style="fill:#000;fill-opacity:1;fill-rule:nonzero;stroke:none" transform="matrix(1.33333 0 0 -1.33333 886.764 815.332)"/><path d="M0 0a7.492 7.492 0 1 0-14.985.001A7.492 7.492 0 0 0 0 0" clip-path="url(#E)" style="fill:#feffff;fill-opacity:1;fill-rule:nonzero;stroke:none" transform="matrix(1.33333 0 0 -1.33333 878.375 815.332)"/><path d="M0 0c-.034-2.46-1.541-4.771-3.891-5.618-2.428-.875-5.178-.139-6.799 1.885-1.546 1.93-1.707 4.699-.443 6.814 1.253 2.097 3.76 3.268 6.177 2.828C-2.09 5.387-.04 2.894 0 0c.026-1.929 3.027-1.934 3 0a9.13 9.13 0 0 1-5.907 8.442c-3.465 1.315-7.617.197-9.966-2.663-2.395-2.917-2.805-7.102-.851-10.374 1.953-3.269 5.751-4.893 9.466-4.224C-.051-8.062 2.942-4.198 3 0 3.027 1.931.027 1.932 0 0" clip-path="url(#F)" style="fill:#000;fill-opacity:1;fill-rule:nonzero;stroke:none" transform="matrix(1.33333 0 0 -1.33333 876.375 815.332)"/><path d="M0 0v-23.375h-308.084V0c0 9.597 7.781 17.386 17.378 17.386h273.32C-7.781 17.386 0 9.597 0 0" clip-path="url(#G)" style="fill:#ff3342;fill-opacity:1;fill-rule:nonzero;stroke:none" transform="matrix(1.33333 0 0 -1.33333 928.114 602.617)"/><path d="M0 0v-23.375l1.5 1.5h-295.578c-3.958 0-8.032.281-11.982 0-.173-.012-.351 0-.524 0l1.5-1.5v17.586c0 2.071-.05 4.148.005 6.217.137 5.202 2.899 10.133 7.29 12.939 4.851 3.1 10.531 2.519 16.004 2.519H-23.09c5.714 0 11.488.565 16.457-2.965C-2.453 9.952-.061 5.088 0 0c.023-1.929 3.023-1.934 3 0-.125 10.371-8.517 18.778-18.897 18.886-1.003.01-2.006 0-3.009 0h-259.27c-3.671 0-7.344.038-11.014 0-10.064-.104-18.514-8.125-18.881-18.245-.217-5.97-.013-11.982-.013-17.956v-6.06c0-.811.687-1.5 1.5-1.5h295.578c3.991 0 7.991-.076 11.982 0 .175.004.35 0 .524 0 .811 0 1.5.688 1.5 1.5V0c0 1.93-3 1.934-3 0" clip-path="url(#H)" style="fill:#000;fill-opacity:1;fill-rule:nonzero;stroke:none" transform="matrix(1.33333 0 0 -1.33333 926.114 602.617)"/><path d="M605.203 517.151H473.937v23.976h131.266z" clip-path="url(#I)" style="fill:#3bb4fb;fill-opacity:1;fill-rule:nonzero;stroke:none" transform="matrix(1.33333 0 0 -1.33333 0 1440)"/><path d="M0 0h-125.896c-1.665 0-3.489.212-5.145 0-.072-.009-.151 0-.225 0l1.5-1.5v23.976l-1.5-1.5H-5.37c1.665 0 3.489-.212 5.145 0 .072.009.152 0 .225 0l-1.5 1.5V-1.5c0-1.93 3-1.934 3 0v23.976c0 .81-.687 1.5-1.5 1.5h-115.063c-5.312 0-10.668.201-15.978 0-.074-.003-.15 0-.225 0-.811 0-1.5-.688-1.5-1.5V-1.5c0-.811.687-1.5 1.5-1.5h115.063c5.312 0 10.669-.202 15.978 0 .075.003.15 0 .225 0 1.93 0 1.934 3 0 3" clip-path="url(#J)" style="fill:#000;fill-opacity:1;fill-rule:nonzero;stroke:none" transform="matrix(1.33333 0 0 -1.33333 806.937 748.465)"/><path d="M605.203 576.124H473.937v23.975h131.266z" clip-path="url(#K)" style="fill:#3bb4fb;fill-opacity:1;fill-rule:nonzero;stroke:none" transform="matrix(1.33333 0 0 -1.33333 0 1440)"/><path d="M0 0h-125.896c-1.665 0-3.489.212-5.145 0-.072-.009-.151 0-.225 0l1.5-1.5v23.975l-1.5-1.5H-5.37c1.665 0 3.489-.212 5.145 0 .072.01.152 0 .225 0l-1.5 1.5V-1.5c0-1.93 3-1.934 3 0v23.975c0 .811-.687 1.5-1.5 1.5h-115.063c-5.312 0-10.668.202-15.978 0h-.225c-.811 0-1.5-.687-1.5-1.5V-1.5c0-.811.687-1.5 1.5-1.5h115.063c5.312 0 10.669-.202 15.978 0 .075.003.15 0 .225 0 1.93 0 1.934 3 0 3" clip-path="url(#L)" style="fill:#000;fill-opacity:1;fill-rule:nonzero;stroke:none" transform="matrix(1.33333 0 0 -1.33333 806.937 669.834)"/><path d="M0 0c0-26.483-21.468-47.951-47.951-47.951S-95.902-26.483-95.902 0s21.468 47.951 47.951 47.951S0 26.483 0 0" clip-path="url(#M)" style="fill:#000;fill-opacity:1;fill-rule:nonzero;stroke:none" transform="matrix(1.33333 0 0 -1.33333 663.084 694.522)"/><path d="M0 0c0-9.931-8.051-17.982-17.982-17.982S-35.963-9.931-35.963 0s8.05 17.982 17.981 17.982S0 9.931 0 0" clip-path="url(#N)" style="fill:#ff8fdd;fill-opacity:1;fill-rule:nonzero;stroke:none" transform="matrix(1.33333 0 0 -1.33333 623.125 694.522)"/><path d="M0 0c-.065-6.848-4.362-13.204-10.883-15.511-6.549-2.316-13.912-.287-18.348 5.056-4.404 5.305-4.914 13.077-1.371 18.961 3.527 5.857 10.58 9.031 17.304 7.672C-5.606 14.622-.075 7.821 0 0c.018-1.929 3.018-1.934 3 0-.078 8.138-5.144 15.431-12.774 18.29-7.584 2.842-16.552.422-21.682-5.838-5.184-6.325-5.98-15.424-1.736-22.472 4.222-7.012 12.512-10.625 20.526-9.084C-3.603-17.36 2.913-9.133 3 0 3.018 1.931.018 1.933 0 0" clip-path="url(#O)" style="fill:#000;fill-opacity:1;fill-rule:nonzero;stroke:none" transform="matrix(1.33333 0 0 -1.33333 621.125 694.522)"/><path d="M0 0c0-26.483-21.468-47.951-47.951-47.951S-95.902-26.483-95.902 0s21.468 47.951 47.951 47.951S0 26.483 0 0" clip-path="url(#P)" style="fill:#000;fill-opacity:1;fill-rule:nonzero;stroke:none" transform="matrix(1.33333 0 0 -1.33333 908.167 694.522)"/><path d="M0 0c0-9.931-8.051-17.982-17.982-17.982S-35.963-9.931-35.963 0s8.05 17.982 17.981 17.982S0 9.931 0 0" clip-path="url(#Q)" style="fill:#ff8fdd;fill-opacity:1;fill-rule:nonzero;stroke:none" transform="matrix(1.33333 0 0 -1.33333 865.144 694.522)"/><path d="M0 0c-.065-6.848-4.362-13.204-10.883-15.511-6.549-2.316-13.912-.287-18.348 5.056-4.404 5.305-4.914 13.077-1.371 18.961 3.527 5.857 10.58 9.031 17.304 7.672C-5.606 14.622-.075 7.821 0 0c.018-1.929 3.018-1.934 3 0-.078 8.138-5.144 15.431-12.774 18.29-7.584 2.842-16.552.422-21.682-5.838-5.184-6.325-5.98-15.424-1.736-22.472 4.222-7.012 12.512-10.625 20.526-9.084C-3.603-17.36 2.913-9.133 3 0 3.018 1.931.018 1.933 0 0" clip-path="url(#R)" style="fill:#000;fill-opacity:1;fill-rule:nonzero;stroke:none" transform="matrix(1.33333 0 0 -1.33333 863.144 694.522)"/><path d="M0 0h-161.778c-2.97 0-5.939-.01-8.908 0-12.271.041-23.396 8.131-26.876 19.977-4.012 13.66 3.263 28.764 16.628 33.881 4.695 1.797 9.388 1.882 14.281 1.882H-1.089c2.077 0 4.144-.072 6.193-.461 6.785-1.289 12.987-5.079 17.148-10.61 8.647-11.494 6.966-28.053-3.732-37.629C13.438 2.491 6.799.04 0 0c-1.93-.011-1.934-3.011 0-3 14.726.086 27.884 10.849 30.392 25.472 2.501 14.58-5.785 29.118-19.641 34.338C5.859 58.653.89 58.74-4.215 58.74h-166.151c-11.186-.008-21.693-5.788-27.279-15.574-7.299-12.787-4.322-29.592 7.046-38.994A31.23 31.23 0 0 1-170.825-3c.658-.003 1.316 0 1.973 0H0c1.93 0 1.934 3 0 3" clip-path="url(#S)" style="fill:#000;fill-opacity:1;fill-rule:nonzero;stroke:none" transform="matrix(1.33333 0 0 -1.33333 835.264 730.883)"/><path d="M0 0a7.22 7.22 0 0 0-7.222 7.222v99.11a7.222 7.222 0 0 0 14.444 0V7.222A7.22 7.22 0 0 0 0 0" clip-path="url(#T)" style="fill:#feffff;fill-opacity:1;fill-rule:nonzero;stroke:none" transform="matrix(1.33333 0 0 -1.33333 496.815 744.093)"/><path d="M0 0c-3.173 0-5.662 2.605-5.722 5.729-.006.327 0 .654 0 .981v96.063c0 2.056-.106 4.03 1.343 5.746 2.265 2.681 6.492 2.673 8.758 0 .965-1.139 1.335-2.522 1.343-3.984.009-1.65 0-3.3 0-4.951V17.933c0-4.065.077-8.139 0-12.204C5.661 2.548 3.172.076 0 0c-1.927-.046-1.934-3.046 0-3 5.169.123 8.722 4.247 8.722 9.273v97.212c0 .431.008.863 0 1.294-.054 2.935-1.424 5.622-3.86 7.291-3.111 2.131-7.363 1.893-10.292-.427-2.124-1.682-3.247-4.211-3.292-6.894-.024-1.451 0-2.904 0-4.355V8.276c0-1.887-.127-3.81.559-5.611C-6.883-.695-3.612-3 0-3c1.93 0 1.934 3 0 3" clip-path="url(#U)" style="fill:#000;fill-opacity:1;fill-rule:nonzero;stroke:none" transform="matrix(1.33333 0 0 -1.33333 496.815 742.093)"/><path d="M0 0a7.22 7.22 0 0 0-7.222 7.222V12.7a7.222 7.222 0 0 0 14.444 0V7.222A7.22 7.22 0 0 0 0 0" clip-path="url(#V)" style="fill:#feffff;fill-opacity:1;fill-rule:nonzero;stroke:none" transform="matrix(1.33333 0 0 -1.33333 496.815 783.936)"/><path d="M0 0c-1.771 0-3.49.838-4.563 2.255-.899 1.188-1.159 2.537-1.159 3.987v4.028c0 1.27.046 2.476.676 3.629 1.844 3.375 6.502 4.032 9.182 1.255 2.053-2.127 1.586-5.22 1.586-7.924 0-1.415.055-2.789-.614-4.093C4.116 1.2 2.158.041 0 0c-1.928-.036-1.934-3.036 0-3 4.991.094 8.708 4.099 8.722 9.025.009 3.382.516 7.244-1.568 10.155-3.085 4.309-9.379 4.993-13.229 1.278-1.716-1.657-2.617-3.949-2.647-6.316-.018-1.444 0-2.89 0-4.334 0-2.123.251-4.158 1.494-5.96C-5.593-1.522-2.895-3 0-3c1.93 0 1.934 3 0 3" clip-path="url(#W)" style="fill:#000;fill-opacity:1;fill-rule:nonzero;stroke:none" transform="matrix(1.33333 0 0 -1.33333 496.815 781.936)"/><path d="M0 0a7.22 7.22 0 0 0-7.222 7.222v99.11a7.222 7.222 0 0 0 14.444 0V7.222A7.22 7.22 0 0 0 0 0" clip-path="url(#X)" style="fill:#feffff;fill-opacity:1;fill-rule:nonzero;stroke:none" transform="matrix(1.33333 0 0 -1.33333 945.164 781.857)"/><path d="M0 0c-3.173 0-5.662 2.605-5.722 5.729-.006.327 0 .654 0 .981v96.063c0 2.056-.106 4.03 1.343 5.746 2.265 2.681 6.492 2.673 8.757 0 .966-1.139 1.336-2.522 1.344-3.984.009-1.65 0-3.3 0-4.95V17.933c0-4.065.077-8.139 0-12.204C5.661 2.548 3.172.076 0 0c-1.927-.046-1.934-3.046 0-3 5.169.123 8.722 4.247 8.722 9.273v97.212c0 .431.007.863 0 1.294-.054 2.935-1.424 5.622-3.86 7.291-3.111 2.131-7.363 1.893-10.292-.427-2.124-1.681-3.247-4.211-3.292-6.894-.024-1.451 0-2.904 0-4.355V8.276c0-1.887-.127-3.81.559-5.611C-6.883-.695-3.612-3 0-3c1.93 0 1.934 3 0 3" clip-path="url(#Y)" style="fill:#000;fill-opacity:1;fill-rule:nonzero;stroke:none" transform="matrix(1.33333 0 0 -1.33333 945.164 779.857)"/><path d="M0 0a7.22 7.22 0 0 0-7.222 7.222V12.7a7.223 7.223 0 0 0 14.444 0V7.222A7.22 7.22 0 0 0 0 0" clip-path="url(#Z)" style="fill:#feffff;fill-opacity:1;fill-rule:nonzero;stroke:none" transform="matrix(1.33333 0 0 -1.33333 945.164 821.7)"/><path d="M0 0c-1.771 0-3.49.838-4.563 2.255-.899 1.188-1.159 2.537-1.159 3.987v4.028c0 1.27.046 2.476.676 3.629 1.844 3.375 6.502 4.032 9.182 1.255 2.053-2.127 1.586-5.22 1.586-7.924 0-1.415.055-2.789-.614-4.093C4.116 1.2 2.158.041 0 0c-1.928-.036-1.934-3.036 0-3 4.991.094 8.708 4.099 8.722 9.025.009 3.382.516 7.244-1.568 10.155-3.085 4.309-9.379 4.993-13.229 1.278-1.716-1.657-2.617-3.949-2.647-6.316-.018-1.444 0-2.89 0-4.334 0-2.123.251-4.158 1.494-5.96C-5.593-1.522-2.895-3 0-3c1.93 0 1.934 3 0 3" clip-path="url(#aa)" style="fill:#000;fill-opacity:1;fill-rule:nonzero;stroke:none" transform="matrix(1.33333 0 0 -1.33333 945.164 819.7)"/><path d="M0 0c0-18.28-8.668-33.1-19.36-33.1S-38.72-18.28-38.72 0s8.668 33.1 19.36 33.1S0 18.28 0 0" clip-path="url(#ab)" style="fill:#feffff;fill-opacity:1;fill-rule:nonzero;stroke:none" transform="matrix(1.33333 0 0 -1.33333 720.593 628.483)"/><path d="M0 0c-.023-6.277-1.002-12.603-3.384-18.436-1.778-4.353-4.505-8.812-8.577-11.36-3.263-2.042-7.198-2.405-10.671-.639-4.21 2.14-7.055 6.278-9.019 10.446-5.2 11.035-5.397 24.972-1.44 36.411 2.606 7.535 9.302 17.856 18.734 14.559 4.776-1.67 8.035-6.322 10.141-10.684C-1.187 14.025-.026 6.918 0 0c.007-1.93 3.007-1.934 3 0-.025 6.845-1.151 13.741-3.837 20.062-2.056 4.838-5.155 9.591-9.721 12.393-4.03 2.473-8.839 2.777-13.129.793-4.666-2.157-8.033-6.636-10.259-11.132-2.97-5.998-4.387-12.701-4.708-19.36-.335-6.947.52-14.106 2.913-20.658 3.22-8.82 11.24-19.682 22.063-16.012 4.806 1.63 8.402 5.602 10.884 9.893 3.262 5.638 4.908 12.127 5.533 18.57C2.914-3.639 2.993-1.82 3 0 3.007 1.931.007 1.933 0 0" clip-path="url(#ac)" style="fill:#000;fill-opacity:1;fill-rule:nonzero;stroke:none" transform="matrix(1.33333 0 0 -1.33333 718.593 628.483)"/><path d="M0 0c0-16.211-9.926-29.352-22.171-29.352S-44.341-16.211-44.341 0s9.926 29.353 22.17 29.353S0 16.211 0 0" clip-path="url(#ad)" style="fill:#000;fill-opacity:1;fill-rule:nonzero;stroke:none" transform="matrix(1.33333 0 0 -1.33333 740.856 642.916)"/><path d="M0 0a6.401 6.401 0 1 0-12.802 0A6.401 6.401 0 0 0 0 0" clip-path="url(#ae)" style="fill:#feffff;fill-opacity:1;fill-rule:nonzero;stroke:none" transform="matrix(1.33333 0 0 -1.33333 713.1 626.61)"/><path d="M0 0a3.279 3.279 0 1 0-6.558 0A3.279 3.279 0 0 0 0 0" clip-path="url(#af)" style="fill:#feffff;fill-opacity:1;fill-rule:nonzero;stroke:none" transform="matrix(1.33333 0 0 -1.33333 700.609 646.49)"/><path d="M0 0c0-18.28-8.668-33.1-19.36-33.1S-38.72-18.28-38.72 0s8.668 33.1 19.36 33.1S0 18.28 0 0" clip-path="url(#ag)" style="fill:#feffff;fill-opacity:1;fill-rule:nonzero;stroke:none" transform="matrix(1.33333 0 0 -1.33333 766.345 628.483)"/><path d="M0 0c-.023-6.277-1.002-12.603-3.384-18.436-1.778-4.353-4.505-8.812-8.577-11.36-3.263-2.042-7.198-2.405-10.671-.639-4.21 2.14-7.055 6.278-9.019 10.446-5.2 11.035-5.397 24.972-1.44 36.411 2.606 7.535 9.302 17.856 18.734 14.559 4.776-1.67 8.035-6.322 10.141-10.684C-1.187 14.025-.026 6.918 0 0c.007-1.93 3.007-1.934 3 0-.025 6.845-1.151 13.741-3.837 20.062-2.056 4.838-5.155 9.591-9.721 12.393-4.03 2.473-8.839 2.777-13.129.793-4.666-2.157-8.033-6.636-10.259-11.132-2.97-5.998-4.387-12.701-4.708-19.36-.335-6.947.52-14.106 2.913-20.658 3.22-8.82 11.24-19.682 22.063-16.012 4.806 1.63 8.402 5.602 10.884 9.893 3.262 5.638 4.908 12.127 5.533 18.57C2.914-3.639 2.993-1.82 3 0 3.007 1.931.007 1.933 0 0" clip-path="url(#ah)" style="fill:#000;fill-opacity:1;fill-rule:nonzero;stroke:none" transform="matrix(1.33333 0 0 -1.33333 764.345 628.483)"/><path d="M0 0c0-16.211-9.926-29.352-22.171-29.352S-44.341-16.211-44.341 0s9.926 29.353 22.17 29.353S0 16.211 0 0" clip-path="url(#ai)" style="fill:#000;fill-opacity:1;fill-rule:nonzero;stroke:none" transform="matrix(1.33333 0 0 -1.33333 786.607 642.916)"/><path d="M0 0a6.401 6.401 0 1 0-12.802 0A6.401 6.401 0 0 0 0 0" clip-path="url(#aj)" style="fill:#feffff;fill-opacity:1;fill-rule:nonzero;stroke:none" transform="matrix(1.33333 0 0 -1.33333 758.85 626.61)"/><path d="M0 0a3.279 3.279 0 1 0-6.558 0A3.279 3.279 0 0 0 0 0" clip-path="url(#ak)" style="fill:#feffff;fill-opacity:1;fill-rule:nonzero;stroke:none" transform="matrix(1.33333 0 0 -1.33333 746.36 646.49)"/><path d="M0 0c0-5.979-6.99-10.825-15.613-10.825S-31.226-5.979-31.226 0s6.99 10.825 15.613 10.825S0 5.978 0 0" clip-path="url(#al)" style="fill:#ff3342;fill-opacity:1;fill-rule:nonzero;stroke:none" transform="matrix(1.33333 0 0 -1.33333 738.771 667.935)"/><path d="M0 0c-.091-4.914-5.209-7.789-9.429-8.792-5.125-1.219-11.36-.518-15.564 2.878-3.434 2.773-4.364 7.247-1.241 10.656 3.634 3.966 9.786 5.103 14.917 4.41C-6.558 8.509-.104 5.612 0 0c.036-1.928 3.036-1.934 3 0-.114 6.166-5.792 10.184-11.266 11.594-6.341 1.633-13.862.65-18.97-3.661-4.43-3.739-5.259-9.814-1.514-14.342 4.162-5.031 11.659-6.522 17.842-5.688C-4.579-11.243 2.866-7.215 3 0 3.036 1.931.036 1.931 0 0" clip-path="url(#am)" style="fill:#000;fill-opacity:1;fill-rule:nonzero;stroke:none" transform="matrix(1.33333 0 0 -1.33333 736.771 667.935)"/><path d="M0 0c0-1.84-2.151-3.331-4.804-3.331S-9.608-1.84-9.608 0s2.151 3.331 4.804 3.331S0 1.84 0 0" clip-path="url(#an)" style="fill:#feffff;fill-opacity:1;fill-rule:nonzero;stroke:none" transform="matrix(1.33333 0 0 -1.33333 718.53 664.327)"/><path d="M0 0c-.002-.072-.008-.143-.01-.215.012.362.027.146-.01.032-.021-.065-.05-.137-.061-.203-.029-.182.147.201.026.061-.1-.114-.166-.293-.256-.422.033.049.205.225.019.04-.083-.082-.161-.169-.248-.248a4 4 0 0 0-.182-.156c.049.039.239.16.006.016-.145-.09-.287-.182-.438-.262q-.117-.06-.236-.117c.241.118.041.014-.015-.005a7 7 0 0 0-.668-.209 7 7 0 0 0-.281-.063c.026.005-.444-.072-.237-.045.173.023-.138-.011-.175-.014a7.4 7.4 0 0 0-1.302.021c.26-.029-.13.026-.186.038a5.7 5.7 0 0 0-1.076.321c.262-.111-.158.09-.238.135-.092.052-.181.11-.272.165-.12.074-.21.152-.046.019-.139.113-.263.237-.391.362-.035.034-.198.223-.067.065.128-.154-.02.03-.047.075q-.067.119-.138.236c-.057.091-.054.226.02-.064-.017.068-.047.135-.066.203-.031.111-.036.41-.023.019-.005.144.003.287 0 .43.009-.37.015-.031.054.121.062.247-.007-.011-.033-.06.043.08.081.162.128.24.038.063.086.121.12.185.076.141-.183-.18.013.006.127.12.259.242.383.365.142.14-.198-.089-.01-.012.09.037.18.12.264.171.15.089.305.165.461.243-.054-.027-.263-.096.015.005q.195.073.394.134a6 6 0 0 0 .844.19c-.249-.037.003-.002.047.001.461.029.919.038 1.378-.015-.264.03.049-.012.114-.024a7 7 0 0 0 .353-.077q.34-.087.668-.209c.278-.101.069-.032.015-.005.118-.059.235-.115.35-.179q.111-.062.219-.131c.042-.027.365-.272.099-.053.154-.127.287-.268.43-.404.058-.056.155-.222-.019.04.061-.093.125-.182.18-.278.036-.063.066-.129.1-.193-.083.155-.063.2-.017.009q.03-.129.063-.258C-.044.248-.005.215 0 0c.018-.784.677-1.537 1.5-1.5.797.036 1.519.66 1.5 1.5C2.945 2.387.899 4.039-1.275 4.581c-2.332.58-4.975.161-6.825-1.426-1.787-1.532-1.947-4.076-.449-5.853 1.559-1.849 4.273-2.355 6.557-2.019C.438-4.359 2.939-2.67 3 0c.018.785-.703 1.536-1.5 1.5C.672 1.463.019.841 0 0" clip-path="url(#ao)" style="fill:#000;fill-opacity:1;fill-rule:nonzero;stroke:none" transform="matrix(1.33333 0 0 -1.33333 716.53 664.327)"/><path d="M0 0c1.957-3.19 5.74-4.94 9.44-4.236 1.939.368 3.656 1.46 5.381 2.357 1.632.849 3.323 1.505 5.08.61 1.792-.914 3.227-2.273 5.174-2.916s4.133-.677 6.109-.139c1.965.535 3.548 1.762 5.314 2.71.774.415 1.63.789 2.528.717 1.03-.082 1.923-.695 2.758-1.255 1.945-1.304 3.796-2.348 6.181-2.542a10.37 10.37 0 0 1 6.535 1.71c1.599 1.066.099 3.665-1.514 2.591-1.545-1.03-3.341-1.516-5.199-1.279-1.958.25-3.369 1.42-4.983 2.436-1.546.975-3.234 1.555-5.074 1.243C35.923 1.7 34.387.618 32.847-.302c-1.68-1.002-3.446-1.582-5.425-1.35-1.973.232-3.429 1.351-5.039 2.397-1.517.986-3.185 1.61-5.015 1.396-1.698-.199-3.227-.978-4.714-1.778-1.715-.922-3.468-1.952-5.491-1.739a6.14 6.14 0 0 0-4.573 2.89C1.583 3.157-1.013 1.652 0 0" clip-path="url(#ap)" style="fill:#000;fill-opacity:1;fill-rule:nonzero;stroke:none" transform="matrix(1.33333 0 0 -1.33333 682.066 695.126)"/><path d="M0 0a15.5 15.5 0 0 1 5.741 5.564c.404.673.173 1.676-.538 2.052-.726.383-1.621.181-2.052-.538a14 14 0 0 0-.745-1.121l-.126-.168c-.11-.147.216.273.053.071A13.6 13.6 0 0 0 .139 3.662c-.085-.068-.323-.203.038.028-.059-.038-.112-.085-.168-.126a14 14 0 0 0-1.523-.974c-.687-.38-.97-1.382-.538-2.052C-1.604-.158-.735-.407 0 0" clip-path="url(#aq)" style="fill:#000;fill-opacity:1;fill-rule:nonzero;stroke:none" transform="matrix(1.33333 0 0 -1.33333 680.419 698.564)"/><path d="M0 0c.566-3.023 2.967-5.559 5.885-6.442.751-.227 1.669.271 1.845 1.047.185.81-.243 1.602-1.047 1.846a7 7 0 0 0-.442.148c-.1.038-.356.164.07-.035l-.212.096a7 7 0 0 0-1.161.701c-.147.105.28-.229.088-.069q-.09.074-.179.15a7 7 0 0 0-.666.652c-.101.113-.216.23-.3.358.049-.075.213-.283.07-.087q-.068.094-.134.191a7 7 0 0 0-.454.768c-.058.115-.263.626-.076.135-.055.145-.113.289-.163.436a7 7 0 0 0-.231.903c-.145.772-1.119 1.282-1.845 1.047C.221 1.578-.155.828 0 0" clip-path="url(#ar)" style="fill:#000;fill-opacity:1;fill-rule:nonzero;stroke:none" transform="matrix(1.33333 0 0 -1.33333 750.278 692.049)"/><path d="M0 0c1.957-3.19 5.74-4.94 9.44-4.236 1.939.368 3.656 1.46 5.381 2.357 1.632.849 3.323 1.505 5.08.61 1.792-.914 3.227-2.273 5.174-2.916s4.133-.677 6.109-.139c1.965.535 3.548 1.762 5.314 2.71.774.415 1.63.789 2.528.717 1.03-.082 1.923-.695 2.758-1.255 1.945-1.304 3.796-2.348 6.181-2.542a10.37 10.37 0 0 1 6.535 1.71c1.599 1.066.099 3.665-1.514 2.591-1.545-1.03-3.341-1.516-5.199-1.279-1.958.25-3.369 1.42-4.983 2.436-1.546.975-3.234 1.555-5.074 1.243C35.923 1.7 34.387.618 32.847-.302c-1.68-1.002-3.446-1.582-5.425-1.35-1.973.232-3.429 1.351-5.039 2.397-1.517.986-3.185 1.61-5.015 1.396-1.698-.199-3.227-.978-4.714-1.778-1.715-.922-3.468-1.952-5.491-1.739a6.14 6.14 0 0 0-4.573 2.89C1.583 3.157-1.013 1.652 0 0" clip-path="url(#as)" style="fill:#000;fill-opacity:1;fill-rule:nonzero;stroke:none" transform="matrix(1.33333 0 0 -1.33333 682.066 695.126)"/><path d="M0 0a15.5 15.5 0 0 1 5.741 5.564c.404.673.173 1.676-.538 2.052-.726.383-1.621.181-2.052-.538a14 14 0 0 0-.745-1.121l-.126-.168c-.11-.147.216.273.053.071A13.6 13.6 0 0 0 .139 3.662c-.085-.068-.323-.203.038.028-.059-.038-.112-.085-.168-.126a14 14 0 0 0-1.523-.974c-.687-.38-.97-1.382-.538-2.052C-1.604-.158-.735-.407 0 0" clip-path="url(#at)" style="fill:#000;fill-opacity:1;fill-rule:nonzero;stroke:none" transform="matrix(1.33333 0 0 -1.33333 680.419 698.564)"/><path d="M0 0c.566-3.023 2.967-5.559 5.885-6.442.751-.227 1.669.271 1.845 1.047.185.81-.243 1.602-1.047 1.846a7 7 0 0 0-.442.148c-.1.038-.356.164.07-.035l-.212.096a7 7 0 0 0-1.161.701c-.147.105.28-.229.088-.069q-.09.074-.179.15a7 7 0 0 0-.666.652c-.101.113-.216.23-.3.358.049-.075.213-.283.07-.087q-.068.094-.134.191a7 7 0 0 0-.454.768c-.058.115-.263.626-.076.135-.055.145-.113.289-.163.436a7 7 0 0 0-.231.903c-.145.772-1.119 1.282-1.845 1.047C.221 1.578-.155.828 0 0" clip-path="url(#au)" style="fill:#000;fill-opacity:1;fill-rule:nonzero;stroke:none" transform="matrix(1.33333 0 0 -1.33333 750.278 692.049)"/></svg>