<svg xmlns="http://www.w3.org/2000/svg" width="1440" height="1440" viewBox="0 0 1440 1440"><defs><clipPath id="a" clipPathUnits="userSpaceOnUse"><path d="M-313.91 733.436h1080v-1080h-1080Z"/></clipPath><clipPath id="b" clipPathUnits="userSpaceOnUse"><path d="M-313.91 731.936h1080v-1080h-1080Z"/></clipPath><clipPath id="c" clipPathUnits="userSpaceOnUse"><path d="M-761.33 714.993h1080v-1080h-1080Z"/></clipPath><clipPath id="d" clipPathUnits="userSpaceOnUse"><path d="M-761.33 716.493h1080v-1080h-1080Z"/></clipPath><clipPath id="e" clipPathUnits="userSpaceOnUse"><path d="M-433.719 786.699h1080v-1080h-1080Z"/></clipPath><clipPath id="f" clipPathUnits="userSpaceOnUse"><path d="M-433.719 785.199h1080v-1080h-1080Z"/></clipPath><clipPath id="g" clipPathUnits="userSpaceOnUse"><path d="M-637.155 767.801h1080v-1080h-1080Z"/></clipPath><clipPath id="h" clipPathUnits="userSpaceOnUse"><path d="M-637.155 766.301h1080v-1080h-1080Z"/></clipPath><clipPath id="i" clipPathUnits="userSpaceOnUse"><path d="M-329.37 663.615h1080v-1080h-1080Z"/></clipPath><clipPath id="j" clipPathUnits="userSpaceOnUse"><path d="M-329.37 662.115h1080v-1080h-1080Z"/></clipPath><clipPath id="k" clipPathUnits="userSpaceOnUse"><path d="M-329.37 646.615h1080v-1080h-1080Z"/></clipPath><clipPath id="l" clipPathUnits="userSpaceOnUse"><path d="M-329.37 645.115h1080v-1080h-1080Z"/></clipPath><clipPath id="m" clipPathUnits="userSpaceOnUse"><path d="M-816.37 663.615h1080v-1080h-1080Z"/></clipPath><clipPath id="n" clipPathUnits="userSpaceOnUse"><path d="M-816.37 662.115h1080v-1080h-1080Z"/></clipPath><clipPath id="o" clipPathUnits="userSpaceOnUse"><path d="M-816.37 646.615h1080v-1080h-1080Z"/></clipPath><clipPath id="p" clipPathUnits="userSpaceOnUse"><path d="M-816.37 645.115h1080v-1080h-1080Z"/></clipPath><clipPath id="q" clipPathUnits="userSpaceOnUse"><path d="M-412.541 563.057h1080v-1080h-1080Z"/></clipPath><clipPath id="r" clipPathUnits="userSpaceOnUse"><path d="M-411.246 563.814h1080v-1080h-1080Z"/></clipPath><clipPath id="s" clipPathUnits="userSpaceOnUse"><path d="M-674.541 563.057h1080v-1080h-1080Z"/></clipPath><clipPath id="t" clipPathUnits="userSpaceOnUse"><path d="M-673.246 563.814h1080v-1080h-1080Z"/></clipPath><clipPath id="u" clipPathUnits="userSpaceOnUse"><path d="M-437.61 747.3h1080v-1080h-1080Z"/></clipPath><clipPath id="v" clipPathUnits="userSpaceOnUse"><path d="M-482.358 747.3h1080v-1080h-1080Z"/></clipPath><clipPath id="w" clipPathUnits="userSpaceOnUse"><path d="M-557.29 714.887h1080v-1080h-1080Z"/></clipPath><clipPath id="x" clipPathUnits="userSpaceOnUse"><path d="M-580.189 747.3h1080v-1080h-1080Z"/></clipPath><clipPath id="y" clipPathUnits="userSpaceOnUse"><path d="M-650.199 747.3h1080v-1080h-1080Z"/></clipPath><clipPath id="z" clipPathUnits="userSpaceOnUse"><path d="M-273.942 601.089h1080v-1080h-1080Z"/></clipPath><clipPath id="A" clipPathUnits="userSpaceOnUse"><path d="M-299.42 600.688h1080v-1080h-1080Z"/></clipPath><clipPath id="B" clipPathUnits="userSpaceOnUse"><path d="M-321.776 601.089h1080v-1080h-1080Z"/></clipPath><clipPath id="C" clipPathUnits="userSpaceOnUse"><path d="M-341.602 601.089h1080v-1080h-1080Z"/></clipPath><clipPath id="D" clipPathUnits="userSpaceOnUse"><path d="M-756.983 600.692h1080v-1080h-1080Z"/></clipPath><clipPath id="E" clipPathUnits="userSpaceOnUse"><path d="M-773.88 592.621h1080v-1080h-1080Z"/></clipPath><clipPath id="F" clipPathUnits="userSpaceOnUse"><path d="M-787.382 574.894h1080v-1080h-1080Z"/></clipPath><clipPath id="G" clipPathUnits="userSpaceOnUse"><path d="M-829.04 600.352h1080v-1080h-1080Z"/></clipPath><clipPath id="H" clipPathUnits="userSpaceOnUse"><path d="M-482.653 279.54h1080v-1080h-1080Z"/></clipPath><clipPath id="I" clipPathUnits="userSpaceOnUse"><path d="M-483.051 280.987h1080v-1080h-1080Z"/></clipPath><clipPath id="J" clipPathUnits="userSpaceOnUse"><path d="M-600.98 394.596h1080v-1080h-1080Z"/></clipPath><clipPath id="K" clipPathUnits="userSpaceOnUse"><path d="M-599.48 394.596h1080v-1080h-1080Z"/></clipPath><clipPath id="L" clipPathUnits="userSpaceOnUse"><path d="M-555.212 452.454h1080v-1080h-1080Z"/></clipPath><clipPath id="M" clipPathUnits="userSpaceOnUse"><path d="M-555.212 450.954h1080v-1080h-1080Z"/></clipPath><clipPath id="N" clipPathUnits="userSpaceOnUse"><path d="M-490.29 434.32h1080v-1080h-1080Z"/></clipPath><clipPath id="O" clipPathUnits="userSpaceOnUse"><path d="M-490.29 435.82h1080v-1080h-1080Z"/></clipPath><clipPath id="P" clipPathUnits="userSpaceOnUse"><path d="M-496.293 427.517h1080v-1080h-1080Z"/></clipPath><clipPath id="Q" clipPathUnits="userSpaceOnUse"><path d="M-496.293 429.017h1080v-1080h-1080Z"/></clipPath><clipPath id="R" clipPathUnits="userSpaceOnUse"><path d="M-560.992 308.49h1080v-1080h-1080Z"/></clipPath><clipPath id="S" clipPathUnits="userSpaceOnUse"><path d="M-560.992 306.99h1080v-1080h-1080Z"/></clipPath><clipPath id="T" clipPathUnits="userSpaceOnUse"><path d="M-590.223 469.047h1080v-1080h-1080Z"/></clipPath><clipPath id="U" clipPathUnits="userSpaceOnUse"><path d="M-590.98 470.343h1080v-1080h-1080Z"/></clipPath><clipPath id="V" clipPathUnits="userSpaceOnUse"><path d="M-556.864 494.032h1080v-1080h-1080Z"/></clipPath><clipPath id="W" clipPathUnits="userSpaceOnUse"><path d="M-549.032 557.342h1080v-1080h-1080Z"/></clipPath><clipPath id="X" clipPathUnits="userSpaceOnUse"><path d="M-549.032 555.842h1080v-1080h-1080Z"/></clipPath><clipPath id="Y" clipPathUnits="userSpaceOnUse"><path d="M-592.406 543.648h1080v-1080h-1080Z"/></clipPath><clipPath id="Z" clipPathUnits="userSpaceOnUse"><path d="M-591.65 542.353h1080v-1080h-1080Z"/></clipPath><clipPath id="aa" clipPathUnits="userSpaceOnUse"><path d="M-592.725 571.156h1080v-1080h-1080Z"/></clipPath><clipPath id="ab" clipPathUnits="userSpaceOnUse"><path d="M-591.968 569.86h1080v-1080h-1080Z"/></clipPath><clipPath id="ac" clipPathUnits="userSpaceOnUse"><path d="M-593.067 600.727h1080v-1080h-1080Z"/></clipPath><clipPath id="ad" clipPathUnits="userSpaceOnUse"><path d="M-592.31 599.432h1080v-1080h-1080Z"/></clipPath><clipPath id="ae" clipPathUnits="userSpaceOnUse"><path d="M-484.242 544.9h1080v-1080h-1080Z"/></clipPath><clipPath id="af" clipPathUnits="userSpaceOnUse"><path d="M-483.485 546.196h1080v-1080h-1080Z"/></clipPath><clipPath id="ag" clipPathUnits="userSpaceOnUse"><path d="M-484.56 572.408h1080v-1080h-1080Z"/></clipPath><clipPath id="ah" clipPathUnits="userSpaceOnUse"><path d="M-483.803 573.704h1080v-1080h-1080Z"/></clipPath><clipPath id="ai" clipPathUnits="userSpaceOnUse"><path d="M-484.903 601.98h1080v-1080h-1080Z"/></clipPath><clipPath id="aj" clipPathUnits="userSpaceOnUse"><path d="M-484.146 603.275h1080v-1080h-1080Z"/></clipPath><clipPath id="ak" clipPathUnits="userSpaceOnUse"><path d="M-549.3 580.537h1080v-1080h-1080Z"/></clipPath><clipPath id="al" clipPathUnits="userSpaceOnUse"><path d="M-549.3 579.037h1080v-1080h-1080Z"/></clipPath><clipPath id="am" clipPathUnits="userSpaceOnUse"><path d="M-549.575 604.31h1080v-1080h-1080Z"/></clipPath><clipPath id="an" clipPathUnits="userSpaceOnUse"><path d="M-549.575 602.81h1080v-1080h-1080Z"/></clipPath><clipPath id="ao" clipPathUnits="userSpaceOnUse"><path d="M-549.894 631.818h1080v-1080h-1080Z"/></clipPath><clipPath id="ap" clipPathUnits="userSpaceOnUse"><path d="M-549.894 630.318h1080v-1080h-1080Z"/></clipPath><clipPath id="aq" clipPathUnits="userSpaceOnUse"><path d="M-533.5 374.459h1080v-1080h-1080Z"/></clipPath><clipPath id="ar" clipPathUnits="userSpaceOnUse"><path d="M-532 374.459H548v-1080H-532Z"/></clipPath><clipPath id="as" clipPathUnits="userSpaceOnUse"><path d="M-30.853 38.295c-9.407-.108-16.883-13.236-16.697-29.32.186-16.085 7.964-29.035 17.37-28.927 9.409.11 16.885 13.237 16.699 29.322-.185 16.017-7.9 28.927-17.254 28.926z"/></clipPath><clipPath id="at" clipPathUnits="userSpaceOnUse"><path d="M-528.54 373.28h1080v-1080h-1080Z"/></clipPath><clipPath id="au" clipPathUnits="userSpaceOnUse"><path d="M-520.45 386.494h1080v-1080h-1080Z"/></clipPath><clipPath id="av" clipPathUnits="userSpaceOnUse"><path d="M-563.692 374.11h1080v-1080h-1080Z"/></clipPath><clipPath id="aw" clipPathUnits="userSpaceOnUse"><path d="M-562.192 374.11h1080v-1080h-1080Z"/></clipPath><clipPath id="ax" clipPathUnits="userSpaceOnUse"><path d="M-30.853 38.296c-9.408-.11-16.883-13.237-16.697-29.321s7.963-29.034 17.372-28.926c9.407.109 16.883 13.237 16.697 29.32-.186 16.019-7.899 28.928-17.254 28.927z"/></clipPath><clipPath id="ay" clipPathUnits="userSpaceOnUse"><path d="M-558.732 372.93h1080v-1080h-1080Z"/></clipPath><clipPath id="az" clipPathUnits="userSpaceOnUse"><path d="M-550.641 386.145h1080v-1080h-1080Z"/></clipPath><clipPath id="aA" clipPathUnits="userSpaceOnUse"><path d="M-545.797 400.355h1080v-1080h-1080Z"/></clipPath><clipPath id="aB" clipPathUnits="userSpaceOnUse"><path d="M-544.297 400.355h1080v-1080h-1080Z"/></clipPath><clipPath id="aC" clipPathUnits="userSpaceOnUse"><path d="M-532.412 398.128h1080v-1080h-1080Z"/></clipPath><clipPath id="aD" clipPathUnits="userSpaceOnUse"><path d="M-530.912 398.128h1080v-1080h-1080Z"/></clipPath><clipPath id="aE" clipPathUnits="userSpaceOnUse"><path d="M-530.086 414.419h1080v-1080h-1080Z"/></clipPath><clipPath id="aF" clipPathUnits="userSpaceOnUse"><path d="M-530.086 415.919h1080v-1080h-1080Z"/></clipPath><clipPath id="aG" clipPathUnits="userSpaceOnUse"><path d="M-530.795 423.07h1080v-1080h-1080Z"/></clipPath><clipPath id="aH" clipPathUnits="userSpaceOnUse"><path d="M-552.756 413.951h1080v-1080h-1080Z"/></clipPath><clipPath id="aI" clipPathUnits="userSpaceOnUse"><path d="M-530.083 418.253h1080v-1080h-1080Z"/></clipPath><clipPath id="aJ" clipPathUnits="userSpaceOnUse"><path d="M-534.398 434.645h1080v-1080h-1080Z"/></clipPath></defs><path d="M0 0h1080v1080H0Z" style="fill:#feffff;fill-opacity:1;fill-rule:nonzero;stroke:none" transform="matrix(1.33333 0 0 -1.33333 0 1440)"/><path d="M0 0c-10.323 0-19.977 4.29-27.183 12.08-7.776 8.406-11.709 19.983-10.79 31.76 5.662 72.56 35.195 139.89 83.158 189.588 48.758 50.521 112.287 78.344 178.884 78.344s130.126-27.823 178.885-78.344C450.917 183.73 480.449 116.4 486.11 43.84c.919-11.777-3.013-23.354-10.79-31.76C468.115 4.29 458.461 0 448.138 0Z" clip-path="url(#a)" style="fill:#3bb4fb;fill-opacity:1;fill-rule:nonzero;stroke:none" transform="matrix(1.33333 0 0 -1.33333 418.546 977.914)"/><path d="M0 0c-17.368.19-31.661 12.95-35.541 29.629-1.97 8.471-.659 17.245.35 25.765a319 319 0 0 0 4.041 25.301c6.557 32.648 18.196 64.275 34.753 93.183 16.426 28.681 37.648 54.621 62.906 75.975 25.145 21.259 54.325 37.774 85.732 47.756 30.726 9.765 63.32 13.186 95.403 9.995 32.33-3.216 63.843-13.266 92.263-28.965 29.149-16.102 54.891-37.982 76.136-63.582 21.092-25.417 37.693-54.53 49.282-85.44a317.4 317.4 0 0 0 13.791-48.075 320 320 0 0 0 4.109-25.283c1.029-8.488 2.431-17.34.636-25.808C480.342 13.842 466.299.414 448.952.009c-1.129-.026-2.26-.009-3.389-.009zc-1.93 0-1.934-3 0-3h441.763c1.876 0 3.752-.003 5.627 0 7.785.014 15.359 2.05 21.858 6.419 6.662 4.479 11.848 10.91 14.986 18.284 3.246 7.626 3.838 15.52 3.123 23.693-1.484 16.976-4.271 33.843-8.385 50.38-8.099 32.553-21.348 63.88-39.437 92.148-18.002 28.13-40.775 53.212-67.437 73.361-26.212 19.811-56.206 34.627-88.042 42.856-31.476 8.136-64.505 9.755-96.633 4.804-32.421-4.997-63.658-16.8-91.534-34.053-28.507-17.644-53.38-40.825-73.665-67.471-20.13-26.444-35.623-56.322-46.137-87.829A320 320 0 0 1-36.135 70a331 331 0 0 1-3.16-25.476c-.69-8.144.177-16.066 3.529-23.588C-29.441 6.745-15.604-2.829 0-3c1.931-.021 1.932 2.979 0 3" clip-path="url(#b)" style="fill:#000;fill-opacity:1;fill-rule:nonzero;stroke:none" transform="matrix(1.33333 0 0 -1.33333 418.546 975.914)"/><path d="M0 0c11.794 0 20.984 11.279 19.963 24.361C9.007 164.766-95.745 274.888-223.351 274.888S-455.709 164.766-466.665 24.361C-467.686 11.279-458.496 0-446.702 0Z" clip-path="url(#c)" style="fill:#ffe30d;fill-opacity:1;fill-rule:nonzero;stroke:none" transform="matrix(1.33333 0 0 -1.33333 1015.106 953.324)"/><path d="M0 0c6.689.116 12.697 3.409 16.664 8.761 4.492 6.06 5.175 13.048 4.529 20.335-1.355 15.305-3.831 30.519-7.459 45.451-6.971 28.694-18.192 56.392-33.425 81.701-14.546 24.168-32.777 46.192-54.15 64.626-20.662 17.821-44.203 32.244-69.668 42.094-25.921 10.025-53.683 15.118-81.477 14.913-27.752-.204-55.39-5.694-81.129-16.067-25.338-10.212-48.698-24.944-69.145-43.035-21.168-18.731-39.162-41.005-53.442-65.379-14.962-25.536-25.893-53.419-32.539-82.25-3.443-14.941-6.031-30.325-6.947-45.645C-468.944 12.851-460.029.19-446.684 0c4.063-.058 8.13 0 12.194 0zc1.93 0 1.934 3 0 3h-441.047c-1.715 0-3.431-.007-5.146 0-8.738.038-15.748 6.141-18.138 14.411-2.077 7.185-.295 15.465.616 22.741a300 300 0 0 0 3.731 22.667 298 298 0 0 0 12.144 42.934c9.838 26.868 23.684 52.33 41.171 74.992 16.84 21.823 37.106 41.082 60.081 56.346 22.537 14.973 47.609 26.038 73.98 32.166 26.993 6.273 55.224 7.343 82.61 3.081 26.797-4.171 52.674-13.381 76.217-26.817 23.853-13.614 45.185-31.414 63.275-52.053 18.628-21.252 33.762-45.502 45.092-71.376C6.649 94.543 14.347 65.063 17.594 35.176c.782-7.195 1.988-14.613-1.354-21.369C13.126 7.512 7.124 3.124 0 3c-1.928-.033-1.934-3.034 0-3" clip-path="url(#d)" style="fill:#000;fill-opacity:1;fill-rule:nonzero;stroke:none" transform="matrix(1.33333 0 0 -1.33333 1015.106 955.324)"/><path d="M0 0c-32.915 0-59.693 26.778-59.693 59.693S-32.915 119.387 0 119.387h203.436c32.915 0 59.693-26.778 59.693-59.693S236.351 0 203.436 0Z" clip-path="url(#e)" style="fill:#3bb4fb;fill-opacity:1;fill-rule:nonzero;stroke:none" transform="matrix(1.33333 0 0 -1.33333 578.291 1048.932)"/><path d="M0 0c-19.526.073-38.065 10.053-48.747 26.438-10.708 16.425-12.459 37.801-4.306 55.682 8.026 17.602 24.557 30.344 43.651 33.517 5.729.952 11.563.75 17.349.75h194.806c15.067 0 29.609-5.495 40.6-15.886 14.256-13.477 20.936-33.694 17.295-53.008-3.565-18.914-16.611-35.144-34.264-42.788C219.114 1.557 211.232.019 203.322 0c-1.335-.003-2.67 0-4.005 0zc-1.93 0-1.934-3 0-3h192.89c4.337 0 8.7-.127 13.037.052 19.63.809 37.952 11.289 48.73 27.695 10.908 16.604 13.003 38.187 5.427 56.564-7.401 17.953-23.243 31.753-42.154 36.342-7.033 1.706-14.054 1.734-21.204 1.734H16.13c-5.208 0-10.416.003-15.624 0-15.929-.008-31.324-6.005-42.85-17.056C-56.72 88.548-63.475 68.305-60.44 48.648c2.959-19.16 15.433-36.199 32.691-44.985C-19.157-.711-9.636-2.964 0-3c1.931-.007 1.933 2.993 0 3" clip-path="url(#f)" style="fill:#000;fill-opacity:1;fill-rule:nonzero;stroke:none" transform="matrix(1.33333 0 0 -1.33333 578.291 1046.932)"/><path d="M0 0h-203.436c-22.531 0-40.796 18.265-40.796 40.796s18.265 40.796 40.796 40.796H0c22.531 0 40.796-18.265 40.796-40.796S22.531 0 0 0" clip-path="url(#g)" style="fill:#ff8fdd;fill-opacity:1;fill-rule:nonzero;stroke:none" transform="matrix(1.33333 0 0 -1.33333 849.54 1023.735)"/><path d="M0 0h-196.683c-4.798 0-9.657-.207-14.386.737-17.288 3.452-30.564 18.52-31.594 36.162-1.018 17.458 9.954 34.019 26.587 39.618 5.929 1.997 11.85 2.075 17.973 2.075h187.249c3.586 0 7.172.011 10.758 0 15.844-.05 30.577-9.739 36.528-24.516 6.579-16.336 1.295-35.673-12.855-46.232C16.76 2.757 8.496.041 0 0c-1.93-.009-1.934-3.009 0-3 18.018.087 34.342 11.756 40.114 28.858C45.868 42.907 39.792 62.134 25.538 73 18.453 78.402 9.706 81.409.803 81.584c-1.03.02-2.062.008-3.092.008h-200.562c-13.77 0-26.699-6.345-34.849-17.506-10.61-14.53-10.61-35.05 0-49.58C-229.55 3.344-216.621-3-202.851-3H0c1.93 0 1.934 3 0 3" clip-path="url(#h)" style="fill:#000;fill-opacity:1;fill-rule:nonzero;stroke:none" transform="matrix(1.33333 0 0 -1.33333 849.54 1021.735)"/><path d="M0 0h-65.739c-14.263 0-25.826 11.563-25.826 25.826v65.739c0 14.264 11.563 25.826 25.826 25.826H0c14.263 0 25.826-11.562 25.826-25.826V25.826C25.826 11.563 14.263 0 0 0" clip-path="url(#i)" style="fill:#3bb4fb;fill-opacity:1;fill-rule:nonzero;stroke:none" transform="matrix(1.33333 0 0 -1.33333 439.16 884.82)"/><path d="M0 0h-56.161c-3.753 0-7.568-.192-11.318.058-11.088.737-20.363 9.322-22.257 20.21-.695 4-.329 8.354-.329 12.393v45.546c0 3.926-.019 7.852 0 11.778.048 10.272 6.58 19.735 16.373 23.08 4.663 1.593 9.478 1.326 14.317 1.326h21.159c12.576 0 25.152.009 37.727 0 9.115-.006 17.545-4.721 21.922-12.809 1.961-3.623 2.886-7.652 2.893-11.759.003-1.458 0-2.917 0-4.376V25.551c0-2.453-.141-4.868-.754-7.26a24.5 24.5 0 0 0-8.763-13.279C10.559 1.751 5.342.035 0 0c-1.93-.013-1.934-3.013 0-3 11.625.077 22.126 7.55 25.892 18.575 1.688 4.943 1.434 10.066 1.434 15.193v45.928c0 4.392.009 8.784 0 13.176-.021 10.224-5.709 19.859-14.875 24.522-3.932 2-8.254 2.989-12.66 2.997-1.47.003-2.939 0-4.409 0h-60.364c-9.109 0-17.551-3.967-22.953-11.395-3.352-4.61-5.099-10.247-5.13-15.931-.006-1.021 0-2.041 0-3.061V25.948c0-2.174.062-4.323.437-6.478.965-5.55 3.769-10.765 7.798-14.695 4.042-3.942 9.315-6.617 14.906-7.446C-67.929-2.967-65.949-3-63.943-3H0c1.93 0 1.934 3 0 3" clip-path="url(#j)" style="fill:#000;fill-opacity:1;fill-rule:nonzero;stroke:none" transform="matrix(1.33333 0 0 -1.33333 439.16 882.82)"/><path d="M0 0h-65.739c-14.263 0-25.826 11.563-25.826 25.826v65.739c0 14.264 11.563 25.826 25.826 25.826H0c14.263 0 25.826-11.562 25.826-25.826V25.826C25.826 11.563 14.263 0 0 0" clip-path="url(#k)" style="fill:#0aff9f;fill-opacity:1;fill-rule:nonzero;stroke:none" transform="matrix(1.33333 0 0 -1.33333 439.16 862.153)"/><path d="M0 0h-56.161c-3.753 0-7.568-.192-11.318.058-11.088.737-20.363 9.322-22.257 20.21-.695 4-.329 8.354-.329 12.393v45.546c0 3.926-.019 7.852 0 11.778.048 10.272 6.58 19.735 16.373 23.08 4.663 1.593 9.478 1.326 14.317 1.326h21.159c12.576 0 25.152.009 37.727 0 9.115-.006 17.545-4.721 21.922-12.809 1.961-3.623 2.886-7.652 2.893-11.759.003-1.458 0-2.917 0-4.376V25.551c0-2.453-.141-4.868-.754-7.26a24.5 24.5 0 0 0-8.763-13.279C10.559 1.751 5.342.035 0 0c-1.93-.013-1.934-3.013 0-3 11.625.077 22.126 7.55 25.892 18.575 1.688 4.943 1.434 10.066 1.434 15.193v45.928c0 4.392.009 8.784 0 13.176-.021 10.224-5.709 19.859-14.875 24.522-3.932 2-8.254 2.989-12.66 2.997-1.47.003-2.939 0-4.409 0h-60.364c-9.109 0-17.551-3.967-22.953-11.395-3.352-4.61-5.099-10.247-5.13-15.931-.006-1.021 0-2.041 0-3.061V25.948c0-2.174.062-4.323.437-6.478.965-5.55 3.769-10.765 7.798-14.695 4.042-3.942 9.315-6.617 14.906-7.446C-67.929-2.967-65.949-3-63.943-3H0c1.93 0 1.934 3 0 3" clip-path="url(#l)" style="fill:#000;fill-opacity:1;fill-rule:nonzero;stroke:none" transform="matrix(1.33333 0 0 -1.33333 439.16 860.153)"/><path d="M0 0h-65.739c-14.264 0-25.826 11.563-25.826 25.826v65.739c0 14.264 11.562 25.826 25.826 25.826H0c14.263 0 25.826-11.562 25.826-25.826V25.826C25.826 11.563 14.263 0 0 0" clip-path="url(#m)" style="fill:#3bb4fb;fill-opacity:1;fill-rule:nonzero;stroke:none" transform="matrix(1.33333 0 0 -1.33333 1088.493 884.82)"/><path d="M0 0h-56.161c-3.753 0-7.568-.192-11.318.058-11.088.737-20.363 9.322-22.257 20.21-.695 4-.329 8.354-.329 12.393v45.546c0 3.926-.019 7.852 0 11.778.048 10.272 6.58 19.735 16.373 23.08 4.663 1.593 9.478 1.326 14.317 1.326h21.159c12.576 0 25.152.009 37.727 0 9.115-.006 17.545-4.721 21.922-12.809 1.961-3.623 2.886-7.652 2.893-11.759.003-1.458 0-2.917 0-4.376V25.551c0-2.453-.141-4.868-.754-7.26a24.5 24.5 0 0 0-8.763-13.279C10.559 1.751 5.341.035 0 0c-1.93-.013-1.934-3.013 0-3 11.625.077 22.126 7.55 25.892 18.575 1.688 4.943 1.434 10.066 1.434 15.193v45.928c0 4.392.009 8.784 0 13.176-.021 10.224-5.709 19.859-14.875 24.522-3.932 2-8.254 2.989-12.66 2.997-1.47.003-2.939 0-4.409 0h-60.364c-9.109 0-17.551-3.967-22.953-11.395-3.352-4.61-5.099-10.247-5.13-15.931-.006-1.021 0-2.041 0-3.061V25.948c0-2.174.062-4.323.437-6.478.965-5.55 3.769-10.765 7.798-14.695 4.042-3.942 9.315-6.617 14.906-7.446C-67.929-2.967-65.949-3-63.943-3H0c1.93 0 1.934 3 0 3" clip-path="url(#n)" style="fill:#000;fill-opacity:1;fill-rule:nonzero;stroke:none" transform="matrix(1.33333 0 0 -1.33333 1088.493 882.82)"/><path d="M0 0h-65.739c-14.264 0-25.826 11.563-25.826 25.826v65.739c0 14.264 11.562 25.826 25.826 25.826H0c14.263 0 25.826-11.562 25.826-25.826V25.826C25.826 11.563 14.263 0 0 0" clip-path="url(#o)" style="fill:#0aff9f;fill-opacity:1;fill-rule:nonzero;stroke:none" transform="matrix(1.33333 0 0 -1.33333 1088.493 862.153)"/><path d="M0 0h-56.161c-3.753 0-7.568-.192-11.318.058-11.088.737-20.363 9.322-22.257 20.21-.695 4-.329 8.354-.329 12.393v45.546c0 3.926-.019 7.852 0 11.778.048 10.272 6.58 19.735 16.373 23.08 4.663 1.593 9.478 1.326 14.317 1.326h21.159c12.576 0 25.152.009 37.727 0 9.115-.006 17.545-4.721 21.922-12.809 1.961-3.623 2.886-7.652 2.893-11.759.003-1.458 0-2.917 0-4.376V25.551c0-2.453-.141-4.868-.754-7.26a24.5 24.5 0 0 0-8.763-13.279C10.559 1.751 5.341.035 0 0c-1.93-.013-1.934-3.013 0-3 11.625.077 22.126 7.55 25.892 18.575 1.688 4.943 1.434 10.066 1.434 15.193v45.928c0 4.392.009 8.784 0 13.176-.021 10.224-5.709 19.859-14.875 24.522-3.932 2-8.254 2.989-12.66 2.997-1.47.003-2.939 0-4.409 0h-60.364c-9.109 0-17.551-3.967-22.953-11.395-3.352-4.61-5.099-10.247-5.13-15.931-.006-1.021 0-2.041 0-3.061V25.948c0-2.174.062-4.323.437-6.478.965-5.55 3.769-10.765 7.798-14.695 4.042-3.942 9.315-6.617 14.906-7.446C-67.929-2.967-65.949-3-63.943-3H0c1.93 0 1.934 3 0 3" clip-path="url(#p)" style="fill:#000;fill-opacity:1;fill-rule:nonzero;stroke:none" transform="matrix(1.33333 0 0 -1.33333 1088.493 860.153)"/><path d="m0 0 7.945-16.098a3.03 3.03 0 0 1 2.284-1.66l17.765-2.581c2.488-.361 3.481-3.418 1.681-5.173L16.82-38.043a3.03 3.03 0 0 1-.872-2.684l3.034-17.694c.425-2.478-2.175-4.367-4.4-3.197l-15.89 8.354a3.04 3.04 0 0 1-2.823 0l-15.89-8.354c-2.225-1.17-4.825.719-4.401 3.197l3.035 17.694a3.03 3.03 0 0 1-.872 2.684l-12.855 12.531c-1.8 1.755-.807 4.812 1.68 5.173l17.766 2.581a3.03 3.03 0 0 1 2.284 1.66L-5.439 0C-4.327 2.254-1.112 2.254 0 0" clip-path="url(#q)" style="fill:#ff8fdd;fill-opacity:1;fill-rule:nonzero;stroke:none" transform="matrix(1.33333 0 0 -1.33333 550.055 750.742)"/><path d="m0 0 4.523-9.164 2.771-5.615c.782-1.584 1.585-3.075 3.467-3.592 1.127-.309 2.367-.367 3.519-.534l6.836-.994 6.173-.897c1.123-.163 2.88-.128 3.086-1.578.16-1.131-1.253-2.088-1.966-2.783l-4.659-4.542-4.819-4.697c-.892-.87-2.049-1.761-2.659-2.868-.867-1.573-.458-3.206-.176-4.852l1.091-6.364 1.154-6.725c.171-.996.646-2.51.442-3.339-.473-1.924-2.31-.938-3.389-.37l-5.386 2.832c-3.081 1.619-6.126 3.355-9.26 4.868-1.993.962-3.68.349-5.458-.585l-5.292-2.783-6.305-3.314c-1.04-.547-2.079-1.215-3.166-1.665-1.148-.475-2.234.351-2.193 1.563l.145.864.962 5.608c.633 3.687 1.327 7.369 1.898 11.066.301 1.948-.405 3.419-1.756 4.736l-3.892 3.793c-2.771 2.702-5.668 5.32-8.335 8.125-1.157 1.217-.395 2.568 1.119 2.809 1.534.244 3.075.447 4.612.67l12.33 1.792c1.684.244 3.062 1.041 3.872 2.605.685 1.321 1.319 2.671 1.977 4.005L-3.167-.644c.159.322.306.714.529.997C-1.859 1.338-.554 1 0 0c.936-1.689 3.528-.177 2.59 1.514-1.663 3-6.035 3.263-7.88.27-.623-1.01-1.08-2.155-1.604-3.217l-5.962-12.08c-.539-1.094-.921-1.881-2.265-2.092-1.677-.263-3.362-.488-5.042-.732-4.052-.589-8.116-1.124-12.16-1.767-2.558-.408-4.352-2.833-3.813-5.417.335-1.608 1.585-2.615 2.698-3.7l9.791-9.544c.778-.758 2.143-1.716 2.104-2.836-.044-1.284-.455-2.653-.672-3.917l-2.227-12.986c-.381-2.221-.054-4.465 2.142-5.652 1.906-1.03 3.658-.354 5.388.555l11.924 6.269c.966.508 2.224 1.509 3.342 1.663 1.146.157 2.765-1.127 3.698-1.617l11.951-6.283c1.704-.896 3.408-1.608 5.317-.656 2.263 1.127 2.669 3.414 2.283 5.667l-2.219 12.935c-.223 1.301-.626 2.69-.688 4.011-.052 1.124 1.324 2.088 2.102 2.847l9.732 9.486c1.093 1.066 2.352 2.067 2.733 3.623.64 2.616-1.183 5.108-3.761 5.548-4.005.682-8.053 1.17-12.074 1.754-1.718.25-3.44.482-5.156.749-.751.117-1.32.312-1.739 1.025-.188.32-.333.676-.498 1.009L4.089-1.522 2.59 1.514C1.736 3.245-.852 1.727 0 0" clip-path="url(#r)" style="fill:#000;fill-opacity:1;fill-rule:nonzero;stroke:none" transform="matrix(1.33333 0 0 -1.33333 548.328 751.752)"/><path d="m0 0 7.945-16.098a3.03 3.03 0 0 1 2.284-1.66l17.765-2.581c2.488-.361 3.481-3.418 1.681-5.173L16.82-38.043a3.03 3.03 0 0 1-.872-2.684l3.034-17.694c.425-2.478-2.175-4.367-4.4-3.197l-15.89 8.354a3.04 3.04 0 0 1-2.823 0l-15.89-8.354c-2.225-1.17-4.825.719-4.401 3.197l3.035 17.694a3.03 3.03 0 0 1-.872 2.684l-12.855 12.531c-1.8 1.755-.807 4.812 1.68 5.173l17.766 2.581a3.03 3.03 0 0 1 2.284 1.66L-5.439 0C-4.327 2.254-1.112 2.254 0 0" clip-path="url(#s)" style="fill:#ff8fdd;fill-opacity:1;fill-rule:nonzero;stroke:none" transform="matrix(1.33333 0 0 -1.33333 899.388 750.742)"/><path d="m0 0 4.523-9.164 2.771-5.615c.782-1.584 1.585-3.075 3.467-3.592 1.127-.309 2.367-.367 3.519-.534l6.836-.994 6.173-.897c1.123-.163 2.88-.128 3.086-1.578.16-1.131-1.253-2.088-1.966-2.783l-4.659-4.542-4.819-4.697c-.892-.87-2.049-1.761-2.659-2.868-.867-1.573-.458-3.206-.176-4.852l1.091-6.364 1.154-6.725c.171-.996.646-2.51.442-3.339-.473-1.924-2.31-.938-3.389-.37l-5.386 2.832c-3.081 1.619-6.126 3.355-9.26 4.868-1.993.962-3.68.349-5.458-.585l-5.292-2.783-6.305-3.314c-1.04-.547-2.079-1.215-3.166-1.665-1.148-.475-2.234.351-2.193 1.563l.145.864.962 5.608c.633 3.687 1.327 7.369 1.898 11.066.301 1.948-.405 3.419-1.756 4.736l-3.892 3.793c-2.771 2.702-5.668 5.32-8.335 8.125-1.157 1.217-.395 2.568 1.119 2.809 1.534.244 3.075.447 4.612.67l12.33 1.792c1.684.244 3.062 1.041 3.872 2.605.685 1.321 1.319 2.671 1.977 4.005L-3.167-.644c.159.322.306.714.529.997C-1.859 1.338-.554 1 0 0c.936-1.689 3.528-.177 2.59 1.514-1.663 3-6.035 3.263-7.88.27-.623-1.01-1.08-2.155-1.604-3.217l-5.962-12.08c-.539-1.094-.921-1.881-2.265-2.092-1.677-.263-3.361-.488-5.042-.732-4.052-.589-8.116-1.124-12.16-1.767-2.558-.408-4.352-2.833-3.813-5.417.335-1.608 1.585-2.615 2.698-3.7l9.791-9.544c.778-.758 2.143-1.716 2.104-2.836-.044-1.284-.455-2.653-.672-3.917l-2.227-12.986c-.381-2.221-.054-4.465 2.142-5.652 1.906-1.03 3.658-.354 5.388.555l11.924 6.269c.966.508 2.224 1.509 3.342 1.663 1.146.157 2.765-1.127 3.698-1.617l11.951-6.283c1.704-.896 3.408-1.608 5.317-.656 2.263 1.127 2.669 3.414 2.283 5.667l-2.219 12.935c-.223 1.301-.626 2.69-.688 4.011-.052 1.124 1.324 2.088 2.102 2.847l9.732 9.486c1.093 1.066 2.352 2.067 2.733 3.623.641 2.616-1.183 5.108-3.761 5.548-4.005.682-8.053 1.17-12.074 1.754-1.718.25-3.44.482-5.156.749-.751.117-1.32.312-1.739 1.025-.188.32-.333.676-.498 1.009L4.089-1.522 2.59 1.514C1.736 3.245-.852 1.727 0 0" clip-path="url(#t)" style="fill:#000;fill-opacity:1;fill-rule:nonzero;stroke:none" transform="matrix(1.33333 0 0 -1.33333 897.661 751.752)"/><path d="M17.062.001H6.89q-2.369 0-2.368-2.367v-42.516q0-2.355 2.368-2.355h20.074q5.976 0 9.351 1.605 3.374 1.608 4.758 4.5 1.382 2.884 1.383 6.692v8.39q-.002 3.811-1.383 6.703-1.384 2.884-4.758 4.489-3.375 1.606-9.351 1.605h-7.547v10.887q0 2.368-2.355 2.367m2.226-34.969v9.903h5.906q1.897 0 2.485-.985.597-.983.597-2.226v-3.48q0-1.312-.597-2.263-.588-.948-2.485-.949zM61.813.001H51.64q-2.369 0-2.368-2.367v-42.516q0-2.355 2.368-2.355h10.172q2.355 0 2.355 2.355v14.238h10.957v-14.238q0-2.355 2.367-2.355h10.172q2.355 0 2.356 2.355v42.516Q90.02.002 87.664 0H77.492q-2.368 0-2.367-2.367v-14.567H64.168v14.567q0 2.368-2.356 2.367m77.293-12.398q-.001 3.013-.89 5.472-.88 2.461-3.117 4.242-2.228 1.77-6.2 2.72-3.974.948-10.136.948-6.165 0-10.137-.949-3.974-.948-6.2-2.719-2.228-1.78-3.152-4.242-.914-2.46-.914-5.472V-34.77q0-3.023.914-5.484.924-2.46 3.153-4.23 2.224-1.768 6.199-2.754 3.971-.985 10.137-.985 6.162 0 10.136.985 3.972.986 6.2 2.754 2.236 1.77 3.117 4.23.889 2.46.89 5.484zm-25.851-2.368q0 1.315.984 2.203c.657.586 2.162.88 4.524.88q3.608 0 4.558-.88.95-.888.95-2.203v-17.648q0-1.311-.95-2.156-.95-.855-4.558-.856c-2.362 0-3.867.287-4.524.856q-.984.845-.984 2.156zM159.644.001H149.8q-2.369 0-2.367-2.367v-42.516q0-2.355 2.367-2.355h6.82q2.366.002 3.879 1.77l12.727 14.566v-13.98q0-2.356 2.355-2.356h9.844q2.365 0 2.367 2.355v42.516Q187.791.002 185.425 0h-9.844q-2.355 0-2.355-2.367v-8.063l-11.227-13.58v21.645q0 2.368-2.355 2.367m70.007 0h-30.445q-2.369 0-2.367-2.367v-42.516q0-2.355 2.367-2.355h30.445q2.355 0 2.356 2.355v7.676q0 2.368-2.356 2.367h-18.105v5.05h12.785c1.576 0 2.367.792 2.367 2.368v7.02q0 2.355-2.367 2.355h-12.785v5.649h18.105q2.355 0 2.356 2.355v7.676q0 2.368-2.356 2.367m0 0" aria-label="phone" style="fill:#feffff;fill-opacity:1;fill-rule:nonzero;stroke:none" transform="translate(557.583 999.55)scale(1.33333)"/><path d="M0 0v10.892h7.546q5.97 0 9.35 1.607 3.378 1.606 4.757 4.495 1.378 2.886 1.378 6.693v8.398q0 3.806-1.378 6.693-1.379 2.886-4.757 4.494-3.38 1.608-9.35 1.608h-20.078q-2.363 0-2.363-2.361V0q0-2.362 2.363-2.362h10.17Q0-2.362 0 0Zm5.774 32.61q1.902 0 2.494-.951.59-.952.59-2.263v-3.478q0-1.248-.59-2.231-.592-.985-2.494-.985H-.131v9.908z" clip-path="url(#u)" style="fill:none;stroke:#000;stroke-width:3;stroke-linecap:butt;stroke-linejoin:miter;stroke-miterlimit:10;stroke-dasharray:none;stroke-opacity:1" transform="matrix(1.33333 0 0 -1.33333 583.48 996.4)"/><path d="M0 0v14.566h10.958V0q0-2.362 2.362-2.362h10.17q2.362 0 2.362 2.362v42.519q0 2.361-2.362 2.361H13.32q-2.362 0-2.362-2.361v-14.24H0v14.24q0 2.361-2.362 2.361h-10.17q-2.363 0-2.363-2.361V0q0-2.362 2.363-2.362h10.17Q0-2.362 0 0Z" clip-path="url(#v)" style="fill:none;stroke:#000;stroke-width:3;stroke-linecap:butt;stroke-linejoin:miter;stroke-miterlimit:10;stroke-dasharray:none;stroke-opacity:1" transform="matrix(1.33333 0 0 -1.33333 643.144 996.4)"/><path d="M0 0q0 3.018-.886 5.479-.886 2.46-3.116 4.232-2.232 1.773-6.201 2.756-3.97.984-10.137.984-6.17 0-10.138-.984-3.97-.983-6.201-2.756t-3.149-4.232q-.92-2.46-.919-5.479v-22.374q0-3.019.919-5.48.918-2.459 3.149-4.231 2.23-1.773 6.201-2.724 3.969-.95 10.138-.951 6.166.002 10.137.951 3.969.951 6.201 2.724 2.23 1.772 3.116 4.231Q0-25.393 0-22.374zm-25.852-2.361q0 1.31.984 2.165.984.851 4.528.852 3.608 0 4.56-.852.951-.854.951-2.165v-17.651q0-1.313-.951-2.198-.953-.886-4.56-.886-3.544 0-4.528.886-.984.885-.984 2.198z" clip-path="url(#w)" style="fill:none;stroke:#000;stroke-width:3;stroke-linecap:butt;stroke-linejoin:miter;stroke-miterlimit:10;stroke-dasharray:none;stroke-opacity:1" transform="matrix(1.33333 0 0 -1.33333 743.052 953.182)"/><path d="M0 0v21.652L11.22 8.07V0q0-2.362 2.363-2.362h9.842q2.362 0 2.362 2.362v42.519q0 2.361-2.362 2.361h-9.842q-2.363 0-2.363-2.361V28.542L-1.509 43.108q-1.51 1.773-3.871 1.772h-6.824q-2.362 0-2.362-2.361V0q0-2.362 2.362-2.362h9.842Q0-2.362 0 0Z" clip-path="url(#x)" style="fill:none;stroke:#000;stroke-width:3;stroke-linecap:butt;stroke-linejoin:miter;stroke-miterlimit:10;stroke-dasharray:none;stroke-opacity:1" transform="matrix(1.33333 0 0 -1.33333 773.585 996.4)"/><path d="M0 0v7.677q0 2.362-2.362 2.362h-18.11v5.643h12.795q2.363 0 2.363 2.362v7.02q0 2.364-2.363 2.363h-12.795v5.052h18.11Q0 32.479 0 34.841v7.678q0 2.361-2.362 2.361h-30.445q-2.362 0-2.362-2.361V0q0-2.362 2.362-2.362h30.445Q0-2.362 0 0Z" clip-path="url(#y)" style="fill:none;stroke:#000;stroke-width:3;stroke-linecap:butt;stroke-linejoin:miter;stroke-miterlimit:10;stroke-dasharray:none;stroke-opacity:1" transform="matrix(1.33333 0 0 -1.33333 866.932 996.4)"/><path d="M24.001 0H4.431Q2.906 0 2.907-1.523v-27.329q0-1.521 1.524-1.523H24q1.522.002 1.523 1.523v4.934q-.002 1.512-1.523 1.512H12.364v3.258h8.227q1.512 0 1.512 1.511v4.512q0 1.524-1.512 1.523h-8.227v3.633h11.637q1.522 0 1.523 1.512v4.934Q25.522 0 24.001 0m20.59 0H31.255q-1.512 0-1.512-1.523v-4.934q0-1.512 1.512-1.512H42.61q.537 0 .809-.363.28-.36.281-.867 0-.712-.281-1.055-.273-.338-.809-.375l-6.328-.89q-2.953-.456-4.746-1.958-1.793-1.497-1.793-5.039v-4.43q0-3.631 2.32-5.53t6.41-1.899h11.813q1.512.002 1.512 1.523v5.016q0 1.525-1.512 1.524h-9.832q-1.138 0-1.137 1.265 0 1.222 1.137 1.348l6.281.844q1.992.294 3.47 1.03a5.34 5.34 0 0 1 2.296 2.18c.545.956.82 2.215.82 3.786v4.43q0 3.586-2.32 5.507Q48.679.001 44.591 0m27.243 0h-6.832Q63.49 0 63.49-1.523V-22.23h-6.21q-1.513 0-1.512-1.524v-5.098q0-1.521 1.511-1.523h22.278q1.521.002 1.523 1.523v5.098q-.002 1.525-1.523 1.524h-6.2v20.707Q73.355 0 71.834 0m19.831 0h-8.52q-1.524 0-1.523-1.523v-8.555q0-1.522 1.523-1.524h8.52q1.512.001 1.512 1.524v8.555Q93.177 0 91.665 0m0 0" aria-label="est." style="fill:#feffff;fill-opacity:1;fill-rule:nonzero;stroke:none" transform="translate(331.23 803.477)scale(1.33333)"/><path d="M0 0v4.936q0 1.517-1.519 1.518h-11.642v3.628h8.226q1.518 0 1.518 1.519v4.512q0 1.52-1.518 1.519h-8.226v3.248h11.642q1.52 0 1.519 1.518v4.936q0 1.52-1.519 1.519h-19.572q-1.518 0-1.518-1.519V0q0-1.52 1.518-1.519h19.572Q.001-1.519 0 0Z" clip-path="url(#z)" style="fill:none;stroke:#000;stroke-width:3;stroke-linecap:butt;stroke-linejoin:miter;stroke-miterlimit:10;stroke-dasharray:none;stroke-opacity:1" transform="matrix(1.33333 0 0 -1.33333 365.256 801.452)"/><path d="M0 0q2.32 1.918 2.32 5.505v4.43q0 2.361-.822 3.795a5.36 5.36 0 0 1-2.299 2.173q-1.477.738-3.459 1.034l-6.285.843q-1.14.126-1.14 1.35 0 1.266 1.14 1.266h9.828q1.518 0 1.518 1.518v5.02q0 1.518-1.518 1.518h-11.811q-4.092 0-6.412-1.898t-2.32-5.526v-4.429q0-3.544 1.793-5.04 1.793-1.498 4.745-1.962l6.328-.886q.547-.042.822-.38t.275-1.055q0-.506-.275-.864t-.822-.358h-11.347q-1.518 0-1.519-1.519V-.4q0-1.52 1.519-1.519h13.329Q-2.321-1.919 0 0z" clip-path="url(#A)" style="fill:none;stroke:#000;stroke-width:3;stroke-linecap:butt;stroke-linejoin:miter;stroke-miterlimit:10;stroke-dasharray:none;stroke-opacity:1" transform="matrix(1.33333 0 0 -1.33333 399.227 800.918)"/><path d="M0 0v20.712h6.201q1.518 0 1.518 1.518v5.104q0 1.52-1.518 1.519h-22.272q-1.518 0-1.519-1.519V22.23q0-1.518 1.519-1.518h6.2V0q0-1.52 1.519-1.519h6.833Q.001-1.519 0 0Z" clip-path="url(#B)" style="fill:none;stroke:#000;stroke-width:3;stroke-linecap:butt;stroke-linejoin:miter;stroke-miterlimit:10;stroke-dasharray:none;stroke-opacity:1" transform="matrix(1.33333 0 0 -1.33333 429.035 801.452)"/><path d="M0 0v8.563q0 1.518-1.519 1.519h-8.521q-1.518 0-1.518-1.519V0q0-1.52 1.518-1.519h8.521Q.001-1.519 0 0Z" clip-path="url(#C)" style="fill:none;stroke:#000;stroke-width:3;stroke-linecap:butt;stroke-linejoin:miter;stroke-miterlimit:10;stroke-dasharray:none;stroke-opacity:1" transform="matrix(1.33333 0 0 -1.33333 455.469 801.452)"/><path d="M19.838.001H3.163Q1.8.003 1.803-1.359v-4.558q-.002-1.359 1.36-1.36h4.23v-12.597H3.924q-1.36.002-1.359-1.36v-4.558q-.002-1.359 1.36-1.36h10.933q1.359.001 1.36 1.36v18.516h3.62q1.36 0 1.36 1.359v4.559q0 1.36-1.36 1.359M38.09-10.253q-1.889.563-4.793.563-3.388 0-5.332-.75-1.946-.76-2.742-2.286-.785-1.52-.785-3.75v-3.62q-.001-2.295.902-4.008.915-1.722 3.27-2.66 2.355-.95 6.691-.95 3.468.001 5.696.55 2.223.541 3.445 1.548 1.23.998 1.7 2.39.467 1.398.468 3.13v12.363q0 2.31-.832 4.043-.822 1.735-2.836 2.718-2.017.974-5.602.973h-8.672q-1.36.002-1.359-1.36v-4.453q-.002-1.345 1.36-1.347h7.042q1.395 0 1.887-.434.492-.432.492-1.84zm0-7.02v-2.226q-.001-.597-.433-.996-.435-.398-2.086-.399-1.7.002-2.156.399a1.28 1.28 0 0 0-.446.996v2.227q-.001.564.446.96.456.4 2.156.399 1.651 0 2.086-.399.432-.396.433-.96m31.046-9.878q1.347 0 1.348 1.359v9.54q0 2.38-.621 3.808a4.9 4.9 0 0 1-1.922 2.25q-1.3.808-3.34 1.406l-2.789.832v6.598q0 1.36-1.36 1.359h-6.105q-1.361.002-1.36-1.36v-6.82q-.001-2.412.622-3.832a4.8 4.8 0 0 1 1.945-2.226q1.323-.81 3.317-1.407l3.058-.832v-3.398H51.593q-1.361.002-1.36-1.36v-4.558q-.001-1.359 1.36-1.36zM87.875 0H75.886q-1.361.002-1.36-1.36v-4.406q-.001-1.358 1.36-1.359h9.727q1.02.002 1.02-.867v-1.477q0-.866-1.02-.867H76.26q-1.361.002-1.36-1.36v-14.097q-.001-1.359 1.36-1.36h16.254q1.359.001 1.36 1.36v4.488q-.001 1.361-1.36 1.36h-9.047v2.449h5.168q3.045.002 4.817 1.488 1.78 1.489 1.78 4.512v5.238q0 2.861-1.98 4.559Q91.272.002 87.875 0m0 0" aria-label="1975" style="fill:#feffff;fill-opacity:1;fill-rule:nonzero;stroke:none" transform="translate(981.049 802.733)scale(1.33333)"/><path d="M0 0v4.564q0 1.358-1.358 1.358h-3.621V24.44q0 1.358-1.357 1.358h-10.938q-1.358 0-1.358-1.358v-4.563q0-1.357 1.358-1.357h3.47V5.922h-4.225q-1.357 0-1.357-1.358V0q0-1.357 1.357-1.357h16.671Q0-1.357 0 0Z" clip-path="url(#D)" style="fill:none;stroke:#000;stroke-width:3;stroke-linecap:butt;stroke-linejoin:miter;stroke-miterlimit:10;stroke-dasharray:none;stroke-opacity:1" transform="matrix(1.33333 0 0 -1.33333 1009.311 800.923)"/><path d="M0 0q0-1.395-.49-1.829t-1.886-.434h-7.053q-1.358 0-1.358-1.357v-4.451q0-1.358 1.358-1.358h8.675q3.582 0 5.601.981 2.017.98 2.847 2.716.83 1.735.83 4.035v12.371q0 1.734-.471 3.131-.473 1.394-1.698 2.394t-3.451 1.547-5.695.547q-4.338 0-6.694-.943-2.358-.943-3.263-2.66-.905-1.716-.905-4.016v-3.62q0-2.227.792-3.753.791-1.529 2.735-2.282Q-8.185.265-4.79.265q2.904 0 4.79.565zm-.434 6.884q-.433-.397-2.093-.397-1.697 0-2.15.397-.452.395-.452.962v2.224q0 .604.452 1 .453.396 2.15.396 1.66 0 2.093-.396t.434-1V7.846q0-.567-.434-.962Z" clip-path="url(#E)" style="fill:none;stroke:#000;stroke-width:3;stroke-linecap:butt;stroke-linejoin:miter;stroke-miterlimit:10;stroke-dasharray:none;stroke-opacity:1" transform="matrix(1.33333 0 0 -1.33333 1031.84 790.161)"/><path d="M0 0q-1.358 0-1.358-1.357v-4.564q0-1.357 1.358-1.357h10.334v-3.395l-3.055-.83q-2-.603-3.319-1.414a4.85 4.85 0 0 1-1.942-2.226q-.622-1.415-.622-3.828v-6.827q0-1.357 1.357-1.357h6.11q1.359 0 1.358 1.357v6.601l2.791.83q2.037.602 3.338 1.414a4.85 4.85 0 0 1 1.923 2.244q.623 1.433.623 3.81v9.542Q18.896 0 17.538 0Z" clip-path="url(#F)" style="fill:none;stroke:#000;stroke-width:3;stroke-linecap:butt;stroke-linejoin:miter;stroke-miterlimit:10;stroke-dasharray:none;stroke-opacity:1" transform="matrix(1.33333 0 0 -1.33333 1049.843 766.526)"/><path d="M0 0q1.98 1.697 1.98 4.563v5.244q0 3.015-1.773 4.506-1.773 1.49-4.828 1.49h-5.167v2.452h9.052q1.358 0 1.358 1.357v4.489q0 1.357-1.358 1.357h-16.255q-1.358 0-1.358-1.357V9.995q0-1.358 1.358-1.358h9.353q1.018 0 1.018-.867V6.299q0-.868-1.018-.868h-9.731q-1.358 0-1.358-1.358V-.34q0-1.357 1.358-1.357h11.994Q-1.98-1.697 0 0Z" clip-path="url(#G)" style="fill:none;stroke:#000;stroke-width:3;stroke-linecap:butt;stroke-linejoin:miter;stroke-miterlimit:10;stroke-dasharray:none;stroke-opacity:1" transform="matrix(1.33333 0 0 -1.33333 1105.387 800.47)"/><path d="M0 0c20.391 6.243 66.288 16.846 105.333 1.031 5.891-2.387 10.282-7.445 11.911-13.589 6.194-23.349 20.064-89.218 9.263-179.9a175 175 0 0 1-1.197-17.994l-2.128-136.185c-.137-8.778-5.064-16.754-12.817-20.871-19.509-10.362-60.141-24.191-111.257 1.264-8.125 4.046-13.23 12.396-13.204 21.473l-.987 132.121a82 82 0 0 1-1.888 16.879c-5.216 23.859-18.509 100.234 3.282 181.668C-11.883-7.352-6.682-2.046 0 0" clip-path="url(#H)" style="fill:#ff3342;fill-opacity:1;fill-rule:nonzero;stroke:none" transform="matrix(1.33333 0 0 -1.33333 643.537 372.72)"/><path d="M0 0c18.615 5.683 38.088 9.14 57.578 9.25 12.291.07 24.624-1.253 36.466-4.624 5.616-1.599 11.999-3.252 16.288-7.44 3.103-3.031 4.581-6.759 5.633-10.866 3.108-12.134 5.457-24.463 7.317-36.846 2.952-19.666 4.58-39.531 5.12-59.407.706-25.976-.488-51.999-3.415-77.816-1.164-10.266-1.563-20.44-1.724-30.739l-.527-33.737-.673-43.077-.568-36.309-.165-10.583c-.048-3.048-.087-6.005-.963-8.983a22.66 22.66 0 0 0-9.508-12.627c-2.8-1.782-5.923-3.167-8.955-4.502-7.202-3.169-14.767-5.548-22.471-7.141-21.454-4.437-43.702-2.177-64.247 5.206a141 141 0 0 0-9.844 3.962c-2.857 1.277-5.83 2.525-8.444 4.264-4.532 3.017-7.808 7.728-9.174 12.985-.756 2.908-.72 5.828-.742 8.794l-.206 27.515-.314 42.078-.295 39.482c-.049 6.576-.089 13.153-.147 19.73-.069 7.702-1.501 15.076-3.005 22.583a372 372 0 0 0-3.403 19.892c-2.9 20.112-4.311 40.457-4.288 60.776.031 26.593 2.585 53.216 8.197 79.224a336 336 0 0 0 2.286 9.874c.754 3.049 1.333 6.302 2.69 9.153C-9.225-5.142-5.026-1.611 0 0c1.831.587 1.048 3.484-.798 2.893-5.002-1.603-9.324-4.79-12.15-9.245-1.51-2.382-2.347-4.972-3.056-7.68a333 333 0 0 1-2.669-10.96c-3.081-13.646-5.313-27.481-6.794-41.39-2.592-24.342-2.853-48.925-1.071-73.334 1.202-16.475 3.296-32.918 6.5-49.127 1.486-7.514 2.989-14.876 3.058-22.588.019-2.195.032-4.389.049-6.584l.244-32.678.328-43.887.275-36.748c.056-7.541-.734-15.822 2.481-22.829 2.199-4.794 5.987-8.866 10.595-11.43 5.865-3.264 12.322-5.784 18.649-7.99 11.393-3.972 23.329-6.43 35.388-7.029 17.826-.887 35.729 2.435 52.078 9.574 3.137 1.369 6.372 2.796 9.266 4.637a25.8 25.8 0 0 1 9.996 11.917c1.539 3.736 1.888 7.593 1.95 11.561l.412 26.373.662 42.39.645 41.261.359 22.952c.133 8.539 1.035 16.951 1.948 25.432a566 566 0 0 1 2.936 41.367c.786 23.108.14 46.277-2.12 69.29-1.58 16.093-3.918 32.132-7.272 47.954-1.051 4.96-2.189 9.908-3.497 14.807-1.324 4.957-4.126 9.291-8.262 12.36-4.747 3.522-11.179 5.155-16.806 6.67-22.745 6.123-46.975 5.172-69.955.882A223 223 0 0 1-.798 2.893C-2.639 2.331-1.854-.566 0 0" clip-path="url(#I)" style="fill:#000;fill-opacity:1;fill-rule:nonzero;stroke:none" transform="matrix(1.33333 0 0 -1.33333 644.068 374.65)"/><path d="M0 0a546 546 0 0 0-2.07-42.178c-.802-9.157-1.443-18.567-2.58-27.851-.71-5.827-1.613-11.601-2.875-17.235-5.126-22.97-20.424-41.298-45.478-41.416l-22.813-.113a45.5 45.5 0 0 0-8.834.827 46.6 46.6 0 0 0-26.123 14.925c-9.374 10.635-11.425 27.427-13.653 40.992-6.481 39.418-10.29 77.333-6.627 117.397 1.227 13.371 3.019 26.701 5.487 39.901.33 1.764 1.325 13.894 3.137 14.796 58.292 28.936 111.629.488 111.629.481 3.218-1.71 4.721-21.583 5.363-25.386a369 369 0 0 0 3.369-25.437C-.439 33.194.172 16.585 0 0" clip-path="url(#J)" style="fill:#ff8fdd;fill-opacity:1;fill-rule:nonzero;stroke:none" transform="matrix(1.33333 0 0 -1.33333 801.306 526.128)"/><path d="M0 0c-.15-14.408-.915-28.789-2.154-43.143-1.207-13.984-2.03-28.07-4.91-41.839-1.994-9.534-5.519-18.888-11.697-26.534-5.749-7.115-13.474-12.288-22.397-14.45-6.194-1.5-12.583-1.225-18.906-1.256-5.668-.028-11.408-.32-17.071.004-11.871.679-23.244 6.313-31.077 15.238-7.214 8.218-9.725 19.601-11.58 30.075-4.666 26.353-8.292 53.023-9.37 79.782-1.134 28.165 1.04 56.336 6.012 84.073.633 3.531.999 7.078 1.543 10.622.274 1.782.556 3.604 1.122 5.322.093.281.166.456.226.605.051.126.153.235.2.36-.066-.176-.122-.135-.026-.038-.257-.261-.002-.031.36.149q.556.276 1.117.543 1.44.69 2.898 1.346a121.5 121.5 0 0 0 36.916 9.98c18.711 1.972 37.812-.302 55.638-6.27 4.297-1.438 8.146-2.908 12.086-4.828.304-.148.605-.306.909-.456q.074-.035.144-.078c-.224.138.056-.005.198-.214-.181.266.215-.386.273-.494 1.431-2.654 1.855-6.502 2.339-9.58.571-3.63.974-7.283 1.401-10.932.576-4.938 1.507-9.83 2.171-14.758C-1.734 49.127-.654 34.914-.208 20.694.008 13.798.069 6.899 0 0c-.019-1.931 2.981-1.932 3 0 .145 14.618-.305 29.245-1.53 43.815A399 399 0 0 1-.984 65.783c-.467 3.327-1.01 6.64-1.539 9.957-.086.54-.077.529-.162 1.226q-.138 1.143-.268 2.287c-.461 4.003-.929 8.011-1.611 11.984-.519 3.025-.961 6.78-2.751 9.377-.627.909-1.394 1.307-2.339 1.765a91 91 0 0 1-5.083 2.251c-15.28 6.294-31.947 9.582-48.45 9.882-12.171.221-24.393-1.289-36.122-4.556-6.757-1.882-13.345-4.352-19.697-7.324-1.033-.483-2.376-.87-3.2-1.69-.516-.513-.805-1.228-1.05-1.896-.601-1.641-.882-3.413-1.158-5.132-.604-3.761-.917-7.217-1.542-10.683a426 426 0 0 1-3.334-21.765c-1.838-14.405-2.983-28.884-3.163-43.408-.351-28.394 2.719-56.688 7.145-84.7 1.813-11.48 3.117-23.432 7.332-34.34 2.016-5.218 4.75-10.065 8.591-14.162a47.9 47.9 0 0 1 14.203-10.405 48.4 48.4 0 0 1 17.579-4.639c2.518-.172 5.056-.096 7.579-.083 6.058.03 12.116.056 18.174.09 8.858.049 17.601 2.278 25.022 7.219 7.947 5.291 13.902 13.103 17.778 21.764 5.06 11.307 6.667 23.853 7.956 36.065C.441-50.595 1.634-35.96 2.36-21.358Q2.89-10.686 3 0C3.02 1.931.02 1.932 0 0" clip-path="url(#K)" style="fill:#000;fill-opacity:1;fill-rule:nonzero;stroke:none" transform="matrix(1.33333 0 0 -1.33333 799.306 526.128)"/><path d="m0 0-37.674-.436c-15.01-.174-27.32 11.854-27.493 26.864l92.031 1.066C27.038 12.483 15.01.174 0 0" clip-path="url(#L)" style="fill:#0aff9f;fill-opacity:1;fill-rule:nonzero;stroke:none" transform="matrix(1.33333 0 0 -1.33333 740.283 603.271)"/><path d="m0 0-24.484-.283-12.197-.142c-5.544-.064-10.811 1.17-15.485 4.25-7.042 4.639-11.404 12.68-11.501 21.103l-1.5-1.5 9.159.106 21.995.255 26.602.308 22.899.265 7.597.088c1.156.013 2.474-.149 3.617.042.051.008.11.001.162.002l-1.5 1.5c.078-6.723-2.513-13.294-7.185-18.133C13.408 2.92 6.857.123 0 0c-1.928-.034-1.934-3.035 0-3 11.993.215 22.768 7.898 26.77 19.231a28.5 28.5 0 0 1 1.594 9.763c-.009.803-.679 1.509-1.5 1.5l-9.159-.106-21.995-.255-26.603-.308-22.899-.265c-3.726-.043-7.491.068-11.213-.13l-.162-.002c-.804-.009-1.51-.68-1.5-1.5.091-7.88 3.498-15.55 9.334-20.858 5.393-4.906 12.455-7.558 19.737-7.505 8.99.065 17.98.208 26.97.312L0-3c1.929.022 1.934 3.022 0 3" clip-path="url(#M)" style="fill:#000;fill-opacity:1;fill-rule:nonzero;stroke:none" transform="matrix(1.33333 0 0 -1.33333 740.283 601.271)"/><path d="m0 0 88.633-.364c5.039-.02 9.319 3.838 10.027 9.053 2.032 14.959 4.825 46.05-1.524 75.43-1.041 4.817-5.15 8.232-9.873 8.228L.028 92.268c-4.747-.005-8.853-3.459-9.851-8.309-2.844-13.824-7.009-43.263-.013-75.666C-8.796 3.471-4.728.019 0 0" clip-path="url(#N)" style="fill:#feffff;fill-opacity:1;fill-rule:nonzero;stroke:none" transform="matrix(1.33333 0 0 -1.33333 653.721 579.094)"/><path d="m0 0 19.229-.079 38.397-.157 28.632-.118c.747-.003 1.494-.014 2.241-.009C91.68-.34 94.72.888 96.918 3.215c3.025 3.201 3.324 7.329 3.812 11.479q.756 6.437 1.202 12.905c.761 11.01.871 22.08.12 33.094-.419 6.155-1.114 12.295-2.138 18.38-.872 5.176-1.43 10.726-5.968 14.073-2.993 2.208-6.28 2.201-9.751 2.198l-12.09-.011-37.637-.034-30.691-.028c-2.946-.003-5.84.188-8.598-1.117-4.173-1.975-5.985-5.851-6.819-10.153a188 188 0 0 1-1.743-10.695c-1.341-9.972-1.949-20.043-1.755-30.105.117-6.035.523-12.065 1.241-18.059a177 177 0 0 1 1.383-9.439c.503-2.879.842-5.996 2.026-8.69A11.75 11.75 0 0 1 0 0c1.931-.042 1.931 2.958 0 3-2.212.048-4.28.906-5.855 2.469-1.74 1.729-2.362 3.849-2.844 6.186a166 166 0 0 0-2.735 18.6c-.964 10.686-.97 21.455-.12 32.149.603 7.582 1.548 15.218 3.178 22.656.888 4.055 4.174 7.139 8.413 7.208.515.008 1.031 0 1.546.001l26.047.024 37.607.034c7.252.007 14.505.044 21.757.02 2.501-.008 4.779-.936 6.493-2.787 1.737-1.876 2.198-4.222 2.682-6.65.583-2.922 1.08-5.861 1.5-8.811 1.636-11.476 2.097-23.124 1.816-34.705A266 266 0 0 0 97.5 12.8c-.233-1.871-.394-3.776-1.292-5.471-.955-1.803-2.484-3.288-4.381-4.074-1.28-.53-2.601-.621-3.956-.615l-23.712.097-37.628.154-25.239.104L0 3c-1.931.008-1.933-2.992 0-3" clip-path="url(#O)" style="fill:#000;fill-opacity:1;fill-rule:nonzero;stroke:none" transform="matrix(1.33333 0 0 -1.33333 653.721 581.094)"/><path d="m0 0 77.222-.29c4.39-.016 8.12 3.272 8.738 7.713 1.774 12.744 4.214 39.227-1.311 64.252-.906 4.103-4.485 7.011-8.6 7.007L.046 78.594c-4.137-.005-7.715-2.947-8.585-7.08-2.481-11.776-6.116-36.852-.029-64.452C-7.662 2.954-4.119.015 0 0" clip-path="url(#P)" style="fill:#3bb4fb;fill-opacity:1;fill-rule:nonzero;stroke:none" transform="matrix(1.33333 0 0 -1.33333 661.723 570.023)"/><path d="m0 0 16.638-.062 33.306-.125 25.015-.094c3.33-.013 6.428.252 9.107 2.615 2.959 2.611 3.374 6.216 3.827 9.893q.671 5.467 1.074 10.962c.703 9.577.817 19.21.15 28.793a156 156 0 0 1-1.888 15.816c-.778 4.496-1.332 9.18-5.32 12.023-2.626 1.873-5.516 1.861-8.538 1.858l-10.484-.013-32.648-.037-26.776-.031c-2.368-.003-4.843.19-7.088-.704-3.757-1.496-5.805-4.716-6.582-8.554a153 153 0 0 1-1.559-9.155c-1.201-8.596-1.767-17.275-1.61-25.955a151 151 0 0 1 2.299-23.744c.436-2.439.739-5.087 1.757-7.365C-7.669 2.429-4.014.096 0 0c1.931-.046 1.93 2.954 0 3-1.91.046-3.692.77-5.052 2.123-1.611 1.604-2.041 3.628-2.483 5.781a138 138 0 0 0-2.279 15.667c-.811 9.211-.772 18.495.031 27.705a157 157 0 0 0 1.329 10.922c.441 2.795.715 5.918 1.691 8.587 1.056 2.886 3.802 4.761 6.848 4.809.521.009 1.044.001 1.566.002l22.941.026 32.378.038c6.279.007 12.56.049 18.839.021 2.122-.009 4.077-.761 5.546-2.327 1.542-1.644 1.904-3.748 2.334-5.884q.783-3.915 1.336-7.869c1.377-9.807 1.731-19.762 1.444-29.654a221 221 0 0 0-1.811-22.561c-.228-1.722-.552-3.35-1.622-4.773a7.4 7.4 0 0 0-4.356-2.761c-.769-.166-1.546-.141-2.326-.138l-21.026.078-32.519.122-21.693.082L0 3c-1.931.007-1.933-2.993 0-3" clip-path="url(#Q)" style="fill:#000;fill-opacity:1;fill-rule:nonzero;stroke:none" transform="matrix(1.33333 0 0 -1.33333 661.723 572.023)"/><path d="m0 0-54.537-.631a5.561 5.561 0 1 0-.129 11.122l54.537.632A5.563 5.563 0 0 0 0 0" clip-path="url(#R)" style="fill:#feffff;fill-opacity:1;fill-rule:nonzero;stroke:none" transform="matrix(1.33333 0 0 -1.33333 747.989 411.32)"/><path d="m0 0-22.551-.261-29.96-.347c-.673-.008-1.347-.032-2.02-.023-3.716.047-5.635 4.775-2.642 7.212 1.084.883 2.3.908 3.593.923l4.255.049 32.638.378 13.52.157c.952.011 1.906.031 2.858.033 2.632.004 4.791-2.222 4.217-4.919C3.511 1.337 1.868.078 0 0c-1.924-.08-1.934-3.08 0-3 4.507.187 7.916 4.366 6.77 8.843-.826 3.23-3.8 5.254-7.048 5.278-3.139.024-6.284-.073-9.424-.109l-35.586-.412c-3.084-.036-6.174-.016-9.257-.107-3.356-.1-6.356-2.337-6.986-5.728-.815-4.382 2.592-8.337 6.995-8.396 8.333-.113 16.693.193 25.025.289l28.983.336L0-3c1.929.022 1.934 3.022 0 3" clip-path="url(#S)" style="fill:#000;fill-opacity:1;fill-rule:nonzero;stroke:none" transform="matrix(1.33333 0 0 -1.33333 747.989 409.32)"/><path d="M0 0c2.325 1.684 5.507-.289 5.06-3.126a154 154 0 0 0-1.829-9.687C-1.895-35.782-17.192-54.11-42.247-54.228l-22.813-.113h-.089c-3.098-.009-4.357 4.003-1.848 5.821z" clip-path="url(#T)" style="fill:#ffe30d;fill-opacity:1;fill-rule:nonzero;stroke:none" transform="matrix(1.33333 0 0 -1.33333 786.964 625.397)"/><path d="M0 0c.783.513 1.725.591 2.403-.16.854-.947.26-2.495.071-3.598C1.935-6.9 1.33-10.04.549-13.133c-1.187-4.706-2.831-9.301-5.041-13.626-4.195-8.21-10.406-15.392-18.582-19.81-6.833-3.692-14.261-4.836-21.932-4.874l-18.809-.093c-.654-.003-1.316-.036-1.969-.01-1.214.05-2.251 1.168-1.669 2.427.269.583 1.015 1.003 1.688 1.491l9.656 6.993 33.068 23.949C-15.477-11.209-7.886-5.766-.349-.253zc1.549 1.122.053 3.726-1.514 2.59l-20.749-15.027-35.051-25.383-10.082-7.302c-1.024-.742-2.116-1.429-2.701-2.603-1.012-2.031-.378-4.581 1.436-5.926.995-.739 2.142-.898 3.339-.892q9.492.045 18.985.094c2.671.013 5.341-.01 8.004.257 5.133.514 10.123 1.828 14.793 4.032 8.87 4.186 15.896 11.515 20.639 20.015 2.5 4.479 4.418 9.294 5.812 14.226.819 2.902 1.442 5.857 1.999 8.819.506 2.693 1.829 6.288-.084 8.698-1.543 1.944-4.277 2.345-6.34.992C-3.122 1.536-1.621-1.063 0 0" clip-path="url(#U)" style="fill:#000;fill-opacity:1;fill-rule:nonzero;stroke:none" transform="matrix(1.33333 0 0 -1.33333 787.973 627.124)"/><path d="m0 0 14.658-17.739 2.084-2.521c1.23-1.49 3.342.643 2.121 2.121L4.205-.4 2.121 2.121C.891 3.611-1.221 1.478 0 0" clip-path="url(#V)" style="fill:#000;fill-opacity:1;fill-rule:nonzero;stroke:none" transform="matrix(1.33333 0 0 -1.33333 742.485 658.71)"/><path d="m0 0-20.875-.242a7.565 7.565 0 0 0-.175 15.127l20.875.242A7.565 7.565 0 0 0 0 0" clip-path="url(#W)" style="fill:#feffff;fill-opacity:1;fill-rule:nonzero;stroke:none" transform="matrix(1.33333 0 0 -1.33333 732.042 743.123)"/><path d="m0 0-12.902-.149-6.992-.081c-2.51-.029-4.869.603-6.26 2.916-2.058 3.423-.207 7.981 3.656 9.001 1.504.398 3.265.219 4.804.237l15.973.185c2.693.031 5.283-.346 6.825-2.91C7.507 5.203 4.58.156 0 0c-1.925-.066-1.934-3.066 0-3 4.871.166 8.919 4.023 8.974 8.978.052 4.717-3.642 8.662-8.291 9.108-1.847.178-3.769.007-5.62-.015l-9.798-.113c-2.072-.024-4.147-.018-6.219-.072-4.161-.109-7.95-2.9-8.848-7.063-.991-4.591 1.693-9.275 6.196-10.673 1.978-.614 4.233-.374 6.277-.351L0-3c1.929.022 1.934 3.022 0 3" clip-path="url(#X)" style="fill:#000;fill-opacity:1;fill-rule:nonzero;stroke:none" transform="matrix(1.33333 0 0 -1.33333 732.042 741.123)"/><path d="m0 0-17.957-10.647a7.565 7.565 0 0 0-7.715 13.013l17.957 10.646A7.564 7.564 0 1 0 0 0" clip-path="url(#Y)" style="fill:#feffff;fill-opacity:1;fill-rule:nonzero;stroke:none" transform="matrix(1.33333 0 0 -1.33333 789.875 724.864)"/><path d="m0 0-11.098-6.58-6.015-3.566c-2.148-1.274-4.511-1.914-6.858-.609-3.486 1.937-4.205 6.799-1.357 9.624 1.109 1.1 2.727 1.829 4.056 2.618l13.741 8.146c2.305 1.367 4.74 2.345 7.344.897C3.899 8.26 3.908 2.437 0 0c-1.635-1.02-.13-3.616 1.514-2.59C5.652-.01 7.215 5.359 4.786 9.675c-2.31 4.104-7.498 5.68-11.738 3.732-1.687-.776-3.266-1.879-4.859-2.823l-8.429-4.997c-1.782-1.057-3.582-2.09-5.35-3.172-3.558-2.18-5.423-6.501-4.118-10.559 1.439-4.478 6.127-7.157 10.718-6.118 2.011.456 3.845 1.795 5.597 2.833L1.514-2.59C3.174-1.607 1.666.988 0 0" clip-path="url(#Z)" style="fill:#000;fill-opacity:1;fill-rule:nonzero;stroke:none" transform="matrix(1.33333 0 0 -1.33333 788.866 723.137)"/><path d="m0 0-17.957-10.647a7.565 7.565 0 0 0-7.715 13.013l17.957 10.646A7.564 7.564 0 1 0 0 0" clip-path="url(#aa)" style="fill:#feffff;fill-opacity:1;fill-rule:nonzero;stroke:none" transform="matrix(1.33333 0 0 -1.33333 790.3 761.541)"/><path d="m0 0-11.098-6.58-6.015-3.566c-2.148-1.274-4.511-1.914-6.858-.609-3.487 1.937-4.205 6.799-1.357 9.624 1.109 1.1 2.727 1.829 4.056 2.618l13.741 8.146c2.305 1.367 4.74 2.345 7.344.897C3.899 8.26 3.908 2.437 0 0c-1.635-1.02-.13-3.616 1.514-2.59C5.652-.01 7.215 5.359 4.786 9.675c-2.31 4.104-7.498 5.68-11.738 3.732-1.687-.776-3.266-1.879-4.859-2.823l-8.429-4.997c-1.782-1.057-3.582-2.09-5.35-3.172-3.558-2.18-5.423-6.501-4.118-10.559 1.439-4.478 6.127-7.157 10.718-6.118 2.011.456 3.845 1.795 5.597 2.833L1.514-2.59C3.174-1.607 1.666.988 0 0" clip-path="url(#ab)" style="fill:#000;fill-opacity:1;fill-rule:nonzero;stroke:none" transform="matrix(1.33333 0 0 -1.33333 789.29 759.815)"/><path d="m0 0-17.957-10.647a7.565 7.565 0 0 0-7.715 13.013l17.957 10.646A7.564 7.564 0 1 0 0 0" clip-path="url(#ac)" style="fill:#feffff;fill-opacity:1;fill-rule:nonzero;stroke:none" transform="matrix(1.33333 0 0 -1.33333 790.756 800.97)"/><path d="m0 0-11.098-6.58-6.015-3.566c-2.148-1.274-4.511-1.914-6.858-.609-3.486 1.937-4.205 6.799-1.357 9.624 1.109 1.1 2.727 1.829 4.056 2.618l13.741 8.146c2.305 1.367 4.74 2.345 7.344.897C3.899 8.26 3.908 2.437 0 0c-1.635-1.02-.13-3.616 1.514-2.59C5.652-.01 7.215 5.36 4.786 9.675c-2.31 4.104-7.498 5.68-11.738 3.732-1.687-.776-3.266-1.879-4.859-2.823l-8.429-4.997c-1.782-1.057-3.582-2.09-5.35-3.172-3.558-2.18-5.423-6.501-4.118-10.559 1.439-4.478 6.127-7.157 10.718-6.118 2.011.456 3.845 1.795 5.597 2.833L1.514-2.59C3.174-1.607 1.666.988 0 0" clip-path="url(#ad)" style="fill:#000;fill-opacity:1;fill-rule:nonzero;stroke:none" transform="matrix(1.33333 0 0 -1.33333 789.747 799.242)"/><path d="m0 0 18.199-10.228A7.56 7.56 0 0 1 28.498-7.34a7.564 7.564 0 0 1-2.887 10.3L7.412 13.188A7.564 7.564 0 1 1 0 0" clip-path="url(#ae)" style="fill:#feffff;fill-opacity:1;fill-rule:nonzero;stroke:none" transform="matrix(1.33333 0 0 -1.33333 645.656 726.534)"/><path d="m0 0 13.189-7.412c1.664-.936 3.314-1.905 4.996-2.808 4.031-2.166 9.067-1.178 11.803 2.557 2.739 3.74 2.121 9.207-1.434 12.206-1.477 1.246-3.365 2.095-5.037 3.035-4.793 2.693-9.57 5.419-14.38 8.082C5.124 17.88.09 17.089-2.746 13.365-6.066 9.004-4.647 2.751 0 0c1.665-.986 3.176 1.607 1.514 2.59-3.51 2.078-4.2 6.985-1.125 9.795 2.152 1.967 5.066 1.902 7.486.542l13.209-7.423c1.485-.835 2.986-1.646 4.458-2.506 3.005-1.755 4.132-5.568 2.242-8.584-1.778-2.837-5.417-3.519-8.257-1.947-1.647.912-3.281 1.844-4.922 2.766L1.514 2.59C-.171 3.537-1.685.947 0 0" clip-path="url(#af)" style="fill:#000;fill-opacity:1;fill-rule:nonzero;stroke:none" transform="matrix(1.33333 0 0 -1.33333 644.646 728.261)"/><path d="m0 0 18.199-10.228a7.564 7.564 0 0 1 10.3 2.888 7.565 7.565 0 0 1-2.888 10.3L7.412 13.188A7.564 7.564 0 1 1 0 0" clip-path="url(#ag)" style="fill:#feffff;fill-opacity:1;fill-rule:nonzero;stroke:none" transform="matrix(1.33333 0 0 -1.33333 646.08 763.211)"/><path d="m0 0 13.189-7.412c1.664-.936 3.314-1.905 4.996-2.808 4.031-2.166 9.067-1.178 11.803 2.557 2.739 3.74 2.121 9.207-1.434 12.206-1.477 1.246-3.365 2.095-5.037 3.035-4.793 2.693-9.57 5.419-14.38 8.082C5.124 17.88.09 17.089-2.746 13.365-6.066 9.004-4.647 2.751 0 0c1.665-.986 3.176 1.607 1.514 2.59-3.51 2.078-4.2 6.985-1.125 9.795 2.152 1.967 5.066 1.902 7.486.542l13.209-7.423c1.485-.835 2.986-1.646 4.458-2.506 3.005-1.755 4.132-5.568 2.242-8.584-1.778-2.837-5.417-3.519-8.257-1.947-1.647.912-3.281 1.844-4.922 2.766L1.514 2.59C-.171 3.537-1.685.947 0 0" clip-path="url(#ah)" style="fill:#000;fill-opacity:1;fill-rule:nonzero;stroke:none" transform="matrix(1.33333 0 0 -1.33333 645.07 764.938)"/><path d="m0 0 18.199-10.228A7.56 7.56 0 0 1 28.498-7.34a7.564 7.564 0 0 1-2.887 10.3L7.412 13.188A7.564 7.564 0 1 1 0 0" clip-path="url(#ai)" style="fill:#feffff;fill-opacity:1;fill-rule:nonzero;stroke:none" transform="matrix(1.33333 0 0 -1.33333 646.537 802.64)"/><path d="m0 0 13.189-7.412c1.664-.936 3.314-1.905 4.996-2.808 4.031-2.166 9.067-1.178 11.803 2.557 2.739 3.74 2.121 9.207-1.434 12.206-1.477 1.246-3.365 2.095-5.037 3.035-4.793 2.693-9.57 5.419-14.38 8.082C5.124 17.88.09 17.089-2.746 13.365-6.066 9.004-4.647 2.751 0 0c1.665-.986 3.176 1.607 1.514 2.59-3.51 2.078-4.2 6.985-1.125 9.795 2.152 1.967 5.066 1.902 7.486.542l13.209-7.423c1.485-.835 2.986-1.646 4.458-2.506 3.005-1.755 4.132-5.568 2.242-8.584-1.778-2.837-5.417-3.519-8.257-1.947-1.647.912-3.281 1.844-4.922 2.766L1.514 2.59C-.171 3.537-1.685.947 0 0" clip-path="url(#aj)" style="fill:#000;fill-opacity:1;fill-rule:nonzero;stroke:none" transform="matrix(1.33333 0 0 -1.33333 645.527 804.366)"/><path d="m0 0-20.875-.242a7.565 7.565 0 0 0-.175 15.127l20.875.242A7.565 7.565 0 0 0 0 0" clip-path="url(#ak)" style="fill:#feffff;fill-opacity:1;fill-rule:nonzero;stroke:none" transform="matrix(1.33333 0 0 -1.33333 732.4 774.049)"/><path d="m0 0-12.902-.149-6.992-.081c-2.51-.029-4.869.604-6.26 2.916-2.058 3.423-.207 7.981 3.656 9.002 1.504.397 3.265.218 4.804.236l15.973.185c2.693.031 5.283-.346 6.825-2.91C7.507 5.203 4.58.156 0 0c-1.925-.066-1.934-3.066 0-3 4.871.166 8.919 4.023 8.974 8.978.052 4.717-3.642 8.662-8.291 9.109-1.847.177-3.769.006-5.62-.016l-9.798-.113c-2.072-.024-4.147-.018-6.219-.072-4.161-.109-7.95-2.9-8.848-7.063-.991-4.591 1.693-9.275 6.196-10.673 1.978-.614 4.233-.374 6.277-.351L0-3c1.929.022 1.934 3.022 0 3" clip-path="url(#al)" style="fill:#000;fill-opacity:1;fill-rule:nonzero;stroke:none" transform="matrix(1.33333 0 0 -1.33333 732.4 772.049)"/><path d="m0 0-20.875-.242a7.564 7.564 0 0 0-.175 15.127l20.875.242A7.564 7.564 0 0 0 0 0" clip-path="url(#am)" style="fill:#feffff;fill-opacity:1;fill-rule:nonzero;stroke:none" transform="matrix(1.33333 0 0 -1.33333 732.767 805.747)"/><path d="m0 0-12.902-.149-6.992-.081c-2.51-.029-4.869.604-6.26 2.916-2.058 3.423-.207 7.981 3.656 9.001 1.504.398 3.265.219 4.804.237l15.973.185c2.693.031 5.283-.346 6.825-2.91C7.507 5.203 4.58.156 0 0c-1.925-.066-1.934-3.066 0-3 4.871.166 8.919 4.023 8.974 8.978.052 4.717-3.642 8.662-8.291 9.109-1.847.177-3.769.006-5.62-.016l-9.798-.113c-2.072-.024-4.147-.018-6.219-.072-4.161-.109-7.95-2.9-8.848-7.063-.991-4.591 1.693-9.275 6.196-10.673 1.978-.614 4.233-.374 6.277-.351L0-3c1.929.022 1.934 3.022 0 3" clip-path="url(#an)" style="fill:#000;fill-opacity:1;fill-rule:nonzero;stroke:none" transform="matrix(1.33333 0 0 -1.33333 732.767 803.747)"/><path d="m0 0-20.875-.242a7.565 7.565 0 0 0-.175 15.127l20.875.242A7.565 7.565 0 0 0 0 0" clip-path="url(#ao)" style="fill:#feffff;fill-opacity:1;fill-rule:nonzero;stroke:none" transform="matrix(1.33333 0 0 -1.33333 733.192 842.425)"/><path d="m0 0-12.902-.149-6.992-.081c-2.51-.029-4.869.604-6.26 2.916-2.058 3.423-.207 7.981 3.656 9.002 1.504.397 3.265.218 4.803.236l15.974.185c2.693.031 5.283-.346 6.825-2.91C7.507 5.203 4.58.156 0 0c-1.925-.066-1.934-3.066 0-3 4.871.166 8.919 4.023 8.974 8.978.052 4.717-3.642 8.662-8.291 9.109-1.847.177-3.769.006-5.62-.016l-9.798-.113c-2.072-.024-4.147-.018-6.219-.072-4.161-.109-7.95-2.9-8.849-7.063-.99-4.591 1.694-9.275 6.197-10.673 1.978-.614 4.233-.374 6.277-.351L0-3c1.929.022 1.934 3.022 0 3" clip-path="url(#ap)" style="fill:#000;fill-opacity:1;fill-rule:nonzero;stroke:none" transform="matrix(1.33333 0 0 -1.33333 733.192 840.425)"/><path d="M0 0c.186-16.084-7.289-29.212-16.697-29.32S-33.883-16.479-34.069-.394c-.186 16.084 7.29 29.211 16.697 29.32S-.186 16.084 0 0" clip-path="url(#aq)" style="fill:#feffff;fill-opacity:1;fill-rule:nonzero;stroke:none" transform="matrix(1.33333 0 0 -1.33333 711.333 499.278)"/><path d="M0 0c.041-5.532-.761-11.084-2.796-16.25-1.474-3.743-3.776-7.616-7.211-9.868-2.8-1.837-6.225-2.273-9.283-.773-3.731 1.83-6.266 5.434-8.03 9.082-4.617 9.543-4.947 21.626-1.685 31.626 2.155 6.605 7.858 15.911 16.174 13.111 4.178-1.407 7.052-5.429 8.931-9.205C-1.182 12.264-.096 6.055 0 0c.03-1.929 3.031-1.934 3 0-.096 6.046-1.159 12.098-3.578 17.661-1.861 4.28-4.686 8.493-8.772 10.929-3.597 2.145-7.848 2.382-11.641.612-4.141-1.932-7.116-5.946-9.051-9.961-5.138-10.657-5.395-24.251-1.269-35.278 2.925-7.816 10.093-17.42 19.701-14.182 4.92 1.659 8.399 6.053 10.583 10.584C1.907-13.551 3.049-6.717 3 0 2.986 1.93-.014 1.934 0 0" clip-path="url(#ar)" style="fill:#000;fill-opacity:1;fill-rule:nonzero;stroke:none" transform="matrix(1.33333 0 0 -1.33333 709.333 499.278)"/><path d="M0 0c.165-14.263-8.435-25.927-19.208-26.052-10.774-.125-19.641 11.337-19.806 25.6S-30.58 25.476-19.806 25.6C-9.033 25.725-.165 14.263 0 0" clip-path="url(#as)" style="fill:#000;fill-opacity:1;fill-rule:nonzero;stroke:none" transform="matrix(1.33333 0 0 -1.33333 729.308 511.771)"/><path d="M0 0a5.633 5.633 0 1 0-11.264-.132A5.633 5.633 0 0 0 0 0" clip-path="url(#at)" style="fill:#feffff;fill-opacity:1;fill-rule:nonzero;stroke:none" transform="matrix(1.33333 0 0 -1.33333 704.72 497.706)"/><path d="M0 0a2.885 2.885 0 1 0-5.77-.067A2.885 2.885 0 0 0 0 0" clip-path="url(#au)" style="fill:#feffff;fill-opacity:1;fill-rule:nonzero;stroke:none" transform="matrix(1.33333 0 0 -1.33333 693.933 515.326)"/><path d="M0 0c.186-16.084-7.289-29.212-16.697-29.321S-33.883-16.479-34.069-.394c-.186 16.084 7.29 29.211 16.697 29.32S-.186 16.084 0 0" clip-path="url(#av)" style="fill:#feffff;fill-opacity:1;fill-rule:nonzero;stroke:none" transform="matrix(1.33333 0 0 -1.33333 751.589 498.812)"/><path d="M0 0c.041-5.532-.761-11.084-2.796-16.25-1.474-3.743-3.776-7.616-7.211-9.868-2.8-1.837-6.225-2.273-9.283-.773-3.731 1.83-6.265 5.434-8.03 9.082-4.617 9.543-4.947 21.626-1.685 31.626 2.155 6.604 7.858 15.911 16.175 13.111 4.177-1.407 7.051-5.429 8.931-9.205C-1.182 12.264-.096 6.055 0 0c.031-1.929 3.031-1.934 3 0-.096 6.046-1.159 12.098-3.578 17.661-1.861 4.28-4.686 8.493-8.772 10.929-3.597 2.145-7.847 2.382-11.641.612-4.141-1.932-7.115-5.946-9.051-9.961-5.138-10.657-5.395-24.251-1.269-35.278 2.925-7.816 10.093-17.42 19.702-14.182 4.919 1.659 8.398 6.053 10.582 10.584C1.907-13.551 3.049-6.717 3 0 2.986 1.93-.014 1.934 0 0" clip-path="url(#aw)" style="fill:#000;fill-opacity:1;fill-rule:nonzero;stroke:none" transform="matrix(1.33333 0 0 -1.33333 749.589 498.812)"/><path d="M0 0c.165-14.263-8.435-25.927-19.208-26.052-10.774-.125-19.641 11.337-19.806 25.6S-30.58 25.476-19.806 25.6C-9.033 25.725-.165 14.263 0 0" clip-path="url(#ax)" style="fill:#000;fill-opacity:1;fill-rule:nonzero;stroke:none" transform="matrix(1.33333 0 0 -1.33333 769.564 511.305)"/><path d="M0 0a5.633 5.633 0 1 0-11.266-.13A5.633 5.633 0 0 0 0 0" clip-path="url(#ay)" style="fill:#feffff;fill-opacity:1;fill-rule:nonzero;stroke:none" transform="matrix(1.33333 0 0 -1.33333 744.976 497.24)"/><path d="M0 0a2.885 2.885 0 1 0-5.77-.067A2.885 2.885 0 0 0 0 0" clip-path="url(#az)" style="fill:#feffff;fill-opacity:1;fill-rule:nonzero;stroke:none" transform="matrix(1.33333 0 0 -1.33333 734.188 514.86)"/><path d="M0 0c.061-5.26-6.04-9.596-13.627-9.684S-27.414-5.578-27.475-.318s6.04 9.596 13.627 9.684S-.061 5.26 0 0" clip-path="url(#aA)" style="fill:#ff3342;fill-opacity:1;fill-rule:nonzero;stroke:none" transform="matrix(1.33333 0 0 -1.33333 727.73 533.806)"/><path d="M0 0c-.039-4.182-4.312-6.693-7.899-7.628-4.474-1.167-9.935-.648-13.686 2.25-2.992 2.311-3.904 6.167-1.25 9.13 3.118 3.48 8.406 4.521 12.872 3.998C-5.854 7.269-.157 4.85 0 0c.062-1.926 3.063-1.934 3 0-.181 5.575-5.324 9.132-10.309 10.31-5.652 1.336-12.329.363-16.777-3.575-3.828-3.389-4.467-8.776-1.146-12.749 3.727-4.457 10.397-5.721 15.885-4.946C-3.675-10.158 2.94-6.462 3 0 3.018 1.931.018 1.933 0 0" clip-path="url(#aB)" style="fill:#000;fill-opacity:1;fill-rule:nonzero;stroke:none" transform="matrix(1.33333 0 0 -1.33333 725.73 533.806)"/><path d="M0 0c.019-1.619-1.859-2.953-4.193-2.98S-8.435-1.716-8.454-.098s1.859 2.953 4.193 2.98C-1.926 2.909-.019 1.619 0 0" clip-path="url(#aC)" style="fill:#feffff;fill-opacity:1;fill-rule:nonzero;stroke:none" transform="matrix(1.33333 0 0 -1.33333 709.883 530.837)"/><path d="M0 0a1.4 1.4 0 0 1-.006-.189c-.085.087.083.346.001.075-.018-.057-.043-.12-.052-.179-.027-.181.154.244.044.096-.017-.024-.18-.383-.221-.374-.016.003.257.281.048.069-.072-.073-.14-.15-.215-.221L-.56-.862c.037.033.267.181.044.039-.127-.08-.251-.163-.383-.235-.094-.05-.479-.208-.175-.095a6 6 0 0 0-.585-.191 6 6 0 0 0-.247-.058c.001 0-.413-.082-.184-.041.194.035-.082-.008-.129-.013a6 6 0 0 0-.881-.015q-.133.008-.266.02c-.327.027.225-.063-.116.021-.324.081-.634.165-.95.272.326-.11-.075.043-.169.095-.139.075-.361.174-.467.297.254-.294-.058.07-.128.144-.047.049-.087.104-.135.151-.132.13.112-.239.058-.068-.021.064-.088.15-.125.207-.116.178.093-.011.033-.101.005.007-.062.186-.06.178l-.024.09q-.048.243.006-.122c.008.014.006.368-.004.378.079-.08-.074-.326-.013-.121.017.056.036.123.048.181.057.261-.01-.093-.05-.094.014 0 .096.186.111.212.032.055.076.107.104.164.073.148-.209-.217-.021-.029.108.107.233.214.334.325.129.143-.226-.12-.048-.036.08.039.155.107.231.153.131.08.267.149.403.219.068.035.255.088-.032-.01.116.04.229.085.346.122q.24.075.487.128c.083.017.17.028.253.048-.281-.066-.083-.008-.007-.001.407.034.806.03 1.213.001.411-.03-.184.053.053-.01.102-.027.209-.04.312-.064.2-.048.394-.112.589-.177.263-.086.022-.007-.028.017.104-.05.208-.098.31-.153.14-.077.363-.172.466-.297-.02.024-.248.224-.057.034.074-.073.151-.14.221-.216.023-.025.132-.13.131-.152l-.116.146q.054-.08.104-.163l.09-.168C-.054.143-.12.513-.043.202c.008-.031.04-.218.058-.226C-.045.006-.013.363 0 0c.027-.783.671-1.537 1.5-1.5.79.035 1.529.66 1.5 1.5-.075 2.18-1.919 3.696-3.926 4.172-2.119.502-4.507.104-6.17-1.356-1.629-1.43-1.756-3.784-.356-5.409 1.435-1.665 3.888-2.092 5.96-1.771C.718-4.021 2.973-2.422 3 0c.009.785-.696 1.536-1.5 1.5C.68 1.463.01.841 0 0" clip-path="url(#aD)" style="fill:#000;fill-opacity:1;fill-rule:nonzero;stroke:none" transform="matrix(1.33333 0 0 -1.33333 707.883 530.837)"/><path d="M0 0c1.866-.178 3.83-1.014 5.936-1.131 3.219-.179 6.54.836 9.003 2.942 2.199 1.881 3.793 4.541 6.399 5.8 4.314 2.083 9.936-1.006 11.381-5.573s-.681-9.737-4.31-12.864-8.481-4.487-13.25-4.935a42 42 0 0 0-10.031.266c-3.816.564-8.766 3.071-10.747 6.527C-7.947-4.903-4.993.477 0 0" clip-path="url(#aE)" style="fill:#0aff9f;fill-opacity:1;fill-rule:nonzero;stroke:none" transform="matrix(1.33333 0 0 -1.33333 706.782 552.558)"/><path d="M0 0c1.78-.212 3.476-.867 5.264-1.068 1.688-.19 3.433-.038 5.078.381C13.689.165 16.118 2.2 18.4 4.686c1.943 2.116 4.096 4.127 7.19 3.452 2.543-.556 4.878-2.489 5.683-4.999 2.182-6.811-3.939-12.678-9.85-14.622-3.475-1.143-7.164-1.511-10.809-1.456-3.368.051-6.767.376-9.82 1.899-2.492 1.243-5.687 3.427-5.719 6.541C-4.954-1.711-2.698.19 0 0c1.927-.135 1.918 2.865 0 3-3.132.22-6.038-1.503-7.282-4.398-1.303-3.032-.449-6.192 1.67-8.605 5.407-6.154 14.887-6.577 22.407-5.568 7.677 1.03 15.84 5.115 17.578 13.366.742 3.523.044 7.166-2.375 9.894-2.19 2.471-5.62 3.95-8.923 3.484-4.402-.62-6.299-4.606-9.526-7.07-1.82-1.39-4.123-2.163-6.403-2.245C4.696 1.768 2.408 2.714 0 3c-1.913.228-1.897-2.774 0-3" clip-path="url(#aF)" style="fill:#000;fill-opacity:1;fill-rule:nonzero;stroke:none" transform="matrix(1.33333 0 0 -1.33333 706.782 554.558)"/><path d="M0 0c9.266-3.531 19.664-.202 25.423 7.765 1.133 1.567-1.469 3.066-2.59 1.514C17.817 2.34 8.73-.13.797 2.893-1.008 3.581-1.789.682 0 0" clip-path="url(#aG)" style="fill:#000;fill-opacity:1;fill-rule:nonzero;stroke:none" transform="matrix(1.33333 0 0 -1.33333 707.727 564.094)"/><path d="M0 0q.374-.08.727-.226l-.358.151Q.667-.205.94-.38l.158-.107c.183-.122-.128.084-.122.096l.257-.228q.11-.107.21-.221c.014-.016.119-.148.123-.147-.017-.005-.217.303-.098.12a5 5 0 0 0 .349-.625l-.151.358q.196-.467.274-.968l-.054.398q.074-.544.003-1.09l.053.399a4 4 0 0 0-.209-.813c-.129-.346-.029-.848.151-1.155.182-.312.539-.608.896-.69.851-.194 1.552.259 1.846 1.048.532 1.433.347 3.157-.443 4.461C3.447 1.67 2.192 2.599.797 2.893c-.765.161-1.657-.225-1.845-1.048C-1.219 1.093-.821.173 0 0" clip-path="url(#aH)" style="fill:#000;fill-opacity:1;fill-rule:nonzero;stroke:none" transform="matrix(1.33333 0 0 -1.33333 737.008 551.935)"/><path d="M0 0c-1.683-1.449-2.034-4.045-1.016-5.965.368-.695 1.39-.965 2.052-.539.706.456.932 1.31.538 2.053a4 4 0 0 0-.125.259L1.6-4.55a3.5 3.5 0 0 0-.225.829l.054-.399a3.7 3.7 0 0 0 0 .92l-.054-.399q.068.488.258.943l-.151-.358q.173.396.436.74l-.234-.303q.197.248.437.456c.279.239.44.705.44 1.06 0 .368-.164.808-.44 1.061-.286.262-.661.457-1.06.439C.646.421.315.271 0 0" clip-path="url(#aI)" style="fill:#000;fill-opacity:1;fill-rule:nonzero;stroke:none" transform="matrix(1.33333 0 0 -1.33333 706.777 557.67)"/><path d="m0 0 .418-15.758.06-2.268c.051-1.927 3.051-1.935 3 0L3.06-2.268 3 0C2.949 1.927-.051 1.934 0 0" clip-path="url(#aJ)" style="fill:#000;fill-opacity:1;fill-rule:nonzero;stroke:none" transform="matrix(1.33333 0 0 -1.33333 712.53 579.527)"/></svg>