<svg xmlns="http://www.w3.org/2000/svg" width="1440" height="1440" viewBox="0 0 1440 1440"><defs><clipPath id="a" clipPathUnits="userSpaceOnUse"><path d="M-669.885 859.302h1080v-1080h-1080Z"/></clipPath><clipPath id="b" clipPathUnits="userSpaceOnUse"><path d="M-669.885 857.564h1080v-1080h-1080Z"/></clipPath><clipPath id="c" clipPathUnits="userSpaceOnUse"><path d="M-879.03 649.623h1080v-1080h-1080Z"/></clipPath><clipPath id="d" clipPathUnits="userSpaceOnUse"><path d="M-877.523 649.623h1080v-1080h-1080Z"/></clipPath><clipPath id="e" clipPathUnits="userSpaceOnUse"><path d="M-407.368 801.668h1080v-1080h-1080Z"/></clipPath><clipPath id="f" clipPathUnits="userSpaceOnUse"><path d="M-407.368 800.11h1080v-1080h-1080Z"/></clipPath><clipPath id="g" clipPathUnits="userSpaceOnUse"><path d="M-675.017 788.38h1080v-1080h-1080Z"/></clipPath><clipPath id="h" clipPathUnits="userSpaceOnUse"><path d="M-675.017 786.821h1080v-1080h-1080Z"/></clipPath><clipPath id="i" clipPathUnits="userSpaceOnUse"><path d="M-426.328 758.238h1080v-1080h-1080Z"/></clipPath><clipPath id="j" clipPathUnits="userSpaceOnUse"><path d="M-424.828 758.238h1080v-1080h-1080Z"/></clipPath><clipPath id="k" clipPathUnits="userSpaceOnUse"><path d="M-394.885 763.16h1080v-1080h-1080Z"/></clipPath><clipPath id="l" clipPathUnits="userSpaceOnUse"><path d="M-667.007 772.182h1080v-1080h-1080Z"/></clipPath><clipPath id="m" clipPathUnits="userSpaceOnUse"><path d="M-666.25 773.477h1080v-1080h-1080Z"/></clipPath><clipPath id="n" clipPathUnits="userSpaceOnUse"><path d="M-684.998 745.373h1080v-1080h-1080Z"/></clipPath><clipPath id="o" clipPathUnits="userSpaceOnUse"><path d="M-269.8 701.808h1080v-1080h-1080Z"/></clipPath><clipPath id="p" clipPathUnits="userSpaceOnUse"><path d="M-422.865 694.475h1080v-1080h-1080Z"/></clipPath><clipPath id="q" clipPathUnits="userSpaceOnUse"><path d="M-450.829 701.808h1080v-1080h-1080Z"/></clipPath><clipPath id="r" clipPathUnits="userSpaceOnUse"><path d="M-620.027 703.616h1080v-1080h-1080Z"/></clipPath><clipPath id="s" clipPathUnits="userSpaceOnUse"><path d="M-677.029 701.808h1080v-1080h-1080Z"/></clipPath><clipPath id="t" clipPathUnits="userSpaceOnUse"><path d="M-778.763 702.15h1080v-1080h-1080Z"/></clipPath><clipPath id="u" clipPathUnits="userSpaceOnUse"><path d="M-470.343 773.4h1080v-1080h-1080Z"/></clipPath><clipPath id="v" clipPathUnits="userSpaceOnUse"><path d="M-501.054 773.4h1080v-1080h-1080Z"/></clipPath><clipPath id="w" clipPathUnits="userSpaceOnUse"><path d="M-538.24 773.4h1080v-1080h-1080Z"/></clipPath><clipPath id="x" clipPathUnits="userSpaceOnUse"><path d="M-571.052 773.4h1080v-1080h-1080Z"/></clipPath><clipPath id="y" clipPathUnits="userSpaceOnUse"><path d="M-596.251 773.4h1080v-1080h-1080Z"/></clipPath><clipPath id="z" clipPathUnits="userSpaceOnUse"><path d="M-623.666 783.111h1080v-1080h-1080Z"/></clipPath><clipPath id="A" clipPathUnits="userSpaceOnUse"><path d="M-321.065 538.725h1080v-1080h-1080Z"/></clipPath><clipPath id="B" clipPathUnits="userSpaceOnUse"><path d="M-322.36 539.482h1080v-1080h-1080Z"/></clipPath><clipPath id="C" clipPathUnits="userSpaceOnUse"><path d="M-414.384 484.648h1080v-1080h-1080Z"/></clipPath><clipPath id="D" clipPathUnits="userSpaceOnUse"><path d="M-415.83 484.25h1080v-1080h-1080Z"/></clipPath><clipPath id="E" clipPathUnits="userSpaceOnUse"><path d="M-575.316 342.027h1080v-1080h-1080Z"/></clipPath><clipPath id="F" clipPathUnits="userSpaceOnUse"><path d="M-573.816 342.027h1080v-1080h-1080Z"/></clipPath><clipPath id="G" clipPathUnits="userSpaceOnUse"><path d="M-562.817 341.84h1080v-1080h-1080Z"/></clipPath><clipPath id="H" clipPathUnits="userSpaceOnUse"><path d="M-561.317 341.84h1080v-1080h-1080Z"/></clipPath><clipPath id="I" clipPathUnits="userSpaceOnUse"><path d="M-443.545 302.193h1080v-1080h-1080Z"/></clipPath><clipPath id="J" clipPathUnits="userSpaceOnUse"><path d="M-454.313 392.461h1080v-1080h-1080Z"/></clipPath><clipPath id="K" clipPathUnits="userSpaceOnUse"><path d="M-481.792 271.937h1080v-1080h-1080Z"/></clipPath><clipPath id="L" clipPathUnits="userSpaceOnUse"><path d="M-435.122 348.14h1080v-1080h-1080Z"/></clipPath><clipPath id="M" clipPathUnits="userSpaceOnUse"><path d="M-467.123 291.122h1080v-1080h-1080Z"/></clipPath><clipPath id="N" clipPathUnits="userSpaceOnUse"><path d="M-398.366 477.542h1080v-1080h-1080Z"/></clipPath><clipPath id="O" clipPathUnits="userSpaceOnUse"><path d="M-399.427 476.481h1080v-1080h-1080Z"/></clipPath><clipPath id="P" clipPathUnits="userSpaceOnUse"><path d="M-464.9 492.927h1080v-1080h-1080Z"/></clipPath><clipPath id="Q" clipPathUnits="userSpaceOnUse"><path d="M-463.4 492.927h1080v-1080h-1080Z"/></clipPath><clipPath id="R" clipPathUnits="userSpaceOnUse"><path d="M-455.336 492.784h1080v-1080h-1080Z"/></clipPath><clipPath id="S" clipPathUnits="userSpaceOnUse"><path d="M-453.836 492.784h1080v-1080h-1080Z"/></clipPath><clipPath id="T" clipPathUnits="userSpaceOnUse"><path d="M-363.818 462.695h1080v-1080h-1080Z"/></clipPath><clipPath id="U" clipPathUnits="userSpaceOnUse"><path d="M-372.61 531.698h1080v-1080h-1080Z"/></clipPath><clipPath id="V" clipPathUnits="userSpaceOnUse"><path d="M-392.982 439.293h1080v-1080h-1080Z"/></clipPath><clipPath id="W" clipPathUnits="userSpaceOnUse"><path d="M-357.622 497.956h1080v-1080h-1080Z"/></clipPath><clipPath id="X" clipPathUnits="userSpaceOnUse"><path d="M-381.93 453.67h1080v-1080h-1080Z"/></clipPath><clipPath id="Y" clipPathUnits="userSpaceOnUse"><path d="M-541.071 281.768h1080v-1080h-1080Z"/></clipPath><clipPath id="Z" clipPathUnits="userSpaceOnUse"><path d="M-542.132 280.707h1080v-1080h-1080Z"/></clipPath><clipPath id="aa" clipPathUnits="userSpaceOnUse"><path d="M-591.627 267.95h1080v-1080h-1080Z"/></clipPath><clipPath id="ab" clipPathUnits="userSpaceOnUse"><path d="M-593.073 268.35h1080v-1080h-1080Z"/></clipPath><clipPath id="ac" clipPathUnits="userSpaceOnUse"><path d="M-391.527 552.522h1080v-1080h-1080Z"/></clipPath><clipPath id="ad" clipPathUnits="userSpaceOnUse"><path d="M-392.822 553.28h1080v-1080h-1080Z"/></clipPath><clipPath id="ae" clipPathUnits="userSpaceOnUse"><path d="M-355.485 554.755h1080v-1080h-1080Z"/></clipPath><clipPath id="af" clipPathUnits="userSpaceOnUse"><path d="M-380.28 533.511h1080v-1080h-1080Z"/></clipPath><clipPath id="ag" clipPathUnits="userSpaceOnUse"><path d="M-438.3 435.556h1080v-1080h-1080Z"/></clipPath><clipPath id="ah" clipPathUnits="userSpaceOnUse"><path d="M-453.67 402.726h1080v-1080h-1080Z"/></clipPath><clipPath id="ai" clipPathUnits="userSpaceOnUse"><path d="M-492.968 329.898h1080v-1080h-1080Z"/></clipPath><clipPath id="aj" clipPathUnits="userSpaceOnUse"><path d="M-506.295 279h1080V-801h-1080Z"/></clipPath><clipPath id="ak" clipPathUnits="userSpaceOnUse"><path d="M-524.6 236.871h1080v-1080h-1080Z"/></clipPath><clipPath id="al" clipPathUnits="userSpaceOnUse"><path d="M-441.085 345.318h1080v-1080h-1080Z"/></clipPath><clipPath id="am" clipPathUnits="userSpaceOnUse"><path d="M-389.47 496.202h1080v-1080h-1080Z"/></clipPath><clipPath id="an" clipPathUnits="userSpaceOnUse"><path d="M-400.348 451.779h1080v-1080h-1080Z"/></clipPath><clipPath id="ao" clipPathUnits="userSpaceOnUse"><path d="M-457.396 494.567h1080v-1080h-1080Z"/></clipPath><clipPath id="ap" clipPathUnits="userSpaceOnUse"><path d="M-586.691 286.824h1080v-1080h-1080Z"/></clipPath><clipPath id="aq" clipPathUnits="userSpaceOnUse"><path d="M-639.522 378.318h1080v-1080h-1080Z"/></clipPath><clipPath id="ar" clipPathUnits="userSpaceOnUse"><path d="M-545.211 424.388h1080v-1080h-1080Z"/></clipPath><clipPath id="as" clipPathUnits="userSpaceOnUse"><path d="M-701.633 532.46h1080v-1080h-1080Z"/></clipPath><clipPath id="at" clipPathUnits="userSpaceOnUse"><path d="M-619.92 475.741h1080v-1080h-1080Z"/></clipPath><clipPath id="au" clipPathUnits="userSpaceOnUse"><path d="M-544.115 537.582h1080v-1080h-1080Z"/></clipPath><clipPath id="av" clipPathUnits="userSpaceOnUse"><path d="M-522.735 355.76h1080v-1080h-1080Z"/></clipPath><clipPath id="aw" clipPathUnits="userSpaceOnUse"><path d="M-423.98 576.16h1080v-1080h-1080Z"/></clipPath><clipPath id="ax" clipPathUnits="userSpaceOnUse"><path d="M-615.567 390.882h1080v-1080h-1080Z"/></clipPath><clipPath id="ay" clipPathUnits="userSpaceOnUse"><path d="M-617.067 390.882h1080v-1080h-1080Z"/></clipPath><clipPath id="az" clipPathUnits="userSpaceOnUse"><path d="M-634.845 394.71h1080v-1080h-1080Z"/></clipPath><clipPath id="aA" clipPathUnits="userSpaceOnUse"><path d="M-636.345 394.71h1080v-1080h-1080Z"/></clipPath><clipPath id="aB" clipPathUnits="userSpaceOnUse"><path d="M-567.618 387.74h1080v-1080h-1080Z"/></clipPath><clipPath id="aC" clipPathUnits="userSpaceOnUse"><path d="M-569.118 387.74h1080v-1080h-1080Z"/></clipPath><clipPath id="aD" clipPathUnits="userSpaceOnUse"><path d="M-586.896 391.569h1080v-1080h-1080Z"/></clipPath><clipPath id="aE" clipPathUnits="userSpaceOnUse"><path d="M-588.396 391.569h1080v-1080h-1080Z"/></clipPath><clipPath id="aF" clipPathUnits="userSpaceOnUse"><path d="M-601.73 454.923h1080v-1080h-1080Z"/></clipPath><clipPath id="aG" clipPathUnits="userSpaceOnUse"><path d="M-639.85 497.32h1080v-1080h-1080Z"/></clipPath><clipPath id="aH" clipPathUnits="userSpaceOnUse"><path d="M-641.145 496.564h1080v-1080h-1080Z"/></clipPath><clipPath id="aI" clipPathUnits="userSpaceOnUse"><path d="M-628.026 492.648h1080v-1080h-1080Z"/></clipPath><clipPath id="aJ" clipPathUnits="userSpaceOnUse"><path d="M-629.32 491.891h1080v-1080h-1080Z"/></clipPath><clipPath id="aK" clipPathUnits="userSpaceOnUse"><path d="M-631.105 534.509h1080v-1080h-1080Z"/></clipPath><clipPath id="aL" clipPathUnits="userSpaceOnUse"><path d="M-554.87 333.594h1080v-1080h-1080Z"/></clipPath><clipPath id="aM" clipPathUnits="userSpaceOnUse"><path d="M-607.026 335.467h1080v-1080h-1080Z"/></clipPath><clipPath id="aN" clipPathUnits="userSpaceOnUse"><path d="M-579.098 451.438h1080v-1080h-1080Z"/></clipPath><clipPath id="aO" clipPathUnits="userSpaceOnUse"><path d="M-678.143 463.655h1080v-1080h-1080Z"/></clipPath></defs><path d="M0 0h1080v1080H0Z" style="fill:#fff;fill-opacity:1;fill-rule:nonzero;stroke:none" transform="matrix(1.33333 0 0 -1.33333 0 1440)"/><path d="M0 0c-28.362 0-56.093 4.503-82.417 13.383-15.233 5.138-31.203 7.743-47.469 7.743-16.264 0-32.235-2.605-47.468-7.743C-203.676 4.503-231.405.001-259.77 0c-1.602 0-3.203.015-4.813.044-60.633 1.092-117.781 23.059-160.917 61.853-43.953 39.528-68.423 91.933-68.902 147.563-.454 52.568 20.664 103.071 59.463 142.205 44.482 44.867 108.327 70.599 175.167 70.599 28.396 0 56.156-4.513 82.51-13.415 15.198-5.132 31.138-7.735 47.376-7.735 16.239 0 32.179 2.603 47.379 7.737 26.352 8.9 54.113 13.413 82.509 13.413 66.84 0 130.686-25.732 175.168-70.599 38.798-39.134 59.917-89.638 59.463-142.205-.48-55.63-24.949-108.035-68.903-147.563C122.594 23.103 65.446 1.136 4.813.044A267 267 0 0 0 0 0" clip-path="url(#a)" style="fill:#ffe564;fill-opacity:1;fill-rule:nonzero;stroke:none" transform="matrix(1.33333 0 0 -1.33333 893.18 1145.736)"/><path d="M0 0c-17.73.045-35.414 1.765-52.777 5.389-16.887 3.525-32.927 10.192-49.887 13.275a152.7 152.7 0 0 1-49.157.863c-16.911-2.451-32.684-8.957-49.258-12.83-62.153-14.526-129.716-5.422-184.971 26.844-51.846 30.276-91.875 80.707-103.276 140.29-11.5 60.103 7.761 122.177 48.499 167.342 40.529 44.932 98.888 71.527 158.842 76.665 33.787 2.896 68.116-.801 100.426-11.141 16.054-5.138 32.034-8.732 48.97-9.034a150.9 150.9 0 0 1 49.91 7.563c61.637 20.338 129.812 17.791 188.972-9.513 54.937-25.354 100.172-71.839 118.152-130.262 17.612-57.224 6.649-119.62-27.895-168.281-35.408-49.877-91.551-82.586-151.361-93.228C30.271 1.288 15.147.035 0 0c-2.236-.005-2.24-3.481 0-3.476 61.8.142 123.011 22.024 168.754 64.038 44.477 40.851 70.836 99.198 67.3 159.964-3.559 61.167-36.745 116.698-85.465 152.971-50.166 37.351-114.492 53.613-176.492 47.499-17.617-1.737-35.057-5.234-51.948-10.54-17.149-5.387-33.929-9.334-52.035-9.342-9.242-.004-18.484.844-27.562 2.581-8.596 1.645-16.779 4.367-25.113 6.96-16.69 5.194-33.913 8.631-51.306 10.341-62.196 6.117-126.713-10.242-176.951-47.841-48.634-36.399-81.663-92.026-85.037-153.209-3.342-60.582 23.007-118.653 67.331-159.384C-382.88 18.616-321.496-3.488-259.77-3.476c17.351.004 34.709 1.697 51.723 5.108 17.585 3.526 34.245 10.478 51.864 13.681a147.7 147.7 0 0 0 53.911-.246c8.828-1.687 17.222-4.525 25.788-7.16A254 254 0 0 1-50.4 1.371C-33.797-1.867-16.911-3.432 0-3.476 2.237-3.481 2.24-.006 0 0" clip-path="url(#b)" style="fill:#000;fill-opacity:1;fill-rule:nonzero;stroke:none" transform="matrix(1.33333 0 0 -1.33333 893.18 1143.42)"/><path d="M0 0c-.862-100.046-92.098-182.121-204.792-184.153-27.735-.5-54.268 3.791-78.625 12.007-35.893 12.107-75.336 12.107-111.228 0-24.357-8.216-50.891-12.507-78.625-12.007C-585.964-182.121-677.2-100.046-678.062 0c-.89 103.193 93.09 187.097 209.143 187.097 26.19 0 51.252-4.271 74.355-12.074 35.831-12.101 75.235-12.101 111.066 0 23.103 7.803 48.165 12.074 74.355 12.074C-93.09 187.097.889 103.193 0 0" clip-path="url(#c)" style="fill:#f05924;fill-opacity:1;fill-rule:nonzero;stroke:none" transform="matrix(1.33333 0 0 -1.33333 1172.041 866.164)"/><path d="M0 0c-.59-52.046-26.431-100.103-66.12-133.038-44.026-36.533-102.25-53.173-158.992-49.007a229.6 229.6 0 0 0-52.956 10.224c-16.667 5.32-33.321 9.194-50.86 10.053a176.7 176.7 0 0 1-51.595-5.1c-8.703-2.188-17.108-5.347-25.762-7.707a230 230 0 0 0-25.915-5.482c-58.125-8.849-119.431 4.655-167.072 39.495-41.327 30.223-70.837 76.515-75.194 128.081-4.356 51.551 16.524 101.733 53.238 137.623 38.94 38.065 92.641 58.75 146.761 60.343 17.719.521 35.497-.911 52.882-4.392 17.214-3.447 33.496-10.16 50.722-13.473a176.5 176.5 0 0 1 51.709-2.216c8.686.913 17.31 2.453 25.764 4.648 8.259 2.145 16.256 5.138 24.486 7.389 58.405 15.975 123.186 8.463 175.57-22.241C-49.456 129.481-15.09 87.415-3.917 37.266-1.191 25.029.075 12.532 0 0c-.012-1.941 3.005-1.944 3.017 0 .309 52.001-23.949 100.793-62.822 134.781-42.049 36.764-98.055 55.09-153.607 53.754-18.186-.438-36.35-2.94-53.949-7.557-8.643-2.268-17.013-5.401-25.641-7.704a171 171 0 0 0-27.373-4.977c-18.192-1.79-36.649-.722-54.5 3.227-8.788 1.944-17.199 4.945-25.81 7.499a229 229 0 0 1-27.379 6.316c-57.947 9.686-119.555-2.336-168.164-35.795-42.206-29.052-73.262-73.962-80.272-125.232-7.051-51.575 11.045-103.046 46.06-141.091 37.164-40.38 90.23-63.97 144.625-68.209 17.101-1.333 34.337-.787 51.325 1.572a232 232 0 0 1 26.65 5.302c8.675 2.265 17.075 5.41 25.733 7.719 18.096 4.825 36.944 6.65 55.632 5.473a171.6 171.6 0 0 0 27.558-3.993c8.782-2.012 17.204-5.074 25.841-7.581 59.244-17.19 125.246-10.258 178.922 20.429 44.867 25.651 80.55 68.095 92.641 118.9C1.385-24.992 2.875-12.511 3.017 0 3.039 1.942.022 1.943 0 0" clip-path="url(#d)" style="fill:#000;fill-opacity:1;fill-rule:nonzero;stroke:none" transform="matrix(1.33333 0 0 -1.33333 1170.03 866.164)"/><path d="M0 0c-22.073 0-40.03 19.389-40.03 43.222S-22.073 86.444 0 86.444h268.69c22.073 0 40.031-19.389 40.031-43.222S290.763 0 268.69 0Z" clip-path="url(#e)" style="fill:#ffe564;fill-opacity:1;fill-rule:nonzero;stroke:none" transform="matrix(1.33333 0 0 -1.33333 543.157 1068.89)"/><path d="M0 0c-10.884.068-21.006 5.056-28.107 13.24-7.355 8.477-10.902 19.808-10.296 30.959C-37.29 64.716-21.182 83.228.06 83.327c4.06.018 8.121 0 12.181 0h240.286c5.166 0 10.333.003 15.499 0 17.118-.011 31.671-11.64 36.929-27.744 6.924-21.208-3.429-47.012-25.543-53.937C273.408-.234 267.354 0 261.179 0zc-2.006 0-2.009-3.117 0-3.117h253.66c4.886 0 9.772-.008 14.659 0 18.579.028 34.296 13.041 39.788 30.49 6.776 21.524-3.013 47.02-24.305 55.998-7.059 2.976-14.166 3.073-21.592 3.073H2.028c-2.464 0-4.901-.042-7.355-.38-10.629-1.461-20.174-7.411-26.686-15.863C-46.005 52.04-44.41 24.653-27.962 8.542-20.486 1.218-10.484-3.052 0-3.117 2.006-3.13 2.009-.013 0 0" clip-path="url(#f)" style="fill:#000;fill-opacity:1;fill-rule:nonzero;stroke:none" transform="matrix(1.33333 0 0 -1.33333 543.157 1066.812)"/><path d="M0 0h-265.96c-15.91 0-28.808 12.898-28.808 28.808v2.253c0 15.91 12.898 28.807 28.808 28.807H0c15.91 0 28.807-12.897 28.807-28.807v-2.253C28.807 12.898 15.91 0 0 0" clip-path="url(#g)" style="fill:#198e3f;fill-opacity:1;fill-rule:nonzero;stroke:none" transform="matrix(1.33333 0 0 -1.33333 900.023 1051.173)"/><path d="M0 0h-265.293c-5.232 0-10.282 1.21-14.784 3.937-4.306 2.608-7.814 6.394-10.129 10.86-2.234 4.31-3.003 8.924-3.003 13.732 0 9.882 4.543 19.083 13.132 24.285 4.509 2.731 9.564 3.937 14.802 3.937H-9.639c3.213 0 6.426.02 9.639 0 10.32-.066 19.818-5.93 24.438-15.177 4.106-8.216 3.911-19.288-.491-27.34C19.165 5.49 9.937.077 0 0c-2.005-.015-2.01-3.133 0-3.117 10.431.08 20.232 5.449 25.781 14.315 4.938 7.888 5.994 18.558 3.194 27.414C25.876 48.41 17.8 56.181 7.863 58.84c-3.058.818-6.178 1.028-9.322 1.028h-249.553c-4.778 0-9.557.004-14.335 0-5.604-.004-11.08-1.299-15.94-4.146-8.892-5.209-14.619-14.797-15.017-25.089-.171-4.429.129-8.887 1.571-13.108 1.62-4.737 4.389-9.067 8.059-12.479 5.691-5.292 13.153-8.127 20.901-8.163 4.127-.02 8.253 0 12.38 0H0C2.006-3.117 2.009 0 0 0" clip-path="url(#h)" style="fill:#000;fill-opacity:1;fill-rule:nonzero;stroke:none" transform="matrix(1.33333 0 0 -1.33333 900.023 1049.095)"/><path d="M0 0c0-8.924-7.234-16.158-16.158-16.158S-32.317-8.924-32.317 0s7.235 16.158 16.159 16.158S0 8.924 0 0" clip-path="url(#i)" style="fill:#ffe564;fill-opacity:1;fill-rule:nonzero;stroke:none" transform="matrix(1.33333 0 0 -1.33333 568.437 1010.984)"/><path d="M0 0c-.064-6.04-3.807-11.651-9.541-13.745-5.817-2.124-12.364-.37-16.368 4.34-4.01 4.716-4.478 11.722-1.295 16.992 3.144 5.203 9.426 8.019 15.403 6.796C-4.966 12.984-.074 6.95 0 0c.021-1.929 3.021-1.934 3 0-.079 7.384-4.662 13.984-11.587 16.581-6.876 2.578-15.006.369-19.653-5.305-4.696-5.736-5.41-13.993-1.554-20.377 3.842-6.359 11.355-9.61 18.624-8.209C-2.962-15.727 2.912-8.258 3 0 3.021 1.931.021 1.932 0 0" clip-path="url(#j)" style="fill:#000;fill-opacity:1;fill-rule:nonzero;stroke:none" transform="matrix(1.33333 0 0 -1.33333 566.437 1010.984)"/><path d="m0 0 26.218 6.658 3.723.946c1.87.475 1.077 3.369-.798 2.893L2.926 3.838l-3.724-.945C-2.668 2.418-1.875-.476 0 0" clip-path="url(#k)" style="fill:#000;fill-opacity:1;fill-rule:nonzero;stroke:none" transform="matrix(1.33333 0 0 -1.33333 526.513 1017.546)"/><path d="M0 0c7.707-4.498 17.602-1.897 22.1 5.81 4.499 7.708 1.897 17.602-5.81 22.101S-1.312 29.808-5.81 22.1C-10.309 14.393-7.707 4.498 0 0" clip-path="url(#l)" style="fill:#ffe564;fill-opacity:1;fill-rule:nonzero;stroke:none" transform="matrix(1.33333 0 0 -1.33333 889.343 1029.576)"/><path d="M0 0c6.421-3.656 14.445-3.023 20.174 1.662 5.684 4.647 7.877 12.776 5.308 19.652-2.592 6.937-9.36 11.709-16.809 11.596-7.419-.113-14.023-4.954-16.475-11.933C-10.575 13.085-7.095 4.243 0 0c1.661-.993 3.171 1.599 1.514 2.59-5.177 3.096-8.144 9.153-7.066 15.155C-4.456 23.85.37 28.634 6.468 29.713c6.103 1.079 12.374-2.064 15.322-7.472 2.91-5.34 2.145-12.181-1.919-16.721C15.223.327 7.544-.843 1.514 2.59-.166 3.547-1.679.956 0 0" clip-path="url(#m)" style="fill:#000;fill-opacity:1;fill-rule:nonzero;stroke:none" transform="matrix(1.33333 0 0 -1.33333 888.333 1031.303)"/><path d="m0 0-18.967-19.288-2.692-2.738c-1.355-1.377.764-3.5 2.121-2.121L-.571-4.859l2.692 2.738C3.476-.744 1.356 1.379 0 0" clip-path="url(#n)" style="fill:#000;fill-opacity:1;fill-rule:nonzero;stroke:none" transform="matrix(1.33333 0 0 -1.33333 913.331 993.83)"/><path d="M23.168 1.663q-.774-2.051-1.266-5.18a46 46 0 0 1-.539-6.504q-.049-3.375.188-6.503.244-3.129.937-5.18 3.128-.784 4.793-4.348 1.663-3.572 1.664-12.176v-7.043h-3.129a52.8 52.8 0 0 1-.293 14.672q-3.822.774-7.242 1.02-3.423.246-7.242 0-3.81-.246-8.883-1.02-.599-3.42-.89-8.46a183 183 0 0 1-.293-10.653q-.002-5.625.199-10.898.199-5.284.586-9.34.394-4.064.879-5.918 5.765 0 17.402.738c7.758.486 17.63.727 29.625.727q12.22 0 20.918-.387 8.706-.396 14.719-.738 6.01-.34 9.926-.34.492 2.145.878 6.398.397 4.255.586 9.586.199 5.334.2 10.852-.002 5.52-.293 10.36-.295 4.84-.88 8.073-5.087.774-8.8 1.02a52.5 52.5 0 0 1-7.184 0q-3.472-.246-7.875-1.02-1.172-7.135-.293-14.566h-3.129v6.937q0 5.768 1.02 9.188 1.03 3.424 2.695 5.086 1.662 1.665 3.715 2.25.69 2.052.926 5.18c.164 2.085.228 4.253.2 6.503a46 46 0 0 1-.54 6.504q-.483 3.129-1.266 5.18Q70.886 1.17 64.383.632q-6.506-.54-15.2-.54-9.096 0-15.41.54-6.307.537-10.605 1.031m126.917 1.758q-23.475 0-35.45-9.973-11.978-9.97-11.976-29.531-.001-21.502 12.117-31.57 12.129-10.077 35.801-10.078 25.215.001 36.95 9.925 11.73 9.927 11.73 29.192-.002 21.797-12.422 31.922Q174.423 3.42 150.085 3.42m-2.156-34.313h5.965v-12.62h-5.965zm56.027 32.555q-.773-2.052-1.266-5.18a46 46 0 0 1-.539-6.504q-.049-3.375.188-6.503.244-3.128.937-5.18 3.128-.69 4.84-2.883 1.71-2.201 2.485-5.379.783-3.173 1.277-6.598.584-3.621.773-6.996.197-3.373-.726-5.718-.928-2.343-3.961-2.836-.88-1.758-1.278-4.782-.387-3.032-.34-6.503.057-3.48.54-6.75.492-3.279 1.476-5.625 4.007.399 9.867.738 5.873.341 15.645.34 6.655 0 14.426-.54 7.769-.536 15.984-1.019a268 268 0 0 1 16.031-.492q6.645.002 10.512 2.789 3.866 2.778 5.813 7.277 1.954 4.502 2.543 9.68.584 5.182.539 10.125-.048 4.934-.047 8.555-.002 5.765 1.078 9.14 1.077 3.366 2.883 5.028 1.8 1.666 3.867 2.449.678 2.052.926 5.18.245 3.128.187 6.503a46 46 0 0 1-.539 6.504q-.483 3.129-1.266 5.18-4.007-.4-9.632-.984-5.617-.588-13.536-.586-8.122-.002-15.304.586-7.184.584-11.192.984-.4-2.052-.691-5.18a98 98 0 0 1-.387-6.504 109 109 0 0 1 0-6.503q.092-3.129.387-5.18h2.742v-4.887h-8.508v4.887h2.743q.386 2.052.527 5.18.15 3.128.058 6.503a96 96 0 0 1-.398 6.504q-.295 3.129-.879 5.18-2.637-.293-5.625-.644-2.979-.343-6.937-.633-3.963-.294-9.727-.293-9.097-.001-15.644.539-6.554.537-10.852 1.031m47.426-42.633h7.031v-4.594h-7.031zM373.207 3.128q-13.888 0-20.684-3.375-6.798-3.373-6.984-11.977-1.28 3.621-.844 6.75A31.3 31.3 0 0 0 346.22.68q-10.468.29-17.414.632-6.939.352-12.598.247c-.984-5.21-1.53-10.374-1.629-15.493q-.142-7.672 1.137-16.277 5.378 0 10.746 1.078 5.378 1.08 10.172 2.988 4.79 1.899 8.215 4.641l1.957-2.062a36.3 36.3 0 0 0-7.196-4.442 66 66 0 0 0-7.77-3.082q-4.982-1.756-9.034-4.488-4.055-2.741-6.41-6.844-2.346-4.112-2.344-9.785-.001-7.04 3.222-12.762 3.234-5.718 10.606-9.094 7.383-3.375 19.898-3.375 12.42 0 18.973 3.481 6.548 3.47 6.75 12.75 1.358-3.713.867-6.938-.482-3.222-1.558-6.843 7.04-.093 11.73-.235 4.697-.15 8.309-.351 3.62-.199 7.336-.2 1.463 7.046 1.605 15.211.15 8.157-1.113 16.665-5.581-.093-9.926-1.02-4.35-.936-8.063-2.789-3.717-1.863-7.628-4.606l-1.758 2.25q3.713 2.744 7.617 4.653a368 368 0 0 0 7.336 3.469q5.086 2.25 8.601 4.992 3.526 2.733 5.426 6.644 1.909 3.903 1.91 9.774-.001 8.112-2.789 12.902-2.778 4.794-7.37 7.09Q389.434 1.755 384 2.436a86 86 0 0 1-10.793.692M430.4 1.663q-.773-2.051-1.265-5.18a46 46 0 0 1-.54-6.504q-.048-3.375.188-6.503.245-3.128.938-5.18 3.128-.784 4.793-4.348 1.662-3.573 1.664-12.176v-7.043h-3.13a52.8 52.8 0 0 1-.292 14.672q-3.823.774-7.242 1.02-3.424.246-7.243 0-3.811-.246-8.882-1.02-.6-3.42-.891-8.46a183 183 0 0 1-.293-10.653q-.001-5.625.2-10.898.197-5.284.585-9.34.396-4.064.88-5.918 5.765 0 17.401.738 11.635.728 29.625.727 12.221 0 20.918-.387 8.706-.396 14.72-.738 6.01-.34 9.925-.34.492 2.145.879 6.398.397 4.255.586 9.586.198 5.334.199 10.852-.002 5.52-.293 10.36-.295 4.84-.879 8.073-5.088.774-8.8 1.02a52.5 52.5 0 0 1-7.184 0q-3.472-.246-7.875-1.02-1.173-7.135-.293-14.566h-3.13v6.937q0 5.768 1.02 9.188 1.03 3.424 2.696 5.086 1.661 1.665 3.715 2.25.689 2.052.925 5.18.245 3.128.2 6.503a46 46 0 0 1-.54 6.504q-.483 3.129-1.265 5.18-4.301-.494-10.805-1.031-6.505-.54-15.199-.54-9.096 0-15.41.54-6.306.537-10.606 1.031m106.09 0q-1.08-2.834-1.523-7.043a56 56 0 0 1-.246-8.355q.198-4.16 1.078-6.797 2.25.494 4.5.785a89 89 0 0 0 4.594.48l.292-2.73q-6.06-.397-11.39-2.203a20.7 20.7 0 0 1-9.035-6.012c-2.479-2.804-4.207-6.744-5.192-11.824q-.773-4.311-2.883-7.137-2.099-2.835-5.32-2.941-.892-1.758-1.277-4.782-.388-3.032-.34-6.503.045-3.48.54-6.75.49-3.279 1.464-5.625 4.008.399 11.39.89 7.382.482 16.477.48 6.644.002 12.164-.48a922 922 0 0 0 9.54-.89q-.589 3.037-1.032 7.09a39.8 39.8 0 0 0 0 8.308 23.1 23.1 0 0 0 2.402 8.121q1.956 3.857 6.059 6.598l1.664-2.344q-4.114-2.742-5.824-6.996-1.715-4.253-1.617-9.574.105-5.332 1.37-11.203 4.018.493 10.571.937 6.55.435 16.324.434 3.128 0 7.23-.246a319 319 0 0 0 8.122-.586 882 882 0 0 1 6.644-.54q.972 2.347 1.465 5.626.491 3.27.54 6.75.042 3.471-.352 6.503-.387 3.024-1.266 4.782-2.438-.291-4.055 1.418-1.617 1.712-2.496 4.066-.88 2.346-1.265 3.996-2.251 9.682-7.97 14.332-5.72 4.642-13.64 6.305l.785 2.637a40 40 0 0 0 4.395-1.172q.689 1.665.926 4.5.244 2.838.199 6.164a45 45 0 0 1-.54 6.398c-.321 2.057-.743 3.765-1.265 5.133q-4.302-.494-10.91-1.031-6.6-.54-16.078-.54-6.553 0-11.098.247-4.548.246-7.875.633-3.319.396-6.246.691m0 0" aria-label="TOASTY" style="fill:#ffe564;fill-opacity:1;fill-rule:nonzero;stroke:none" transform="translate(314.691 934.896)scale(1.33333)"/><path d="M0 0q6.306.538 15.399.538Q24.1.538 30.604 0q6.5-.535 10.804-1.026.781 2.052 1.271 5.181.487 3.13.537 6.502a71 71 0 0 1-.195 6.503q-.246 3.128-.929 5.182-2.054.585-3.716 2.249-1.662 1.66-2.688 5.084-1.027 3.421-1.027 9.19v6.943h3.129q-.88-7.431.293-14.569 4.4-.783 7.871-1.026a52.5 52.5 0 0 1 7.187 0q3.714.243 8.799 1.026.588 3.227.88 8.067t.293 10.364-.195 10.852q-.197 5.33-.586 9.582-.392 4.253-.881 6.405-3.91 0-9.924-.342-6.013-.344-14.715-.733-8.702-.392-20.924-.392-17.991 0-29.625.733-11.637.734-17.404.734-.491-1.859-.88-5.915-.392-4.058-.587-9.338-.196-5.28-.196-10.902 0-5.623.294-10.658t.88-8.457q5.083-.783 8.897-1.026 3.813-.246 7.235 0 3.423.243 7.236 1.026a52.6 52.6 0 0 1 .293 14.666h3.129v-7.04q0-8.604-1.662-12.173-1.663-3.57-4.791-4.35-.686-2.054-.929-5.182a70 70 0 0 1-.195-6.503q.047-3.373.537-6.502.488-3.129 1.272-5.181Q-6.308-.536 0 0Z" clip-path="url(#o)" style="fill:none;stroke:#000;stroke-width:3;stroke-linecap:butt;stroke-linejoin:miter;stroke-miterlimit:10;stroke-dasharray:none;stroke-opacity:1" transform="matrix(1.33333 0 0 -1.33333 359.733 935.743)"/><path d="M0 0q12.416 10.12 12.417 31.924 0 19.261-11.732 29.185-11.733 9.924-36.959 9.924-23.663 0-35.786-10.07-12.124-10.072-12.124-31.581 0-19.556 11.977-29.528 11.977-9.973 35.444-9.973Q-12.418-10.119 0 0zm-38.914 36.813h5.964V24.2h-5.964z" clip-path="url(#p)" style="fill:none;stroke:#000;stroke-width:3;stroke-linecap:butt;stroke-linejoin:miter;stroke-miterlimit:10;stroke-dasharray:none;stroke-opacity:1" transform="matrix(1.33333 0 0 -1.33333 563.82 925.966)"/><path d="M0 0q6.55.538 15.644.538 5.768 0 9.729-.293t6.941-.636q2.983-.341 5.623-.635.587 2.052.879 5.181a100 100 0 0 1 .392 6.502 86 86 0 0 1-.049 6.503q-.147 3.128-.538 5.182h-2.737v4.888h8.506v-4.888h-2.738q-.294-2.054-.391-5.182a107 107 0 0 1 0-6.503q.097-3.373.391-6.502.293-3.129.685-5.181 4.008.391 11.195.977 7.186.587 15.302.587 7.918 0 13.541-.587 5.622-.586 9.631-.977.781 2.052 1.271 5.181.488 3.13.538 6.502a71 71 0 0 1-.196 6.503q-.245 3.128-.929 5.182-2.053.78-3.862 2.444-1.809 1.662-2.884 5.035-1.075 3.372-1.075 9.143-.001 3.616.049 8.555a83 83 0 0 1-.538 10.12q-.588 5.18-2.542 9.679-1.957 4.496-5.817 7.285-3.865 2.786-10.511 2.786a270 270 0 0 1-16.035-.489q-8.214-.491-15.987-1.027-7.773-.537-14.422-.537-9.778-.002-15.644.342-5.867.341-9.875.733-.978-2.346-1.466-5.622a50 50 0 0 1-.539-6.746q-.049-3.471.343-6.502.39-3.032 1.271-4.791 3.03-.49 3.96-2.836.927-2.346.733-5.72a69 69 0 0 0-.782-6.991 68 68 0 0 0-1.271-6.599q-.784-3.18-2.493-5.377-1.712-2.202-4.84-2.885-.686-2.054-.929-5.182a70 70 0 0 1-.196-6.503 46 46 0 0 1 .538-6.502q.489-3.129 1.271-5.181Q-6.551-.536 0 0Zm36.568 46.199h7.039v-4.596h-7.039z" clip-path="url(#q)" style="fill:none;stroke:#000;stroke-width:3;stroke-linecap:butt;stroke-linejoin:miter;stroke-miterlimit:10;stroke-dasharray:none;stroke-opacity:1" transform="matrix(1.33333 0 0 -1.33333 601.105 935.743)"/><path d="M0 0q5.425.685 10.021 2.982t7.382 7.088q2.787 4.79 2.787 12.907 0 5.866-1.907 9.778-1.906 3.908-5.427 6.648-3.518 2.737-8.603 4.987a325 325 0 0 0-7.333 3.47 49.3 49.3 0 0 0-7.627 4.645l1.76 2.249q3.909-2.739 7.627-4.596 3.714-1.859 8.066-2.786 4.35-.93 9.924-1.027 1.271 8.507 1.125 16.671-.147 8.163-1.613 15.204-3.718 0-7.333-.196a362 362 0 0 0-8.312-.342q-4.694-.148-11.732-.244 1.074-3.62 1.564-6.844.487-3.228-.88-6.943-.198 9.288-6.747 12.76-6.552 3.47-18.968 3.471-12.516 0-19.897-3.373-7.384-3.373-10.608-9.093-3.228-5.72-3.227-12.76 0-5.672 2.347-9.777 2.346-4.108 6.404-6.845t9.044-4.497a68 68 0 0 0 7.772-3.08 36.3 36.3 0 0 0 7.187-4.449l-1.955-2.053q-3.424 2.737-8.213 4.644-4.792 1.906-10.169 2.982a54.7 54.7 0 0 1-10.755 1.075q-1.272-8.605-1.125-16.279A94 94 0 0 1-67.808.88q5.671-.098 12.614.244 6.941.343 17.404.636a31.3 31.3 0 0 0-1.516 6.16q-.44 3.128.831 6.746.194-8.604 6.991-11.978Q-24.69-.685-10.805-.685-5.428-.684 0 0z" clip-path="url(#r)" style="fill:none;stroke:#000;stroke-width:3;stroke-linecap:butt;stroke-linejoin:miter;stroke-miterlimit:10;stroke-dasharray:none;stroke-opacity:1" transform="matrix(1.33333 0 0 -1.33333 826.703 938.155)"/><path d="M0 0q6.307.538 15.399.538Q24.1.538 30.604 0q6.5-.535 10.803-1.026.782 2.052 1.272 5.181.487 3.13.538 6.502a71 71 0 0 1-.196 6.503q-.246 3.128-.929 5.182-2.054.585-3.715 2.249-1.663 1.66-2.689 5.084-1.027 3.421-1.027 9.19v6.943h3.129q-.88-7.431.293-14.569 4.4-.783 7.871-1.026a52.5 52.5 0 0 1 7.187 0q3.714.243 8.799 1.026.587 3.227.88 8.067t.293 10.364-.195 10.852q-.198 5.33-.587 9.582-.392 4.253-.88 6.405-3.91 0-9.924-.342-6.013-.344-14.714-.733-8.704-.392-20.924-.392-17.992 0-29.626.733-11.637.734-17.405.734-.49-1.859-.879-5.915-.392-4.058-.587-9.338-.196-5.28-.196-10.902 0-5.623.294-10.658t.88-8.457q5.084-.783 8.898-1.026 3.812-.246 7.235 0 3.421.243 7.235 1.026 1.174 7.236.293 14.666h3.129v-7.04q0-8.604-1.662-12.173-1.664-3.57-4.791-4.35-.686-2.054-.929-5.182a70 70 0 0 1-.195-6.503q.047-3.373.537-6.502.488-3.129 1.272-5.181Q-6.307-.536 0 0Z" clip-path="url(#s)" style="fill:none;stroke:#000;stroke-width:3;stroke-linecap:butt;stroke-linejoin:miter;stroke-miterlimit:10;stroke-dasharray:none;stroke-opacity:1" transform="matrix(1.33333 0 0 -1.33333 902.705 935.743)"/><path d="M0 0q3.323.392 7.871.636Q12.417.88 18.969.88q9.482 0 16.083-.538 6.6-.536 10.902-1.027.78 2.055 1.272 5.133.487 3.08.537 6.405a62 62 0 0 1-.196 6.16q-.245 2.834-.928 4.497a39 39 0 0 0-4.401-1.173l-.782 2.64q7.92 1.661 13.64 6.306 5.719 4.644 7.968 14.324.39 1.662 1.272 4.009.88 2.346 2.493 4.058 1.613 1.71 4.058 1.418.88 1.759 1.271 4.791.39 3.029.342 6.502a51 51 0 0 1-.538 6.746q-.49 3.275-1.467 5.622-2.64-.198-6.648-.538a304 304 0 0 0-8.116-.586q-4.106-.246-7.235-.245-9.778 0-16.328.44-6.552.439-10.56.929-1.271-5.867-1.369-11.195-.098-5.33 1.614-9.582 1.71-4.254 5.817-6.991l-1.662-2.346q-4.107 2.736-6.062 6.599a23.1 23.1 0 0 0-2.395 8.116 39.3 39.3 0 0 0 0 8.31q.44 4.056 1.026 7.089-4.01-.392-9.533-.88-5.525-.49-12.173-.489-9.093 0-16.475.489-7.382.488-11.39.88-.979-2.347-1.467-5.622a50 50 0 0 1-.538-6.746q-.05-3.473.342-6.502.39-3.032 1.271-4.791 3.227-.1 5.329-2.934 2.101-2.836 2.884-7.137 1.466-7.627 5.183-11.832 3.714-4.204 9.044-6.012 5.327-1.811 11.39-2.2l-.293-2.738a97 97 0 0 0-4.595.49q-2.25.292-4.498.781-.88-2.64-1.076-6.795a55 55 0 0 1 .245-8.36q.44-4.205 1.515-7.04Q-3.325-.39 0 0Z" clip-path="url(#t)" style="fill:none;stroke:#000;stroke-width:3;stroke-linecap:butt;stroke-linejoin:miter;stroke-miterlimit:10;stroke-dasharray:none;stroke-opacity:1" transform="matrix(1.33333 0 0 -1.33333 1038.35 936.2)"/><path d="M3.352 0q-.729.002-.727-.727V-6.21q0-.386.035-.61.046-.232.34-.386l7.64-3.492v-5.203l-7.523-4.664a.95.95 0 0 1-.492-.868v-10.71q-.001-.468.059-.68.056-.221.433-.48l7.676-5.192a4.4 4.4 0 0 1 .539-.281q.245-.105.621-.106h7.887q.725 0 .726.727v4.969q0 .632-.445.867l-7.64 3.152v5.39l7.64 4.383q.444.202.445.926v12.692q-.001.236-.082.504a.56.56 0 0 1-.304.375L11.027-.352q-.175.097-.422.223a1 1 0 0 1-.48.129Zm32.99 0q-.669 0-1.171-.492l-5.824-5.836a1.53 1.53 0 0 1-.504-1.172v-17.086q0-.702.504-1.172l5.824-5.836a1.62 1.62 0 0 1 1.172-.492h15.61q.725 0 .726.727V-.727q0 .729-.727.727h-6.07q-.388 0-.574-.14-.19-.15-.422-.352l-1.453-1.465-1.465 1.465a1.54 1.54 0 0 1-1.16.492Zm3.41-6.797h2.04q.937.001 1.289-.375.352-.386.352-1.348v-16.769h-3.68q-.962 0-1.313.387-.351.378-.351 1.336V-8.52q0 .962.351 1.348.351.377 1.313.375M69.127 0q-.67 0-1.172-.492L62.13-6.328a1.53 1.53 0 0 1-.504-1.172v-23.86q-.002-.725.727-.726h7.792q.727 0 .727.727v24.07h5.344v-24.07q-.002-.727.726-.727h7.793q.726 0 .727.727V-7.5q-.002.704-.504 1.172L79.134-.492A1.55 1.55 0 0 1 77.962 0Zm32.783 0q-.67 0-1.172-.492l-5.824-5.836A1.53 1.53 0 0 1 94.41-7.5v-17.086q0-.702.504-1.172l5.824-5.836a1.62 1.62 0 0 1 1.172-.492h8.836q.703 0 1.172.492l5.824 5.836q.503.47.504 1.172V-7.5q-.001.704-.504 1.172l-5.824 5.836a1.55 1.55 0 0 1-1.172.492Zm3.41-6.797h2.04q.936.001 1.288-.375.352-.386.352-1.348v-15.046q0-.959-.352-1.336-.352-.387-1.289-.387h-2.039q-.961 0-1.312.387-.352.378-.352 1.336V-8.52q0 .962.352 1.348.35.377 1.312.375M128.127 0q-.728.002-.727-.727v-30.632q-.002-.727.727-.727h4.43q.562 0 .96.492l2.86 3.305 3.187-3.445q.316-.352.809-.352h3.152q.726 0 .727.727v6.27q0 .47-.059.632-.06.166-.316.34l-7.23 5.332V-.727q0 .729-.739.727zm30.425 9.715q-.738 0-.739-.727V4.43q-.001-.554.446-.633l4.289-1.09 3-1.594q.432-.237.433-.914v-4.781l-2.707 2.543q-.505.492-1.171.492l-4.958.176a1.66 1.66 0 0 1-1.171-.469l-5.332-5.367a1.53 1.53 0 0 1-.493-1.16V-31.36q-.002-.727.727-.727h7.781q.738 0 .738.727v21.972q-.001.963.34 1.336c.235.252.662.375 1.29.375h3.703V-31.36q-.001-.727.726-.727h7.793q.726 0 .727.727V3.703q0 .879-.493 1.172l-3.878 2.473-4.934 2.039q-.436.175-.656.246c-.14.053-.37.082-.68.082zm0 0" aria-label="Savory" style="fill:#ffa1db;fill-opacity:1;fill-rule:nonzero;stroke:none" transform="translate(613.629 1031.2)scale(1.33333)"/><path d="M0 0q.233 0 .48.131.249.132.423.219l9.159 4.549a.58.58 0 0 1 .306.38q.072.262.073.495v12.688q0 .729-.437.934l-7.642 4.375v5.395l7.642 3.15q.437.233.437.875v4.958q0 .729-.729.729H1.837q-.38 0-.627-.102a4 4 0 0 1-.54-.277L-7 33.308q-.38-.262-.437-.482-.06-.218-.059-.685V21.437q0-.584.496-.875l7.524-4.666v-5.192l-7.641-3.5q-.292-.147-.335-.379a3.5 3.5 0 0 1-.044-.613V.729q0-.729.729-.729Z" clip-path="url(#u)" style="fill:none;stroke:#000;stroke-width:3;stroke-linecap:butt;stroke-linejoin:miter;stroke-miterlimit:10;stroke-dasharray:none;stroke-opacity:1" transform="matrix(1.33333 0 0 -1.33333 627.124 1031.2)"/><path d="M0 0q.7 0 1.167.496l1.458 1.458L4.083.496q.233-.205.423-.35Q4.696 0 5.075 0h6.067q.728 0 .728.729v30.625q0 .728-.728.729H-4.463q-.67 0-1.166-.496l-5.833-5.833a1.54 1.54 0 0 1-.496-1.167V7.496q0-.7.496-1.167L-5.629.496Q-5.134 0-4.463 0Zm-2.362 7.175q-.351.38-.351 1.342v15.049q0 .963.351 1.342.35.378 1.312.379h3.675V8.517q0-.963-.351-1.342-.349-.38-1.283-.379H-1.05q-.962 0-1.312.379z" clip-path="url(#v)" style="fill:none;stroke:#000;stroke-width:3;stroke-linecap:butt;stroke-linejoin:miter;stroke-miterlimit:10;stroke-dasharray:none;stroke-opacity:1" transform="matrix(1.33333 0 0 -1.33333 668.072 1031.2)"/><path d="M0 0q.7 0 1.166.496L7 6.329q.495.466.495 1.167v23.858q0 .728-.728.729h-7.788q-.729 0-.729-.729V7.292h-5.338v24.062q0 .728-.728.729h-7.788q-.729 0-.729-.729V7.496q0-.7.496-1.167l5.833-5.833Q-9.509 0-8.838 0Z" clip-path="url(#w)" style="fill:none;stroke:#000;stroke-width:3;stroke-linecap:butt;stroke-linejoin:miter;stroke-miterlimit:10;stroke-dasharray:none;stroke-opacity:1" transform="matrix(1.33333 0 0 -1.33333 717.654 1031.2)"/><path d="M0 0q.7 0 1.166.496L7 6.329q.495.466.495 1.167v17.091q0 .7-.495 1.167l-5.834 5.833Q.7 32.082 0 32.083h-8.838q-.67 0-1.166-.496l-5.833-5.833a1.54 1.54 0 0 1-.496-1.167V7.496q0-.7.496-1.167l5.833-5.833Q-9.509 0-8.838 0Zm-6.737 7.175q-.351.38-.351 1.342v15.049q0 .963.351 1.342.35.378 1.312.379h2.041q.934 0 1.283-.379.351-.38.351-1.342V8.517q0-.963-.351-1.342-.349-.38-1.283-.379h-2.041q-.962 0-1.312.379z" clip-path="url(#x)" style="fill:none;stroke:#000;stroke-width:3;stroke-linecap:butt;stroke-linejoin:miter;stroke-miterlimit:10;stroke-dasharray:none;stroke-opacity:1" transform="matrix(1.33333 0 0 -1.33333 761.402 1031.2)"/><path d="M0 0q.728 0 .729.729v18.054l7.233 5.337q.262.176.321.336.057.159.058.627v6.271q0 .728-.729.729h-3.15q-.496 0-.816-.351L.467 28.291l-2.859 3.296q-.408.495-.962.496h-4.433q-.73 0-.73-.729V.729q0-.729.73-.729Z" clip-path="url(#y)" style="fill:none;stroke:#000;stroke-width:3;stroke-linecap:butt;stroke-linejoin:miter;stroke-miterlimit:10;stroke-dasharray:none;stroke-opacity:1" transform="matrix(1.33333 0 0 -1.33333 795.001 1031.2)"/><path d="M0 0q.468 0 .686.072.22.074.656.248l4.929 2.042 3.879 2.479q.495.293.496 1.167v35.057q0 .73-.729.73H2.13q-.73 0-.73-.73V17.383h-3.704q-.933 0-1.283.379-.35.38-.351 1.342v21.961q0 .73-.728.73h-7.787q-.73 0-.73-.73V18.083q0-.7.496-1.167l5.337-5.366q.496-.467 1.167-.467l4.958.175q.671 0 1.167.496l2.712 2.537V9.508q0-.67-.437-.904L-.787 6.999-5.074 5.92q-.438-.087-.438-.642V.729q0-.729.729-.729Z" clip-path="url(#z)" style="fill:none;stroke:#000;stroke-width:3;stroke-linecap:butt;stroke-linejoin:miter;stroke-miterlimit:10;stroke-dasharray:none;stroke-opacity:1" transform="matrix(1.33333 0 0 -1.33333 831.555 1044.148)"/><path d="m0 0 162.809 298.8c11.266 20.678 41.002 20.539 52.075-.243L373.912.094c10.491-19.689-3.762-43.462-26.072-43.485l-321.837-.338C3.544-43.752-10.746-19.721 0 0" clip-path="url(#A)" style="fill:#ffb255;fill-opacity:1;fill-rule:nonzero;stroke:none" transform="matrix(1.33333 0 0 -1.33333 428.087 718.3)"/><path d="m0 0 2.866 5.26 7.964 14.616 12.045 22.106 15.29 28.061L55.7 102.226l18.829 34.555 19.169 35.182 18.559 34.06 16.921 31.055 14.493 26.599 11.03 20.243 6.614 12.139c2.748 5.043 5.846 9.706 10.816 12.918 6.389 4.13 14.356 5.501 21.766 3.781 7.96-1.846 14.52-7.044 18.397-14.201.948-1.751 1.873-3.516 2.81-5.274l7.854-14.74 11.949-22.426 15.095-28.33 35.746-67.089 18.843-35.363 18.198-34.154 16.605-31.164 14.063-26.394 10.533-19.769 6.157-11.555c3.371-6.326 5.401-13.061 4.033-20.329-2.536-13.478-14.315-23.058-27.951-23.105-2.98-.01-5.959-.006-8.939-.009l-19.597-.021-27.884-.029-34.214-.036-38.208-.04-39.978-.042-39.522-.041-36.843-.039-31.804-.033-24.847-.026-15.504-.016c-4.793-.005-9.408.033-14.033 1.723C7.455-37.04 1.418-31.005-1.462-23.689-4.515-15.93-3.919-7.334 0 0c.91 1.702-1.679 3.219-2.59 1.514-4.027-7.534-5-16.371-2.297-24.522 2.538-7.657 8.013-14.261 15.193-17.986 5.604-2.908 11.55-3.481 17.695-3.474l14.797.015 24.452.026 31.862.033 76.805.081 40.368.042 38.629.041 34.749.036 28.254.03 19.643.02c2.915.003 5.83-.002 8.744.009 13.919.054 26.309 9.211 30.146 22.669 2.441 8.562.711 16.978-3.385 24.663l-5.748 10.789-10.351 19.426-13.979 26.236-16.63 31.212-18.308 34.36-19.009 35.676-18.819 35.319-17.477 32.8-15.247 28.616-12.042 22.601-7.862 14.755c-1.163 2.182-2.259 4.425-3.538 6.543-8.354 13.838-26.464 18.843-40.833 11.537-6.428-3.268-10.771-8.655-14.14-14.838l-6.235-11.444-25.229-46.302-17.036-31.266-18.767-34.442-19.342-35.498-19.022-34.911-17.722-32.525-15.444-28.345L8.098 21.13.148 6.539-2.59 1.514C-3.514-.182-.925-1.698 0 0" clip-path="url(#B)" style="fill:#000;fill-opacity:1;fill-rule:nonzero;stroke:none" transform="matrix(1.33333 0 0 -1.33333 429.814 719.31)"/><path d="m0 0-34.339 104.048c37.524 7.096 75.966 10.595 114.404 10.413z" clip-path="url(#C)" style="fill:#fff19c;fill-opacity:1;fill-rule:nonzero;stroke:none" transform="matrix(1.33333 0 0 -1.33333 552.512 646.197)"/><path d="m0 0-26.769 81.11-7.57 22.938-1.048-1.845a599 599 0 0 0 88.744 9.949c8.417.313 16.839.447 25.262.411l-1.295 2.257-7.982-11.411-19.161-27.392L27.086 43 7.122 14.459.521 5.022C-.516 3.541-1.657 2.09-2.607.55c-.041-.066-.09-.128-.135-.192-1.109-1.585 1.491-3.086 2.591-1.514L7.83 10.255l19.161 27.392 23.096 33.017 19.964 28.541 6.601 9.437c1.036 1.481 2.177 2.932 3.128 4.472.041.066.09.128.134.192.671.958-.23 2.252-1.295 2.257a607 607 0 0 1-89.769-6.286 600 600 0 0 1-25.034-4.181c-.77-.145-1.286-1.123-1.048-1.845l26.769-81.111 7.57-22.937C-2.291-2.622.607-1.841 0 0" clip-path="url(#D)" style="fill:#000;fill-opacity:1;fill-rule:nonzero;stroke:none" transform="matrix(1.33333 0 0 -1.33333 554.44 645.666)"/><path d="M0 0c-.706-47.197-36.026-84.937-78.891-84.297-42.864.641-77.041 39.421-76.335 86.618.705 47.196 36.026 84.937 78.891 84.296C-33.471 85.977.706 47.197 0 0" clip-path="url(#E)" style="fill:#f05924;fill-opacity:1;fill-rule:nonzero;stroke:none" transform="matrix(1.33333 0 0 -1.33333 767.087 456.037)"/><path d="M0 0c-.29-17.175-5.285-34.146-14.834-48.468-8.784-13.176-21.436-23.92-36.276-29.628-15.051-5.789-31.815-6.233-47.134-1.177-15.048 4.967-28.133 15.082-37.386 27.878-9.912 13.708-15.552 30.253-16.467 47.12-.94 17.322 2.924 34.843 11.539 49.938 7.925 13.887 19.764 25.498 34.205 32.481 14.451 6.988 31.166 8.82 46.774 5.047 15.448-3.733 29.16-12.747 39.366-24.849C-9.471 45.605-2.749 29.565-.704 13.061A96 96 0 0 0 0 0c-.025-1.931 2.975-1.932 3 0 .231 17.734-4.413 35.488-13.853 50.552-8.789 14.023-21.603 25.472-36.91 31.9-15.377 6.457-32.828 7.425-48.82 2.672-15.844-4.709-29.712-14.769-39.782-27.796-10.76-13.921-17.06-30.921-18.535-48.418-1.501-17.798 2.032-35.99 10.428-51.78 7.777-14.626 19.787-27.115 34.563-34.729 14.818-7.637 31.967-10.057 48.307-6.699 16.134 3.315 30.794 12.256 41.744 24.479C-8.284-46.899-.791-30.55 1.852-13.433A99 99 0 0 1 3 0C3.033 1.931.033 1.932 0 0" clip-path="url(#F)" style="fill:#000;fill-opacity:1;fill-rule:nonzero;stroke:none" transform="matrix(1.33333 0 0 -1.33333 765.087 456.037)"/><path d="M0 0c-.592-39.596-30.225-71.26-66.187-70.722-35.962.537-64.635 33.073-64.043 72.669.592 39.597 30.225 71.26 66.187 70.722C-28.081 72.132.592 39.596 0 0" clip-path="url(#G)" style="fill:#f05924;fill-opacity:1;fill-rule:nonzero;stroke:none" transform="matrix(1.33333 0 0 -1.33333 750.423 455.787)"/><path d="M0 0c-.247-14.336-4.401-28.493-12.357-40.459-7.336-11.032-17.922-20.051-30.341-24.826-12.56-4.831-26.53-5.22-39.323-1.022-12.598 4.135-23.568 12.595-31.311 23.301-8.302 11.477-13.03 25.326-13.792 39.451-.778 14.457 2.437 29.075 9.615 41.68 6.625 11.636 16.528 21.362 28.619 27.214 12.048 5.831 25.991 7.37 39.01 4.241 12.94-3.111 24.418-10.647 32.97-20.777C-7.917 38.151-2.284 24.708-.583 10.896A81 81 0 0 0 0 0c-.024-1.931 2.976-1.932 3 0C3.189 14.952-.729 29.922-8.706 42.613c-7.393 11.763-18.151 21.369-31 26.769-12.928 5.434-27.593 6.271-41.049 2.296-13.368-3.948-25.077-12.42-33.573-23.402-9.046-11.692-14.348-25.952-15.615-40.651-1.294-14.996 1.67-30.339 8.735-43.651 6.547-12.337 16.675-22.88 29.137-29.297 12.499-6.434 26.952-8.466 40.729-5.626 13.547 2.792 25.869 10.305 35.07 20.565 9.766 10.89 16.09 24.675 18.31 39.111C2.612-7.54 2.935-3.777 3 0 3.033 1.931.033 1.932 0 0" clip-path="url(#H)" style="fill:#000;fill-opacity:1;fill-rule:nonzero;stroke:none" transform="matrix(1.33333 0 0 -1.33333 748.423 455.787)"/><path d="m0 0 39.459-33.276L78.728-66.39l22.303-18.808c1.467-1.237 3.6.874 2.122 2.121l-39.46 33.276L2.121 2.121C.654 3.359-1.478 1.247 0 0" clip-path="url(#I)" style="fill:#000;fill-opacity:1;fill-rule:nonzero;stroke:none" transform="matrix(1.33333 0 0 -1.33333 591.393 402.925)"/><path d="m0 0 32.165 41.802 32.012 41.605 18.14 23.575c.498.647.094 1.674-.538 2.053-.768.46-1.561.1-2.052-.539L47.562 66.694 15.55 25.09-2.59 1.514c-.498-.647-.095-1.673.538-2.052C-1.284-.998-.491-.639 0 0" clip-path="url(#J)" style="fill:#000;fill-opacity:1;fill-rule:nonzero;stroke:none" transform="matrix(1.33333 0 0 -1.33333 605.75 523.282)"/><path d="m0 0 5.803-54.615 5.802-54.615 3.271-30.782c.202-1.901 3.204-1.921 3 0l-5.803 54.614-5.802 54.615L3 0C2.798 1.9-.204 1.921 0 0" clip-path="url(#K)" style="fill:#000;fill-opacity:1;fill-rule:nonzero;stroke:none" transform="matrix(1.33333 0 0 -1.33333 642.39 362.583)"/><path d="m0 0 97.719 9.112 27.282 2.544c1.906.177 1.924 3.179 0 3L27.282 5.544 0 3c-1.906-.178-1.925-3.18 0-3" clip-path="url(#L)" style="fill:#000;fill-opacity:1;fill-rule:nonzero;stroke:none" transform="matrix(1.33333 0 0 -1.33333 580.163 464.186)"/><path d="M0 0c-16.065-12.224-25.211-31.971-23.688-52.168.46-6.097 1.819-12.094 4.083-17.775.706-1.772 3.608-.999 2.892.798-7.364 18.485-4.623 39.697 7.342 55.608A56.4 56.4 0 0 0 1.514-2.59C3.031-1.437 1.538 1.17 0 0" clip-path="url(#M)" style="fill:#000;fill-opacity:1;fill-rule:nonzero;stroke:none" transform="matrix(1.33333 0 0 -1.33333 622.83 388.162)"/><path d="M0 0c-10.972 11.402-29.719 14.374-43.68 6.924s-21.927-24.678-18.563-40.141c-8.345-9.624-10.188-24.376-4.467-35.757 5.721-11.382 18.659-18.704 31.362-17.749l42.372 69.93z" clip-path="url(#N)" style="fill:#ffa1db;fill-opacity:1;fill-rule:nonzero;stroke:none" transform="matrix(1.33333 0 0 -1.33333 531.155 636.722)"/><path d="M0 0c-9.067 9.32-22.877 13.195-35.553 10.697-12.808-2.524-22.95-12.041-27.506-24.11-2.553-6.763-3.191-14.185-1.691-21.263l.386 1.459c-6.615-7.727-9.343-18.171-7.742-28.181 1.59-9.935 7.93-18.509 16.641-23.433a35.1 35.1 0 0 1 13.932-4.398 30 30 0 0 1 3.658-.128c1.032.026 2.085-.084 2.763.82.094.125.163.273.246.405 1.538 2.468 3.014 4.976 4.521 7.462l18.679 30.827L5.107-22.162c.807 1.333 2.755 3.456 2.139 5.098-1.891 5.042-4.17 9.97-6.248 14.939L.386-.662C.071.091-.604.611-1.459.386c-.708-.187-1.36-1.099-1.048-1.845l7.024-16.794.151 1.156-14.37-23.716-22.754-37.552-5.248-8.661 1.295.743c-10.914-.753-21.984 4.599-28.12 13.687-6.267 9.281-6.625 21.841-1.459 31.705a31 31 0 0 0 1.923 3.195c.765 1.115 2.365 2.394 2.208 3.817-.133 1.209-.452 2.396-.565 3.614a35 35 0 0 0-.139 4.047c.123 5.26 1.461 10.504 3.796 15.215 4.734 9.55 13.312 16.651 23.834 18.773 11.679 2.355 24.471-1.32 32.81-9.891C-.773-3.508 1.348-1.385 0 0" clip-path="url(#O)" style="fill:#000;fill-opacity:1;fill-rule:nonzero;stroke:none" transform="matrix(1.33333 0 0 -1.33333 532.569 635.308)"/><path d="M0 0c-.54-36.116-27.568-64.995-60.368-64.505-32.801.49-58.953 30.165-58.413 66.281.539 36.115 27.567 64.995 60.368 64.505S.54 36.116 0 0" clip-path="url(#P)" style="fill:#f05924;fill-opacity:1;fill-rule:nonzero;stroke:none" transform="matrix(1.33333 0 0 -1.33333 619.866 657.236)"/><path d="M0 0c-.228-13.047-4.004-25.913-11.235-36.809-6.66-10.035-16.293-18.249-27.58-22.598-11.425-4.401-24.124-4.769-35.766-.964-11.459 3.745-21.45 11.428-28.502 21.155-7.597 10.48-11.922 23.134-12.605 36.043-.696 13.152 2.235 26.444 8.771 37.908 6.031 10.581 15.039 19.424 26.039 24.746 10.957 5.301 23.637 6.7 35.476 3.855 11.774-2.829 22.207-9.679 29.994-18.889C-7.225 34.768-2.09 22.536-.537 9.98-.127 6.669.041 3.335 0 0c-.024-1.931 2.976-1.932 3 0C3.17 13.66-.406 27.335-7.693 38.931c-6.752 10.744-16.575 19.522-28.309 24.459-11.857 4.989-25.31 5.755-37.649 2.087-12.152-3.613-22.807-11.314-30.545-21.296-8.31-10.72-13.176-23.792-14.329-37.28-1.171-13.695 1.551-27.701 8.005-39.854 5.959-11.22 15.17-20.818 26.49-26.68 11.453-5.931 24.71-7.811 37.351-5.21 12.426 2.557 23.729 9.464 32.148 18.891C-5.668-36.029.086-23.49 2.111-10.358 2.64-6.927 2.939-3.471 3 0 3.034 1.931.034 1.932 0 0" clip-path="url(#Q)" style="fill:#000;fill-opacity:1;fill-rule:nonzero;stroke:none" transform="matrix(1.33333 0 0 -1.33333 617.866 657.236)"/><path d="M0 0c-.453-30.3-23.129-54.529-50.647-54.118-27.519.412-49.46 25.308-49.007 55.608s23.129 54.529 50.647 54.118C-21.488 55.196.453 30.3 0 0" clip-path="url(#R)" style="fill:#f05924;fill-opacity:1;fill-rule:nonzero;stroke:none" transform="matrix(1.33333 0 0 -1.33333 607.114 657.046)"/><path d="M0 0c-.377-21.008-12.418-42.031-32.608-49.692-9.494-3.602-20.008-3.88-29.664-.722-9.598 3.138-17.968 9.596-23.852 17.76-12.801 17.764-13.966 42.546-3.189 61.563 5.035 8.885 12.577 16.303 21.796 20.772 9.172 4.447 19.808 5.604 29.716 3.197C-17.241 47.882-2.995 28.839-.446 8.341-.103 5.575.033 2.787 0 0c-.023-1.931 2.977-1.932 3 0 .267 22.31-11.911 44.628-32.97 53.446-9.978 4.177-21.302 4.802-31.675 1.71-10.299-3.069-19.29-9.61-25.829-18.083-14.166-18.359-16.046-44.646-5.118-65.026 5.048-9.412 12.818-17.46 22.352-22.357 9.616-4.94 20.713-6.502 31.312-4.339C-16.93-50.159-1.075-30.368 2.251-8.723c.444 2.89.697 5.8.749 8.723.035 1.931-2.965 1.931-3 0" clip-path="url(#S)" style="fill:#000;fill-opacity:1;fill-rule:nonzero;stroke:none" transform="matrix(1.33333 0 0 -1.33333 605.114 657.046)"/><path d="m0 0 60.173-50.743 17.138-14.452c1.467-1.237 3.599.875 2.121 2.121L19.259-12.331 2.121 2.121C.654 3.359-1.478 1.247 0 0" clip-path="url(#T)" style="fill:#000;fill-opacity:1;fill-rule:nonzero;stroke:none" transform="matrix(1.33333 0 0 -1.33333 485.09 616.926)"/><path d="m0 0 62.99 81.865c.498.646.094 1.673-.538 2.052-.768.46-1.561.1-2.052-.538L11.407 19.706-2.59 1.514c-.498-.647-.095-1.673.538-2.052C-1.284-.998-.491-.639 0 0" clip-path="url(#U)" style="fill:#000;fill-opacity:1;fill-rule:nonzero;stroke:none" transform="matrix(1.33333 0 0 -1.33333 496.814 708.93)"/><path d="m0 0 8.88-83.579 2.503-23.561c.202-1.9 3.204-1.92 3 0l-8.88 83.579L3 0C2.798 1.9-.204 1.921 0 0" clip-path="url(#V)" style="fill:#000;fill-opacity:1;fill-rule:nonzero;stroke:none" transform="matrix(1.33333 0 0 -1.33333 523.975 585.725)"/><path d="m0 0 74.589 6.955 21.064 1.964c1.906.178 1.924 3.18 0 3l-74.59-6.955L0 3c-1.906-.178-1.925-3.179 0-3" clip-path="url(#W)" style="fill:#000;fill-opacity:1;fill-rule:nonzero;stroke:none" transform="matrix(1.33333 0 0 -1.33333 476.829 663.942)"/><path d="M0 0c-12.395-9.453-19.488-24.649-18.297-40.263a46.6 46.6 0 0 1 3.133-13.656c.704-1.773 3.606-1 2.893.797-5.576 14.044-3.543 30.062 5.505 42.178a42.8 42.8 0 0 0 8.28 8.354C3.029-1.435 1.536 1.172 0 0" clip-path="url(#X)" style="fill:#000;fill-opacity:1;fill-rule:nonzero;stroke:none" transform="matrix(1.33333 0 0 -1.33333 509.241 604.892)"/><path d="M0 0c-10.972 11.402-29.719 14.374-43.679 6.924s-21.928-24.678-18.564-40.141c-8.345-9.624-10.188-24.376-4.467-35.757 5.721-11.382 18.659-18.704 31.362-17.749l42.372 69.93z" clip-path="url(#Y)" style="fill:#ffa1db;fill-opacity:1;fill-rule:nonzero;stroke:none" transform="matrix(1.33333 0 0 -1.33333 721.429 375.69)"/><path d="M0 0c-9.067 9.32-22.877 13.195-35.553 10.697-12.808-2.524-22.95-12.041-27.506-24.11-2.553-6.764-3.191-14.185-1.691-21.263l.386 1.459c-6.615-7.727-9.343-18.171-7.742-28.181 1.59-9.935 7.93-18.509 16.641-23.433a35.1 35.1 0 0 1 13.932-4.398 30 30 0 0 1 3.658-.128c1.032.026 2.085-.084 2.763.82.094.125.163.273.246.405 1.538 2.468 3.014 4.976 4.521 7.462l18.679 30.827L5.107-22.162c.807 1.333 2.755 3.456 2.139 5.098-1.891 5.042-4.17 9.97-6.248 14.939L.386-.662C.071.091-.604.611-1.459.386c-.708-.187-1.36-1.099-1.048-1.845l7.024-16.794.151 1.156-14.37-23.716-22.754-37.552-5.248-8.661 1.295.743c-10.914-.753-21.984 4.598-28.12 13.687-6.267 9.281-6.625 21.841-1.459 31.705a31 31 0 0 0 1.923 3.195c.765 1.115 2.365 2.394 2.208 3.817-.133 1.209-.452 2.395-.565 3.614a35 35 0 0 0-.139 4.047c.123 5.26 1.461 10.504 3.796 15.215 4.734 9.55 13.312 16.651 23.834 18.773 11.679 2.355 24.471-1.32 32.81-9.891C-.773-3.508 1.348-1.385 0 0" clip-path="url(#Z)" style="fill:#000;fill-opacity:1;fill-rule:nonzero;stroke:none" transform="matrix(1.33333 0 0 -1.33333 722.843 374.277)"/><path d="M0 0c3.888 12.828.038 27.683-9.591 37.008s-24.6 12.696-37.297 8.399c-20.218-6.843-30.295-29.096-36.791-49.429a510 510 0 0 1-14.5-56.262c-18.864 7.577-42.764-1.151-52.306-19.102s-3.405-42.644 13.43-54.041c-15.613-.085-25.361-22.563-14.753-34.019-9.766 7.453-24.796 2.946-32.807-6.368s-10.794-21.897-13.31-33.921l-11.588-55.379c-17.281.23-31.69-19.296-26.375-35.741s28.426-23.845 42.304-13.545z" clip-path="url(#aa)" style="fill:#23a155;fill-opacity:1;fill-rule:nonzero;stroke:none" transform="matrix(1.33333 0 0 -1.33333 788.836 357.267)"/><path d="M0 0c3.65 12.398.619 26.312-7.778 36.127-8.385 9.802-21.96 14.44-34.631 12.618-25.88-3.721-37.64-31.352-44.582-53.288a513 513 0 0 1-14.08-54.944l1.845 1.048c-15.342 6.045-33.618 1.873-45.668-9.126-12.432-11.35-15.928-29.301-10.57-45.004 2.991-8.767 8.545-16.495 16.205-21.755l.757 2.795c-17.075-.306-27.227-23.94-15.813-36.579l1.818 2.356c-12.429 9.217-29.509 1.198-37.343-10.126-4.853-7.016-7.413-15.354-9.343-23.578-2.224-9.481-4.059-19.063-6.053-28.595l-7.17-34.265 1.447 1.101c-13.699.04-25.611-11.192-28.372-24.288-1.351-6.411-.421-13.156 3.046-18.765 3.304-5.346 8.471-9.288 14.255-11.626 5.689-2.299 12.081-2.978 18.096-1.697 3.035.646 5.998 1.844 8.594 3.549.628.413 1.227.8 1.675 1.397.92 1.227 1.649 2.661 2.456 3.963l14.101 22.756 23.723 38.284 62.186 100.353 59.984 96.8 20.629 33.291L-.575-1.042l.424.684c1.02 1.645-1.575 3.154-2.591 1.514L-9.438-9.651l-17.806-28.735-25.742-41.541-30.596-49.375-32.183-51.935-30.484-49.195-25.769-41.586-17.76-28.659-4.865-7.852-1.259-2.032c-.107-.172-.202-.367-.327-.527-.343-.44.695.316-.266-.123-1.287-.587-2.425-1.508-3.745-2.08-1.504-.652-3.095-1.122-4.699-1.45-3.014-.616-6.179-.655-9.219-.206-6.12.903-12.027 3.717-16.365 8.158-9.792 10.025-7.396 25.532 2.012 34.94 4.676 4.676 10.88 7.654 17.552 7.634.623-.002 1.313.464 1.446 1.101 3.963 18.938 7.893 37.882 11.889 56.813 3.086 14.621 7.253 31.865 21.99 38.929 6.901 3.308 15.269 3.741 21.623-.97 1.426-1.058 2.902 1.155 1.817 2.356-9.672 10.71-.689 31.2 13.692 31.457 1.552.028 1.956 1.972.757 2.796-12.633 8.675-19.031 25.054-16.763 40.075 2.351 15.563 14.352 27.459 29.313 31.518 8.307 2.253 17.14 1.972 25.171-1.192.718-.283 1.7.314 1.845 1.048a514 514 0 0 0 11.245 45.679C-83.35-2.486-79.567 9.747-73.35 20.82c5.5 9.793 13.254 18.914 23.999 23.029 11.583 4.436 25.358 2.296 35.02-5.524C-3.424 29.497 1.048 14.182-2.893.797-3.439-1.058-.545-1.851 0 0" clip-path="url(#ab)" style="fill:#000;fill-opacity:1;fill-rule:nonzero;stroke:none" transform="matrix(1.33333 0 0 -1.33333 790.764 357.799)"/><path d="m0 0 162.809 298.8c11.266 20.678 41.002 20.539 52.075-.243L373.912.094c10.491-19.689-3.762-43.462-26.072-43.485l-321.837-.338C3.544-43.752-10.746-19.721 0 0" clip-path="url(#ac)" style="fill:#ffb255;fill-opacity:1;fill-rule:nonzero;stroke:none" transform="matrix(1.33333 0 0 -1.33333 522.036 736.696)"/><path d="m0 0 2.866 5.26 7.964 14.616 12.045 22.106 15.29 28.061L55.7 102.226l18.829 34.555 19.169 35.182 18.559 34.06 16.921 31.055 14.493 26.599 11.03 20.243 6.614 12.139c2.748 5.043 5.846 9.706 10.816 12.918 6.389 4.13 14.356 5.501 21.766 3.781 7.96-1.847 14.52-7.044 18.397-14.201.948-1.751 1.873-3.516 2.81-5.274l7.854-14.74 11.949-22.426 15.095-28.33 35.746-67.089 18.843-35.363q9.098-17.078 18.198-34.154l16.605-31.164 14.063-26.395 10.533-19.768 6.157-11.555c3.371-6.326 5.401-13.061 4.033-20.329-2.536-13.478-14.315-23.058-27.951-23.105-2.98-.01-5.959-.006-8.939-.009l-19.597-.021-27.884-.029-34.214-.036-38.208-.04-39.978-.042-39.522-.041-36.843-.039-31.804-.033-24.847-.026-15.504-.016c-4.793-.005-9.408.033-14.033 1.723C7.455-37.04 1.418-31.005-1.462-23.689-4.515-15.93-3.919-7.334 0 0c.91 1.702-1.679 3.219-2.59 1.514-4.027-7.534-5-16.371-2.297-24.522 2.538-7.657 8.013-14.261 15.193-17.986 5.604-2.908 11.55-3.481 17.695-3.474l14.797.015 24.452.026 31.862.033 76.805.081 40.368.042 38.629.041 34.749.036 28.254.03 19.643.02c2.915.003 5.83-.002 8.744.009 13.919.054 26.309 9.211 30.146 22.669 2.441 8.562.711 16.978-3.385 24.663l-5.748 10.789-10.351 19.426-13.979 26.236-16.63 31.212-18.308 34.36-19.009 35.676-36.296 68.119-15.247 28.616-12.042 22.601-7.862 14.755c-1.163 2.182-2.259 4.425-3.538 6.543-8.354 13.838-26.464 18.842-40.834 11.537-6.427-3.268-10.77-8.655-14.139-14.838l-6.235-11.444-10.815-19.847-14.414-26.455-17.036-31.266-18.767-34.442-19.342-35.498-19.022-34.911-17.722-32.525-15.444-28.345L8.098 21.13.148 6.539-2.59 1.514C-3.514-.182-.925-1.698 0 0" clip-path="url(#ad)" style="fill:#000;fill-opacity:1;fill-rule:nonzero;stroke:none" transform="matrix(1.33333 0 0 -1.33333 523.763 737.705)"/><path d="m0 0 30.51-10.839c1.823-.647 2.607 2.25.798 2.893L.798 2.893C-1.025 3.54-1.809.643 0 0" clip-path="url(#ae)" style="fill:#000;fill-opacity:1;fill-rule:nonzero;stroke:none" transform="matrix(1.33333 0 0 -1.33333 473.98 739.673)"/><path d="m0 0 15.152-8.724c1.677-.966 3.189 1.626 1.515 2.59L1.514 2.59C-.162 3.555-1.675.964 0 0" clip-path="url(#af)" style="fill:#000;fill-opacity:1;fill-rule:nonzero;stroke:none" transform="matrix(1.33333 0 0 -1.33333 507.04 711.349)"/><path d="m0 0 12.545-8.433c.673-.452 1.662-.13 2.053.538.431.738.136 1.599-.538 2.052L1.514 2.59c-.672.453-1.661.13-2.052-.538C-.97 1.315-.674.453 0 0" clip-path="url(#ag)" style="fill:#000;fill-opacity:1;fill-rule:nonzero;stroke:none" transform="matrix(1.33333 0 0 -1.33333 584.4 580.74)"/><path d="m0 0 13.629-8.476c1.644-1.023 3.152 1.572 1.514 2.59L1.514 2.59C-.13 3.613-1.638 1.019 0 0" clip-path="url(#ah)" style="fill:#000;fill-opacity:1;fill-rule:nonzero;stroke:none" transform="matrix(1.33333 0 0 -1.33333 604.894 536.968)"/><path d="m0 0 11.953-10.64c.605-.538 1.526-.596 2.122 0 .548.549.607 1.581 0 2.122L2.121 2.121c-.605.539-1.525.597-2.121 0C-.548 1.573-.608.541 0 0" clip-path="url(#ai)" style="fill:#000;fill-opacity:1;fill-rule:nonzero;stroke:none" transform="matrix(1.33333 0 0 -1.33333 657.29 439.864)"/><path d="m0 0 21.183-20.124c1.4-1.33 3.525.788 2.122 2.121L2.121 2.121C.722 3.451-1.403 1.333 0 0" clip-path="url(#aj)" style="fill:#000;fill-opacity:1;fill-rule:nonzero;stroke:none" transform="matrix(1.33333 0 0 -1.33333 675.06 371.999)"/><path d="m0 0 21.077-28.372c1.138-1.533 3.743-.039 2.59 1.514L2.59 1.514C1.452 3.047-1.153 1.552 0 0" clip-path="url(#ak)" style="fill:#000;fill-opacity:1;fill-rule:nonzero;stroke:none" transform="matrix(1.33333 0 0 -1.33333 699.468 315.828)"/><path d="m0 0 45.687-29.504c1.627-1.051 3.132 1.545 1.514 2.59L1.514 2.59C-.112 3.641-1.618 1.045 0 0" clip-path="url(#al)" style="fill:#000;fill-opacity:1;fill-rule:nonzero;stroke:none" transform="matrix(1.33333 0 0 -1.33333 588.113 460.424)"/><path d="m0 0 26.756-11.008c1.784-.733 2.561 2.168.797 2.893L.798 2.893C-.986 3.627-1.764.726 0 0" clip-path="url(#am)" style="fill:#000;fill-opacity:1;fill-rule:nonzero;stroke:none" transform="matrix(1.33333 0 0 -1.33333 519.293 661.602)"/><path d="m0 0 31.049-24.104c1.507-1.169 3.645.939 2.121 2.122L2.121 2.121C.614 3.291-1.524 1.183 0 0" clip-path="url(#an)" style="fill:#000;fill-opacity:1;fill-rule:nonzero;stroke:none" transform="matrix(1.33333 0 0 -1.33333 533.797 602.371)"/><path d="M0 0c-2.961-1.967-5.97-4.031-7.985-7.025-1.719-2.554-2.388-5.855-1.503-8.84.902-3.037 3.454-5.249 6.672-5.363 3.25-.116 6.344 1.869 8.159 4.46 2.432 3.471 2.649 8.012 2.824 12.095.082 1.931-2.918 1.927-3 0-.213-4.979-.74-12.292-6.848-13.475-2.122-.411-4.094.729-4.811 2.763-.75 2.129-.362 4.47.794 6.373 1.696 2.79 4.55 4.653 7.212 6.422C3.115-1.527 1.614 1.072 0 0" clip-path="url(#ao)" style="fill:#000;fill-opacity:1;fill-rule:nonzero;stroke:none" transform="matrix(1.33333 0 0 -1.33333 609.862 659.423)"/><path d="M0 0c-4.121-4.294-9.094-10.187-6.691-16.611.954-2.55 3.184-4.738 5.911-5.269 2.943-.574 5.607.859 7.31 3.217 2.165 2.995 2.123 6.858 1.981 10.387-.077 1.924-3.078 1.933-3 0 .12-2.974.34-6.41-1.595-8.907-1.66-2.143-4.404-2.401-6.387-.523-2.205 2.088-2.1 5.349-1.07 7.998 1.155 2.971 3.496 5.329 5.662 7.587C3.458-.728 1.34 1.396 0 0" clip-path="url(#ap)" style="fill:#000;fill-opacity:1;fill-rule:nonzero;stroke:none" transform="matrix(1.33333 0 0 -1.33333 782.255 382.432)"/><path d="M0 0c-3.112-3.047-6.831-7.206-5.178-11.924.687-1.961 2.116-3.742 4.163-4.361 2.286-.692 4.578.457 5.951 2.278 1.765 2.341 1.73 5.342 1.557 8.132-.05.809-.653 1.5-1.5 1.5-.773 0-1.55-.687-1.5-1.5.113-1.82.337-3.92-.507-5.613-.308-.616-.736-1.212-1.32-1.586a2.5 2.5 0 0 0-.876-.374 1.4 1.4 0 0 0-.325-.039c-.083-.001-.499.038-.359.013-1.126.204-2.04 1.272-2.42 2.434-.473 1.443-.255 2.759.497 4.179.971 1.835 2.47 3.302 3.938 4.74C3.503-.768 1.381 1.352 0 0" clip-path="url(#aq)" style="fill:#000;fill-opacity:1;fill-rule:nonzero;stroke:none" transform="matrix(1.33333 0 0 -1.33333 852.696 504.423)"/><path d="M0 0c-4.516-3.435-9.768-7.995-8.495-14.359.508-2.54 2.446-4.746 4.887-5.588 2.61-.9 5.437.271 7.15 2.313 2.205 2.629 2.551 6.033 2.78 9.329.134 1.926-2.866 1.918-3 0-.187-2.688-.364-5.788-2.43-7.778-1.704-1.641-4.052-1.449-5.524.391-1.588 1.984-1.179 4.736-.048 6.835C-3.266-6.231-.815-4.362 1.514-2.59c.644.489.982 1.293.538 2.052C1.682.096.649.493 0 0" clip-path="url(#ar)" style="fill:#000;fill-opacity:1;fill-rule:nonzero;stroke:none" transform="matrix(1.33333 0 0 -1.33333 726.948 565.85)"/><path d="M0 0a8.21 8.21 0 0 1-6.343-4.24c-1.28-2.342-1.374-5.204.033-7.515 1.344-2.207 3.709-3.657 6.264-3.933 2.582-.279 4.989.955 6.529 2.987 1.748 2.305 2.123 5.342.969 7.983-.325.742-1.412.913-2.053.538-.766-.448-.864-1.307-.538-2.052-.076.173.022-.071.028-.088a5 5 0 0 0 .235-.924c-.028.181.018-.285.021-.389a6 6 0 0 0-.03-.794c.024.227-.065-.34-.076-.388a7 7 0 0 0-.277-.919c-.007-.018-.114-.259-.036-.086a7 7 0 0 0-.336-.639c-.395-.666-.94-1.25-1.541-1.628-.671-.423-1.342-.628-2.079-.642-1.58-.03-3.122.712-4.2 2.056a7.4 7.4 0 0 0-.564.935c-.117.241.056-.156-.045.093q-.059.152-.109.31a5 5 0 0 0-.178.721c.014-.089-.027.328-.029.449q-.01.339.025.676c-.019-.185.014.088.016.103a6.5 6.5 0 0 0 .32 1.141c.097.248.441.865.695 1.214a6.7 6.7 0 0 0 .979 1.012c.143.118.219.169.453.316.215.135.438.261.669.367.16.073.325.129.592.204q.164.045.33.082c.04.008.47.071.276.05.805.087 1.5.627 1.5 1.5C1.5-.756.811.087 0 0" clip-path="url(#as)" style="fill:#000;fill-opacity:1;fill-rule:nonzero;stroke:none" transform="matrix(1.33333 0 0 -1.33333 935.51 709.946)"/><path d="M0 0c-3.071-3.05-5.515-8.444-2.815-12.485 2.672-3.999 8.863-4.121 11.516-.046 1.389 2.132 1.496 4.96.301 7.193-.382.714-1.372.936-2.052.538-.722-.422-.922-1.335-.538-2.052.599-1.119.554-2.608-.056-3.749-.347-.651-.752-1.108-1.302-1.443a3.9 3.9 0 0 0-1.765-.529c-1.337-.049-2.724.475-3.464 1.531-.872 1.243-.943 2.642-.578 4.085.467 1.846 1.516 3.486 2.874 4.836C3.493-.759 1.372 1.363 0 0" clip-path="url(#at)" style="fill:#000;fill-opacity:1;fill-rule:nonzero;stroke:none" transform="matrix(1.33333 0 0 -1.33333 826.559 634.321)"/><path d="M0 0c-3.706-3.413-7.924-7.795-6.688-13.296.477-2.121 1.813-4.256 3.778-5.284 2.383-1.247 5.07-.675 7.083 1.004C6.707-15.463 7.449-12.124 8-9.031c.142.797-.216 1.617-1.047 1.845-.726.199-1.703-.246-1.846-1.047-.462-2.594-.931-5.857-3.341-7.42-1.772-1.149-3.673-.556-4.761 1.182-2.978 4.756 1.867 9.357 5.116 12.35C3.545-.811 1.419 1.307 0 0" clip-path="url(#au)" style="fill:#000;fill-opacity:1;fill-rule:nonzero;stroke:none" transform="matrix(1.33333 0 0 -1.33333 725.487 716.776)"/><path d="M0 0c-2.963-2.613-6.063-5.921-5.033-10.21.437-1.821 1.65-3.386 3.421-4.054 2.051-.774 4.357.108 5.876 1.55 1.827 1.735 2.478 4.28 3.008 6.653.177.79-.239 1.623-1.047 1.845-.753.207-1.668-.254-1.845-1.048-.359-1.605-.705-3.272-1.645-4.653a4.2 4.2 0 0 0-1.46-1.293c-.504-.272-1.126-.403-1.568-.317-.099.019-.469.134-.409.109.087-.035-.206.113-.268.149a2 2 0 0 0-.179.115c.024-.017.154-.13.024-.018-.126.109-.238.229-.354.347-.03.03-.173.219-.034.031a2 2 0 0 0-.122.179q-.113.186-.219.377a3 3 0 0 0-.097.198c.013-.029.069-.18.009-.017a6 6 0 0 0-.161.499 4.2 4.2 0 0 0-.115 1.657c-.013-.091.051.246.068.319q.056.227.13.45c.116.349.273.673.468 1.015.901 1.58 2.318 2.801 3.673 3.996.608.536.548 1.573 0 2.121C1.518.604.609.537 0 0" clip-path="url(#av)" style="fill:#000;fill-opacity:1;fill-rule:nonzero;stroke:none" transform="matrix(1.33333 0 0 -1.33333 696.98 474.346)"/><path d="m0 0 7.175-.075 19.352-.204 28.804-.302 34.902-.367 38.487-.404 38.587-.406 36.225-.38 30.407-.32 22.015-.231c3.452-.036 6.911-.144 10.362-.109.151.002.303-.003.453-.005 1.932-.02 1.933 2.98 0 3l-7.174.076-19.352.203-28.804.303-34.902.366-38.488.405-38.587.405-36.224.381-30.407.319-22.016.231c-3.451.037-6.91.144-10.362.109Q.227 2.995 0 3c-1.931.02-1.932-2.98 0-3" clip-path="url(#aw)" style="fill:#000;fill-opacity:1;fill-rule:nonzero;stroke:none" transform="matrix(1.33333 0 0 -1.33333 565.305 768.213)"/><path d="M0 0c-1.3 11.051-8.919 21.193-6.515 32.68C-4.16 43.938 4.643 54.002 15.901 56.358s24.133-4.231 27.51-15.225c4.382-14.263-6.907-28.923-5.963-43.814.64-10.093 6.875-19.321 6.818-29.434-.067-11.862-9.957-22.723-21.698-24.414C10.83-58.22-1.458-50.962-6.147-40.069c-5.427 12.611 4.002 21.382 6.013 33.16C.267-4.555.266-2.259 0 0" clip-path="url(#ax)" style="fill:#fffbe9;fill-opacity:1;fill-rule:nonzero;stroke:none" transform="matrix(1.33333 0 0 -1.33333 820.756 521.176)"/><path d="M0 0c-1.223 9.814-7.26 18.761-6.97 28.785.254 8.793 5.768 17.607 13.003 22.41 7.123 4.729 16.045 5.463 23.723 1.574 3.648-1.847 6.858-4.594 8.961-8.127 2.343-3.934 2.973-8.523 2.603-13.033-.798-9.733-5.489-18.687-6.667-28.373-.62-5.101.087-10.067 1.541-14.97 1.463-4.93 3.466-9.709 4.491-14.763.919-4.53.737-9.075-.97-13.396-1.578-3.994-4.324-7.531-7.666-10.207-6.888-5.517-16.101-6.577-24.184-3.151-7.952 3.37-15.271 11.172-15.656 20.163-.381 8.908 5.775 16.531 7.466 25.04C.205-5.382.296-2.699 0 0c-.208 1.898-3.21 1.92-3 0 .593-5.413-.77-10.344-2.803-15.309-1.74-4.249-3.834-8.444-4.632-13.004-1.707-9.772 3.646-18.995 11.479-24.547 7.721-5.47 17.894-7.08 26.676-3.301 8.344 3.59 14.95 11.616 16.271 20.679 1.613 11.07-5.151 20.654-6.411 31.335-1.245 10.558 3.93 20.444 5.982 30.556.999 4.925 1.303 10.062-.148 14.933-1.269 4.261-3.903 8.052-7.336 10.859-6.952 5.685-16.629 7.715-25.174 4.743-8.93-3.106-15.8-10.612-19.064-19.374-1.81-4.859-2.213-9.876-1.268-14.971.967-5.209 3.081-10.105 4.67-15.136C-3.989 5.028-3.316 2.539-3 0c.236-1.891 3.238-1.914 3 0" clip-path="url(#ay)" style="fill:#000;fill-opacity:1;fill-rule:nonzero;stroke:none" transform="matrix(1.33333 0 0 -1.33333 822.756 521.176)"/><path d="M0 0c-.206 4.483-2.28 8.496-1.393 13.215.87 4.626 3.612 8.867 6.951 10.006s7.011-1.341 7.827-5.768c1.059-5.744-2.484-11.898-2.444-17.952.028-4.103 1.71-7.765 1.533-11.887-.208-4.836-3.281-9.419-6.751-10.295s-6.959 1.888-8.162 6.253C-3.83-11.374-.926-7.65-.149-2.818.006-1.852.042-.916 0 0" clip-path="url(#az)" style="fill:#000;fill-opacity:1;fill-rule:nonzero;stroke:none" transform="matrix(1.33333 0 0 -1.33333 846.46 526.28)"/><path d="M0 0c-.211 3.563-1.551 6.978-1.61 10.546-.054 3.282 1.209 6.893 3.438 9.33 1.673 1.828 4.094 2.919 6.3 1.273 2.558-1.907 2.7-5.52 2.268-8.398-.533-3.55-1.786-6.948-2.258-10.512-.504-3.807.446-7.301 1.077-11.022.581-3.43.172-6.9-1.897-9.784-1.496-2.085-3.996-3.617-6.473-2.191-3.144 1.809-4.128 5.995-3.398 9.325C-1.699-7.54.128-4.09 0 0c-.06 1.926-3.06 1.934-3 0 .132-4.233-2.12-7.856-2.676-11.966-.504-3.73.718-7.914 3.653-10.408 2.526-2.147 5.98-2.623 8.829-.783 3.138 2.027 5.03 5.742 5.531 9.37.608 4.401-1.234 8.49-1.386 12.834-.152 4.351 1.614 8.461 2.305 12.699.612 3.754.453 7.85-2.238 10.809-2.167 2.382-5.528 3.085-8.423 1.669-3.656-1.788-5.867-6.023-6.767-9.821C-5.353 9.416-3.291 4.92-3 0c.114-1.919 3.114-1.932 3 0" clip-path="url(#aA)" style="fill:#000;fill-opacity:1;fill-rule:nonzero;stroke:none" transform="matrix(1.33333 0 0 -1.33333 848.46 526.28)"/><path d="M0 0c-1.3 11.051-8.919 21.193-6.515 32.68C-4.16 43.938 4.643 54.002 15.901 56.358s24.133-4.231 27.51-15.225c4.382-14.263-6.907-28.923-5.963-43.814.639-10.093 6.875-19.321 6.818-29.434-.067-11.862-9.957-22.723-21.698-24.414C10.83-58.22-1.459-50.962-6.147-40.069c-5.427 12.611 4.002 21.382 6.013 33.16C.267-4.555.266-2.259 0 0" clip-path="url(#aB)" style="fill:#fffbe9;fill-opacity:1;fill-rule:nonzero;stroke:none" transform="matrix(1.33333 0 0 -1.33333 756.823 516.988)"/><path d="M0 0c-1.223 9.814-7.26 18.761-6.97 28.785.254 8.793 5.768 17.607 13.003 22.411 7.123 4.728 16.045 5.462 23.723 1.573 3.648-1.847 6.858-4.594 8.961-8.127 2.343-3.934 2.973-8.523 2.603-13.032-.798-9.734-5.489-18.688-6.667-28.374-.62-5.101.087-10.067 1.541-14.97 1.463-4.93 3.466-9.709 4.491-14.763.919-4.53.737-9.075-.97-13.396-1.578-3.994-4.324-7.531-7.666-10.207-6.888-5.517-16.101-6.577-24.184-3.151-7.952 3.37-15.271 11.172-15.656 20.163-.381 8.908 5.775 16.531 7.466 25.04C.205-5.382.296-2.699 0 0c-.208 1.898-3.21 1.92-3 0 .593-5.413-.77-10.344-2.803-15.309-1.74-4.249-3.834-8.443-4.632-13.004-1.707-9.772 3.646-18.995 11.479-24.547 7.721-5.47 17.894-7.08 26.676-3.301 8.344 3.59 14.95 11.616 16.271 20.679 1.613 11.07-5.151 20.654-6.411 31.335-1.245 10.558 3.93 20.444 5.982 30.556.999 4.925 1.303 10.062-.148 14.933-1.269 4.261-3.903 8.052-7.336 10.859-6.952 5.685-16.629 7.715-25.174 4.743-8.93-3.106-15.8-10.612-19.064-19.374-1.81-4.859-2.213-9.876-1.268-14.971.967-5.209 3.081-10.105 4.67-15.136C-3.989 5.028-3.316 2.539-3 0c.236-1.891 3.238-1.914 3 0" clip-path="url(#aC)" style="fill:#000;fill-opacity:1;fill-rule:nonzero;stroke:none" transform="matrix(1.33333 0 0 -1.33333 758.823 516.988)"/><path d="M0 0c-.206 4.483-2.28 8.496-1.393 13.215.87 4.626 3.612 8.867 6.951 10.006s7.011-1.341 7.827-5.768c1.059-5.744-2.484-11.898-2.444-17.952.028-4.103 1.71-7.765 1.533-11.887-.208-4.836-3.281-9.419-6.751-10.295s-6.959 1.888-8.162 6.253C-3.83-11.374-.926-7.65-.149-2.818.006-1.852.042-.916 0 0" clip-path="url(#aD)" style="fill:#000;fill-opacity:1;fill-rule:nonzero;stroke:none" transform="matrix(1.33333 0 0 -1.33333 782.527 522.092)"/><path d="M0 0c-.211 3.563-1.551 6.978-1.61 10.546-.054 3.282 1.209 6.893 3.438 9.33 1.673 1.828 4.094 2.919 6.3 1.273 2.558-1.907 2.7-5.52 2.268-8.398-.533-3.55-1.786-6.948-2.258-10.512-.504-3.807.446-7.301 1.077-11.022.581-3.43.172-6.9-1.897-9.784-1.496-2.085-3.996-3.617-6.473-2.191-3.144 1.809-4.128 5.995-3.398 9.325C-1.699-7.54.128-4.09 0 0c-.06 1.926-3.06 1.934-3 0 .132-4.233-2.12-7.856-2.676-11.966-.504-3.731.718-7.914 3.653-10.408 2.526-2.147 5.98-2.623 8.829-.784 3.138 2.028 5.03 5.743 5.531 9.371.608 4.401-1.234 8.49-1.386 12.834-.152 4.351 1.615 8.461 2.305 12.699.612 3.754.453 7.85-2.238 10.809-2.166 2.382-5.528 3.085-8.423 1.669-3.656-1.788-5.867-6.023-6.767-9.821C-5.353 9.416-3.291 4.92-3 0c.114-1.919 3.114-1.932 3 0" clip-path="url(#aE)" style="fill:#000;fill-opacity:1;fill-rule:nonzero;stroke:none" transform="matrix(1.33333 0 0 -1.33333 784.527 522.092)"/><path d="M0 0c-5.495-9.571-10.263-19.796-11.727-30.734s.729-22.75 7.86-31.172c7.13-8.423 19.699-12.538 29.799-8.09C12.851-56.869 6.395-37.447 9.013-19.101z" clip-path="url(#aF)" style="fill:#000;fill-opacity:1;fill-rule:nonzero;stroke:none" transform="matrix(1.33333 0 0 -1.33333 802.308 606.565)"/><path d="M0 0c-1.957 3.982-3.889 7.94-2.844 12.577.996 4.418 3.227 8.537 3.747 13.036s-1.465 9.868-5.862 10.952c-3.357.828-6.847-1.113-10.281-.696-5.2.632-8.148 6.032-13.169 7.068C-47.971 46.97-44.693 9.655-42.724.153c1.596-7.701 5.108-15.187 10.947-20.457 5.838-5.269 14.185-8.038 21.814-6.13 7.08 1.771 12.714 8.004 13.175 15.382C3.464-7.029 1.722-3.505 0 0" clip-path="url(#aG)" style="fill:#f05924;fill-opacity:1;fill-rule:nonzero;stroke:none" transform="matrix(1.33333 0 0 -1.33333 853.133 663.095)"/><path d="M0 0c-.998 2.033-2.011 4.078-2.559 6.287-.58 2.338-.359 4.539.307 6.831 1.247 4.294 3.396 8.484 3.44 13.043.033 3.426-1.158 7.242-3.888 9.471-1.501 1.226-3.306 1.851-5.243 1.883-2.405.04-4.7-.842-7.087-.949-3.888-.175-6.612 2.785-9.565 4.853-2.498 1.75-5.389 2.695-8.452 2.552-4.416-.206-7.893-2.853-10.005-6.632-2.388-4.274-3.245-9.305-3.685-14.12-.462-5.066-.363-10.188.065-15.253.392-4.633 1.028-9.262 2.447-13.704 2.604-8.153 7.611-15.788 15.194-20.067 7.049-3.978 16.224-4.986 23.362-.659C1.127-22.345 5.075-14.089 2.695-6.3 2.026-4.113 1.005-2.047 0 0c-.851 1.733-3.439.214-2.59-1.514C-.73-5.302 1.06-9.2.195-13.517c-.674-3.362-2.479-6.352-5.029-8.628-5.731-5.114-14.234-5.12-20.927-1.976-11.908 5.595-16.623 18.753-17.797 30.838-.442 4.544-.605 9.13-.376 13.692.227 4.514.797 9.165 2.498 13.386 1.314 3.261 3.523 6.206 6.978 6.989 2.067.469 4.577.183 6.502-.815 2.945-1.526 5.182-4.127 8.232-5.48a10.5 10.5 0 0 1 5.341-.877c2.152.206 4.268.945 6.44.903 3.545-.068 5.485-3.251 5.999-6.436.634-3.925-1.058-7.819-2.319-11.447-.718-2.065-1.418-4.168-1.619-6.357-.184-2.012.156-4.072.776-5.986.65-2.007 1.588-3.913 2.516-5.803C-1.74-3.247.849-1.728 0 0" clip-path="url(#aH)" style="fill:#000;fill-opacity:1;fill-rule:nonzero;stroke:none" transform="matrix(1.33333 0 0 -1.33333 854.86 662.085)"/><path d="M0 0c-.825 1.679-1.64 3.348-1.199 5.303.42 1.863 1.36 3.6 1.58 5.497s-.618 4.161-2.472 4.618c-1.416.349-2.887-.469-4.335-.294-2.193.267-3.436 2.544-5.553 2.981-8.249 1.701-6.866-14.034-6.036-18.041.673-3.247 2.154-6.403 4.616-8.625s5.981-3.39 9.198-2.585c2.985.747 5.361 3.375 5.556 6.486C1.461-2.964.726-1.478 0 0" clip-path="url(#aI)" style="fill:#000;fill-opacity:1;fill-rule:nonzero;stroke:none" transform="matrix(1.33333 0 0 -1.33333 837.368 656.865)"/><path d="M0 0c-.433.884-.922 1.813-1.07 2.799-.17 1.125.232 2.203.594 3.249.615 1.78 1.273 3.578 1.025 5.49-.204 1.571-.946 3.186-2.336 4.049-1.705 1.058-3.319.408-5.143.27-1.706-.129-2.86 1.414-4.207 2.215a6.43 6.43 0 0 1-3.83.877c-2.093-.185-3.754-1.486-4.738-3.303-2.089-3.858-1.955-8.915-1.552-13.156.562-5.928 2.844-12.287 8.63-14.967 3.746-1.734 8.249-1.629 11.405 1.248 1.389 1.266 2.373 3.022 2.67 4.88C1.818-4.038.999-2.038 0 0c-.85 1.733-3.438.215-2.59-1.514.709-1.447 1.403-2.913 1.051-4.56-.285-1.333-1.094-2.532-2.178-3.351-2.543-1.922-6.071-1.39-8.627.203-4.195 2.613-5.592 7.784-5.96 12.235-.282 3.417-.464 7.438.953 10.652.498 1.128 1.3 2.108 2.384 2.284 2.475.401 4-2.217 6.184-2.882.874-.266 1.755-.245 2.649-.112.729.109 1.609.451 2.349.26 1.47-.38 1.517-2.464 1.276-3.638-.382-1.865-1.37-3.566-1.565-5.477-.207-2.021.617-3.843 1.484-5.614C-1.742-3.248.847-1.729 0 0" clip-path="url(#aJ)" style="fill:#000;fill-opacity:1;fill-rule:nonzero;stroke:none" transform="matrix(1.33333 0 0 -1.33333 839.095 655.855)"/><path d="M0 0c-13.138-3.638-27.833.684-36.96 10.793-1.297 1.436-3.413-.691-2.121-2.121C-29.258-2.208-13.318-6.801.798-2.893 2.656-2.378 1.867.517 0 0" clip-path="url(#aK)" style="fill:#000;fill-opacity:1;fill-rule:nonzero;stroke:none" transform="matrix(1.33333 0 0 -1.33333 841.473 712.679)"/><path d="M0 0a41.6 41.6 0 0 0 17.779 16.297c8.311 3.98 17.955 4.916 26.909 2.84 1.879-.436 2.681 2.456.798 2.893-14.585 3.382-30.123-.845-40.859-11.308A44.6 44.6 0 0 1-2.59 1.514C-3.576-.151-.984-1.662 0 0" clip-path="url(#aL)" style="fill:#000;fill-opacity:1;fill-rule:nonzero;stroke:none" transform="matrix(1.33333 0 0 -1.33333 739.827 444.792)"/><path d="M0 0c7.111 9.647 19.88 14.733 31.675 12.642 1.888-.335 2.699 2.556.798 2.893C19.234 17.881 5.384 12.332-2.59 1.514-3.737-.041-1.135-1.539 0 0" clip-path="url(#aM)" style="fill:#000;fill-opacity:1;fill-rule:nonzero;stroke:none" transform="matrix(1.33333 0 0 -1.33333 809.368 447.289)"/><path d="M0 0c-3.245-11.615-3.635-23.87-1.189-35.676.392-1.889 3.284-1.09 2.893.798C-.633-23.601-.205-11.886 2.893-.797 3.413 1.065.52 1.86 0 0" clip-path="url(#aN)" style="fill:#000;fill-opacity:1;fill-rule:nonzero;stroke:none" transform="matrix(1.33333 0 0 -1.33333 772.13 601.918)"/><path d="M0 0a8.21 8.21 0 0 1-6.343-4.24c-1.28-2.342-1.374-5.204.033-7.515 1.344-2.207 3.709-3.657 6.264-3.933 2.582-.279 4.989.955 6.529 2.987 1.748 2.305 2.123 5.342.969 7.983-.325.742-1.412.913-2.053.538-.766-.448-.864-1.307-.538-2.052-.076.173.022-.071.028-.088q.052-.151.097-.304c.057-.203.106-.411.138-.62-.028.181.018-.285.021-.389a6 6 0 0 0-.03-.793c.024.226-.065-.341-.076-.389a7 7 0 0 0-.277-.919c-.007-.018-.114-.259-.036-.086a7 7 0 0 0-.336-.639c-.395-.666-.94-1.25-1.541-1.628-.671-.423-1.342-.628-2.079-.642-1.58-.03-3.122.712-4.2 2.056a7.4 7.4 0 0 0-.564.935c-.117.241.056-.156-.045.093q-.059.152-.109.31a5 5 0 0 0-.178.721c.014-.088-.027.328-.029.449q-.01.339.025.676c-.02-.185.014.088.016.103a6.5 6.5 0 0 0 .319 1.141c.098.248.442.865.696 1.214a6.7 6.7 0 0 0 .979 1.012c.143.118.219.169.453.316.215.135.438.261.669.367.159.073.325.129.592.204q.164.045.33.082c.04.008.47.071.276.05.805.087 1.5.628 1.5 1.5C1.5-.756.811.087 0 0" clip-path="url(#aO)" style="fill:#000;fill-opacity:1;fill-rule:nonzero;stroke:none" transform="matrix(1.33333 0 0 -1.33333 904.191 618.206)"/></svg>