<svg xmlns="http://www.w3.org/2000/svg" width="1440" height="1440" viewBox="0 0 1440 1440"><defs><clipPath id="a" clipPathUnits="userSpaceOnUse"><path d="M-347.745 822.593h1080v-1080h-1080Z"/></clipPath><clipPath id="b" clipPathUnits="userSpaceOnUse"><path d="M-711.51 808.615h1080v-1080h-1080Z"/></clipPath><clipPath id="c" clipPathUnits="userSpaceOnUse"><path d="M-710.753 807.32h1080v-1080h-1080Z"/></clipPath><clipPath id="d" clipPathUnits="userSpaceOnUse"><path d="M-412.104 508.769h1080v-1080h-1080Z"/></clipPath><clipPath id="e" clipPathUnits="userSpaceOnUse"><path d="M-410.677 508.769h1080v-1080h-1080Z"/></clipPath><clipPath id="f" clipPathUnits="userSpaceOnUse"><path d="M-779.104 508.769h1080v-1080h-1080Z"/></clipPath><clipPath id="g" clipPathUnits="userSpaceOnUse"><path d="M-777.677 508.769h1080v-1080h-1080Z"/></clipPath><clipPath id="h" clipPathUnits="userSpaceOnUse"><path d="M-422.018 779.316h1080v-1080h-1080Z"/></clipPath><clipPath id="i" clipPathUnits="userSpaceOnUse"><path d="M-472.664 779.316h1080v-1080h-1080Z"/></clipPath><clipPath id="j" clipPathUnits="userSpaceOnUse"><path d="M-559.762 779.316h1080v-1080h-1080Z"/></clipPath><clipPath id="k" clipPathUnits="userSpaceOnUse"><path d="M-614.127 779.316h1080v-1080h-1080Z"/></clipPath><clipPath id="l" clipPathUnits="userSpaceOnUse"><path d="M-664.886 779.316h1080v-1080h-1080Z"/></clipPath><clipPath id="m" clipPathUnits="userSpaceOnUse"><path d="M-689.495 524.894h1080v-1080h-1080Z"/></clipPath><clipPath id="n" clipPathUnits="userSpaceOnUse"><path d="M-702.62 495.927h1080v-1080h-1080Z"/></clipPath><clipPath id="o" clipPathUnits="userSpaceOnUse"><path d="M-729.545 495.927h1080v-1080h-1080Z"/></clipPath><clipPath id="p" clipPathUnits="userSpaceOnUse"><path d="M-767.943 524.894h1080v-1080h-1080Z"/></clipPath><clipPath id="q" clipPathUnits="userSpaceOnUse"><path d="M-340.008 522.639h1080v-1080h-1080Z"/></clipPath><clipPath id="r" clipPathUnits="userSpaceOnUse"><path d="M-354.264 522.639h1080v-1080h-1080Z"/></clipPath><clipPath id="s" clipPathUnits="userSpaceOnUse"><path d="M-377.918 522.639h1080v-1080h-1080Z"/></clipPath><clipPath id="t" clipPathUnits="userSpaceOnUse"><path d="M-392.27 522.445h1080v-1080h-1080Z"/></clipPath><clipPath id="u" clipPathUnits="userSpaceOnUse"><path d="M-618.875 419.99h1080v-1080h-1080Z"/></clipPath><clipPath id="v" clipPathUnits="userSpaceOnUse"><path d="M-617.545 420.768h1080v-1080h-1080Z"/></clipPath><clipPath id="w" clipPathUnits="userSpaceOnUse"><path d="M-638.915 263.22h1080v-1080h-1080Z"/></clipPath><clipPath id="x" clipPathUnits="userSpaceOnUse"><path d="M-637.43 262.811h1080v-1080h-1080Z"/></clipPath><clipPath id="y" clipPathUnits="userSpaceOnUse"><path d="M-592.323 265.524h1080v-1080h-1080Z"/></clipPath><clipPath id="z" clipPathUnits="userSpaceOnUse"><path d="M-591.914 264.04h1080v-1080h-1080Z"/></clipPath><clipPath id="A" clipPathUnits="userSpaceOnUse"><path d="M-552.716 438.989h1080v-1080h-1080Z"/></clipPath><clipPath id="B" clipPathUnits="userSpaceOnUse"><path d="M-553.587 438.507h1080v-1080h-1080Z"/></clipPath><clipPath id="C" clipPathUnits="userSpaceOnUse"><path d="M-534.09 408.293h1080v-1080h-1080Z"/></clipPath><clipPath id="D" clipPathUnits="userSpaceOnUse"><path d="M-532.55 408.293h1080v-1080h-1080Z"/></clipPath><clipPath id="E" clipPathUnits="userSpaceOnUse"><path d="M-42.608-2.051C-41.498-19.584-24.335-32.769-4.27-31.5c20.063 1.27 35.43 16.512 34.32 34.045z"/></clipPath><clipPath id="F" clipPathUnits="userSpaceOnUse"><path d="M-587.037 404.944h1080v-1080h-1080Z"/></clipPath><clipPath id="G" clipPathUnits="userSpaceOnUse"><path d="M-585.497 404.944h1080v-1080h-1080Z"/></clipPath><clipPath id="H" clipPathUnits="userSpaceOnUse"><path d="M-42.608-2.052C-41.498-19.584-24.335-32.77-4.27-31.5S31.16-14.988 30.05 2.545z"/></clipPath><clipPath id="I" clipPathUnits="userSpaceOnUse"><path d="M-456.691 413.487h1080v-1080h-1080Z"/></clipPath><clipPath id="J" clipPathUnits="userSpaceOnUse"><path d="M-577.15 490.97h1080v-1080h-1080Z"/></clipPath><clipPath id="K" clipPathUnits="userSpaceOnUse"><path d="M-577.56 492.454h1080v-1080h-1080Z"/></clipPath><clipPath id="L" clipPathUnits="userSpaceOnUse"><path d="M-513.56 472.211h1080v-1080h-1080Z"/></clipPath><clipPath id="M" clipPathUnits="userSpaceOnUse"><path d="M-517.737 479.899h1080v-1080h-1080Z"/></clipPath><clipPath id="N" clipPathUnits="userSpaceOnUse"><path d="M-569.435 481.324h1080v-1080h-1080Z"/></clipPath><clipPath id="O" clipPathUnits="userSpaceOnUse"><path d="M-531.753 495.52h1080v-1080h-1080Z"/></clipPath><clipPath id="P" clipPathUnits="userSpaceOnUse"><path d="M-462.925 411.603h1080v-1080h-1080Z"/></clipPath><clipPath id="Q" clipPathUnits="userSpaceOnUse"><path d="M-516.705 407.341h1080v-1080h-1080Z"/></clipPath></defs><path d="M0 0h1080v1080H0Z" style="fill:#fff;fill-opacity:1;fill-rule:nonzero;stroke:none" transform="matrix(1.33333 0 0 -1.33333 0 1440)"/><path d="M0 0v565.187l194.089 100.697 194.089-100.697V0L194.089-100.698Z" style="fill:#ff9f00;fill-opacity:1;fill-rule:nonzero;stroke:none" transform="matrix(1.33333 0 0 -1.33333 461.776 1096.79)"/><path d="M0 0v561.417c0 .389.334 3.494 0 3.727.99-.693-1.902-1.472.414-.6 1.5.565 2.946 1.529 4.37 2.267l105.799 54.891 56.939 29.541 18.54 9.619c.625.324 7.291 3.092 7.315 3.795.003.092-1.338.223-1.335-.034 0-.04.212-.083.234-.122.148-.261 1.045-.542 1.308-.679l4.886-2.535 17.935-9.304 56.345-29.234 107.058-55.543 4.622-2.399c.281-.145.924-.65 1.244-.645 1.157.021-1.128.354-.322 1.019-.335-.276 0-2.939 0-3.355V3.494c0-.341-.305-3.26 0-3.472.231-.161.874 1.052.671 1.184-.033.021-.184-.126-.225-.117-.221.045-.887-.478-1.102-.572-1.581-.694-3.098-1.607-4.63-2.402l-17.523-9.092-56.608-29.369-107.196-55.616-5.014-2.602c-.351-.182-.955-.36-1.236-.641-1.275-1.276.934 2.132.897-.271.009.598-6.528 3.387-7.046 3.655l-44.078 22.869L22.348-10.738-.7 1.22c-1.612.837-3.043-1.601-1.426-2.44L64.11-35.585l104.805-54.376 15.72-8.156c2.218-1.15 4.715-2.993 7.127-3.697 1.643-.48 2.866.538 4.354 1.31l11.903 6.176 99.678 51.715c26.134 13.559 52.471 26.79 78.425 40.689.449.241.904.469 1.356.704.436.226.7.742.7 1.22v542.144c0 7.325.382 14.766 0 22.084-.016.318 0 .64 0 .959 0 .478-.264.994-.7 1.22l-66.236 34.365-104.804 54.374-15.721 8.156c-2.217 1.151-4.714 2.994-7.127 3.698-1.643.479-2.866-.539-4.354-1.311l-11.903-6.175-99.678-51.715C51.521 594.24 25.184 581.01-.771 567.11c-.448-.24-.904-.469-1.355-.703-.436-.226-.7-.742-.7-1.22V23.043c0-7.325-.382-14.767 0-22.085.016-.317 0-.64 0-.958C-2.826-1.819 0-1.822 0 0" clip-path="url(#a)" style="fill:#000;fill-opacity:1;fill-rule:nonzero;stroke:none" transform="matrix(1.33333 0 0 -1.33333 463.66 1096.79)"/><path d="m0 0-171.089-88.765L-342.178 0v537.229l171.089 88.765L0 537.229Z" clip-path="url(#b)" style="fill:#73cae5;fill-opacity:1;fill-rule:nonzero;stroke:none" transform="matrix(1.33333 0 0 -1.33333 948.68 1078.153)"/><path d="m0 0-57.8-29.988-92.134-47.801-21.155-10.976h1.514l-57.8 29.988-92.134 47.801L-340.664 0l.743-1.295V527.83c0 2.293.362 4.925 0 7.196-.046.287 0 .615 0 .908l-.743-1.295 57.8 29.988 92.134 47.801 21.155 10.976h-1.514l57.8-29.988 92.134-47.801L0 534.639l-.743 1.295V20.554c0-6.957-.296-13.988 0-20.941.013-.301 0-.606 0-.908 0-1.931 3-1.934 3 0v515.38c0 6.944.373 14.004 0 20.941-.016.301 0 .607 0 .908 0 .508-.281 1.056-.743 1.295l-58.404 30.302-92.392 47.935-13.915 7.219c-1.951 1.012-4.075 2.548-6.18 3.207-1.584.495-2.631-.374-4.052-1.112l-10.51-5.452-88.144-45.731c-22.967-11.916-46.196-23.436-68.943-35.77-.38-.206-.768-.398-1.152-.598-.462-.239-.743-.787-.743-1.295V20.554c0-6.943-.373-14.004 0-20.941.016-.301 0-.606 0-.908 0-.508.281-1.056.743-1.295l58.404-30.302 92.392-47.935 13.915-7.219c1.95-1.012 4.074-2.548 6.18-3.207 1.584-.495 2.631.374 4.052 1.112l10.51 5.453 88.144 45.73C-45.614-27.041-22.385-15.521.362-3.188c.38.206.768.398 1.152.598C3.229-1.701 1.713.889 0 0" clip-path="url(#c)" style="fill:#000;fill-opacity:1;fill-rule:nonzero;stroke:none" transform="matrix(1.33333 0 0 -1.33333 947.67 1076.426)"/><path d="M0 0c0-30.709-24.895-55.604-55.604-55.604S-111.208-30.709-111.208 0s24.895 55.604 55.604 55.604S0 30.709 0 0" clip-path="url(#d)" style="fill:#ff9f00;fill-opacity:1;fill-rule:nonzero;stroke:none" transform="matrix(1.33333 0 0 -1.33333 549.472 678.358)"/><path d="M0 0c-.035-11.274-3.532-22.289-10.073-31.481-6.328-8.893-15.433-15.812-25.708-19.497-10.652-3.821-22.399-4.23-33.285-1.128-10.584 3.016-20.058 9.304-27.048 17.793-14.448 17.547-16.155 43.128-4.337 62.505 5.646 9.256 14.051 16.671 23.908 21.176 10.332 4.721 22.202 6.006 33.317 3.705C-21.287 48.531-4.073 30.394-.617 8.268-.191 5.534-.009 2.766 0 0c.006-1.836 2.859-1.839 2.854 0C2.817 11.794-.828 23.451-7.704 33.054c-6.687 9.339-16.068 16.528-26.848 20.505-11.223 4.14-23.773 4.575-35.272 1.299-11.022-3.141-21.022-9.679-28.308-18.527-7.428-9.021-11.951-20.137-12.893-31.788-.957-11.832 1.873-23.88 8.025-34.034 5.939-9.804 14.858-17.773 25.319-22.478 10.898-4.901 23.162-6.274 34.881-3.923 11.287 2.264 21.784 8.083 29.751 16.383C-5.015-31.14.404-20.335 2.16-8.858c.449 2.935.684 5.889.694 8.858C2.859 1.836.006 1.839 0 0" clip-path="url(#e)" style="fill:#000;fill-opacity:1;fill-rule:nonzero;stroke:none" transform="matrix(1.33333 0 0 -1.33333 547.57 678.358)"/><path d="M0 0c0-30.709-24.895-55.604-55.604-55.604S-111.208-30.709-111.208 0s24.895 55.604 55.604 55.604S0 30.709 0 0" clip-path="url(#f)" style="fill:#ff9f00;fill-opacity:1;fill-rule:nonzero;stroke:none" transform="matrix(1.33333 0 0 -1.33333 1038.805 678.358)"/><path d="M0 0c-.035-11.274-3.532-22.289-10.073-31.481-6.328-8.893-15.433-15.812-25.708-19.497-10.652-3.821-22.399-4.23-33.285-1.128-10.584 3.016-20.058 9.304-27.048 17.793-14.448 17.547-16.155 43.128-4.337 62.505 5.646 9.256 14.051 16.671 23.908 21.176 10.332 4.721 22.202 6.006 33.317 3.705C-21.287 48.531-4.073 30.394-.617 8.268-.191 5.534-.009 2.766 0 0c.006-1.836 2.859-1.839 2.854 0C2.817 11.794-.828 23.451-7.704 33.054c-6.687 9.339-16.069 16.528-26.848 20.505-11.223 4.14-23.773 4.575-35.272 1.299-11.022-3.141-21.022-9.679-28.308-18.527-7.428-9.021-11.951-20.137-12.893-31.788-.957-11.832 1.873-23.88 8.025-34.034 5.939-9.804 14.858-17.773 25.319-22.478 10.898-4.901 23.162-6.274 34.881-3.923 11.287 2.264 21.784 8.083 29.751 16.383C-5.016-31.14.404-20.335 2.16-8.858c.449 2.935.684 5.889.694 8.858C2.859 1.836.006 1.839 0 0" clip-path="url(#g)" style="fill:#000;fill-opacity:1;fill-rule:nonzero;stroke:none" transform="matrix(1.33333 0 0 -1.33333 1036.903 678.358)"/><path d="M8.588.001q-1.44.001-1.441-1.43v-73.43q0-1.429 1.441-1.43H43.03q1.322 0 2.297.915l11.437 11.45q.924.975.926 2.284v12.024q-.002.576-.234.914a6.4 6.4 0 0 1-.692.808l-8.976 8.004-.868 2.121.868 1.547 8.976 8.004q.456.47.692.785.233.306.234.938v11.789q-.001 1.371-.926 2.285L45.327-.97q-.975.972-2.297.97Zm22.77-12.879q4.745.001 6.492-1.887 1.745-1.884 1.746-7.148 0-5.33-1.746-7.219-1.748-1.886-6.492-1.887-4.688 0-6.434 1.887-1.747 1.889-1.746 7.219-.002 5.265 1.746 7.148 1.745 1.888 6.434 1.887m0-32.45c3.164 0 5.326-.626 6.492-1.886q1.745-1.885 1.746-7.148 0-5.272-1.746-7.16-1.748-1.886-6.492-1.887-4.688 0-6.434 1.887t-1.746 7.16q-.002 5.264 1.746 7.148 1.745 1.889 6.434 1.887M77.372.002q-1.431.001-1.43-1.43v-53.05q-.001-.748.574-1.723L90.075-75.42q.633-.866 1.828-.867h18.95q1.251 0 1.827.867l13.617 19.219q.573.808.575 1.723v53.05q-.001 1.431-1.43 1.43h-16.195q-1.431.001-1.43-1.43v-24.328H95.055v24.328q0 1.431-1.43 1.43zm24.035-38.063q5.261.002 7.125-2.308 1.863-2.319 1.863-8.848 0-6.525-1.863-8.836-1.864-2.32-7.125-2.32-5.203 0-7.067 2.32-1.863 2.311-1.863 8.836 0 6.53 1.863 8.848 1.864 2.309 7.067 2.308M166.534.001q-1.314 0-2.285-.738L154.92-9.27l-9.445-12.304q-.633-.795-.808-.996-.167-.21-.165-1.008V-52.77q-.001-.795.2-1.02.198-.231.773-.983l8.754-11.32 10.02-9.446q.619-.515.996-.633.375-.115 1.289-.117h14.133q1.429 0 1.43 1.43v9.164a6 6 0 0 1-.083.949q-.083.483-.597.82l-10.758 7.383-7.043 9.047v18.715l7.148 9.035 10.653 7.324q.456.295.562.692.115.398.117.855v9.445q0 1.431-1.43 1.43zm45.952 0q-1.314.002-2.285-.973L198.75-12.42q-.974-.914-.972-2.285V-61.64q-.001-1.309.972-2.285l11.45-11.449a3.23 3.23 0 0 1 2.285-.914h22.488q1.37 0 2.297.914l11.438 11.45q.971.975.972 2.284v46.934q0 1.371-.972 2.285L237.27-.97q-.927.974-2.297.972zm6.75-15.281h8.988q2.401 0 2.402-3.2v-39.316q-.001-3.27-2.402-3.27h-8.988q-2.346 0-2.344 3.27v39.317q-.001 3.199 2.344 3.199M269.483 0q-1.431.001-1.43-1.43v-73.43q-.001-1.429 1.43-1.43h32.508q1.371 0 2.285.915l11.45 11.45q.971.975.972 2.284V-1.43q-.001 1.431-1.43 1.43h-16.195q-1.431.001-1.43-1.43v-59.636h-10.535V-1.43q-.001 1.431-1.43 1.43zm0 0" aria-label="BACON" style="fill:#ffe564;fill-opacity:1;fill-rule:nonzero;stroke:none" transform="translate(505.31 1039.089)scale(1.33333)"/><path d="M0 0q1.316-.001 2.289.973l11.445 11.445q.915.916.916 2.289v11.789q0 .63-.229.944a7 7 0 0 1-.687.773L4.75 36.225l-.859 1.546.859 2.117 8.984 8.011q.458.458.687.801t.229.916v12.018q0 1.315-.916 2.289L2.289 75.368q-.973.916-2.289.916h-34.451q-1.431 0-1.431-1.43V1.431Q-35.882 0-34.451 0Zm-18.113 14.765q-1.745 1.887-1.745 7.153 0 5.322 1.745 7.211t6.438 1.889q4.75 0 6.496-1.889 1.745-1.889 1.745-7.211 0-5.266-1.745-7.153-1.746-1.889-6.496-1.889-4.692 0-6.438 1.889zm0 32.448q-1.745 1.887-1.745 7.153 0 5.265 1.745 7.154 1.746 1.888 6.438 1.888 4.75 0 6.496-1.888 1.745-1.889 1.745-7.154 0-5.266-1.745-7.153-1.746-1.89-6.496-1.889-4.692 0-6.438 1.889z" clip-path="url(#h)" style="fill:none;stroke:#000;stroke-width:3;stroke-linecap:butt;stroke-linejoin:miter;stroke-miterlimit:10;stroke-dasharray:none;stroke-opacity:1" transform="matrix(1.33333 0 0 -1.33333 562.69 1039.089)"/><path d="M0 0q1.43 0 1.431 1.431v24.321h12.761V1.431Q14.192 0 15.623 0h16.195q1.43 0 1.431 1.431V54.48q0 .915-.572 1.717l-13.62 19.229q-.574.858-1.831.858H-1.717q-1.202 0-1.831-.858l-13.563-19.229q-.573-.973-.572-1.717V1.431Q-17.683 0-16.252 0Zm.715 40.374q-1.86 2.317-1.86 8.842 0 6.523 1.86 8.842 1.86 2.317 7.068 2.317 5.263 0 7.125-2.317 1.86-2.32 1.86-8.842 0-6.525-1.86-8.842t-7.125-2.317q-5.208 0-7.068 2.317z" clip-path="url(#i)" style="fill:none;stroke:#000;stroke-width:3;stroke-linecap:butt;stroke-linejoin:miter;stroke-miterlimit:10;stroke-dasharray:none;stroke-opacity:1" transform="matrix(1.33333 0 0 -1.33333 630.219 1039.089)"/><path d="M0 0q1.43 0 1.431 1.431v9.442q0 .457-.115.858t-.572.687L-9.9 19.743l-7.154 9.042v18.714l7.039 9.042L.744 63.923q.515.343.601.83.086.485.086.944v9.157q0 1.43-1.431 1.43h-14.135q-.916 0-1.288-.114-.372-.115-1.001-.63l-10.015-9.442-8.756-11.331a25 25 0 0 0-.772-.973q-.201-.23-.2-1.03V23.578q0-.803.171-1.002.172-.201.801-1.001l9.443-12.304 9.328-8.527Q-15.452 0-14.135 0Z" clip-path="url(#j)" style="fill:none;stroke:#000;stroke-width:3;stroke-linecap:butt;stroke-linejoin:miter;stroke-miterlimit:10;stroke-dasharray:none;stroke-opacity:1" transform="matrix(1.33333 0 0 -1.33333 746.35 1039.089)"/><path d="M0 0q1.374-.001 2.289.973l11.446 11.445q.973.916.973 2.289v46.927q0 1.315-.973 2.289L2.289 75.368q-.915.916-2.289.916h-22.49a3.23 3.23 0 0 1-2.289-.916l-11.446-11.445q-.973-.974-.973-2.289V14.707q0-1.373.973-2.289L-24.779.973q.972-.974 2.289-.973Zm-18.083 18.484V57.8q0 3.262 2.346 3.262h8.984q2.404 0 2.404-3.262V18.484q0-3.204-2.404-3.205h-8.984q-2.347 0-2.346 3.205z" clip-path="url(#k)" style="fill:none;stroke:#000;stroke-width:3;stroke-linecap:butt;stroke-linejoin:miter;stroke-miterlimit:10;stroke-dasharray:none;stroke-opacity:1" transform="matrix(1.33333 0 0 -1.33333 818.837 1039.089)"/><path d="M0 0q1.43 0 1.431 1.431v59.631H11.96V1.431Q11.96 0 13.391 0h16.196q1.43 0 1.431 1.431v60.203q0 1.315-.974 2.289L18.599 75.368q-.916.916-2.289.916h-32.505q-1.431 0-1.431-1.43V1.431Q-17.626 0-16.195 0Z" clip-path="url(#l)" style="fill:none;stroke:#000;stroke-width:3;stroke-linecap:butt;stroke-linejoin:miter;stroke-miterlimit:10;stroke-dasharray:none;stroke-opacity:1" transform="matrix(1.33333 0 0 -1.33333 886.515 1039.089)"/><text xml:space="preserve" transform="translate(600.893 1112.828)scale(1.33333)"><tspan x="0" y="0" dx="0 2.5792363 2.5792363 2.5792363 2.5792363 2.5792363 2.5792363 2.5792363" style="font-variant:normal;font-weight:400;font-stretch:normal;font-size:62.9082px;font-family:Pacifico;writing-mode:lr-tb;fill:#000;fill-opacity:1;fill-rule:nonzero;stroke:none">Sizzling</tspan></text><path d="M4.606 0q-.54 0-.54-.539v-22.758l-2.917.106q-.54 0-.54-.54v-4.699q0-.537.54-.539h9.61q.537.002.538.54V-.54q-.001.54-.539.539zm28.04-28.969q.515.001.867.364l4.348 4.347q.362.352.363.88v16.253a.8.8 0 0 1-.328.645L29.962-.223q-.236.224-.644.223H23.88q-.54 0-.539-.539v-2.742q0-.386.328-.656l7.23-5.368V-10.5h-7.733a1.13 1.13 0 0 1-.868-.363l-3.632-3.61a1.2 1.2 0 0 1-.364-.867v-8.039q-.001-.526.364-.879l4.347-4.347c.24-.24.53-.364.867-.364zm-4.371 5.59q-1.913 0-2.59.832-.668.835-.668 3.2 0 2.38.668 3.222.677.844 2.59.844 1.885 0 2.566-.844.691-.842.692-3.223-.001-2.364-.692-3.199-.681-.831-2.566-.832m31.274-5.59q.515.001.867.364l4.348 4.347q.362.352.363.88v16.253a.8.8 0 0 1-.328.645L56.866-.223Q56.63.001 56.22 0h-5.437q-.54 0-.54-.539v-2.742q0-.386.329-.656l7.23-5.368V-10.5H50.07a1.13 1.13 0 0 1-.867-.363l-3.633-3.61a1.2 1.2 0 0 1-.363-.867v-8.039q0-.526.363-.879l4.347-4.347c.24-.24.53-.364.868-.364zm-4.37 5.59q-1.914 0-2.59.832-.669.835-.669 3.2 0 2.38.668 3.222.679.844 2.59.844 1.886 0 2.567-.844.69-.842.691-3.223 0-2.364-.691-3.199-.681-.831-2.567-.832M74.23 0q-1.231 0-1.676-.504-.447-.515-.445-1.5v-24.95q-.002-.97.445-1.476.445-.514 1.676-.515l14.93-.07q1.264 0 1.699.515.432.505.433 1.488v25.008q-.001.985-.433 1.5-.434.505-1.7.504Zm5.11-5.437h4.722v-18.141h-4.723zm0 0" aria-label="1990" style="fill:#ffe564;fill-opacity:1;fill-rule:nonzero;stroke:none" transform="translate(904.984 699.86)scale(1.33333)"/><path d="M0 0q.543 0 .543.543v27.882q0 .542-.543.543h-9.605q-.543 0-.543-.543V23.73q0-.543.543-.543l2.912.109V.543q0-.543.543-.543Z" clip-path="url(#m)" style="fill:none;stroke:#000;stroke-width:2;stroke-linecap:butt;stroke-linejoin:miter;stroke-miterlimit:10;stroke-dasharray:none;stroke-opacity:1" transform="matrix(1.33333 0 0 -1.33333 919.326 699.86)"/><path d="M0 0q-.5 0-.87-.369l-4.346-4.347a1.14 1.14 0 0 1-.369-.869v-8.041q0-.5.369-.869l3.63-3.608q.347-.369.869-.369h7.736v-1.195l-7.236-5.367a.8.8 0 0 1-.326-.653v-2.738q0-.543.543-.543h5.433q.413 0 .651.218l7.933 6.258a.8.8 0 0 1 .325.652v16.255q0 .522-.369.869L9.627-.369a1.15 1.15 0 0 1-.87.369Zm6.965-6.422q.684-.836.684-3.205 0-2.368-.684-3.216-.685-.847-2.575-.847-1.913 0-2.586.847-.675.848-.674 3.216 0 2.369.674 3.205.673.837 2.586.837 1.89 0 2.575-.837z" clip-path="url(#n)" style="fill:none;stroke:#000;stroke-width:2;stroke-linecap:butt;stroke-linejoin:miter;stroke-miterlimit:10;stroke-dasharray:none;stroke-opacity:1" transform="matrix(1.33333 0 0 -1.33333 936.827 661.236)"/><path d="M0 0q-.5 0-.87-.369l-4.346-4.347a1.14 1.14 0 0 1-.369-.869v-8.041q0-.5.369-.869l3.63-3.608q.347-.369.869-.369h7.736v-1.195l-7.236-5.367a.8.8 0 0 1-.326-.653v-2.738q0-.543.543-.543h5.433q.412 0 .652.218l7.932 6.258a.8.8 0 0 1 .326.652v16.255q0 .522-.37.869L9.627-.369A1.15 1.15 0 0 1 8.758 0Zm6.965-6.422q.684-.836.684-3.205 0-2.368-.684-3.216-.684-.847-2.575-.847-1.914 0-2.586.847-.675.848-.674 3.216 0 2.369.674 3.205.672.837 2.586.837 1.89 0 2.575-.837z" clip-path="url(#o)" style="fill:none;stroke:#000;stroke-width:2;stroke-linecap:butt;stroke-linejoin:miter;stroke-miterlimit:10;stroke-dasharray:none;stroke-opacity:1" transform="matrix(1.33333 0 0 -1.33333 972.727 661.236)"/><path d="M0 0q1.26 0 1.695.511.434.51.435 1.488v25.013q0 .978-.435 1.489-.435.51-1.695.511l-14.93-.066q-1.238 0-1.683-.51-.447-.511-.447-1.489V1.999q0-.977.447-1.488Q-16.168 0-14.93 0Zm-9.822 23.578h4.715V5.432h-4.715z" clip-path="url(#p)" style="fill:none;stroke:#000;stroke-width:2;stroke-linecap:butt;stroke-linejoin:miter;stroke-miterlimit:10;stroke-dasharray:none;stroke-opacity:1" transform="matrix(1.33333 0 0 -1.33333 1023.924 699.86)"/><path d="M3.504 0q-.61.001-.61-.61v-30.995q0-.609.61-.61h16.84c.404 0 .61.205.61.61v5.214c0 .408-.206.61-.61.61h-9.399v6.855h8.578q.609.001.61.61v4.418q-.001.61-.61.609h-8.578v6.832h9.399c.404 0 .61.205.61.61V-.61c0 .407-.206.609-.61.609zm25.055 0q-.598.001-.598-.61v-3.913q0-.55.351-.715l4.934-2.93v-2.508l-4.934-2.66q-.351-.22-.351-.75v-7.71a1 1 0 0 1 .082-.434.85.85 0 0 1 .246-.293l5.156-3.762q.255-.198.422-.246a1.5 1.5 0 0 1 .352-.047h5.87q.599 0 .598.598v3.796q0 .414-.058.563a.5.5 0 0 1-.258.234l-4.559 2.461v2.813l4.875 2.414q.41.165.41.726v7.418q0 .6-.41.961L35.543-.316Q35.155 0 34.582 0zm25.133 0q-.563.001-.972-.41l-4.032-4.008a1.37 1.37 0 0 1-.386-.973v-15.562h-1.02q-.597 0-.597-.598v-4.43q0-.597.597-.597h1.02v-3.024q0-.597.597-.597h6.434q.597 0 .598.597v3.024h2.343q.609 0 .61.598v4.43q-.001.597-.61.597h-2.343v12.902q-.001.47.293.75l2.367 2.39q.246.226.246.727v3.575q-.001.61-.61.609zm0 0" aria-label="Est" style="fill:#ffe564;fill-opacity:1;fill-rule:nonzero;stroke:none" transform="translate(426.219 696.852)scale(1.33333)"/><path d="M2.544-.188q-.611.002-.61-.656V-8.53q-.001-.656.61-.657h7.722q.609 0 .61.657v7.687c0 .44-.205.656-.61.656zm0 0" aria-label="." style="fill:#ffe564;fill-opacity:1;fill-rule:nonzero;stroke:none" transform="translate(509.304 696.852)scale(1.33333)"/><path d="M0 0q.603 0 .604.604v5.244q0 .603-.604.603h-9.399v6.838h8.578q.603 0 .604.605v4.42q0 .605-.604.605h-8.578v6.862H0q.603 0 .604.604v5.219q0 .603-.604.604h-16.841q-.604 0-.604-.604v-31q0-.604.604-.604Z" clip-path="url(#q)" style="fill:none;stroke:#000;stroke-width:2;stroke-linecap:butt;stroke-linejoin:miter;stroke-miterlimit:10;stroke-dasharray:none;stroke-opacity:1" transform="matrix(1.33333 0 0 -1.33333 453.344 696.852)"/><path d="M0 0q.579 0 .966.314l5.147 4.277q.41.361.41.967v7.417q0 .556-.41.725l-4.881 2.416v2.803l4.567 2.465a.5.5 0 0 1 .253.241q.06.144.061.556v3.793q0 .604-.604.604H-.363q-.169 0-.338-.048a1.5 1.5 0 0 1-.435-.242l-5.146-3.769a.8.8 0 0 1-.254-.29 1 1 0 0 1-.085-.435v-7.708q0-.532.363-.749l4.929-2.657V8.167l-4.929-2.924q-.363-.17-.363-.724V.604q0-.604.604-.604Z" clip-path="url(#r)" style="fill:none;stroke:#000;stroke-width:2;stroke-linecap:butt;stroke-linejoin:miter;stroke-miterlimit:10;stroke-dasharray:none;stroke-opacity:1" transform="matrix(1.33333 0 0 -1.33333 472.352 696.852)"/><path d="M0 0q.603 0 .604.604V4.18q0 .508-.242.725l-2.367 2.392q-.29.29-.29.749v12.902H.048q.604 0 .604.605v4.421q0 .604-.604.604h-2.343v3.021q0 .603-.604.603h-6.427q-.605 0-.605-.603v-3.021h-1.014q-.604 0-.604-.604v-4.421q0-.605.604-.605h1.014V5.388q0-.556.387-.966L-5.509.411Q-5.099 0-4.542 0Z" clip-path="url(#s)" style="fill:none;stroke:#000;stroke-width:2;stroke-linecap:butt;stroke-linejoin:miter;stroke-miterlimit:10;stroke-dasharray:none;stroke-opacity:1" transform="matrix(1.33333 0 0 -1.33333 503.89 696.852)"/><path d="M0 0q.603 0 .604.652v7.684q0 .652-.604.652h-7.732q-.604 0-.604-.652V.652q0-.651.604-.652Z" clip-path="url(#t)" style="fill:none;stroke:#000;stroke-width:2;stroke-linecap:butt;stroke-linejoin:miter;stroke-miterlimit:10;stroke-dasharray:none;stroke-opacity:1" transform="matrix(1.33333 0 0 -1.33333 523.027 696.594)"/><path d="M0 0c11.766-15.311 12.936-36.495 10.342-55.734S1.921-93.808 1.553-113.23c-.378-19.893 4.998-39.487 5.637-59.376 1.004-31.213-9.618-61.426-20.093-90.745l-6.87 26.103z" clip-path="url(#u)" style="fill:#000;fill-opacity:1;fill-rule:nonzero;stroke:none" transform="matrix(1.33333 0 0 -1.33333 825.166 559.988)"/><path d="M0 0c9.36-12.293 11.798-28.067 11.185-43.157-.713-17.581-5.723-34.598-8.275-51.934-1.318-8.948-1.895-17.914-1.346-26.95.555-9.149 1.965-18.217 3.22-27.288 1.26-9.11 2.317-18.261 2.259-27.472-.056-9.023-1.048-18.017-2.695-26.883-3.311-17.835-9.105-35.088-15.151-52.15q-1.124-3.166-2.255-6.33h2.971l-4.558 17.319-1.123 4.266c-.343 1.301-.985 2.804-1.134 4.109-.005.04.012.083.01.124-.053.853.15 1.796.22 2.645l1.208 14.49 2.024 24.281 2.592 31.108 2.915 34.975 2.99 35.88 2.81 33.707L.269-30.433 2.007-9.575c.276 3.302.663 6.616.828 9.926.007.142.023.284.035.426.165 1.976-2.917 1.965-3.08 0l-.572-6.861-1.542-18.504-2.266-27.185-2.753-33.03-2.961-35.535-2.966-35.581-2.689-32.273-2.178-26.133-1.423-17.075-.346-4.146c-.023-.275-.074-.562-.07-.838.005-.341.101-.665.18-.998.702-2.942 1.542-5.859 2.312-8.784l4.426-16.817c.409-1.554 2.482-1.369 2.971 0 6.149 17.214 12.284 34.512 16.179 52.403 1.924 8.836 3.291 17.814 3.809 26.846.529 9.211-.024 18.381-1.135 27.53-1.119 9.217-2.668 18.38-3.59 27.621-.919 9.219-1.007 18.411.042 27.622 2.035 17.853 7.327 35.199 8.765 53.137 1.216 15.178-.235 31.428-8.189 44.758A50 50 0 0 1 2.66 1.555C1.475 3.112-1.202 1.579 0 0" clip-path="url(#v)" style="fill:#000;fill-opacity:1;fill-rule:nonzero;stroke:none" transform="matrix(1.33333 0 0 -1.33333 823.393 561.024)"/><path d="M0 0c-11.964-30.153-16.929-91.479-14.815-125.01 1.842-29.218 9.062-59.471 1.256-87.036-4.373-15.442-13.242-28.84-16.119-44.799-4.761-26.42 7.762-53.64 6.454-80.692-1.352-27.962-17.334-55.051-10.086-81.936l-164.06.442-6.936 22.436c-8.841 16.142-4.764 37.412 1.957 54.548 6.722 17.137 15.952 33.696 16.838 52.684 1.158 24.824-12.261 48.289-12.228 73.179.03 23.527 11.978 44.393 15.515 67.458 3.173 20.692-.553 42.069-.713 63.179-.202 26.568 5.387 53.023 16.082 76.124z" clip-path="url(#w)" style="fill:#f05924;fill-opacity:1;fill-rule:nonzero;stroke:none" transform="matrix(1.33333 0 0 -1.33333 851.887 350.961)"/><path d="M0 0c-3.883-9.857-6.301-20.278-8.27-30.665-2.312-12.205-3.91-24.549-5.063-36.914-2.288-24.533-2.74-49.051-.152-73.571 1.692-16.023 3.955-32.11 3.317-48.263-.312-7.886-1.369-15.748-3.593-23.333-2.134-7.277-5.279-14.184-8.264-21.138-2.849-6.638-5.577-13.37-7.145-20.443-1.61-7.26-1.916-14.73-1.431-22.134 1.01-15.399 5.109-30.374 6.745-45.693.819-7.664.921-15.352-.074-23.005-.972-7.464-2.777-14.799-4.629-22.084-3.55-13.964-7.668-28.334-6.482-42.895a59 59 0 0 1 1.731-10.154l1.485 1.95-16.292.044-39.133.105-47.364.128-40.983.11-13.578.037-4.198.011c-.678.002-1.572.161-2.236.006-.082-.019-.19.001-.276.001l1.486-1.131-5.611 18.149c-.375 1.214-.736 2.433-1.126 3.642-.496 1.538-1.368 2.915-1.99 4.408-2.628 6.307-3.437 13.207-3.173 19.993 1.137 29.296 22.076 53.176 23.774 82.318.857 14.695-3.435 29.002-7.12 43.054-1.91 7.286-3.731 14.645-4.567 22.144-.826 7.402-.56 14.822.729 22.156 2.533 14.41 8.182 28.006 11.824 42.132 3.992 15.485 4.097 31.123 3.147 46.993-.963 16.087-2.095 32.042-.456 48.131 1.552 15.249 5.053 30.332 10.472 44.673a164 164 0 0 0 4.456 10.628l-1.33-.763 16.662.941 39.79 2.247 48.114 2.717 41.776 2.36c6.707.379 13.544.407 20.223 1.142.096.01.194.011.29.016 1.971.112 1.984 3.193 0 3.081L-15.177.19l-39.79-2.247-48.114-2.718-41.776-2.359c-6.69-.378-13.566-.335-20.223-1.142-.096-.012-.194-.011-.29-.017-.508-.028-1.1-.264-1.33-.762-6.373-13.851-10.895-28.493-13.512-43.512-2.726-15.649-3.185-31.387-2.276-47.22.947-16.492 2.797-33.236.149-49.667-2.354-14.612-8.032-28.371-11.813-42.621-1.871-7.048-3.265-14.261-3.577-21.56-.313-7.327.596-14.641 2.05-21.812 2.973-14.656 8.327-28.865 9.803-43.813 1.498-15.178-2.56-29.349-8.285-43.255-5.487-13.327-11.806-26.319-14.194-40.664-1.109-6.666-1.462-13.455-.496-20.161.486-3.38 1.317-6.709 2.578-9.886.644-1.623 1.547-3.137 2.144-4.76 2.397-6.509 4.126-13.345 6.175-19.973l.584-1.891c.201-.651.793-1.129 1.485-1.13l16.292-.044 39.133-.106 47.364-.128 40.984-.11 13.577-.037c2.117-.005 4.322-.19 6.434-.017.091.007.185-.001.276-.001 1.01-.003 1.738.986 1.485 1.95-3.778 14.411-.847 29.13 2.682 43.273 3.57 14.306 7.741 28.634 7.548 43.516-.199 15.356-4.072 30.33-6.249 45.457-1.076 7.475-1.716 15.063-1.196 22.614.521 7.565 2.498 14.831 5.204 21.889 2.622 6.839 5.796 13.448 8.473 20.264 2.786 7.096 4.794 14.382 5.825 21.941 2.137 15.658.681 31.498-1.014 47.123-1.45 13.367-2.981 26.702-3.166 40.16-.162 11.804.291 23.618 1.135 35.391C-9.405-54.221-6.664-29.905.661-7.278A111 111 0 0 0 2.97-.819C3.697 1.026.719 1.826 0 0" clip-path="url(#x)" style="fill:#000;fill-opacity:1;fill-rule:nonzero;stroke:none" transform="matrix(1.33333 0 0 -1.33333 849.907 350.415)"/><path d="M0 0c-3.224-.222-12.316-26.878-13.795-30.801-3.478-9.223-6.06-18.717-7.325-28.529-3.526-27.355 3.369-53.705 3.456-80.865.067-20.68-12.546-39.502-16.938-59.263-7.162-32.234 10.337-65.936 4.689-98.485-2.224-12.817-7.933-24.684-11.812-37.081-8.074-25.808-1.275-56.2 6.897-82.016l-64.718.948c-7.31 22.408-2.486 46.908 3.969 69.553 6.456 22.645 14.581 45.429 13.727 69.012-1.005 27.72-14.422 54.703-10.53 82.144 2.304 16.244 10.534 31.036 13.673 47.132 4.279 21.939-1.142 44.499-2.343 66.847-1.405 26.15 3.094 52.597 13.051 76.712z" clip-path="url(#y)" style="fill:#ff9e80;fill-opacity:1;fill-rule:nonzero;stroke:none" transform="matrix(1.33333 0 0 -1.33333 789.764 354.033)"/><path d="M0 0c-2.281-.334-3.768-4.114-4.623-5.85-1.987-4.027-3.638-8.229-5.247-12.418-3.434-8.936-6.953-18.023-9.394-27.278-4.212-15.963-4.545-32.301-3.245-48.676 1.289-16.232 4.103-32.541 3.7-48.865-.368-14.92-7.139-28.696-12.237-42.427-2.519-6.783-4.689-13.697-5.671-20.886-.997-7.3-.923-14.681-.272-22.008 1.349-15.168 4.991-30.02 6.47-45.17.722-7.399.923-14.89.003-22.282-.981-7.889-3.453-15.489-6.147-22.936-2.64-7.299-5.65-14.543-7.459-22.108-1.739-7.266-2.42-14.775-2.353-22.236.136-15.257 3.239-30.395 7.348-45.033a351 351 0 0 1 3.223-10.762l1.486 1.95-56.774.832-7.944.116 1.485-1.13c-8.584 26.822-.156 54.88 7.511 80.828 3.898 13.195 7.705 26.478 9.412 40.166 1.679 13.462.502 26.663-2.175 39.908-2.652 13.119-6.369 26.086-7.723 39.436-.671 6.615-.759 13.328.195 19.92.942 6.504 2.873 12.824 4.994 19.027 4.322 12.64 9.04 24.917 10.021 38.373 1.029 14.121-.987 28.22-2.468 42.232-1.455 13.768-1.972 27.506-.595 41.306a175.5 175.5 0 0 0 8.834 40.056 181 181 0 0 0 3.54 9.328l-1.485-1.13 59.518 4.106 8.481.585C2.376-2.89 2.391.192.409.055l-59.553-4.109-8.446-.583c-.755-.052-1.209-.457-1.485-1.131-10.398-25.343-14.824-52.99-12.907-80.316.992-14.132 3.397-28.152 3.726-42.332.168-7.245-.214-14.53-1.673-21.641-1.324-6.455-3.443-12.707-5.632-18.91-4.41-12.494-8.66-24.852-8.656-38.265.004-13.133 3.048-26.024 5.929-38.76 3.015-13.324 5.83-26.722 5.289-40.462-.556-14.134-4.016-27.946-7.897-41.484-7.42-25.885-16.925-52.76-12.192-80.061a74.5 74.5 0 0 1 2.466-9.987c.211-.657.787-1.121 1.486-1.131l56.773-.832 7.945-.116c.973-.015 1.785.999 1.485 1.949-4.553 14.425-8.446 29.202-9.888 44.299-.719 7.519-.83 15.121.014 22.636.835 7.43 2.915 14.488 5.43 21.504 2.663 7.43 5.624 14.77 7.689 22.399 1.928 7.124 2.86 14.432 2.867 21.811.013 14.749-3.158 29.256-5.406 43.765-2.269 14.641-3.494 29.57.435 44.044 3.769 13.884 10.681 26.71 14.105 40.703 3.66 14.955 1.452 30.674-.109 45.781-1.673 16.181-3.429 32.502-1.57 48.75 1.388 12.134 5.223 23.53 9.35 34.946 2.765 7.65 5.303 15.924 9.574 22.898.257.419.513.852.836 1.224.044.051.467.474.278.323.282.225.046.048.147.063C2.773-2.685 1.942.284 0 0" clip-path="url(#z)" style="fill:#000;fill-opacity:1;fill-rule:nonzero;stroke:none" transform="matrix(1.33333 0 0 -1.33333 789.218 352.052)"/><path d="M0 0s42.126-2.808 40.165 34.844l-21.334-2.208Z" clip-path="url(#A)" style="fill:#000;fill-opacity:1;fill-rule:nonzero;stroke:none" transform="matrix(1.33333 0 0 -1.33333 736.955 585.318)"/><path d="M0 0c3.892-.089 20.558.169 30.687 10.157 5.799 5.718 8.531 13.668 8.121 23.638L18.273 31.67Zm.909-1.036c-1.122 0-1.778.039-1.814.042l-.823.055 19.374 33.577 22.133 2.29.029-.539c.547-10.531-2.28-18.931-8.404-24.967C21.67-.171 6.171-1.036.909-1.036" clip-path="url(#B)" style="fill:#1b2022;fill-opacity:1;fill-rule:nonzero;stroke:none" transform="matrix(1.33333 0 0 -1.33333 738.116 584.676)"/><path d="M0 0c1.109-17.533-14.257-32.776-34.321-34.045S-71.549-22.129-72.658-4.596z" clip-path="url(#C)" style="fill:#fffbe9;fill-opacity:1;fill-rule:nonzero;stroke:none" transform="matrix(1.33333 0 0 -1.33333 712.12 544.39)"/><path d="M0 0c.775-13.489-8.615-25.068-20.821-29.843-13.002-5.086-28.923-3.138-39.396 6.447-5.342 4.888-8.859 11.531-9.361 18.8l-1.54-1.54 24.669 1.56 39.011 2.468 8.978.568c1.969.124 1.983 3.206 0 3.08L-23.129-.02l-39.01-2.468-8.979-.568c-.786-.05-1.6-.666-1.54-1.54 1.024-14.823 12.707-26.171 26.685-29.754 14.714-3.772 31.721.679 41.584 12.542C.692-15.696 3.539-7.983 3.081 0 2.967 1.971-.114 1.984 0 0" clip-path="url(#D)" style="fill:#000;fill-opacity:1;fill-rule:nonzero;stroke:none" transform="matrix(1.33333 0 0 -1.33333 710.066 544.39)"/><path d="M0 0c.485-7.674-5.599-14.306-13.59-14.811s-14.862 5.306-15.347 12.98c-.486 7.675 5.598 14.306 13.589 14.812C-7.357 13.486-.485 7.674 0 0" clip-path="url(#E)" style="fill:#000;fill-opacity:1;fill-rule:nonzero;stroke:none" transform="matrix(1.33333 0 0 -1.33333 672.053 547.784)"/><path d="M0 0c1.109-17.533-14.257-32.776-34.321-34.045S-71.549-22.129-72.658-4.596z" clip-path="url(#F)" style="fill:#fffbe9;fill-opacity:1;fill-rule:nonzero;stroke:none" transform="matrix(1.33333 0 0 -1.33333 782.716 539.925)"/><path d="M0 0c.775-13.489-8.615-25.069-20.821-29.843-13.002-5.086-28.923-3.138-39.396 6.447-5.342 4.888-8.858 11.531-9.361 18.8l-1.54-1.54 24.669 1.56 39.011 2.468 8.978.568c1.969.124 1.983 3.206 0 3.08L-23.129-.02l-39.01-2.468-8.979-.568c-.786-.05-1.6-.666-1.54-1.54 1.024-14.823 12.707-26.171 26.685-29.754 14.714-3.772 31.721.679 41.584 12.542C.692-15.696 3.539-7.983 3.081 0 2.967 1.971-.114 1.984 0 0" clip-path="url(#G)" style="fill:#000;fill-opacity:1;fill-rule:nonzero;stroke:none" transform="matrix(1.33333 0 0 -1.33333 780.662 539.925)"/><path d="M0 0c.485-7.674-5.599-14.306-13.59-14.811s-14.862 5.306-15.347 12.98c-.486 7.675 5.598 14.306 13.589 14.812C-7.357 13.486-.485 7.674 0 0" clip-path="url(#H)" style="fill:#000;fill-opacity:1;fill-rule:nonzero;stroke:none" transform="matrix(1.33333 0 0 -1.33333 742.65 543.318)"/><path d="m0 0 15.437.789 37.068 1.894 44.838 2.291 38.744 1.98c6.257.32 12.538.505 18.788.96q.127.008.255.013c1.973.101 1.985 3.182 0 3.081l-15.437-.789-37.068-1.894-44.838-2.292-38.744-1.979c-6.257-.32-12.538-.505-18.788-.96Q.127 3.085 0 3.081C-1.973 2.98-1.985-.101 0 0" clip-path="url(#I)" style="fill:#000;fill-opacity:1;fill-rule:nonzero;stroke:none" transform="matrix(1.33333 0 0 -1.33333 608.922 551.317)"/><path d="M0 0c5.439 1.134 9.475 6.862 9.336 12.869-.135 5.824-3.377 11.154-7.324 15.377-8.469 9.06-20.733 14.304-32.992 14.109-12.26-.195-24.33-5.828-32.473-15.152-4.236-4.851-7.571-11.113-5.866-17.792.867-3.399 3.217-6.289 6.499-7.356 5.727-1.862 10.238 2.487 14.86 5.401 7.085 4.466 15.871 5.688 23.944 3.663 3.407-.854 6.541-1.859 9.375-4.021 3.005-2.29 5.529-5.346 9.156-6.663C-3.575-.258-1.718-.358 0 0" clip-path="url(#J)" style="fill:#ffa1db;fill-opacity:1;fill-rule:nonzero;stroke:none" transform="matrix(1.33333 0 0 -1.33333 769.533 654.626)"/><path d="M0 0c6.339 1.438 10.52 7.859 10.469 14.17-.06 7.322-4.633 13.821-9.775 18.652-10.537 9.896-25.529 14.461-39.757 11.755-6.931-1.318-13.579-4.31-19.188-8.585-5.55-4.228-10.921-9.935-12.822-16.82-1.784-6.459.281-14.499 7.098-17 7.117-2.612 12.638 3.574 18.372 6.585 6.639 3.484 14.387 4.051 21.581 2.154 3.669-.968 6.821-2.414 9.7-4.914 2.64-2.294 5.236-4.764 8.676-5.776C-3.789-.325-1.893-.354 0 0c1.946.363 1.122 3.333-.819 2.97-3.568-.666-6.636 1.158-9.249 3.387-2.462 2.1-4.767 4.3-7.748 5.66-6.12 2.789-13.146 3.69-19.77 2.611a31.5 31.5 0 0 1-9.756-3.308c-2.742-1.467-5.14-3.473-7.837-5.011-2.548-1.452-5.446-2.291-8.261-1.051-2.78 1.225-4.439 3.987-4.991 6.88-1.281 6.712 3.072 12.99 7.561 17.503a43.2 43.2 0 0 0 15.955 10.144c12.465 4.477 26.287 2.725 37.399-4.434 6.019-3.878 12.026-9.636 14.171-16.659.993-3.25 1.054-6.748-.458-9.854C4.79 5.948 2.356 3.691-.819 2.97-2.751 2.532-1.934-.439 0 0" clip-path="url(#K)" style="fill:#000;fill-opacity:1;fill-rule:nonzero;stroke:none" transform="matrix(1.33333 0 0 -1.33333 770.079 656.606)"/><path d="M0 0c-1.386-2.333-1.403-5.516.13-7.793 1.454-2.16 4.104-3.546 6.732-3.212.796.101 1.581.636 1.54 1.54-.033.748-.684 1.649-1.54 1.541a5.7 5.7 0 0 0-1.074-.037 4 4 0 0 0-.189.016q.268-.04.095-.013c-.229.046-.455.088-.68.153-.122.036-.241.082-.362.119-.278.087.117-.067-.044.014-.21.105-.419.205-.62.327-.11.067-.214.139-.321.209-.267.177.166-.165-.093.071-.158.143-.318.283-.465.438-.088.094-.168.194-.254.288.224-.247-.033.052-.065.101a5 5 0 0 0-.365.634c-.057.117-.108.267-.033.062-.046.126-.093.251-.132.38-.074.237-.112.479-.174.718q-.028.17.005-.077a5 5 0 0 0-.04.537c-.009.271.01.538.027.807-.014-.222-.015-.09.011.057q.03.165.069.328c.062.262.145.516.241.767-.096-.252.017.028.065.12q.092.178.196.35c.412.693.179 1.721-.553 2.108C1.365.945.44.74 0 0" clip-path="url(#L)" style="fill:#000;fill-opacity:1;fill-rule:nonzero;stroke:none" transform="matrix(1.33333 0 0 -1.33333 684.746 629.615)"/><path d="M0 0c5.245 6.456 12.546 11.015 20.681 12.803 8.08 1.777 16.63.485 23.935-3.359A37.2 37.2 0 0 0 55.648.6c1.287-1.511 3.457.677 2.178 2.179-5.794 6.804-13.956 11.57-22.746 13.222-8.766 1.648-17.842.105-25.658-4.17a39.3 39.3 0 0 1-11.6-9.653C-3.418.653-1.251-1.54 0 0" clip-path="url(#M)" style="fill:#000;fill-opacity:1;fill-rule:nonzero;stroke:none" transform="matrix(1.33333 0 0 -1.33333 690.316 639.865)"/><path d="M0 0c2.703-1.016 6.073-.12 7.913 2.107 1.983 2.4 2.286 5.916.707 8.612-.408.695-1.408 1.003-2.108.552s-.988-1.363-.552-2.107c.083-.143.156-.29.235-.435.154-.283-.073.245.039-.087.093-.275.183-.546.244-.831q.038-.182.067-.365c-.064.395-.002-.06.003-.146a6.4 6.4 0 0 0-.026-1.055q.04.276.014.102c-.028-.142-.05-.285-.083-.426-.061-.263-.156-.512-.233-.769q-.061-.158.039.082a5.7 5.7 0 0 0-.507-.915c-.22-.319.105.087-.095-.126a12 12 0 0 0-.596-.596c-.231-.217.22.135-.067-.055-.1-.067-.198-.137-.3-.2a6 6 0 0 0-.743-.391c.341.151.002.009-.079-.018a6 6 0 0 0-1.047-.257l.172.024c-.232-.087-.588-.04-.836-.031-.14.005-.278.02-.417.031q-.175.02.113-.014a5.6 5.6 0 0 0-1.038.284c-.756.285-1.722-.315-1.895-1.075C-1.275 1.019-.809.304 0 0" clip-path="url(#N)" style="fill:#000;fill-opacity:1;fill-rule:nonzero;stroke:none" transform="matrix(1.33333 0 0 -1.33333 759.246 641.766)"/><path d="M0 0c3.909 3.566 9.114 5.552 14.415 5.371 5.178-.176 10.109-2.469 13.753-6.114 1.403-1.403 3.582.774 2.178 2.179-4.222 4.223-9.944 6.812-15.931 7.016C8.299 8.66 2.317 6.279-2.178 2.178-3.646.839-1.463-1.334 0 0" clip-path="url(#O)" style="fill:#000;fill-opacity:1;fill-rule:nonzero;stroke:none" transform="matrix(1.33333 0 0 -1.33333 709.004 660.693)"/><path d="M0 0c-.353 7.071 1.655 14.143 5.87 19.859 3.916 5.311 9.656 9.153 16.006 10.88 1.911.519 1.1 3.492-.818 2.97C6.146 29.655-3.848 15.355-3.081 0-2.982-1.973.099-1.985 0 0" clip-path="url(#P)" style="fill:#000;fill-opacity:1;fill-rule:nonzero;stroke:none" transform="matrix(1.33333 0 0 -1.33333 617.233 548.805)"/><path d="M0 0c-.382 7.615 2.054 15.37 7.073 21.169 4.763 5.503 11.581 9.142 18.836 9.887 1.953.201 1.973 3.283 0 3.081-8.056-.828-15.693-4.641-21.014-10.79C-.648 16.943-3.505 8.448-3.081 0-2.981-1.973.1-1.985 0 0" clip-path="url(#Q)" style="fill:#000;fill-opacity:1;fill-rule:nonzero;stroke:none" transform="matrix(1.33333 0 0 -1.33333 688.94 543.121)"/></svg>