<svg xmlns="http://www.w3.org/2000/svg" width="1440" height="1440" viewBox="0 0 1440 1440"><defs><clipPath id="a" clipPathUnits="userSpaceOnUse"><path d="M-536.704 799.923h1080v-1080h-1080Z"/></clipPath><clipPath id="b" clipPathUnits="userSpaceOnUse"><path d="M-536.704 798.423h1080v-1080h-1080Z"/></clipPath><clipPath id="c" clipPathUnits="userSpaceOnUse"><path d="M-308.253 468.631h1080v-1080h-1080Z"/></clipPath><clipPath id="d" clipPathUnits="userSpaceOnUse"><path d="M-309.339 469.717h1080v-1080h-1080Z"/></clipPath><clipPath id="e" clipPathUnits="userSpaceOnUse"><path d="M-857.208 536.851h1080v-1080h-1080Z"/></clipPath><clipPath id="f" clipPathUnits="userSpaceOnUse"><path d="M-855.708 536.851h1080v-1080h-1080Z"/></clipPath><clipPath id="g" clipPathUnits="userSpaceOnUse"><path d="M-839.338 536.851h1080v-1080h-1080Z"/></clipPath><clipPath id="h" clipPathUnits="userSpaceOnUse"><path d="M-837.838 536.851h1080v-1080h-1080Z"/></clipPath><clipPath id="i" clipPathUnits="userSpaceOnUse"><path d="M-357.208 536.851h1080v-1080h-1080Z"/></clipPath><clipPath id="j" clipPathUnits="userSpaceOnUse"><path d="M-355.708 536.851h1080v-1080h-1080Z"/></clipPath><clipPath id="k" clipPathUnits="userSpaceOnUse"><path d="M-339.338 536.851h1080v-1080h-1080Z"/></clipPath><clipPath id="l" clipPathUnits="userSpaceOnUse"><path d="M-337.838 536.851h1080v-1080h-1080Z"/></clipPath><clipPath id="m" clipPathUnits="userSpaceOnUse"><path d="M-489.802 817.95h1080v-1080h-1080Z"/></clipPath><clipPath id="n" clipPathUnits="userSpaceOnUse"><path d="M-490.181 816.575h1080v-1080h-1080Z"/></clipPath><clipPath id="o" clipPathUnits="userSpaceOnUse"><path d="M-699.093 741.245h1080v-1080h-1080Z"/></clipPath><clipPath id="p" clipPathUnits="userSpaceOnUse"><path d="M-697.595 741.245h1080v-1080h-1080Z"/></clipPath><clipPath id="q" clipPathUnits="userSpaceOnUse"><path d="M-274.73 548.853h1080v-1080h-1080Z"/></clipPath><clipPath id="r" clipPathUnits="userSpaceOnUse"><path d="M-287.538 548.853h1080v-1080h-1080Z"/></clipPath><clipPath id="s" clipPathUnits="userSpaceOnUse"><path d="M-308.79 548.853h1080v-1080h-1080Z"/></clipPath><clipPath id="t" clipPathUnits="userSpaceOnUse"><path d="M-321.684 548.68h1080v-1080h-1080Z"/></clipPath><clipPath id="u" clipPathUnits="userSpaceOnUse"><path d="M-765.148 547.084h1080v-1080h-1080Z"/></clipPath><clipPath id="v" clipPathUnits="userSpaceOnUse"><path d="M-783.63 547.084h1080v-1080h-1080Z"/></clipPath><clipPath id="w" clipPathUnits="userSpaceOnUse"><path d="M-804.803 547.084h1080v-1080h-1080Z"/></clipPath><clipPath id="x" clipPathUnits="userSpaceOnUse"><path d="M-825.974 547.084h1080v-1080h-1080Z"/></clipPath><clipPath id="y" clipPathUnits="userSpaceOnUse"><path d="M-437.588 769.339h1080v-1080h-1080Z"/></clipPath><clipPath id="z" clipPathUnits="userSpaceOnUse"><path d="M-510.9 771.146h1080v-1080h-1080Z"/></clipPath><clipPath id="A" clipPathUnits="userSpaceOnUse"><path d="M-542.537 771.927h1080v-1080h-1080Z"/></clipPath><clipPath id="B" clipPathUnits="userSpaceOnUse"><path d="M-591.936 773.144h1080v-1080h-1080Z"/></clipPath><clipPath id="C" clipPathUnits="userSpaceOnUse"><path d="M-654.147 774.679h1080v-1080h-1080Z"/></clipPath><clipPath id="D" clipPathUnits="userSpaceOnUse"><path d="M-685.642 616.239h1080v-1080h-1080Z"/></clipPath><clipPath id="E" clipPathUnits="userSpaceOnUse"><path d="M-685.642 617.739h1080v-1080h-1080Z"/></clipPath><clipPath id="F" clipPathUnits="userSpaceOnUse"><path d="M-513.171 444.866h1080v-1080h-1080Z"/></clipPath><clipPath id="G" clipPathUnits="userSpaceOnUse"><path d="M-511.671 444.866h1080v-1080h-1080Z"/></clipPath><clipPath id="H" clipPathUnits="userSpaceOnUse"><path d="M-383.541 534.82h1080v-1080h-1080Z"/></clipPath><clipPath id="I" clipPathUnits="userSpaceOnUse"><path d="M-383.541 533.32h1080v-1080h-1080Z"/></clipPath><clipPath id="J" clipPathUnits="userSpaceOnUse"><path d="M-516.21 610.867h1080v-1080h-1080Z"/></clipPath><clipPath id="K" clipPathUnits="userSpaceOnUse"><path d="M-405.855 564.424h1080v-1080h-1080Z"/></clipPath><clipPath id="L" clipPathUnits="userSpaceOnUse"><path d="M-434.617 591.975h1080v-1080h-1080Z"/></clipPath><clipPath id="M" clipPathUnits="userSpaceOnUse"><path d="M-650.769 550.747h1080v-1080h-1080Z"/></clipPath><clipPath id="N" clipPathUnits="userSpaceOnUse"><path d="M-621.35 582.997h1080v-1080h-1080Z"/></clipPath><clipPath id="O" clipPathUnits="userSpaceOnUse"><path d="M-667.769 582.675h1080v-1080h-1080Z"/></clipPath><clipPath id="P" clipPathUnits="userSpaceOnUse"><path d="M-624.167 521.46h1080v-1080h-1080Z"/></clipPath><clipPath id="Q" clipPathUnits="userSpaceOnUse"><path d="M-472.38 531.927h1080v-1080h-1080Z"/></clipPath><clipPath id="R" clipPathUnits="userSpaceOnUse"><path d="M-466.458 568.38h1080v-1080h-1080Z"/></clipPath><clipPath id="S" clipPathUnits="userSpaceOnUse"><path d="M-439.332 536.808h1080v-1080h-1080Z"/></clipPath><clipPath id="T" clipPathUnits="userSpaceOnUse"><path d="M-496.989 603.764h1080v-1080h-1080Z"/></clipPath><clipPath id="U" clipPathUnits="userSpaceOnUse"><path d="M72.89 43.892C50.168 35.504 17.972 25.51 22.705-4.917c.682-4.383 2.453-8.552 2.998-12.954.692-5.58-.62-11.209-.612-16.833.015-11.477 3.87-28.418 15.31-29.384 15.667-1.323 23.728 6.451 27.873 14.555 5.115 10.002 15.254 16.43 26.49 16.317l204.51-2.057c7.847-.078 15.836-.18 23.299-2.6 6.466-2.099 12.26-5.853 18.545-8.444 6.285-2.59 13.604-3.949 19.784-1.12 2.553 1.17 4.874 3.14 5.803 5.79 1.04 2.97.202 6.242-.772 9.234a107.4 107.4 0 0 1-24.531 40.957c-7.706 8.033-16.632 14.824-26.04 20.776-35.957 22.75-78.888 33.148-121.437 33.826-2.024.033-4.048.05-6.08.05-38.712-.002-78.676-5.912-114.955-19.304"/></clipPath><clipPath id="V" clipPathUnits="userSpaceOnUse"><path d="M63.177.689C40.455-7.699 8.259-17.694 12.992-48.12c.682-4.383 2.453-8.552 2.998-12.954.692-5.581-.62-11.209-.612-16.833.015-11.477 3.87-28.418 15.31-29.384 15.667-1.323 23.728 6.451 27.873 14.555 5.115 10.002 15.254 16.43 26.49 16.317l204.51-2.057c7.847-.078 15.836-.18 23.299-2.601 6.466-2.098 12.26-5.852 18.545-8.443s13.604-3.949 19.784-1.12c2.553 1.169 4.874 3.14 5.803 5.79 1.04 2.97.202 6.242-.772 9.234a107.4 107.4 0 0 1-24.531 40.957c-7.706 8.033-16.632 14.824-26.04 20.776-35.957 22.749-78.888 33.148-121.437 33.826q-3.034.05-6.08.049C139.42 19.991 99.456 14.081 63.177.689"/></clipPath><clipPath id="W" clipPathUnits="userSpaceOnUse"><path d="M29.805-16.26C7.083-24.648-25.113-34.643-20.38-65.07c.682-4.382 2.453-8.551 2.998-12.953.692-5.581-.62-11.21-.612-16.833.015-11.477 3.87-28.418 15.31-29.384 15.667-1.323 23.728 6.45 27.873 14.555 5.115 10.002 15.254 16.43 26.49 16.317l204.51-2.057c7.847-.078 15.836-.18 23.299-2.601 6.466-2.098 12.26-5.852 18.545-8.443s13.604-3.95 19.784-1.12c2.553 1.169 4.874 3.14 5.803 5.79 1.04 2.97.202 6.242-.772 9.234a107.4 107.4 0 0 1-24.531 40.957c-7.706 8.033-16.632 14.824-26.04 20.776C236.32-8.083 193.39 2.316 150.84 2.994c-2.024.033-4.048.049-6.08.049-38.712-.001-78.676-5.911-114.955-19.303"/></clipPath><clipPath id="X" clipPathUnits="userSpaceOnUse"><path d="M-14.845-32.967c-22.722-8.388-54.918-18.383-50.185-48.81.682-4.382 2.453-8.551 2.998-12.953.692-5.581-.62-11.21-.612-16.833.015-11.477 3.87-28.418 15.31-29.384 15.667-1.323 23.728 6.45 27.873 14.555 5.115 10.002 15.254 16.43 26.49 16.317l204.51-2.057c7.847-.078 15.836-.18 23.299-2.601 6.466-2.098 12.26-5.852 18.545-8.443s13.604-3.95 19.784-1.12c2.553 1.169 4.874 3.14 5.803 5.79 1.04 2.97.202 6.242-.772 9.234a107.4 107.4 0 0 1-24.531 40.957c-7.706 8.033-16.632 14.824-26.04 20.776C191.67-24.79 148.74-14.391 106.19-13.713q-3.034.05-6.08.049c-38.712-.001-78.676-5.911-114.955-19.303"/></clipPath><clipPath id="Y" clipPathUnits="userSpaceOnUse"><path d="M-86.87-34.942c-22.723-8.388-54.919-18.383-50.186-48.81.682-4.382 2.453-8.551 2.998-12.953.692-5.581-.619-11.21-.612-16.833.015-11.477 3.87-28.418 15.311-29.384 15.666-1.323 23.727 6.45 27.872 14.555 5.115 10.002 15.254 16.43 26.491 16.317l204.51-2.057c7.846-.078 15.835-.18 23.298-2.601 6.466-2.098 12.261-5.852 18.545-8.443s13.604-3.95 19.784-1.12c2.553 1.169 4.874 3.14 5.803 5.79 1.041 2.97.202 6.242-.772 9.234a107.4 107.4 0 0 1-24.53 40.957c-7.707 8.033-16.633 14.824-26.04 20.776-35.958 22.749-78.889 33.148-121.438 33.826q-3.034.05-6.08.049C-10.628-15.64-50.592-21.55-86.87-34.942"/></clipPath><clipPath id="Z" clipPathUnits="userSpaceOnUse"><path d="M-137.943-39.43c-22.722-8.388-54.918-18.383-50.185-48.809.682-4.383 2.453-8.552 2.998-12.954.692-5.58-.619-11.209-.612-16.833.015-11.477 3.87-28.418 15.311-29.384 15.666-1.323 23.727 6.451 27.872 14.555 5.115 10.002 15.254 16.43 26.491 16.317l204.51-2.057c7.846-.078 15.835-.18 23.298-2.6 6.466-2.099 12.261-5.853 18.545-8.444 6.285-2.59 13.604-3.949 19.784-1.12 2.553 1.17 4.874 3.14 5.803 5.79 1.041 2.97.202 6.242-.772 9.234a107.4 107.4 0 0 1-24.53 40.957c-7.707 8.033-16.633 14.824-26.04 20.776-35.958 22.75-78.889 33.148-121.438 33.826q-3.034.05-6.08.05c-38.712-.002-78.676-5.912-114.955-19.304"/></clipPath><clipPath id="aa" clipPathUnits="userSpaceOnUse"><path d="M-207.173-21.554c-22.722-8.388-54.918-18.383-50.185-48.809.682-4.383 2.453-8.552 2.998-12.954.692-5.581-.619-11.209-.612-16.833.015-11.477 3.87-28.418 15.311-29.384 15.666-1.323 23.727 6.451 27.872 14.555 5.115 10.002 15.254 16.43 26.491 16.317l204.51-2.057c7.846-.078 15.835-.18 23.298-2.601 6.466-2.098 12.261-5.852 18.545-8.443s13.604-3.949 19.784-1.12c2.553 1.169 4.874 3.14 5.803 5.79 1.041 2.97.202 6.242-.772 9.234a107.4 107.4 0 0 1-24.53 40.957c-7.707 8.033-16.633 14.824-26.04 20.776C-.658-13.377-43.589-2.978-86.138-2.3c-2.024.033-4.048.049-6.08.049-38.712-.001-78.676-5.911-114.955-19.303"/></clipPath><clipPath id="ab" clipPathUnits="userSpaceOnUse"><path d="M-383.541 533.32h1080v-1080h-1080Z"/></clipPath><clipPath id="ac" clipPathUnits="userSpaceOnUse"><path d="M-541.107 504.9h1080v-1080h-1080Z"/></clipPath><clipPath id="ad" clipPathUnits="userSpaceOnUse"><path d="M-539.812 504.143h1080v-1080h-1080Z"/></clipPath><clipPath id="ae" clipPathUnits="userSpaceOnUse"><path d="M-33.592-19.14c18.128-7.998 38.38-1.888 45.236 13.651l-65.645 28.964C-60.856 7.937-51.72-11.142-33.592-19.14"/></clipPath><clipPath id="af" clipPathUnits="userSpaceOnUse"><path d="M-566.427 504.9h1080v-1080h-1080Z"/></clipPath><clipPath id="ag" clipPathUnits="userSpaceOnUse"><path d="M-565.132 505.657h1080v-1080h-1080Z"/></clipPath><clipPath id="ah" clipPathUnits="userSpaceOnUse"><path d="M-11.644-5.489c6.856-15.539 27.11-21.649 45.235-13.65 18.128 7.997 27.265 27.076 20.41 42.614z"/></clipPath><clipPath id="ai" clipPathUnits="userSpaceOnUse"><path d="M-568.122 554.155h1080v-1080h-1080Z"/></clipPath><clipPath id="aj" clipPathUnits="userSpaceOnUse"><path d="M-569.986 547.943h1080v-1080h-1080Z"/></clipPath><clipPath id="ak" clipPathUnits="userSpaceOnUse"><path d="M-568.54 547.545h1080v-1080h-1080Z"/></clipPath><clipPath id="al" clipPathUnits="userSpaceOnUse"><path d="M-555.283 542.685h1080v-1080h-1080Z"/></clipPath><clipPath id="am" clipPathUnits="userSpaceOnUse"><path d="M-459.337 470.888h1080v-1080h-1080Z"/></clipPath><clipPath id="an" clipPathUnits="userSpaceOnUse"><path d="M-629.55 456.495h1080v-1080h-1080Z"/></clipPath></defs><path d="M0 0h1080v1080H0Z" style="fill:#fff;fill-opacity:1;fill-rule:nonzero;stroke:none" transform="matrix(1.33333 0 0 -1.33333 0 1440)"/><path d="M0 0c-28.506 0-55.307 11.101-75.464 31.258l-164.773 164.773c-41.61 41.61-41.61 109.315 0 150.926L-75.464 511.73C-55.307 531.887-28.506 542.988 0 542.988c28.505 0 55.305-11.101 75.463-31.258l164.772-164.773c20.156-20.156 31.258-46.956 31.258-75.463s-11.102-55.307-31.259-75.463L75.463 31.258C55.305 11.101 28.505 0 0 0" clip-path="url(#a)" style="fill:#f05924;fill-opacity:1;fill-rule:nonzero;stroke:none" transform="matrix(1.33333 0 0 -1.33333 715.605 1066.564)"/><path d="M0 0c-24.211.097-47.889 8.344-66.627 23.757-4.688 3.857-8.908 8.194-13.193 12.478l-44.037 44.037-61.378 61.378-46.436 46.436c-2.501 2.501-5.01 4.995-7.504 7.504-14.864 14.953-25.013 34.047-28.943 54.775-3.875 20.441-1.562 42.018 6.645 61.145 5.506 12.83 13.559 24.148 23.406 33.995l34.902 34.903 60.134 60.134 53.128 53.128 13.672 13.671c9.349 9.35 19.791 17.26 31.817 22.883 21.758 10.174 46.973 12.442 70.245 6.588 18.574-4.674 35.375-14.477 48.91-27.981 10.475-10.452 20.928-20.928 31.392-31.393l59.467-59.467 54.76-54.76c12.013-12.013 25.222-23.672 34.175-38.239 12.601-20.501 17.681-45.081 14.561-68.923-2.993-22.88-13.711-44.14-29.942-60.477-9.227-9.286-18.514-18.514-27.77-27.77l-58.241-58.242-56.361-56.362-17.401-17.4c-4.758-4.759-9.467-9.515-14.789-13.673C46.176 7.734 23.324.094 0 0c-1.93-.008-1.934-3.008 0-3 23.702.095 46.897 7.778 65.725 22.236 5.643 4.334 10.626 9.289 15.636 14.298l44.084 44.085 62.271 62.272 46.748 46.749c3.103 3.103 6.275 6.155 9.278 9.357 16.085 17.154 26.2 39.255 28.658 62.64 2.474 23.534-2.874 47.675-15.274 67.849-5.29 8.606-11.888 16.09-18.995 23.196l-41.04 41.041-62.052 62.051-49.199 49.201c-3.066 3.066-6.124 6.14-9.199 9.198-14.748 14.668-33.403 25.065-53.783 29.408-23.044 4.911-47.434 2.207-68.786-7.766-12.207-5.702-22.847-13.775-32.336-23.264l-37.72-37.72-61.587-61.587-51.592-51.592q-5.734-5.73-11.465-11.465c-10.95-10.959-19.588-23.89-25.153-38.374-15.125-39.363-5.446-85.121 24.201-115.059 9.068-9.156 18.224-18.225 27.336-27.337l59.17-59.17 56.983-56.984c11.03-11.03 21.812-23.345 34.442-32.587C-45.215 4.186-22.801-2.908 0-3c1.931-.008 1.933 2.992 0 3" clip-path="url(#b)" style="fill:#000;fill-opacity:1;fill-rule:nonzero;stroke:none" transform="matrix(1.33333 0 0 -1.33333 715.605 1064.564)"/><path d="m0 0 168.652 168.652c33.025 33.025 86.57 33.025 119.595 0L456.899 0c33.025-33.025 33.025-86.569 0-119.595L288.247-288.247c-33.025-33.025-86.57-33.025-119.595 0L0-119.595C-33.025-86.569-33.025-33.025 0 0" clip-path="url(#c)" style="fill:#ff9f00;fill-opacity:1;fill-rule:nonzero;stroke:none" transform="matrix(1.33333 0 0 -1.33333 411.004 624.842)"/><path d="m0 0 25.63 25.63 56.438 56.438 57.521 57.521c9.635 9.635 19.246 19.293 28.904 28.904 12.757 12.695 29.239 21.089 47.081 23.654 20.394 2.932 41.541-1.983 58.562-13.58 5.945-4.05 11.004-8.979 16.054-14.029l16.017-16.017 54.533-54.534 58.959-58.959 33.908-33.907c9.615-9.615 17.082-20.953 21.318-33.935 6.344-19.439 5.323-41.049-3.05-59.732-4.583-10.226-11.24-18.97-19.118-26.848l-13.397-13.397-51.803-51.802-60.128-60.129-38.449-38.449c-6.496-6.496-13.371-12.416-21.47-16.898-18.043-9.985-39.622-12.849-59.66-8.012-15.177 3.663-28.767 11.586-39.784 22.592-3.524 3.52-7.043 7.043-10.565 10.565l-48.648 48.648-60.718 60.717-42.742 42.742c-3.689 3.69-7.472 7.312-10.804 11.336-13.233 15.985-19.924 36.78-18.778 57.472C-23.064-33.689-14.31-14.423 0 0c1.393 1.404-.777 3.577-2.171 2.171-14.746-14.861-23.739-34.64-25.052-55.553-1.283-20.44 4.922-41.083 17.343-57.373 3.787-4.965 8.165-9.296 12.56-13.691l17.056-17.056 55.81-55.81 59.067-59.067c10.48-10.48 20.953-20.969 31.441-31.441 11.385-11.368 25.597-19.571 41.286-23.296 19.913-4.728 41.243-2.182 59.449 7.184 15.093 7.764 26.388 20.615 38.22 32.448l53.426 53.425 60.452 60.452 36.266 36.267c8.446 8.446 15.452 17.944 20.137 29.001 7.884 18.608 8.962 39.824 2.98 59.134-4.271 13.787-12.015 26.02-22.191 36.196l-11.554 11.554-50.23 50.23-61.268 61.268-40.987 40.987c-5.437 5.437-10.973 10.655-17.438 14.915-17.035 11.224-37.971 15.99-58.191 13.389-18.91-2.433-36.486-11.145-49.996-24.577-2.791-2.775-5.566-5.566-8.349-8.349l-47.075-47.075-61.307-61.306L4.521 8.863l-6.692-6.692C-3.57.772-1.4-1.4 0 0" clip-path="url(#d)" style="fill:#000;fill-opacity:1;fill-rule:nonzero;stroke:none" transform="matrix(1.33333 0 0 -1.33333 412.452 626.29)"/><path d="M0 0c0-37.118-30.09-67.208-67.208-67.208S-134.416-37.118-134.416 0s30.09 67.208 67.208 67.208S0 37.118 0 0" clip-path="url(#e)" style="fill:#23a155;fill-opacity:1;fill-rule:nonzero;stroke:none" transform="matrix(1.33333 0 0 -1.33333 1142.944 715.801)"/><path d="M0 0c-.035-13.649-4.274-27.005-12.186-38.136-7.625-10.729-18.569-19.092-30.94-23.594-12.953-4.713-27.272-5.252-40.537-1.495-12.769 3.617-24.227 11.16-32.701 21.362-8.596 10.348-13.86 23.37-14.863 36.784-1.019 13.641 2.197 27.385 9.288 39.092 6.843 11.297 17.07 20.362 29.08 25.849 12.461 5.694 26.752 7.279 40.172 4.56 13.119-2.659 25.218-9.346 34.473-19.013C-8.97 35.752-2.856 23.366-.772 10.164-.241 6.804-.009 3.401 0 0c.005-1.93 3.005-1.934 3 0-.036 14.193-4.429 28.221-12.691 39.784-8.073 11.299-19.438 19.999-32.48 24.781-13.464 4.937-28.497 5.462-42.289 1.553-13.337-3.781-25.426-11.68-34.235-22.386-8.977-10.912-14.429-24.386-15.519-38.48-1.096-14.187 2.311-28.607 9.685-40.78 7.148-11.801 17.874-21.383 30.458-27.062 13.168-5.942 28.021-7.594 42.182-4.724 13.588 2.753 26.213 9.774 35.796 19.784C-6.437-37.443.065-24.439 2.173-10.623 2.711-7.105 2.991-3.559 3 0 3.005 1.931.005 1.933 0 0" clip-path="url(#f)" style="fill:#000;fill-opacity:1;fill-rule:nonzero;stroke:none" transform="matrix(1.33333 0 0 -1.33333 1140.944 715.801)"/><path d="M0 0c0-27.249-22.09-49.338-49.338-49.338S-98.677-27.249-98.677 0s22.09 49.338 49.339 49.338S0 27.249 0 0" clip-path="url(#g)" style="fill:#ffe564;fill-opacity:1;fill-rule:nonzero;stroke:none" transform="matrix(1.33333 0 0 -1.33333 1119.118 715.801)"/><path d="M0 0c-.069-19.878-12.728-38.223-31.508-44.983-9.436-3.397-19.831-3.775-29.479-1.026-9.285 2.646-17.594 8.141-23.758 15.56-12.834 15.447-14.419 38.054-4.036 55.205 10.349 17.098 30.882 26.145 50.487 22.134C-18.943 42.93-3.732 27.026-.581 7.537-.178 5.046-.009 2.522 0 0c.007-1.93 3.007-1.934 3 0-.037 10.493-3.267 20.869-9.379 29.418-5.979 8.364-14.366 14.792-24.018 18.344-19.978 7.354-43.193 1.006-56.678-15.444A51.17 51.17 0 0 1-98.53 3.839c-.81-10.524 1.746-21.237 7.244-30.25 5.309-8.705 13.259-15.784 22.575-19.949a51.4 51.4 0 0 1 30.882-3.489C-17.299-45.796-.833-28.687 2.365-7.997 2.774-5.348 2.991-2.681 3 0 3.007 1.931.007 1.933 0 0" clip-path="url(#h)" style="fill:#000;fill-opacity:1;fill-rule:nonzero;stroke:none" transform="matrix(1.33333 0 0 -1.33333 1117.118 715.801)"/><path d="M0 0c0-37.118-30.09-67.208-67.208-67.208S-134.416-37.118-134.416 0s30.09 67.208 67.208 67.208S0 37.118 0 0" clip-path="url(#i)" style="fill:#23a155;fill-opacity:1;fill-rule:nonzero;stroke:none" transform="matrix(1.33333 0 0 -1.33333 476.277 715.801)"/><path d="M0 0c-.035-13.649-4.274-27.005-12.186-38.136-7.626-10.729-18.569-19.092-30.94-23.594-12.953-4.713-27.272-5.252-40.537-1.495-12.769 3.617-24.227 11.16-32.701 21.362-8.596 10.348-13.86 23.37-14.863 36.784-1.019 13.641 2.197 27.385 9.288 39.092 6.843 11.297 17.07 20.362 29.079 25.849 12.462 5.694 26.753 7.279 40.173 4.56 13.119-2.659 25.218-9.346 34.473-19.013C-8.97 35.752-2.856 23.366-.772 10.164-.241 6.804-.009 3.401 0 0c.005-1.93 3.005-1.934 3 0-.037 14.193-4.429 28.221-12.691 39.784-8.073 11.299-19.438 19.999-32.48 24.781-13.464 4.937-28.497 5.462-42.289 1.553-13.337-3.781-25.426-11.68-34.235-22.386-8.977-10.912-14.429-24.386-15.519-38.48-1.096-14.187 2.311-28.607 9.685-40.78 7.148-11.801 17.874-21.383 30.457-27.062 13.168-5.942 28.022-7.594 42.182-4.724 13.589 2.753 26.214 9.774 35.797 19.784C-6.437-37.443.065-24.439 2.173-10.623 2.71-7.105 2.991-3.559 3 0 3.005 1.931.005 1.933 0 0" clip-path="url(#j)" style="fill:#000;fill-opacity:1;fill-rule:nonzero;stroke:none" transform="matrix(1.33333 0 0 -1.33333 474.277 715.801)"/><path d="M0 0c0-27.249-22.09-49.338-49.338-49.338S-98.677-27.249-98.677 0s22.09 49.338 49.339 49.338S0 27.249 0 0" clip-path="url(#k)" style="fill:#ffe564;fill-opacity:1;fill-rule:nonzero;stroke:none" transform="matrix(1.33333 0 0 -1.33333 452.451 715.801)"/><path d="M0 0c-.069-19.878-12.728-38.223-31.508-44.983-9.436-3.397-19.831-3.775-29.479-1.026-9.285 2.646-17.594 8.141-23.758 15.56-12.834 15.447-14.419 38.054-4.036 55.205 10.349 17.098 30.882 26.145 50.487 22.134C-18.943 42.93-3.732 27.026-.581 7.537-.178 5.046-.009 2.522 0 0c.007-1.93 3.007-1.934 3 0-.037 10.493-3.267 20.869-9.379 29.418-5.979 8.364-14.366 14.792-24.018 18.344-19.978 7.354-43.193 1.006-56.678-15.444A51.17 51.17 0 0 1-98.53 3.839c-.81-10.524 1.746-21.237 7.244-30.25 5.309-8.705 13.259-15.784 22.575-19.949a51.4 51.4 0 0 1 30.882-3.489C-17.299-45.796-.833-28.687 2.365-7.997 2.774-5.348 2.991-2.681 3 0 3.007 1.931.007 1.933 0 0" clip-path="url(#l)" style="fill:#000;fill-opacity:1;fill-rule:nonzero;stroke:none" transform="matrix(1.33333 0 0 -1.33333 450.451 715.801)"/><path d="M0 0c-31.688 5.507-59.19 15.129-79.531 27.824-29.908 18.667-36.568 38.791-36.89 52.387-.576 24.419 18.362 46.229 53.326 61.413 31.082 13.499 72.288 20.674 116.024 20.203 19.499-.21 38.633-1.923 56.87-5.093 31.689-5.507 59.19-15.128 79.531-27.824 29.908-18.666 36.568-38.791 36.889-52.386.577-24.419-18.36-46.23-53.325-61.413C141.812 1.612 100.606-5.563 56.87-5.093 37.371-4.883 18.238-3.169 0 0" clip-path="url(#m)" style="fill:#416fe5;fill-opacity:1;fill-rule:nonzero;stroke:none" transform="matrix(1.33333 0 0 -1.33333 653.07 1090.6)"/><path d="M0 0c-27.893 4.876-56.253 13.042-80.315 28.39-17.414 11.108-34.278 28.024-35.043 49.926-.805 23.069 16.687 40.681 35.143 51.785 24.139 14.525 52.519 21.749 80.191 25.655 32.243 4.553 65.387 4.451 97.634.007 28.716-3.958 57.851-11.279 83.433-25.264 19.33-10.567 39.426-26.85 42.918-49.982 3.187-21.122-10.076-39.277-26.379-51.135C175.04 12.987 146.88 4.733 119.748-.075c-31.6-5.6-64.183-6.371-96.087-3.157A338 338 0 0 0 0 0c-1.796.31-2.567-2.439-.759-2.751C32.218-8.449 66.144-9.48 99.41-5.832c28.99 3.178 58.509 9.772 84.489 23.429 20.048 10.538 40.352 27.397 43.089 51.343 2.385 20.869-10.161 39.251-25.842 51.743-22.653 18.046-51.525 27.784-79.513 33.763-32.788 7.004-66.782 8.951-100.194 6.456-29.382-2.195-59.095-7.784-86.193-19.666-21.583-9.464-45.203-24.864-51.822-48.985-2.304-8.4-2.17-17.363.272-25.715 2.96-10.119 9.082-19.026 16.503-26.41 10.008-9.958 22.306-17.497 35.013-23.504 13.061-6.175 26.817-10.831 40.801-14.413C-16.314.244-8.56-1.388-.759-2.751 1.037-3.065 1.808-.316 0 0" clip-path="url(#n)" style="fill:#000;fill-opacity:1;fill-rule:nonzero;stroke:none" transform="matrix(1.33333 0 0 -1.33333 653.575 1088.766)"/><path d="M0 0c.887-37.563-67.518-67.269-152.786-66.352S-307.897-34.24-308.784 3.323s67.518 67.269 152.786 66.351C-70.729 68.757-.887 37.562 0 0" clip-path="url(#o)" style="fill:#ffe564;fill-opacity:1;fill-rule:nonzero;stroke:none" transform="matrix(1.33333 0 0 -1.33333 932.124 988.326)"/><path d="M0 0c.335-17.13-13.954-29.95-27.429-38.15-21.42-13.033-46.739-19.498-71.317-23.208-31.181-4.707-63.308-4.728-94.545-.504-26.262 3.551-52.997 10.059-76.517 22.598-8.78 4.681-17.239 10.299-24.134 17.532-5.343 5.606-9.736 12.347-11.288 20.028-3.301 16.33 8.267 30.197 20.701 39.107 8.902 6.379 18.885 11.204 29.103 15.073 12.328 4.669 25.142 8.017 38.086 10.459 30.747 5.802 62.552 6.658 93.655 3.558 27.325-2.724 55.077-8.546 80.109-20.134 9.515-4.405 18.797-9.708 26.756-16.585 6.211-5.366 11.896-11.883 14.803-19.668C-.805 6.859-.096 3.466 0 0c.053-1.924 3.049-1.932 2.996 0-.503 18.168-15.527 31.825-29.863 40.789-22.214 13.891-48.481 21.252-74.099 25.64-31.702 5.428-64.382 6.275-96.327 2.55-26.362-3.074-53.33-9.093-76.905-21.687-14.901-7.961-31.536-20.477-34.214-38.4-2.634-17.634 9.758-32.264 23.079-42.024 9.168-6.718 19.434-11.846 29.946-16.092 12.816-5.176 26.178-8.971 39.695-11.812 31.318-6.582 63.808-8.306 95.686-5.751 27.568 2.21 55.608 7.528 80.886 19.096 9.524 4.359 18.754 9.731 26.56 16.772 6.112 5.514 11.398 12.266 13.965 20.175A32.8 32.8 0 0 1 2.996 0C2.958 1.925-.038 1.932 0 0" clip-path="url(#p)" style="fill:#000;fill-opacity:1;fill-rule:nonzero;stroke:none" transform="matrix(1.33333 0 0 -1.33333 930.127 988.326)"/><path d="M3.152 0q-.552 0-.55-.539v-27.856q-.002-.537.55-.539h15.13q.537.001.538.54v4.687q-.001.54-.539.539H9.832v6.164h7.711c.357 0 .54.185.54.55v3.974c0 .36-.183.539-.54.539h-7.71v6.14h8.448q.538.001.54.551v4.711q-.002.54-.54.539zm22.503 0q-.54 0-.539-.539v-3.516q0-.501.328-.656l4.43-2.625v-2.262l-4.43-2.39q-.329-.185-.328-.668v-6.926q0-.233.07-.387.08-.15.235-.27l4.617-3.386q.245-.163.399-.21.15-.046.304-.048h5.274q.537.001.539.551v3.398q0 .378-.059.504-.047.131-.223.223l-4.101 2.203v2.52l4.383 2.18q.374.152.375.644v6.668q0 .54-.375.867L31.937-.281q-.352.28-.88.281zm22.576 0q-.493 0-.867-.363l-3.62-3.61a1.2 1.2 0 0 1-.352-.867v-13.98h-.914q-.54 0-.54-.54v-3.972q0-.55.54-.55h.914v-2.708q-.002-.55.55-.55h5.766q.55 0 .55.55v2.707h2.098q.55.001.551.551v3.973q0 .54-.55.539h-2.098v11.59q0 .411.258.68l2.12 2.144c.147.135.223.351.223.656v3.211q-.001.54-.539.539zM58.27-.176q-.553.002-.551-.586v-6.902q-.002-.585.55-.586h6.938q.55 0 .55.586v6.902q0 .588-.55.586zm0 0" aria-label="Est." style="fill:#ffa1db;fill-opacity:1;fill-rule:nonzero;stroke:none" transform="translate(341.937 731.805)scale(1.33333)"/><path d="M0 0q.543 0 .543.543v4.71q0 .543-.543.543h-8.444v6.143h7.707q.542 0 .542.542v3.973q0 .542-.542.543h-7.707v6.165H0q.543 0 .543.542v4.69q0 .542-.543.543h-15.13q-.542 0-.543-.543V.543q0-.543.543-.543Z" clip-path="url(#q)" style="fill:none;stroke:#000;stroke-width:2;stroke-linecap:butt;stroke-linejoin:miter;stroke-miterlimit:10;stroke-dasharray:none;stroke-opacity:1" transform="matrix(1.33333 0 0 -1.33333 366.307 731.805)"/><path d="M0 0q.522 0 .868.282l4.624 3.842q.369.327.369.869v6.664q0 .498-.369.652l-4.385 2.17v2.518l4.103 2.214a.45.45 0 0 1 .227.217q.055.13.055.5v3.408q0 .542-.543.542H-.325q-.153 0-.305-.043a1.4 1.4 0 0 1-.391-.217l-4.623-3.387a.7.7 0 0 1-.228-.26.9.9 0 0 1-.076-.391v-6.925q0-.477.326-.673l4.428-2.387V7.337l-4.428-2.626q-.326-.153-.326-.651V.543q0-.543.543-.543Z" clip-path="url(#r)" style="fill:none;stroke:#000;stroke-width:2;stroke-linecap:butt;stroke-linejoin:miter;stroke-miterlimit:10;stroke-dasharray:none;stroke-opacity:1" transform="matrix(1.33333 0 0 -1.33333 383.384 731.805)"/><path d="M0 0q.542 0 .543.543v3.213q0 .455-.218.65l-2.127 2.15a.9.9 0 0 0-.261.673V18.82H.043q.543 0 .543.543v3.973q0 .542-.543.542h-2.106v2.714q0 .542-.542.543h-5.774q-.543 0-.543-.543v-2.714h-.912q-.542 0-.542-.542v-3.973q0-.543.542-.543h.912V4.841q0-.5.348-.868L-4.949.369Q-4.58 0-4.081 0Z" clip-path="url(#s)" style="fill:none;stroke:#000;stroke-width:2;stroke-linecap:butt;stroke-linejoin:miter;stroke-miterlimit:10;stroke-dasharray:none;stroke-opacity:1" transform="matrix(1.33333 0 0 -1.33333 411.719 731.805)"/><path d="M0 0q.542 0 .543.586v6.903q0 .586-.543.586h-6.946q-.544 0-.543-.586V.586q0-.586.543-.586Z" clip-path="url(#t)" style="fill:none;stroke:#000;stroke-width:2;stroke-linecap:butt;stroke-linejoin:miter;stroke-miterlimit:10;stroke-dasharray:none;stroke-opacity:1" transform="matrix(1.33333 0 0 -1.33333 428.911 731.573)"/><path d="M1.724 0c-.3 0-.446-.144-.446-.434l-.011-5.718a.5.5 0 0 1 .07-.282q.07-.114.187-.28l5.555-6.763v-3.574l-5.555-2.133q-.258-.092-.257-.527v-3.27q-.001-.444.433-.445h4.453q.246 0 .387.07t.316.165l5.801 2.543q.222.095.258.257.035.155.035.446v7.593q-.002.178-.082.258a2.4 2.4 0 0 0-.21.27l-5.51 6.691v.703h6.293q.445.001.446.446v3.55q-.001.435-.446.434zm18.132 0q-1.01.001-1.372-.41-.351-.408-.351-1.207v-20.168q0-.795.351-1.207.36-.41 1.371-.41l12.07-.059q1.02 0 1.372.422.351.413.351 1.195v20.227q0 .799-.351 1.207-.351.411-1.371.41Zm4.124-4.395h3.82v-14.671h-3.82ZM41.01 0Q40 .001 39.64-.41q-.352-.409-.352-1.207v-20.168q0-.795.352-1.207.36-.41 1.37-.41l12.071-.059q1.02 0 1.371.422.352.413.352 1.195v20.227q0 .799-.352 1.207-.351.411-1.37.41zm4.126-4.395h3.82v-14.671h-3.82ZM62.163 0q-1.01.001-1.371-.41-.351-.409-.352-1.207v-20.168q0-.795.352-1.207.36-.41 1.371-.41l12.07-.059q1.02 0 1.372.422.351.413.351 1.195v20.227q0 .799-.351 1.207-.352.411-1.372.41zm4.125-4.395h3.82v-14.671h-3.82zm0 0" aria-label="2000" style="fill:#ffa1db;fill-opacity:1;fill-rule:nonzero;stroke:none" transform="translate(1002.276 729.445)scale(1.33333)"/><path d="M0 0q.438 0 .438.439v3.549q0 .44-.438.44h-6.29v.702l5.499 6.695q.14.192.22.272.079.078.079.255v7.59q0 .298-.035.457-.036.158-.264.246l-5.798 2.547-.316.159a.9.9 0 0 1-.387.07h-4.445q-.44 0-.44-.44v-3.268q0-.44.264-.526l5.553-2.144v-3.567l-5.553-6.764a3 3 0 0 1-.193-.273.54.54 0 0 1-.071-.29l.018-5.71q0-.44.439-.439Z" clip-path="url(#u)" style="fill:none;stroke:#000;stroke-width:2;stroke-linecap:butt;stroke-linejoin:miter;stroke-miterlimit:10;stroke-dasharray:none;stroke-opacity:1" transform="matrix(1.33333 0 0 -1.33333 1020.198 729.445)"/><path d="M0 0q1.02 0 1.371.413.351.412.352 1.203v20.223q0 .792-.352 1.204-.351.413-1.371.413l-12.07-.053q-1.001 0-1.362-.413-.36-.412-.36-1.203V1.616q0-.79.36-1.203T-12.07 0Zm-7.941 19.063h3.813V4.392h-3.813z" clip-path="url(#v)" style="fill:none;stroke:#000;stroke-width:2;stroke-linecap:butt;stroke-linejoin:miter;stroke-miterlimit:10;stroke-dasharray:none;stroke-opacity:1" transform="matrix(1.33333 0 0 -1.33333 1044.841 729.445)"/><path d="M0 0q1.02 0 1.371.413.351.412.352 1.203v20.223q0 .792-.352 1.204-.351.413-1.371.413l-12.07-.053q-1.001 0-1.362-.413-.36-.412-.36-1.203V1.616q0-.79.36-1.203T-12.07 0Zm-7.941 19.063h3.813V4.392h-3.813z" clip-path="url(#w)" style="fill:none;stroke:#000;stroke-width:2;stroke-linecap:butt;stroke-linejoin:miter;stroke-miterlimit:10;stroke-dasharray:none;stroke-opacity:1" transform="matrix(1.33333 0 0 -1.33333 1073.07 729.445)"/><path d="M0 0q1.02 0 1.371.413.351.412.352 1.203v20.223q0 .792-.352 1.204-.351.413-1.371.413l-12.07-.053q-1.001 0-1.362-.413-.36-.412-.36-1.203V1.616q0-.79.36-1.203T-12.07 0Zm-7.941 19.063h3.813V4.392h-3.813z" clip-path="url(#x)" style="fill:none;stroke:#000;stroke-width:2;stroke-linecap:butt;stroke-linejoin:miter;stroke-miterlimit:10;stroke-dasharray:none;stroke-opacity:1" transform="matrix(1.33333 0 0 -1.33333 1101.298 729.445)"/><path d="M5.322-.002Q4.16.003 4.157-1.157l.008-8.698q-.005-.596.07-.963.07-.375.536-.611l12.124-5.55-.003-8.23-11.94-7.407q-.787-.46-.785-1.387L4.16-50.988q.002-.738.09-1.081.097-.352.696-.78l12.176-8.212a6 6 0 0 1 .857-.443q.392-.159 1.004-.166l12.484-.003q1.148.007 1.143 1.168l.006 7.854q0 1.02-.693 1.388l-12.126 5v8.557l12.128 6.946q.685.325.693 1.483l-.009 20.116a3.4 3.4 0 0 1-.109.788.88.88 0 0 1-.49.598L17.49-.548c-.18.084-.4.192-.66.333q-.395.22-.77.218zm57.741.007q-1.102-.01-1.848-.787l-9.254-9.267q-.783-.728-.784-1.844l-.003-48.613q.005-1.16 1.155-1.165l13.094.005q1.148-.003 1.142 1.156l.004 47.229q-.002.927.925.927h7.596l-.003-48.155q.006-1.16 1.167-1.166l13.094.005q1.16-.003 1.154 1.156L90.5-1.164q.003 1.16-1.155 1.166zm47.194-.006q-1.162.003-1.165-1.156l.008-8.698q-.005-.596.07-.963.07-.376.536-.61l12.124-5.551-.004-8.23-11.94-7.406c-.523-.307-.787-.77-.784-1.388l-.01-16.985c.004-.493.033-.85.091-1.08q.097-.354.696-.78l12.176-8.213a6 6 0 0 1 .857-.443q.392-.159 1.004-.165l12.484-.003q1.148.006 1.143 1.167l.006 7.854q0 1.02-.693 1.389l-12.126 5v8.557l12.128 6.945q.685.324.693 1.483l-.008 20.116q-.005.377-.11.788a.88.88 0 0 1-.49.598l-14.52 7.228c-.18.083-.4.191-.66.332q-.395.219-.77.219zM157.261 0q-1.151.004-1.154-1.155l.002-59.35q.005-1.16 1.155-1.166l13.094.005c.765 0 1.147.382 1.142 1.156l.002 21.968 11.441-.001-.002-21.968q.005-1.16 1.156-1.153l13.105-.007q1.149-.003 1.142 1.156l-.002 59.35Q198.345-.005 197.2 0l-13.106.007q-1.151-.008-1.154-1.167l.003-25.075-11.44.001-.004 25.074q.003 1.16-1.143 1.166zm62.184 0c-.768 0-1.153-.382-1.154-1.156l.002-59.35q.005-1.16 1.155-1.166l13.094.006q1.149-.003 1.142 1.156l-.002 59.35q.003 1.158-1.143 1.165zm0 0" aria-label="SUSHI" style="fill:#fffbe9;fill-opacity:1;fill-rule:nonzero;stroke:none" transform="rotate(1.412 -41305.413 23310.505)scale(1.33333)"/><path d="M0 0a1.65 1.65 0 0 1 .769.189q.398.199.679.332l14.701 6.857q.375.175.5.589.126.414.136.783l.496 20.12q.029 1.157-.657 1.499L4.676 37.605l.211 8.557 12.242 4.696q.703.352.727 1.371l.194 7.864q.029 1.155-1.127 1.183l-12.488.309q-.603.015-.999-.138a6.4 6.4 0 0 1-.867-.419l-12.367-7.932q-.612-.402-.713-.746-.101-.345-.119-1.084l-.419-16.976q-.022-.925.752-1.407l11.751-7.696-.203-8.232-12.255-5.252q-.468-.22-.547-.587a5.5 5.5 0 0 1-.093-.97l-.214-8.697Q-11.887.294-10.731.265z" clip-path="url(#y)" style="fill:none;stroke:#000;stroke-width:3;stroke-linecap:butt;stroke-linejoin:miter;stroke-miterlimit:10;stroke-dasharray:none;stroke-opacity:1" transform="matrix(1.33333 0 0 -1.33333 583.45 1025.785)"/><path d="M0 0q1.156-.028 1.185 1.128l1.463 59.345q.028 1.155-1.127 1.183l-13.09.323q-1.158.028-1.186-1.126l-1.187-48.152-7.585.187q-.926.022-.902.949l1.164 47.226q.028 1.154-1.128 1.183l-13.09.322q-1.156.03-1.185-1.126l-1.198-48.613q-.028-1.11.74-1.87l9.023-9.48q.72-.804 1.831-.832z" clip-path="url(#z)" style="fill:none;stroke:#000;stroke-width:3;stroke-linecap:butt;stroke-linejoin:miter;stroke-miterlimit:10;stroke-dasharray:none;stroke-opacity:1" transform="matrix(1.33333 0 0 -1.33333 681.2 1028.195)"/><path d="M0 0q.37-.008.769.189.398.199.679.332l14.701 6.857a.91.91 0 0 1 .501.589q.125.414.135.783l.496 20.12q.028 1.157-.657 1.499L4.677 37.605l.211 8.557 12.241 4.696q.703.352.728 1.371l.194 7.864q.029 1.155-1.128 1.183l-12.488.309q-.602.015-.998-.138a6 6 0 0 1-.868-.419l-12.367-7.931q-.612-.402-.713-.747t-.119-1.084l-.419-16.976q-.022-.926.753-1.406l11.751-7.697-.204-8.232-12.255-5.252q-.468-.22-.547-.587a5.5 5.5 0 0 1-.093-.97l-.214-8.697Q-11.888.294-10.73.265z" clip-path="url(#A)" style="fill:none;stroke:#000;stroke-width:3;stroke-linecap:butt;stroke-linejoin:miter;stroke-miterlimit:10;stroke-dasharray:none;stroke-opacity:1" transform="matrix(1.33333 0 0 -1.33333 723.382 1029.236)"/><path d="M0 0q1.156-.028 1.185 1.128l.618 25.069 11.425-.282L12.609.846Q12.58-.31 13.737-.339l13.09-.322q1.157-.03 1.185 1.127l1.463 59.345q.029 1.154-1.128 1.184l-13.09.322q-1.156.029-1.185-1.127l-.541-21.971-11.425.282.542 21.972q.028 1.155-1.127 1.183l-13.09.323q-1.158.028-1.186-1.126l-1.463-59.345Q-14.246.352-13.09.323z" clip-path="url(#B)" style="fill:none;stroke:#000;stroke-width:3;stroke-linecap:butt;stroke-linejoin:miter;stroke-miterlimit:10;stroke-dasharray:none;stroke-opacity:1" transform="matrix(1.33333 0 0 -1.33333 789.248 1030.86)"/><path d="M0 0q1.157-.028 1.186 1.128l1.462 59.345q.028 1.155-1.127 1.183l-13.09.323q-1.156.028-1.185-1.126l-1.463-59.345q-.03-1.156 1.128-1.185z" clip-path="url(#C)" style="fill:none;stroke:#000;stroke-width:3;stroke-linecap:butt;stroke-linejoin:miter;stroke-miterlimit:10;stroke-dasharray:none;stroke-opacity:1" transform="matrix(1.33333 0 0 -1.33333 872.195 1032.905)"/><path d="M0 0c6.673-.685 13.182 2.782 16.066 8.838 1.389 2.916 2.13 6.135 2.054 9.366-.181 7.687-4.979 15.087-11.924 18.389 7.776 9.801 4.085 26.412-7.11 31.998 11.632 8.505 9.817 29.522-3.102 35.907a14.4 14.4 0 0 1 3.249 3.704c6.869 11.188-3.465 25.133-16.297 22.359l-6.677-1.444.306 3.398c.81 8.99-6.385 16.823-15.406 16.486-8.162-.304-16.274-4.36-20.32-11.519-8.676 10.223-27.205 9.208-34.713-1.901-9.275 14.163-33.125 15.007-43.379 1.535-4.119 8.502-14.761 12.383-24.095 10.919s-17.446-7.24-24.223-13.822c-.674 7.374-8.911 12.134-16.305 11.726s-14.006-4.504-20.254-8.479c-3.315 6.578-10.764 10.832-18.114 10.344s-14.171-5.69-16.587-12.649c.979 5.237-12.105 3.97-12.105 3.97l-.081.182c-4.904 11.013-20.947 10.879-25.162-.416a15 15 0 0 1-.286-.839 17 17 0 0 1-.238-.845c-1.73-6.81.778-14.513 6.186-18.999-10.534-10.181-11.885-28.433-2.963-40.053-12.442-11.42-11.138-34.299 2.521-44.232-8.28-8.414-10.187-22.407-4.461-32.73s18.606-16.113 30.128-13.544c13.356-10.855 33.802-11.923 48.217-2.518 11.449-12.553 33.782-12.68 45.373-.258 10.267-11.594 31.199-10.909 40.685 1.333 8.99-9.783 25.002-12.174 36.457-5.444 2.012 1.182 4.074 2.66 6.405 2.538 2.062-.107 3.814-1.45 5.541-2.581 13.174-8.633 32.547-5.977 42.912 5.882a20 20 0 0 1 1.838-1.2c11.29-6.518 25.192 2.875 23.799 15.837z" clip-path="url(#D)" style="fill:#fffbe9;fill-opacity:1;fill-rule:nonzero;stroke:none" transform="matrix(1.33333 0 0 -1.33333 914.189 821.651)"/><path d="M0 0c4.42-.391 8.873.835 12.405 3.539 3.992 3.056 6.274 7.722 6.982 12.644 1.357 9.435-3.911 19.027-12.434 23.205l.304-2.356c8.292 10.688 4.762 28.113-7.414 34.354v-2.59c12.462 9.313 10.95 31.368-3.102 38.497l.304-2.355c6.045 5.035 7.583 13.749 3.636 20.541-3.701 6.37-11 9.488-18.162 8.024-2.224-.454-4.439-.959-6.659-1.439l1.899-1.447c.237 2.63.549 5.193.082 7.822-.658 3.699-2.675 7.193-5.538 9.624-6.36 5.399-15.246 4.582-22.378 1.171-4.318-2.064-7.975-5.351-10.381-9.495l2.356.304c-9.528 10.989-28.87 9.655-37.069-2.205h2.591c-7.824 11.726-24.428 14.883-36.817 8.98-3.473-1.655-6.562-4.099-8.918-7.142l2.355-.303c-4.157 8.311-13.844 12.4-22.818 11.929-10.859-.569-20.29-7.223-27.856-14.529l2.561-1.06c-.809 7.291-7.37 12.07-14.291 13.049-8.959 1.266-17.299-3.913-24.525-8.507l2.052-.538c-3.701 7.107-11.804 11.807-19.858 11.051-7.963-.748-14.874-6.224-17.584-13.714l2.892-.798c.993 6.592-9.357 6.267-13.551 5.869l1.295-.743c-2.945 6.613-10.136 10.164-17.195 8.756-8.159-1.627-12.556-9.636-11.828-17.553.493-5.36 2.974-10.433 7.086-13.938v2.121c-10.965-10.77-12.485-29.567-3.197-41.87l.234 1.818c-10.191-9.509-11.632-26.047-4.889-37.929 1.939-3.415 4.561-6.327 7.714-8.659l-.304 2.356c-6.877-7.118-9.611-17.608-7.467-27.233 2.142-9.614 9.455-17.121 18.607-20.441a29.13 29.13 0 0 1 15.987-1.108l-1.46.386c14.025-11.254 34.861-12.518 50.035-2.752l-1.818.234c9.495-10.247 25.513-12.537 38.047-6.943a29.7 29.7 0 0 1 9.448 6.686h-2.122c10.943-12.139 32.657-11.528 42.807 1.332h-2.121c9.074-9.708 24.373-12.439 36.325-6.715 1.585.759 3.016 1.781 4.581 2.571 2.235 1.128 3.953.868 6.054-.429 2.825-1.744 5.504-3.416 8.663-4.523 6.094-2.135 12.788-2.415 19.093-1.119 7.154 1.471 13.858 5.131 18.72 10.61l-1.818-.234c5.825-4.157 13.383-4.716 19.541-.886 5.688 3.536 9.073 10.118 8.353 16.818l-1.5-1.5zc1.919-.197 1.905 2.805 0 3l-12.065 1.238c-.749.077-1.581-.752-1.5-1.5.609-5.662-2.007-11.211-6.867-14.228-5.322-3.304-11.512-2.682-16.513.886-.509.363-1.407.228-1.817-.235-8.28-9.331-22.041-12.756-33.874-9.056-3.114.973-5.8 2.52-8.525 4.275-3.149 2.027-6.128 2.448-9.524.711-3.012-1.539-5.649-3.278-8.963-4.174-3.071-.83-6.256-1.112-9.429-.906-7.127.463-13.989 3.524-18.879 8.756-.507.542-1.63.623-2.121 0-9.178-11.629-28.618-12.367-38.564-1.333-.533.591-1.586.566-2.122 0-11.225-11.843-32.166-11.707-43.252.257-.433.468-1.277.583-1.817.235-13.178-8.481-31.154-8.2-44.119.598-.783.531-1.503 1.152-2.28 1.686-.874.599-1.555.345-2.544.17-1.818-.322-3.683-.398-5.525-.3-3.768.199-7.513 1.249-10.866 2.973-6.824 3.51-11.86 9.667-13.477 17.216-1.821 8.506.687 17.824 6.744 24.094.729.753.472 1.782-.303 2.355-12.923 9.56-13.882 30.993-2.218 41.876.438.409.62 1.308.235 1.818-8.497 11.256-7.365 28.32 2.729 38.235.544.535.614 1.598 0 2.121-5.842 4.979-8.465 14.314-4.313 21.181 3.04 5.027 9.584 6.761 14.918 4.582 3.058-1.25 5.291-3.678 6.62-6.663.194-.435.825-.787 1.295-.743 1.804.171 3.641.187 5.447.063 1.069-.073 5.483-.335 5.212-2.134-.285-1.889 2.224-2.646 2.892-.798 2.277 6.292 8.422 11.094 15.141 11.548 6.933.468 13.634-3.484 16.819-9.601.365-.7 1.393-.957 2.052-.538 6.328 4.022 13.519 8.73 21.358 8.269 5.684-.335 12.26-4.06 12.944-10.221.139-1.251 1.556-2.031 2.56-1.061 6.86 6.624 15.451 12.94 25.304 13.624 8.117.564 16.877-2.856 20.659-10.417.395-.79 1.779-1.049 2.356-.304 9.807 12.659 32.046 12.224 41.023-1.232.652-.976 1.934-.949 2.591 0 7.171 10.374 24.177 11.032 32.357 1.599.639-.738 1.898-.485 2.356.303 2.442 4.207 6.322 7.342 10.849 9.086 4.087 1.574 8.922 2.423 13.153.943 3.839-1.344 6.956-4.57 8.252-8.415 1.032-3.065.653-6.084.37-9.222-.093-1.028 1.028-1.634 1.899-1.446 2.202.476 4.4.976 6.606 1.428 3.817.783 7.71.018 10.886-2.262a13.4 13.4 0 0 0 .773-21.278c-.72-.601-.506-1.945.304-2.356 11.84-6.007 13.894-25.251 3.101-33.317-.832-.622-1.1-2.026 0-2.59C8.606 63.527 12.31 48.401 5.136 39.154c-.542-.699-.657-1.885.303-2.356 7.292-3.575 12.03-11.571 11.059-19.734-.502-4.22-2.376-8.383-5.762-11.047C7.678 3.612 3.838 2.66 0 3c-1.923.17-1.911-2.831 0-3" clip-path="url(#E)" style="fill:#000;fill-opacity:1;fill-rule:nonzero;stroke:none" transform="matrix(1.33333 0 0 -1.33333 914.189 823.651)"/><path d="M0 0s6.672-159.545 0-192.199c0 0 64.935-7.962 78.396 0 0 0 12.51 147.067-5.004 192.199z" clip-path="url(#F)" style="fill:#085624;fill-opacity:1;fill-rule:nonzero;stroke:none" transform="matrix(1.33333 0 0 -1.33333 684.229 593.154)"/><path d="M0 0c.224-5.358.42-10.717.613-16.075q.713-19.863 1.244-39.732c.451-16.879.804-33.761.986-50.645.175-16.27.222-32.548-.164-48.816-.157-6.614-.383-13.229-.797-19.833a236 236 0 0 0-.611-7.875c-.221-2.291-.45-4.283-.76-6.259a60 60 0 0 0-.457-2.565c-.212-1.043.441-1.775 1.446-1.899 5.384-.659 10.786-1.185 16.188-1.668 11.044-.986 22.128-1.733 33.218-1.855 5.23-.058 10.476.015 15.69.468 3.923.341 8.032.779 11.739 2.189 1.244.473 2.848.948 3.065 2.422.043.289.049.589.073.881q.193 2.378.372 4.755a1486 1486 0 0 1 2.838 49.07c.482 11.744.821 23.495.966 35.248.15 12.187.097 24.379-.301 36.56-.37 11.327-1.015 22.659-2.294 33.923-1.032 9.084-2.375 18.241-4.991 27.022A68 68 0 0 1 76.338.399c-.242.625-.739 1.101-1.446 1.101H1.5c-1.93 0-1.934-3 0-3h73.392L73.445-.399c4.424-11.45 5.945-24.068 7.124-36.204 1.558-16.051 2.042-32.202 2.139-48.321.1-16.449-.261-32.9-.899-49.335a1478 1478 0 0 0-2.062-39.428q-.408-6.225-.874-12.446c-.144-1.913-.48-3.903-.457-5.823.001-.08-.014-.163-.02-.243l.743 1.296c-1.47-.857-3.153-1.346-5.057-1.772-2.463-.552-4.973-.86-7.486-1.079-6.48-.564-13.009-.559-19.506-.4-12.52.308-25.026 1.286-37.481 2.562-2.705.277-5.41.563-8.109.893l1.446-1.898c.883 4.347 1.291 8.8 1.637 13.217.485 6.201.752 12.418.946 18.634.497 15.879.5 31.774.376 47.659-.134 17.043-.46 34.085-.888 51.123a4329 4329 0 0 1-1.267 42.02c-.229 6.551-.328 13.13-.739 19.673L3 0C2.92 1.924-.081 1.934 0 0" clip-path="url(#G)" style="fill:#000;fill-opacity:1;fill-rule:nonzero;stroke:none" transform="matrix(1.33333 0 0 -1.33333 682.229 593.154)"/><path d="M0 0c-11.441.966-15.297 17.907-15.311 29.385-.007 5.623 1.304 11.251.612 16.832-.545 4.402-2.316 8.571-2.998 12.954-4.734 30.427 27.463 40.421 50.185 48.809 38.183 14.095 80.444 19.902 121.035 19.255 42.548-.679 85.48-11.078 121.438-33.827 9.407-5.952 18.333-12.743 26.039-20.775a107.4 107.4 0 0 0 24.531-40.957c.974-2.993 1.813-6.265.772-9.234-.929-2.65-3.25-4.621-5.803-5.79-6.181-2.83-13.499-1.472-19.784 1.119s-12.079 6.345-18.545 8.443c-7.463 2.421-15.452 2.523-23.298 2.601L54.362 30.872c-11.236.113-21.375-6.315-26.49-16.317C23.727 6.451 15.666-1.323 0 0" clip-path="url(#H)" style="fill:#f05924;fill-opacity:1;fill-rule:nonzero;stroke:none" transform="matrix(1.33333 0 0 -1.33333 511.388 713.094)"/><path d="M0 0c-9.786.985-12.702 14.334-13.511 22.212-.667 6.491.565 12.807.513 19.281-.057 6.968-3.284 13.346-3.624 20.283-.457 9.294 3.327 17.528 10.133 23.759C.373 91.818 9.098 95.886 17.649 99.323c24.34 9.782 49.526 17.028 75.481 20.962 28.578 4.332 58.115 5.524 86.869 2.248 27.904-3.18 55.485-10.899 80.408-23.963 12.674-6.644 24.894-14.56 35.356-24.372a106.8 106.8 0 0 0 23.804-32.912 103 103 0 0 0 3.871-9.585c1.154-3.327 2.831-7.475 1.186-10.909-3.031-6.325-12.16-6.333-17.92-4.924-7.032 1.719-13.152 5.772-19.741 8.61-6.621 2.851-13.589 3.9-20.753 4.188-15.685.63-31.445.392-47.141.55l-48.04.483-95.735.963-12.01.121c-3.717.037-7.493.278-11.203.021-5.605-.387-11.075-2.314-15.647-5.591-4.708-3.375-7.72-7.695-10.536-12.66-2.229-3.931-5.333-7.316-9.292-9.544C11.545.161 5.705-.442 0 0c-1.925.149-1.916-2.852 0-3 5.953-.461 12.021.247 17.378 3.018 4.183 2.164 7.624 5.529 10.169 9.466 1.415 2.188 2.461 4.574 3.983 6.699a28.2 28.2 0 0 0 6.418 6.44c5.174 3.718 11.126 5.303 17.444 5.239l98.824-.994 99.166-.997c7.805-.079 15.79.199 23.482-1.335 7.524-1.501 13.943-5.419 20.829-8.572 6.176-2.827 13.128-4.903 19.938-3.36 6.439 1.46 11.421 6.333 10.498 13.259-.465 3.491-1.832 6.906-3.097 10.175a111 111 0 0 1-4.131 9.376 108.4 108.4 0 0 1-11.048 17.681c-8.825 11.503-19.943 20.884-32.052 28.771-24.175 15.747-51.781 25.862-80.09 31.049-29.158 5.343-59.17 5.458-88.597 2.404-15.075-1.564-30.062-4.057-44.795-7.625-13.272-3.215-26.144-7.518-38.948-12.227C8.767 99.36-12.75 91.441-18.372 72.653c-1.446-4.834-1.571-9.944-.842-14.912.547-3.724 1.859-7.258 2.64-10.929.832-3.911.568-7.841.21-11.791-.937-10.365-.464-22.621 5.793-31.47C-8.005-.078-4.481-2.549 0-3c1.919-.193 1.906 2.808 0 3" clip-path="url(#I)" style="fill:#000;fill-opacity:1;fill-rule:nonzero;stroke:none" transform="matrix(1.33333 0 0 -1.33333 511.388 711.094)"/><path d="M0 0h75.375c1.93 0 1.933 3 0 3H0c-1.93 0-1.934-3 0-3" clip-path="url(#J)" style="fill:#000;fill-opacity:1;fill-rule:nonzero;stroke:none" transform="matrix(1.33333 0 0 -1.33333 688.281 814.49)"/><path d="M0 0c-.604-.488-1.622.616-1.81 1.096-.604 1.541.379 3.517.925 4.936l2.155 5.589c.547 1.418 1 3.08 2.03 4.24.607.682 1.962 1.415 2.68.48.732-.952.358-2.704.248-3.786L5.063 1.009c-.082-.807.747-1.5 1.5-1.5.879 0 1.418.691 1.5 1.5.401 3.971.809 7.941 1.202 11.913.151 1.516.193 3.096-.468 4.507a4.08 4.08 0 0 1-3.618 2.341c-3.744.067-5.328-3.528-6.465-6.478l-2.222-5.764c-.675-1.752-1.476-3.57-1.45-5.487.024-1.818.815-3.46 2.385-4.43 1.535-.948 3.303-.856 4.694.268.631.509.53 1.591 0 2.121C1.498.623.632.511 0 0" clip-path="url(#K)" style="fill:#000;fill-opacity:1;fill-rule:nonzero;stroke:none" transform="matrix(1.33333 0 0 -1.33333 541.14 752.566)"/><path d="M0 0c-1.478.683-3.021.545-4.36-.401-1.473-1.042-2.093-2.742-2.306-4.473-.476-3.874.113-8.055 1.136-11.798.847-3.1 2.075-7.649 5.67-8.536 3.756-.928 5.4 2.72 5.727 5.778.502 4.679.043 9.474-1.117 14.025-.476 1.869-3.37 1.077-2.892-.798a38.2 38.2 0 0 0 1.141-11.515c-.068-1.264-.043-3.039-.859-4.106-.99-1.295-2.407.092-2.97 1.076-1.715 2.998-2.495 6.892-2.812 10.294-.159 1.705-.267 3.499-.067 5.206.1.856.798 3.303 2.195 2.658C.227-3.395 1.753-.81 0 0" clip-path="url(#L)" style="fill:#000;fill-opacity:1;fill-rule:nonzero;stroke:none" transform="matrix(1.33333 0 0 -1.33333 579.49 789.3)"/><path d="M0 0c-1.034-.227-1.773 1.058-1.897 1.907-.219 1.507.407 3.084.828 4.5C-.563 8.11-.06 9.815.45 11.517c.357 1.191.709 2.672 1.764 3.454 2.597 1.922 2.583-2.911 2.575-4.225C4.77 7.418 4.195 4.154 3.147.999 2.537-.838 5.433-1.625 6.04.201a34.3 34.3 0 0 1 1.746 10.207c.043 2.655.01 6.345-2.836 7.622-1.4.628-3.052.347-4.299-.504-1.338-.914-2.102-2.307-2.643-3.799-.572-1.574-.987-3.214-1.464-4.819-.49-1.65-1.089-3.308-1.342-5.015-.28-1.882-.046-3.75 1.211-5.244C-2.492-2.653-.867-3.259.798-2.893 2.682-2.479 1.885.414 0 0" clip-path="url(#M)" style="fill:#000;fill-opacity:1;fill-rule:nonzero;stroke:none" transform="matrix(1.33333 0 0 -1.33333 867.692 734.329)"/><path d="M0 0c-2.27-1.744-3.554-4.231-3.939-7.052-.457-3.351.399-6.694 1.273-9.907.719-2.643 2.451-5.854 5.733-5.26 3.007.545 3.376 3.904 3.619 6.373L7.847-4.061c.08.807-.746 1.5-1.5 1.5-.877 0-1.42-.691-1.5-1.5L3.815-14.537c-.094-.96-.266-6.549-2.483-4.196-.933.99-1.151 2.713-1.478 3.978-.414 1.597-.8 3.216-.902 4.867-.159 2.577.384 5.624 2.562 7.298.639.491.987 1.292.538 2.052C1.68.091.648.498 0 0" clip-path="url(#N)" style="fill:#000;fill-opacity:1;fill-rule:nonzero;stroke:none" transform="matrix(1.33333 0 0 -1.33333 828.467 777.33)"/><path d="M0 0c-.835-2.048-1.639-4.165-1.659-6.409-.018-2.019.703-3.996 2.184-5.401 1.4-1.328 3.454-2.089 5.348-1.426 1.84.644 3.112 2.273 3.615 4.123.665 2.447-.118 4.941-.939 7.243-.273.763-1.023 1.274-1.846 1.048-.737-.203-1.321-1.079-1.047-1.845.579-1.623 1.095-3.188 1.072-4.924-.004-.245.021-.004-.025-.246a6 6 0 0 0-.108-.478 3.3 3.3 0 0 0-.298-.78 5 5 0 0 0-.249-.416c-.044-.066-.088-.135-.138-.197.024.031.092.116-.018-.004-.277-.303-.325-.352-.602-.515-.278-.163-.294-.167-.678-.244.205.041-.151-.008-.22-.008q-.115 0-.231.008c-.247.014.186-.045-.056.009-.429.094-.433.09-.729.251-.33.178-.483.295-.67.468A4 4 0 0 0 1.64-8.254c.058-.133-.071.207-.087.255a5 5 0 0 0-.125.474c-.077.365-.09.742-.087 1.116.018 1.95.827 3.833 1.552 5.611.306.751-.332 1.649-1.048 1.846C.986 1.284.307.753 0 0" clip-path="url(#O)" style="fill:#000;fill-opacity:1;fill-rule:nonzero;stroke:none" transform="matrix(1.33333 0 0 -1.33333 890.359 776.9)"/><path d="M0 0c-1.136-1.644-.783-3.898.427-5.381a3.87 3.87 0 0 1 2.274-1.332 4.82 4.82 0 0 1 3.005.446c1.015.499 1.73 1.393 2.126 2.434.131.343.028.85-.151 1.155-.182.311-.539.608-.897.69-.855.195-1.545-.261-1.845-1.048-.093-.245.177.349.05.12l-.091-.17q-.05-.081-.103-.162c-.123-.193.217.249.099.125-.081-.085-.154-.176-.24-.258q-.07-.065-.144-.128c-.19-.171.317.216.099.079-.1-.064-.197-.13-.302-.187q-.071-.038-.144-.074c-.229-.121.351.13.121.049a3.7 3.7 0 0 0-.751-.19l.399.053a3.2 3.2 0 0 0-.769.003l.399-.054a3 3 0 0 0-.437.097c-.061.02-.12.046-.182.065.461-.141.198-.085.067-.012q-.083.046-.163.1c-.265.176.109-.065.1-.084 0 0-.288.273-.317.307-.092.105-.147.26.076-.106-.038.063-.085.121-.124.184-.073.118-.128.244-.194.365.228-.416.092-.225.045-.092a3.4 3.4 0 0 0-.152.653l.053-.399q-.048.413.005.825l-.054-.399c.031.202.095.386.147.582.04.152-.156-.322-.079-.184.025.047.045.096.07.143q.076.14.167.271c.448.647.141 1.693-.538 2.052C1.288.942.477.691 0 0" clip-path="url(#P)" style="fill:#000;fill-opacity:1;fill-rule:nonzero;stroke:none" transform="matrix(1.33333 0 0 -1.33333 832.222 695.28)"/><path d="M0 0a17.9 17.9 0 0 0-2.189 8.067c-.045 1.681-.071 4.625 1.63 5.634.792.47 1.63.07 2.224-.523.887-.884 1.064-2.153 1.053-3.35-.027-3.006-1.089-5.977.033-8.92C3.039.151 3.761-.369 4.596-.14 5.32.059 5.933.944 5.643 1.706c-1.002 2.629.052 5.422.075 8.122.023 2.607-.967 5.389-3.465 6.581-2.348 1.121-4.848.159-6.161-2.005-1.226-2.021-1.386-4.595-1.258-6.896A21.3 21.3 0 0 1-2.59-1.514C-1.668-3.211.924-1.698 0 0" clip-path="url(#Q)" style="fill:#000;fill-opacity:1;fill-rule:nonzero;stroke:none" transform="matrix(1.33333 0 0 -1.33333 629.84 709.236)"/><path d="M0 0c-.687-2.693-1.332-5.527-.693-8.295a7.36 7.36 0 0 1 4.377-5.162c2.067-.849 4.53-.475 6.002 1.298 1.531 1.844 1.67 4.317 1.331 6.594-.43 2.893-1.607 5.727-3.182 8.179-1.04 1.62-3.638.117-2.591-1.514a19.5 19.5 0 0 0 2.525-5.744c.4-1.566.697-3.301.093-4.822-.489-1.229-1.59-1.656-2.721-1.337-1.319.373-2.428 1.526-2.818 2.838-.699 2.352-.017 4.867.57 7.167C3.37 1.074.477 1.872 0 0" clip-path="url(#R)" style="fill:#000;fill-opacity:1;fill-rule:nonzero;stroke:none" transform="matrix(1.33333 0 0 -1.33333 621.945 757.84)"/><path d="M0 0c.275.586.845.669 1.461.514.9-.227 1.411-1.111 1.724-1.925.463-1.208.663-2.527.927-3.787l.918-4.374c.225-1.072.512-2.148.568-3.246.036-.702.07-1.669-.41-2.244-.534-.639-1.38-.368-1.957.076-.917.706-1.205 1.914-1.369 3.003-.427 2.83-.28 5.86-2.562 7.976-1.414 1.312-3.54-.805-2.121-2.121 1.096-1.016 1.349-2.526 1.488-3.954.169-1.742.278-3.488 1.016-5.102 1.264-2.764 5.123-4.549 7.558-2.075 2.114 2.149 1.296 5.554.752 8.148L6.829-3.559C6.503-2.008 6.186-.381 5.337.985c-.928 1.491-2.342 2.464-4.113 2.581-1.527.101-3.145-.624-3.814-2.052-.344-.733-.206-1.617.538-2.052C-1.402-.919-.345-.737 0 0" clip-path="url(#S)" style="fill:#000;fill-opacity:1;fill-rule:nonzero;stroke:none" transform="matrix(1.33333 0 0 -1.33333 585.775 715.745)"/><path d="M0 0a22.6 22.6 0 0 1-2.44-5.734c-.467-1.746-.769-3.551-.432-5.346.315-1.678 1.461-3.296 3.213-3.659 1.981-.411 3.878.706 4.923 2.355 1.365 2.155.83 4.873.278 7.192-.446 1.878-3.34 1.083-2.893-.797.235-.989.479-1.981.48-3.004.001-.814-.187-1.581-.583-2.06a2.2 2.2 0 0 0-.753-.625c-.197-.104-.472-.174-.651-.16q-.28.012-.083.007-.264.096-.101.009c-.131.069-.266.133-.385.223.276-.209-.282.348-.069.071a2.7 2.7 0 0 0-.261.439q-.067.14.002-.016a4 4 0 0 0-.098.29 5 5 0 0 0-.126.532q-.026.158-.006-.004a7 7 0 0 0-.045.891c.007.847.121 1.387.349 2.338A19.7 19.7 0 0 0 2.59-1.514C3.584.147.991 1.657 0 0" clip-path="url(#T)" style="fill:#000;fill-opacity:1;fill-rule:nonzero;stroke:none" transform="matrix(1.33333 0 0 -1.33333 662.652 805.02)"/><path d="M0 0c32.959-19.856 69.301-41.918 84.023-79.516 2.32-5.925 11.994-3.346 9.642 2.659C77.851-36.468 40.617-12.795 5.047 8.635-.479 11.964-5.512 3.321 0 0" clip-path="url(#U)" style="fill:#ffb39f;fill-opacity:1;fill-rule:nonzero;stroke:none" transform="matrix(1.33333 0 0 -1.33333 457.519 627.643)"/><path d="M0 0c47.825-31.273 89.412-71.693 121.98-118.652 3.643-5.253 12.314-.259 8.635 5.047C97.035-65.186 54.367-23.616 5.047 8.635-.355 12.167-5.371 3.512 0 0" clip-path="url(#V)" style="fill:#ffb39f;fill-opacity:1;fill-rule:nonzero;stroke:none" transform="matrix(1.33333 0 0 -1.33333 470.47 570.039)"/><path d="M0 0c52.359-31.137 96.577-74.919 128.211-126.981 3.337-5.492 11.989-.473 8.635 5.047C104.337-68.433 58.856-23.364 5.047 8.635-.497 11.932-5.533 3.29 0 0" clip-path="url(#W)" style="fill:#ffb39f;fill-opacity:1;fill-rule:nonzero;stroke:none" transform="matrix(1.33333 0 0 -1.33333 514.966 547.44)"/><path d="M0 0c57.688-32.349 105.625-80.529 137.692-138.373 3.121-5.63 11.761-.592 8.635 5.047C113.473-74.064 64.148-24.507 5.047 8.635-.572 11.786-5.62 3.151 0 0" clip-path="url(#X)" style="fill:#ffb39f;fill-opacity:1;fill-rule:nonzero;stroke:none" transform="matrix(1.33333 0 0 -1.33333 574.499 525.164)"/><path d="M0 0c47.377-37.371 85.051-85.897 109.506-141.062 2.603-5.872 11.222-.79 8.635 5.047C93.395-80.196 55.011-30.743 7.071 7.071 2.072 11.014-5.052 3.985 0 0" clip-path="url(#Y)" style="fill:#ffb39f;fill-opacity:1;fill-rule:nonzero;stroke:none" transform="matrix(1.33333 0 0 -1.33333 670.533 522.53)"/><path d="M0 0c49.676-41.07 89.001-94.154 113.329-153.883 2.395-5.882 12.073-3.309 9.642 2.658C97.985-89.879 58.153-35.161 7.071 7.071 2.147 11.142-4.966 4.106 0 0" clip-path="url(#Z)" style="fill:#ffb39f;fill-opacity:1;fill-rule:nonzero;stroke:none" transform="matrix(1.33333 0 0 -1.33333 738.63 516.547)"/><path d="M0 0c34.901-42.309 63.764-89.399 85.871-139.584 2.589-5.876 11.208-.793 8.635 5.048C72.035-83.527 42.535-35.921 7.071 7.071 2.973 12.039-4.067 4.93 0 0" clip-path="url(#aa)" style="fill:#ffb39f;fill-opacity:1;fill-rule:nonzero;stroke:none" transform="matrix(1.33333 0 0 -1.33333 830.936 540.381)"/><path d="M0 0c-9.786.985-12.702 14.334-13.511 22.212-.667 6.491.565 12.807.513 19.281-.057 6.968-3.284 13.346-3.624 20.283-.457 9.294 3.327 17.528 10.133 23.759C.373 91.818 9.098 95.886 17.649 99.323c24.34 9.782 49.526 17.028 75.481 20.962 28.578 4.332 58.115 5.524 86.869 2.248 27.904-3.18 55.485-10.899 80.408-23.963 12.674-6.644 24.894-14.56 35.356-24.372a106.8 106.8 0 0 0 23.804-32.912 103 103 0 0 0 3.871-9.585c1.154-3.327 2.831-7.475 1.186-10.909-3.031-6.325-12.16-6.333-17.92-4.924-7.032 1.719-13.152 5.772-19.741 8.61-6.621 2.851-13.589 3.9-20.753 4.188-15.685.63-31.445.392-47.141.55l-48.04.483-95.735.963-12.01.121c-3.717.037-7.493.278-11.203.021-5.605-.387-11.075-2.314-15.647-5.591-4.708-3.375-7.72-7.695-10.536-12.66-2.229-3.931-5.333-7.316-9.292-9.544C11.545.161 5.705-.442 0 0c-1.925.149-1.916-2.852 0-3 5.953-.461 12.021.247 17.378 3.018 4.183 2.164 7.624 5.529 10.169 9.466 1.415 2.188 2.461 4.574 3.983 6.699a28.2 28.2 0 0 0 6.418 6.44c5.174 3.718 11.126 5.303 17.444 5.239l98.824-.994 99.166-.997c7.805-.079 15.79.199 23.482-1.335 7.524-1.501 13.943-5.419 20.829-8.572 6.176-2.827 13.128-4.903 19.938-3.36 6.439 1.46 11.421 6.333 10.498 13.259-.465 3.491-1.832 6.906-3.097 10.175a111 111 0 0 1-4.131 9.376 108.4 108.4 0 0 1-11.048 17.681c-8.825 11.503-19.943 20.884-32.052 28.771-24.175 15.747-51.781 25.862-80.09 31.049-29.158 5.343-59.17 5.458-88.597 2.404-15.075-1.564-30.062-4.057-44.795-7.625-13.272-3.215-26.144-7.518-38.948-12.227C8.767 99.36-12.75 91.441-18.372 72.653c-1.446-4.834-1.571-9.944-.842-14.912.547-3.724 1.859-7.258 2.64-10.929.832-3.911.568-7.841.21-11.791-.937-10.365-.464-22.621 5.793-31.47C-8.005-.078-4.481-2.549 0-3c1.919-.193 1.906 2.808 0 3" clip-path="url(#ab)" style="fill:#000;fill-opacity:1;fill-rule:nonzero;stroke:none" transform="matrix(1.33333 0 0 -1.33333 511.388 711.094)"/><path d="M0 0c-6.856-15.538-27.108-21.65-45.236-13.651S-72.5 13.427-65.645 28.964Z" clip-path="url(#ac)" style="fill:#fffbe9;fill-opacity:1;fill-rule:nonzero;stroke:none" transform="matrix(1.33333 0 0 -1.33333 721.476 673.2)"/><path d="M0 0c-5.531-12.329-19.262-17.7-32.147-16.152-13.455 1.616-26.451 10.649-31.171 23.593-2.356 6.461-2.499 13.644.264 20.009l-2.053-.538 22.147-9.771L-7.624 1.549.538-2.052C2.288-2.825 3.817-.24 2.052.538l-22.146 9.772-35.337 15.591-8.161 3.602c-.671.295-1.702.268-2.053-.539-5.708-13.149-.688-27.956 9.607-37.296 11.096-10.067 28.005-14.229 42.151-8.537 7.209 2.9 13.27 8.205 16.477 15.355C3.374.233.79 1.76 0 0" clip-path="url(#ad)" style="fill:#000;fill-opacity:1;fill-rule:nonzero;stroke:none" transform="matrix(1.33333 0 0 -1.33333 719.75 672.19)"/><path d="M0 0c0-6.747-5.47-12.217-12.217-12.217S-24.435-6.747-24.435 0s5.47 12.217 12.218 12.217C-5.47 12.217 0 6.747 0 0" clip-path="url(#ae)" style="fill:#000;fill-opacity:1;fill-rule:nonzero;stroke:none" transform="matrix(1.33333 0 0 -1.33333 705.951 665.882)"/><path d="M0 0c6.856-15.538 27.108-21.65 45.236-13.651S72.5 13.427 65.645 28.964Z" clip-path="url(#af)" style="fill:#fffbe9;fill-opacity:1;fill-rule:nonzero;stroke:none" transform="matrix(1.33333 0 0 -1.33333 755.236 673.2)"/><path d="M0 0c6.015-13.41 21.285-19.384 35.273-17.571 14.772 1.914 28.593 11.763 33.636 26.03 2.544 7.195 2.367 15.015-.674 22.02-.347.799-1.387.831-2.052.538l-22.146-9.772L8.7 5.654.538 2.052C-1.224 1.275.3-1.311 2.052-.538l22.146 9.771 35.337 15.592 8.162 3.601-2.052.538c5.192-11.961-.002-25.447-9.267-33.777-10.285-9.249-25.753-12.866-38.797-7.771C10.941-9.989 5.513-5.001 2.59 1.514 1.802 3.273-.784 1.749 0 0" clip-path="url(#ag)" style="fill:#000;fill-opacity:1;fill-rule:nonzero;stroke:none" transform="matrix(1.33333 0 0 -1.33333 753.51 674.21)"/><path d="M0 0c0-6.747 5.47-12.217 12.217-12.217S24.435-6.747 24.435 0s-5.47 12.217-12.218 12.217C5.47 12.217 0 6.747 0 0" clip-path="url(#ah)" style="fill:#000;fill-opacity:1;fill-rule:nonzero;stroke:none" transform="matrix(1.33333 0 0 -1.33333 770.76 665.882)"/><path d="M0 0c-4.968-13.891-18.424-21.78-30.053-17.621s-17.03 18.793-12.062 32.684 18.423 21.78 30.053 17.62C-.432 28.524 4.968 13.891 0 0" clip-path="url(#ai)" style="fill:#000;fill-opacity:1;fill-rule:nonzero;stroke:none" transform="matrix(1.33333 0 0 -1.33333 757.496 738.874)"/><path d="M0 0c-4.968-13.891-18.424-21.78-30.053-17.621s-17.03 18.793-12.062 32.684 18.423 21.78 30.053 17.62C-.432 28.524 4.968 13.891 0 0" clip-path="url(#aj)" style="fill:#f05924;fill-opacity:1;fill-rule:nonzero;stroke:none" transform="matrix(1.33333 0 0 -1.33333 759.981 730.591)"/><path d="M0 0c-3.164-8.688-10.77-16.678-20.391-17.549-4.464-.403-8.961.814-12.526 3.564-3.581 2.764-5.98 6.821-7.169 11.144-2.709 9.848.612 21.032 7.893 28.111 6.424 6.245 16.288 8.946 24.31 4.053C1.955 23.324 3.531 10.064 0 0c-.641-1.825 2.257-2.61 2.893-.798C6.492 9.459 5.112 22.371-3.501 29.808c-7.996 6.904-19.448 6.319-27.71.2-9.213-6.823-14.075-18.777-12.49-30.103 1.461-10.431 9.04-19.578 19.941-20.47C-11.394-21.578-1.091-11.736 2.893-.798 3.555 1.019.657 1.803 0 0" clip-path="url(#ak)" style="fill:#000;fill-opacity:1;fill-rule:nonzero;stroke:none" transform="matrix(1.33333 0 0 -1.33333 758.053 730.06)"/><path d="M0 0c-1.499-4.192-5.56-6.573-9.069-5.317-3.51 1.255-5.139 5.671-3.64 9.862 1.499 4.192 5.56 6.573 9.069 5.318S1.499 4.192 0 0" clip-path="url(#al)" style="fill:#000;fill-opacity:1;fill-rule:nonzero;stroke:none" transform="matrix(1.33333 0 0 -1.33333 740.377 723.58)"/><path d="m0 0 8.034-3.501 19.301-8.412 43.69-19.041c3.282-1.431 6.558-2.874 9.845-4.291l.143-.062c1.476-.644 3.1 1.053 1.818 2.356L63.58-13.4 33.091 17.564l-7.046 7.156c-1.356 1.378-3.477-.744-2.121-2.122L43.175 3.047l30.489-30.964 7.045-7.156 1.818 2.356-8.034 3.501-19.301 8.413L31.71-10.57 11.502-1.762c-3.281 1.43-6.557 2.873-9.845 4.29l-.143.062C-.238 3.354-1.767.77 0 0" clip-path="url(#am)" style="fill:#000;fill-opacity:1;fill-rule:nonzero;stroke:none" transform="matrix(1.33333 0 0 -1.33333 612.45 627.85)"/><path d="m0 0-21.564-15.903-34.394-25.364-7.923-5.844c-1.561-1.151-.259-3.377 1.514-2.59l24.806 11.018L1.813-21.195l9.019 4.006c1.761.782.237 3.368-1.514 2.59l-24.805-11.017-39.374-17.488-9.02-4.007 1.514-2.59 21.565 15.903L-6.409-8.434 1.514-2.59C3.051-1.457 1.557 1.148 0 0" clip-path="url(#an)" style="fill:#000;fill-opacity:1;fill-rule:nonzero;stroke:none" transform="matrix(1.33333 0 0 -1.33333 839.401 608.66)"/></svg>