<svg xmlns="http://www.w3.org/2000/svg" width="1440" height="1440" viewBox="0 0 1440 1440"><defs><clipPath id="a" clipPathUnits="userSpaceOnUse"><path d="M-538.282 875.366h1080v-1080h-1080Z"/></clipPath><clipPath id="b" clipPathUnits="userSpaceOnUse"><path d="M-538.282 873.866h1080v-1080h-1080Z"/></clipPath><clipPath id="c" clipPathUnits="userSpaceOnUse"><path d="M-907.008 540h1080V-540h-1080Z"/></clipPath><clipPath id="d" clipPathUnits="userSpaceOnUse"><path d="M-905.612 540h1080V-540h-1080Z"/></clipPath><clipPath id="e" clipPathUnits="userSpaceOnUse"><path d="M169.556 540c0-171.41 165.085-310.366 368.726-310.366 203.642 0 368.726 138.956 368.726 310.366S741.924 850.367 538.282 850.367c-203.641 0-368.726-138.957-368.726-310.367"/></clipPath><clipPath id="f" clipPathUnits="userSpaceOnUse"><path d="M-840.845 420.074c0-171.41 165.085-310.366 368.726-310.366 203.642 0 368.726 138.956 368.726 310.366s-165.084 310.367-368.726 310.367c-203.641 0-368.726-138.957-368.726-310.367"/></clipPath><clipPath id="g" clipPathUnits="userSpaceOnUse"><path d="M-266.984 291.882c0-171.41 165.085-310.366 368.726-310.366 203.642 0 368.726 138.956 368.726 310.366S305.384 602.25 101.742 602.25c-203.64 0-368.726-138.957-368.726-310.367"/></clipPath><clipPath id="h" clipPathUnits="userSpaceOnUse"><path d="M-268.43 292.281c0-171.41 165.085-310.366 368.726-310.366 203.642 0 368.726 138.956 368.726 310.366S303.938 602.648 100.296 602.648c-203.64 0-368.726-138.957-368.726-310.367"/></clipPath><clipPath id="i" clipPathUnits="userSpaceOnUse"><path d="M-283.558 201.025c0-171.41 165.085-310.366 368.726-310.366 203.642 0 368.726 138.956 368.726 310.366S288.81 511.392 85.168 511.392c-203.64 0-368.726-138.957-368.726-310.367"/></clipPath><clipPath id="j" clipPathUnits="userSpaceOnUse"><path d="M-285.004 201.423c0-171.41 165.085-310.366 368.726-310.366 203.642 0 368.726 138.956 368.726 310.366S287.364 511.79 83.722 511.79c-203.641 0-368.726-138.957-368.726-310.367"/></clipPath><clipPath id="k" clipPathUnits="userSpaceOnUse"><path d="M-159.34 130.833c0-171.41 165.085-310.366 368.726-310.366 203.642 0 368.726 138.956 368.726 310.366S413.028 441.2 209.386 441.2C5.745 441.2-159.34 302.243-159.34 130.833"/></clipPath><clipPath id="l" clipPathUnits="userSpaceOnUse"><path d="M-160.786 131.231c0-171.41 165.085-310.366 368.726-310.366 203.642 0 368.726 138.956 368.726 310.366S411.582 441.598 207.94 441.598c-203.641 0-368.726-138.957-368.726-310.367"/></clipPath><clipPath id="m" clipPathUnits="userSpaceOnUse"><path d="M-96.607 291.882c0-171.41 165.085-310.366 368.726-310.366 203.642 0 368.726 138.956 368.726 310.366S475.76 602.25 272.119 602.25-96.607 463.293-96.607 291.883"/></clipPath><clipPath id="n" clipPathUnits="userSpaceOnUse"><path d="M-98.054 292.281c0-171.41 165.085-310.366 368.726-310.366 203.642 0 368.726 138.956 368.726 310.366S474.314 602.648 270.672 602.648c-203.64 0-368.726-138.957-368.726-310.367"/></clipPath><clipPath id="o" clipPathUnits="userSpaceOnUse"><path d="M-294.786 131.189c0-171.41 165.085-310.366 368.726-310.366 203.642 0 368.726 138.956 368.726 310.366S277.582 441.556 73.94 441.556c-203.64 0-368.726-138.957-368.726-310.367"/></clipPath><clipPath id="p" clipPathUnits="userSpaceOnUse"><path d="M-296.232 131.588c0-171.41 165.085-310.366 368.726-310.366 203.642 0 368.726 138.956 368.726 310.366S276.136 441.955 72.494 441.955c-203.64 0-368.726-138.957-368.726-310.367"/></clipPath><clipPath id="q" clipPathUnits="userSpaceOnUse"><path d="M-458.746 199.956c0-171.41 165.085-310.366 368.726-310.366 203.642 0 368.726 138.956 368.726 310.366S113.622 510.323-90.02 510.323c-203.641 0-368.726-138.957-368.726-310.367"/></clipPath><clipPath id="r" clipPathUnits="userSpaceOnUse"><path d="M-458.746 201.455c0-171.41 165.085-310.366 368.726-310.366 203.642 0 368.726 138.956 368.726 310.366S113.622 511.822-90.02 511.822c-203.641 0-368.726-138.957-368.726-310.367"/></clipPath><clipPath id="s" clipPathUnits="userSpaceOnUse"><path d="M-699.696 130.595c0-171.41 165.085-310.366 368.726-310.366 203.642 0 368.726 138.956 368.726 310.366S-127.33 440.962-330.97 440.962s-368.726-138.957-368.726-310.367"/></clipPath><clipPath id="t" clipPathUnits="userSpaceOnUse"><path d="M-699.696 129.095c0-171.41 165.085-310.366 368.726-310.366 203.642 0 368.726 138.956 368.726 310.366S-127.33 439.462-330.97 439.462s-368.726-138.957-368.726-310.367"/></clipPath><clipPath id="u" clipPathUnits="userSpaceOnUse"><path d="M-643.617 291.17c0-171.41 165.085-310.366 368.726-310.366 203.642 0 368.726 138.956 368.726 310.366S-71.25 601.537-274.891 601.537-643.617 462.58-643.617 291.17"/></clipPath><clipPath id="v" clipPathUnits="userSpaceOnUse"><path d="M-644.912 290.413c0-171.41 165.085-310.366 368.726-310.366 203.642 0 368.726 138.956 368.726 310.366S-72.544 600.78-276.186 600.78c-203.641 0-368.726-138.957-368.726-310.367"/></clipPath><clipPath id="w" clipPathUnits="userSpaceOnUse"><path d="M-497.716 428.941c0-171.41 165.085-310.366 368.726-310.366 203.642 0 368.726 138.956 368.726 310.366S74.652 739.308-128.99 739.308c-203.641 0-368.726-138.957-368.726-310.367"/></clipPath><clipPath id="x" clipPathUnits="userSpaceOnUse"><path d="M-499.162 428.542c0-171.41 165.085-310.366 368.726-310.366 203.642 0 368.726 138.956 368.726 310.366S73.206 738.91-130.436 738.91c-203.641 0-368.726-138.957-368.726-310.367"/></clipPath><clipPath id="y" clipPathUnits="userSpaceOnUse"><path d="M-41.003 425.615c0-171.41 165.085-310.366 368.726-310.366 203.642 0 368.726 138.956 368.726 310.366S531.365 735.982 327.723 735.982c-203.641 0-368.726-138.957-368.726-310.367"/></clipPath><clipPath id="z" clipPathUnits="userSpaceOnUse"><path d="M-41.402 427.062c0-171.41 165.085-310.366 368.726-310.366 203.642 0 368.726 138.956 368.726 310.366S530.966 737.429 327.324 737.429c-203.641 0-368.726-138.957-368.726-310.367"/></clipPath><clipPath id="A" clipPathUnits="userSpaceOnUse"><path d="M-905.612 540h1080V-540h-1080Z"/></clipPath><clipPath id="B" clipPathUnits="userSpaceOnUse"><path d="M-256.183 562.366h1080v-1080h-1080Z"/></clipPath><clipPath id="C" clipPathUnits="userSpaceOnUse"><path d="M-254.683 562.366h1080v-1080h-1080Z"/></clipPath><clipPath id="D" clipPathUnits="userSpaceOnUse"><path d="M-231.946 562.366h1080v-1080h-1080Z"/></clipPath><clipPath id="E" clipPathUnits="userSpaceOnUse"><path d="M-230.446 562.366h1080v-1080h-1080Z"/></clipPath><clipPath id="F" clipPathUnits="userSpaceOnUse"><path d="M-999.183 562.366h1080v-1080h-1080Z"/></clipPath><clipPath id="G" clipPathUnits="userSpaceOnUse"><path d="M-997.683 562.366h1080v-1080h-1080Z"/></clipPath><clipPath id="H" clipPathUnits="userSpaceOnUse"><path d="M-974.946 562.366h1080v-1080h-1080Z"/></clipPath><clipPath id="I" clipPathUnits="userSpaceOnUse"><path d="M-973.446 562.366h1080v-1080h-1080Z"/></clipPath><clipPath id="J" clipPathUnits="userSpaceOnUse"><path d="M-296.903 378.447h1080v-1080h-1080Z"/></clipPath><clipPath id="K" clipPathUnits="userSpaceOnUse"><path d="M-296.903 378.447h1080v-1080h-1080Z"/></clipPath><clipPath id="L" clipPathUnits="userSpaceOnUse"><path d="M-374.399 332.149h1080v-1080h-1080Z"/></clipPath><clipPath id="M" clipPathUnits="userSpaceOnUse"><path d="M-374.399 332.149h1080v-1080h-1080Z"/></clipPath><clipPath id="N" clipPathUnits="userSpaceOnUse"><path d="M-430.376 325.827h1080v-1080h-1080Z"/></clipPath><clipPath id="O" clipPathUnits="userSpaceOnUse"><path d="M-546.926 305.994h1080v-1080h-1080Z"/></clipPath><clipPath id="P" clipPathUnits="userSpaceOnUse"><path d="M-625.867 296.012h1080v-1080h-1080Z"/></clipPath><clipPath id="Q" clipPathUnits="userSpaceOnUse"><path d="M-625.867 296.012h1080v-1080h-1080Z"/></clipPath><clipPath id="R" clipPathUnits="userSpaceOnUse"><path d="M-670.218 330.179h1080v-1080h-1080Z"/></clipPath><clipPath id="S" clipPathUnits="userSpaceOnUse"><path d="M-792.596 381.268h1080v-1080h-1080Z"/></clipPath><clipPath id="T" clipPathUnits="userSpaceOnUse"><path d="M-792.596 381.268h1080v-1080h-1080Z"/></clipPath><clipPath id="U" clipPathUnits="userSpaceOnUse"><path d="M-147.292 582.438h1080v-1080h-1080Z"/></clipPath><clipPath id="V" clipPathUnits="userSpaceOnUse"><path d="M-165.08 582.438h1080v-1080h-1080Z"/></clipPath><clipPath id="W" clipPathUnits="userSpaceOnUse"><path d="M-194.592 582.438h1080v-1080h-1080Z"/></clipPath><clipPath id="X" clipPathUnits="userSpaceOnUse"><path d="M-212.5 582.197h1080v-1080h-1080Z"/></clipPath><clipPath id="Y" clipPathUnits="userSpaceOnUse"><path d="M-873.452 578.41h1080v-1080h-1080Z"/></clipPath><clipPath id="Z" clipPathUnits="userSpaceOnUse"><path d="M-887.488 547.432h1080v-1080h-1080Z"/></clipPath><clipPath id="aa" clipPathUnits="userSpaceOnUse"><path d="M-916.281 547.432h1080v-1080h-1080Z"/></clipPath><clipPath id="ab" clipPathUnits="userSpaceOnUse"><path d="M-954.394 578.41h1080v-1080h-1080Z"/></clipPath><clipPath id="ac" clipPathUnits="userSpaceOnUse"><path d="M-753.019 678.462h1080v-1080h-1080Z"/></clipPath><clipPath id="ad" clipPathUnits="userSpaceOnUse"><path d="M-751.082 678.462h1080v-1080h-1080Z"/></clipPath><clipPath id="ae" clipPathUnits="userSpaceOnUse"><path d="M-743.98 626.808h1080v-1080h-1080Z"/></clipPath><clipPath id="af" clipPathUnits="userSpaceOnUse"><path d="M-742.043 626.808h1080v-1080h-1080Z"/></clipPath><clipPath id="ag" clipPathUnits="userSpaceOnUse"><path d="M-769.806 562.241h1080v-1080h-1080Z"/></clipPath><clipPath id="ah" clipPathUnits="userSpaceOnUse"><path d="M-767.87 562.241h1080v-1080h-1080Z"/></clipPath><clipPath id="ai" clipPathUnits="userSpaceOnUse"><path d="M-753.019 508.53h1080v-1080h-1080Z"/></clipPath><clipPath id="aj" clipPathUnits="userSpaceOnUse"><path d="M-751.082 508.53h1080v-1080h-1080Z"/></clipPath><clipPath id="ak" clipPathUnits="userSpaceOnUse"><path d="M-679.754 473.209h1080v-1080h-1080Z"/></clipPath><clipPath id="al" clipPathUnits="userSpaceOnUse"><path d="M-679.754 474.922h1080v-1080h-1080Z"/></clipPath><clipPath id="am" clipPathUnits="userSpaceOnUse"><path d="M-750.401 483.164h1080v-1080h-1080Z"/></clipPath><clipPath id="an" clipPathUnits="userSpaceOnUse"><path d="M-748.464 483.164h1080v-1080h-1080Z"/></clipPath><clipPath id="ao" clipPathUnits="userSpaceOnUse"><path d="M-337.859 521.137h1080v-1080h-1080Z"/></clipPath><clipPath id="ap" clipPathUnits="userSpaceOnUse"><path d="M-632.58 555.459h1080v-1080h-1080Z"/></clipPath><clipPath id="aq" clipPathUnits="userSpaceOnUse"><path d="M-577.043 465.215h1080v-1080h-1080Z"/></clipPath><clipPath id="ar" clipPathUnits="userSpaceOnUse"><path d="M-577.043 467.152h1080v-1080h-1080Z"/></clipPath><clipPath id="as" clipPathUnits="userSpaceOnUse"><path d="M-490.814 439.468h1080v-1080h-1080Z"/></clipPath><clipPath id="at" clipPathUnits="userSpaceOnUse"><path d="M-563.23 438.855h1080v-1080h-1080Z"/></clipPath><clipPath id="au" clipPathUnits="userSpaceOnUse"><path d="M-482.734 760.383h1080v-1080h-1080Z"/></clipPath><clipPath id="av" clipPathUnits="userSpaceOnUse"><path d="M-482.734 762.32h1080v-1080h-1080Z"/></clipPath><clipPath id="aw" clipPathUnits="userSpaceOnUse"><path d="M-656.974 641.281h1080v-1080h-1080Z"/></clipPath><clipPath id="ax" clipPathUnits="userSpaceOnUse"><path d="M-656.974 639.344h1080v-1080h-1080Z"/></clipPath><clipPath id="ay" clipPathUnits="userSpaceOnUse"><path d="M-612.787 641.281h1080v-1080h-1080Z"/></clipPath><clipPath id="az" clipPathUnits="userSpaceOnUse"><path d="M-612.787 639.344h1080v-1080h-1080Z"/></clipPath><clipPath id="aA" clipPathUnits="userSpaceOnUse"><path d="M-623.118 578.594h1080v-1080h-1080Z"/></clipPath><clipPath id="aB" clipPathUnits="userSpaceOnUse"><path d="M-623.118 580.307h1080v-1080h-1080Z"/></clipPath><clipPath id="aC" clipPathUnits="userSpaceOnUse"><path d="M-670.898 578.594h1080v-1080h-1080Z"/></clipPath><clipPath id="aD" clipPathUnits="userSpaceOnUse"><path d="M-670.898 580.307h1080v-1080h-1080Z"/></clipPath><clipPath id="aE" clipPathUnits="userSpaceOnUse"><path d="M-564.77 626.185h1080v-1080h-1080Z"/></clipPath><clipPath id="aF" clipPathUnits="userSpaceOnUse"><path d="M-565.286 624.317h1080v-1080h-1080Z"/></clipPath><clipPath id="aG" clipPathUnits="userSpaceOnUse"><path d="M-558.052 643.785h1080v-1080h-1080Z"/></clipPath><clipPath id="aH" clipPathUnits="userSpaceOnUse"><path d="M-550.623 647.67h1080v-1080h-1080Z"/></clipPath><clipPath id="aI" clipPathUnits="userSpaceOnUse"><path d="M-617.771 674.058h1080v-1080h-1080Z"/></clipPath><clipPath id="aJ" clipPathUnits="userSpaceOnUse"><path d="M-572.422 664.994h1080v-1080h-1080Z"/></clipPath><clipPath id="aK" clipPathUnits="userSpaceOnUse"><path d="M-571.052 663.624h1080v-1080h-1080Z"/></clipPath><clipPath id="aL" clipPathUnits="userSpaceOnUse"><path d="M-580.043 546.385h1080v-1080h-1080Z"/></clipPath><clipPath id="aM" clipPathUnits="userSpaceOnUse"><path d="M-626.531 542.51h1080v-1080h-1080Z"/></clipPath><clipPath id="aN" clipPathUnits="userSpaceOnUse"><path d="M-536.012 683.58h1080v-1080h-1080Z"/></clipPath></defs><path d="M0 0h1080v1080H0Z" style="fill:#fff;fill-opacity:1;fill-rule:nonzero;stroke:none" transform="matrix(1.33333 0 0 -1.33333 0 1440)"/><path d="M0 0c-104.372 0-202.685 34.37-276.828 96.778-36.472 30.7-65.157 66.55-85.26 106.555-20.994 41.778-31.638 86.2-31.638 132.033s10.644 90.256 31.638 132.034c20.103 40.005 48.788 75.856 85.26 106.555C-202.685 636.363-104.372 670.732 0 670.732s202.685-34.369 276.828-96.777c36.472-30.699 65.157-66.55 85.26-106.555 20.993-41.778 31.638-86.201 31.638-132.034s-10.645-90.255-31.639-132.033c-20.102-40.005-48.787-75.855-85.259-106.555C202.685 34.37 104.372 0 0 0" clip-path="url(#a)" style="fill:#fffbe9;fill-opacity:1;fill-rule:nonzero;stroke:none" transform="matrix(1.33333 0 0 -1.33333 717.71 1167.155)"/><path d="M0 0c-73.114.104-146.29 17.056-210.685 52.062-64.009 34.795-119.104 87.317-151.393 153.116-35.235 71.801-39.726 155.911-11.497 230.839 26.322 69.871 78.331 127.478 141.106 166.914 61.549 38.666 133.217 59.924 205.623 64.039 73.427 4.173 148.096-8.754 214.889-39.885 65.308-30.438 123.439-78.416 160.877-140.438 41.062-68.024 54.151-150.4 33.513-227.403-19.687-73.459-67.893-136.274-129.109-180.399C194.919 36.747 125.366 11.393 54.01 3.109 36.082 1.028 18.047.026 0 0c-1.93-.003-1.934-3.003 0-3 74.054.105 148.201 17.408 213.31 53.077 64.384 35.273 119.732 88.447 151.991 154.883 35.048 72.181 39.494 156.662 11.167 231.855-26.457 70.228-78.417 128.191-141.42 168.035-61.869 39.128-133.968 60.681-206.868 65.042-74.394 4.451-150.073-8.668-217.738-40.217-66.152-30.844-124.941-79.656-162.62-142.624-40.847-68.263-53.798-150.803-33.329-227.926 19.563-73.708 67.556-136.751 128.637-181.395C-198.155 34.815-127.996 9.017-55.982.342-37.405-1.896-18.709-2.973 0-3c1.93-.003 1.933 2.997 0 3" clip-path="url(#b)" style="fill:#000;fill-opacity:1;fill-rule:nonzero;stroke:none" transform="matrix(1.33333 0 0 -1.33333 717.71 1165.155)"/><path d="M0 0c0-171.411-165.084-310.366-368.726-310.366-203.641 0-368.726 138.955-368.726 310.366s165.085 310.366 368.726 310.366C-165.084 310.366 0 171.411 0 0" clip-path="url(#c)" style="fill:#ffa1db;fill-opacity:1;fill-rule:nonzero;stroke:none" transform="matrix(1.33333 0 0 -1.33333 1209.344 720)"/><path d="M0 0c-.058-32.551-6.107-64.863-17.782-95.249-11.764-30.619-29.105-59.011-50.312-83.992-21.863-25.753-47.759-47.963-76.144-66.236-29.979-19.299-62.686-34.239-96.746-44.73-36.388-11.208-74.274-17.345-112.32-18.543-38.433-1.21-77.026 2.537-114.437 11.465-35.157 8.39-69.245 21.325-100.897 38.806-30.058 16.6-57.903 37.279-81.982 61.79-22.905 23.315-42.329 50.075-56.684 79.469-14.253 29.185-23.337 60.89-26.273 93.253a264.7 264.7 0 0 0 9.377 97.475c9.006 31.046 23.681 60.282 42.56 86.488 19.619 27.233 43.752 51.172 70.64 71.218 28.324 21.116 59.729 38.041 92.749 50.562 34.883 13.227 71.573 21.62 108.7 25.182 38.575 3.702 77.696 2.357 115.895-4.197 36.299-6.229 71.839-17.146 105.181-32.823 31.317-14.725 60.741-33.609 86.729-56.492 24.746-21.79 46.369-47.181 63.22-75.555 16.547-27.86 28.345-58.481 34.213-90.371C-1.429 31.845-.028 15.935 0 0c.003-1.796 2.794-1.799 2.791 0-.059 32.934-6.178 65.695-18.046 96.42-11.778 30.493-28.93 58.723-49.955 83.717-21.985 26.135-48.143 48.665-76.789 67.214-30.25 19.588-63.33 34.745-97.743 45.393-36.589 11.321-74.734 17.526-113.003 18.779-38.856 1.273-77.915-2.52-115.738-11.546-35.543-8.482-70.027-21.616-102.002-39.331-30.223-16.743-58.246-37.626-82.442-62.322-23.131-23.609-42.769-50.749-57.189-80.523-14.184-29.284-23.211-60.954-26.21-93.369-3.049-32.956.141-66.441 9.307-98.241 9.059-31.427 23.867-61.079 42.969-87.595 19.634-27.254 43.644-51.173 70.47-71.343 28.417-21.366 59.964-38.442 93.141-51.168 35.214-13.508 72.274-22.033 109.795-25.728 39.01-3.842 78.554-2.481 117.198 4.1 36.566 6.227 72.324 17.235 105.921 32.979 31.706 14.859 61.459 33.992 87.752 57.145 25.03 22.039 46.894 47.791 63.893 76.516 16.615 28.076 28.489 58.977 34.341 91.096C1.335-32.036 2.762-16.029 2.791 0 2.794 1.796.003 1.799 0 0" clip-path="url(#d)" style="fill:#000;fill-opacity:1;fill-rule:nonzero;stroke:none" transform="matrix(1.33333 0 0 -1.33333 1207.483 720)"/><path d="M1010.401 118.426H69.411v352.871h940.99z" clip-path="url(#e)" style="fill:#ffe564;fill-opacity:1;fill-rule:nonzero;stroke:none" transform="matrix(1.33333 0 0 -1.33333 0 1440)"/><path d="M0 0h-926.806c-4.075 0-8.534.513-12.584 0-.516-.065-1.078 0-1.6 0l1.5-1.5v347.53c0 1.131.502 3.703 0 4.742-.065.134 0 .44 0 .599l-1.5-1.5h926.806c4.075 0 8.534-.513 12.584 0 .515.066 1.078 0 1.6 0l-1.5 1.5V12.901c0-4.369-.737-9.477 0-13.801.032-.189 0-.407 0-.6 0-1.93 3-1.934 3 0v338.471c0 4.404.682 9.434 0 13.801-.03.19 0 .405 0 .599 0 .811-.687 1.5-1.5 1.5h-902.793c-12.195 0-24.403.161-36.597 0-.533-.007-1.067 0-1.6 0-.811 0-1.5-.687-1.5-1.5V12.901c0-4.405-.682-9.435 0-13.801.03-.191 0-.406 0-.6 0-.811.687-1.5 1.5-1.5h902.792C-26.002-3-13.795-3.161-1.6-3c.533.007 1.067 0 1.6 0 1.93 0 1.934 3 0 3" clip-path="url(#f)" style="fill:#000;fill-opacity:1;fill-rule:nonzero;stroke:none" transform="matrix(1.33333 0 0 -1.33333 1347.201 1280.099)"/><path d="m0 0 16.574 90.858 175.188 1.069L206.733.713Z" clip-path="url(#g)" style="fill:#fffbe9;fill-opacity:1;fill-rule:nonzero;stroke:none" transform="matrix(1.33333 0 0 -1.33333 582.053 1109.177)"/><path d="m0 0 1.653 9.06 3.946 21.631 4.795 26.288 4.13 22.638 1.374 7.536c.205 1.122.634 2.4.647 3.546.001.051.02.108.029.159l-1.446-1.101 4.665.028 12.778.078 18.814.115 23.069.141 25.146.153 25.384.155 23.785.145 20.002.122 14.396.088c2.249.014 4.616-.182 6.857.042.096.009.196.001.292.002l-1.446 1.101 1.493-9.096 3.564-21.716 4.331-26.391 3.73-22.727 1.242-7.565c.188-1.146.239-2.448.584-3.56.016-.05.018-.107.026-.159l1.447 1.898-5.513-.019-15.084-.052-22.223-.077-27.108-.093-29.816-.103-29.974-.103-27.949-.096-23.626-.082-17.003-.059c-2.695-.009-5.398.046-8.092-.027-.115-.004-.23-.001-.345-.002-1.93-.006-1.934-3.006 0-2.999l5.513.019 15.083.052 22.224.077 27.107.093 29.817.103 29.973.103 27.949.096 23.626.082 17.003.058c2.695.01 5.399-.045 8.093.028q.172.003.345.002c1.056.003 1.601.95 1.446 1.898l-1.493 9.095-3.564 21.716-4.332 26.392-3.73 22.726-1.241 7.565c-.193 1.173-.298 2.406-.584 3.56-.013.052-.018.107-.027.16-.104.637-.839 1.105-1.446 1.101l-4.665-.028-12.778-.078-18.814-.115-23.068-.141-25.147-.153-25.384-.155-23.784-.145-20.002-.122-14.396-.088c-2.283-.014-4.576.036-6.858-.042q-.146-.003-.292-.002c-.61-.004-1.329-.459-1.446-1.101l-1.653-9.06-3.946-21.631-4.795-26.288-4.13-22.638C-1.515 8.346-2.249 4.659-2.863.956l-.029-.159C-3.237-1.09-.346-1.899 0 0" clip-path="url(#h)" style="fill:#000;fill-opacity:1;fill-rule:nonzero;stroke:none" transform="matrix(1.33333 0 0 -1.33333 583.98 1109.708)"/><path d="m0 0 11.228 69.836-135.446.356-27.089-69.123Z" clip-path="url(#i)" style="fill:#fffbe9;fill-opacity:1;fill-rule:nonzero;stroke:none" transform="matrix(1.33333 0 0 -1.33333 604.152 988.033)"/><path d="m0 0 3.801 23.64L9.85 61.267l1.378 8.569c.152.947-.388 1.895-1.446 1.898l-13.516.036-32.322.085-39.084.103-33.889.089c-5.455.014-10.952.227-16.405.043-.076-.003-.153 0-.23 0-.717.002-1.202-.478-1.446-1.101l-9.152-23.353-14.588-37.224-3.349-8.546c-.365-.931.557-1.892 1.446-1.898l15.086-.107 36.214-.256 43.658-.308 37.732-.267c6.105-.043 12.251-.297 18.355-.129q.131.001.262-.002c1.93-.014 1.932 2.986 0 2.999l-15.086.107-36.214.256-43.658.308-37.732.267-12.493.088c-1.914.014-3.954.231-5.862.041-.085-.008-.176.002-.262.002l1.446-1.898 9.152 23.353 14.588 37.225 3.349 8.545-1.446-1.101 13.515-.036 32.322-.085 39.085-.102 33.889-.09 11.098-.029c1.728-.004 3.587-.206 5.306-.014.075.009.155 0 .231 0l-1.447 1.898-3.8-23.639-6.05-37.628L-2.892.797C-3.196-1.091-.306-1.904 0 0" clip-path="url(#j)" style="fill:#000;fill-opacity:1;fill-rule:nonzero;stroke:none" transform="matrix(1.33333 0 0 -1.33333 606.08 988.565)"/><path d="m0 0 24.951 62.71-117.624.712-29.941-61.997Z" clip-path="url(#k)" style="fill:#fffbe9;fill-opacity:1;fill-rule:nonzero;stroke:none" transform="matrix(1.33333 0 0 -1.33333 438.528 894.443)"/><path d="m0 0 8.429 21.186 13.436 33.77 3.086 7.754c.369.929-.561 1.893-1.447 1.898l-11.725.071-28.149.171-33.909.205-29.321.178c-4.758.029-9.562.253-14.318.086q-.1-.001-.201.002c-.495.003-1.072-.28-1.295-.743l-10.166-21.05-16.071-33.278-3.704-7.669c-.488-1.01.094-2.243 1.295-2.257l12.244-.142 29.267-.34 35.385-.412 30.683-.356c4.925-.058 9.894-.315 14.818-.173.072.003.145-.001.217-.002 1.931-.022 1.932 2.977 0 2.999l-12.244.143-29.268.34-35.384.411-30.683.357-10.036.117c-1.555.018-3.234.22-4.783.055-.07-.007-.145.002-.216.003l1.295-2.257 10.166 21.05 16.071 33.278 3.704 7.669-1.295-.743 11.725-.071 28.149-.17 33.909-.206 29.321-.177 9.709-.059c1.493-.009 3.123-.206 4.609-.028.065.008.136-.001.201-.001l-1.446 1.898-8.429-21.186L.193 8.551-2.892.797C-3.606-.996-.706-1.775 0 0" clip-path="url(#l)" style="fill:#000;fill-opacity:1;fill-rule:nonzero;stroke:none" transform="matrix(1.33333 0 0 -1.33333 440.456 894.975)"/><path d="m0 0 35.644 91.927-129.743-.713-42.416-90.145Z" clip-path="url(#m)" style="fill:#fffbe9;fill-opacity:1;fill-rule:nonzero;stroke:none" transform="matrix(1.33333 0 0 -1.33333 354.885 1109.177)"/><path d="m0 0 3.541 9.132 8.505 21.935 10.292 26.545 8.904 22.963 2.948 7.603c.459 1.183 1.023 2.371 1.39 3.586.017.055.043.109.064.163.357.923-.551 1.903-1.447 1.898l-12.891-.071-30.963-.17-37.469-.206-32.409-.178c-5.248-.028-10.538.134-15.782-.086l-.228-.002c-.492-.002-1.075-.275-1.295-.742l-4.236-9.002-10.115-21.497-12.231-25.994-10.619-22.57c-1.713-3.641-3.476-7.263-5.141-10.926l-.074-.156c-.474-1.009.084-2.248 1.295-2.257l13.564-.106 32.579-.255 39.425-.309 34.101-.267c5.52-.043 11.087-.299 16.606-.13q.12.001.24-.002c1.93-.015 1.932 2.984 0 2.999l-13.564.107-32.58.255-39.424.308-34.101.267-11.25.089c-1.74.013-3.624.235-5.356.041-.078-.008-.162.002-.24.002l1.295-2.256 4.236 9.002 10.115 21.497a303996 303996 0 0 0 22.85 48.563l3.473 7.381c.53 1.125 1.328 2.344 1.668 3.545.015.053.05.106.074.157l-1.295-.743 12.891.071 30.963.17 37.469.206 32.409.178 10.692.058c1.647.009 3.455-.192 5.091.028.073.01.153.001.227.002l-1.446 1.898-3.541-9.132-8.505-21.935-10.292-26.545-8.904-22.963-2.948-7.603C-1.897 3.363-2.462 2.175-2.829.96c-.017-.055-.042-.109-.063-.163C-3.591-1.003-.692-1.783 0 0" clip-path="url(#n)" style="fill:#000;fill-opacity:1;fill-rule:nonzero;stroke:none" transform="matrix(1.33333 0 0 -1.33333 356.813 1109.708)"/><path d="m0 0 10.931 63.303 128.317-.475L150.653.119Z" clip-path="url(#o)" style="fill:#fffbe9;fill-opacity:1;fill-rule:nonzero;stroke:none" transform="matrix(1.33333 0 0 -1.33333 619.122 894.919)"/><path d="m0 0 3.709 21.483 5.865 33.963 1.357 7.857-1.446-1.101 12.789-.047 30.705-.114 37-.137 31.992-.118 10.56-.039c1.638-.006 3.421-.213 5.052-.019.07.009.147 0 .218-.001l-1.446 1.101 3.857-21.205 6.144-33.778 1.405-7.726 1.446 1.898-15.065-.012-35.909-.028-43.536-.034-37.627-.03c-6.073-.005-12.183.188-18.253-.014q-.131-.003-.263-.001c-1.93-.001-1.933-3.001 0-2.999l15.065.012 35.909.028 43.536.034 37.627.03c6.073.005 12.183-.188 18.253.015q.132.002.263 0c1.043.001 1.618.953 1.446 1.898l-3.856 21.205-6.144 33.779-1.405 7.726c-.117.641-.831 1.099-1.447 1.101l-12.79.047-30.704.114-37 .137-31.992.118c-5.19.019-10.424.239-15.612.058-.072-.002-.146.001-.218.001-.605.002-1.337-.463-1.447-1.101L4.329 42.618-1.536 8.654-2.892.797C-3.218-1.091-.328-1.901 0 0" clip-path="url(#p)" style="fill:#000;fill-opacity:1;fill-rule:nonzero;stroke:none" transform="matrix(1.33333 0 0 -1.33333 621.05 895.45)"/><path d="m0 0 148.752-.95-28.99 69.361-133.069.475z" clip-path="url(#q)" style="fill:#fffbe9;fill-opacity:1;fill-rule:nonzero;stroke:none" transform="matrix(1.33333 0 0 -1.33333 837.736 986.608)"/><path d="m0 0 14.899-.095 35.503-.227 42.902-.274L130.4-.833c6.022-.038 12.089-.294 18.11-.116.08.003.162-.001.242-.001.875-.006 1.83.98 1.447 1.898l-9.855 23.579-15.573 37.257-3.563 8.525c-.26.623-.724 1.098-1.446 1.101l-13.237.047-31.788.114-38.454.137-33.236.119c-5.362.019-10.771.247-16.132.057-.074-.002-.148.001-.222.001-1.035.004-1.628-.957-1.446-1.898l4.507-23.333 7.155-37.038 1.645-8.515c.366-1.893 3.257-1.092 2.892.797l-4.507 23.333-7.155 37.038-1.645 8.515-1.446-1.898 13.237-.048 31.788-.113 38.454-.137 33.236-.119 10.947-.039c1.679-.006 3.515-.224 5.185-.019.072.009.15 0 .222 0l-1.446 1.101 9.855-23.579L147.306.151l1.446 1.898-14.898.095-35.503.227-42.902.274-37.097.237c-6.022.039-12.088.294-18.109.116Q.121 2.997 0 2.999C-1.93 3.012-1.933.012 0 0" clip-path="url(#r)" style="fill:#000;fill-opacity:1;fill-rule:nonzero;stroke:none" transform="matrix(1.33333 0 0 -1.33333 837.736 988.607)"/><path d="m0 0-121.188-.95-25.188 63.185 115.96-.951z" clip-path="url(#s)" style="fill:#fffbe9;fill-opacity:1;fill-rule:nonzero;stroke:none" transform="matrix(1.33333 0 0 -1.33333 1159.003 894.127)"/><path d="m0 0-12.034-.094-28.906-.227-35.107-.275-30.238-.237-9.966-.078c-1.527-.012-3.214.177-4.73-.038-.067-.009-.14-.001-.207-.001l1.446-1.101-8.548 21.443-13.518 33.909-3.122 7.833-1.446-1.899 11.552-.095 27.736-.227 33.417-.274 28.993-.237 9.496-.078c1.476-.012 3.093-.214 4.562-.037.066.008.138-.001.204-.002l-1.295.743 10.293-20.738L-5.032 5.272l3.737-7.529c.858-1.729 3.446-.211 2.59 1.514L-8.998 19.995l-16.386 33.018-3.737 7.529c-.232.466-.794.738-1.295.742l-11.552.095-27.737.227-33.416.274-28.993.238c-4.671.038-9.388.272-14.058.115q-.102-.001-.204.002c-.889.007-1.813-.979-1.446-1.899l8.548-21.443 13.518-33.91 3.122-7.832c.247-.619.734-1.106 1.446-1.101l12.033.095 28.906.226 35.108.276 30.238.237c4.886.038 9.814-.105 14.696.115.069.003.138.001.207.002C1.929-2.984 1.934.015 0 0" clip-path="url(#t)" style="fill:#000;fill-opacity:1;fill-rule:nonzero;stroke:none" transform="matrix(1.33333 0 0 -1.33333 1159.003 892.127)"/><path d="M0 0c-1.901 2.85-36.119 90.264-36.119 90.264l127.842-.95L134.02-.95Z" clip-path="url(#u)" style="fill:#fffbe9;fill-opacity:1;fill-rule:nonzero;stroke:none" transform="matrix(1.33333 0 0 -1.33333 1084.231 1108.226)"/><path d="M0 0c-.607.929-.983 2.073-1.416 3.087q-.138.32-.272.639l-.049.115-.162.385q-.354.841-.703 1.684a832 832 0 0 0-1.617 3.93c-2.957 7.236-5.855 14.496-8.747 21.758a8377 8377 0 0 0-10.128 25.563q-4.335 10.984-8.65 21.976l-2.829 7.208c-.426 1.089-.745 2.399-1.337 3.413-.025.044-.039.1-.058.148l-1.446-1.899 12.726-.094 30.555-.227 36.957-.275 31.928-.237 10.453-.078c1.623-.012 3.387-.222 5.004-.037.07.008.147-.001.219-.002l-1.295.743 4.211-8.986 10.11-21.577 12.228-26.095 10.527-22.465 3.489-7.446c.536-1.143.977-2.472 1.659-3.539.03-.047.049-.105.073-.156l1.295 2.257-13.305.094-32.079.227-38.688.275-33.445.237C9.796.664 4.336.919-1.075.741q-.11-.001-.22.002c-1.93.013-1.932-2.986 0-3l13.305-.094 32.079-.227 38.688-.275 33.445-.237c5.412-.038 10.872-.293 16.282-.115q.11.001.221-.002c1.217-.008 1.762 1.261 1.295 2.257l-4.211 8.986-10.111 21.576-12.228 26.096-10.527 22.465-3.489 7.446c-.547 1.168-1.028 2.411-1.658 3.538-.028.05-.049.105-.073.157-.22.468-.803.739-1.295.743l-12.726.094-30.556.227-36.956.275-31.928.237c-5.137.038-10.321.281-15.457.115q-.11-.001-.219.002c-.893.006-1.807-.978-1.446-1.899a15811 15811 0 0 1 11.714-29.806 9498 9498 0 0 1 10.194-25.754 3128 3128 0 0 1 9.046-22.557 693 693 0 0 1 3.185-7.729c.616-1.465 1.173-3.009 1.931-4.41.066-.122.124-.249.2-.366C-1.539-3.124 1.059-1.623 0 0" clip-path="url(#v)" style="fill:#000;fill-opacity:1;fill-rule:nonzero;stroke:none" transform="matrix(1.33333 0 0 -1.33333 1085.958 1107.217)"/><path d="m0 0-24 137.771h169.901L201.03 1.425Z" clip-path="url(#w)" style="fill:#fffbe9;fill-opacity:1;fill-rule:nonzero;stroke:none" transform="matrix(1.33333 0 0 -1.33333 889.696 1291.921)"/><path d="m0 0-2.387 13.704-5.733 32.91-6.935 39.812-5.995 34.41-1.974 11.334c-.305 1.751-.439 3.661-.936 5.371-.021.073-.027.155-.04.23l-1.446-1.898h162.978c2.172 0 4.482-.226 6.645 0 .091.009.187 0 .278 0l-1.446 1.101 5.519-13.651 13.152-32.527 15.895-39.312 13.78-34.083 4.55-11.252c.695-1.72 1.245-3.664 2.14-5.293.039-.071.062-.154.092-.228l1.447 1.898-5.389-.038-14.662-.104-21.58-.153-26.433-.187-28.83-.205-29.225-.207-27.249-.193-22.932-.163L6.72 1.159c-2.605-.019-5.219.025-7.824-.056-.114-.003-.228-.001-.342-.002-1.929-.014-1.934-3.013 0-2.999l5.388.038 14.663.104 21.579.153 26.433.187 28.83.205 29.226.207 27.248.193 22.932.162 16.565.118c2.605.018 5.219-.025 7.823.055.114.004.228.002.343.003.88.006 1.821.969 1.446 1.898l-5.52 13.651-13.151 32.527-15.895 39.312-13.781 34.083c-2.23 5.515-4.439 11.039-6.69 16.545l-.092.228c-.252.623-.731 1.101-1.446 1.101H-4.634c-6.832 0-13.705.218-20.534 0-.093-.003-.186 0-.278 0-1.049 0-1.611-.954-1.446-1.898l2.387-13.704 5.733-32.91 6.935-39.812 5.994-34.41 1.975-11.334c.31-1.778.517-3.614.936-5.371.018-.075.026-.154.04-.23C-2.562-2.695.329-1.891 0 0" clip-path="url(#x)" style="fill:#000;fill-opacity:1;fill-rule:nonzero;stroke:none" transform="matrix(1.33333 0 0 -1.33333 891.625 1291.39)"/><path d="M0 0c3.327 1.425 201.98 0 201.98 0s27.565 134.446 24 133.733c-3.564-.713-173.228.238-173.228.238z" clip-path="url(#y)" style="fill:#fffbe9;fill-opacity:1;fill-rule:nonzero;stroke:none" transform="matrix(1.33333 0 0 -1.33333 280.746 1287.487)"/><path d="M0 0c.067.027.138.032.208.051C.439.113-.306.012.217.049c.422.029.843.066 1.266.089 1.472.079 2.946.116 4.419.151 5.058.12 10.119.162 15.179.199 7.332.054 14.665.074 21.998.085C51.893.585 60.707.58 69.521.566Q83.978.542 98.436.493a25403 25403 0 0 0 55.996-.254 42992 42992 0 0 0 39.093-.237c2.571-.018 5.151-.102 7.721-.053.112.002.224-.002.336-.003.621-.004 1.315.466 1.446 1.101a5246 5246 0 0 1 3.368 16.604 6425 6425 0 0 1 7.568 38.141c2.796 14.33 5.545 28.669 8.138 43.036 1.845 10.223 3.792 20.483 4.971 30.809.144 1.254.282 2.515.319 3.778.023.79.068 1.741-.361 2.442-.496.812-1.087.662-1.884.762.665-.084.105.024-.193.007-.833-.048-1.669-.058-2.503-.074-8.317-.162-16.64-.13-24.958-.136-13.591-.011-27.182.018-40.773.055q-22.473.063-44.948.159a44553 44553 0 0 0-58.494.281l-.924.005c-.717.004-1.202-.479-1.446-1.101l-5.266-13.372-12.594-31.984L17.82 51.787 4.624 18.272.303 7.3c-.68-1.728-1.484-3.453-2.056-5.222-.025-.079-.061-.156-.092-.233C-2.552.048.347-.731 1.047 1.047l5.266 13.372 12.594 31.985 15.228 38.672 13.196 33.515 4.321 10.972c.673 1.71 1.552 3.451 2.056 5.221.022.08.062.157.092.234l-1.446-1.101 13.984-.074a44315 44315 0 0 1 78.616-.336c14.193-.046 28.387-.083 42.581-.091 10.062-.006 20.125-.017 30.186.074 2.339.022 4.685.017 7.022.126.229.011.458.02.686.043.182.018.385.005.551.074-.641-.266-1.266.26-1.521.58-.178.223-.167.389-.066.083.012-.035-.001.433-.003-.081-.001-.408.008-.814-.01-1.222-.06-1.335-.211-2.666-.369-3.992a168 168 0 0 0-.756-5.526c-.783-5.251-1.67-10.486-2.583-15.715-2.407-13.801-5.017-27.567-7.67-41.322a5802 5802 0 0 0-7.973-40.496 6058 6058 0 0 0-4.672-23.113l-.222-1.084 1.447 1.101-5.325.037q-7.252.05-14.504.094-10.737.067-21.475.129-13.12.074-26.24.138-14.399.07-28.797.124-14.574.055-29.149.086-13.591.03-27.183.024a4742 4742 0 0 1-23.252-.061c-5.665-.032-11.329-.071-16.993-.172-2.828-.05-5.708-.003-8.525-.305-.303-.032-.65-.031-.936-.148C-2.561 2.173-1.79-.729 0 0" clip-path="url(#z)" style="fill:#000;fill-opacity:1;fill-rule:nonzero;stroke:none" transform="matrix(1.33333 0 0 -1.33333 281.277 1289.416)"/><path d="M0 0c-.058-32.551-6.107-64.863-17.782-95.249-11.764-30.619-29.105-59.011-50.312-83.992-21.863-25.753-47.759-47.963-76.144-66.236-29.979-19.299-62.686-34.239-96.746-44.73-36.388-11.208-74.274-17.345-112.32-18.543-38.433-1.21-77.026 2.537-114.437 11.465-35.157 8.39-69.245 21.325-100.897 38.806-30.058 16.6-57.903 37.279-81.982 61.79-22.905 23.315-42.329 50.075-56.684 79.469-14.253 29.185-23.337 60.89-26.273 93.253a264.7 264.7 0 0 0 9.377 97.475c9.006 31.046 23.681 60.282 42.56 86.488 19.619 27.233 43.752 51.172 70.64 71.218 28.324 21.116 59.729 38.041 92.749 50.562 34.883 13.227 71.573 21.62 108.7 25.182 38.575 3.702 77.696 2.357 115.895-4.197 36.299-6.229 71.839-17.146 105.181-32.823 31.317-14.725 60.741-33.609 86.729-56.492 24.746-21.79 46.369-47.181 63.22-75.555 16.547-27.86 28.345-58.481 34.213-90.371C-1.429 31.845-.028 15.935 0 0c.003-1.796 2.794-1.799 2.791 0-.059 32.934-6.178 65.695-18.046 96.42-11.778 30.493-28.93 58.723-49.955 83.717-21.985 26.135-48.143 48.665-76.789 67.214-30.25 19.588-63.33 34.745-97.743 45.393-36.589 11.321-74.734 17.526-113.003 18.779-38.856 1.273-77.915-2.52-115.738-11.546-35.543-8.482-70.027-21.616-102.002-39.331-30.223-16.743-58.246-37.626-82.442-62.322-23.131-23.609-42.769-50.749-57.189-80.523-14.184-29.284-23.211-60.954-26.21-93.369-3.049-32.956.141-66.441 9.307-98.241 9.059-31.427 23.867-61.079 42.969-87.595 19.634-27.254 43.644-51.173 70.47-71.343 28.417-21.366 59.964-38.442 93.141-51.168 35.214-13.508 72.274-22.033 109.795-25.728 39.01-3.842 78.554-2.481 117.198 4.1 36.566 6.227 72.324 17.235 105.921 32.979 31.706 14.859 61.459 33.992 87.752 57.145 25.03 22.039 46.894 47.791 63.893 76.516 16.615 28.076 28.489 58.977 34.341 91.096C1.335-32.036 2.762-16.029 2.791 0 2.794 1.796.003 1.799 0 0" clip-path="url(#A)" style="fill:#000;fill-opacity:1;fill-rule:nonzero;stroke:none" transform="matrix(1.33333 0 0 -1.33333 1207.483 720)"/><path d="M0 0c0-48.426-39.257-87.683-87.683-87.683S-175.366-48.426-175.366 0s39.257 87.683 87.683 87.683S0 48.426 0 0" clip-path="url(#B)" style="fill:#fffbe9;fill-opacity:1;fill-rule:nonzero;stroke:none" transform="matrix(1.33333 0 0 -1.33333 341.578 749.821)"/><path d="M0 0c-.035-17.88-5.599-35.41-15.963-49.989-10.015-14.088-24.355-25.055-40.598-30.974-17.04-6.209-35.903-6.894-53.344-1.914-16.737 4.778-31.758 14.708-42.839 28.116-11.204 13.557-18.061 30.568-19.374 48.107-1.339 17.891 2.887 35.932 12.193 51.285 8.98 14.814 22.404 26.712 38.164 33.898 16.369 7.463 35.105 9.531 52.725 5.952 17.188-3.491 33.048-12.274 45.168-24.946 12.119-12.671 20.146-28.931 22.86-46.252C-.32 8.891-.009 4.444 0 0c.004-1.93 3.004-1.934 3 0-.036 18.423-5.755 36.626-16.468 51.637-10.46 14.656-25.225 25.965-42.139 32.161-17.553 6.431-37.124 7.103-55.096 1.972-17.25-4.925-32.864-15.165-44.266-29.014-11.611-14.102-18.683-31.54-20.122-49.755-1.461-18.492 2.958-37.28 12.576-53.146 9.284-15.317 23.208-27.739 39.542-35.111 17.076-7.707 36.374-9.851 54.735-6.118 17.711 3.601 34.142 12.757 46.604 25.836C-9.165-48.452-.792-31.622 1.938-13.741A92 92 0 0 1 3 0C3.004 1.93.004 1.933 0 0" clip-path="url(#C)" style="fill:#000;fill-opacity:1;fill-rule:nonzero;stroke:none" transform="matrix(1.33333 0 0 -1.33333 339.578 749.821)"/><path d="M0 0c0-35.04-28.406-63.446-63.446-63.446S-126.891-35.04-126.891 0s28.405 63.446 63.445 63.446S0 35.04 0 0" clip-path="url(#D)" style="fill:#198e3f;fill-opacity:1;fill-rule:nonzero;stroke:none" transform="matrix(1.33333 0 0 -1.33333 309.26 749.821)"/><path d="M0 0c-.035-12.832-4.005-25.383-11.424-35.862-7.176-10.137-17.495-18.049-29.164-22.309-12.224-4.462-25.733-4.98-38.257-1.441-12.056 3.406-22.869 10.529-30.867 20.158-8.077 9.723-13.03 21.961-13.993 34.562-.985 12.874 2.036 25.854 8.72 36.911 6.45 10.67 16.098 19.226 27.432 24.411 11.758 5.379 25.25 6.868 37.912 4.297 12.33-2.503 23.702-8.784 32.413-17.859C-8.49 33.764-2.713 22.082-.733 9.622-.228 6.442-.009 3.219 0 0c.005-1.93 3.005-1.934 3 0-.037 13.431-4.196 26.707-12.023 37.643-7.62 10.646-18.323 18.838-30.611 23.363-12.732 4.688-26.959 5.189-40.009 1.499-12.622-3.569-24.069-11.049-32.399-21.182-8.458-10.289-13.6-22.976-14.65-36.258-1.06-13.422 2.15-27.074 9.116-38.598 6.754-11.172 16.903-20.253 28.81-25.625 12.415-5.6 26.401-7.172 39.756-4.495 12.917 2.589 24.922 9.259 34.016 18.782C-5.907-35.355.219-23.1 2.212-10.082 2.724-6.743 2.991-3.378 3 0 3.005 1.931.005 1.933 0 0" clip-path="url(#E)" style="fill:#000;fill-opacity:1;fill-rule:nonzero;stroke:none" transform="matrix(1.33333 0 0 -1.33333 307.26 749.821)"/><path d="M0 0c0-48.426-39.257-87.683-87.683-87.683S-175.366-48.426-175.366 0s39.257 87.683 87.683 87.683S0 48.426 0 0" clip-path="url(#F)" style="fill:#fffbe9;fill-opacity:1;fill-rule:nonzero;stroke:none" transform="matrix(1.33333 0 0 -1.33333 1332.244 749.821)"/><path d="M0 0c-.035-17.88-5.599-35.41-15.964-49.989-10.014-14.088-24.354-25.055-40.597-30.974-17.04-6.209-35.903-6.894-53.344-1.914-16.737 4.778-31.758 14.708-42.839 28.116-11.204 13.557-18.061 30.568-19.374 48.107-1.339 17.891 2.887 35.932 12.193 51.285 8.98 14.814 22.404 26.712 38.164 33.898 16.369 7.463 35.105 9.531 52.725 5.952 17.188-3.491 33.048-12.274 45.168-24.946 12.119-12.671 20.146-28.931 22.86-46.252C-.32 8.891-.009 4.444 0 0c.004-1.93 3.004-1.934 3 0-.036 18.423-5.755 36.626-16.468 51.637-10.46 14.656-25.225 25.965-42.139 32.161-17.553 6.431-37.124 7.103-55.096 1.972-17.25-4.925-32.864-15.165-44.266-29.014-11.611-14.102-18.683-31.54-20.122-49.755-1.461-18.492 2.958-37.28 12.576-53.146 9.284-15.317 23.208-27.739 39.542-35.111 17.076-7.707 36.374-9.851 54.735-6.118 17.711 3.601 34.142 12.757 46.604 25.836C-9.165-48.452-.792-31.622 1.938-13.741A92 92 0 0 1 3 0C3.004 1.93.004 1.933 0 0" clip-path="url(#G)" style="fill:#000;fill-opacity:1;fill-rule:nonzero;stroke:none" transform="matrix(1.33333 0 0 -1.33333 1330.244 749.821)"/><path d="M0 0c0-35.04-28.406-63.446-63.446-63.446S-126.891-35.04-126.891 0s28.405 63.446 63.445 63.446S0 35.04 0 0" clip-path="url(#H)" style="fill:#198e3f;fill-opacity:1;fill-rule:nonzero;stroke:none" transform="matrix(1.33333 0 0 -1.33333 1299.928 749.821)"/><path d="M0 0c-.035-12.832-4.005-25.383-11.424-35.862-7.176-10.137-17.495-18.049-29.164-22.309-12.224-4.462-25.733-4.98-38.257-1.441-12.056 3.406-22.869 10.529-30.867 20.158-8.077 9.723-13.03 21.961-13.993 34.562-.985 12.874 2.036 25.854 8.72 36.911 6.45 10.67 16.098 19.226 27.432 24.411 11.758 5.379 25.25 6.868 37.912 4.297 12.33-2.503 23.702-8.784 32.413-17.859C-8.49 33.764-2.713 22.082-.733 9.622-.228 6.442-.009 3.219 0 0c.005-1.93 3.005-1.934 3 0-.037 13.431-4.196 26.707-12.023 37.643-7.62 10.646-18.323 18.838-30.611 23.363-12.732 4.688-26.959 5.189-40.009 1.499-12.622-3.569-24.069-11.049-32.399-21.182-8.458-10.289-13.6-22.976-14.65-36.258-1.06-13.422 2.15-27.074 9.116-38.598 6.754-11.172 16.903-20.253 28.81-25.625 12.415-5.6 26.401-7.172 39.756-4.495 12.917 2.589 24.922 9.259 34.016 18.782C-5.907-35.355.219-23.1 2.212-10.082 2.724-6.743 2.991-3.378 3 0 3.005 1.931.005 1.933 0 0" clip-path="url(#I)" style="fill:#000;fill-opacity:1;fill-rule:nonzero;stroke:none" transform="matrix(1.33333 0 0 -1.33333 1297.928 749.821)"/><path d="M0 0a293 293 0 0 0 3.87 3.858L.745 7.087a307 307 0 0 1-3.92-3.907zm-4.63-50.081q-1.577.264-3.533 1.24a28.4 28.4 0 0 0-3.839 2.321 24.6 24.6 0 0 0-3.389 2.906c-1.003 1.039-2.2 2.33-2.237 2.919-.034.542.512 1.842.537 2.924q.039 1.62-1.1 3.687-1.135 2.069-4.208 4.561c-2.223 1.799-4.122 2.88-5.697 3.232s-2.871.303-3.873-.142q-1.505-.671-2.2-1.57-1.471.068-3.346 1.041a22.3 22.3 0 0 0-3.726 2.466 23.7 23.7 0 0 0-3.327 3.262q-1.474 1.767-2.137 3.542c3.093 3.769 5.857 7.149 8.269 10.191q3.619 4.562 7.248 9.072a280 280 0 0 0 8.123 9.633c3 3.403 6.672 7.287 11.059 11.552C-5.562 29.021.421 33.634 5.737 36.764c5.314 3.129 10.127 4.46 14.328 4.123 4.201-.339 7.893-2.68 11.134-6.9 2.805-3.655 4.158-7.269 4.14-10.822s-1.21-7.075-3.545-10.643-5.621-7.223-9.847-11.103c-2.679-2.458-4.941-4.294-6.829-5.466s-4.057-1.823-6.531-1.96c-.158-.88-.236-1.32-.388-2.199 2.037.091 4.061.616 6.082 1.565s5.201 4.338 6.518 4.528c.603.086 2.429-1.404 3.619-2.494a20.3 20.3 0 0 0 3.148-3.666q1.362-2.03 2.031-4.07a244 244 0 0 1-8.424-7.254c-3.536-3.178-7.386-7.073-11.479-11.663a135 135 0 0 1-5.906-7.068 192 192 0 0 1-4.952-6.67 154 154 0 0 1-3.466-5.083" clip-path="url(#J)" style="fill:#fffbe9;fill-opacity:1;fill-rule:nonzero;stroke:none" transform="matrix(1.33333 0 0 -1.33333 395.871 504.596)"/><path d="M0 0a293 293 0 0 0 3.87 3.858L.745 7.087a307 307 0 0 1-3.92-3.907zm-4.63-50.081q-1.577.264-3.533 1.24a28.4 28.4 0 0 0-3.839 2.321 24.6 24.6 0 0 0-3.389 2.906c-1.003 1.039-2.2 2.33-2.237 2.919-.034.542.512 1.842.537 2.924q.039 1.62-1.1 3.687-1.135 2.069-4.208 4.561c-2.223 1.799-4.122 2.88-5.697 3.232s-2.871.303-3.873-.142q-1.505-.671-2.2-1.57-1.471.068-3.346 1.041a22.3 22.3 0 0 0-3.726 2.466 23.7 23.7 0 0 0-3.327 3.262q-1.474 1.767-2.137 3.542c3.093 3.769 5.857 7.149 8.269 10.191q3.619 4.562 7.248 9.072a280 280 0 0 0 8.123 9.633c3 3.403 6.672 7.287 11.059 11.552C-5.562 29.021.421 33.634 5.737 36.764c5.314 3.129 10.127 4.46 14.328 4.123 4.201-.339 7.893-2.68 11.134-6.9 2.805-3.655 4.158-7.269 4.14-10.822s-1.21-7.075-3.545-10.643-5.621-7.223-9.847-11.103c-2.679-2.458-4.941-4.294-6.829-5.466s-4.057-1.823-6.531-1.96c-.158-.88-.236-1.32-.388-2.199 2.037.091 4.061.616 6.082 1.565s5.201 4.338 6.518 4.528c.603.086 2.429-1.404 3.619-2.494a20.3 20.3 0 0 0 3.148-3.666q1.362-2.03 2.031-4.07a244 244 0 0 1-8.424-7.254c-3.536-3.178-7.386-7.073-11.479-11.663a135 135 0 0 1-5.906-7.068 192 192 0 0 1-4.952-6.67 154 154 0 0 1-3.466-5.083z" clip-path="url(#K)" style="fill:none;stroke:#000;stroke-width:3;stroke-linecap:butt;stroke-linejoin:miter;stroke-miterlimit:10;stroke-dasharray:none;stroke-opacity:1" transform="matrix(1.33333 0 0 -1.33333 395.871 504.596)"/><path d="M0 0c1.577.92 2.369 1.375 3.956 2.272L1.887 5.958a296 296 0 0 1-4.005-2.3zm3.279-20.956c-5.343-3.296-9.857-5.477-13.674-6.411-3.819-.935-7.029-1.007-9.646-.138s-4.704 2.33-6.228 4.429c-2.311 3.185-2.801 6.808-1.341 10.859 1.459 4.049 5.426 8.354 11.941 12.559C-9.581 4.284-6.494 6.168-.246 9.76l-1.738 3.101a283 283 0 0 1-4.098-2.352l.907-1.567A340 340 0 0 1-19.563-.573a457 457 0 0 0-14.118-9.477C-38.919-5.23-42.803.297-45.113 6.686a185 185 0 0 0 5.302 3.681 284 284 0 0 0 6.731 4.377 539 539 0 0 0 7.071 4.383 295 295 0 0 0 6.236 3.696c.017-1.558.34-2.932.957-4.129a7.8 7.8 0 0 1 2.653-2.94c-1.658 3.335-1.376 6.526.92 9.528 2.294 3 6.254 6.096 11.893 9.093 7.285 3.874 13.366 5.808 18.043 6.042s8.352-1.025 11.023-3.662c1.3-1.237 2.279-2.75 2.956-4.528a51 51 0 0 0 1.697-5.299c.455-1.753.974-3.284 1.546-4.594 1.093-2.5 2.36-4.057 3.788-4.68s3.36-.503 3.994-.736c.722-.266 1.841-2.405 2.672-4.19a40.4 40.4 0 0 0 2.093-5.523c.566-1.896 1.301-4.457.969-5.125-.523-1.052-3.972-2.52-6.166-3.679S35.281-3.68 33.88-4.343c-3.547-1.678-6.476-2.697-8.833-2.994s-4.035.483-5.026 2.387q-.528 1.01-.656 2.382a41 41 0 0 0-.161 3.016c-.902-.073-1.353-.111-2.257-.192.053-2.195-.24-4.474-.86-6.841s-1.927-4.74-3.902-7.147-4.944-4.78-8.906-7.224" clip-path="url(#L)" style="fill:#fffbe9;fill-opacity:1;fill-rule:nonzero;stroke:none" transform="matrix(1.33333 0 0 -1.33333 499.198 442.865)"/><path d="M0 0c1.577.92 2.369 1.375 3.956 2.272L1.887 5.958a296 296 0 0 1-4.005-2.3zm3.279-20.956c-5.343-3.296-9.857-5.477-13.674-6.411-3.819-.935-7.029-1.007-9.646-.138s-4.704 2.33-6.228 4.429c-2.311 3.185-2.801 6.808-1.341 10.859 1.459 4.049 5.426 8.354 11.941 12.559C-9.581 4.284-6.494 6.168-.246 9.76l-1.738 3.101a283 283 0 0 1-4.098-2.352l.907-1.567A340 340 0 0 1-19.563-.573a457 457 0 0 0-14.118-9.477C-38.919-5.23-42.803.297-45.113 6.686a185 185 0 0 0 5.302 3.681 284 284 0 0 0 6.731 4.377 539 539 0 0 0 7.071 4.383 295 295 0 0 0 6.236 3.696c.017-1.558.34-2.932.957-4.129a7.8 7.8 0 0 1 2.653-2.94c-1.658 3.335-1.376 6.526.92 9.528 2.294 3 6.254 6.096 11.893 9.093 7.285 3.874 13.366 5.808 18.043 6.042s8.352-1.025 11.023-3.662c1.3-1.237 2.279-2.75 2.956-4.528a51 51 0 0 0 1.697-5.299c.455-1.753.974-3.284 1.546-4.594 1.093-2.5 2.36-4.057 3.788-4.68s3.36-.503 3.994-.736c.722-.266 1.841-2.405 2.672-4.19a40.4 40.4 0 0 0 2.093-5.523c.566-1.896 1.301-4.457.969-5.125-.523-1.052-3.972-2.52-6.166-3.679S35.281-3.68 33.88-4.343c-3.547-1.678-6.476-2.697-8.833-2.994s-4.035.483-5.026 2.387q-.528 1.01-.656 2.382a41 41 0 0 0-.161 3.016c-.902-.073-1.353-.111-2.257-.192.053-2.195-.24-4.474-.86-6.841s-1.927-4.74-3.902-7.147-4.944-4.78-8.906-7.224z" clip-path="url(#M)" style="fill:none;stroke:#000;stroke-width:3;stroke-linecap:butt;stroke-linejoin:miter;stroke-miterlimit:10;stroke-dasharray:none;stroke-opacity:1" transform="matrix(1.33333 0 0 -1.33333 499.198 442.865)"/><path d="M0 0q-1.487 1.73-2.878 4.357a34 34 0 0 0-2.308 5.436c-.608 1.874-1.309 4.267-1.004 4.861.293.571 1.878 1.754 2.45 3.183.571 1.428.404 3.403-.516 5.923q-1.171 3.215-2.658 4.704-1.49 1.486-2.806 1.854-1.316.363-2.135.124-1.583 1.762-2.96 4.503a26.4 26.4 0 0 0-2.092 5.7q-.712 2.96-.404 5.161c2.702.741 5.719 1.629 9.062 2.639A694 694 0 0 1 1.988 51.63q5.225 1.666 10.293 3.224c3.378 1.039 6.172 1.871 8.37 2.539-.583-.8-1.096-2.034-1.526-3.7a22 22 0 0 1-.699-5.089c-.036-1.726.2-3.169.696-4.33.428 4.245 2.465 8.134 6.185 11.575s9.41 6.042 16.974 7.537c3.292.651 6.154.955 8.568.943 2.415-.012 4.477-.459 6.174-1.322s3.117-2.348 4.292-4.297c1.018-1.687 1.687-3.494 1.9-5.38a50 50 0 0 0 .308-5.714 38.5 38.5 0 0 1 .404-5.667q.447-3.051 1.423-4.705.977-1.654 2.25-2.356 1.271-.702 2.428-.888.966-1.834 1.46-4.744c.33-1.941.515-3.901.564-5.877q.072-2.965-.401-5.193c-1.941-.079-4.29-.196-7.05-.379-2.759-.182-6.21-.63-10.328-1.41-3.718-.705-7.139-1.547-10.253-2.495a170 170 0 0 1-7.278-2.373q-.81 1.666-1.762 4.504a54 54 0 0 0-1.624 5.987q-.669 3.151-.767 5.545c-.893 3.593-1.339 5.389-2.23 8.982-1.19-.297-1.784-.447-2.972-.754.923-3.585 1.385-5.377 2.31-8.961q1.133-2.133 2.046-5.222a54 54 0 0 0 1.426-6.037q.516-2.949.452-4.837a263 263 0 0 1-4.006-.614 77 77 0 0 1-5.255-1.063c-2.053-.481-4.581-1.179-7.57-2.129-3.677-1.168-6.924-2.388-9.736-3.622C4.239 2.075 1.891.963 0 0" clip-path="url(#N)" style="fill:#fffbe9;fill-opacity:1;fill-rule:nonzero;stroke:#000;stroke-width:3;stroke-linecap:butt;stroke-linejoin:miter;stroke-miterlimit:10;stroke-dasharray:none;stroke-opacity:1" transform="matrix(1.33333 0 0 -1.33333 573.835 434.436)"/><path d="M0 0c-8.596.053-15.57.851-21.078 2.699s-9.727 4.519-12.633 8.171-4.699 8.049-5.245 13.251c-.542 5.155.268 9.733 2.555 13.7s5.81 7.174 10.569 9.52c4.758 2.345 10.486 3.637 17.059 3.756 6.398.116 11.374-.722 14.863-2.341 3.487-1.617 5.199-4.588 5.198-8.836.689 1.539 1.003 3.104.927 4.695-.076 1.588-.2 3.15-.369 4.677 1.926-.073 4.13-.147 6.614-.239q3.721-.136 7.667-.333a287 287 0 0 0 7.445-.471 174 174 0 0 0 5.944-.551q.312-1.858.284-4.654a73 73 0 0 0-.334-6.036 61 61 0 0 0-.929-6.338q-.624-3.101-1.403-5.509c-1.604 0-3.638.073-6.107.196-2.468.123-5.124.27-7.969.43q-4.268.24-8.533.509c-2.844.179-5.455.348-7.837.518s-4.286.34-5.711.532l-.055 2.481c-1.592.013-2.388.015-3.981.01l.002-7.842c1.557.004 2.336.002 3.892-.011l.03 2.749c12.425-.002 24.112-.744 36.453-2.223-.873-5.525-2.761-9.961-5.564-13.358-2.803-3.399-6.756-5.756-11.867-7.202C14.777.503 8.19-.051 0 0" clip-path="url(#O)" style="fill:#fffbe9;fill-opacity:1;fill-rule:nonzero;stroke:#000;stroke-width:3;stroke-linecap:butt;stroke-linejoin:miter;stroke-miterlimit:10;stroke-dasharray:none;stroke-opacity:1" transform="matrix(1.33333 0 0 -1.33333 729.234 407.992)"/><path d="M0 0c1.727-.422 2.589-.639 4.311-1.083l1.076 4.085c-1.743.451-2.616.67-4.364 1.097zm-12.008-17.382c-5.942 1.305-10.519 2.852-13.768 4.819s-5.489 4.138-6.689 6.577-1.638 4.935-1.264 7.501c.567 3.892 2.666 6.835 6.396 8.74 3.728 1.902 9.348 2.257 16.703.793C-3.748 9.69-.319 8.924 6.499 7.216l.908 3.436c-1.783.461-2.676.686-4.464 1.123l-.439-1.756a343 343 0 0 1-16.439 3.057 374 374 0 0 0-16.083 2.942c-.327 7.096.742 13.762 3.469 19.957 1.679-.248 3.717-.583 6.107-1.023 2.388-.439 4.918-.936 7.583-1.501q3.995-.848 7.85-1.722c2.57-.584 4.846-1.134 6.835-1.634C.777 28.959.065 27.744-.322 26.456a8 8 0 0 1-.164-3.951c1.122 3.551 3.491 5.658 7.14 6.244 3.645.584 8.525.093 14.539-1.622 7.772-2.218 13.409-5.005 16.887-8.056s5.226-6.492 5.302-10.235c.069-1.788-.277-3.555-1.026-5.305a52 52 0 0 0-2.457-4.992q-1.332-2.37-2.077-4.381c-.952-2.555-1.125-4.551-.539-5.986s2.047-2.681 2.337-3.285c.333-.69-.351-3.003-.994-4.864a41 41 0 0 0-2.331-5.427c-.909-1.759-2.153-4.113-2.856-4.366-1.099-.395-4.572.919-6.932 1.592-2.359.674-4.264 1.241-5.712 1.726-3.667 1.229-6.432 2.509-8.294 3.915s-2.505 3.126-1.894 5.183q.324 1.093 1.175 2.171.85 1.078 1.959 2.288c-.685.569-1.028.852-1.718 1.416-1.47-1.622-3.239-3.066-5.295-4.349-2.058-1.284-4.597-2.097-7.621-2.476-3.024-.378-6.71-.046-11.115.922" clip-path="url(#P)" style="fill:#fffbe9;fill-opacity:1;fill-rule:nonzero;stroke:none" transform="matrix(1.33333 0 0 -1.33333 834.489 394.683)"/><path d="M0 0c1.727-.422 2.589-.639 4.311-1.083l1.076 4.085c-1.743.451-2.616.67-4.364 1.097zm-12.008-17.382c-5.942 1.305-10.519 2.852-13.768 4.819s-5.489 4.138-6.689 6.577-1.638 4.935-1.264 7.501c.567 3.892 2.666 6.835 6.396 8.74 3.728 1.902 9.348 2.257 16.703.793C-3.748 9.69-.319 8.924 6.499 7.216l.908 3.436c-1.783.461-2.676.686-4.464 1.123l-.439-1.756a343 343 0 0 1-16.439 3.057 374 374 0 0 0-16.083 2.942c-.327 7.096.742 13.762 3.469 19.957 1.679-.248 3.717-.583 6.107-1.023 2.388-.439 4.918-.936 7.583-1.501q3.995-.848 7.85-1.722c2.57-.584 4.846-1.134 6.835-1.634C.777 28.959.065 27.744-.322 26.456a8 8 0 0 1-.164-3.951c1.122 3.551 3.491 5.658 7.14 6.244 3.645.584 8.525.093 14.539-1.622 7.772-2.218 13.409-5.005 16.887-8.056s5.226-6.492 5.302-10.235c.069-1.788-.277-3.555-1.026-5.305a52 52 0 0 0-2.457-4.992q-1.332-2.37-2.077-4.381c-.952-2.555-1.125-4.551-.539-5.986s2.047-2.681 2.337-3.285c.333-.69-.351-3.003-.994-4.864a41 41 0 0 0-2.331-5.427c-.909-1.759-2.153-4.113-2.856-4.366-1.099-.395-4.572.919-6.932 1.592-2.359.674-4.264 1.241-5.712 1.726-3.667 1.229-6.432 2.509-8.294 3.915s-2.505 3.126-1.894 5.183q.324 1.093 1.175 2.171.85 1.078 1.959 2.288c-.685.569-1.028.852-1.718 1.416-1.47-1.622-3.239-3.066-5.295-4.349-2.058-1.284-4.597-2.097-7.621-2.476-3.024-.378-6.71-.046-11.115.922z" clip-path="url(#Q)" style="fill:none;stroke:#000;stroke-width:3;stroke-linecap:butt;stroke-linejoin:miter;stroke-miterlimit:10;stroke-dasharray:none;stroke-opacity:1" transform="matrix(1.33333 0 0 -1.33333 834.489 394.683)"/><path d="M0 0q-.038 1.476.43 3.569a27 27 0 0 0 1.348 4.273 40 40 0 0 0 1.889 4.046c.673 1.245 1.529 2.691 2.06 2.881.472.169 1.749.045 2.705.34q1.431.44 3.072 2.322c1.093 1.254 2.256 3.246 3.476 5.982 1.257 2.818 1.926 5.041 1.995 6.671.069 1.628-.16 2.888-.682 3.77q-.786 1.323-1.53 2.002-.267 1.35.24 3.429.505 2.08 1.515 4.348a27 27 0 0 0 2.317 4.193q1.306 1.924 2.724 2.927a188 188 0 0 0 5.801-2.962 912 912 0 0 1 7.496-3.92c2.7-1.4 5.345-2.756 7.934-4.059 3.828-1.926 7.34-3.662 10.552-5.179a760 760 0 0 0 8.268-3.976q-.235-2.033-.789-3.69a16.7 16.7 0 0 0-1.437-3.161c-.839-1.427-2.047-2.922-3.613-4.497a2618 2618 0 0 0-4.709-4.722c-1.572-1.572-2.778-3.101-3.624-4.575l-.6-1.048c2.691.94 5.285 2.573 7.781 4.922 2.497 2.348 4.947 5.613 7.316 9.825q2.101-1.395 4.459-3.148c1.57-1.168 3.542-2.573 5.899-4.238 2.358-1.664 5.343-3.687 8.93-6.132 2.937-2.002 5.367-3.64 7.315-4.873a414 414 0 0 1 5.141-3.216 143 143 0 0 0 4.742-3.036q-.28-1.562-1.218-3.508a23.3 23.3 0 0 0-2.346-3.824 37 37 0 0 0-2.88-3.412q-1.472-1.531-2.82-2.272c-2.693 1.283-5.097 2.215-7.2 2.82-2.104.606-4.071 1.004-5.897 1.206-.812-3.593-.799-6.92.023-10.001.82-3.08 1.963-5.919 3.441-8.537q-.366-1.416-1.483-3.181a38 38 0 0 0-2.576-3.562 27 27 0 0 0-3.095-3.245q-1.636-1.446-3-2.173c-1.604 1.467-3.381 3.096-5.344 4.876-1.965 1.781-4.539 3.806-7.74 6.016-3.549 2.448-6.525 4.318-8.887 5.674s-4.335 2.41-5.906 3.188a264 264 0 0 1-4.339 2.1q1.436 1.958 2.619 3.635a50 50 0 0 1 2.08 3.175q1.444 2.418 2.368 4.6c.615 1.456.902 3.002.849 4.639s-.611 3.517-1.701 5.629l-3-5.239c1.022-.581 1.532-.874 2.55-1.465q-.185-1.446-1.079-3.369a40 40 0 0 0-2.12-3.929 27 27 0 0 0-2.634-3.629q-1.409-1.624-2.621-2.475a250 250 0 0 1-6.779 4.533 95 95 0 0 1-8.952 5.099 112 112 0 0 1-6.869 3.162c-2.358.991-4.584 1.86-6.67 2.617A139 139 0 0 1 0 0" clip-path="url(#R)" style="fill:#fffbe9;fill-opacity:1;fill-rule:nonzero;stroke:#000;stroke-width:3;stroke-linecap:butt;stroke-linejoin:miter;stroke-miterlimit:10;stroke-dasharray:none;stroke-opacity:1" transform="matrix(1.33333 0 0 -1.33333 893.624 440.239)"/><path d="M0 0a288 288 0 0 0 3.005-3.129L5.829-.456a294 294 0 0 1-3.038 3.164zm-19.114-21.519c-6.11 6.362-10.56 11.96-13.276 17.179-2.716 5.221-3.909 10.072-3.477 14.677.432 4.604 2.289 9.002 5.702 13.143 3.924 4.762 8.236 7.656 13.016 8.536s10.289-.224 16.404-3.495 13.071-8.712 20.513-16.585C25.306 6.078 29.657.216 32.841-5.447s4.923-10.734 5.31-15.066c.386-4.331-.859-7.515-3.62-9.569-1.004-.748-2.177-1.291-3.509-1.638-1.333-.346-2.89-.196-4.666.429-1.778.625-3.87 1.978-6.301 4.015-2.435 2.039-5.287 5.043-8.639 8.94-2.236 2.599-4.253 4.919-6.04 6.986A239 239 0 0 0 .534-5.588a284 284 0 0 1-3.035 3.16l-3.561-3.457A283 283 0 0 0-3.13-8.937l1.948 1.845c9.324-9.724 17.466-19.436 25.551-30.223-3.976-2.968-8.177-4.323-12.554-4.211-4.379.114-9.03 1.875-14.049 5.13s-10.546 8.283-16.88 14.877" clip-path="url(#S)" style="fill:#fffbe9;fill-opacity:1;fill-rule:nonzero;stroke:none" transform="matrix(1.33333 0 0 -1.33333 1056.795 508.358)"/><path d="M0 0a288 288 0 0 0 3.005-3.129L5.829-.456a294 294 0 0 1-3.038 3.164zm-19.114-21.519c-6.11 6.362-10.56 11.96-13.276 17.179-2.716 5.221-3.909 10.072-3.477 14.677.432 4.604 2.289 9.002 5.702 13.143 3.924 4.762 8.236 7.656 13.016 8.536s10.289-.224 16.404-3.495 13.071-8.712 20.513-16.585C25.306 6.078 29.657.216 32.841-5.447s4.923-10.734 5.31-15.066c.386-4.331-.859-7.515-3.62-9.569-1.004-.748-2.177-1.291-3.509-1.638-1.333-.346-2.89-.196-4.666.429-1.778.625-3.87 1.978-6.301 4.015-2.435 2.039-5.287 5.043-8.639 8.94-2.236 2.599-4.253 4.919-6.04 6.986A239 239 0 0 0 .534-5.588a284 284 0 0 1-3.035 3.16l-3.561-3.457A283 283 0 0 0-3.13-8.937l1.948 1.845c9.324-9.724 17.466-19.436 25.551-30.223-3.976-2.968-8.177-4.323-12.554-4.211-4.379.114-9.03 1.875-14.049 5.13s-10.546 8.283-16.88 14.877z" clip-path="url(#T)" style="fill:none;stroke:#000;stroke-width:3;stroke-linecap:butt;stroke-linejoin:miter;stroke-miterlimit:10;stroke-dasharray:none;stroke-opacity:1" transform="matrix(1.33333 0 0 -1.33333 1056.795 508.358)"/><path d="M4.373.001q-.75 0-.75-.75v-38.684q0-.748.75-.75h21.011q.748.002.75.75v6.516q-.002.75-.75.75h-11.73v8.566h10.71q.75.001.75.75v5.52q0 .75-.75.75h-10.71v8.531h11.73q.748.002.75.75v6.551q-.002.75-.75.75zm31.256 0q-.75 0-.75-.75v-4.887q0-.69.457-.902l6.141-3.656v-3.13l-6.14-3.316q-.458-.268-.458-.937v-9.61q0-.339.106-.55.105-.21.316-.364l6.422-4.699q.327-.232.54-.293.21-.07.421-.07h7.324q.761 0 .762.762v4.722q-.002.519-.082.703-.07.178-.316.293L44.676-23.6v3.493l6.094 3.011q.502.211.504.914v9.246q-.001.765-.504 1.207L44.348-.386q-.482.387-1.207.387Zm31.351 0q-.694.002-1.207-.516l-5.027-5.004a1.68 1.68 0 0 1-.48-1.207v-19.406H59q-.764.002-.762-.762V-32.4q-.002-.761.762-.762h1.265v-3.762q0-.761.75-.762h8.016q.76 0 .761.762v3.762h2.918q.749 0 .75.762v5.507q-.001.764-.75.762h-2.918v16.09q0 .576.352.937l2.965 2.989q.291.27.293.902v4.465q-.001.75-.75.75zm13.934-.246q-.75 0-.75-.809v-9.586q0-.819.75-.82h9.644q.761.001.762.82v9.586q0 .81-.762.809zm0 0" aria-label="Est." style="fill:#ffe564;fill-opacity:1;fill-rule:nonzero;stroke:none" transform="translate(162.545 776.585)scale(1.33333)"/><path d="M0 0q.754 0 .754.754v6.542q0 .753-.754.753h-11.727v8.532h10.702q.754 0 .754.753v5.518q0 .752-.754.752h-10.702v8.562H0q.754 0 .754.754v6.512q0 .754-.754.754h-21.012q-.754 0-.754-.754V.754q0-.754.754-.754Z" clip-path="url(#U)" style="fill:none;stroke:#000;stroke-width:3;stroke-linecap:butt;stroke-linejoin:miter;stroke-miterlimit:10;stroke-dasharray:none;stroke-opacity:1" transform="matrix(1.33333 0 0 -1.33333 196.39 776.585)"/><path d="M0 0q.723 0 1.206.392l6.421 5.336q.512.452.513 1.206v9.254q0 .693-.513.905l-6.09 3.014v3.497l5.698 3.076q.241.12.317.301.075.181.075.694v4.732q0 .754-.753.754H-.452q-.212 0-.423-.06-.21-.06-.542-.301l-6.421-4.703a1 1 0 0 1-.317-.362 1.2 1.2 0 0 1-.105-.543v-9.617q0-.663.452-.934l6.15-3.316v-3.136l-6.15-3.647q-.452-.211-.452-.904V.754q0-.754.753-.754Z" clip-path="url(#V)" style="fill:none;stroke:#000;stroke-width:3;stroke-linecap:butt;stroke-linejoin:miter;stroke-miterlimit:10;stroke-dasharray:none;stroke-opacity:1" transform="matrix(1.33333 0 0 -1.33333 220.105 776.585)"/><path d="M0 0q.754 0 .754.754v4.462q0 .632-.302.904l-2.954 2.984q-.362.363-.362.935v16.098H.061q.752 0 .753.754v5.516q0 .754-.753.754h-2.925v3.769q0 .754-.754.754h-8.018q-.754 0-.754-.754v-3.769h-1.266q-.754 0-.754-.754v-5.516q0-.753.754-.754h1.266V6.723q0-.694.482-1.206L-6.874.513A1.65 1.65 0 0 1-5.667 0Z" clip-path="url(#W)" style="fill:none;stroke:#000;stroke-width:3;stroke-linecap:butt;stroke-linejoin:miter;stroke-miterlimit:10;stroke-dasharray:none;stroke-opacity:1" transform="matrix(1.33333 0 0 -1.33333 259.456 776.585)"/><path d="M0 0q.753 0 .753.813V10.4q0 .815-.753.815h-9.647q-.754 0-.754-.815V.813q0-.813.754-.813Z" clip-path="url(#X)" style="fill:none;stroke:#000;stroke-width:3;stroke-linecap:butt;stroke-linejoin:miter;stroke-miterlimit:10;stroke-dasharray:none;stroke-opacity:1" transform="matrix(1.33333 0 0 -1.33333 283.333 776.263)"/><path d="M4.923 0c-.384 0-.574-.192-.574-.585v-24.328l-3.118.117q-.574.001-.574-.574v-5.028q-.001-.572.574-.574H11.51q.572.002.574.574V-.585q-.001.588-.574.586zm29.985-30.972q.548 0 .926.387l4.652 4.652q.387.377.387.926v17.39a.87.87 0 0 1-.34.692L32.05-.233q-.26.236-.703.234h-5.801q-.588.002-.586-.586v-2.918q0-.422.352-.703l7.734-5.742v-1.278h-8.273q-.554.001-.926-.398l-3.88-3.856a1.24 1.24 0 0 1-.398-.925v-8.602q0-.548.399-.926l4.64-4.652q.397-.387.938-.387zm-4.676 5.965q-2.04.001-2.765.902-.716.892-.715 3.422-.001 2.532.715 3.446.726.903 2.765.902 2.026.001 2.754-.902.74-.914.739-3.446 0-2.53-.739-3.422-.728-.901-2.754-.902m33.446-5.965q.549 0 .926.387l4.652 4.652q.387.378.387.926v17.39a.87.87 0 0 1-.34.692L60.818-.233q-.258.236-.703.234h-5.8q-.588.002-.586-.586v-2.918q0-.422.351-.703l7.734-5.742v-1.278h-8.273q-.554.001-.926-.398l-3.879-3.856a1.24 1.24 0 0 1-.398-.925v-8.602q0-.548.398-.926l4.641-4.652q.397-.387.937-.387zm-4.676 5.965q-2.04.001-2.766.902-.715.892-.714 3.422 0 2.532.714 3.446.727.903 2.766.902 2.025.001 2.754-.902.738-.914.738-3.446 0-2.53-.738-3.422-.728-.901-2.754-.902M83.084.001a1.23 1.23 0 0 1-.937-.399l-4.641-4.64a1.23 1.23 0 0 1-.399-.938v-5.015q-.001-.466.235-.692l2.625-3.07v-1.465l-2.625-3.07q-.236-.234-.235-.692v-5.05q0-.528.399-.926l4.64-4.652a1.3 1.3 0 0 1 .938-.364H92.4q.55.001.926.364l4.653 4.652q.386.4.386.926v5.05q-.001.459-.222.692l-2.637 3.07v1.465l2.637 3.07q.22.225.222.692v5.015q0 .563-.386.938l-4.653 4.64q-.377.4-.926.399Zm4.664-4.922q2.048 0 2.766-.89.725-.903.726-3.434 0-2.53-.726-3.434-.717-.914-2.766-.914-2.017 0-2.754.914-.727.904-.726 3.434-.001 2.532.726 3.433.738.892 2.754.891m0-12.457q2.048.001 2.766-.902.725-.915.726-3.446 0-2.53-.726-3.433-.717-.915-2.766-.914-2.017 0-2.754.914-.727.904-.726 3.433-.001 2.531.726 3.446.738.903 2.754.902m0 0" aria-label="1998" style="fill:#ffe564;fill-opacity:1;fill-rule:nonzero;stroke:none" transform="translate(1149.264 771.214)scale(1.33333)"/><path d="M0 0q.58 0 .581.581v29.816q0 .581-.581.582h-10.271q-.582 0-.582-.582v-5.019q0-.581.582-.581l3.113.116V.581q0-.581.581-.581Z" clip-path="url(#Y)" style="fill:none;stroke:#000;stroke-width:2.313;stroke-linecap:butt;stroke-linejoin:miter;stroke-miterlimit:10;stroke-dasharray:none;stroke-opacity:1" transform="matrix(1.33333 0 0 -1.33333 1164.602 771.214)"/><path d="M0 0q-.535 0-.93-.396l-4.648-4.647a1.23 1.23 0 0 1-.395-.93v-8.598q0-.535.395-.93l3.882-3.857a1.22 1.22 0 0 1 .929-.396h8.273v-1.278l-7.738-5.74a.86.86 0 0 1-.349-.698v-2.927q0-.582.581-.582h5.81q.44 0 .697.233l8.482 6.693a.86.86 0 0 1 .349.697v17.383q0 .558-.395.93L10.295-.396A1.22 1.22 0 0 1 9.366 0Zm7.448-6.867q.733-.895.732-3.429 0-2.533-.732-3.438-.732-.908-2.754-.908-2.045 0-2.765.908-.72.905-.721 3.438 0 2.534.721 3.429.72.894 2.765.894 2.022 0 2.754-.894z" clip-path="url(#Z)" style="fill:none;stroke:#000;stroke-width:2.313;stroke-linecap:butt;stroke-linejoin:miter;stroke-miterlimit:10;stroke-dasharray:none;stroke-opacity:1" transform="matrix(1.33333 0 0 -1.33333 1183.318 729.909)"/><path d="M0 0q-.535 0-.93-.396l-4.648-4.647a1.23 1.23 0 0 1-.395-.93v-8.598q0-.535.395-.93l3.882-3.857a1.22 1.22 0 0 1 .929-.396h8.273v-1.278l-7.738-5.74a.86.86 0 0 1-.349-.698v-2.927q0-.582.581-.582h5.81q.44 0 .697.233l8.482 6.693a.86.86 0 0 1 .349.697v17.383q0 .558-.395.93L10.295-.396A1.22 1.22 0 0 1 9.366 0Zm7.448-6.867q.733-.895.732-3.429 0-2.533-.732-3.438-.732-.908-2.754-.908-2.045 0-2.765.908-.72.905-.721 3.438 0 2.534.721 3.429.72.894 2.765.894 2.022 0 2.754-.894z" clip-path="url(#aa)" style="fill:none;stroke:#000;stroke-width:2.313;stroke-linecap:butt;stroke-linejoin:miter;stroke-miterlimit:10;stroke-dasharray:none;stroke-opacity:1" transform="matrix(1.33333 0 0 -1.33333 1221.708 729.909)"/><path d="M0 0q.558 0 .93.396l4.648 4.647q.395.372.395.93v5.019q0 .465-.233.697l-2.626 3.068v1.464l2.626 3.068q.233.232.233.697v5.043q0 .534-.395.929L.93 30.606a1.26 1.26 0 0 1-.93.373h-9.318q-.559 0-.93-.373l-4.648-4.648a1.27 1.27 0 0 1-.396-.929v-5.043q0-.465.233-.697l2.626-3.068v-1.464l-2.626-3.068q-.233-.232-.233-.697V5.973q0-.558.396-.93l4.648-4.647Q-9.877 0-9.318 0Zm-7.401 5.821q-.733.896-.733 3.428 0 2.534.733 3.439.732.907 2.754.907 2.045 0 2.765-.907.72-.905.72-3.439 0-2.532-.72-3.428-.72-.894-2.765-.894-2.022 0-2.754.894zm0 12.468q-.733.907-.733 3.44t.733 3.439 2.754.906q2.045 0 2.765-.906.72-.907.72-3.439t-.72-3.44q-.72-.905-2.765-.906-2.022 0-2.754.906z" clip-path="url(#ab)" style="fill:none;stroke:#000;stroke-width:2.313;stroke-linecap:butt;stroke-linejoin:miter;stroke-miterlimit:10;stroke-dasharray:none;stroke-opacity:1" transform="matrix(1.33333 0 0 -1.33333 1272.525 771.214)"/><path d="M0 0c0-41.69-98.915-75.486-220.934-75.486S-441.868-41.69-441.868 0s98.916 75.486 220.934 75.486C-98.915 75.486 0 41.69 0 0" clip-path="url(#ac)" style="fill:#e8b26a;fill-opacity:1;fill-rule:nonzero;stroke:none" transform="matrix(1.33333 0 0 -1.33333 1004.025 904.616)"/><path d="M0 0c-.048-8.781-4.818-16.485-10.796-22.592-8.395-8.577-19.102-14.744-29.868-19.844-14.496-6.868-29.877-11.835-45.381-15.857-19.155-4.968-38.699-8.435-58.334-10.842-44.401-5.443-89.595-5.889-134.119-1.645-36.995 3.527-74.714 10.073-109.29 24.148-11.928 4.857-23.859 10.782-33.868 18.991-7.039 5.774-13.658 13.101-15.733 22.217-4.54 19.944 16.014 34.885 31.005 43.22 13.355 7.425 27.813 12.777 42.422 17.148 17.932 5.365 36.313 9.197 54.804 12.044 44.235 6.811 89.472 8.145 134.096 5.068 38.465-2.652 77.452-8.478 113.949-21.301 13.329-4.683 26.512-10.393 38.269-18.308 8.132-5.475 16.087-12.361 20.32-21.399C-.904 7.59-.021 3.819 0 0c.013-2.492 3.888-2.497 3.874 0-.12 22.179-23.736 36.66-41.23 45.133-14.617 7.081-30.135 12.255-45.813 16.411-19.36 5.132-39.123 8.67-58.984 11.188-45.621 5.783-92.119 6.258-137.878 1.773-37.682-3.692-76.178-10.401-111.252-25.16-12.129-5.103-24.078-11.27-34.155-19.836-7.161-6.086-13.712-13.935-15.749-23.335-4.602-21.229 15.172-37.221 31.435-46.518 13.314-7.612 27.818-13.132 42.443-17.633 18.43-5.671 37.362-9.675 56.406-12.636 45.079-7.007 91.144-8.454 136.629-5.262 39.353 2.761 79.376 8.749 116.602 22.245 13.311 4.826 26.526 10.665 38.18 18.795 8.352 5.827 16.518 13.148 20.684 22.653C2.884-8.323 3.851-4.225 3.874 0 3.888 2.493.013 2.496 0 0" clip-path="url(#ad)" style="fill:#000;fill-opacity:1;fill-rule:nonzero;stroke:none" transform="matrix(1.33333 0 0 -1.33333 1001.443 904.616)"/><path d="M0 0c0-41.69-98.915-75.486-220.934-75.486S-441.868-41.69-441.868 0s98.916 75.486 220.934 75.486C-98.915 75.486 0 41.69 0 0" clip-path="url(#ae)" style="fill:#e8b26a;fill-opacity:1;fill-rule:nonzero;stroke:none" transform="matrix(1.33333 0 0 -1.33333 991.973 835.744)"/><path d="M0 0c-.048-8.781-4.818-16.485-10.796-22.592-8.395-8.577-19.102-14.744-29.868-19.844-14.496-6.868-29.877-11.835-45.381-15.857-19.155-4.968-38.699-8.435-58.334-10.842-44.401-5.443-89.595-5.889-134.119-1.645-36.995 3.527-74.714 10.073-109.29 24.148-11.928 4.857-23.859 10.782-33.868 18.991-7.039 5.774-13.658 13.101-15.733 22.217-4.54 19.944 16.014 34.885 31.005 43.22 13.355 7.425 27.813 12.777 42.422 17.148 17.932 5.365 36.313 9.197 54.804 12.044 44.235 6.811 89.472 8.145 134.096 5.068 38.465-2.652 77.452-8.478 113.949-21.301 13.329-4.683 26.512-10.393 38.269-18.308 8.132-5.475 16.087-12.361 20.32-21.399C-.904 7.59-.021 3.818 0 0c.013-2.492 3.888-2.497 3.874 0-.12 22.179-23.736 36.66-41.23 45.133-14.617 7.081-30.135 12.255-45.813 16.411-19.36 5.132-39.123 8.67-58.984 11.188-45.621 5.783-92.119 6.258-137.878 1.773-37.682-3.692-76.178-10.401-111.252-25.16-12.129-5.103-24.078-11.27-34.155-19.836-7.161-6.086-13.712-13.935-15.749-23.335-4.602-21.229 15.172-37.221 31.435-46.518 13.314-7.612 27.818-13.132 42.443-17.633 18.43-5.671 37.362-9.676 56.406-12.636 45.079-7.007 91.144-8.454 136.629-5.262 39.353 2.761 79.376 8.749 116.602 22.245 13.311 4.826 26.526 10.665 38.18 18.795 8.352 5.827 16.518 13.148 20.684 22.653C2.884-8.323 3.851-4.225 3.874 0 3.888 2.493.013 2.496 0 0" clip-path="url(#af)" style="fill:#000;fill-opacity:1;fill-rule:nonzero;stroke:none" transform="matrix(1.33333 0 0 -1.33333 989.39 835.744)"/><path d="M0 0c0-41.69-98.915-75.486-220.934-75.486S-441.868-41.69-441.868 0s98.916 75.486 220.934 75.486C-98.915 75.486 0 41.69 0 0" clip-path="url(#ag)" style="fill:#e8b26a;fill-opacity:1;fill-rule:nonzero;stroke:none" transform="matrix(1.33333 0 0 -1.33333 1026.409 749.655)"/><path d="M0 0c-.048-8.781-4.818-16.485-10.796-22.592-8.395-8.577-19.102-14.744-29.868-19.844-14.496-6.868-29.877-11.835-45.381-15.857-19.155-4.968-38.699-8.435-58.334-10.842-44.401-5.443-89.595-5.889-134.119-1.645-36.995 3.527-74.714 10.073-109.29 24.148-11.928 4.857-23.859 10.782-33.868 18.991-7.039 5.774-13.658 13.101-15.733 22.217-4.54 19.944 16.014 34.885 31.005 43.22 13.355 7.425 27.813 12.777 42.423 17.148 17.931 5.365 36.312 9.197 54.803 12.044 44.235 6.811 89.472 8.145 134.096 5.068 38.465-2.652 77.452-8.478 113.949-21.301 13.329-4.683 26.512-10.393 38.269-18.308 8.132-5.475 16.087-12.361 20.32-21.399C-.904 7.59-.021 3.818 0 0c.013-2.492 3.888-2.497 3.874 0-.12 22.179-23.736 36.66-41.23 45.133-14.617 7.081-30.135 12.255-45.813 16.411-19.36 5.132-39.123 8.67-58.984 11.188-45.621 5.783-92.119 6.258-137.877 1.773-37.683-3.692-76.179-10.401-111.253-25.16-12.129-5.103-24.078-11.27-34.155-19.836-7.161-6.086-13.712-13.935-15.749-23.335-4.602-21.229 15.173-37.221 31.435-46.518 13.314-7.612 27.818-13.132 42.443-17.633 18.43-5.671 37.362-9.676 56.406-12.636 45.079-7.007 91.144-8.454 136.629-5.262 39.353 2.761 79.376 8.749 116.602 22.245 13.311 4.826 26.526 10.665 38.18 18.795 8.352 5.827 16.518 13.148 20.684 22.653C2.884-8.323 3.851-4.225 3.874 0 3.888 2.493.014 2.496 0 0" clip-path="url(#ah)" style="fill:#000;fill-opacity:1;fill-rule:nonzero;stroke:none" transform="matrix(1.33333 0 0 -1.33333 1023.826 749.655)"/><path d="M0 0c0-41.69-98.915-75.486-220.934-75.486S-441.868-41.69-441.868 0s98.916 75.486 220.934 75.486C-98.915 75.486 0 41.69 0 0" clip-path="url(#ai)" style="fill:#e8b26a;fill-opacity:1;fill-rule:nonzero;stroke:none" transform="matrix(1.33333 0 0 -1.33333 1004.025 678.04)"/><path d="M0 0c-.048-8.781-4.818-16.485-10.796-22.592-8.395-8.577-19.102-14.744-29.868-19.844-14.496-6.868-29.877-11.835-45.381-15.856-19.155-4.969-38.699-8.436-58.334-10.843-44.401-5.443-89.595-5.889-134.119-1.645-36.995 3.527-74.714 10.073-109.29 24.148-11.928 4.857-23.859 10.782-33.868 18.991-7.039 5.774-13.658 13.101-15.733 22.217-4.54 19.944 16.014 34.885 31.005 43.22 13.355 7.425 27.813 12.777 42.422 17.148 17.932 5.365 36.313 9.197 54.804 12.044 44.235 6.811 89.472 8.145 134.096 5.068 38.465-2.652 77.452-8.478 113.949-21.301 13.329-4.683 26.512-10.393 38.269-18.308 8.132-5.475 16.087-12.361 20.32-21.399C-.904 7.59-.021 3.818 0 0c.013-2.492 3.888-2.497 3.874 0-.12 22.179-23.736 36.66-41.23 45.133-14.617 7.081-30.135 12.255-45.813 16.411-19.36 5.132-39.123 8.67-58.984 11.188-45.621 5.783-92.119 6.258-137.878 1.773-37.682-3.692-76.178-10.401-111.252-25.16-12.129-5.103-24.078-11.27-34.155-19.836-7.161-6.086-13.712-13.935-15.749-23.335-4.602-21.229 15.172-37.221 31.435-46.518 13.314-7.612 27.818-13.132 42.443-17.633 18.43-5.671 37.362-9.675 56.406-12.636 45.079-7.007 91.144-8.454 136.629-5.262 39.353 2.761 79.376 8.749 116.602 22.245 13.311 4.826 26.526 10.665 38.18 18.795 8.352 5.827 16.518 13.148 20.684 22.653C2.884-8.323 3.851-4.225 3.874 0 3.888 2.493.013 2.496 0 0" clip-path="url(#aj)" style="fill:#000;fill-opacity:1;fill-rule:nonzero;stroke:none" transform="matrix(1.33333 0 0 -1.33333 1001.443 678.04)"/><path d="M0 0c7.941.366 16.054.714 23.687-1.509s14.836-7.52 17.18-15.117-1.804-17.208-9.557-18.966c-8.582-1.946-16.204 5.487-24.62 8.058-11.701 3.574-24.13-2.593-33.841-10.034s-18.663-16.562-30.316-20.29c-15.145-4.846-31.394.4-46.954 3.677-15.313 3.225-31.481 4.481-46.439-.114-14.959-4.595-28.519-15.921-32.485-31.059l-6.516 47.093z" clip-path="url(#ak)" style="fill:#000;fill-opacity:1;fill-rule:nonzero;stroke:none" transform="matrix(1.33333 0 0 -1.33333 906.339 630.945)"/><path d="M0 0c10.61.488 22.162 1.003 31.339-5.264 3.611-2.466 6.669-6.01 7.921-10.257 1.091-3.7.523-7.837-1.377-11.18-1.924-3.387-5.194-5.692-9.157-5.783-4.661-.106-8.955 2.386-12.955 4.478-4.443 2.324-8.895 4.395-13.955 4.843-5.112.453-10.305-.667-15.035-2.564-9.91-3.975-17.746-11.077-25.971-17.656-3.95-3.159-8.056-6.173-12.555-8.512a39.6 39.6 0 0 0-15.56-4.378c-11.507-.805-22.811 2.402-33.935 4.867-11.193 2.48-22.694 4.147-34.181 3.336-10.275-.725-20.421-3.428-29.199-8.927-7.686-4.815-14.368-11.631-18.135-19.956a40.4 40.4 0 0 1-2.242-6.232h3.304l-2.199 15.892-3.508 25.352-.809 5.848-1.197-2.107 5.072 1.022 13.804 2.782 20.418 4.115 24.915 5.021 27.294 5.5 27.555 5.553 25.699 5.179 21.724 4.378L-7.24-1.49c2.45.494 4.941.896 7.371 1.486.107.026.216.043.324.065 2.16.435 1.246 3.738-.91 3.304l-5.072-1.022-13.804-2.782-20.419-4.115-24.915-5.021-27.293-5.5-27.555-5.553-25.699-5.179-21.724-4.378-15.685-3.16c-2.45-.494-4.941-.897-7.371-1.486-.107-.026-.217-.043-.325-.065-.989-.2-1.315-1.245-1.196-2.107l2.199-15.893 3.508-25.351.809-5.849c.241-1.744 2.899-1.514 3.304 0 2.384 8.912 8.207 16.54 15.593 21.962 8.235 6.046 18.025 9.37 28.145 10.418 11.7 1.211 23.461-.296 34.894-2.794 11.431-2.497 23.033-5.851 34.85-5.244 5.551.285 10.935 1.53 15.998 3.83 4.677 2.125 8.924 5.054 12.979 8.181 8.45 6.516 16.221 14.114 26.155 18.392 4.791 2.063 10.071 3.295 15.303 2.722 5.003-.547 9.359-3.079 13.747-5.342 4.143-2.136 8.7-4.277 13.488-3.902 4.354.342 8.021 2.59 10.54 6.121 2.368 3.319 3.518 7.66 3.179 11.716-.381 4.56-2.584 8.745-5.709 12.036-7.365 7.757-18.306 9.692-28.556 9.696-2.973.001-5.944-.133-8.913-.27C-2.196 3.325-2.208-.102 0 0" clip-path="url(#al)" style="fill:#000;fill-opacity:1;fill-rule:nonzero;stroke:none" transform="matrix(1.33333 0 0 -1.33333 906.339 633.23)"/><path d="M0 0c1.449-18.461-10.652-35.725-16.959-52.778-1.38-3.73-4.356-6.756-8.21-7.736-8.319-2.115-12.271 6.384-12.06 13.335.177 5.792 2.103 11.606.953 17.285-1.763 8.709-10.276 14.482-18.789 17.031-13.456 4.029-28.566 2.165-40.639-5.015-10.797-6.419-19.505-16.944-31.723-19.859-14.074-3.357-28.2 4.373-42.553 6.2-13.05 1.661-26.168-1.613-38.917-4.86-12.098-3.082-25.314-6.934-32.143-17.386-5.381-8.235-5.499-18.751-4.914-28.57.749-12.566 2.265-25.757-6.025-36.643-4.047-5.315-10.643-8.273-17.201-6.997-13.013 2.533-15.758 18.488-16.149 31.2l-1.368 44.488c-.227 7.398-.53 15.113-5.286 21.235-2.063 2.656-4.934 4.655-8.247 5.235-14.477 2.535-19.224-21.286-31.874-18.591-8.928 1.902-9.194 14.422-13.87 22.262-4.472 7.499-13.63 10.806-22.279 12.004s-17.596.874-25.883 3.625-16.084 9.798-15.988 18.528c0 0 15.927 29.664 165.2 39.29a442 442 0 0 0 59.833-.193C-126.421 48.904-2.813 35.843 0 0" clip-path="url(#am)" style="fill:#ff9f00;fill-opacity:1;fill-rule:nonzero;stroke:none" transform="matrix(1.33333 0 0 -1.33333 1000.535 644.22)"/><path d="M0 0c.878-12.632-4.416-24.411-9.619-35.601a393 393 0 0 1-7.271-16.662c-1.754-4.28-7.062-8.567-11.793-5.876-3.629 2.064-4.768 7.106-4.672 10.96.164 6.531 2.49 13.036.443 19.503-3.276 10.351-14.371 15.866-24.315 17.821-11.644 2.288-23.94.627-34.54-4.717-10.306-5.196-18.023-14.354-28.48-19.278-12.08-5.689-24.83-1.062-36.912 2.062-6.536 1.689-13.122 2.789-19.894 2.61-6.882-.182-13.711-1.383-20.411-2.9-11.018-2.495-22.972-4.923-32.763-10.828-4.547-2.741-8.563-6.422-11.25-11.036-2.926-5.023-4.149-10.806-4.553-16.552-.831-11.788 2.253-23.803-.25-35.483-1.228-5.728-3.973-11.808-8.846-15.333-4.407-3.189-10.404-4.097-15.343-1.573-8.038 4.106-9.988 14.816-10.691 22.941-.531 6.139-.516 12.339-.705 18.495l-.671 21.84c-.341 11.061 1.093 25.785-8.067 33.972-3.432 3.068-8.019 4.562-12.571 3.635-3.476-.708-6.453-2.889-8.957-5.306-2.595-2.505-4.792-5.38-7.241-8.022-2.033-2.193-4.419-4.627-7.471-5.243-8.921-1.801-11.047 11.123-13.389 16.919-1.891 4.679-4.636 8.556-8.829 11.451-4.326 2.988-9.531 4.667-14.669 5.581-11.808 2.101-25.595.196-35.611 8.058-2.083 1.634-3.913 3.627-5.194 5.952a14.2 14.2 0 0 0-1.352 3.449c-.14.566-.247 1.136-.304 1.716-.016.153-.252 1.592-.322.463.003.062.163.183.145.232-.083.221.522.653.165.237.275.321.545.642.835.948.967 1.021 2.042 1.936 3.148 2.802-.304-.238-.036-.025.233.173l.582.427q.66.476 1.335.93a61 61 0 0 0 3.147 1.975c6.641 3.904 13.663 6.739 20.909 9.245 12.544 4.338 25.503 7.455 38.511 10.036 20.115 3.99 40.484 6.633 60.885 8.624 27.717 2.705 55.517 4.451 83.366 3.109 17.197-.829 34.392-2.444 51.508-4.281 18.235-1.956 36.431-4.364 54.487-7.587 16.887-3.015 33.787-6.641 50.055-12.152 11.259-3.814 23.981-8.581 32.228-17.557C-2.324 7.296-.318 3.714 0 0c.211-2.465 4.087-2.488 3.874 0C2.97 10.543-6.358 17.641-14.919 22.401c-13.332 7.415-28.408 11.737-43.144 15.346-18.117 4.436-36.553 7.545-55.021 10.097-17.594 2.432-35.261 4.328-52.957 5.841-23.741 2.03-47.468 3.097-71.29 1.864-24.946-1.292-49.917-3.685-74.638-7.274-16.686-2.422-33.333-5.456-49.623-9.845-9.988-2.691-19.899-5.89-29.309-10.218-5.071-2.332-10.035-5.02-14.41-8.513-1.554-1.241-3.47-2.767-4.446-4.56-.294-.539-.368-1.086-.362-1.725.052-5.108 2.814-9.896 6.441-13.334 9.425-8.934 22.684-8.551 34.76-9.859 5.581-.605 11.26-1.826 16.163-4.668 4.667-2.706 7.483-6.686 9.339-11.663 2.752-7.375 5.044-17.927 14.702-18.451 7.272-.394 12.127 6.576 16.387 11.4 2.314 2.62 4.861 5.449 8.159 6.824 4.263 1.777 8.92.193 11.941-3.139 4.137-4.562 5.064-10.983 5.379-16.893.378-7.099.468-14.221.686-21.327l.672-21.839c.164-5.33.287-10.641 1.131-15.917 1.377-8.615 4.934-18.146 13.707-21.566 5.088-1.983 10.86-1.406 15.617 1.196 5.141 2.812 8.608 7.825 10.766 13.158 8.626 21.317-8.15 51.339 15.49 66.102 4.787 2.99 10.141 4.894 15.535 6.465 6.177 1.799 12.46 3.357 18.749 4.711 7.142 1.538 14.427 2.618 21.752 2.305 6.809-.29 13.351-2.097 19.891-3.877 6.18-1.682 12.47-3.356 18.91-3.536 6.097-.17 11.954 1.291 17.332 4.141 10.434 5.531 18.332 14.841 29.256 19.592 11.181 4.863 24.497 5.501 35.977 1.274 5.099-1.877 10.196-5.071 13.113-9.772 3.574-5.763 2.034-12.203 1.305-18.519-.548-4.74-.235-9.749 2.433-13.871 2.511-3.88 6.673-5.799 11.248-4.861 5.556 1.139 8.685 5.506 10.601 10.481 2.32 6.024 5.204 11.812 7.883 17.679C.14-23.548 4.716-12.105 3.874 0 3.702 2.473-.173 2.492 0 0" clip-path="url(#an)" style="fill:#000;fill-opacity:1;fill-rule:nonzero;stroke:none" transform="matrix(1.33333 0 0 -1.33333 997.953 644.22)"/><path d="M0 0c.701-.618 1.454-1.183 2.197-1.748 1.827-1.391 3.724-2.691 5.651-3.939 3.167-2.05 6.43-3.952 9.749-5.745 4.6-2.486 9.313-4.76 14.098-6.866a252 252 0 0 1 18.963-7.424c7.732-2.679 15.583-5.011 23.507-7.052 9.447-2.432 18.999-4.45 28.609-6.118 11.31-1.962 22.704-3.449 34.131-4.534 13.204-1.253 26.458-1.963 39.719-2.22 15.136-.294 30.283.002 45.401.786q5.972.31 11.939.72c2.474.169 2.493 4.044 0 3.874-15.528-1.06-31.089-1.638-46.653-1.617-13.609.02-27.219.494-40.79 1.514-11.7.88-23.373 2.161-34.97 3.946-9.988 1.537-19.922 3.433-29.757 5.756-8.263 1.953-16.456 4.206-24.535 6.816-6.69 2.161-13.303 4.567-19.795 7.265l-1.076.451-.191.081-.566.242q-1.071.458-2.136.928a210 210 0 0 0-3.899 1.766 192 192 0 0 0-6.968 3.409 156 156 0 0 0-10.761 6.061C9.604-2.246 7.378-.778 5.228.795a78 78 0 0 0-1.04.775l-.223.17c-.336.252.365-.288.152-.118q-.183.145-.368.289c-.305.241-.602.491-.903.736l-.107.092C.875 4.382-1.875 1.653 0 0" clip-path="url(#ao)" style="fill:#000;fill-opacity:1;fill-rule:nonzero;stroke:none" transform="matrix(1.33333 0 0 -1.33333 450.478 694.85)"/><path d="M0 0c2.818.192 5.631.538 8.431.906A235 235 0 0 1 29.62 4.664c9.219 2.082 18.325 4.728 27.144 8.134 9.51 3.674 18.764 8.191 27.11 14.082 8.256 5.827 15.653 12.989 20.889 21.691a59 59 0 0 1 1.853 3.326c1.143 2.212-2.199 4.173-3.345 1.955-4.455-8.623-11.103-15.906-18.802-21.76-7.93-6.03-16.854-10.747-26.063-14.498-8.732-3.557-17.775-6.328-26.939-8.525A230 230 0 0 0 9.781 4.964q-.494-.07-.989-.137c-.119-.016.324.043-.073-.009l-.572-.076q-.902-.117-1.805-.226a189 189 0 0 0-2.993-.337C2.28 4.068 1.209 3.988.14 3.884L0 3.874C-2.474 3.706-2.493-.169 0 0" clip-path="url(#ap)" style="fill:#000;fill-opacity:1;fill-rule:nonzero;stroke:none" transform="matrix(1.33333 0 0 -1.33333 843.44 740.611)"/><path d="M0 0c5.958.155 9.99 6.46 7.29 11.774l-.063.122c-2.123 4.04-5.726 7.431-6.555 11.919-1.224 6.627 4.013 13.92-2.999 19.541-2.73 2.188-6.259 3.125-9.75 2.895l-52.43-3.451c-7.452-.491-15.865-1.474-20.366-7.433-1.979-2.619-2.894-5.867-3.769-9.03-2.205-7.973-5.309-13.101-8.085-19.266-2.023-4.492 1.372-9.556 6.296-9.428z" clip-path="url(#aq)" style="fill:#fff19c;fill-opacity:1;fill-rule:nonzero;stroke:none" transform="matrix(1.33333 0 0 -1.33333 769.39 620.287)"/><path d="M0 0c5.646.258 10.601 5.102 10.043 10.953-.604 6.333-7.409 10.151-7.62 16.606-.183 5.607 2.61 11.464-1.014 16.566-2.031 2.86-5.209 4.823-8.615 5.595-3.772.856-7.738.216-11.549-.035l-24.978-1.644c-7.893-.519-15.818-.874-23.696-1.591-6.042-.55-12.52-1.687-17.147-5.942-2.626-2.415-4.115-5.679-5.159-9.033-1.073-3.45-1.991-6.902-3.394-10.243-1.232-2.932-2.681-5.765-4.052-8.632-1.335-2.79-2.647-5.47-1.759-8.625 1.103-3.921 4.748-6.405 8.755-6.326 3.514.07 7.027.184 10.54.275l21.118.551 24.693.643 21.664.565 11.634.303zc2.488.065 2.498 3.939 0 3.874l-25.923-.676-45.58-1.188-15.403-.401c-1.088-.028-2.176-.064-3.264-.085-2.957-.058-5.626 2.252-5.181 5.388.194 1.367 1.009 2.677 1.597 3.904.655 1.365 1.325 2.723 1.979 4.088 1.399 2.922 2.714 5.89 3.782 8.951 1.141 3.269 1.731 6.801 3.252 9.925 1.308 2.684 3.297 4.686 5.945 6.057 5.366 2.777 11.867 2.804 17.751 3.191l23.247 1.53 23.742 1.563c3.481.229 6.707.198 9.735-1.767C-1.945 42.813-.58 40.529-.527 37.7c.05-2.683-.623-5.316-.852-7.978-.261-3.021.277-5.862 1.669-8.567 1.444-2.805 3.563-5.192 5.079-7.955 1.089-1.987 1.108-4.244-.071-6.204C4.169 5.119 2.176 3.973 0 3.874-2.483 3.761-2.497-.114 0 0" clip-path="url(#ar)" style="fill:#000;fill-opacity:1;fill-rule:nonzero;stroke:none" transform="matrix(1.33333 0 0 -1.33333 769.39 622.87)"/><path d="M0 0h56.461c2.493 0 2.497 3.874 0 3.874H0C-2.493 3.874-2.497 0 0 0" clip-path="url(#as)" style="fill:#000;fill-opacity:1;fill-rule:nonzero;stroke:none" transform="matrix(1.33333 0 0 -1.33333 654.418 585.958)"/><path d="M0 0h11.047c1.013 0 1.984.891 1.937 1.937-.047 1.049-.851 1.937-1.937 1.937H0c-1.013 0-1.984-.891-1.937-1.937C-1.89.888-1.086 0 0 0" clip-path="url(#at)" style="fill:#000;fill-opacity:1;fill-rule:nonzero;stroke:none" transform="matrix(1.33333 0 0 -1.33333 750.974 585.14)"/><path d="M0 0c.902.012 1.804.072 2.705.188C15.618 1.851 21.994 18.526 8.857 25.1c-9.165 4.587-20.717-1.979-30.294 1.671-12.286 4.684-16.202 24.049-29.335 24.698-8.591.425-15.163-7.985-23.613-9.593-10.115-1.925-20.007 6.283-30.191 4.765-9.965-1.486-16.551-13.157-12.474-22.491 6.079-13.92 26.054-12.601 38.524-13.246 22.04-1.139 43.999-4.205 65.542-8.989C-8.707.965-4.351-.06 0 0" clip-path="url(#au)" style="fill:#ff9f00;fill-opacity:1;fill-rule:nonzero;stroke:none" transform="matrix(1.33333 0 0 -1.33333 643.645 1013.844)"/><path d="M0 0c5.011.113 9.764 1.712 13.321 5.354 2.891 2.961 4.792 7.043 4.707 11.226-.092 4.533-2.53 8.428-6.211 10.965-4.983 3.434-11.002 3.39-16.777 2.75-5.37-.595-11.394-1.818-16.525.519-3.929 1.789-6.862 5.187-9.461 8.528-5.115 6.574-10.094 15.125-19.272 15.963-5.502.502-10.424-2.465-14.942-5.195-2.252-1.361-4.537-2.782-7.024-3.676-2.652-.953-5.402-1.181-8.19-.786-6.015.853-11.534 3.736-17.531 4.688-5.492.873-10.802-.017-15.203-3.551-3.934-3.159-6.438-7.915-6.997-12.907-.548-4.894 1.163-9.683 4.319-13.406 6.061-7.15 16.443-8.552 25.233-9.095 4.653-.287 9.317-.314 13.972-.578a386 386 0 0 0 22.073-1.894c14.781-1.694 29.334-4.435 43.871-7.552C-7.138.602-3.589-.017 0 0c2.492.012 2.497 3.886 0 3.874-3.585-.017-7.075.656-10.563 1.423-3.49.766-6.978 1.532-10.481 2.232a405 405 0 0 1-20.634 3.573c-13.07 1.914-26.282 3.334-39.49 3.786-8.356.286-17.452.027-25.25 3.511-3.673 1.642-6.755 4.195-8.57 7.832-1.934 3.874-1.71 8.534.213 12.37 1.96 3.911 5.432 6.988 9.76 7.934 5.446 1.191 11.081-1.098 16.187-2.727 5.38-1.717 11.09-3.121 16.669-1.442 5.019 1.511 9.159 4.822 13.778 7.166 3.76 1.907 8.034 2.765 11.944.777 3.416-1.737 5.966-4.804 8.269-7.785 5.243-6.787 10.329-15.047 19.517-16.558 5.627-.926 11.197.37 16.808.743 4.921.328 10.038-.337 13.563-4.136 5.368-5.786 1.095-14.403-5.224-17.378C4.454 4.234 2.236 3.924 0 3.874-2.489 3.818-2.498-.056 0 0" clip-path="url(#av)" style="fill:#000;fill-opacity:1;fill-rule:nonzero;stroke:none" transform="matrix(1.33333 0 0 -1.33333 643.645 1016.427)"/><path d="M0 0c-14.998 0-27.156 12.158-27.156 27.156v43.267c0 14.998 12.158 27.156 27.156 27.156s27.156-12.158 27.156-27.156V27.156C27.156 12.158 14.998 0 0 0" clip-path="url(#aw)" style="fill:#fffbe9;fill-opacity:1;fill-rule:nonzero;stroke:none" transform="matrix(1.33333 0 0 -1.33333 875.966 855.042)"/><path d="M0 0c-10.748 0-20.639 7.092-23.967 17.341-1.725 5.314-1.252 11.088-1.252 16.602v32.04c0 2.156-.06 4.326.297 6.46 1.793 10.722 10.245 19.172 20.965 20.965 10.716 1.792 21.558-3.946 26.47-13.537 1.86-3.631 2.701-7.635 2.706-11.699.003-1.965 0-3.929 0-5.894V39.261c0-4.679.026-9.36 0-14.04-.06-10.76-7.045-20.626-17.34-23.968A25.9 25.9 0 0 0 0 0c-2.492-.016-2.497-3.89 0-3.874 12.033.076 22.858 7.561 27.2 18.776 2.305 5.952 1.893 12.286 1.893 18.534v24.42c0 5.651.516 11.731-.764 17.278-2.664 11.541-12.556 20.535-24.274 22.147-11.712 1.611-23.519-4.129-29.367-14.443-2.505-4.419-3.763-9.418-3.782-14.488-.006-1.905 0-3.809 0-5.713V28.659c0-1.895-.062-3.811.094-5.701.976-11.834 9.182-22.126 20.569-25.591A29.2 29.2 0 0 1 0-3.874C2.493-3.874 2.497 0 0 0" clip-path="url(#ax)" style="fill:#000;fill-opacity:1;fill-rule:nonzero;stroke:none" transform="matrix(1.33333 0 0 -1.33333 875.966 852.46)"/><path d="M0 0c-14.998 0-27.156 12.158-27.156 27.156v43.267c0 14.998 12.158 27.156 27.156 27.156s27.156-12.158 27.156-27.156V27.156C27.156 12.158 14.998 0 0 0" clip-path="url(#ay)" style="fill:#fffbe9;fill-opacity:1;fill-rule:nonzero;stroke:none" transform="matrix(1.33333 0 0 -1.33333 817.05 855.042)"/><path d="M0 0c-10.748 0-20.639 7.092-23.967 17.341-1.725 5.314-1.252 11.088-1.252 16.602v32.04c0 2.156-.06 4.326.297 6.46 1.793 10.722 10.245 19.172 20.965 20.965 10.716 1.792 21.558-3.946 26.47-13.537 1.86-3.631 2.701-7.635 2.706-11.699.003-1.965 0-3.929 0-5.894V39.261c0-4.679.026-9.36 0-14.04-.06-10.76-7.045-20.626-17.34-23.968A25.9 25.9 0 0 0 0 0c-2.492-.016-2.497-3.89 0-3.874 12.033.076 22.858 7.561 27.2 18.776 2.305 5.952 1.893 12.286 1.893 18.534v24.42c0 5.651.516 11.731-.764 17.278-2.664 11.541-12.556 20.535-24.274 22.147-11.712 1.611-23.519-4.129-29.367-14.443-2.505-4.419-3.763-9.418-3.782-14.488-.006-1.905 0-3.809 0-5.713V28.659c0-1.895-.062-3.811.094-5.701.976-11.834 9.182-22.126 20.569-25.591A29.2 29.2 0 0 1 0-3.874C2.493-3.874 2.497 0 0 0" clip-path="url(#az)" style="fill:#000;fill-opacity:1;fill-rule:nonzero;stroke:none" transform="matrix(1.33333 0 0 -1.33333 817.05 852.46)"/><path d="M0 0a8.454 8.454 0 0 0 8.454-8.454v-13.47a8.454 8.454 0 0 0-16.908 0v13.47A8.454 8.454 0 0 0 0 0" clip-path="url(#aA)" style="fill:#000;fill-opacity:1;fill-rule:nonzero;stroke:none" transform="matrix(1.33333 0 0 -1.33333 830.824 771.459)"/><path d="M0 0c3.031 0 5.726-2.081 6.513-5.004.383-1.419.228-3.024.228-4.481 0-3.682.152-7.396-.007-11.074-.133-3.088-2.481-5.692-5.486-6.283-2.977-.584-6.062 1.029-7.352 3.757-.745 1.576-.637 3.245-.637 4.932v6.766c0 1.66-.065 3.335.007 4.994C-6.579-2.796-3.523-.071 0 0c2.202.045 2.209 3.471 0 3.426-3.968-.08-7.647-2.339-9.269-6.012-.946-2.142-.898-4.322-.898-6.596v-7.972c0-2.051-.165-4.21.492-6.185a10.29 10.29 0 0 1 8.641-6.977c3.847-.423 7.669 1.513 9.701 4.787 1.334 2.149 1.5 4.494 1.5 6.933v7.796c0 2.285.247 4.819-.442 7.028C8.407.445 4.435 3.426 0 3.426-2.205 3.426-2.208 0 0 0" clip-path="url(#aB)" style="fill:#000;fill-opacity:1;fill-rule:nonzero;stroke:none" transform="matrix(1.33333 0 0 -1.33333 830.824 773.743)"/><path d="M0 0a8.454 8.454 0 0 0 8.454-8.454v-13.47a8.454 8.454 0 0 0-16.908 0v13.47A8.454 8.454 0 0 0 0 0" clip-path="url(#aC)" style="fill:#000;fill-opacity:1;fill-rule:nonzero;stroke:none" transform="matrix(1.33333 0 0 -1.33333 894.53 771.459)"/><path d="M0 0c3.031 0 5.726-2.081 6.514-5.004.382-1.419.227-3.024.227-4.481 0-3.682.152-7.396-.007-11.074-.133-3.088-2.481-5.692-5.486-6.283-2.977-.584-6.062 1.029-7.352 3.757-.745 1.576-.637 3.245-.637 4.932v6.766c0 1.66-.065 3.335.007 4.994C-6.579-2.796-3.523-.071 0 0c2.202.045 2.209 3.471 0 3.426-3.968-.08-7.647-2.339-9.269-6.012-.946-2.142-.898-4.322-.898-6.596v-7.972c0-2.051-.165-4.21.492-6.185a10.29 10.29 0 0 1 8.641-6.977c3.847-.423 7.669 1.513 9.701 4.787 1.334 2.149 1.5 4.494 1.5 6.933v7.796c0 2.285.247 4.819-.442 7.028C8.407.445 4.435 3.426 0 3.426-2.205 3.426-2.208 0 0 0" clip-path="url(#aD)" style="fill:#000;fill-opacity:1;fill-rule:nonzero;stroke:none" transform="matrix(1.33333 0 0 -1.33333 894.53 773.743)"/><path d="M0 0c-6.879 2.036-14.906-1.91-18.342-8.703-3.332-6.587-2.825-14.507-.852-21.621C-14.962-45.583-4.121-58.886 9.97-66.112s31.221-8.264 46.082-2.795c7.731 2.846 15.279 7.814 17.333 16.309 1.045 4.321.095 8.977-3.007 12.161-5.414 5.557-13.159 3.439-20.17 2.991C39.459-38.132 28.713-34.163 20.721-27c-3.371 3.023-6.342 6.049-8.28 10.183-2.054 4.382-3.103 9.327-6.449 13C4.23-1.882 2.172-.643 0 0" clip-path="url(#aE)" style="fill:#f05924;fill-opacity:1;fill-rule:nonzero;stroke:none" transform="matrix(1.33333 0 0 -1.33333 753.027 834.914)"/><path d="M0 0c-8.036 2.263-16.819-2.309-20.529-9.593-4.431-8.699-2.784-19.211.55-27.984C-13.605-54.346.229-67.821 17.354-73.322c9.287-2.983 19.282-3.606 28.884-1.943 8.449 1.463 17.732 4.714 23.624 11.254 5.792 6.429 7.893 17.231.802 23.624-7.04 6.346-16.717 2.598-25.099 2.973-9.407.42-18.192 4.531-25.047 10.879-3.431 3.178-6.103 6.599-7.832 10.972-1.711 4.326-3.212 8.921-6.744 12.158A15.6 15.6 0 0 1 0 0c-2.385.745-3.406-2.994-1.03-3.736 4.23-1.32 6.731-4.865 8.386-8.787 1.691-4.009 2.954-8.073 5.63-11.577 5.3-6.939 12.935-12.295 21.191-15.072a41.4 41.4 0 0 1 13.037-2.155c4.043-.01 8.033.805 12.074.843 3.76.036 7.493-.873 9.908-3.98 2.513-3.234 2.591-7.552 1.275-11.279-2.552-7.226-9.998-11.344-16.849-13.657-8.497-2.868-17.727-3.655-26.588-2.247-16.761 2.664-31.392 12.918-39.756 27.669-4.079 7.193-7.028 15.711-6.572 24.07.223 4.073 1.437 8.358 4.186 11.468 2.354 2.663 5.607 4.59 9.159 5.072 1.656.225 3.316.084 4.919-.368C1.374-4.413 2.4-.676 0 0" clip-path="url(#aF)" style="fill:#000;fill-opacity:1;fill-rule:nonzero;stroke:none" transform="matrix(1.33333 0 0 -1.33333 753.714 832.423)"/><path d="M0 0c7.432-19.782 25.253-34.198 46.235-37.044a58.4 58.4 0 0 1 19.018.562c2.445.475 1.41 4.209-1.03 3.735-19.791-3.845-40.592 4.024-52.839 20.034C8.191-8.539 5.584-3.89 3.736 1.03 2.867 3.342-.879 2.341 0 0" clip-path="url(#aG)" style="fill:#000;fill-opacity:1;fill-rule:nonzero;stroke:none" transform="matrix(1.33333 0 0 -1.33333 744.069 858.38)"/><path d="m0 0-.212-1.419 3.735-1.03C3.915.199 5.364 2.254 7.759 3.383c1.052.495 2.347.656 3.701.534q.202-.023.044.001l.222-.036q.277-.051.55-.116a9 9 0 0 0 1.075-.327c.462-.173 1.26-.642 1.797-1.039.842-.622 2.162-.14 2.65.695.576.985.149 2.027-.695 2.65-3.182 2.35-7.538 2.68-11.108 1.07C2.764 5.359.306 2.081-.212-1.419c-.153-1.034.258-2.082 1.353-2.383.914-.251 2.227.312 2.382 1.353l.213 1.419C3.89.003 3.477 1.052 2.383 1.353 1.469 1.604.156 1.041 0 0" clip-path="url(#aH)" style="fill:#000;fill-opacity:1;fill-rule:nonzero;stroke:none" transform="matrix(1.33333 0 0 -1.33333 734.164 863.56)"/><path d="M0 0c.123-.045.247-.088.368-.139-.264.112.119-.066.164-.088q.396-.197.77-.434c.501-.316.594-.385 1.076-.848.214-.205.409-.424.608-.642.055-.06.193-.228.067-.068.101-.128.194-.265.285-.401q.248-.366.457-.756c.062-.116.119-.234.179-.35l.083-.178q-.078.197-.005.009c.49-1.261.553-2.087.491-3.411-.044-.954-.489-2.16-1.079-3.123-.547-.892-.195-2.13.695-2.65.922-.539 2.102-.2 2.65.695 1.747 2.851 2.176 6.579.905 9.702C6.481.35 4.103 2.615 1.03 3.736c-.983.358-2.122-.403-2.383-1.353C-1.649 1.304-.986.36 0 0" clip-path="url(#aI)" style="fill:#000;fill-opacity:1;fill-rule:nonzero;stroke:none" transform="matrix(1.33333 0 0 -1.33333 823.695 898.744)"/><path d="M0 0c-4.492-3.712-7.615-9.275-7.649-15.103s3.353-11.731 8.726-13.986c4.86-2.04 10.721-.891 14.928 2.283s6.847 8.133 7.907 13.295L9.527-5.746Z" clip-path="url(#aJ)" style="fill:#fffbe9;fill-opacity:1;fill-rule:nonzero;stroke:none" transform="matrix(1.33333 0 0 -1.33333 763.229 886.658)"/><path d="M0 0c-7.316-6.153-10.817-16.792-5.802-25.47 2.329-4.032 6.294-7.034 10.942-7.735 4.97-.75 10.016.777 13.917 3.901 4.294 3.437 6.959 8.592 8.092 13.909.175.821-.109 1.766-.89 2.187C20.048-9.855 13.793-6.6 7.749-2.955L2.347.303C.207 1.594-1.743-1.755.392-3.042c3.165-1.909 6.296-3.893 9.502-5.731 3.278-1.879 6.66-3.597 9.985-5.391l4.425-2.389-.89 2.188c-1.657-7.773-7.348-15.326-16.003-15.175-7.895.137-12.918 8.276-11.521 15.627.847 4.457 3.41 8.281 6.849 11.174C4.65-1.133 1.897 1.596 0 0" clip-path="url(#aK)" style="fill:#000;fill-opacity:1;fill-rule:nonzero;stroke:none" transform="matrix(1.33333 0 0 -1.33333 761.402 884.832)"/><path d="M0 0c4.559 6.698 11.62 11.557 19.494 13.453 8.522 2.052 17.673.405 25.08-4.221 2.12-1.324 4.067 2.026 1.955 3.345-12.756 7.967-29.53 7.313-41.514-1.807a37.6 37.6 0 0 1-8.36-8.815C-4.752-.111-1.396-2.051 0 0" clip-path="url(#aL)" style="fill:#000;fill-opacity:1;fill-rule:nonzero;stroke:none" transform="matrix(1.33333 0 0 -1.33333 773.39 728.513)"/><path d="M0 0c4.559 6.698 11.62 11.557 19.494 13.453 8.523 2.052 17.673.405 25.08-4.221 2.12-1.324 4.067 2.026 1.955 3.345-12.756 7.967-29.53 7.313-41.514-1.807a37.6 37.6 0 0 1-8.36-8.815C-4.752-.111-1.396-2.051 0 0" clip-path="url(#aM)" style="fill:#000;fill-opacity:1;fill-rule:nonzero;stroke:none" transform="matrix(1.33333 0 0 -1.33333 835.375 723.348)"/><path d="M0 0c2.29-8.181 8.117-15.265 15.766-18.99.94-.458 2.094-.255 2.65.695.498.851.25 2.19-.695 2.65C10.936-12.34 5.773-6.251 3.736 1.03 3.065 3.427-.674 2.409 0 0" clip-path="url(#aN)" style="fill:#000;fill-opacity:1;fill-rule:nonzero;stroke:none" transform="matrix(1.33333 0 0 -1.33333 714.683 911.44)"/></svg>