<svg xmlns="http://www.w3.org/2000/svg" width="1440" height="1440" viewBox="0 0 1440 1440"><defs><clipPath id="a" clipPathUnits="userSpaceOnUse"><path d="M-628.83 752.53h1080v-1080h-1080Z"/></clipPath><clipPath id="b" clipPathUnits="userSpaceOnUse"><path d="M-628.83 751.03h1080v-1080h-1080Z"/></clipPath><clipPath id="c" clipPathUnits="userSpaceOnUse"><path d="M-851.696 596.82h1080v-1080h-1080Z"/></clipPath><clipPath id="d" clipPathUnits="userSpaceOnUse"><path d="M-850.401 597.577h1080v-1080h-1080Z"/></clipPath><clipPath id="e" clipPathUnits="userSpaceOnUse"><path d="M-864.224 618.475h1080v-1080h-1080Z"/></clipPath><clipPath id="f" clipPathUnits="userSpaceOnUse"><path d="M-862.724 618.475h1080v-1080h-1080Z"/></clipPath><clipPath id="g" clipPathUnits="userSpaceOnUse"><path d="M-510.867 591.108h1080v-1080h-1080Z"/></clipPath><clipPath id="h" clipPathUnits="userSpaceOnUse"><path d="M-510.469 589.662h1080v-1080h-1080Z"/></clipPath><clipPath id="i" clipPathUnits="userSpaceOnUse"><path d="M-751.35 413.921h1080v-1080h-1080Z"/></clipPath><clipPath id="j" clipPathUnits="userSpaceOnUse"><path d="M-750.952 412.475h1080v-1080h-1080Z"/></clipPath><clipPath id="k" clipPathUnits="userSpaceOnUse"><path d="M-520.599 514.72h1080v-1080h-1080Z"/></clipPath><clipPath id="l" clipPathUnits="userSpaceOnUse"><path d="M-556.323 540.864h1080v-1080h-1080Z"/></clipPath><clipPath id="m" clipPathUnits="userSpaceOnUse"><path d="M-591.697 520.945h1080v-1080h-1080Z"/></clipPath><clipPath id="n" clipPathUnits="userSpaceOnUse"><path d="M-629.37 540.864h1080v-1080h-1080Z"/></clipPath><clipPath id="o" clipPathUnits="userSpaceOnUse"><path d="M-663.243 512.742h1080v-1080h-1080Z"/></clipPath><clipPath id="p" clipPathUnits="userSpaceOnUse"><path d="M-684.699 513.38h1080v-1080h-1080Z"/></clipPath><clipPath id="q" clipPathUnits="userSpaceOnUse"><path d="M-711.326 558.964h1080v-1080h-1080Z"/></clipPath><clipPath id="r" clipPathUnits="userSpaceOnUse"><path d="M-763.97 528.447h1080v-1080h-1080Z"/></clipPath><clipPath id="s" clipPathUnits="userSpaceOnUse"><path d="M-802.3 595.584h1080v-1080h-1080Z"/></clipPath><clipPath id="t" clipPathUnits="userSpaceOnUse"><path d="M-849.746 609.655h1080v-1080h-1080Z"/></clipPath><clipPath id="u" clipPathUnits="userSpaceOnUse"><path d="M-473.595 674.969h1080v-1080h-1080Z"/></clipPath><clipPath id="v" clipPathUnits="userSpaceOnUse"><path d="M-473.595 673.469h1080v-1080h-1080Z"/></clipPath><clipPath id="w" clipPathUnits="userSpaceOnUse"><path d="M-707.364 799.319h1080v-1080h-1080Z"/></clipPath><clipPath id="x" clipPathUnits="userSpaceOnUse"><path d="M-707.364 797.819h1080v-1080h-1080Z"/></clipPath><clipPath id="y" clipPathUnits="userSpaceOnUse"><path d="M-313.645 431.006h1080v-1080h-1080Z"/></clipPath><clipPath id="z" clipPathUnits="userSpaceOnUse"><path d="M-314.94 431.763h1080v-1080h-1080Z"/></clipPath><clipPath id="A" clipPathUnits="userSpaceOnUse"><path d="M-320.07 406.434h1080v-1080h-1080Z"/></clipPath><clipPath id="B" clipPathUnits="userSpaceOnUse"><path d="M-318.623 406.833h1080v-1080h-1080Z"/></clipPath><clipPath id="C" clipPathUnits="userSpaceOnUse"><path d="M-387.977 429.397h1080v-1080h-1080Z"/></clipPath><clipPath id="D" clipPathUnits="userSpaceOnUse"><path d="M-386.477 429.397h1080v-1080h-1080Z"/></clipPath><clipPath id="E" clipPathUnits="userSpaceOnUse"><path d="M-387.424 422.836h1080v-1080h-1080Z"/></clipPath><clipPath id="F" clipPathUnits="userSpaceOnUse"><path d="m-21.913-80.203 151.66 46.794-28.891 70.263C-45.202-9.26-21.914-80.203-21.914-80.203"/></clipPath><clipPath id="G" clipPathUnits="userSpaceOnUse"><path d="M-444.602 450.252h1080v-1080h-1080Z"/></clipPath><clipPath id="H" clipPathUnits="userSpaceOnUse"><path d="M-443.155 450.651h1080v-1080h-1080Z"/></clipPath><clipPath id="I" clipPathUnits="userSpaceOnUse"><path d="M-409.996 741.922h1080v-1080h-1080Z"/></clipPath><clipPath id="J" clipPathUnits="userSpaceOnUse"><path d="M-408.7 742.679h1080v-1080h-1080Z"/></clipPath><clipPath id="K" clipPathUnits="userSpaceOnUse"><path d="M-745.072 683.76h1080v-1080h-1080Z"/></clipPath><clipPath id="L" clipPathUnits="userSpaceOnUse"><path d="M-743.777 684.516h1080v-1080h-1080Z"/></clipPath><clipPath id="M" clipPathUnits="userSpaceOnUse"><path d="M-294.284 494.196h1080v-1080h-1080Z"/></clipPath><clipPath id="N" clipPathUnits="userSpaceOnUse"><path d="M-308.854 451.97h1080v-1080h-1080Z"/></clipPath><clipPath id="O" clipPathUnits="userSpaceOnUse"><path d="M-529.528 645.252h1080v-1080h-1080Z"/></clipPath><clipPath id="P" clipPathUnits="userSpaceOnUse"><path d="M-530.59 644.191h1080v-1080h-1080Z"/></clipPath><clipPath id="Q" clipPathUnits="userSpaceOnUse"><path d="M-537.493 652.084h1080v-1080h-1080Z"/></clipPath><clipPath id="R" clipPathUnits="userSpaceOnUse"><path d="M-572.284 641.224h1080v-1080h-1080Z"/></clipPath></defs><path d="M0 0h1080v1080H0Z" style="fill:#fff;fill-opacity:1;fill-rule:nonzero;stroke:none" transform="matrix(1.33333 0 0 -1.33333 0 1440)"/><path d="M0 0a178.2 178.2 0 0 0-40.442 4.655l-.369.086c-80.703 18.857-142.098 47.172-179.388 67.606-16.697 9.149-28.801 25.024-33.206 43.552a67.64 67.64 0 0 0 10.067 53.897l187.73 272.819A67.5 67.5 0 0 0 0 471.848a67.49 67.49 0 0 0 55.613-29.242l187.724-272.81a67.64 67.64 0 0 0 10.068-53.897C249 97.371 236.896 81.496 220.199 72.347c-37.29-20.434-98.685-48.749-179.405-67.609l-.316-.075A178.3 178.3 0 0 0 0 0" clip-path="url(#a)" style="fill:#fff2d9;fill-opacity:1;fill-rule:nonzero;stroke:none" transform="matrix(1.33333 0 0 -1.33333 838.44 1003.372)"/><path d="M0 0c-23.387.064-45.775 5.591-68.192 11.736a744 744 0 0 0-60.554 19.401c-30.516 11.245-60.334 24.501-88.916 40.034-16.598 9.02-29.08 23.69-33.923 42.131-4.873 18.554-1.197 38.469 9.571 54.278 4.053 5.952 8.164 11.865 12.246 17.797l29.292 42.568 39.133 56.87 41.335 60.071 36.416 52.922 23.93 34.775q2.477 3.606 4.961 7.21c7.071 10.252 16.699 18.423 28.111 23.474 17.467 7.732 38.044 7.366 55.234-.951 10.611-5.135 19.483-12.986 26.157-22.668 5.08-7.371 10.149-14.75 15.224-22.125l31.312-45.505 39.817-57.863 41.188-59.857 35.009-50.877 21.403-31.104c1.093-1.588 2.194-3.171 3.279-4.765 11.214-16.469 14.654-37.336 8.928-56.472a66 66 0 0 0-13.485-24.433c-5.999-6.86-13.203-11.908-21.172-16.212-12.712-6.865-25.67-13.271-38.814-19.265-35.987-16.409-73.391-29.716-111.562-40.049C44.23 5.247 22.613.062 0 0c-1.93-.005-1.934-3.005 0-3 23.339.064 45.695 5.491 68.078 11.595a744 744 0 0 1 61.841 19.788c30.784 11.363 60.88 24.743 89.705 40.441 16.138 8.789 28.506 23.079 34.006 40.724 6.047 19.4 3.031 41.059-8.049 58.088-3.91 6.01-8.121 11.84-12.185 17.746l-29.24 42.493-39.651 57.624-42.178 61.295-36.783 53.455-23.795 34.579c-1.536 2.233-3.069 4.469-4.61 6.699-7.683 11.125-18.259 19.889-30.773 25.075-17.275 7.16-37.007 6.877-54.125-.594-11.965-5.222-22.042-13.848-29.436-24.56-4.954-7.178-9.888-14.37-14.832-21.555l-31.518-45.804-40.483-58.831-41.71-60.616-35.303-51.303-20.937-30.427c-1.687-2.452-3.425-4.884-4.955-7.439-10.387-17.352-12.654-39.007-5.975-58.108 6.085-17.404 18.596-30.594 34.635-39.274 12.956-7.012 26.169-13.546 39.575-19.651 36.27-16.516 73.943-29.943 112.412-40.332C-44.473 2.217-22.725-2.938 0-3c1.931-.005 1.933 2.995 0 3" clip-path="url(#b)" style="fill:#000;fill-opacity:1;fill-rule:nonzero;stroke:none" transform="matrix(1.33333 0 0 -1.33333 838.44 1001.372)"/><path d="M0 0c14.316-20.804 7.538-49.434-14.609-61.57-35.982-19.717-95.154-46.988-173.116-65.203l-.343-.08a153.2 153.2 0 0 0-69.594-.001l-.344.081c-77.962 18.215-137.134 45.486-173.116 65.203-22.147 12.136-28.925 40.766-14.609 61.57l187.725 272.811.003.005c16.952 24.632 53.329 24.629 70.278-.005z" clip-path="url(#c)" style="fill:#45db82;fill-opacity:1;fill-rule:nonzero;stroke:none" transform="matrix(1.33333 0 0 -1.33333 1135.595 795.76)"/><path d="M0 0c8.963-13.224 9.744-30.58 1.586-44.403-7.427-12.584-21.255-18.326-33.77-24.628-30.594-15.406-62.441-28.31-95.007-38.909-19.999-6.508-40.298-12.236-60.809-16.901-22.022-5.008-45.119-5.005-67.14 0-38.779 8.814-76.887 21.14-113.59 36.431a647 647 0 0 0-42.459 19.496 589 589 0 0 0-16.708 8.755c-7.026 3.829-12.927 9.038-16.975 16.004-8.005 13.776-7.186 31.032 1.731 44.155.891 1.31 1.796 2.61 2.694 3.914l19.23 27.946 32.294 46.931 38.761 56.33 39.02 56.706 32.691 47.509 19.857 28.857c1.052 1.528 2.096 3.063 3.156 4.586 7.818 11.227 20.713 17.935 34.411 17.763 13.332-.167 25.74-6.87 33.343-17.79 1.127-1.62 2.238-3.252 3.356-4.878l20.158-29.294 32.755-47.601 39.068-56.775 38.822-56.419 32.023-46.538L-2.53 3.677zc1.088-1.58 3.689-.082 2.59 1.514L-8.021 16.936-35.335 56.63l-36.986 53.75-40.374 58.673-36.671 53.292-26.372 38.325c-4.058 5.898-7.855 12.298-12.544 17.738-9.634 11.178-24.632 16.677-39.215 14.73-12.476-1.666-23.419-8.623-30.579-18.915-4.059-5.833-8.057-11.708-12.085-17.562l-28.288-41.109-37.577-54.609-40.215-58.442-36.232-52.654-25.288-36.75c-5.053-7.344-10.945-14.669-13.668-23.256-4.647-14.653-1.068-31.114 9.105-42.604 4.968-5.61 11.243-9.127 17.766-12.6a606 606 0 0 1 18.019-9.206c31.895-15.638 65.083-28.653 98.999-39.192a727 727 0 0 1 31.065-8.898c10.622-2.789 21.322-5.655 32.199-7.256 11-1.619 22.156-2.091 33.25-1.323 10.755.745 21.224 2.824 31.679 5.37 38.779 9.442 76.796 22.052 113.458 37.836 13.843 5.959 27.49 12.379 40.879 19.298 5.914 3.056 12.242 5.932 17.587 9.929 6.134 4.588 11.016 10.702 14.059 17.738 6.015 13.908 4.448 30.049-4.046 42.581C1.513 3.103-1.087 1.604 0 0" clip-path="url(#d)" style="fill:#000;fill-opacity:1;fill-rule:nonzero;stroke:none" transform="matrix(1.33333 0 0 -1.33333 1133.868 796.77)"/><path d="M0 0c0-31.692-25.691-57.383-57.383-57.383S-114.766-31.692-114.766 0s25.691 57.383 57.383 57.383S0 31.692 0 0" clip-path="url(#e)" style="fill:#fff2d9;fill-opacity:1;fill-rule:nonzero;stroke:none" transform="matrix(1.33333 0 0 -1.33333 1152.298 824.633)"/><path d="M0 0c-.035-11.561-3.601-22.856-10.272-32.306-6.48-9.179-15.827-16.345-26.387-20.188-11.013-4.007-23.178-4.474-34.458-1.287-10.914 3.083-20.691 9.535-27.919 18.262-7.258 8.763-11.709 19.798-12.565 31.142-.875 11.598 1.841 23.28 7.858 33.243 5.834 9.661 14.572 17.397 24.837 22.078 10.59 4.828 22.751 6.158 34.147 3.835 11.105-2.264 21.342-7.912 29.194-16.082C-7.651 30.461-2.426 19.884-.649 8.605-.2 5.76-.009 2.879 0 0c.006-1.93 3.006-1.934 3 0C2.963 12.159-.79 24.183-7.872 34.088c-6.925 9.685-16.652 17.136-27.833 21.241-11.527 4.233-24.398 4.679-36.21 1.345-11.426-3.225-21.799-9.995-29.347-19.16-7.701-9.351-12.378-20.882-13.326-32.964-.953-12.144 1.956-24.501 8.255-34.93 6.11-10.117 15.29-18.346 26.064-23.222 11.282-5.108 23.997-6.542 36.141-4.104 11.691 2.347 22.565 8.389 30.797 17.007C-5.107-32.091.451-21.01 2.27-9.233 2.743-6.175 2.991-3.094 3 0 3.006 1.931.006 1.933 0 0" clip-path="url(#f)" style="fill:#000;fill-opacity:1;fill-rule:nonzero;stroke:none" transform="matrix(1.33333 0 0 -1.33333 1150.298 824.633)"/><path d="M0 0c-18.272-7.261-24.158-13.147-31.419-31.419C-38.68-13.147-44.566-7.261-62.838 0c18.272 7.261 24.158 13.147 31.419 31.419C-24.158 13.147-18.272 7.261 0 0" clip-path="url(#g)" style="fill:#fff2d9;fill-opacity:1;fill-rule:nonzero;stroke:none" transform="matrix(1.33333 0 0 -1.33333 681.156 788.144)"/><path d="M0 0c-5.978-2.383-11.967-5.012-17.086-8.978-4.406-3.413-7.811-7.798-10.465-12.676-1.893-3.481-3.45-7.136-4.916-10.813h2.893c-2.383 5.979-5.012 11.967-8.978 17.086-3.413 4.406-7.798 7.812-12.676 10.465-3.481 1.893-7.136 3.45-10.813 4.916v-2.893C-56.062-.51-50.074 2.12-44.955 6.085c4.406 3.414 7.812 7.798 10.465 12.677 1.893 3.48 3.45 7.135 4.916 10.812h-2.893c2.383-5.978 5.013-11.967 8.978-17.086 3.414-4.406 7.798-7.811 12.677-10.465C-7.332.13-3.677-1.427 0-2.893 1.793-3.608 2.572-.707.798 0c-5.575 2.222-11.232 4.705-16.012 8.4-4.129 3.192-7.265 7.316-9.747 11.876-1.77 3.253-3.243 6.658-4.613 10.095-.564 1.416-2.328 1.418-2.893 0-2.222-5.574-4.705-11.231-8.399-16.011-3.192-4.129-7.316-7.265-11.877-9.747C-55.995 2.843-59.401 1.37-62.838 0c-1.416-.564-1.418-2.328 0-2.893 5.574-2.222 11.232-4.705 16.011-8.399 4.129-3.192 7.265-7.317 9.747-11.877 1.77-3.252 3.243-6.658 4.613-10.095.564-1.416 2.328-1.418 2.893 0 2.222 5.574 4.705 11.232 8.4 16.011 3.192 4.129 7.316 7.265 11.876 9.747C-6.045-5.736-2.64-4.263.798-2.893 2.569-2.187 1.797.716 0 0" clip-path="url(#h)" style="fill:#000;fill-opacity:1;fill-rule:nonzero;stroke:none" transform="matrix(1.33333 0 0 -1.33333 680.625 786.216)"/><path d="M0 0c-18.272-7.261-24.158-13.147-31.419-31.419C-38.68-13.147-44.566-7.261-62.838 0c18.272 7.261 24.158 13.147 31.419 31.419C-24.158 13.147-18.272 7.261 0 0" clip-path="url(#i)" style="fill:#fff2d9;fill-opacity:1;fill-rule:nonzero;stroke:none" transform="matrix(1.33333 0 0 -1.33333 1001.801 551.895)"/><path d="M0 0c-5.978-2.383-11.967-5.012-17.086-8.978-4.406-3.413-7.811-7.798-10.465-12.676-1.893-3.481-3.45-7.136-4.916-10.813h2.893c-2.383 5.979-5.012 11.967-8.978 17.086-3.413 4.406-7.798 7.812-12.676 10.465-3.481 1.893-7.136 3.45-10.813 4.916v-2.893C-56.062-.51-50.074 2.12-44.955 6.085c4.406 3.414 7.812 7.798 10.465 12.677 1.893 3.48 3.45 7.135 4.916 10.812h-2.893c2.383-5.978 5.013-11.967 8.978-17.086 3.414-4.406 7.798-7.811 12.677-10.465C-7.332.13-3.677-1.427 0-2.893 1.793-3.608 2.572-.707.798 0c-5.575 2.222-11.232 4.705-16.012 8.4-4.129 3.192-7.265 7.316-9.747 11.876-1.77 3.253-3.243 6.658-4.613 10.096-.564 1.415-2.328 1.417-2.893 0-2.222-5.575-4.705-11.232-8.399-16.012-3.192-4.129-7.316-7.265-11.877-9.747C-55.995 2.843-59.401 1.37-62.838 0c-1.416-.564-1.418-2.328 0-2.893 5.574-2.222 11.232-4.705 16.011-8.399 4.129-3.192 7.265-7.317 9.747-11.877 1.77-3.252 3.243-6.658 4.613-10.095.564-1.416 2.328-1.418 2.893 0 2.222 5.574 4.705 11.232 8.4 16.011 3.192 4.129 7.316 7.265 11.876 9.747C-6.045-5.736-2.64-4.263.798-2.893 2.569-2.187 1.797.716 0 0" clip-path="url(#j)" style="fill:#000;fill-opacity:1;fill-rule:nonzero;stroke:none" transform="matrix(1.33333 0 0 -1.33333 1001.27 549.966)"/><path d="M32.696-42.27q0 2.297-.586 5.144a69 69 0 0 1-1.442 5.777 100 100 0 0 1-1.851 5.72 480 480 0 0 0-1.746 5.003q-.518 1.407-1.125 3.48a87 87 0 0 1-1.395 4.372 84 84 0 0 1-1.758 4.605q-.961 2.298-2.109 4.113-1.149 1.819-2.52 2.965Q16.792.06 15.2.058q-1.35 0-2.59-1.207-1.244-1.218-2.367-3.094a36 36 0 0 1-2.11-4.219 86 86 0 0 1-1.78-4.558 69 69 0 0 1-1.349-4.149 87 87 0 0 1-.785-2.941 388 388 0 0 1-2.437-10.055A46 46 0 0 1 .633-40.349q-.002-1.276.13-2.648.126-1.38.632-2.531a4.9 4.9 0 0 1 1.441-1.875q.924-.739 2.59-.739 1.406.001 2.59 1.57 1.183 1.56 2.133 4.055.959 2.488 1.758 5.555.796 3.06 1.5 6.035.702 2.967 1.336 5.555.641 2.58 1.289 4.113.373-1.276 1.113-3.738.738-2.46 1.723-5.39.983-2.94 2.168-6.036a55 55 0 0 1 2.484-5.613q1.31-2.531 2.719-4.125 1.404-1.592 2.87-1.594 1.09 0 1.794.516.702.505 1.078 1.336.386.834.55 1.793.165.95.165 1.84M68.807-9.446q-.001 1.278-.223 3.07a14 14 0 0 1-.867 3.41q-.633 1.63-1.722 2.742Q64.904.89 63.124.89q-2.37 0-3.551-1.723-1.173-1.723-1.688-4.113-.504-2.4-.61-4.887l-.151-3.96a231 231 0 0 1-9.07 1.347c-.089.978-.27 2.188-.552 3.633a20 20 0 0 1-1.277 4.183Q45.37-2.612 44-1.15c-.915.98-2.034 1.465-3.352 1.465Q39.11.317 38.245-.798q-.858-1.111-1.301-2.648a14 14 0 0 1-.54-3.164 47 47 0 0 1-.093-2.707q-.001-3.644.574-7.184.571-3.55 1.336-7.055.387-1.849 1.02-4.336a63 63 0 0 1 1.57-5.144 49 49 0 0 1 2.168-5.238q1.24-2.59 2.836-4.63 1.605-2.049 3.644-3.316 2.04-1.276 4.536-1.277 2.424 0 4.207 1.09 1.793 1.08 3.129 2.87 1.345 1.783 2.238 4.056a41 41 0 0 1 1.5 4.593 64 64 0 0 1 1.02 4.559q.42 2.24.738 3.96a135 135 0 0 1 1.406 8.403q.572 4.245.574 8.52M56.48-24.962c0-.516-.032-1.353-.094-2.52a28 28 0 0 0-.422-3.515q-.316-1.758-.984-3.129-.669-1.371-1.816-1.371-.634 0-1.22.867-.575.858-1.019 2.168a26 26 0 0 0-.797 2.906 70 70 0 0 0-.609 3.059q-.247 1.467-.375 2.648a72 72 0 0 1-.2 1.688 88 88 0 0 0 7.536-.95zm47.666-7.535q-.002 1.21-.293 2.555a8.8 8.8 0 0 1-.926 2.484 6 6 0 0 1-1.664 1.922q-1.02.764-2.484.762-2.24.001-3.328-.797a4.3 4.3 0 0 1-1.524-2.004 8 8 0 0 1-.48-2.59 80 80 0 0 0-.106-2.578q-.059-1.217-.41-2.016-.352-.808-1.5-.808-1.28.001-2.238.925-.95.927-1.652 2.403a18.3 18.3 0 0 0-1.184 3.316 39 39 0 0 0-.773 3.668 46 46 0 0 0-.41 3.445 38 38 0 0 0-.118 2.66q-.001 1.337.094 3.188.091 1.854.598 3.55.514 1.69 1.535 2.872 1.018 1.172 2.941 1.172 1.275 0 2.485-.317 1.217-.313 2.425-.726a30 30 0 0 1 2.461-.738 10 10 0 0 1 2.52-.329q1.476.001 2.426 1.184.959 1.186.96 2.649-.001 2.051-1.277 3.808-1.278 1.748-3.164 3.082-1.875 1.345-4.078 2.11-2.204.773-3.996.773c-3.065 0-5.66-.691-7.793-2.074a16.4 16.4 0 0 1-5.168-5.356q-1.981-3.291-2.848-7.347a39 39 0 0 1-.855-8.086q0-2.671.504-5.86a45 45 0 0 1 1.535-6.422 39.6 39.6 0 0 1 2.59-6.222q1.568-3.01 3.668-5.309 2.108-2.296 4.757-3.703 2.658-1.406 5.848-1.406 3.127 0 5.227 1.57 2.109 1.56 3.386 3.961 1.275 2.391 1.793 5.238.515 2.839.516 5.391m37.752 23.05q-.001 1.279-.223 3.071a14 14 0 0 1-.867 3.41q-.633 1.63-1.723 2.742-1.09 1.114-2.87 1.114-2.37 0-3.551-1.723-1.174-1.723-1.688-4.113-.504-2.4-.61-4.887l-.152-3.96q-4.597.774-9.07 1.347-.131 1.466-.55 3.633a20 20 0 0 1-1.278 4.183q-.856 2.018-2.227 3.48c-.914.98-2.033 1.465-3.351 1.465q-1.538.002-2.403-1.113-.855-1.111-1.3-2.648a14 14 0 0 1-.54-3.164 47 47 0 0 1-.093-2.707q-.001-3.644.574-7.184.571-3.55 1.336-7.055.387-1.848 1.02-4.336a63 63 0 0 1 1.57-5.144 49 49 0 0 1 2.168-5.238q1.24-2.59 2.836-4.63 1.605-2.049 3.644-3.316 2.04-1.276 4.536-1.277 2.424 0 4.207 1.09 1.793 1.08 3.128 2.87 1.346 1.783 2.239 4.056a41 41 0 0 1 1.5 4.593 64 64 0 0 1 1.02 4.559q.42 2.24.738 3.96a135 135 0 0 1 1.406 8.403c.38 2.83.574 5.67.574 8.52M129.57-24.961c0-.516-.032-1.353-.094-2.52a28 28 0 0 0-.422-3.515q-.316-1.758-.984-3.129t-1.817-1.371q-.633 0-1.218.867-.576.858-1.02 2.168a26 26 0 0 0-.797 2.906 70 70 0 0 0-.609 3.059q-.247 1.467-.375 2.648a72 72 0 0 1-.2 1.688 88 88 0 0 0 7.536-.95zM176-43.605q-.002 1.596-1.254 2.906-1.244 1.302-3 2.297a22.4 22.4 0 0 1-3.61 1.629q-1.855.633-3.058.89a215 215 0 0 0-.809 9.809 170 170 0 0 0-.281 9.797 99 99 0 0 0 .129 5.168q.128 2.557.129 5.11-.002 1.15-.223 2.519-.225 1.372-.773 2.59a5.8 5.8 0 0 1-1.5 2.038q-.95.832-2.356.833-1.666-.002-2.66-.926a6.3 6.3 0 0 1-1.524-2.262 11.7 11.7 0 0 1-.738-2.848 22 22 0 0 1-.187-2.718 471 471 0 0 1-.2-7.688 488 488 0 0 1-.058-7.758q0-3.256.035-6.386.035-3.127.035-6.387-.892.13-1.816.2-.928.059-1.887.058c-.515 0-1.19-.05-2.015-.153a11.4 11.4 0 0 1-2.391-.574 6.3 6.3 0 0 1-1.98-1.148q-.832-.738-.833-1.887 0-1.92 1.5-3.352 1.501-1.44 3.832-2.496 2.33-1.053 5.168-1.78a54 54 0 0 1 5.625-1.15 74 74 0 0 1 5.11-.609q2.33-.198 3.61-.199 1.205 0 2.577.105a9.3 9.3 0 0 1 2.578.54q1.217.447 2.016 1.347.81.893.809 2.485m21.706.257q-.001 1.21-.551 2.168a5.15 5.15 0 0 1-1.442 1.63 9 9 0 0 1-1.98 1.113q-1.079.447-2.098.644-.131 7.208-.55 13.91-.414 6.705-1.301 13.864h.386q1.02.002 2.004.222.993.225 1.793.762.794.539 1.278 1.348.48.798.48 1.945-.001 1.466-.926 2.555-.927 1.079-2.425 1.851-1.503.765-3.352 1.277a34 34 0 0 1-3.703.786 47 47 0 0 1-3.516.421 37 37 0 0 1-2.683.13q-.763 0-1.887-.07a8.5 8.5 0 0 1-2.11-.376 4.6 4.6 0 0 1-1.687-.95q-.703-.642-.703-1.734 0-1.335.55-2.39.54-1.053 1.43-1.887a7.4 7.4 0 0 1 2.004-1.336q1.123-.514 2.274-.773.444-3.503.832-6.985.386-3.479.515-7.054.127-3.643.246-7.184.127-3.549.258-7.125-.447.07-.832.106-.378.024-.703.023-.891.001-1.91-.187a7 7 0 0 1-1.922-.668 5.2 5.2 0 0 1-1.5-1.184q-.598-.703-.598-1.793-.001-2.167 1.817-3.574 1.814-1.405 4.336-2.168a27.7 27.7 0 0 1 5.144-1.055q2.61-.291 4.22-.293.886 0 2.355.13c.984.087 1.95.277 2.906.573.96.3 1.793.703 2.496 1.219q1.055.765 1.055 2.11M216.15 2.108q-3.893 0-6.774-1.957-2.873-1.943-4.757-5.226-1.877-3.29-2.801-7.63-.927-4.346-.926-9.128 0-4.474.984-9.07.995-4.592 3.036-8.297 2.048-3.702 5.168-6.059 3.128-2.366 7.476-2.367 4.218.001 7.055 2.262 2.835 2.264 4.523 5.87 1.698 3.614 2.438 8.087a54.7 54.7 0 0 1 .738 8.93q-.002 4.983-.996 9.421-.986 4.43-3 7.817-2.019 3.39-5.05 5.367-3.026 1.979-7.114 1.98m.762-35.625c-.806 0-1.497.323-2.075.961q-.856.95-1.43 2.52-.575 1.56-.831 3.504a30 30 0 0 0-.258 3.926q0 2.24.281 4.476.291 2.228.867 4.02.573 1.783 1.43 2.87.865 1.09 2.086 1.09 1.405 0 2.226-1.406.83-1.405 1.313-3.386.48-1.978.633-4.078.163-2.11.164-3.516a32 32 0 0 0-.223-3.633 19 19 0 0 0-.738-3.55q-.505-1.627-1.336-2.708-.835-1.09-2.11-1.09m59.036 6.13q0 1.407-.13 3.995a85 85 0 0 1-.468 5.672 78 78 0 0 1-.996 6.328q-.635 3.226-1.664 5.836-1.02 2.616-2.484 4.313Q268.738.444 266.69.444q-1.911 0-3.516-1.113a13.7 13.7 0 0 1-2.87-2.742 22.4 22.4 0 0 1-2.227-3.48 42 42 0 0 1-1.594-3.387q-1.35-3.256-2.695-6.41-1.337-3.163-2.543-6.422v1.78q0 2.757-.036 5.474a43 43 0 0 1-.41 5.378q-.13 1.09-.293 2.532a24 24 0 0 1-.48 2.836q-.318 1.406-.926 2.625-.599 1.209-1.629 1.78-.575.317-1.055.388-.47.06-1.043.187h-.199q-1.465 0-2.484-.984-1.02-.994-1.723-2.555-.703-1.569-1.125-3.516a41 41 0 0 1-.633-3.832 47 47 0 0 1-.293-3.48 68 68 0 0 1-.058-2.555c0-.975.04-2.408.129-4.3q.126-2.849.539-6.293.421-3.445 1.09-7.079.666-3.642 1.746-6.609 1.088-2.974 2.625-4.863 1.534-1.886 3.574-1.887 1.978.001 3.539 1.535c1.046 1.026 1.972 2.238 2.777 3.645a28 28 0 0 1 2.051 4.406q.831 2.299 1.406 3.832 1.077 3.002 2.098 5.965 1.03 2.967 1.98 6.035.07.132.258.703.185.576.446 1.277.256.765.644 1.723 0-.832-.035-1.183a6 6 0 0 1-.035-.633v-2.145q-.06-2.107-.094-4.207a250 250 0 0 1-.035-4.16q0-.888.035-2.484.035-1.591.188-3.41.163-1.828.48-3.68.327-1.85.926-3.352.607-1.499 1.535-2.449a3.03 3.03 0 0 1 2.262-.96q1.603 0 2.754 1.218 1.145 1.208 1.91 3.094.772 1.876 1.219 4.207.444 2.333.691 4.57.255 2.228.316 4.148.07 1.912.07 3m0 0" aria-label="VACATION" style="fill:#fad902;fill-opacity:1;fill-rule:nonzero;stroke:none" transform="translate(650.761 745.115)scale(1.33333)"/><path d="M0 0a7 7 0 0 1-.543 1.787q-.383.83-1.085 1.341-.703.51-1.788.511-1.47 0-2.873-1.596Q-7.694.446-9.002-2.075q-1.31-2.522-2.49-5.618a163 163 0 0 1-2.171-6.034 163 163 0 0 1-1.723-5.394l-1.117-3.734q-.64 1.531-1.277 4.117a564 564 0 0 0-1.341 5.554q-.703 2.97-1.5 6.034-.799 3.065-1.756 5.553-.958 2.49-2.139 4.055-1.182 1.563-2.585 1.563-1.66 0-2.586-.733a4.9 4.9 0 0 1-1.437-1.884 8 8 0 0 1-.638-2.521 28 28 0 0 1-.128-2.65q0-5.108 1.15-10.183a362 362 0 0 1 2.426-10.055q.254-1.023.798-2.936a64 64 0 0 1 1.341-4.151 82 82 0 0 1 1.787-4.564 35 35 0 0 1 2.107-4.214q1.117-1.884 2.362-3.096t2.586-1.213q1.595 0 2.968 1.149t2.522 2.968q1.149 1.82 2.107 4.119a82 82 0 0 1 1.756 4.596q.797 2.299 1.404 4.373a57 57 0 0 0 1.118 3.48 434 434 0 0 0 1.755 5.012 106 106 0 0 1 1.851 5.713A69 69 0 0 1-.415-6.991q.574 2.84.574 5.139Q.159-.958 0 0Z" clip-path="url(#k)" style="fill:none;stroke:#000;stroke-width:3;stroke-linecap:butt;stroke-linejoin:miter;stroke-miterlimit:10;stroke-dasharray:none;stroke-opacity:1" transform="matrix(1.33333 0 0 -1.33333 694.131 686.294)"/><path d="M0 0q-.575 4.245-1.405 8.396l-.734 3.958a66 66 0 0 1-1.021 4.564 40 40 0 0 1-1.501 4.597q-.894 2.266-2.234 4.053-1.341 1.788-3.128 2.873t-4.214 1.086q-2.49 0-4.533-1.277-2.043-1.278-3.639-3.319-1.596-2.045-2.841-4.629a50 50 0 0 1-2.17-5.236 62 62 0 0 1-1.564-5.138 97 97 0 0 1-1.022-4.342 133 133 0 0 1-1.341-7.055 45 45 0 0 1-.574-7.181q0-1.086.096-2.714.095-1.628.542-3.16t1.309-2.65 2.394-1.117q1.978 0 3.352 1.469 1.373 1.467 2.234 3.479a20.2 20.2 0 0 1 1.277 4.182q.415 2.169.543 3.639 4.469.574 9.066 1.34.062-1.468.159-3.958.095-2.49.607-4.883.51-2.395 1.691-4.119 1.18-1.723 3.544-1.723 1.786 0 2.873 1.117 1.084 1.117 1.723 2.745a14 14 0 0 1 .862 3.415Q.575-9.8.575-8.523.575-4.246 0 0Zm-11.747 5.14a86 86 0 0 0-7.533-.958q.063.509.191 1.691.128 1.18.383 2.649.256 1.468.607 3.065a27 27 0 0 0 .798 2.905q.446 1.308 1.021 2.171.574.861 1.213.861 1.15 0 1.82-1.372.67-1.374.989-3.129.32-1.755.415-3.51.096-1.757.096-2.523z" clip-path="url(#l)" style="fill:none;stroke:#000;stroke-width:3;stroke-linecap:butt;stroke-linejoin:miter;stroke-miterlimit:10;stroke-dasharray:none;stroke-opacity:1" transform="matrix(1.33333 0 0 -1.33333 741.764 721.152)"/><path d="M0 0q-.512 2.84-1.788 5.234a11.74 11.74 0 0 1-3.383 3.959q-2.108 1.564-5.235 1.564-3.193 0-5.842-1.404a17.6 17.6 0 0 1-4.756-3.704Q-23.11 3.351-24.675.351a38.7 38.7 0 0 1-2.585-6.225 44 44 0 0 1-1.532-6.416q-.512-3.193-.511-5.873 0-4.023.862-8.076.861-4.055 2.84-7.342a16.4 16.4 0 0 1 5.172-5.363q3.191-2.074 7.788-2.075 1.787 0 3.991.766a16.2 16.2 0 0 1 4.086 2.107q1.882 1.34 3.16 3.096 1.277 1.755 1.277 3.799 0 1.468-.958 2.649-.959 1.181-2.426 1.181-1.277 0-2.522-.318-1.246-.32-2.458-.735a35 35 0 0 0-2.426-.734 9.7 9.7 0 0 0-2.49-.319q-1.916 0-2.936 1.18-1.023 1.18-1.532 2.873a14.8 14.8 0 0 0-.607 3.544 63 63 0 0 0-.096 3.192q0 1.02.128 2.649.127 1.629.415 3.448.287 1.819.766 3.671.478 1.85 1.181 3.32.703 1.467 1.66 2.394.957.925 2.234.926 1.149 0 1.501-.799.35-.799.415-2.011.063-1.213.095-2.586a8 8 0 0 1 .479-2.585 4.3 4.3 0 0 1 1.533-2.011q1.084-.798 3.319-.798 1.469 0 2.49.766a6 6 0 0 1 1.66 1.916 9 9 0 0 1 .926 2.49q.287 1.34.287 2.553Q.511-2.842 0 0Z" clip-path="url(#m)" style="fill:none;stroke:#000;stroke-width:3;stroke-linecap:butt;stroke-linejoin:miter;stroke-miterlimit:10;stroke-dasharray:none;stroke-opacity:1" transform="matrix(1.33333 0 0 -1.33333 788.93 694.594)"/><path d="M0 0q-.575 4.245-1.405 8.396l-.734 3.958a66 66 0 0 1-1.021 4.564 40 40 0 0 1-1.501 4.597q-.894 2.266-2.234 4.053-1.341 1.788-3.128 2.873t-4.214 1.086q-2.49 0-4.533-1.277-2.043-1.278-3.639-3.319-1.596-2.045-2.841-4.629a50 50 0 0 1-2.17-5.236 62 62 0 0 1-1.564-5.138 97 97 0 0 1-1.022-4.342 133 133 0 0 1-1.341-7.055 45 45 0 0 1-.574-7.181q0-1.086.096-2.714.095-1.628.542-3.16t1.309-2.65 2.394-1.117q1.978 0 3.352 1.469 1.373 1.467 2.234 3.479a20.2 20.2 0 0 1 1.277 4.182q.415 2.169.543 3.639 4.469.574 9.066 1.34.062-1.468.159-3.958.095-2.49.607-4.883.51-2.395 1.691-4.119 1.18-1.723 3.544-1.723 1.786 0 2.873 1.117 1.084 1.117 1.723 2.745a14 14 0 0 1 .862 3.415Q.575-9.8.575-8.523.575-4.246 0 0Zm-11.747 5.14a86 86 0 0 0-7.533-.958q.063.509.191 1.691.128 1.18.383 2.649.256 1.468.607 3.065a27 27 0 0 0 .798 2.905q.446 1.308 1.021 2.171.574.861 1.213.861 1.15 0 1.82-1.372.67-1.374.989-3.129.32-1.755.415-3.51.096-1.757.096-2.523z" clip-path="url(#n)" style="fill:none;stroke:#000;stroke-width:3;stroke-linecap:butt;stroke-linejoin:miter;stroke-miterlimit:10;stroke-dasharray:none;stroke-opacity:1" transform="matrix(1.33333 0 0 -1.33333 839.159 721.152)"/><path d="M0 0q-.8.894-2.011 1.341a9.3 9.3 0 0 1-2.586.543q-1.373.095-2.585.095-1.278 0-3.607-.191a79 79 0 0 1-5.107-.606 55 55 0 0 1-5.619-1.15q-2.841-.734-5.171-1.787-2.33-1.054-3.831-2.49t-1.5-3.352q.001-1.15.83-1.883a6 6 0 0 1 1.979-1.15 11.2 11.2 0 0 1 2.395-.574q1.245-.16 2.01-.159.958 0 1.884.063.924.063 1.819.192 0-3.257-.032-6.384a634 634 0 0 1-.032-6.385 465 465 0 0 1 .256-15.449q0-1.215.191-2.714.191-1.5.735-2.841a6.3 6.3 0 0 1 1.532-2.266q.989-.926 2.649-.926 1.404 0 2.363.83a5.8 5.8 0 0 1 1.5 2.043q.541 1.212.766 2.586.223 1.373.223 2.521 0 2.553-.128 5.108a104 104 0 0 0-.127 5.171q0 4.915.287 9.799.287 4.885.798 9.8 1.212.256 3.065.895 1.85.635 3.607 1.628 1.755.988 3 2.297T.798-2.489Q.798-.895 0 0Z" clip-path="url(#o)" style="fill:none;stroke:#000;stroke-width:3;stroke-linecap:butt;stroke-linejoin:miter;stroke-miterlimit:10;stroke-dasharray:none;stroke-opacity:1" transform="matrix(1.33333 0 0 -1.33333 884.324 683.656)"/><path d="M0 0q-1.053.766-2.49 1.213-1.436.445-2.905.574t-2.362.128q-1.597 0-4.213-.287A28 28 0 0 1-17.109.574q-2.524-.767-4.342-2.171-1.82-1.405-1.82-3.575 0-1.085.607-1.787a5.2 5.2 0 0 1 1.5-1.182 6.6 6.6 0 0 1 1.915-.67 10.5 10.5 0 0 1 1.916-.191q.319 0 .702.031.384.033.83.097l-.255-7.119a5250 5250 0 0 1-.256-7.182 96 96 0 0 0-.51-7.054 431 431 0 0 0-.83-6.992 11.4 11.4 0 0 1-2.266-.765 7.6 7.6 0 0 1-2.012-1.341 6.8 6.8 0 0 1-1.436-1.884q-.542-1.053-.543-2.393 0-1.087.702-1.724a4.6 4.6 0 0 1 1.692-.958 8.5 8.5 0 0 1 2.107-.383 34 34 0 0 1 1.884-.063q1.02 0 2.681.127 1.659.127 3.511.415 1.85.288 3.703.797 1.85.512 3.352 1.278 1.499.766 2.425 1.851t.926 2.554q0 1.148-.478 1.947-.48.798-1.277 1.34a5.2 5.2 0 0 1-1.788.767 9.2 9.2 0 0 1-2.011.223h-.383a224 224 0 0 1 1.309 13.854q.414 6.703.542 13.918 1.021.19 2.107.638 1.085.446 1.979 1.117.894.67 1.437 1.629.542.956.543 2.17Q1.054-.767 0 0Z" clip-path="url(#p)" style="fill:none;stroke:#000;stroke-width:3;stroke-linecap:butt;stroke-linejoin:miter;stroke-miterlimit:10;stroke-dasharray:none;stroke-opacity:1" transform="matrix(1.33333 0 0 -1.33333 912.932 684.507)"/><path d="M0 0q3.032 1.978 5.044 5.363 2.01 3.382 3 7.821.99 4.436.99 9.417 0 4.468-.734 8.937-.735 4.468-2.426 8.076-1.693 3.607-4.533 5.874t-7.055 2.266q-4.341 0-7.469-2.362-3.13-2.363-5.171-6.065-2.044-3.703-3.033-8.3a43 43 0 0 1-.989-9.065q0-4.788.925-9.129.926-4.342 2.809-7.63 1.883-3.287 4.757-5.234 2.872-1.948 6.767-1.948Q-3.033-1.978 0 0zm-4.245 32.56q.828-1.086 1.34-2.713.51-1.629.735-3.543.223-1.917.223-3.64 0-1.404-.159-3.511a25.6 25.6 0 0 0-.639-4.086q-.479-1.98-1.309-3.383-.83-1.405-2.234-1.405-1.214 0-2.075 1.085-.863 1.085-1.436 2.873-.575 1.787-.863 4.022a35 35 0 0 0-.287 4.47q0 1.977.256 3.925.254 1.947.83 3.512.575 1.563 1.436 2.522.861.957 2.075.958 1.276 0 2.107-1.086z" clip-path="url(#q)" style="fill:none;stroke:#000;stroke-width:3;stroke-linecap:butt;stroke-linejoin:miter;stroke-miterlimit:10;stroke-dasharray:none;stroke-opacity:1" transform="matrix(1.33333 0 0 -1.33333 948.434 745.285)"/><path d="M0 0a53 53 0 0 1-.319 4.15 63 63 0 0 1-.702 4.565q-.448 2.33-1.214 4.214-.766 1.883-1.915 3.095t-2.745 1.213q-1.341 0-2.267-.957-.926-.958-1.532-2.458-.607-1.501-.926-3.351a44 44 0 0 1-.478-3.671 50 50 0 0 1-.192-3.416 127 127 0 0 1-.032-2.49q0-2.044.032-4.15.032-2.105.096-4.214v-2.138q0-.288.032-.638.032-.352.032-1.182a31 31 0 0 0-.639 1.724q-.255.702-.446 1.277a8 8 0 0 1-.256.702 226 226 0 0 1-1.979 6.034 406 406 0 0 1-2.107 5.968 327 327 0 0 0-1.404 3.831q-.831 2.298-2.043 4.406-1.214 2.106-2.777 3.638-1.566 1.533-3.544 1.533-2.043 0-3.575-1.884t-2.618-4.852-1.755-6.607a115 115 0 0 1-1.085-7.087 84 84 0 0 1-.543-6.288q-.129-2.842-.128-4.31 0-.958.064-2.553a44.6 44.6 0 0 1 .926-7.31q.414-1.949 1.117-3.512.702-1.564 1.724-2.553 1.02-.99 2.49-.99h.191q.574.127 1.054.192.479.064 1.053.382 1.021.574 1.628 1.789.606 1.211.926 2.617.318 1.403.479 2.841.158 1.436.287 2.521.382 2.682.415 5.396.031 2.711.031 5.458v1.788q1.214-3.257 2.554-6.417a653 653 0 0 0 2.682-6.416q.638-1.533 1.596-3.384a22 22 0 0 1 2.234-3.479 13.4 13.4 0 0 1 2.873-2.746 6 6 0 0 1 3.512-1.117q2.041 0 3.511 1.692 1.467 1.69 2.49 4.31 1.02 2.616 1.66 5.841.638 3.224.989 6.32A92 92 0 0 1-.064-6.99Q.063-4.406.063-3q0 1.085-.063 3z" clip-path="url(#r)" style="fill:none;stroke:#000;stroke-width:3;stroke-linecap:butt;stroke-linejoin:miter;stroke-miterlimit:10;stroke-dasharray:none;stroke-opacity:1" transform="matrix(1.33333 0 0 -1.33333 1018.626 704.596)"/><text xml:space="preserve" transform="translate(712.61 667.444)scale(1.33333)"><tspan x="0" y="0" dx="0 2.1504419 2.1504419 2.1504419 2.1504419 2.1504419" style="font-variant:normal;font-weight:400;font-stretch:normal;font-size:47.7876px;font-family:Pacifico;writing-mode:lr-tb;fill:#000;fill-opacity:1;fill-rule:nonzero;stroke:none">Summer</tspan></text><path d="M38.004-47.871q0 1.02-.55 2.836a76 76 0 0 1-1.371 4.09 107 107 0 0 1-1.887 4.793 228 228 0 0 1-2.063 4.78q-1.021 2.287-1.886 4.243a153 153 0 0 1-1.383 3.047 997 997 0 0 1-2.39 5.484q-1.455 3.295-3.118 6.739a88 88 0 0 1-3.445 6.457q-1.785 3.015-3.305 4.675Q15.081.936 12.985.937 11.39.937 10.3-.07 9.21-1.09 9.21-2.754q-.001-2.249.973-5.367a78 78 0 0 1 2.32-6.34 135 135 0 0 1 2.801-6.281q1.45-3.046 2.461-5.227a947 947 0 0 1 3.774-8.449 1050 1050 0 0 0 3.773-8.45 29 29 0 0 0-2.145-.21 30 30 0 0 0-2.132-.082q-3.706 0-7.582.55-3.88.54-7.5 1.266-.366.07-1.09.07c-1.12 0-2.028-.333-2.73-1.007q-1.045-1.02-1.044-2.684 0-1.745 1.196-3.047 1.194-1.31 3.117-2.215 1.921-.913 4.277-1.488 2.355-.585 4.64-.937a42 42 0 0 1 4.243-.47 58 58 0 0 1 3.129-.116q1.23.001 3.586.187 2.355.177 4.851.574 2.505.4 4.606 1.09 2.108.694 2.836 1.77.362.448.398.844.035.4.035.902m48.431 22.7q-.002 4.935-1.488 9.901-1.49 4.971-4.36 9A22.7 22.7 0 0 1 73.451.246c-2.854 1.67-6.14 2.508-9.867 2.508Q58.87 2.753 55.099.28q-3.775-2.46-6.422-6.27a30.3 30.3 0 0 1-4.066-8.331q-1.406-4.534-1.406-8.743-.002-2.974.796-6.234a34.5 34.5 0 0 1 2.286-6.457 39.5 39.5 0 0 1 3.55-6.129q2.075-2.941 4.641-5.156a21.8 21.8 0 0 1 5.59-3.516 15.6 15.6 0 0 1 6.27-1.3q5.589 0 9.433 2.39a19 19 0 0 1 6.2 6.2q2.355 3.81 3.41 8.566a43.8 43.8 0 0 1 1.054 9.527m-10.523-.364q-.001-1.803-.504-4.266a19.7 19.7 0 0 0-1.559-4.652q-1.055-2.18-2.73-3.703-1.665-1.523-3.985-1.524-2.824 0-5.039 1.782-2.215 1.784-3.738 4.394A23.5 23.5 0 0 0 56-27.926q-.833 2.979-.832 5.367 0 1.89.504 4.29a18.8 18.8 0 0 0 1.594 4.535q1.089 2.135 2.79 3.62 1.71 1.477 4.03 1.477 2.834 0 5.04-1.77 2.214-1.78 3.703-4.347a23 23 0 0 0 2.285-5.52q.796-2.94.797-5.261m0 0" aria-label="70" style="fill:#fad902;fill-opacity:1;fill-rule:nonzero;stroke:none" transform="translate(1019.105 859.152)scale(1.33333)"/><path d="M0 0q-.036.399-.398.834-.726 1.088-2.83 1.777a30 30 0 0 1-4.605 1.088q-2.504.399-4.86.581-2.358.18-3.591.181-1.16 0-3.119-.108a43 43 0 0 1-4.243-.472 57 57 0 0 1-4.643-.943q-2.358-.58-4.279-1.487-1.922-.907-3.12-2.213-1.196-1.305-1.196-3.046 0-1.669 1.051-2.684t2.721-1.015q.724 0 1.088.072 3.626.725 7.507 1.27a55 55 0 0 0 7.58.544q1.015 0 2.14-.072a29 29 0 0 0 2.14-.218 963 963 0 0 0-3.772-8.451 969 969 0 0 1-3.772-8.45 756 756 0 0 0-2.466-5.223 135 135 0 0 1-2.792-6.275 75 75 0 0 1-2.322-6.346q-.98-3.12-.979-5.367 0-1.67 1.088-2.685t2.684-1.016q2.103 0 3.627 1.669 1.522 1.668 3.3 4.679a89 89 0 0 1 3.445 6.455 202 202 0 0 1 3.119 6.746q1.45 3.3 2.394 5.477.508 1.088 1.378 3.047l1.886 4.243a262 262 0 0 1 2.068 4.787q1.05 2.503 1.885 4.787A75 75 0 0 1-.507-3.735Q.037-1.923.037-.906.037-.399 0 0Z" clip-path="url(#s)" style="fill:none;stroke:#000;stroke-width:3;stroke-linecap:butt;stroke-linejoin:miter;stroke-miterlimit:10;stroke-dasharray:none;stroke-opacity:1" transform="matrix(1.33333 0 0 -1.33333 1069.734 794.112)"/><path d="M0 0q-1.052 4.75-3.409 8.559a19 19 0 0 1-6.201 6.202q-3.847 2.393-9.43 2.393-3.266 0-6.274-1.305a21.9 21.9 0 0 1-5.586-3.518 28 28 0 0 1-4.643-5.15 40 40 0 0 1-3.554-6.129 35 35 0 0 1-2.285-6.456q-.798-3.264-.798-6.239 0-4.206 1.415-8.74a30.3 30.3 0 0 1 4.062-8.342q2.647-3.808 6.42-6.274 3.77-2.466 8.486-2.467 5.584 0 9.865 2.503a22.8 22.8 0 0 1 7.145 6.528q2.864 4.026 4.352 8.995 1.487 4.968 1.487 9.901Q1.051-4.752 0 0Zm-10.264-14.436a23 23 0 0 0-2.285-5.512q-1.487-2.575-3.699-4.352-2.213-1.777-5.041-1.777-2.323 0-4.025 1.487-1.706 1.485-2.793 3.626a18.3 18.3 0 0 0-1.596 4.534q-.508 2.393-.508 4.28 0 2.392.834 5.368a23.8 23.8 0 0 0 2.357 5.585q1.523 2.611 3.736 4.388 2.211 1.777 5.042 1.777 2.32 0 3.989-1.523 1.668-1.523 2.72-3.699a20 20 0 0 0 1.559-4.642q.507-2.468.508-4.281 0-2.321-.798-5.259z" clip-path="url(#t)" style="fill:none;stroke:#000;stroke-width:3;stroke-linecap:butt;stroke-linejoin:miter;stroke-miterlimit:10;stroke-dasharray:none;stroke-opacity:1" transform="matrix(1.33333 0 0 -1.33333 1132.995 812.874)"/><path d="M0 0c-22.411-1.38-42.272 17.674-48.266 39.313s-.957 44.82 6.699 65.928c7.657 21.108 17.943 41.376 22.894 63.277 6.502 28.766 2.991 60.381-12.958 85.188s-45.099 41.584-74.51 39.393-56.968-25.232-61.158-54.425c-1.451-10.111-.001-21.142 6.438-29.072 8.337-10.267 23.116-13.067 36.228-11.332 6.665.882 13.247 2.743 19.97 2.62s13.937-2.725 17.263-8.568c5.193-9.121-1.238-20.184-6.813-29.077-41.728-66.567-41.11-157.279 1.522-223.271z" clip-path="url(#u)" style="fill:#ff8db6;fill-opacity:1;fill-rule:nonzero;stroke:none" transform="matrix(1.33333 0 0 -1.33333 631.46 899.959)"/><path d="M0 0c-12.766-.7-24.611 5.332-33.279 14.432-9.682 10.164-14.819 23.389-15.89 37.286-2.535 32.915 14.337 62.81 25.248 92.737 5.258 14.422 9.035 29.279 9.716 44.668.634 14.348-1.204 28.911-5.878 42.514-8.925 25.977-28.629 47.437-54.621 56.918-12.167 4.438-25.489 5.956-38.278 3.676-12.17-2.169-23.656-7.77-33.118-15.685-9.363-7.832-16.743-18.151-20.515-29.803-3.947-12.192-4.296-27.238 3.449-38.073 7.579-10.602 21.118-14.362 33.619-13.829 7.932.338 15.6 2.901 23.541 3.048 6.247.115 13.552-1.739 17.055-7.392 3.982-6.427 1.134-14.215-2.058-20.318-3.252-6.217-7.28-12.003-10.625-18.176-6.499-11.991-11.745-24.669-15.708-37.717-7.929-26.107-10.754-53.774-8.504-80.954 2.253-27.217 9.556-54.022 21.952-78.385a196 196 0 0 1 9.908-17.23c.423-.657 1.347-.995 2.052-.538l31.496 20.396 49.791 32.245L.757-2.795C2.372-1.749.87.849-.757-.205l-31.495-20.396-49.792-32.245-11.404-7.385 2.053-.538c-14.699 22.825-24.421 48.599-29.056 75.324-4.655 26.848-4.162 54.644 1.474 81.303 2.804 13.267 6.862 26.297 12.231 38.752a197 197 0 0 0 9.035 18.297c3.416 6.094 7.538 11.83 10.489 18.175 2.738 5.89 4.601 12.745 1.866 18.988-2.535 5.785-8.331 9.154-14.346 10.298-7.594 1.444-15.19-.529-22.668-1.753-6.541-1.072-13.269-1.196-19.763.265-6.204 1.395-12.122 4.222-16.491 8.93-4.706 5.071-7.021 11.911-7.554 18.722-.997 12.725 3.407 25.416 10.773 35.684 14.833 20.674 40.93 31.298 65.955 27.134 26.763-4.452 49.775-22.957 61.702-47.046 13.15-26.561 13.251-57.647 4.777-85.609-9.233-30.467-26.462-58.586-29.116-90.863-1.182-14.371.797-29.285 8.05-41.933C-37.994 13.361-28.709 4.438-17.356-.116A40.7 40.7 0 0 1 0-3c1.92.105 1.932 3.106 0 3" clip-path="url(#v)" style="fill:#000;fill-opacity:1;fill-rule:nonzero;stroke:none" transform="matrix(1.33333 0 0 -1.33333 631.46 897.959)"/><path d="M0 0h-270.123c-39.98 0-72.39 32.41-72.39 72.39s32.41 72.39 72.39 72.39H0c39.98 0 72.39-32.41 72.39-72.39S39.98 0 0 0" clip-path="url(#w)" style="fill:#ff8db6;fill-opacity:1;fill-rule:nonzero;stroke:none" transform="matrix(1.33333 0 0 -1.33333 943.153 1065.758)"/><path d="M0 0h-269.02c-18.907 0-37.063 6.903-50.651 20.191-18.115 17.715-25.489 44.413-18.979 68.915 6.436 24.227 25.833 43.714 50.041 50.239 8.847 2.384 17.674 2.435 26.704 2.435H-3.852c1.283 0 2.566.004 3.849 0 12.309-.04 24.458-3.193 35.153-9.314 21.91-12.541 35.731-36.33 35.74-61.576.008-25.242-13.841-49.042-35.74-61.576C24.452 3.191 12.312.049 0 0c-1.93-.008-1.934-3.008 0-3 25.371.1 49.325 13.326 62.767 34.885 13.452 21.574 14.681 49.325 3.334 72.053-11.202 22.439-33.669 37.896-58.593 40.457-6.425.66-13.005.385-19.457.385h-257.27c-19.603 0-38.503-7.31-52.574-21.07-18.123-17.724-25.918-44.095-20.476-68.84 5.364-24.386 23.37-44.8 46.776-53.394C-287.234-1.556-278.487-2.991-269.7-3q3.086-.002 6.171 0H0c1.93 0 1.934 3 0 3" clip-path="url(#x)" style="fill:#000;fill-opacity:1;fill-rule:nonzero;stroke:none" transform="matrix(1.33333 0 0 -1.33333 943.153 1063.758)"/><path d="M0 0c7.584 13.569 18.308 25.741 32.093 32.924s30.834 8.879 44.979 2.435c5.298-2.414 10.295-6.134 12.693-11.438 2.399-5.304 1.493-12.357-3.17-15.843 4.996-3.494 5.194-11.351 1.769-16.394-3.425-5.044-9.378-7.744-15.247-9.395-9.714-2.732-19.903-3.247-29.805-5.195-9.901-1.947-19.971-5.637-26.602-13.244z" clip-path="url(#y)" style="fill:#fb582d;fill-opacity:1;fill-rule:nonzero;stroke:none" transform="matrix(1.33333 0 0 -1.33333 418.193 574.675)"/><path d="M0 0c7.887 14.051 19.177 26.742 34.009 33.59 7.712 3.561 16.305 5.353 24.798 4.988 8.034-.345 16.756-2.683 23.046-7.908 3.201-2.659 5.839-6.237 6.318-10.473.439-3.893-.772-7.854-3.931-10.301-.838-.649-.381-1.859.303-2.356 4.053-2.948 4.1-9.139 1.909-13.221-2.825-5.263-8.817-7.988-14.28-9.61-13.288-3.945-27.509-3.466-40.631-8.109-6.476-2.292-12.598-5.739-17.187-10.932l2.356-.304L2.101-3.031 0 1.514C-.809 3.265-3.396 1.743-2.59 0l14.609-31.605 2.1-4.545c.394-.852 1.757-.981 2.356-.303 9.31 10.535 23.971 12.809 37.161 14.637 7.246 1.005 14.641 1.919 21.576 4.356 5.699 2.004 11.675 5.402 14.264 11.153 2.507 5.568 1.752 12.676-3.419 16.437l.304-2.356c6.488 5.027 5.966 14.859 1.445 20.966-5.196 7.019-14.207 10.735-22.585 12.153-18.198 3.081-36.324-3.998-49.733-16.181C8.199 18.09 2.22 10.083-2.59 1.514-3.537-.171-.946-1.685 0 0" clip-path="url(#z)" style="fill:#000;fill-opacity:1;fill-rule:nonzero;stroke:none" transform="matrix(1.33333 0 0 -1.33333 419.92 575.684)"/><path d="m0 0 28.892-70.265-151.661-46.793S-146.057-46.116 0 0" clip-path="url(#A)" style="fill:#fff2d9;fill-opacity:1;fill-rule:nonzero;stroke:none" transform="matrix(1.33333 0 0 -1.33333 426.76 541.912)"/><path d="m0 0 9.77-23.761 15.563-37.848 3.559-8.656 1.048 1.846-15.077-4.652-36.208-11.172-43.811-13.517-37.882-11.689-12.489-3.853c-1.94-.599-4.062-1.036-5.933-1.831-.083-.035-.175-.054-.261-.08l1.845-1.048c-.206.63-.349 1.285-.485 1.932a41 41 0 0 0-.402 2.287c-.096.631.018-.205-.051.376q-.047.385-.09.769a48 48 0 0 0-.149 1.648c-.488 6.727.253 12.603 2.003 18.975 2.643 9.621 7.453 18.453 13.638 26.467 9.323 12.077 21.365 21.901 34.13 30.131C-51.746-21.08-30.151-11.851-8.211-4.351A461 461 0 0 0 1.845-1.048c1.834.58 1.051 3.478-.797 2.893-23.579-7.457-46.88-16.654-68.147-29.391-13.902-8.326-27.137-18.3-37.656-30.715-7.075-8.349-12.908-17.827-16.305-28.272-2.181-6.706-3.342-13.826-3.091-20.886.111-3.121.339-6.532 1.346-9.522l.036-.117c.247-.752 1.039-1.297 1.845-1.048l15.077 4.652 36.208 11.172 43.811 13.517 37.882 11.688c6.135 1.893 12.333 3.648 18.423 5.684q.13.042.26.081c.704.217 1.365 1.075 1.048 1.845l-9.77 23.761L6.452-7.858 2.893.798C2.169 2.559-.735 1.787 0 0" clip-path="url(#B)" style="fill:#000;fill-opacity:1;fill-rule:nonzero;stroke:none" transform="matrix(1.33333 0 0 -1.33333 424.831 542.444)"/><path d="M0 0c0-20.449-10.389-37.027-23.205-37.027S-46.41-20.449-46.41 0s10.39 37.027 23.205 37.027C-10.389 37.027 0 20.449 0 0" clip-path="url(#C)" style="fill:#fff2d9;fill-opacity:1;fill-rule:nonzero;stroke:none" transform="matrix(1.33333 0 0 -1.33333 517.303 572.53)"/><path d="M0 0c-.025-7.023-1.19-14.181-4.057-20.632-2.214-4.985-5.475-9.886-10.243-12.744-4.044-2.424-8.955-2.869-13.262-.83-4.904 2.322-8.397 6.811-10.822 11.543-6.309 12.312-6.636 28.134-1.89 41.009 3.366 9.131 11.718 20.089 22.816 16.492 4.95-1.604 8.706-5.762 11.295-10.115 3.43-5.768 5.267-12.472 5.899-19.122A62 62 0 0 0 0 0c.007-1.93 3.007-1.934 3 0-.027 7.643-1.395 15.313-4.537 22.306-2.473 5.502-6.271 10.829-11.602 13.867-4.782 2.726-10.41 3.064-15.451.844-5.46-2.405-9.516-7.358-12.228-12.538-6.925-13.228-7.453-30.444-2.094-44.298 2.273-5.875 5.723-11.502 10.904-15.234 4.389-3.161 10.007-4.36 15.222-2.718 5.613 1.768 9.943 6.203 12.957 11.111 3.814 6.21 5.788 13.45 6.525 20.654C2.9-4.01 2.993-2.006 3 0 3.007 1.931.007 1.933 0 0" clip-path="url(#D)" style="fill:#000;fill-opacity:1;fill-rule:nonzero;stroke:none" transform="matrix(1.33333 0 0 -1.33333 515.303 572.53)"/><path d="M0 0c0-12.182-6.189-22.057-13.823-22.057S-27.646-12.182-27.646 0s6.189 22.057 13.823 22.057S0 12.182 0 0" clip-path="url(#E)" style="fill:#000;fill-opacity:1;fill-rule:nonzero;stroke:none" transform="matrix(1.33333 0 0 -1.33333 516.565 563.782)"/><path d="M0 0s85.304-1.16 23.478-88.812L-36-99.768S-54.783-49.71 0 0" clip-path="url(#F)" style="fill:#000;fill-opacity:1;fill-rule:nonzero;stroke:none" transform="matrix(1.33333 0 0 -1.33333 292.285 591.053)"/><path d="M0 0c2.548-8.125.81-15.904-3.882-17.376s-10.562 3.922-13.11 12.046c-2.549 8.125-.811 15.905 3.882 17.376C-8.418 13.518-2.548 8.125 0 0" clip-path="url(#G)" style="fill:#fff2d9;fill-opacity:1;fill-rule:nonzero;stroke:none" transform="matrix(1.33333 0 0 -1.33333 592.802 600.336)"/><path d="M0 0c1.29-4.233 2.259-10.647-1.029-14.303-2.815-3.131-6.821-.357-8.959 2.104-3.489 4.017-5.346 9.776-5.227 15.057.074 3.242 1.344 8.842 5.691 8.303 2.07-.256 3.843-1.755 5.189-3.243C-2.299 5.669-.924 2.868 0 0c.59-1.83 3.487-1.048 2.893.797C1.215 6.007-2.183 12.093-7.78 13.832c-5.43 1.686-9.254-2.955-10.12-7.856-1.139-6.443.797-13.691 4.688-18.915 2.778-3.73 7.826-7.609 12.588-4.868 2.528 1.454 3.874 4.365 4.394 7.127.72 3.825.249 7.78-.877 11.477C2.332 2.639-.565 1.854 0 0" clip-path="url(#H)" style="fill:#000;fill-opacity:1;fill-rule:nonzero;stroke:none" transform="matrix(1.33333 0 0 -1.33333 590.874 600.868)"/><path d="M0 0c7.667-11.548 8.477-24.499 1.807-28.927-6.669-4.428-18.291 1.343-25.958 12.891-7.668 11.548-8.477 24.499-1.808 28.927S-7.667 11.548 0 0" clip-path="url(#I)" style="fill:#fff2d9;fill-opacity:1;fill-rule:nonzero;stroke:none" transform="matrix(1.33333 0 0 -1.33333 546.66 989.23)"/><path d="M0 0c2.682-4.085 4.758-8.573 5.69-13.391.662-3.422.791-7.412-.861-10.592-3.322-6.394-11.131-4.166-16-1.062-7.679 4.897-13.505 13.467-15.71 22.249-1.434 5.714-1.47 15.328 6.2 16.364 3.57.482 7.198-1.099 10.148-2.955C-6.283 7.938-2.783 4.148 0 0c1.07-1.595 3.67-.095 2.59 1.514-4.754 7.088-12.526 14.848-21.657 15.119-3.578.107-6.931-1.394-9.063-4.296-2.421-3.297-2.842-7.756-2.399-11.706 1.151-10.271 7.298-20.267 15.42-26.546 5.57-4.308 14.824-8.167 20.679-2.147 3.218 3.309 3.88 8.327 3.416 12.733C8.35-9.28 5.909-3.54 2.59 1.514 1.535 3.121-1.064 1.62 0 0" clip-path="url(#J)" style="fill:#000;fill-opacity:1;fill-rule:nonzero;stroke:none" transform="matrix(1.33333 0 0 -1.33333 544.934 990.238)"/><path d="M0 0c7.667-11.548 8.477-24.499 1.807-28.927-6.669-4.428-18.291 1.343-25.958 12.891-7.668 11.548-8.477 24.499-1.808 28.927S-7.667 11.548 0 0" clip-path="url(#K)" style="fill:#fff2d9;fill-opacity:1;fill-rule:nonzero;stroke:none" transform="matrix(1.33333 0 0 -1.33333 993.43 911.679)"/><path d="M0 0c2.682-4.085 4.758-8.573 5.69-13.391.662-3.422.791-7.412-.861-10.592-3.322-6.394-11.131-4.166-16-1.062-7.679 4.897-13.505 13.467-15.71 22.249-1.434 5.714-1.47 15.328 6.2 16.364 3.57.482 7.198-1.099 10.148-2.955C-6.283 7.938-2.783 4.148 0 0c1.07-1.595 3.67-.095 2.59 1.514-4.754 7.088-12.526 14.848-21.657 15.119-3.578.107-6.931-1.394-9.063-4.296-2.421-3.297-2.842-7.756-2.399-11.706 1.151-10.271 7.298-20.267 15.42-26.546 5.57-4.308 14.824-8.167 20.679-2.147 3.218 3.309 3.88 8.327 3.416 12.733C8.35-9.28 5.909-3.54 2.59 1.514 1.535 3.121-1.064 1.62 0 0" clip-path="url(#L)" style="fill:#000;fill-opacity:1;fill-rule:nonzero;stroke:none" transform="matrix(1.33333 0 0 -1.33333 991.703 912.688)"/><path d="M0 0c11.522 5.787 20.301 16.477 24.108 28.761a46.6 46.6 0 0 1 1.964 10.797c.124 1.928-2.877 1.921-3 0C22.073 24 12.39 9.574-1.514 2.59-3.24 1.724-1.722-.865 0 0" clip-path="url(#M)" style="fill:#000;fill-opacity:1;fill-rule:nonzero;stroke:none" transform="matrix(1.33333 0 0 -1.33333 392.38 658.929)"/><path d="M0 0a94.5 94.5 0 0 1 23.837-1.772c1.92.103 1.932 3.104 0 3A91.3 91.3 0 0 0 .798 2.893C-1.087 3.275-1.894.384 0 0" clip-path="url(#N)" style="fill:#000;fill-opacity:1;fill-rule:nonzero;stroke:none" transform="matrix(1.33333 0 0 -1.33333 411.805 602.627)"/><path d="M0 0c-5.549 4.767-12.151 8.208-19.3 9.761-3.683.8-7.089.936-12.843-.751-10.461-3.069-20.113-9.76-25.34-19.328-4.871-8.915-5.598-19.564-4.51-29.664 3.684-34.193 26.815-63.869 55.004-83.567 11.316-7.906 24.444-14.727 38.208-13.677s27.4 12.819 25.929 26.544c6.942-8.448 15.276-16.18 25.53-19.978s22.714-2.999 30.986 4.152 10.425 21.221 2.98 29.231c9.293-3.201 19.829 3.116 24.236 11.901 4.408 8.784 3.989 19.197 2.344 28.887-3.667 21.603-12.901 42.032-25.177 60.181-6.484 9.586-14.04 18.781-23.968 24.728-9.927 5.948-22.62 8.219-33.223 3.583C50.252 27.366 43.005 14.775 46.523 3.75c-5.703 5.474-14.519 7.452-22.014 4.939S11.172-.719 9.923-8.525Z" clip-path="url(#O)" style="fill:#ff8db6;fill-opacity:1;fill-rule:nonzero;stroke:none" transform="matrix(1.33333 0 0 -1.33333 706.038 860.336)"/><path d="M0 0c-3.896 3.317-8.213 6.014-12.949 7.958-4.074 1.672-8.611 2.967-13.056 2.799-4.722-.177-9.39-1.717-13.687-3.597a45.8 45.8 0 0 1-11.719-7.4c-7.511-6.544-11.808-15.504-13.094-25.313-1.288-9.815.017-19.986 2.533-29.51 4.783-18.103 14.791-34.495 27.329-48.268 6.409-7.041 13.521-13.415 21.119-19.147 8.2-6.188 17.063-11.909 26.902-15.093 9.178-2.969 19.163-3.375 28.01.841 7.52 3.584 14.196 10.383 15.876 18.757.412 2.055.527 4.145.323 6.231l-2.56-1.061c9.119-11.059 20.995-21.148 35.825-22.512 6.695-.615 13.75.643 19.5 4.234a23.92 23.92 0 0 1 10.613 14.771c1.586 6.657.365 13.885-4.321 19.033l-1.459-2.507c6.625-2.197 13.674-.029 19.004 4.172 6.045 4.765 9.207 11.903 10.214 19.407 1.103 8.218-.136 16.6-1.871 24.644-1.768 8.2-4.326 16.223-7.52 23.977a168.4 168.4 0 0 1-11.307 22.467c-4.161 6.939-8.719 13.721-13.982 19.878-10.144 11.867-24.66 21.618-40.958 19.991-7.247-.723-14.033-3.783-18.894-9.285-4.401-4.981-7.243-11.649-6.754-18.375.118-1.631.417-3.24.899-4.802l2.507 1.46c-4.855 4.574-11.647 6.965-18.305 6.369-6.621-.592-12.52-4.063-16.498-9.352a23.05 23.05 0 0 1-4.304-9.953l2.507.661zc-1.457 1.252-3.589-.861-2.121-2.121l9.923-8.525c.767-.659 2.303-.543 2.507.662C11.522-2.82 16.588 3.604 23.502 6.063c7.123 2.533 15.408.739 20.9-4.435 1.051-.99 2.964-.022 2.507 1.46-1.849 5.986-.412 12.317 2.968 17.481 3.628 5.544 9.26 9.255 15.705 10.67 14.913 3.272 29.305-4.978 39.222-15.482 5.198-5.505 9.592-11.725 13.656-18.097 4.208-6.597 8-13.464 11.271-20.574 3.27-7.108 5.995-14.469 8.08-22.012 2.069-7.488 3.718-15.264 3.978-23.05.242-7.278-.882-15.058-5.323-21.05-3.661-4.941-9.658-8.715-15.937-8.655-1.563.015-3.064.298-4.546.79-1.499.497-2.41-1.464-1.46-2.507 7.739-8.503 3.893-22.714-5.06-28.689-10.819-7.22-25.026-4.745-35.469 1.836-6.512 4.103-11.973 9.66-16.846 15.569-.799.97-2.684.202-2.561-1.06.801-8.173-3.93-15.494-10.508-19.982-7.484-5.107-16.421-6.147-25.166-4.24-9.701 2.116-18.475 7.222-26.523 12.872a153 153 0 0 0-20.459 17.206c-12.489 12.544-22.878 27.517-28.76 44.298-2.94 8.387-4.828 17.237-5.126 26.134-.323 9.668 1.46 19.569 7.367 27.458 5.205 6.948 13.003 11.813 21.237 14.334 4.05 1.241 8.102 1.846 12.286.981 4.644-.962 9.079-2.761 13.127-5.225a45 45 0 0 0 5.817-4.215C-.659-3.366 1.473-1.254 0 0" clip-path="url(#P)" style="fill:#000;fill-opacity:1;fill-rule:nonzero;stroke:none" transform="matrix(1.33333 0 0 -1.33333 707.452 858.922)"/><path d="M0 0c15.549-15.753 26.16-36.082 30.451-57.782a110 110 0 0 0 2.044-18.668c.047-1.927 3.048-1.934 3 0-.562 22.75-8.026 45.238-21.104 63.858A115 115 0 0 1 2.121 2.121C.763 3.497-1.358 1.376 0 0" clip-path="url(#Q)" style="fill:#000;fill-opacity:1;fill-rule:nonzero;stroke:none" transform="matrix(1.33333 0 0 -1.33333 716.657 869.445)"/><path d="M0 0c4.465-2.976 7.956-7.135 10.991-11.511a119 119 0 0 0 8.227-13.801c4.997-9.798 8.64-20.274 10.856-31.046a121 121 0 0 0 2.322-18.411c.094-1.922 3.095-1.933 3 0-1.125 22.766-8.498 45.219-21.338 64.079C10.603-5.617 6.664-.841 1.514 2.59-.097 3.664-1.601 1.067 0 0" clip-path="url(#R)" style="fill:#000;fill-opacity:1;fill-rule:nonzero;stroke:none" transform="matrix(1.33333 0 0 -1.33333 763.046 854.966)"/></svg>