<svg xmlns="http://www.w3.org/2000/svg" width="1440" height="1440" viewBox="0 0 1440 1440"><defs><clipPath id="a" clipPathUnits="userSpaceOnUse"><path d="M-824.763 388.655h1080v-1080h-1080Z"/></clipPath><clipPath id="b" clipPathUnits="userSpaceOnUse"><path d="M-825.824 389.716h1080v-1080h-1080Z"/></clipPath><clipPath id="c" clipPathUnits="userSpaceOnUse"><path d="M-456.514 468.517h1080v-1080h-1080Z"/></clipPath><clipPath id="d" clipPathUnits="userSpaceOnUse"><path d="M-457.27 469.813h1080v-1080h-1080Z"/></clipPath><clipPath id="e" clipPathUnits="userSpaceOnUse"><path d="M-746.473 675.238h1080v-1080h-1080Z"/></clipPath><clipPath id="f" clipPathUnits="userSpaceOnUse"><path d="M-747.973 675.238h1080v-1080h-1080Z"/></clipPath><clipPath id="g" clipPathUnits="userSpaceOnUse"><path d="M-768.067 324.567h1080v-1080h-1080Z"/></clipPath><clipPath id="h" clipPathUnits="userSpaceOnUse"><path d="M-769.513 324.966h1080v-1080h-1080Z"/></clipPath><clipPath id="i" clipPathUnits="userSpaceOnUse"><path d="M-819.006 623.402h1080v-1080h-1080Z"/></clipPath><clipPath id="j" clipPathUnits="userSpaceOnUse"><path d="M-819.006 621.902h1080v-1080h-1080Z"/></clipPath><clipPath id="k" clipPathUnits="userSpaceOnUse"><path d="M-642.163 289.815h1080v-1080h-1080Z"/></clipPath><clipPath id="l" clipPathUnits="userSpaceOnUse"><path d="M-642.163 291.315h1080v-1080h-1080Z"/></clipPath><clipPath id="m" clipPathUnits="userSpaceOnUse"><path d="M-521.21 421.832h1080v-1080h-1080Z"/></clipPath><clipPath id="n" clipPathUnits="userSpaceOnUse"><path d="M-632.845 418.214h1080v-1080h-1080Z"/></clipPath><clipPath id="o" clipPathUnits="userSpaceOnUse"><path d="M-639.025 466.76h1080v-1080h-1080Z"/></clipPath><clipPath id="p" clipPathUnits="userSpaceOnUse"><path d="M-686.165 466.76h1080v-1080h-1080Z"/></clipPath><clipPath id="q" clipPathUnits="userSpaceOnUse"><path d="M-741.735 438.658h1080v-1080h-1080Z"/></clipPath><clipPath id="r" clipPathUnits="userSpaceOnUse"><path d="M-485.284 486.6h1080v-1080h-1080Z"/></clipPath><clipPath id="s" clipPathUnits="userSpaceOnUse"><path d="M-558.137 512.56h1080v-1080h-1080Z"/></clipPath><clipPath id="t" clipPathUnits="userSpaceOnUse"><path d="M-620.733 482.982h1080v-1080h-1080Z"/></clipPath><clipPath id="u" clipPathUnits="userSpaceOnUse"><path d="M-684.453 482.982h1080v-1080h-1080Z"/></clipPath><clipPath id="v" clipPathUnits="userSpaceOnUse"><path d="M-715.856 531.528h1080v-1080h-1080Z"/></clipPath><clipPath id="w" clipPathUnits="userSpaceOnUse"><path d="M-788.709 517.337h1080v-1080h-1080Z"/></clipPath><clipPath id="x" clipPathUnits="userSpaceOnUse"><path d="M-623.524 349.901h1080v-1080h-1080Z"/></clipPath><clipPath id="y" clipPathUnits="userSpaceOnUse"><path d="M-634.813 363.123h1080v-1080h-1080Z"/></clipPath><clipPath id="z" clipPathUnits="userSpaceOnUse"><path d="M-214.345 779.041h1080v-1080h-1080Z"/></clipPath><clipPath id="A" clipPathUnits="userSpaceOnUse"><path d="M-213.588 780.336h1080v-1080h-1080Z"/></clipPath><clipPath id="B" clipPathUnits="userSpaceOnUse"><path d="m-57.23 25.08-11.251-20c-6.436-11.443-3.107-25.928 7.718-33.356 52.785-36.22 209.232-122.103 361.033 5.35 9.203 7.727 11.8 20.81 6.162 31.42l-8.811 16.587z"/></clipPath><clipPath id="C" clipPathUnits="userSpaceOnUse"><path d="m-56.473 23.785-11.25-20c-6.437-11.444-3.108-25.929 7.717-33.357C-7.22-65.79 149.226-151.675 301.027-24.22c9.203 7.726 11.8 20.81 6.162 31.42l-8.81 16.586z"/></clipPath><clipPath id="D" clipPathUnits="userSpaceOnUse"><path d="m-128.47 45.326-11.252-20.001c-6.436-11.443-3.107-25.928 7.718-33.356 52.785-36.22 209.232-122.103 361.033 5.35 9.203 7.727 11.8 20.81 6.162 31.42l-8.81 16.587z"/></clipPath><clipPath id="E" clipPathUnits="userSpaceOnUse"><path d="m-127.714 44.03-11.25-20c-6.437-11.444-3.108-25.929 7.717-33.357C-78.462-45.546 77.985-131.43 229.786-3.976c9.203 7.726 11.8 20.81 6.162 31.42l-8.81 16.586z"/></clipPath><clipPath id="F" clipPathUnits="userSpaceOnUse"><path d="m-194.353 54.73-11.25-20.002c-6.437-11.443-3.108-25.928 7.717-33.356C-145.1-34.847 11.346-120.73 163.147 6.723c9.203 7.726 11.8 20.81 6.162 31.42L160.5 54.73z"/></clipPath><clipPath id="G" clipPathUnits="userSpaceOnUse"><path d="m-193.057 53.972-11.251-20c-6.436-11.444-3.107-25.929 7.718-33.357 52.785-36.219 209.232-122.103 361.033 5.351 9.203 7.726 11.8 20.81 6.162 31.42l-8.811 16.586z"/></clipPath><clipPath id="H" clipPathUnits="userSpaceOnUse"><path d="m-266.95 44.825-11.251-20.001c-6.436-11.443-3.107-25.928 7.718-33.356 52.785-36.22 209.232-122.103 361.033 5.35 9.203 7.727 11.8 20.81 6.162 31.42L87.9 44.826z"/></clipPath><clipPath id="I" clipPathUnits="userSpaceOnUse"><path d="m-265.504 44.426-11.251-20.001c-6.436-11.443-3.107-25.928 7.718-33.356C-216.252-45.15-59.805-131.034 91.996-3.58c9.203 7.726 11.8 20.809 6.162 31.42l-8.811 16.586z"/></clipPath><clipPath id="J" clipPathUnits="userSpaceOnUse"><path d="M-326.869 14.745-338.12-5.256c-6.436-11.443-3.107-25.928 7.718-33.356 52.785-36.22 209.232-122.103 361.033 5.35 9.203 7.727 11.8 20.81 6.162 31.42l-8.811 16.587z"/></clipPath><clipPath id="K" clipPathUnits="userSpaceOnUse"><path d="m-325.574 13.988-11.25-20.001c-6.437-11.443-3.108-25.928 7.717-33.356 52.785-36.22 209.232-122.103 361.033 5.35 9.203 7.727 11.8 20.81 6.162 31.42l-8.81 16.587z"/></clipPath><clipPath id="L" clipPathUnits="userSpaceOnUse"><path d="M-213.588 780.336h1080v-1080h-1080Z"/></clipPath><clipPath id="M" clipPathUnits="userSpaceOnUse"><path d="M-572.731 725.68h1080v-1080h-1080Z"/></clipPath><clipPath id="N" clipPathUnits="userSpaceOnUse"><path d="M-571.67 724.62h1080v-1080h-1080Z"/></clipPath><clipPath id="O" clipPathUnits="userSpaceOnUse"><path d="M-339.078 571.28h1080v-1080h-1080Z"/></clipPath><clipPath id="P" clipPathUnits="userSpaceOnUse"><path d="M-337.783 572.036h1080v-1080h-1080Z"/></clipPath><clipPath id="Q" clipPathUnits="userSpaceOnUse"><path d="M-512.06 692.574h1080v-1080h-1080Z"/></clipPath><clipPath id="R" clipPathUnits="userSpaceOnUse"><path d="M-510.766 691.817h1080v-1080h-1080Z"/></clipPath><clipPath id="S" clipPathUnits="userSpaceOnUse"><path d="M-296.419 704.287h1080v-1080h-1080Z"/></clipPath><clipPath id="T" clipPathUnits="userSpaceOnUse"><path d="M-296.02 702.84h1080v-1080h-1080Z"/></clipPath><clipPath id="U" clipPathUnits="userSpaceOnUse"><path d="M-394.92 485.857h1080v-1080h-1080Z"/></clipPath><clipPath id="V" clipPathUnits="userSpaceOnUse"><path d="M-393.86 484.797h1080v-1080h-1080Z"/></clipPath><clipPath id="W" clipPathUnits="userSpaceOnUse"><path d="M-409.412 699.972h1080v-1080h-1080Z"/></clipPath><clipPath id="X" clipPathUnits="userSpaceOnUse"><path d="M-408.352 698.911h1080v-1080h-1080Z"/></clipPath><clipPath id="Y" clipPathUnits="userSpaceOnUse"><path d="M-434.697 594h1080V-486h-1080Z"/></clipPath><clipPath id="Z" clipPathUnits="userSpaceOnUse"><path d="M-433.402 593.243h1080v-1080h-1080Z"/></clipPath><clipPath id="aa" clipPathUnits="userSpaceOnUse"><path d="M-309.62 625.576h1080v-1080h-1080Z"/></clipPath><clipPath id="ab" clipPathUnits="userSpaceOnUse"><path d="M-311.12 625.576h1080v-1080h-1080Z"/></clipPath><clipPath id="ac" clipPathUnits="userSpaceOnUse"><path d="M-71.612-1.756c-.226-4.839.953-9.415 4.128-13.188 7.366-8.754 16.966-3.617 24.144 2.143 3.813 3.06 7.593 6.353 12.18 8.043 4.676 1.722 9.704 1.618 14.736 1.514 2.057-.043 4.116-.085 6.15-.002C-3.26-2.963 4.687-.29 7.114 6.297c1.21 3.286.774 6.985-.368 10.297-2.404 6.98-7.796 12.674-14.13 16.471-6.281 3.765-13.136 5.466-19.961 5.465-21.778-.002-43.195-17.343-44.267-40.286"/></clipPath><clipPath id="ad" clipPathUnits="userSpaceOnUse"><path d="M-301.89 603.94h1080v-1080h-1080Z"/></clipPath><clipPath id="ae" clipPathUnits="userSpaceOnUse"><path d="M-484.644 625.576h1080v-1080h-1080Z"/></clipPath><clipPath id="af" clipPathUnits="userSpaceOnUse"><path d="M-486.144 625.576h1080v-1080h-1080Z"/></clipPath><clipPath id="ag" clipPathUnits="userSpaceOnUse"><path d="M7.383 33.065c-6.333-3.797-11.724-9.49-14.13-16.47-1.14-3.313-1.578-7.012-.367-10.298C-4.688-.29 3.26-2.963 10.273-3.246c2.035-.083 4.092-.04 6.15.002 5.033.104 10.06.208 14.736-1.514 4.59-1.69 8.368-4.983 12.181-8.043 7.177-5.76 16.778-10.897 24.143-2.143 3.176 3.773 4.355 8.35 4.13 13.188-1.073 22.943-22.49 40.284-44.269 40.286-6.824.001-13.679-1.7-19.96-5.465"/></clipPath><clipPath id="ah" clipPathUnits="userSpaceOnUse"><path d="M-489.782 605.453h1080v-1080h-1080Z"/></clipPath><clipPath id="ai" clipPathUnits="userSpaceOnUse"><path d="M-347.944 659.174h1080v-1080h-1080Z"/></clipPath><clipPath id="aj" clipPathUnits="userSpaceOnUse"><path d="M-349.39 659.573h1080v-1080h-1080Z"/></clipPath><clipPath id="ak" clipPathUnits="userSpaceOnUse"><path d="M-366.734 674.47h1080v-1080h-1080Z"/></clipPath><clipPath id="al" clipPathUnits="userSpaceOnUse"><path d="M-438.862 674.083h1080v-1080h-1080Z"/></clipPath><clipPath id="am" clipPathUnits="userSpaceOnUse"><path d="M-360.04 664.837h1080v-1080h-1080Z"/></clipPath><clipPath id="an" clipPathUnits="userSpaceOnUse"><path d="M-369.536 705.606h1080v-1080h-1080Z"/></clipPath><clipPath id="ao" clipPathUnits="userSpaceOnUse"><path d="M-234.165 727.162h1080v-1080h-1080Z"/></clipPath><clipPath id="ap" clipPathUnits="userSpaceOnUse"><path d="M-235.226 726.102h1080v-1080h-1080Z"/></clipPath><clipPath id="aq" clipPathUnits="userSpaceOnUse"><path d="M-364.93 512.804h1080v-1080h-1080Z"/></clipPath><clipPath id="ar" clipPathUnits="userSpaceOnUse"><path d="M-364.173 514.1h1080v-1080h-1080Z"/></clipPath></defs><path d="M0 0h1080v1080H0Z" style="fill:#fff;fill-opacity:1;fill-rule:nonzero;stroke:none" transform="matrix(1.33333 0 0 -1.33333 0 1440)"/><path d="M0 0c14.422 11.787 18.695 33.543 10.088 52.357-6.453 14.104-17.9 23.38-26.26 30.154-5.682 4.604-22.976 18.618-41.482 12.548-6.992-2.293-12.603-7.029-16.328-13.53-3.784 7.69-8.049 15.36-13.488 22.697-15.176 20.468-37.404 34.828-64.281 41.526-24.621 6.137-51.509 5.145-75.711-2.792a131 131 0 0 1-10.531-3.964c-56.369-24.072-76.345-74.56-93.971-119.104-9.487-23.979-18.449-46.628-32.213-65.609-4.993-6.886-9.987-10.815-16.426-14.921-2.06-1.315-4.242-2.629-6.552-4.02-6.444-3.88-13.748-8.278-21.76-14.684-21.474-17.167-36.315-40.194-41.788-64.842-5.974-26.898-.879-53.679 14.734-77.446 6.747-10.273 14.718-18.702 22.427-26.855 6.861-7.256 13.342-14.11 18.098-21.436 4.277-6.588 7.68-14.361 11.284-22.591 4.581-10.464 9.318-21.284 16.572-31.612 12.964-18.456 32.457-32.568 56.375-40.811 20.325-7.005 43.463-9.747 66.914-7.93 17.134 1.327 34.251 4.766 50.877 10.218 36.555 11.99 69.129 32.96 94.572 60.81 2.325-8.708 7.081-16.333 14.022-22.066 11.252-9.295 26.56-12.028 40.946-7.31 7.69 2.522 14.662 6.957 20.723 13.18 7.376 7.575 10.436 16.32 12.895 23.347 1.138 3.249 2.313 6.609 3.435 8.166 1 1.388 3.448 3.378 5.815 5.304 1.708 1.389 3.643 2.963 5.583 4.727 10.829 9.847 16.229 21.872 15.207 33.862-1.187 13.93-11.062 25.967-24.77 30.967 9.2 6.8 18.161 14.275 26.213 23.286 21.559 24.127 32.629 57.947 30.37 92.79C49.329-60.74 33.986-28.631 9.491-7.49 6.391-4.814 3.212-2.345 0 0" clip-path="url(#a)" style="fill:#fff2d9;fill-opacity:1;fill-rule:nonzero;stroke:none" transform="matrix(1.33333 0 0 -1.33333 1099.684 518.207)"/><path d="M0 0c8.694 7.251 13.718 17.855 14.753 29.052 1.118 12.098-2.646 24.062-9.488 33.987-6.093 8.839-14.23 15.845-22.558 22.498-7.599 6.07-16.278 11.437-26.021 13.057-13.351 2.219-26.142-3.563-33.024-15.247h2.591c-7.813 15.799-17.667 30.266-31.361 41.54-12.638 10.404-27.502 17.834-43.228 22.288-35.696 10.11-75.044 5.054-107.056-13.646-25.798-15.071-44.632-38.433-58.306-64.649-14.882-28.533-23.9-59.641-38.282-88.391-4.107-8.21-8.688-16.208-14.039-23.675-5.139-7.173-11.718-12.253-19.178-16.828-7.729-4.741-15.527-9.317-22.761-14.811-7.058-5.361-13.607-11.359-19.44-18.038-22.764-26.064-33.853-61.663-25.405-95.746 4.551-18.358 14.385-34.51 26.769-48.628 6.352-7.241 13.233-13.997 19.591-21.233 6.415-7.3 11.434-15.162 15.55-23.956 7.903-16.888 14.392-34.284 26.597-48.707 10.589-12.514 24.198-22.305 39.051-29.143 35.188-16.2 75.909-16.634 113.113-7.839 34.95 8.262 67.842 25.016 95.013 48.506a220 220 0 0 1 18.269 17.772l-2.507.662c4.111-14.872 15.374-26.9 30.358-31.106 15.445-4.336 31.928.352 43.963 10.616 6.215 5.301 10.812 11.835 14.015 19.327 1.351 3.16 2.463 6.406 3.61 9.643.652 1.839 1.26 3.746 2.2 5.462.959 1.752 2.578 3.019 4.086 4.284 6.552 5.5 12.996 10.79 17.501 18.199 3.746 6.16 6.002 13.264 5.959 20.506-.095 16.087-11.304 29.575-25.99 35.091l.358-2.741c13.785 10.223 26.639 21.759 36.264 36.086 9.059 13.487 15.274 28.861 18.543 44.757 6.517 31.684 1.603 65.706-14.283 93.951C26.366-21.345 14.231-8.308-.304 2.356-1.862 3.499-3.36.897-1.818-.235c12.686-9.306 23.521-20.499 31.817-33.908 7.992-12.917 13.537-27.261 16.583-42.131 6.397-31.231 1.626-64.925-14.697-92.464-9.696-16.358-23.529-29.319-38.696-40.566-1.068-.791-.905-2.267.358-2.741C5.936-216.699 15.859-227.75 17.18-241.2c1.553-15.805-8.448-28.224-19.99-37.63-2.321-1.891-5.068-3.758-6.682-6.34-1.747-2.793-2.633-6.234-3.72-9.314-2.347-6.651-5.121-13.209-9.638-18.71-9.646-11.748-24.78-18.931-40.058-17.55-17.146 1.549-31.023 13.969-35.556 30.366-.291 1.053-1.734 1.505-2.507.662-23.339-25.445-52.597-45.137-84.924-57.266-36.173-13.572-76.783-18.511-114.548-8.863-16.64 4.251-32.646 11.415-46.245 21.996-13.66 10.63-23.688 24.296-31.192 39.811-4.093 8.462-7.519 17.228-11.64 25.676-3.938 8.075-8.879 15.269-14.802 22.014-12.509 14.245-26.479 26.986-35.78 43.753-8.879 16.006-13.378 34.167-12.47 52.479.846 17.076 6.261 33.691 15.039 48.316 9.09 15.142 21.618 27.951 36.085 38.016 7.093 4.934 14.687 9.049 21.9 13.789 6.608 4.343 12.065 9.546 16.629 16.012 19.235 27.247 28.69 59.92 41.83 90.235 11.171 25.772 25.174 50.789 46.424 69.637 26.428 23.442 61.782 35.186 96.972 33.174 33.606-1.921 66.842-16.648 87.4-43.909 5.472-7.256 9.934-15.189 13.955-23.321.511-1.033 2.05-.919 2.591 0 6.083 10.328 17.361 15.749 29.259 13.927 9.081-1.391 17.303-6.226 24.427-11.831 16.119-12.682 31.88-28.379 32.009-50.337.071-12.03-4.763-23.709-14.069-31.471C-3.606.883-1.473-1.229 0 0" clip-path="url(#b)" style="fill:#000;fill-opacity:1;fill-rule:nonzero;stroke:none" transform="matrix(1.33333 0 0 -1.33333 1101.098 519.621)"/><path d="M0 0c7.803 4.977 15.057 10.576 22.049 20.219C64.81 79.188 64.21 165.852 139.607 198.049c42.612 18.196 98.177 9.157 125.771-28.064 15.778-21.281 21.385-49.082 38.634-69.188 16.691-19.454 42.025-29.12 61.431-45.869 42.632-36.795 47.341-109.435 9.817-151.427-21.223-23.751-51.986-36.88-74.931-58.973-15.664-15.082-27.203-33.872-41.422-50.324-33.901-39.224-83.642-64.347-135.332-68.351-39.006-3.022-82.268 7.987-104.755 40.003C7.27-217.7 2.328-197.421-8.614-180.566c-11.479 17.681-29.012 30.763-40.586 48.382C-75.316-92.425-62.185-45.933-26.52-17.42-16.866-9.703-8.135-5.189 0 0" clip-path="url(#c)" style="fill:#44cdf2;fill-opacity:1;fill-rule:nonzero;stroke:none" transform="matrix(1.33333 0 0 -1.33333 608.685 624.69)"/><path d="M0 0c4.898 3.14 9.613 6.569 13.818 10.604 4.398 4.221 8.098 9.041 11.52 14.07 5.613 8.25 10.462 16.997 14.828 25.963 8.686 17.834 15.492 36.493 22.957 54.851 7.321 18.005 15.35 35.946 26.628 51.87 11.62 16.406 26.83 29.79 45.007 38.496 38.549 18.465 90.31 14.542 121.232-16.801 17.661-17.901 23.956-42.838 36.379-64.059 6.311-10.78 14.449-19.83 24.336-27.445 9.793-7.543 20.532-13.705 30.837-20.497 9.787-6.449 19.056-13.571 26.621-22.589 6.633-7.907 11.964-16.946 15.864-26.494 7.872-19.276 10.281-40.837 6.918-61.383-3.459-21.129-13.029-40.638-28.268-55.74-18.15-17.988-41.225-29.756-60.931-45.816-10.585-8.626-19.562-18.731-27.931-29.482-8.31-10.674-16.154-21.735-25.21-31.805-16.835-18.721-37.322-34.033-59.888-45.17-41.955-20.709-95.648-29.247-139.555-9.362-10.102 4.575-19.506 10.732-27.336 18.618-9.056 9.122-15.074 20.291-20.293 31.923-5.366 11.956-10.189 24.249-17.829 34.997-7.58 10.664-17.083 19.709-25.84 29.368-8.552 9.434-16.155 19.685-20.784 31.641-4.127 10.658-5.891 22.103-5.053 33.507 1.69 22.996 13.849 44.047 30.766 59.31C-21.73-12.874-10.708-6.797 0 0c1.626 1.032.122 3.629-1.514 2.59-11.029-7-22.35-13.297-32.082-22.136-8.705-7.907-16.171-17.277-21.637-27.704-10.51-20.049-13.031-43.635-5.551-65.146 4.121-11.853 10.959-22.305 19.119-31.761 8.871-10.281 18.964-19.51 27.149-30.381 15.917-21.14 20.375-48.799 38.816-68.304 15.722-16.629 37.73-25.961 59.994-29.785 23.862-4.099 48.463-2.174 71.851 3.77 24.501 6.226 47.852 17.093 68.41 31.8 10.282 7.355 19.894 15.652 28.603 24.818 9.382 9.875 17.439 20.853 25.693 31.659 8.494 11.121 17.385 21.91 28.06 31.024 10.096 8.62 21.225 15.908 32.168 23.385 19.802 13.528 39.074 28.254 50.289 50.008 9.639 18.698 13.4 40.226 11.596 61.128-1.804 20.9-9.085 41.456-21.908 58.158-14.893 19.398-36.837 29.759-56.317 43.666-10.76 7.682-19.921 16.744-26.807 28.089-6.7 11.037-11.495 23.07-17.041 34.694-5.274 11.056-11.365 21.776-19.884 30.68-7.386 7.72-16.239 14.011-25.831 18.693-19.691 9.613-42.342 12.782-64.013 10.041-21.402-2.707-41.817-11.303-58.62-24.855-15.381-12.406-26.918-28.726-35.994-46.137-9.317-17.873-16.32-36.827-23.802-55.507-7.575-18.909-15.683-37.788-26.999-54.811-3.275-4.927-6.78-9.688-10.967-13.887C8.478 9.474 3.604 5.872-1.514 2.59-3.134 1.552-1.632-1.046 0 0" clip-path="url(#d)" style="fill:#000;fill-opacity:1;fill-rule:nonzero;stroke:none" transform="matrix(1.33333 0 0 -1.33333 609.694 626.417)"/><path d="M0 0c2.843 22.267 24.975 42.837 43.674 51.051 6.548 2.876 13.814 4.874 20.827 3.475s13.562-6.98 14.17-14.106c.552-6.483-3.697-12.414-8.511-16.792s-10.463-7.966-14.266-13.246c-6.378-8.854-6.754-21.354-14.366-29.171C23.381-37.424-3.321-26.01 0 0" clip-path="url(#e)" style="fill:#44cdf2;fill-opacity:1;fill-rule:nonzero;stroke:none" transform="matrix(1.33333 0 0 -1.33333 995.297 900.318)"/><path d="M0 0c1.071 8.095 4.743 15.661 9.406 22.278 4.878 6.921 11.029 13.026 17.785 18.114 6.565 4.945 13.923 9.261 21.839 11.616 8.38 2.493 18.858 2.186 24.36-5.688 2.444-3.497 2.902-7.631 1.487-11.641-1.479-4.189-4.625-7.649-7.897-10.545-3.425-3.033-7.181-5.691-10.418-8.937-3.049-3.058-5.333-6.605-7.037-10.562-3.196-7.422-4.674-16.2-10.43-22.229-4.499-4.713-10.553-8.284-17.145-8.814-5.454-.438-11.004 1.168-15.121 4.84C2.251-17.487-.032-11.557-.26-5.504-.329-3.664-.224-1.826 0 0c.235 1.912-2.767 1.895-3 0-.857-6.978.294-14.432 4.555-20.186a22.84 22.84 0 0 1 15.463-9.09c6.706-.875 13.513 1.222 18.988 5.089 3.431 2.423 6.464 5.396 8.644 9.005 2.248 3.722 3.664 7.886 5.095 11.97 1.48 4.226 2.989 8.494 5.518 12.228 2.712 4.004 6.619 7.024 10.328 10.047 6.988 5.697 15.125 13.699 12.712 23.674-2.184 9.028-11.8 13.879-20.481 13.742-9.463-.15-18.705-4.601-26.545-9.606-7.55-4.82-14.463-10.771-20.24-17.622C5.345 22.502.587 14.749-1.776 6.185-2.336 4.151-2.724 2.09-3 0c-.107-.81.766-1.492 1.5-1.5C-.602-1.509-.106-.8 0 0" clip-path="url(#f)" style="fill:#000;fill-opacity:1;fill-rule:nonzero;stroke:none" transform="matrix(1.33333 0 0 -1.33333 997.297 900.318)"/><path d="M0 0c2.044 10.921 10.574 15.27 28.719.567 7.989-6.473 16.193-13.336 20.47-22.686s3.356-21.92-4.85-28.113c-8.849-6.678-22.315-3.028-29.967 4.993C4.063-34.434-2.385-12.743 0 0" clip-path="url(#g)" style="fill:#44cdf2;fill-opacity:1;fill-rule:nonzero;stroke:none" transform="matrix(1.33333 0 0 -1.33333 1024.09 432.756)"/><path d="M0 0c.598 3.114 1.814 6.497 4.689 8.058 3.329 1.808 7.696.374 10.922-1.175C21.899 3.864 27.356-.835 32.57-5.396c5.242-4.586 10.198-9.685 13.346-15.971 4.881-9.746 3.937-25.226-7.918-29.434-5.556-1.972-11.799-.876-16.94 1.774-5.242 2.702-9.111 7.012-12.162 11.984-3.186 5.189-5.514 10.887-7.131 16.748C.266-14.862-.682-9.176-.395-3.525-.334-2.341-.212-1.166 0 0c.343 1.888-2.548 2.697-2.893.798-1.064-5.866-.465-11.94.754-17.734 1.369-6.507 3.657-12.885 6.798-18.749 2.972-5.548 6.825-10.775 12.116-14.303 5.443-3.628 12.239-5.562 18.761-4.527 6.294 1 11.598 5.207 14.152 11.022 2.583 5.881 2.637 12.724.77 18.821-2.149 7.022-6.901 12.996-12.103 18.037-2.778 2.692-5.746 5.179-8.742 7.622-3.048 2.484-6.155 4.906-9.548 6.907-4.231 2.496-9.527 4.884-14.549 3.665-3.853-.936-6.332-4.125-7.605-7.715A21 21 0 0 1-2.893.798C-3.255-1.089-.365-1.897 0 0" clip-path="url(#h)" style="fill:#000;fill-opacity:1;fill-rule:nonzero;stroke:none" transform="matrix(1.33333 0 0 -1.33333 1026.018 433.288)"/><path d="M0 0h-348.829c-19.256 0-34.866 15.61-34.866 34.867s15.61 34.866 34.866 34.866H0c19.256 0 34.867-15.61 34.867-34.866C34.867 15.61 19.256 0 0 0" clip-path="url(#i)" style="fill:#ff8db6;fill-opacity:1;fill-rule:nonzero;stroke:none" transform="matrix(1.33333 0 0 -1.33333 1092.008 831.203)"/><path d="M0 0h-338.466c-5.5 0-11.437-.458-16.852.627-13.126 2.63-23.628 13.118-26.251 26.251-2.622 13.134 3.162 26.969 14.345 34.334 5.775 3.803 12.375 5.521 19.245 5.521h331.756c5.291 0 10.582.013 15.874 0 9.162-.022 17.922-3.555 24.326-10.162 9.351-9.646 12.031-24.498 6.522-36.78C25.121 7.801 13.09.108 0 0c-1.93-.016-1.934-3.016 0-3 13.233.109 25.668 7.351 31.985 19.051 6.272 11.614 5.723 26.181-1.55 37.225C23.7 63.503 12.205 69.652-.017 69.733c-1.229.008-2.459 0-3.689 0h-326.15c-6.071 0-12.143.006-18.214 0-7.153-.006-14.138-1.771-20.207-5.633-10.935-6.957-17.528-19.524-16.875-32.491.662-13.14 8.59-25.272 20.482-30.98C-359.313-1.943-353.581-3-347.676-3H0c1.93 0 1.934 3 0 3" clip-path="url(#j)" style="fill:#000;fill-opacity:1;fill-rule:nonzero;stroke:none" transform="matrix(1.33333 0 0 -1.33333 1092.008 829.203)"/><path d="M0 0c36.295-4.186 70.167-25.171 69.207-63.773-.417-16.742-12.73-33.309-29.293-35.79-10.447-1.565-20.922 2.232-31.481 2.575-27.44.89-62.685-27.055-87.642-6.773-11.416 9.277-16.244 25.304-13.688 39.79C-85.838-23.969-38.165 4.402 0 0" clip-path="url(#k)" style="fill:#fff2d9;fill-opacity:1;fill-rule:nonzero;stroke:none" transform="matrix(1.33333 0 0 -1.33333 856.218 386.42)"/><path d="M0 0c13.7-1.6 27.363-5.592 39.229-12.734 10.982-6.61 20.339-16.213 24.974-28.32 2.46-6.425 3.576-13.261 3.522-20.131-.059-7.378-2.272-14.544-6.33-20.707-3.931-5.971-9.661-10.97-16.454-13.369-8.751-3.091-17.932-1.115-26.813.245-4.225.646-8.492 1.186-12.775 1.012-3.294-.134-6.577-.608-9.806-1.257-7.075-1.423-13.948-3.7-20.807-5.908-6.899-2.22-13.828-4.458-20.956-5.833-6.549-1.263-13.427-1.762-19.961-.145-14.784 3.661-24.19 17.821-25.66 32.446-1.393 13.858 4.098 27.657 12.168 38.699 8.096 11.079 19.193 19.885 31.343 26.144C-36.323-3.675-22.886.19-9.342.438A72 72 0 0 0 0 0c1.915-.216 1.9 2.785 0 3-13.791 1.558-27.934-1.024-40.76-6.141-13.361-5.329-25.747-13.448-35.515-24.055-9.448-10.259-16.591-23.143-18.405-37.108-2.025-15.595 4.167-32.667 17.672-41.404 12.534-8.109 27.894-5.64 41.429-1.788 7.324 2.085 14.503 4.639 21.81 6.782 6.709 1.968 13.636 3.708 20.67 3.746 9.79.053 19.284-3.288 29.094-2.947 7.942.276 15.293 3.35 21.221 8.617 5.7 5.064 9.851 11.881 11.962 19.191 2.086 7.224 1.905 14.992.569 22.34-2.45 13.476-10.107 25.319-20.723 33.843C37.95-7.032 24.408-1.552 10.579 1.312A122 122 0 0 1 0 3c-1.914.224-1.898-2.778 0-3" clip-path="url(#l)" style="fill:#000;fill-opacity:1;fill-rule:nonzero;stroke:none" transform="matrix(1.33333 0 0 -1.33333 856.218 388.42)"/><path d="M25.852-49.241q5.764 0 10.78.738 5.028.727 7.208 1.5l2.11.773v20.098q-5.697-2.601-15.598-2.601v1.828q9.128.702 13.136 3.656 4.008 2.943 4.008 8.918 0 7.171-5.836 11.11Q35.824.704 23.672.703c-4.635 0-8.73-.27-12.293-.809-3.557-.539-5.941-1.066-7.16-1.582L2.32-2.53v-17.496q.633.28 1.899.773 1.264.492 5.648 1.266 4.395.773 9.457.773V-18.9q-8.578-.631-12.937-3.645-4.349-3.022-4.348-10.535-.002-7.523 5.965-11.836 5.975-4.324 17.848-4.324M112.902 0h-25.02l-1.113-13.348h-1.477L84.237.001H59.57L52.69-48.55h21.422L75.94-25.5h1.477l1.688-21.856h14.19l1.9 21.856h1.546L98.5-48.55h21.14Zm12.925-48.55h39.34v20.448h-15.176v2.813h15.176v4.418h-15.176v2.812H165.8V.001h-39.973Zm47.139 0h39.34v20.448H197.13v2.813h15.176v4.418H197.13v2.812h15.809V.001h-39.973zm47.141 20.448V-48.55h43.278v20.45h-8.578V0h-26.274v-28.1Zm0 0" aria-label="SWEET" style="fill:#45db82;fill-opacity:1;fill-rule:nonzero;stroke:none" transform="translate(684.27 622.346)scale(1.33333)"/><path d="M0 0q-5.971-4.321-5.971-11.838 0-7.519 4.355-10.538 4.355-3.021 12.927-3.653v-1.687q-5.058 0-9.449.774-4.392.77-5.655 1.264-1.266.49-1.897.773v-17.493l1.897-.843q1.826-.775 7.166-1.581 5.338-.807 12.294-.808 12.153 0 17.985 3.934 5.83 3.934 5.831 11.1 0 5.972-4.004 8.922-4.005 2.95-13.138 3.653v1.827q9.906-.001 15.597-2.599V1.3l-2.108.772q-2.18.773-7.201 1.511-5.024.737-10.784.737Q5.97 4.32 0 0Z" clip-path="url(#m)" style="fill:none;stroke:#000;stroke-width:3;stroke-linecap:butt;stroke-linejoin:miter;stroke-miterlimit:10;stroke-dasharray:none;stroke-opacity:1" transform="matrix(1.33333 0 0 -1.33333 694.948 562.443)"/><path d="M0 0h-21.146l-1.757-23.044h-1.546l-1.897 21.85h-14.191l-1.686-21.85h-1.475L-45.525 0h-21.428l6.886-48.546h24.659l1.054 13.349h1.475l1.124-13.349h25.01z" clip-path="url(#n)" style="fill:none;stroke:#000;stroke-width:3;stroke-linecap:butt;stroke-linejoin:miter;stroke-miterlimit:10;stroke-dasharray:none;stroke-opacity:1" transform="matrix(1.33333 0 0 -1.33333 843.793 557.619)"/><path d="M0 0h39.975v18.056H24.168v2.809h15.175v4.426H24.168v2.811h15.175v20.444H0Z" clip-path="url(#o)" style="fill:none;stroke:#000;stroke-width:3;stroke-linecap:butt;stroke-linejoin:miter;stroke-miterlimit:10;stroke-dasharray:none;stroke-opacity:1" transform="matrix(1.33333 0 0 -1.33333 852.034 622.346)"/><path d="M0 0h39.975v18.056H24.168v2.809h15.175v4.426H24.168v2.811h15.175v20.444H0Z" clip-path="url(#p)" style="fill:none;stroke:#000;stroke-width:3;stroke-linecap:butt;stroke-linejoin:miter;stroke-miterlimit:10;stroke-dasharray:none;stroke-opacity:1" transform="matrix(1.33333 0 0 -1.33333 914.887 622.346)"/><path d="M0 0v-28.102h26.275V0h8.571v20.444H-8.431V0Z" clip-path="url(#q)" style="fill:none;stroke:#000;stroke-width:3;stroke-linecap:butt;stroke-linejoin:miter;stroke-miterlimit:10;stroke-dasharray:none;stroke-opacity:1" transform="matrix(1.33333 0 0 -1.33333 988.98 584.878)"/><path d="M25.852-49.243q5.764 0 10.78.738 5.028.728 7.208 1.5l2.11.774v20.097q-5.698-2.601-15.598-2.601v1.828q9.128.703 13.136 3.656 4.008 2.943 4.008 8.918 0 7.171-5.836 11.11Q35.823.703 23.672.701q-6.95 0-12.293-.808-5.334-.81-7.16-1.582L2.32-2.532v-17.496q.633.28 1.899.773 1.263.492 5.648 1.266 4.395.773 9.457.773v-1.687q-8.578-.632-12.937-3.645-4.349-3.021-4.348-10.535-.002-7.522 5.965-11.836 5.975-4.324 17.848-4.324m55.01.691h23.11v26.989q0 11.38-5.801 16.828Q92.38.704 79.737.702H77.91Q65.333.704 59.534-4.77q-5.79-5.483-5.789-16.793v-26.989h23.04v29.578q0 .914.562 1.442t1.441.527 1.477-.562.597-1.407zm86.836 0V0h-24.234v-17.566L140.37-9.41h-1.828l-3.234-8.156V-.001h-24.164v-48.55h24.164l3.234 9.35h1.828l3.094-9.35zm63.72 0V0h-24.233v-17.566l-3.094 8.156h-1.828l-3.235-8.156V-.001h-24.164v-48.55h24.164l3.235 9.35h1.828l3.094-9.35zm7.167 0h39.34v20.45h-15.176v2.812h15.176v4.418h-15.176v2.812h15.809V0h-39.973zm71.303 34.36V-.001h-24.164v-48.55h25.5q12.571 0 18.468 4.113 5.907 4.114 5.907 14.226-.001 7.665-4.98 11.309 4.205 7.524 6.386 18.902h-23.11q-.561-7.089-1.968-12.504l-.492-1.687zm0-5.696h2.039q.843 0 1.406-.562.563-.561.563-1.465v-4.219q0-.915-.563-1.441-.563-.528-1.406-.528h-2.04zm0 0" aria-label="SUMMER" style="fill:#45db82;fill-opacity:1;fill-rule:nonzero;stroke:none" transform="translate(636.367 708.704)scale(1.33333)"/><path d="M0 0q-5.971-4.321-5.971-11.838 0-7.519 4.355-10.538 4.355-3.021 12.927-3.653v-1.687q-5.058 0-9.449.774-4.392.77-5.655 1.264-1.266.49-1.897.773v-17.493l1.897-.843q1.826-.775 7.166-1.581 5.338-.807 12.294-.808 12.153 0 17.985 3.934 5.83 3.934 5.831 11.1 0 5.972-4.004 8.922-4.005 2.95-13.138 3.653v1.827q9.906-.001 15.597-2.599V1.3l-2.108.772q-2.18.773-7.201 1.511-5.024.737-10.784.737Q5.97 4.32 0 0Z" clip-path="url(#r)" style="fill:none;stroke:#000;stroke-width:3;stroke-linecap:butt;stroke-linejoin:miter;stroke-miterlimit:10;stroke-dasharray:none;stroke-opacity:1" transform="matrix(1.33333 0 0 -1.33333 647.046 648.8)"/><path d="M0 0q0-.843-.597-1.405-.598-.562-1.475-.562-.88 0-1.441.527-.562.527-.562 1.44v29.577h-23.043V2.6q0-11.312 5.796-16.791t18.371-5.48h1.827q12.646 0 18.442 5.444T23.114 2.6v26.977H0Z" clip-path="url(#s)" style="fill:none;stroke:#000;stroke-width:3;stroke-linecap:butt;stroke-linejoin:miter;stroke-miterlimit:10;stroke-dasharray:none;stroke-opacity:1" transform="matrix(1.33333 0 0 -1.33333 744.183 683.413)"/><path d="m0 0-3.092-9.344h-1.826L-8.149 0h-24.168v-48.546h24.168v17.564l3.231-8.15h1.826L0-30.982v-17.564h24.237V0Z" clip-path="url(#t)" style="fill:none;stroke:#000;stroke-width:3;stroke-linecap:butt;stroke-linejoin:miter;stroke-miterlimit:10;stroke-dasharray:none;stroke-opacity:1" transform="matrix(1.33333 0 0 -1.33333 827.645 643.977)"/><path d="m0 0-3.092-9.344h-1.826L-8.149 0h-24.168v-48.546h24.168v17.564l3.231-8.15h1.826L0-30.982v-17.564h24.237V0Z" clip-path="url(#u)" style="fill:none;stroke:#000;stroke-width:3;stroke-linecap:butt;stroke-linejoin:miter;stroke-miterlimit:10;stroke-dasharray:none;stroke-opacity:1" transform="matrix(1.33333 0 0 -1.33333 912.604 643.977)"/><path d="M0 0h39.975v18.056H24.168v2.809h15.175v4.426H24.168v2.811h15.175v20.444H0Z" clip-path="url(#v)" style="fill:none;stroke:#000;stroke-width:3;stroke-linecap:butt;stroke-linejoin:miter;stroke-miterlimit:10;stroke-dasharray:none;stroke-opacity:1" transform="matrix(1.33333 0 0 -1.33333 954.474 708.704)"/><path d="m0 0 .492-1.687q1.405-5.409 1.967-12.504h23.114Q23.394-2.811 19.18 4.707q4.988 3.652 4.988 11.311 0 10.116-5.901 14.226-5.902 4.11-18.477 4.11h-25.503v-48.545h24.168V0zm-1.545 13.91H.492q.842 0 1.405-.527.561-.527.562-1.44V7.728q0-.915-.562-1.475-.563-.564-1.405-.563h-2.037z" clip-path="url(#w)" style="fill:none;stroke:#000;stroke-width:3;stroke-linecap:butt;stroke-linejoin:miter;stroke-miterlimit:10;stroke-dasharray:none;stroke-opacity:1" transform="matrix(1.33333 0 0 -1.33333 1051.612 689.783)"/><text xml:space="preserve" transform="translate(701.387 806.292)scale(1.33333)"><tspan x="0" y="0" dx="0 2.0155499 2.0155499 2.0155499 2.0155499 2.0155499 2.0155499 2.0155499 2.0155499 2.0155499" style="font-variant:normal;font-weight:400;font-stretch:normal;font-size:44.79px;font-family:Pacifico;writing-mode:lr-tb;fill:#000;fill-opacity:1;fill-rule:nonzero;stroke:none">Watermelon</tspan></text><path d="M39.013 0H1.783v-15.035l10.429-5.578v-1.407q-6.143.495-8.836 1.348l-.984.305v-19.57q2.33-1.1 7.757-2.086 5.436-.985 10.278-.985 10.253 0 14.414 3.445 4.171 3.436 4.172 9.75-.001 5.029-2.367 7.512-2.357 2.486-7.079 4.207h9.446zm6.328-21.41q-.001-11.108 4.933-16.29 4.945-5.177 15.528-5.179 10.58.001 15.668 5.156 5.097 5.146 5.097 16.254-.001 11.1-5.039 16.559Q76.501.55 65.884.55 55.275.552 50.31-4.874q-4.97-5.424-4.97-16.535m18.469 1.652h4.043q1.78.001 1.78-1.71 0-1.724-1.78-1.723H63.81q-1.723 0-1.723 1.722 0 1.713 1.723 1.711m0 0" aria-label="20" style="fill:#45db82;fill-opacity:1;fill-rule:nonzero;stroke:none" transform="translate(779.339 490.668)scale(1.33333)"/><path d="M0 0h-9.448q4.724 1.718 7.086 4.202T0 11.718q0 6.319-4.172 9.756-4.172 3.435-14.418 3.435-4.847 0-10.277-.981-5.43-.984-7.761-2.086V2.27l.982.306q2.698.859 8.835 1.35V2.515l-10.43-5.583V-18.1H0Z" clip-path="url(#x)" style="fill:none;stroke:#000;stroke-width:3;stroke-linecap:butt;stroke-linejoin:miter;stroke-miterlimit:10;stroke-dasharray:none;stroke-opacity:1" transform="matrix(1.33333 0 0 -1.33333 831.366 466.535)"/><path d="M0 0q4.97-5.43 15.583-5.43 10.615 0 15.646 5.46 5.03 5.46 5.031 16.566 0 11.104-5.093 16.258-5.092 5.154-15.675 5.154T-.031 32.823-4.97 16.534 0 0Zm11.78 16.596q0 1.716 1.718 1.717h4.049q1.779 0 1.779-1.717 0-1.719-1.779-1.718h-4.049q-1.719 0-1.718 1.718z" clip-path="url(#y)" style="fill:none;stroke:#000;stroke-width:3;stroke-linecap:butt;stroke-linejoin:miter;stroke-miterlimit:10;stroke-dasharray:none;stroke-opacity:1" transform="matrix(1.33333 0 0 -1.33333 846.417 484.164)"/><path d="M0 0c52.785-36.219 209.233-122.103 361.033 5.35 9.203 7.727 11.8 20.81 6.163 31.422l-8.811 16.586H3.534L-7.717 33.356C-14.154 21.914-10.825 7.428 0 0" clip-path="url(#z)" style="fill:#14984f;fill-opacity:1;fill-rule:nonzero;stroke:none" transform="matrix(1.33333 0 0 -1.33333 285.793 1038.722)"/><path d="M0 0c16.49-11.307 33.905-21.288 51.964-29.868 24.58-11.678 50.449-20.788 77.114-26.321 30.914-6.416 62.79-7.907 94.08-3.437 36.753 5.251 71.89 18.872 103.284 38.575 9.064 5.688 17.809 11.868 26.258 18.433 7.507 5.833 15.617 11.401 18.535 20.916 2.14 6.981 1.239 14.401-2.143 20.82-2.226 4.226-4.482 8.437-6.723 12.655l-1.932 3.637c-.245.461-.784.743-1.295.743H18.728c-4.608 0-9.229.096-13.837 0-.2-.004-.4 0-.6 0a1.5 1.5 0 0 1-1.295-.743l-9.211-16.373c-1.352-2.405-2.781-4.77-3.776-7.354-1.991-5.17-2.257-10.997-.849-16.349C-9.187 9.055-5.291 3.713 0 0c1.584-1.111 3.084 1.488 1.514 2.59-9.095 6.382-12.701 18.491-8.418 28.785.924 2.222 2.249 4.315 3.427 6.409l5.417 9.63 3.646 6.482-1.295-.743h340.413c4.555 0 9.293-.377 13.837 0 .197.017.402 0 .601 0l-1.296.743 5.777-10.873c2.437-4.588 5.123-9.028 5.669-14.322.427-4.153-.228-8.422-1.929-12.239-1.868-4.189-4.84-7.278-8.325-10.167-8.233-6.824-16.784-13.264-25.649-19.247-30.832-20.805-65.472-35.764-102.152-42.35-30.911-5.551-62.741-5.06-93.612.503-26.729 4.817-52.765 13.276-77.502 24.443A382.4 382.4 0 0 0 6.163-.545 363 363 0 0 0 1.514 2.59C-.082 3.685-1.584 1.086 0 0" clip-path="url(#A)" style="fill:#000;fill-opacity:1;fill-rule:nonzero;stroke:none" transform="matrix(1.33333 0 0 -1.33333 284.783 1040.448)"/><path d="M0 0c-3.128-1.955-6.338-3.985-8.486-6.983s-2.998-7.238-1.072-10.384c1.565-2.555 4.609-3.927 6.164-6.49 1.769-2.917 1.187-6.736-.302-9.805s-3.775-5.678-5.513-8.613c-3.799-6.418-4.805-14.037-6.492-21.301-.523-2.254-1.297-4.73-3.319-5.854-1.294-.719-2.849-.727-4.329-.717l-14.422.097c-.939.007-1.924.025-2.742.486-.803.453-1.328 1.27-1.744 2.093-3.482 6.898-1.121 15.398 2.917 21.987s9.635 12.156 13.325 18.946c.718 1.321 1.378 2.798 1.116 4.278-.362 2.041-2.291 3.344-3.816 4.749-5.71 5.261-6.68 14.434-3.518 21.525s9.758 12.203 16.939 15.154z" clip-path="url(#B)" style="fill:#45db82;fill-opacity:1;fill-rule:nonzero;stroke:none" transform="matrix(1.33333 0 0 -1.33333 366.81 1001.02)"/><path d="M0 0c-5.414-3.386-11.744-7.905-11.364-15.113.172-3.257 1.916-5.55 4.301-7.606 1.119-.965 2.353-1.909 3.13-3.19.883-1.455 1.039-3.213.781-4.87-.558-3.583-2.89-6.524-4.894-9.423a37.5 37.5 0 0 1-4.667-9.19c-1.169-3.4-1.921-6.925-2.665-10.438-.352-1.662-.688-3.331-1.093-4.982-.32-1.306-.686-2.719-1.555-3.781-1.041-1.273-2.635-1.344-4.161-1.351-2.124-.01-4.249.028-6.373.042l-5.968.04c-1.744.012-4.18-.5-5.289 1.157-1.752 2.617-2.066 6.198-1.785 9.242.316 3.415 1.518 6.764 3.1 9.786 3.298 6.304 8.336 11.474 12.27 17.359 1.824 2.728 4.542 6.394 3.347 9.853-.976 2.822-3.94 4.244-5.672 6.525-3.964 5.222-4.108 12.819-1.302 18.592 3.143 6.465 9.196 11.057 15.721 13.775l-1.46.386L-2.246.078l1.942-2.434C.9-3.865 3.011-1.73 1.818-.235L-11.534 16.5l-1.943 2.434c-.293.368-1.021.568-1.459.386-6.127-2.552-11.753-6.392-15.592-11.891-3.634-5.205-5.083-11.737-3.704-17.963.668-3.014 2.059-5.86 4.096-8.185 1.054-1.203 2.366-2.125 3.46-3.284 1.443-1.529 1.16-3.106.229-4.873-3.512-6.668-8.936-12.074-12.968-18.405-3.733-5.862-6.333-13.127-4.847-20.124.701-3.3 2.263-7.022 6.032-7.391 2.037-.2 4.143-.069 6.189-.083l6.465-.043c3.439-.024 7.478-.538 9.883 2.47 2.025 2.532 2.423 6.118 3.073 9.189.774 3.655 1.532 7.327 2.732 10.871 1.239 3.661 3.125 6.802 5.326 9.955 2.1 3.009 4.024 6.129 4.44 9.849.393 3.517-.949 6.537-3.535 8.876-1.153 1.043-2.464 1.975-3.433 3.203-1.022 1.296-1.387 2.902-1.261 4.527.275 3.532 2.729 6.344 5.418 8.416C-1.521-4.477.004-3.535 1.514-2.59 3.147-1.569 1.643 1.028 0 0" clip-path="url(#C)" style="fill:#000;fill-opacity:1;fill-rule:nonzero;stroke:none" transform="matrix(1.33333 0 0 -1.33333 365.801 999.293)"/><path d="M0 0c-5.881-2.8-6.474-10.931-5.291-17.336 1.183-6.406 3.166-13.509-.266-19.046-4.189-6.755-14.229-7.416-19.26-13.569-3.646-4.459-3.821-10.699-5.306-16.263-1.486-5.564-5.915-11.511-11.607-10.634-5.501.848-8.018 7.42-8.219 12.982-.389 10.728 4.004 21.54 11.763 28.958 3.384 3.234 7.656 6.361 8.181 11.013.44 3.904-1.969 7.476-3.368 11.148-3.44 9.035-.221 20.164 7.512 25.966z" clip-path="url(#D)" style="fill:#45db82;fill-opacity:1;fill-rule:nonzero;stroke:none" transform="matrix(1.33333 0 0 -1.33333 461.798 1028.013)"/><path d="M0 0c-5.403-2.692-6.782-9.17-6.499-14.705.341-6.675 3.781-13.832 1.298-20.428-2.156-5.726-8.814-7.626-13.709-10.275-2.663-1.441-5.135-3.222-6.922-5.7-2.023-2.807-2.923-6.247-3.61-9.587-.672-3.267-1.098-6.695-2.61-9.708-1.29-2.574-3.323-5.285-6.224-6.102-6.258-1.764-9.104 6.059-9.393 10.86-.423 7.049 1.46 14.233 4.984 20.322a36.7 36.7 0 0 0 6.586 8.314c2.391 2.259 5.033 4.368 6.767 7.212 1.869 3.065 1.992 6.526.83 9.876-1.156 3.332-3.008 6.33-3.665 9.836-1.138 6.073.637 12.788 4.569 17.547a20 20 0 0 0 3.251 3.166h-1.514L-3.205-.952 0-2.59C1.716-3.467 3.236-.88 1.514 0l-22.656 11.581-3.205 1.638c-.438.224-1.085.327-1.514 0C-31.169 9.163-34.479 3.14-35.3-3.474c-.399-3.209-.158-6.532.782-9.631 1.092-3.6 3.699-6.996 3.818-10.842.11-3.56-2.455-6.231-4.879-8.505-2.696-2.528-5.317-4.983-7.504-7.987-4.34-5.963-6.939-13.157-7.518-20.502-.471-5.979.399-13.543 5.774-17.254 2.581-1.783 5.942-1.959 8.765-.67 2.9 1.324 5.089 4.002 6.518 6.787 3.21 6.251 2.058 14.505 6.754 20.021 3.987 4.683 10.593 5.89 15.391 9.496 2.618 1.967 4.584 4.556 5.446 7.75.993 3.681.526 7.57-.121 11.265-1.024 5.858-3.042 12.877.527 18.317.766 1.168 1.819 2.02 3.061 2.639C3.242-1.729 1.725.859 0 0" clip-path="url(#E)" style="fill:#000;fill-opacity:1;fill-rule:nonzero;stroke:none" transform="matrix(1.33333 0 0 -1.33333 460.789 1026.286)"/><path d="m0 0-9.005-17.889c-.967-1.922-1.954-3.911-2.1-6.058-.425-6.237 6.167-11.123 6.334-17.372.184-6.897-7.222-11.457-9.67-17.908-1.609-4.239-.956-9.019-2.156-13.391-1.282-4.669-5.101-8.85-9.903-9.466-6.016-.772-11.68 4.429-12.865 10.377s1.266 12.132 5.005 16.908c3.743 4.78 9.156 9.785 7.768 15.695-.635 2.702-2.625 4.836-4.196 7.125-6.65 9.685-5.444 23.996 2.732 32.431z" clip-path="url(#F)" style="fill:#45db82;fill-opacity:1;fill-rule:nonzero;stroke:none" transform="matrix(1.33333 0 0 -1.33333 549.64 1040.551)"/><path d="m0 0-5.491-10.908c-1.673-3.323-3.584-6.616-4.945-10.083-1.122-2.86-1.127-5.797-.002-8.657 1.026-2.61 2.626-4.913 3.91-7.392 1.232-2.378 1.981-4.897 1.232-7.551-.72-2.551-2.441-4.732-4.05-6.787-1.712-2.188-3.526-4.371-4.699-6.911-1.446-3.128-1.669-6.496-1.957-9.881-.282-3.302-.858-6.544-2.945-9.226-1.68-2.159-4.17-3.854-6.964-4.009-5.934-.328-10.565 5.443-10.926 10.975-.216 3.316.657 6.613 2.151 9.557 1.475 2.907 3.556 5.318 5.608 7.818 3.807 4.638 7.336 10.133 4.242 16.145-1.568 3.045-4.037 5.471-5.435 8.638-1.275 2.885-1.926 6.056-2.005 9.203-.163 6.485 2.07 12.982 6.576 17.704l-1.06-.44 24.61-.397 3.445-.055c1.931-.031 1.932 2.969 0 3l-25.185.406c-.935.015-1.938.137-2.87.046-1.018-.099-1.636-1.025-2.247-1.761a27 27 0 0 1-1.907-2.585c-1.093-1.694-1.969-3.525-2.662-5.417-2.745-7.501-2.212-16.297 1.753-23.27 2.023-3.558 6.003-6.791 5.117-11.305-.805-4.101-4.178-7.351-6.715-10.472-5.52-6.791-9.314-16.926-3.634-24.823 2.339-3.251 5.865-5.636 9.922-5.949 4.098-.317 7.965 1.89 10.442 5.043 2.881 3.669 3.423 7.982 3.796 12.494.197 2.387.433 4.842 1.44 7.047.814 1.784 1.978 3.398 3.169 4.946 2.313 3.007 5.023 6.003 5.965 9.78.997 3.991-.504 7.656-2.457 11.081-1.881 3.301-4.35 6.801-3.248 10.785.687 2.483 2.108 4.793 3.259 7.081l3.624 7.199L2.59-1.514C3.456.206.869 1.727 0 0" clip-path="url(#G)" style="fill:#000;fill-opacity:1;fill-rule:nonzero;stroke:none" transform="matrix(1.33333 0 0 -1.33333 547.914 1039.542)"/><path d="m0 0-4.737-14.759c-.479-1.494-.949-3.17-.259-4.579.852-1.739 3.015-2.255 4.778-3.055 4.919-2.229 7.667-7.771 8.065-13.156.399-5.385-1.142-10.706-2.713-15.873-1.521-5.001-3.24-10.238-7.111-13.75s-10.606-4.428-14.078-.521c-3.62 4.074-1.842 10.419.202 15.47s4.034 11.258.667 15.543c-2.075 2.641-5.575 3.62-8.375 5.473-5.364 3.551-7.916 10.307-7.937 16.74-.022 6.433 2.119 12.66 4.419 18.668z" clip-path="url(#H)" style="fill:#45db82;fill-opacity:1;fill-rule:nonzero;stroke:none" transform="matrix(1.33333 0 0 -1.33333 646.438 1027.345)"/><path d="m0 0-3.108-9.685q-.742-2.306-1.481-4.612c-.436-1.366-.894-2.783-.79-4.236.208-2.88 2.522-4.19 4.92-5.168 2.215-.903 4.066-2.198 5.448-4.182 3.359-4.82 3.291-10.857 2.094-16.385-.662-3.055-1.583-6.06-2.532-9.036-.819-2.568-1.738-5.113-3.118-7.439-2.373-3.998-6.769-7.345-11.677-6.205-5.508 1.279-5.413 7.381-4.172 11.766 1.428 5.043 4.331 9.808 3.957 15.231-.175 2.549-1.117 4.948-2.961 6.755-1.845 1.808-4.261 2.795-6.489 4.021-5.117 2.814-7.933 8.18-8.515 13.889-.728 7.141 1.73 14.122 4.238 20.689l-1.845-1.048 23.68-5.422 3.399-.778c1.879-.431 2.681 2.461.797 2.893l-23.68 5.422-3.399.778c-.848.195-1.545-.261-1.845-1.047-2.41-6.312-4.694-12.958-4.459-19.81.182-5.31 1.93-10.726 5.578-14.678 1.9-2.058 4.262-3.34 6.716-4.615 2.352-1.223 4.667-2.621 5.466-5.318 1.604-5.412-2.021-10.952-3.478-15.978-1.436-4.953-1.575-10.982 3.102-14.275 4.142-2.916 10.128-1.739 13.909 1.202 4.451 3.461 6.44 9.105 8.042 14.3 1.906 6.181 3.837 12.697 2.724 19.218-.51 2.984-1.725 5.88-3.596 8.265-1.878 2.392-4.182 3.633-6.914 4.813-1.381.597-2.538 1.305-2.391 2.983.159 1.807 1.022 3.65 1.572 5.364L2.893-.798C3.484 1.045.589 1.834 0 0" clip-path="url(#I)" style="fill:#000;fill-opacity:1;fill-rule:nonzero;stroke:none" transform="matrix(1.33333 0 0 -1.33333 644.51 1026.813)"/><path d="M0 0a56.2 56.2 0 0 1-6.459-16.726c-.219-1.035-.366-2.244.336-3.035.724-.817 1.977-.786 3.068-.803 5.841-.094 11.315-3.53 14.758-8.25s5.035-10.584 5.487-16.409c.63-8.106-1.327-17.159-7.882-21.97-2.234-1.639-5.146-2.697-7.788-1.859-4.314 1.37-5.701 6.795-5.624 11.321s.805 9.474-1.731 13.224c-2.768 4.094-8.258 5.065-12.601 7.424-10.378 5.637-13.337 21.409-5.709 30.424z" clip-path="url(#J)" style="fill:#45db82;fill-opacity:1;fill-rule:nonzero;stroke:none" transform="matrix(1.33333 0 0 -1.33333 726.33 987.239)"/><path d="M0 0a59 59 0 0 1-5.308-12.076c-.909-2.933-3.374-9.048.956-10.456 1.707-.555 3.624-.226 5.383-.618 1.859-.414 3.602-1.152 5.221-2.15 3.36-2.073 5.906-5.153 7.65-8.669 3.34-6.733 4.166-15.357 2.241-22.623-.884-3.338-2.456-6.518-4.971-8.928-2.419-2.317-6.549-4.48-9.567-1.938-2.384 2.009-2.92 5.714-2.917 8.645.004 3.818.614 7.782-.596 11.493-1.153 3.534-3.839 5.897-7.104 7.485-3.058 1.487-6.419 2.421-9.199 4.439-4.825 3.504-7.386 9.636-7.422 15.493-.018 2.943.586 5.92 1.947 8.543q.495.952 1.101 1.836c.08.116.625.758.597.808.021-.037-.627-.155-.413-.133.329.035.682.189 1 .276L1.068-2.376l.626.173C3.553-1.691 2.763 1.204.896.689l-22.033-6.076c-.99-.273-2.266-.407-2.972-1.207-2.098-2.381-3.451-5.549-4.068-8.637-1.257-6.301.154-13.204 4.017-18.374 1.95-2.609 4.43-4.683 7.37-6.093 3.218-1.544 7.041-2.466 9.722-4.935 3.095-2.849 3.002-7.132 2.855-11.02-.139-3.671-.164-7.32 1.403-10.733 1.504-3.272 4.628-5.515 8.322-5.178 3.933.359 7.324 3.002 9.656 6.045 4.588 5.986 5.517 14.17 4.626 21.457-1.019 8.334-4.521 16.626-11.866 21.252a19.9 19.9 0 0 1-5.366 2.372c-.921.249-1.86.412-2.807.518-.949.106-2.048-.07-2.966.183-.884.243-.649 1.126-.507 1.855.229 1.176.535 2.344.857 3.498A54 54 0 0 0-.458-7.535 58 58 0 0 0 2.59-1.514C3.56.16.968 1.672 0 0" clip-path="url(#K)" style="fill:#000;fill-opacity:1;fill-rule:nonzero;stroke:none" transform="matrix(1.33333 0 0 -1.33333 724.602 986.23)"/><path d="M0 0c16.49-11.307 33.905-21.288 51.964-29.868 24.58-11.678 50.449-20.788 77.114-26.321 30.914-6.416 62.79-7.907 94.08-3.437 36.753 5.251 71.89 18.872 103.284 38.575 9.064 5.688 17.809 11.868 26.258 18.433 7.507 5.833 15.617 11.401 18.535 20.916 2.14 6.981 1.239 14.401-2.143 20.82-2.226 4.226-4.482 8.437-6.723 12.655l-1.932 3.637c-.245.461-.784.743-1.295.743H18.728c-4.608 0-9.229.096-13.837 0-.2-.004-.4 0-.6 0a1.5 1.5 0 0 1-1.295-.743l-9.211-16.373c-1.352-2.405-2.781-4.77-3.776-7.354-1.991-5.17-2.257-10.997-.849-16.349C-9.187 9.055-5.291 3.713 0 0c1.584-1.111 3.084 1.488 1.514 2.59-9.095 6.382-12.701 18.491-8.418 28.785.924 2.222 2.249 4.315 3.427 6.409l5.417 9.63 3.646 6.482-1.295-.743h340.413c4.555 0 9.293-.377 13.837 0 .197.017.402 0 .601 0l-1.296.743 5.777-10.873c2.437-4.588 5.123-9.028 5.669-14.322.427-4.153-.228-8.422-1.929-12.239-1.868-4.189-4.84-7.278-8.325-10.167-8.233-6.824-16.784-13.264-25.649-19.247-30.832-20.805-65.472-35.764-102.152-42.35-30.911-5.551-62.741-5.06-93.612.503-26.729 4.817-52.765 13.276-77.502 24.443A382.4 382.4 0 0 0 6.163-.545 363 363 0 0 0 1.514 2.59C-.082 3.685-1.584 1.086 0 0" clip-path="url(#L)" style="fill:#000;fill-opacity:1;fill-rule:nonzero;stroke:none" transform="matrix(1.33333 0 0 -1.33333 284.783 1040.448)"/><path d="M0 0s-166.737-153.917-354.852 0l167.422 288.45c4.458 7.681 15.55 7.681 20.009 0l23.386-40.288a14.12 14.12 0 0 0-2.33-17.17l-.077-.075c-7.284-7.148-12.355-17.454-10.416-27.47 1.347-6.961 6.984-13.085 13.545-15.093a7.264 7.264 0 0 0 4.946-8.766c-2.06-8.118-.548-17.158 4.918-23.477 5.617-6.487 15.261-9.059 23.359-6.782 4.094 1.152 8.42-.52 10.898-3.977 2.244-3.132 5.471-5.57 9.163-6.685 3.105-.938 6.456-.92 9.588-.082z" clip-path="url(#M)" style="fill:#fb582d;fill-opacity:1;fill-rule:nonzero;stroke:none" transform="matrix(1.33333 0 0 -1.33333 763.642 967.574)"/><path d="M0 0c-5.591-5.158-11.576-9.575-17.733-13.967-15.432-11.005-31.934-20.546-49.133-28.506-23.597-10.922-48.672-18.775-74.394-22.696-30.801-4.695-62.396-3.449-92.708 3.769-38.348 9.132-73.872 27.485-105.382 50.945A378 378 0 0 0-352.73 0l.234-1.818 8.552 14.734 22.079 38.039 30.705 52.902 33.919 58.44 32.357 55.746 25.363 43.698 13.504 23.267c.298.513.589 1.031.894 1.539 2.541 4.238 7.616 6.199 12.313 4.472 3.494-1.286 5.073-4.247 6.805-7.23l6.787-11.692 14.274-24.591c2.835-4.885 3.386-10.641-.345-15.334-1.178-1.482-2.645-2.732-3.864-4.187-1.556-1.857-2.975-3.837-4.181-5.939-2.193-3.823-3.714-8.035-4.212-12.423-.965-8.51 2.703-16.786 9.95-21.469 3.266-2.11 8.461-2.452 8.99-7.175.229-2.046-.674-4.253-.901-6.293a29 29 0 0 1 .03-6.66c1.014-8.437 5.845-16.128 13.704-19.711 3.663-1.67 7.713-2.517 11.744-2.338 4.201.186 8.193 2.294 12.124-.157 1.9-1.186 2.95-3.128 4.476-4.7a19.3 19.3 0 0 1 4.665-3.544c4.262-2.29 9.127-2.657 13.782-1.499l-1.694.69 8.016-13.81 19.244-33.154 23.182-39.938 20.113-34.65 6.603-11.376C-2.478 2.048-1.529.145-.375-1.575c.051-.077.094-.162.14-.243.969-1.669 3.563-.16 2.591 1.514l-8.016 13.81-19.244 33.154-23.182 39.938-20.113 34.65-6.603 11.376c-1.037 1.788-1.977 3.706-3.143 5.415-.052.076-.094.162-.14.242-.34.585-1.049.85-1.694.689-5.257-1.308-10.701-.188-14.739 3.504-1.477 1.351-2.482 3.096-3.936 4.453-1.55 1.446-3.5 2.517-5.583 2.947-4.04.835-7.953-1.072-12.036-.898-4.18.179-8.32 1.552-11.75 3.955-7.546 5.286-10.143 15.399-8.291 24.11.824 3.874.485 7.613-2.875 10.213-1.595 1.234-3.547 1.577-5.317 2.47-2.052 1.035-3.876 2.442-5.437 4.126-6.491 7.006-5.95 17.104-1.82 25.173 2.104 4.11 5.048 7.2 8.054 10.623 2.646 3.015 4.111 6.994 3.928 11.016-.177 3.899-1.967 6.971-3.847 10.209l-7.034 12.117-13.993 24.107c-2.292 3.949-5.613 6.865-10.306 7.445-5.267.651-10.235-1.952-12.939-6.456-3.264-5.436-6.37-10.973-9.552-16.457l-22.9-39.454-31.096-53.574-34.139-58.818-32.03-55.185-24.769-42.673L-354.54.637l-.546-.941c-.306-.527-.274-1.402.234-1.817 17.001-13.885 35.126-26.419 54.461-36.839 16.707-9.003 34.293-16.436 52.498-21.827 16.199-4.797 32.881-7.953 49.719-9.353 15.279-1.27 30.672-1.067 45.917.551 14.068 1.493 28.004 4.152 41.648 7.888 12.4 3.396 24.542 7.679 36.376 12.699a307 307 0 0 1 30.249 14.861 307 307 0 0 1 23.267 14.44A271 271 0 0 1-5.069-8.163C-2.74-6.307-.295-4.465 1.839-2.377c.091.088.189.17.282.256C3.543-.809 1.418 1.308 0 0" clip-path="url(#N)" style="fill:#000;fill-opacity:1;fill-rule:nonzero;stroke:none" transform="matrix(1.33333 0 0 -1.33333 762.227 966.16)"/><path d="M0 0c3.246-4.929 1.243-22.912-.026-26.397-1.747-4.802-5.595-9.961-10.663-9.309-3.199.411-5.712 3.218-6.602 6.319s-.429 6.43.377 9.554c1.598 6.185 6.753 14.395 11.18 18.889C-2.977 1.855-1.156 1.755 0 0" clip-path="url(#O)" style="fill:#fad902;fill-opacity:1;fill-rule:nonzero;stroke:none" transform="matrix(1.33333 0 0 -1.33333 452.105 761.706)"/><path d="M0 0c.896-1.413 1.166-3.276 1.339-4.957.252-2.462.256-4.949.162-7.42-.155-4.057-.386-8.372-1.501-12.302-1.265-4.456-6.135-11.317-11.424-7.938-6.155 3.933-3.177 13.451-.65 18.672a52.6 52.6 0 0 0 5.94 9.542C-5.283-3.318-1.449 2.063 0 0c1.101-1.568 3.704-.071 2.59 1.514-4.796 6.828-12.572-5.828-14.766-9.411-1.966-3.21-3.733-6.668-4.76-10.304-1.161-4.11-1.672-8.731.222-12.702 1.538-3.224 4.818-5.77 8.506-5.593 3.658.176 6.524 2.708 8.495 5.606 2.98 4.38 3.541 9.481 3.974 14.628.282 3.346.412 6.728.182 10.082-.176 2.558-.444 5.472-1.853 7.694C1.56 3.14-1.038 1.637 0 0" clip-path="url(#P)" style="fill:#000;fill-opacity:1;fill-rule:nonzero;stroke:none" transform="matrix(1.33333 0 0 -1.33333 450.378 762.715)"/><path d="M0 0c-2.711-5.242 1.171-22.916 2.799-26.248 2.242-4.592 6.61-9.319 11.582-8.138 3.138.746 5.342 3.801 5.902 6.978.559 3.177-.249 6.44-1.379 9.462-2.239 5.982-8.227 13.605-13.103 17.61C2.766 2.157.965 1.866 0 0" clip-path="url(#Q)" style="fill:#fad902;fill-opacity:1;fill-rule:nonzero;stroke:none" transform="matrix(1.33333 0 0 -1.33333 682.748 923.432)"/><path d="M0 0c-1.031-2.082-1.159-4.519-1.139-6.804.028-2.996.401-5.992.879-8.946.769-4.762 1.608-9.994 4.248-14.131 1.883-2.953 4.649-5.897 8.191-6.713 3.694-.851 7.206.902 9.24 3.997 4.553 6.93.061 16.25-4.078 22.248C15.014-6.977 4.339 7.81 0 0c-.939-1.689 1.652-3.204 2.59-1.514C3.795.654 7.04-2.981 8.068-3.969a51.4 51.4 0 0 0 6.455-7.567c1.789-2.551 3.426-5.268 4.466-8.217 1.17-3.32 2.035-7.265.297-10.551-1.403-2.653-4.168-4.24-7.128-3.156-2.914 1.068-5.03 3.915-6.434 6.556-.439.824-.453.863-.764 1.8-.273.824-.508 1.66-.728 2.499a80 80 0 0 0-1.449 6.755c-.477 2.762-.83 5.555-.908 8.359-.054 1.906-.085 4.36.715 5.977C3.444.211.857 1.732 0 0" clip-path="url(#R)" style="fill:#000;fill-opacity:1;fill-rule:nonzero;stroke:none" transform="matrix(1.33333 0 0 -1.33333 681.02 922.422)"/><path d="M0 0c-5.701-1.527-16.151-16.298-17.519-19.746-1.884-4.749-2.437-11.162 1.784-14.042 2.665-1.818 6.408-1.39 9.133.336 2.725 1.727 4.593 4.521 6.067 7.392 2.914 5.684 4.516 15.244 4.193 21.545C3.457-.592 2.03.544 0 0" clip-path="url(#S)" style="fill:#fad902;fill-opacity:1;fill-rule:nonzero;stroke:none" transform="matrix(1.33333 0 0 -1.33333 395.225 939.05)"/><path d="M0 0c-2.3-.66-4.254-2.346-5.96-3.954-2.238-2.109-4.239-4.471-6.126-6.895-3.122-4.008-6.423-8.249-7.505-13.319-.686-3.215-.767-6.928 1.036-9.817 2.104-3.37 6.146-4.525 9.891-3.587C-.817-35.607 2.72-26.153 4.267-19.105c.917 4.175 1.486 8.545 1.305 12.826-.075 1.766-.28 3.855-1.528 5.23C2.979.126 1.489.357 0 0c-1.877-.45-1.082-3.343.798-2.893 2.135.512 1.81-3.717 1.799-5.049-.027-3.353-.445-6.703-1.14-9.981-.654-3.086-1.524-6.194-2.982-9.006-1.557-3.003-3.684-6.232-7.002-7.462-2.931-1.086-6.388-.432-7.804 2.587-1.199 2.557-.756 5.71.008 8.324.186.637.394 1.276.649 1.889-.145-.348.221.439.292.574.385.734.818 1.445 1.26 2.146a75 75 0 0 0 4.024 5.728c1.748 2.272 3.614 4.476 5.658 6.488C-2.965-5.203-1.152-3.452.798-2.893 2.65-2.362 1.862.534 0 0" clip-path="url(#T)" style="fill:#000;fill-opacity:1;fill-rule:nonzero;stroke:none" transform="matrix(1.33333 0 0 -1.33333 394.693 937.12)"/><path d="M0 0c-3.73-2.866-6.907-16.934-6.861-19.889.065-4.072 1.618-8.961 5.606-9.791 2.517-.524 5.141.935 6.62 3.039 1.478 2.103 1.999 4.731 2.206 7.295.408 5.074-1.335 12.601-3.498 17.141C2.726.621 1.328 1.02 0 0" clip-path="url(#U)" style="fill:#fad902;fill-opacity:1;fill-rule:nonzero;stroke:none" transform="matrix(1.33333 0 0 -1.33333 526.56 647.81)"/><path d="M0 0c-1.456-1.17-2.369-3.022-3.109-4.695-1.005-2.275-1.792-4.638-2.453-7.034-1.1-3.98-2.16-8.12-1.437-12.255.464-2.652 1.619-5.395 3.844-7.034 2.339-1.723 5.437-1.664 7.904-.223 5.838 3.409 5.889 11.58 5.009 17.444C9.248-10.391 6.427 4.579.304.235-1.258-.874.239-3.476 1.818-2.356c.687.488.91.175 1.379-.506.758-1.099 1.232-2.45 1.674-3.701a43.5 43.5 0 0 0 1.934-7.639c.726-4.541 1.043-11.755-3.57-14.449-4.838-2.825-7.306 3.236-7.512 7.052-.161 2.983.802 6.158 1.607 9.073.591 2.139 1.259 4.282 2.152 6.316C.12-4.756.855-3.139 2.121-2.121 3.626-.912 1.492 1.199 0 0" clip-path="url(#V)" style="fill:#000;fill-opacity:1;fill-rule:nonzero;stroke:none" transform="matrix(1.33333 0 0 -1.33333 525.147 646.396)"/><path d="M0 0c-3.73-2.866-6.907-16.934-6.861-19.889.065-4.072 1.618-8.961 5.606-9.791 2.517-.524 5.141.935 6.62 3.039 1.478 2.103 1.999 4.731 2.206 7.295.408 5.074-1.335 12.601-3.498 17.141C2.726.621 1.328 1.02 0 0" clip-path="url(#W)" style="fill:#fad902;fill-opacity:1;fill-rule:nonzero;stroke:none" transform="matrix(1.33333 0 0 -1.33333 545.883 933.296)"/><path d="M0 0c-1.456-1.17-2.369-3.022-3.109-4.695-1.005-2.275-1.792-4.638-2.453-7.034-1.1-3.98-2.16-8.12-1.437-12.254.464-2.653 1.619-5.396 3.844-7.035 2.339-1.723 5.437-1.664 7.904-.223 5.838 3.409 5.889 11.58 5.009 17.444C9.248-10.391 6.427 4.579.304.235-1.258-.874.239-3.476 1.818-2.356c.687.488.91.175 1.379-.506.758-1.099 1.232-2.45 1.674-3.701a43.5 43.5 0 0 0 1.934-7.639c.726-4.541 1.043-11.755-3.57-14.449-4.838-2.825-7.306 3.236-7.512 7.052-.161 2.983.802 6.158 1.607 9.073.591 2.139 1.259 4.282 2.152 6.316C.12-4.756.855-3.139 2.121-2.121 3.626-.912 1.492 1.199 0 0" clip-path="url(#X)" style="fill:#000;fill-opacity:1;fill-rule:nonzero;stroke:none" transform="matrix(1.33333 0 0 -1.33333 544.469 931.881)"/><path d="M0 0c-2.35-4.075.094-18.288 1.267-21.001 1.617-3.738 4.922-7.661 8.924-6.903 2.526.479 4.393 2.83 4.954 5.339.562 2.509.038 5.137-.751 7.585C12.83-10.135 8.342-3.847 4.607-.48 2.281 1.616.837 1.451 0 0" clip-path="url(#Y)" style="fill:#fad902;fill-opacity:1;fill-rule:nonzero;stroke:none" transform="matrix(1.33333 0 0 -1.33333 579.596 792)"/><path d="M0 0c-.942-1.72-1.117-3.79-1.176-5.715-.072-2.373.117-4.757.404-7.111.495-4.075 1.013-8.435 3.244-11.979 1.497-2.377 3.711-4.7 6.567-5.293 2.926-.608 5.705.756 7.397 3.136 3.922 5.52.638 13.216-2.539 18.277C11.962-5.604 4.028 6.407 0 0c-1.031-1.639 1.564-3.146 2.59-1.514.822 1.307 3.591-2.065 4.206-2.735a41.3 41.3 0 0 0 4.616-6.12c2.459-3.958 5.624-10.353 2.634-14.788-1.282-1.902-3.512-2.654-5.585-1.558-2.045 1.082-3.569 3.299-4.456 5.384-1.126 2.646-1.458 5.829-1.795 8.656-.259 2.169-.431 4.36-.395 6.546.025 1.502.087 3.357.775 4.615C3.518.18.929 1.696 0 0" clip-path="url(#Z)" style="fill:#000;fill-opacity:1;fill-rule:nonzero;stroke:none" transform="matrix(1.33333 0 0 -1.33333 577.869 790.991)"/><path d="M0 0c1.407 30.131 37.9 50.601 64.228 34.82 6.333-3.796 11.725-9.49 14.131-16.471 1.141-3.312 1.577-7.01.366-10.297-2.426-6.587-10.373-9.259-17.386-9.543-7.014-.283-14.3.915-20.887-1.511-4.588-1.69-8.367-4.984-12.181-8.044-7.177-5.759-16.778-10.896-24.143-2.143C.953-9.415-.226-4.839 0 0" clip-path="url(#aa)" style="fill:#fff2d9;fill-opacity:1;fill-rule:nonzero;stroke:none" transform="matrix(1.33333 0 0 -1.33333 412.826 834.1)"/><path d="M0 0c.604 11.88 7.077 22.765 16.541 29.809 9.321 6.938 21.431 10.499 32.988 8.388 6.364-1.163 12.442-3.963 17.352-8.197 2.849-2.457 5.296-5.354 7.061-8.685 1.865-3.521 3.199-7.852 2.161-11.824C74.335 2.726 66.359.343 60.179.025 51.615-.416 42.955 1.19 35.08-3.142c-6.586-3.623-11.509-9.96-18.766-12.428-3.068-1.044-6.358-1.191-9.235.485-3.346 1.95-5.622 5.561-6.554 9.257C.043-3.915-.076-1.967 0 0c.074 1.931-2.926 1.928-3 0C-3.301-7.828.746-17.341 9.208-19.095c7.552-1.566 14.462 3.622 19.97 8.075 3.539 2.862 7.208 5.779 11.656 7.054 4.557 1.307 9.363 1.04 14.048.955 7.324-.133 15.975.471 21.209 6.361 5.924 6.666 3.001 16.441-1.71 22.917-4.479 6.158-10.972 10.702-18.119 13.24-12.178 4.324-25.921 2.208-36.938-4.259C8.265 28.755-.315 17.73-2.462 4.935A43 43 0 0 1-3 0c-.098-1.93 2.902-1.924 3 0" clip-path="url(#ab)" style="fill:#000;fill-opacity:1;fill-rule:nonzero;stroke:none" transform="matrix(1.33333 0 0 -1.33333 414.826 834.1)"/><path d="M0 0c0-13.413-10.873-24.286-24.286-24.286S-48.572-13.413-48.572 0s10.873 24.286 24.286 24.286S0 13.413 0 0" clip-path="url(#ac)" style="fill:#000;fill-opacity:1;fill-rule:nonzero;stroke:none" transform="matrix(1.33333 0 0 -1.33333 508.308 831.76)"/><path d="M0 0c-4.119-7.83-7.554-16.435-7.452-25.423.089-7.734 2.879-15.66 8.801-20.841 1.447-1.266 3.578.847 2.121 2.121-5.45 4.768-7.928 11.984-7.924 19.104.005 8.325 3.227 16.269 7.044 23.525C3.489.193.9 1.711 0 0" clip-path="url(#ad)" style="fill:#000;fill-opacity:1;fill-rule:nonzero;stroke:none" transform="matrix(1.33333 0 0 -1.33333 402.52 805.252)"/><path d="M0 0c-1.407 30.131-37.9 50.601-64.228 34.82-6.333-3.796-11.725-9.49-14.131-16.471-1.141-3.312-1.577-7.01-.366-10.297 2.426-6.587 10.373-9.259 17.386-9.543 7.014-.283 14.3.915 20.887-1.511 4.588-1.69 8.367-4.984 12.181-8.044 7.177-5.759 16.778-10.896 24.143-2.143C-.953-9.415.226-4.839 0 0" clip-path="url(#ae)" style="fill:#fff2d9;fill-opacity:1;fill-rule:nonzero;stroke:none" transform="matrix(1.33333 0 0 -1.33333 646.191 834.1)"/><path d="M0 0c-.67 13.182-7.835 24.968-18.393 32.67-10.344 7.545-23.839 10.933-36.429 8.116-7-1.567-13.623-5.102-18.762-10.114-5.677-5.537-11.078-14.893-8.088-23.019C-79.074.594-71.303-2.269-64.378-2.89c4.558-.409 9.146.087 13.712-.09 4.773-.185 9.078-1.345 13.092-3.975 6.548-4.29 12.094-10.889 20.216-12.202 3.628-.587 7.207.166 10.155 2.404 3.369 2.557 5.721 6.407 6.664 10.514C-.069-4.195.08-2.092 0 0c-.074 1.924-3.074 1.934-3 0 .152-3.949-.635-7.817-2.912-11.107-2.035-2.942-5.105-5.204-8.78-5.269-7.148-.127-12.979 5.708-18.233 9.754-3.311 2.551-6.867 4.772-10.968 5.776-4.277 1.048-8.715.941-13.084.852-6.716-.135-14.795-.09-19.774 5.226-5.646 6.027-1.475 15.513 3.04 20.897 4.371 5.213 10.37 9.036 16.864 11.018 11.303 3.449 23.668 1.204 33.66-4.879 10.04-6.112 17.648-16.14 19.704-27.824C-3.225 2.973-3.076 1.491-3 0c.098-1.921 3.098-1.933 3 0" clip-path="url(#af)" style="fill:#000;fill-opacity:1;fill-rule:nonzero;stroke:none" transform="matrix(1.33333 0 0 -1.33333 648.191 834.1)"/><path d="M0 0c0-13.413 10.873-24.286 24.286-24.286S48.572-13.413 48.572 0 37.699 24.286 24.286 24.286 0 13.413 0 0" clip-path="url(#ag)" style="fill:#000;fill-opacity:1;fill-rule:nonzero;stroke:none" transform="matrix(1.33333 0 0 -1.33333 550.71 831.76)"/><path d="M0 0c3.817-7.256 7.039-15.2 7.044-23.525.004-7.12-2.474-14.335-7.924-19.103-1.455-1.274.673-3.389 2.122-2.122 5.921 5.181 8.712 13.108 8.8 20.841.103 8.989-3.333 17.593-7.452 25.423C1.691 3.223-.899 1.709 0 0" clip-path="url(#ah)" style="fill:#000;fill-opacity:1;fill-rule:nonzero;stroke:none" transform="matrix(1.33333 0 0 -1.33333 653.043 807.27)"/><path d="M0 0c1.597 7.528 6.865 14.083 15.363 14.786 9.371.775 17.386-6.271 26.302-9.258 6.676-2.237 14.109-2.139 20.724.272 9.759 3.556 18.933 12.067 28.976 9.416 8.879-2.344 13.372-13.313 11.071-22.203S92.797-22.641 84.843-27.23c-14.851-8.565-33.102-11.128-49.8-7.396C19.222-31.09-4.123-19.435 0 0" clip-path="url(#ai)" style="fill:#ff8db6;fill-opacity:1;fill-rule:nonzero;stroke:none" transform="matrix(1.33333 0 0 -1.33333 463.926 878.9)"/><path d="M0 0c.804 3.659 2.434 7.129 5.166 9.745 2.883 2.762 6.742 4.103 10.711 3.991 4.472-.125 8.667-2.069 12.595-4.04 4.18-2.098 8.32-4.413 12.851-5.676 4.886-1.361 10.058-1.541 15.039-.621 4.78.882 9.126 3.021 13.386 5.28 7.077 3.753 16.188 9.06 23.818 3.562 6.048-4.358 7.789-13.093 5.547-19.892-2.805-8.508-10.344-14.588-17.958-18.715-16.185-8.773-35.942-10.37-53.412-4.698-6.605 2.145-13.156 5.215-18.561 9.631C4.175-17.342-.047-11.791-.399-5.11A20 20 0 0 0 0 0c.386 1.885-2.505 2.691-2.893.798-1.526-7.449.726-14.532 5.657-20.218 4.975-5.734 11.84-9.662 18.775-12.54 17.443-7.241 37.604-7.22 55.028.093 8.778 3.684 17.476 9.225 22.628 17.447 4.555 7.267 5.335 16.51.757 23.985-2.049 3.346-5.11 6.029-8.864 7.266-4.43 1.461-9.188.693-13.441-.971-4.659-1.824-8.916-4.476-13.415-6.636-4.858-2.332-10.014-3.61-15.426-3.377-5.317.23-10.132 2.06-14.838 4.417-4.366 2.187-8.712 4.68-13.498 5.835-4.353 1.052-8.927.815-12.997-1.131C3.815 13.218.903 10.07-.899 6.47A24.3 24.3 0 0 1-2.893.798C-3.306-1.084-.415-1.888 0 0" clip-path="url(#aj)" style="fill:#000;fill-opacity:1;fill-rule:nonzero;stroke:none" transform="matrix(1.33333 0 0 -1.33333 465.854 879.43)"/><path d="M0 0c-3.651 2.416-6.589 6.87-5.217 11.379 1.279 4.207 5.777 6.907 9.967 7.31 1.904.184 1.924 3.186 0 3-5.553-.534-11.172-3.941-12.86-9.513C-9.881 6.333-6.272.558-1.514-2.59.101-3.659 1.605-1.062 0 0" clip-path="url(#ak)" style="fill:#000;fill-opacity:1;fill-rule:nonzero;stroke:none" transform="matrix(1.33333 0 0 -1.33333 488.978 899.293)"/><path d="M0 0c3.934 4.105 6.073 10.431 3.188 15.727-2.704 4.966-8.965 7.262-14.367 6.57-.803-.103-1.5-.616-1.5-1.5 0-.73.691-1.604 1.5-1.5 4.306.552 9.346-.903 11.65-4.859 2.394-4.109.445-9.147-2.592-12.317C-3.457.727-1.339-1.397 0 0" clip-path="url(#al)" style="fill:#000;fill-opacity:1;fill-rule:nonzero;stroke:none" transform="matrix(1.33333 0 0 -1.33333 585.15 898.777)"/><path d="M0 0c9.154-6.793 20.178-10.867 31.528-11.816 11.13-.931 22.384 1.409 32.338 6.435A61.2 61.2 0 0 1 79.081 5.547c1.381 1.355-.741 3.475-2.121 2.122C69.425.276 59.935-4.961 49.675-7.439c-10.486-2.534-21.537-1.953-31.76 1.452-5.89 1.962-11.418 4.88-16.401 8.577C-.037 3.742-1.535 1.139 0 0" clip-path="url(#am)" style="fill:#000;fill-opacity:1;fill-rule:nonzero;stroke:none" transform="matrix(1.33333 0 0 -1.33333 480.054 886.45)"/><path d="M0 0c14.496-5.043 30.19-6.269 45.312-3.693A89 89 0 0 1 58.006-.545c1.827.597 1.045 3.495-.798 2.893-18.282-5.972-38.246-5.774-56.41.545C-1.03 3.528-1.815.631 0 0" clip-path="url(#an)" style="fill:#000;fill-opacity:1;fill-rule:nonzero;stroke:none" transform="matrix(1.33333 0 0 -1.33333 492.715 940.808)"/><path d="M0 0c-2.941 2.403-3.279 6.778-.73 9.593 6.081 6.721 12.245 14.562 14.91 22.499 1.96 5.837 3.268 12.11 7.093 16.936 3.364 4.243 8.491 7.1 10.861 11.967 1.357 2.787 1.672 5.993 3.044 8.772s4.509 5.179 7.416 4.103c.941-.349 1.731-1.023 2.379-1.789 3.6-4.257 2.765-10.822.128-15.734s-6.748-8.875-9.695-13.608c-6.271-10.068-6.822-22.795-12.53-33.193-1.873-3.412-4.267-6.506-6.65-9.583l-.292-.373c-3.33-4.208-9.46-4.881-13.615-1.485Z" clip-path="url(#ao)" style="fill:#fff2d9;fill-opacity:1;fill-rule:nonzero;stroke:none" transform="matrix(1.33333 0 0 -1.33333 312.22 969.55)"/><path d="M0 0c-1.936 1.668-2.651 4.363-1.317 6.654.793 1.36 2.099 2.499 3.124 3.69a114 114 0 0 1 3.345 4.064c4.149 5.299 7.73 10.954 9.798 17.397 1.904 5.934 3.378 12.172 7.822 16.806 2.018 2.104 4.33 3.905 6.326 6.031 2.141 2.279 3.6 4.795 4.509 7.789.89 2.931 1.415 6.382 4.099 8.281 2.696 1.908 5.093.037 6.279-2.588 2.542-5.624-.721-11.899-4.016-16.396-1.946-2.655-4.113-5.143-5.979-7.858-1.802-2.624-3.203-5.465-4.377-8.418-2.352-5.922-3.668-12.183-5.694-18.214-1.165-3.469-2.598-6.817-4.533-9.931-1.028-1.652-2.161-3.237-3.328-4.794-1.066-1.42-2.099-3.026-3.452-4.194-2.168-1.871-5.243-2.414-7.939-1.496C2.861-2.561 1.45-1.185 0 0c-1.483 1.212-3.618-.898-2.121-2.121C-.685-3.295.73-4.657 2.411-5.468c2.573-1.241 5.573-1.514 8.304-.625 3.243 1.057 5.119 3.403 7.118 6.017 2.286 2.991 4.474 6.065 6.132 9.456 3.079 6.292 4.578 13.159 6.642 19.814 1.04 3.352 2.232 6.666 3.898 9.764 1.73 3.218 4.024 6.034 6.262 8.904 4.071 5.219 7.872 11.187 6.895 18.12-.421 2.99-1.971 6.253-4.694 7.803-2.858 1.628-6.178.444-8.33-1.783-2.55-2.638-3.066-6.276-4.19-9.618-1.066-3.17-3.221-5.507-5.633-7.736-2.407-2.224-4.878-4.352-6.745-7.076-1.962-2.862-3.215-6.161-4.284-9.442-1.073-3.293-1.912-6.688-3.358-9.846-1.573-3.432-3.612-6.641-5.835-9.685-2.306-3.158-4.899-6.047-7.445-9.006-1.941-2.256-2.713-5.313-1.697-8.174a8.3 8.3 0 0 1 2.428-3.54C-.666-3.376 1.466-1.263 0 0" clip-path="url(#ap)" style="fill:#000;fill-opacity:1;fill-rule:nonzero;stroke:none" transform="matrix(1.33333 0 0 -1.33333 313.634 968.136)"/><path d="M0 0c2.043-1.033 3.593-2.924 3.462-5.334C3.21-9.977-.02-13.831-2.017-18.03c-1.995-4.196-2.781-8.847-4.171-13.28s-3.59-8.896-7.495-11.412c-2.006-1.292-4.479-1.998-6.811-1.498-2.333.499-4.429 2.367-4.789 4.725-.157 1.027.008 2.079.293 3.078 1.59 5.563 6.661 9.445 9.041 14.719 1.583 3.508 1.891 7.435 2.744 11.189C-12.203-6.099-9.663.06-4.544.801-3.054 1.016-1.41.712 0 0" clip-path="url(#aq)" style="fill:#fff2d9;fill-opacity:1;fill-rule:nonzero;stroke:none" transform="matrix(1.33333 0 0 -1.33333 486.573 683.74)"/><path d="M0 0c1.368-.731 2.579-1.846 2.716-3.479.142-1.69-.54-3.526-1.238-5.031-1.566-3.373-3.727-6.398-5.063-9.889-2.569-6.719-2.886-15-8.311-20.294-2.39-2.332-6.5-4.143-9.516-1.847-3.087 2.352-1.139 6.416.517 9.044 1.788 2.839 4.097 5.31 5.845 8.176 1.999 3.277 2.762 6.921 3.442 10.649C-10.642-7.375-7.738 3.653 0 0c1.736-.82 3.261 1.766 1.514 2.59-3.623 1.711-7.556 1.259-10.477-1.537-2.37-2.267-3.754-5.504-4.615-8.614-1.168-4.216-1.237-8.802-3.234-12.765-1.771-3.515-4.585-6.345-6.673-9.656-2.036-3.226-3.862-7.75-1.384-11.233 2.487-3.497 7.054-4.072 10.824-2.48 8.413 3.553 10.002 13.57 12.29 21.308.734 2.484 1.676 4.83 2.94 7.092 1.173 2.101 2.443 4.144 3.365 6.374.85 2.058 1.527 4.506.986 6.731-.518 2.129-2.137 3.773-4.022 4.78C-.188 3.5-1.705.911 0 0" clip-path="url(#ar)" style="fill:#000;fill-opacity:1;fill-rule:nonzero;stroke:none" transform="matrix(1.33333 0 0 -1.33333 485.563 685.466)"/></svg>