<svg xmlns="http://www.w3.org/2000/svg" width="1440" height="1440" viewBox="0 0 1440 1440"><defs><clipPath id="a" clipPathUnits="userSpaceOnUse"><path d="M-263.728 775.558h1080v-1080h-1080Z"/></clipPath><clipPath id="b" clipPathUnits="userSpaceOnUse"><path d="M-263.728 774.058h1080v-1080h-1080Z"/></clipPath><clipPath id="c" clipPathUnits="userSpaceOnUse"><path d="M-263.884 754.177h1080v-1080h-1080Z"/></clipPath><clipPath id="d" clipPathUnits="userSpaceOnUse"><path d="M-263.884 752.677h1080v-1080h-1080Z"/></clipPath><clipPath id="e" clipPathUnits="userSpaceOnUse"><path d="M-708.55 804.532h1080v-1080h-1080Z"/></clipPath><clipPath id="f" clipPathUnits="userSpaceOnUse"><path d="M-708.55 803.032h1080v-1080h-1080Z"/></clipPath><clipPath id="g" clipPathUnits="userSpaceOnUse"><path d="M-787.046 671.953h1080v-1080h-1080Z"/></clipPath><clipPath id="h" clipPathUnits="userSpaceOnUse"><path d="M-786.648 670.507h1080v-1080h-1080Z"/></clipPath><clipPath id="i" clipPathUnits="userSpaceOnUse"><path d="M-504.154 536.67h1080v-1080h-1080Z"/></clipPath><clipPath id="j" clipPathUnits="userSpaceOnUse"><path d="M-503.755 535.223h1080v-1080h-1080Z"/></clipPath><clipPath id="k" clipPathUnits="userSpaceOnUse"><path d="M-321.347 701.71h1080v-1080h-1080Z"/></clipPath><clipPath id="l" clipPathUnits="userSpaceOnUse"><path d="M-320.948 700.263h1080v-1080h-1080Z"/></clipPath><clipPath id="m" clipPathUnits="userSpaceOnUse"><path d="M-425.388 755.094h1080v-1080h-1080Z"/></clipPath><clipPath id="n" clipPathUnits="userSpaceOnUse"><path d="M-485.5 768.47h1080v-1080h-1080Z"/></clipPath><clipPath id="o" clipPathUnits="userSpaceOnUse"><path d="M-513.222 784.495h1080v-1080h-1080Z"/></clipPath><clipPath id="p" clipPathUnits="userSpaceOnUse"><path d="M-564.17 786.231h1080v-1080h-1080Z"/></clipPath><clipPath id="q" clipPathUnits="userSpaceOnUse"><path d="M-574.815 770.292h1080v-1080h-1080Z"/></clipPath><clipPath id="r" clipPathUnits="userSpaceOnUse"><path d="M-617.734 770.292h1080v-1080h-1080Z"/></clipPath><clipPath id="s" clipPathUnits="userSpaceOnUse"><path d="M-662.762 781.706h1080v-1080h-1080Z"/></clipPath><clipPath id="t" clipPathUnits="userSpaceOnUse"><path d="M-405.089 606.053h1080v-1080h-1080Z"/></clipPath><clipPath id="u" clipPathUnits="userSpaceOnUse"><path d="M-474.51 630.788h1080v-1080h-1080Z"/></clipPath><clipPath id="v" clipPathUnits="userSpaceOnUse"><path d="M-503.362 648.863h1080v-1080h-1080Z"/></clipPath><clipPath id="w" clipPathUnits="userSpaceOnUse"><path d="M-555.577 648.863h1080v-1080h-1080Z"/></clipPath><clipPath id="x" clipPathUnits="userSpaceOnUse"><path d="M-645.014 637.951h1080v-1080h-1080Z"/></clipPath><clipPath id="y" clipPathUnits="userSpaceOnUse"><path d="M-466.207 714.484h1080v-1080h-1080Z"/></clipPath><clipPath id="z" clipPathUnits="userSpaceOnUse"><path d="M-565.487 714.484h1080v-1080h-1080Z"/></clipPath><clipPath id="A" clipPathUnits="userSpaceOnUse"><path d="M-605.251 703.572h1080v-1080h-1080Z"/></clipPath><clipPath id="B" clipPathUnits="userSpaceOnUse"><path d="M-781.716 458.081h1080v-1080h-1080Z"/></clipPath><clipPath id="C" clipPathUnits="userSpaceOnUse"><path d="M-781.716 456.581h1080v-1080h-1080Z"/></clipPath><clipPath id="D" clipPathUnits="userSpaceOnUse"><path d="M-705.87 441.74h1080v-1080h-1080Z"/></clipPath><clipPath id="E" clipPathUnits="userSpaceOnUse"><path d="M-704.423 441.341h1080v-1080h-1080Z"/></clipPath><clipPath id="F" clipPathUnits="userSpaceOnUse"><path d="M-601.64 361.338h1080v-1080h-1080Z"/></clipPath><clipPath id="G" clipPathUnits="userSpaceOnUse"><path d="M-601.242 359.891h1080v-1080h-1080Z"/></clipPath><clipPath id="H" clipPathUnits="userSpaceOnUse"><path d="M-569.743 390.144h1080v-1080h-1080Z"/></clipPath><clipPath id="I" clipPathUnits="userSpaceOnUse"><path d="M-569.345 391.59h1080v-1080h-1080Z"/></clipPath><clipPath id="J" clipPathUnits="userSpaceOnUse"><path d="M-550.123 416.222h1080v-1080h-1080Z"/></clipPath><clipPath id="K" clipPathUnits="userSpaceOnUse"><path d="M-550.522 414.776h1080v-1080h-1080Z"/></clipPath><clipPath id="L" clipPathUnits="userSpaceOnUse"><path d="M-717.565 446.16h1080v-1080h-1080Z"/></clipPath><clipPath id="M" clipPathUnits="userSpaceOnUse"><path d="M-717.964 444.714h1080v-1080h-1080Z"/></clipPath><clipPath id="N" clipPathUnits="userSpaceOnUse"><path d="M-647.228 425.4h1080v-1080h-1080Z"/></clipPath><clipPath id="O" clipPathUnits="userSpaceOnUse"><path d="M-647.627 423.953h1080v-1080h-1080Z"/></clipPath><clipPath id="P" clipPathUnits="userSpaceOnUse"><path d="M-623.594 416.335h1080v-1080h-1080Z"/></clipPath><clipPath id="Q" clipPathUnits="userSpaceOnUse"><path d="M-622.147 415.936h1080v-1080h-1080Z"/></clipPath><clipPath id="R" clipPathUnits="userSpaceOnUse"><path d="M-608.633 413.66h1080v-1080h-1080Z"/></clipPath><clipPath id="S" clipPathUnits="userSpaceOnUse"><path d="M10.79 23.342c-1.58-8.834 7.374-17.825 20-20.082s24.144 3.073 25.723 11.906S49.137 32.99 36.51 35.248c-1.96.35-3.893.518-5.767.518-10.194-.001-18.62-4.963-19.955-12.424"/></clipPath><clipPath id="T" clipPathUnits="userSpaceOnUse"><path d="M9.494 24.099C7.914 15.265 16.87 6.274 29.496 4.017 42.123 1.759 53.64 7.09 55.22 15.923s-7.376 17.824-20.003 20.082c-1.96.35-3.893.518-5.767.518-10.194-.001-18.62-4.963-19.955-12.424"/></clipPath><clipPath id="U" clipPathUnits="userSpaceOnUse"><path d="M-607.187 413.261h1080v-1080h-1080Z"/></clipPath><clipPath id="V" clipPathUnits="userSpaceOnUse"><path d="M-714.926 432.665h1080v-1080h-1080Z"/></clipPath><clipPath id="W" clipPathUnits="userSpaceOnUse"><path d="M-713.48 432.266h1080v-1080h-1080Z"/></clipPath><clipPath id="X" clipPathUnits="userSpaceOnUse"><path d="M-699.965 429.99h1080v-1080h-1080Z"/></clipPath><clipPath id="Y" clipPathUnits="userSpaceOnUse"><path d="M10.79 23.34C9.21 14.51 18.164 5.519 30.791 3.26s24.143 3.073 25.722 11.906-7.376 17.824-20.003 20.08a33 33 0 0 1-5.768.52c-10.195 0-18.62-4.963-19.954-12.425"/></clipPath><clipPath id="Z" clipPathUnits="userSpaceOnUse"><path d="M9.494 24.098C7.914 15.266 16.87 6.275 29.497 4.017S53.64 7.09 55.22 15.923s-7.376 17.824-20.003 20.08a33 33 0 0 1-5.768.52c-10.195 0-18.62-4.963-19.954-12.425"/></clipPath><clipPath id="aa" clipPathUnits="userSpaceOnUse"><path d="M-698.519 429.591h1080v-1080h-1080Z"/></clipPath><clipPath id="ab" clipPathUnits="userSpaceOnUse"><path d="M-596.408 438.15h1080v-1080h-1080Z"/></clipPath><clipPath id="ac" clipPathUnits="userSpaceOnUse"><path d="M-596.408 439.65h1080v-1080h-1080Z"/></clipPath><clipPath id="ad" clipPathUnits="userSpaceOnUse"><path d="M-596.366 448.405h1080v-1080h-1080Z"/></clipPath><clipPath id="ae" clipPathUnits="userSpaceOnUse"><path d="M-644.615 462.125h1080v-1080h-1080Z"/></clipPath><clipPath id="af" clipPathUnits="userSpaceOnUse"><path d="M-596.31 449.316h1080v-1080h-1080Z"/></clipPath><clipPath id="ag" clipPathUnits="userSpaceOnUse"><path d="M-607.356 479.458h1080v-1080h-1080Z"/></clipPath><clipPath id="ah" clipPathUnits="userSpaceOnUse"><path d="M-647.58 434.098h1080v-1080h-1080Z"/></clipPath><clipPath id="ai" clipPathUnits="userSpaceOnUse"><path d="M-646.135 433.7h1080v-1080h-1080Z"/></clipPath><clipPath id="aj" clipPathUnits="userSpaceOnUse"><path d="M-631.601 427.223h1080v-1080h-1080Z"/></clipPath><clipPath id="ak" clipPathUnits="userSpaceOnUse"><path d="M-630.155 426.824h1080v-1080h-1080Z"/></clipPath></defs><path d="M0 0h1080v1080H0Z" style="fill:#fff;fill-opacity:1;fill-rule:nonzero;stroke:none" transform="matrix(1.33333 0 0 -1.33333 0 1440)"/><path d="M0 0c-17.628.128-33.656 9.777-42.874 25.811-10.239 17.808-10.257 39.949-.048 57.783 14.045 24.534 32.214 45.563 48.603 56.252 16.869 11.005 36.472 16.822 56.689 16.822 6.434 0 12.835-.603 19.11-1.783 4.152 24.037 16.312 46.224 34.427 61.059 15.154 12.411 34.295 19.246 53.896 19.246 4.367 0 8.707-.34 12.982-1.01 8.754 30.116 31.524 58.711 53.961 72.687 21.581 13.442 45.615 20.258 71.433 20.258 24.601 0 50.579-6.488 75.124-18.763 24.403-12.203 44.979-33.739 57.939-60.64 8.909-18.493 13.47-38.185 13.492-57.432q1.543.03 3.061.029c23.353 0 44.044-5.088 61.498-15.123 26.554-15.267 44.605-43.018 48.4-72.066 21.938-6.772 36.307-27.924 35.374-54.172-1.09-30.695-22.465-52.975-50.825-52.975Z" clip-path="url(#a)" style="fill:#fff2d9;fill-opacity:1;fill-rule:nonzero;stroke:none" transform="matrix(1.33333 0 0 -1.33333 351.637 1034.077)"/><path d="M0 0c-15.619.264-30.011 8.141-38.951 20.929-9.896 14.155-12.666 32.521-7.612 49.011 2.719 8.872 7.919 16.818 13.03 24.479 4.926 7.384 10.289 14.482 16.154 21.147 10.616 12.064 22.747 22.282 37.452 28.987 19.015 8.67 40.483 11.123 61.008 7.385.739-.134 1.694.195 1.845 1.048 6.317 35.548 30.41 67.513 66.388 76.641 10.802 2.741 22.055 3.252 33.073 1.607.814-.122 1.592.194 1.845 1.048 6.998 23.635 21.444 45.436 39.887 61.725 18.524 16.36 42.832 26.167 67.242 29.125 26.163 3.171 52.762-1.484 77.115-11.23 22.496-9.002 41.888-22.782 56.628-42.147 17.627-23.157 27.962-51.8 28.13-80.965.004-.801.683-1.513 1.5-1.5 21.277.339 42.758-3.43 61.602-13.662 17.303-9.395 31.369-24.127 40.303-41.646a96.2 96.2 0 0 0 9.608-30.751c.069-.512.596-.904 1.047-1.048 21.265-6.766 33.808-27.045 34.299-48.827.467-20.703-9.281-41.598-28.536-50.794-10.812-5.164-22.029-4.57-33.541-4.486l-45.286.329-68.997.502-84.755.616-90.792.661-88.216.641-76.75.559-56.395.41c-9.046.066-18.102.269-27.148.197C.785-.012.392-.003 0 0c-1.931.014-1.933-2.986 0-3l19.308-.14 51.455-.375 74.328-.54 88.249-.642 92.257-.671 87.283-.635 73.253-.533 49.537-.36c8.085-.059 16.569-.71 24.598.486 19.259 2.868 34.576 16.854 40.881 35.032 6.775 19.532 3.845 42.988-9.654 58.999-6.161 7.308-14.319 12.564-23.403 15.455l1.048-1.048c-2.68 19.696-11.525 38.286-24.733 53.104-13.686 15.356-31.879 25.787-51.717 30.946-12.375 3.217-25.192 4.415-37.956 4.212l1.5-1.5c-.294 51.001-30.77 100.205-77.138 121.761-24.703 11.484-52.071 17.939-79.394 16.325-25.365-1.499-51.061-10.002-71.354-25.525-22.027-16.851-39.139-41.691-47.009-68.272l1.845 1.048c-19.42 2.9-39.368-.628-56.446-10.412-16.075-9.209-28.764-23.595-36.964-40.12-4.673-9.417-7.903-19.468-9.741-29.812l1.846 1.048c-19.012 3.462-38.74 1.905-56.836-4.978-16.271-6.188-29.946-16.305-41.705-29.018-6.368-6.884-12.174-14.295-17.499-22.01-5.415-7.844-10.971-16.075-14.278-25.068-6.134-16.679-4.345-35.803 4.77-51.055C-34.422 7.227-18.091-2.694 0-3c1.931-.033 1.932 2.967 0 3" clip-path="url(#b)" style="fill:#000;fill-opacity:1;fill-rule:nonzero;stroke:none" transform="matrix(1.33333 0 0 -1.33333 351.637 1032.077)"/><path d="M0 0c-23.365.17-37.21 29.424-24.521 51.591 11.936 20.85 27.859 39.919 41.727 48.966 25.48 16.62 58.34 17.808 84.708 3.063-3.872 27.919 7.132 57.815 27.384 74.4s48.823 19.098 71.103 6.253c-2.229 30.641 23.664 68.22 47.494 83.064 39.003 24.294 84.962 20.888 125.688.521s69.004-74.226 56.732-122.598c26.383 4.163 54.424 3.669 78.165-9.981s41.796-43.109 37.904-72.883a44 44 0 0 0 8.086.168c37.807-2.689 35.255-66.854-2.626-66.579z" clip-path="url(#c)" style="fill:#ff8db6;fill-opacity:1;fill-rule:nonzero;stroke:none" transform="matrix(1.33333 0 0 -1.33333 351.845 1005.57)"/><path d="M0 0c-12.017.242-21.665 8.617-25.67 19.654-2.069 5.702-2.704 11.932-1.723 17.925 1.161 7.086 4.765 13.04 8.536 19.026C-10.503 69.867-.658 82.73 11.401 92.854c11.387 9.56 25.779 15.529 40.495 17.404 16.979 2.164 34.285-1.174 49.261-9.433.886-.489 2.415.103 2.257 1.295-5.304 39.9 19.788 85.237 63.286 87.238a61.03 61.03 0 0 0 32.944-7.881c.936-.53 2.333.127 2.257 1.296-1.518 23.371 11.319 46.676 26.261 63.761 16.592 18.971 39.62 30.56 64.569 33.845 26.65 3.509 53.81-2.619 77.827-14.203 20.471-9.873 36.756-26.589 47.494-46.516 12.35-22.918 17.15-50.04 10.817-75.502-.299-1.2.732-2.018 1.845-1.845 22.263 3.462 45.83 3.688 67.012-4.939 19.289-7.857 34.792-23.451 42.588-42.783 4.311-10.692 5.983-22.242 4.57-33.695-.092-.752.765-1.575 1.5-1.5 8.412.86 17.056-.332 23.577-6.112 4.845-4.294 7.833-10.249 9.216-16.513 2.786-12.616-.717-28.168-11.653-36.016-8.208-5.891-18.354-4.75-27.871-4.681l-44.831.326-69.046.502-84.423.615-90.869.661A2603882 2603882 0 0 0 85.143-.619l-56.746.412-27.218.198zc-1.931.014-1.933-2.986 0-3l19.41-.141 51.527-.375 74.886-.545 87.989-.64 92.792-.675 87.118-.634 72.935-.531 49.104-.357c7.627-.055 16.387-1.065 23.874.774 26.92 6.611 31.363 48.389 9.858 63.577-6.732 4.754-15.08 5.764-23.109 4.943l1.5-1.5c2.612 21.181-5.398 42.43-19.352 58.268-14.991 17.014-36.356 25.727-58.636 27.833-13.34 1.261-26.771.263-39.979-1.791l1.845-1.845c11.386 45.775-11.945 98.149-52.596 121.69-44.994 26.056-108.494 28.138-147.344-10.244-9.801-9.683-18.04-21.159-24.057-33.553-5.778-11.902-9.731-25.137-8.864-38.481l2.257 1.295c-18.433 10.445-41.112 10.983-60.144 1.729-18.924-9.201-31.856-27.449-37.716-47.313-3.47-11.763-4.5-24.205-2.884-36.364l2.257 1.295c-28.241 15.575-64.796 13.678-90.563-6.167C-1.213 86.99-11.91 73.108-20.881 59.014c-4.046-6.356-8.007-12.748-9.34-20.274-1.093-6.169-.701-12.584 1.207-18.558C-24.89 7.268-13.906-2.72 0-3c1.931-.039 1.931 2.961 0 3" clip-path="url(#d)" style="fill:#000;fill-opacity:1;fill-rule:nonzero;stroke:none" transform="matrix(1.33333 0 0 -1.33333 351.845 1003.57)"/><path d="M0 0h-346.559c-21.098 0-38.201 17.103-38.201 38.202s17.103 38.201 38.201 38.201H0c21.098 0 38.202-17.103 38.202-38.201C38.202 17.103 21.098 0 0 0" clip-path="url(#e)" style="fill:#fff2d9;fill-opacity:1;fill-rule:nonzero;stroke:none" transform="matrix(1.33333 0 0 -1.33333 944.733 1072.709)"/><path d="M0 0h-338.462c-8.184 0-16.051-.171-23.743 3.488-12.229 5.816-20.507 18.166-21.026 31.728-.51 13.326 6.376 26.128 17.829 32.987 6.011 3.6 12.751 5.2 19.716 5.2h332.197c4.488 0 8.976.027 13.464 0 12.345-.074 24.038-6.293 30.79-16.679 7.398-11.38 7.888-26.338 1.157-38.144C25.394 7.131 13.139.1 0 0c-1.93-.015-1.934-3.015 0-3 13.323.102 25.849 6.786 33.204 17.932 7.316 11.088 8.468 25.497 3.18 37.655-5.245 12.06-16.575 21.025-29.561 23.225-3.043.515-6.073.591-9.139.591h-324.987c-6.158 0-12.317.005-18.476 0-7.259-.006-14.346-1.671-20.658-5.327-11.452-6.634-18.935-18.807-19.751-32.004-.812-13.12 5.171-26.005 15.601-33.964 7.042-5.373 15.624-8.09 24.452-8.108 5.669-.011 11.338 0 17.007 0H0c1.93 0 1.934 3 0 3" clip-path="url(#f)" style="fill:#000;fill-opacity:1;fill-rule:nonzero;stroke:none" transform="matrix(1.33333 0 0 -1.33333 944.733 1070.709)"/><path d="M0 0c-24.4-9.696-32.26-17.556-41.956-41.956C-51.652-17.556-59.512-9.696-83.912 0c24.4 9.696 32.26 17.556 41.956 41.956C-32.26 17.556-24.4 9.696 0 0" clip-path="url(#g)" style="fill:#fff2d9;fill-opacity:1;fill-rule:nonzero;stroke:none" transform="matrix(1.33333 0 0 -1.33333 1049.395 895.938)"/><path d="M0 0c-7.954-3.168-15.924-6.679-22.728-11.963-5.797-4.502-10.268-10.3-13.762-16.722-2.508-4.609-4.574-9.448-6.514-14.319h2.893c-3.168 7.955-6.679 15.924-11.963 22.728-4.502 5.797-10.3 10.269-16.722 13.763C-73.405-4.006-78.244-1.94-83.114 0v-2.893C-75.16.276-67.191 3.786-60.386 9.07c5.796 4.502 10.268 10.3 13.762 16.722 2.507 4.609 4.573 9.448 6.513 14.319h-2.893c3.169-7.955 6.679-15.924 11.964-22.728 4.501-5.797 10.3-10.269 16.721-13.762C-9.71 1.113-4.87-.953 0-2.893 1.794-3.607 2.572-.707.797 0c-7.529 2.999-15.165 6.349-21.609 11.351-5.536 4.297-9.755 9.829-13.088 15.955-2.384 4.382-4.366 8.971-6.211 13.602-.563 1.416-2.328 1.418-2.893 0-2.999-7.529-6.349-15.165-11.351-21.61-4.297-5.535-9.829-9.754-15.955-13.087C-74.692 3.827-79.281 1.845-83.912 0c-1.415-.564-1.418-2.328 0-2.893 7.529-2.999 15.166-6.349 21.61-11.351 5.536-4.297 9.755-9.829 13.087-15.955 2.384-4.382 4.367-8.971 6.211-13.602.564-1.415 2.328-1.418 2.893 0 2.999 7.529 6.35 15.165 11.352 21.61 4.297 5.535 9.829 9.754 15.954 13.087C-8.422-6.72-3.833-4.737.797-2.893 2.57-2.187 1.797.716 0 0" clip-path="url(#h)" style="fill:#000;fill-opacity:1;fill-rule:nonzero;stroke:none" transform="matrix(1.33333 0 0 -1.33333 1048.863 894.01)"/><path d="M0 0c-24.4-9.696-32.26-17.556-41.956-41.956C-51.652-17.556-59.512-9.696-83.912 0c24.4 9.696 32.26 17.556 41.956 41.956C-32.26 17.556-24.4 9.696 0 0" clip-path="url(#i)" style="fill:#fff2d9;fill-opacity:1;fill-rule:nonzero;stroke:none" transform="matrix(1.33333 0 0 -1.33333 672.205 715.56)"/><path d="M0 0c-7.954-3.168-15.924-6.679-22.728-11.963-5.797-4.502-10.268-10.3-13.762-16.722-2.508-4.609-4.574-9.448-6.514-14.319h2.893c-3.168 7.955-6.679 15.924-11.963 22.728-4.502 5.797-10.3 10.269-16.722 13.763C-73.405-4.006-78.244-1.94-83.114 0v-2.893C-75.16.276-67.191 3.786-60.386 9.07c5.796 4.502 10.268 10.3 13.762 16.722 2.507 4.609 4.573 9.448 6.513 14.319h-2.893c3.169-7.955 6.679-15.924 11.964-22.728 4.501-5.797 10.3-10.268 16.721-13.762C-9.71 1.113-4.87-.953 0-2.893 1.794-3.607 2.572-.707.798 0c-7.53 2.999-15.166 6.349-21.61 11.352-5.536 4.296-9.755 9.828-13.088 15.954-2.384 4.382-4.366 8.971-6.211 13.602-.563 1.416-2.328 1.418-2.893 0-2.998-7.529-6.349-15.165-11.351-21.61-4.297-5.535-9.829-9.754-15.955-13.087C-74.692 3.827-79.281 1.845-83.912 0c-1.415-.564-1.418-2.328 0-2.893 7.529-2.999 15.166-6.349 21.61-11.351 5.536-4.297 9.755-9.829 13.087-15.955 2.385-4.382 4.367-8.971 6.211-13.602.564-1.415 2.328-1.418 2.893 0 2.999 7.529 6.35 15.165 11.352 21.61 4.297 5.535 9.829 9.754 15.955 13.087C-8.422-6.72-3.833-4.737.798-2.893 2.57-2.187 1.797.716 0 0" clip-path="url(#j)" style="fill:#000;fill-opacity:1;fill-rule:nonzero;stroke:none" transform="matrix(1.33333 0 0 -1.33333 671.673 713.631)"/><path d="M0 0c-14.959-5.944-19.777-10.763-25.722-25.722C-31.666-10.763-36.485-5.944-51.443 0c14.958 5.944 19.777 10.763 25.721 25.722C-19.777 10.763-14.959 5.944 0 0" clip-path="url(#k)" style="fill:#fff2d9;fill-opacity:1;fill-rule:nonzero;stroke:none" transform="matrix(1.33333 0 0 -1.33333 428.462 935.612)"/><path d="M0 0c-4.936-1.969-9.868-4.136-14.095-7.41-3.636-2.817-6.446-6.438-8.635-10.465-1.556-2.863-2.833-5.871-4.039-8.894h2.893c-1.969 4.936-4.137 9.868-7.411 14.095-2.816 3.635-6.438 6.446-10.464 8.635-2.863 1.556-5.871 2.833-8.895 4.039v-2.893c4.936 1.969 9.869 4.136 14.095 7.411 3.636 2.816 6.447 6.437 8.635 10.464 1.556 2.863 2.833 5.871 4.04 8.894h-2.893c1.969-4.935 4.136-9.868 7.41-14.094 2.817-3.636 6.438-6.447 10.465-8.635C-6.031-.409-3.024-1.687 0-2.893 1.793-3.608 2.572-.708.798 0c-5.575 2.224-11.277 4.792-15.58 9.095-4.302 4.302-6.871 10.005-9.094 15.579-.565 1.415-2.328 1.418-2.893 0-2.224-5.574-4.793-11.277-9.095-15.579S-45.869 2.224-51.443 0c-1.416-.565-1.418-2.327 0-2.893 5.574-2.223 11.276-4.792 15.579-9.095 4.302-4.302 6.871-10.005 9.095-15.579.564-1.415 2.327-1.418 2.893 0 2.223 5.574 4.792 11.277 9.094 15.579C-10.479-7.685-4.777-5.116.798-2.893 2.569-2.186 1.796.717 0 0" clip-path="url(#l)" style="fill:#000;fill-opacity:1;fill-rule:nonzero;stroke:none" transform="matrix(1.33333 0 0 -1.33333 427.93 933.684)"/><path d="M1.653-39.34h31.875v16.57H21.235v2.274h12.293v3.586H21.235v2.273h12.809V0H1.654Zm55.896 5.121q4.498 0 8.11.516 3.62.518 4.991 1.031l1.301.504v14.238q-3.868-1.991-11.554-1.992v1.36q7.065.694 9.68 2.46Q72.7-14.343 72.7-9.68q0 4.667-3.48 7.465Q65.75.575 57.104.575 52.485.572 48.9.058q-3.587-.514-4.898-1.032l-1.313-.504v-12.351q1.592.8 4.922 1.453 3.34.645 6.868.645v-1.36q-6.095-.572-9.223-2.789-3.129-2.223-3.129-7.207 0-4.98 3.809-8.05 3.817-3.082 11.613-3.083m43.38 16.453v2.567h5.12v13.43q-.281.294-.937.667-.659.365-3.386 1.02-2.733.656-6.317.656-13.043 0-13.043-11.39v-6.95h-2.215v-14.168q2.448-.736 4.325-2.73 1.885-2.003 2.566-3.598l.68-1.64h14.285v6.258h4.043v15.878ZM124.976.516q-6.178 0-8.743-2.25-2.556-2.248-2.554-7.371-.002-5.132 2.59-7.29 2.588-2.166 8.707-2.167 6.126.001 8.777 2.191 2.647 2.192 2.648 7.289 0 5.098-2.625 7.348-2.613 2.25-8.8 2.25M165.142 0v-34.441l19.582-4.899V0Zm40.013-14.238q3.186 0 5.356-.68v-1.312a14.7 14.7 0 0 1-4.383.691q-7.41.001-10.336-2.906-2.93-2.906-2.93-9 0-12.35 17.309-12.352 9.502.002 13.91 5.04 4.417 5.04 4.418 15.398Q228.498.516 208.062.516q-4.22-.001-7.864-.715-3.635-.712-5.226-1.395l-1.547-.738 1.945-13.605q3.41 1.7 9.785 1.699m3.082-9.047v2.332q-.001.738.446 1.195.455.457 1.148.457 1.64 0 1.64-1.652v-2.332q0-.738-.456-1.195-.448-.457-1.137-.457-.68 0-1.16.457-.482.456-.48 1.195m39.841 9.047q3.185 0 5.356-.68v-1.312a14.7 14.7 0 0 1-4.383.691q-7.41.001-10.336-2.906-2.93-2.906-2.93-9 0-12.35 17.309-12.352 9.501.002 13.91 5.04 4.417 5.04 4.418 15.398Q271.42.516 250.984.516q-4.219-.001-7.863-.715-3.635-.712-5.226-1.395l-1.547-.738 1.945-13.605q3.409 1.7 9.785 1.699m3.082-9.047v2.332q-.001.738.445 1.195.456.457 1.149.457 1.64 0 1.64-1.652v-2.332q0-.738-.456-1.195-.449-.457-1.137-.457-.681 0-1.16.457c-.323.304-.48.703-.48 1.195m27.548 3.422q-.001-10.31 4.582-15.117 4.58-4.817 14.402-4.817 9.819 0 14.543 4.781 4.722 4.783 4.723 15.094-.001 10.302-4.664 15.375-4.666 5.063-14.52 5.063-9.845 0-14.46-5.04-4.605-5.037-4.606-15.34m17.133 1.535h3.762q1.652.001 1.652-1.594c0-1.06-.55-1.594-1.652-1.594h-3.762q-1.595.002-1.594 1.594-.001 1.595 1.594 1.594m0 0" aria-label="Est. 1990" style="fill:#45db82;fill-opacity:1;fill-rule:nonzero;stroke:none" transform="translate(505.932 1048.309)scale(1.33333)"/><path d="M0 0h32.391v14.63H19.583v2.277h12.296v3.586H19.583v2.278h12.296v16.564H0Z" style="fill:none;stroke:#000;stroke-width:2;stroke-linecap:butt;stroke-linejoin:miter;stroke-miterlimit:10;stroke-dasharray:none;stroke-opacity:1" transform="matrix(1.33333 0 0 -1.33333 508.133 1048.309)"/><path d="M0 0q-3.814-3.073-3.814-8.055 0-4.98 3.13-7.201t9.223-2.789v-1.366q-3.53 0-6.859.654-3.332.655-4.925 1.452v-12.352l1.309-.513q1.31-.514 4.896-1.024 3.586-.513 8.197-.513 8.653 0 12.125 2.789 3.473 2.79 3.473 7.458 0 4.666-2.619 6.432-2.619 1.765-9.677 2.448v1.366q7.685 0 11.556-1.992V1.025l-1.31.512q-1.366.513-4.98 1.025-3.616.512-8.113.512Q3.813 3.074 0 0Z" clip-path="url(#m)" style="fill:none;stroke:#000;stroke-width:2;stroke-linecap:butt;stroke-linejoin:miter;stroke-miterlimit:10;stroke-dasharray:none;stroke-opacity:1" transform="matrix(1.33333 0 0 -1.33333 567.184 1006.792)"/><path d="M0 0v15.882h-4.042v6.262H-18.33l-.684-1.651q-.682-1.595-2.561-3.587t-4.326-2.732V0h2.219v-6.945q0-11.385 13.036-11.385 3.587 0 6.32.654 2.732.655 3.387 1.026.653.368.939.654v13.434h-5.124V0Z" clip-path="url(#n)" style="fill:none;stroke:#000;stroke-width:2;stroke-linecap:butt;stroke-linejoin:miter;stroke-miterlimit:10;stroke-dasharray:none;stroke-opacity:1" transform="matrix(1.33333 0 0 -1.33333 647.333 1024.628)"/><path d="M0 0q2.618 2.248 2.618 7.343T-.028 14.63q-2.649 2.19-8.767 2.191-6.12 0-8.71-2.163t-2.59-7.286q0-5.124 2.562-7.372 2.562-2.25 8.738-2.249T0 0z" clip-path="url(#o)" style="fill:none;stroke:#000;stroke-width:2;stroke-linecap:butt;stroke-linejoin:miter;stroke-miterlimit:10;stroke-dasharray:none;stroke-opacity:1" transform="matrix(1.33333 0 0 -1.33333 684.296 1045.994)"/><path d="M0 0v39.335l-19.583-4.896V0Z" clip-path="url(#p)" style="fill:none;stroke:#000;stroke-width:2;stroke-linecap:butt;stroke-linejoin:miter;stroke-miterlimit:10;stroke-dasharray:none;stroke-opacity:1" transform="matrix(1.33333 0 0 -1.33333 752.227 1048.309)"/><path d="m0 0-1.936-13.605 1.538-.741q1.593-.683 5.237-1.394 3.643-.712 7.855-.712 20.436 0 20.437 19.867-.001 10.36-4.412 15.398-4.413 5.039-13.918 5.039-17.306 0-17.306-12.354 0-6.091 2.932-8.994T10.759-.398q2.163 0 4.384.682v-1.309q-2.165-.683-5.352-.683Q3.416-1.708 0 0Zm13.35 8.538q.482.456 1.167.456.682 0 1.137-.456.456-.456.456-1.195V5.009q0-1.651-1.651-1.651a1.55 1.55 0 0 0-1.139.455q-.455.456-.455 1.196v2.334q0 .74.485 1.195z" clip-path="url(#q)" style="fill:none;stroke:#000;stroke-width:2;stroke-linecap:butt;stroke-linejoin:miter;stroke-miterlimit:10;stroke-dasharray:none;stroke-opacity:1" transform="matrix(1.33333 0 0 -1.33333 766.42 1027.056)"/><path d="m0 0-1.936-13.605 1.538-.741q1.593-.683 5.237-1.394 3.643-.712 7.855-.712 20.436 0 20.437 19.867-.001 10.36-4.412 15.398-4.413 5.039-13.918 5.039-17.306 0-17.306-12.354 0-6.091 2.932-8.994T10.759-.398q2.163 0 4.384.682v-1.309q-2.165-.683-5.352-.683Q3.416-1.708 0 0Zm13.35 8.538q.482.456 1.167.456.682 0 1.137-.456.456-.456.456-1.195V5.009q0-1.651-1.651-1.651a1.55 1.55 0 0 0-1.139.455q-.455.456-.455 1.196v2.334q0 .74.485 1.195z" clip-path="url(#r)" style="fill:none;stroke:#000;stroke-width:2;stroke-linecap:butt;stroke-linejoin:miter;stroke-miterlimit:10;stroke-dasharray:none;stroke-opacity:1" transform="matrix(1.33333 0 0 -1.33333 823.646 1027.056)"/><path d="M0 0q4.61-5.037 14.459-5.038 9.847 0 14.516 5.066 4.667 5.067 4.668 15.37 0 10.304-4.725 15.085-4.725 4.783-14.544 4.783-9.82-.001-14.402-4.811-4.584-4.81-4.583-15.113T0 0Zm10.93 15.398q0 1.593 1.593 1.594h3.757q1.652 0 1.652-1.594 0-1.593-1.652-1.593h-3.757q-1.593 0-1.593 1.593z" clip-path="url(#s)" style="fill:none;stroke:#000;stroke-width:2;stroke-linecap:butt;stroke-linejoin:miter;stroke-miterlimit:10;stroke-dasharray:none;stroke-opacity:1" transform="matrix(1.33333 0 0 -1.33333 883.682 1042.275)"/><path d="M24.632-46.933q5.495 0 10.277.703 4.793.705 6.867 1.442l2.004.738v19.15q-5.415-2.484-14.86-2.485v1.746q8.707.669 12.517 3.48 3.819 2.814 3.82 8.509 0 6.82-5.555 10.57Q34.146.67 22.558.669q-6.621 0-11.72-.762-5.088-.773-6.82-1.512l-1.804-.808v-16.664q.597.272 1.805.738 1.205.47 5.39 1.207 4.185.728 9 .727v-1.606q-8.168-.597-12.316-3.48T1.944-31.534t5.684-11.274q5.694-4.123 17.004-4.125m52.424.668h22.02v25.711q0 10.854-5.52 16.043Q88.036.67 75.978.67h-1.735q-11.988 0-17.508-5.216-5.52-5.224-5.52-16.008v-25.71h21.962v28.183q0 .88.527 1.383.537.492 1.371.492.844 0 1.406-.527.573-.538.575-1.348zm28.854 0h20.485l4.218 13.793v-13.793h20.614V.001h-20.614l-3.55-13.523V0H105.91zm52.216 0h20.484l4.22 13.793v-13.793h20.612V.001H182.83l-3.55-13.523V0h-21.153ZM247.564.001h-25.102v-10.91q-1.876-.809-2.613-1.137-.74-.338-2.38-1.406-1.642-1.077-2.437-2.215-2.214-3.01-2.812-7.43l-2.883-23.168h23.695l1.676 22.899h1.477l1.406-22.899h23.098l-2.883 23.168q-.598 4.42-2.813 7.43-.8 1.138-2.437 2.215-1.642 1.067-2.38 1.406-.738.33-2.612 1.137zm0 0" aria-label="SUNNY" style="fill:#44cdf2;fill-opacity:1;fill-rule:nonzero;stroke:none" transform="translate(529.943 865.151)scale(1.33333)"/><path d="M0 0q-5.69-4.117-5.69-11.279-.001-7.165 4.15-10.042 4.15-2.879 12.318-3.482v-1.606q-4.821 0-9.005.736-4.183.736-5.388 1.205-1.206.468-1.808.737V-40.4l1.808-.804q1.74-.736 6.828-1.506 5.087-.77 11.716-.77 11.58 0 17.137 3.749t5.557 10.577q0 5.69-3.816 8.502-3.817 2.812-12.519 3.481v1.74q9.44 0 14.861-2.476V1.239l-2.007.737q-2.076.735-6.863 1.439-4.786.702-10.275.702Q5.69 4.117 0 0Z" clip-path="url(#t)" style="fill:none;stroke:#000;stroke-width:2;stroke-linecap:butt;stroke-linejoin:miter;stroke-miterlimit:10;stroke-dasharray:none;stroke-opacity:1" transform="matrix(1.33333 0 0 -1.33333 540.119 808.07)"/><path d="M0 0q0-.804-.569-1.339-.57-.537-1.407-.536-.837 0-1.372.503-.535.5-.535 1.372v28.184h-21.958V2.477q0-10.779 5.523-16 5.522-5.222 17.506-5.222h1.741q12.049 0 17.573 5.188 5.523 5.188 5.522 16.034v25.707H0Z" clip-path="url(#u)" style="fill:none;stroke:#000;stroke-width:2;stroke-linecap:butt;stroke-linejoin:miter;stroke-miterlimit:10;stroke-dasharray:none;stroke-opacity:1" transform="matrix(1.33333 0 0 -1.33333 632.68 841.05)"/><path d="M0 0h21.154v13.522L24.702 0h20.619v46.259H24.702V32.468l-4.217 13.791H0Z" clip-path="url(#v)" style="fill:none;stroke:#000;stroke-width:2;stroke-linecap:butt;stroke-linejoin:miter;stroke-miterlimit:10;stroke-dasharray:none;stroke-opacity:1" transform="matrix(1.33333 0 0 -1.33333 671.15 865.151)"/><path d="M0 0h21.154v13.522L24.702 0h20.619v46.259H24.702V32.468l-4.217 13.791H0Z" clip-path="url(#w)" style="fill:none;stroke:#000;stroke-width:2;stroke-linecap:butt;stroke-linejoin:miter;stroke-miterlimit:10;stroke-dasharray:none;stroke-opacity:1" transform="matrix(1.33333 0 0 -1.33333 740.77 865.151)"/><path d="M0 0q1.873.802 2.611 1.138.736.333 2.376 1.406 1.641 1.07 2.445 2.209 2.208 3.012 2.811 7.431l2.878 23.163H-9.975l-1.405-22.896h-1.473l-1.673 22.896h-23.699l2.878-23.163q.603-4.419 2.813-7.431.801-1.14 2.443-2.209 1.64-1.073 2.376-1.406.736-.336 2.611-1.138v-10.912H0Z" clip-path="url(#x)" style="fill:none;stroke:#000;stroke-width:2;stroke-linecap:butt;stroke-linejoin:miter;stroke-miterlimit:10;stroke-dasharray:none;stroke-opacity:1" transform="matrix(1.33333 0 0 -1.33333 860.018 850.602)"/><path d="M1.944-46.267h24.164q11.18.001 17.098 5.356 5.929 5.356 5.93 17.472Q49.135.001 25.17 0H1.944Zm22.489 19.489V-15.2h1.875q.809 0 1.37-.528.574-.537.575-1.418v-7.757q-.001-.81-.574-1.336a1.92 1.92 0 0 0-1.371-.54zM79-.001l-.41-7.16h-4.078l-.399 7.16H53.021q.668-10.978 2.742-22.523 2.073-11.554 3.82-17.649l1.676-6.094h31.734q.726 2.416 1.863 6.703 1.147 4.28 3.352 16.43Q100.422-10.978 101.22 0zm-3.48-23.766-.54 10.442h3.141l-.469-10.442zM140.987 0h-25.101v-10.91a262 262 0 0 1-2.614-1.137q-.739-.338-2.378-1.406-1.644-1.077-2.438-2.215-2.215-3.01-2.812-7.43l-2.883-23.168h23.695l1.676 22.899h1.476l1.407-22.899h23.097l-2.882 23.168q-.598 4.42-2.813 7.43-.8 1.138-2.437 2.215-1.642 1.067-2.38 1.406-.74.33-2.613 1.137zm0 0" aria-label="DAY" style="fill:#44cdf2;fill-opacity:1;fill-rule:nonzero;stroke:none" transform="translate(619.02 952.646)scale(1.33333)"/><path d="M0 0h23.229q23.966 0 23.967 23.431 0 12.116-5.925 17.472-5.925 5.355-17.104 5.356H0Zm24.368 26.777q.802 0 1.372-.535.57-.536.57-1.339v-7.765q0-.87-.57-1.406a1.93 1.93 0 0 0-1.372-.536h-1.875v11.581z" clip-path="url(#y)" style="fill:none;stroke:#000;stroke-width:2;stroke-linecap:butt;stroke-linejoin:miter;stroke-miterlimit:10;stroke-dasharray:none;stroke-opacity:1" transform="matrix(1.33333 0 0 -1.33333 621.61 952.646)"/><path d="M0 0q-.804 10.979-3.013 23.129T-6.36 39.564t-1.874 6.695h-31.732l-1.674-6.092q-1.742-6.092-3.816-17.641Q-47.532 10.979-48.2 0h21.087l.402 7.163h4.083L-22.226 0Zm-23.564 23.766.467-10.444h-3.146l.536 10.444z" clip-path="url(#z)" style="fill:none;stroke:#000;stroke-width:2;stroke-linecap:butt;stroke-linejoin:miter;stroke-miterlimit:10;stroke-dasharray:none;stroke-opacity:1" transform="matrix(1.33333 0 0 -1.33333 753.983 952.646)"/><path d="M0 0q1.873.802 2.611 1.138.736.333 2.376 1.406 1.641 1.07 2.445 2.209 2.208 3.012 2.811 7.431l2.878 23.163H-9.975l-1.405-22.896h-1.473l-1.673 22.896h-23.699l2.878-23.163q.603-4.419 2.813-7.431.801-1.14 2.443-2.209 1.64-1.073 2.376-1.406.736-.336 2.611-1.138v-10.912H0Z" clip-path="url(#A)" style="fill:none;stroke:#000;stroke-width:2;stroke-linecap:butt;stroke-linejoin:miter;stroke-miterlimit:10;stroke-dasharray:none;stroke-opacity:1" transform="matrix(1.33333 0 0 -1.33333 807.001 938.096)"/><path d="M0 0c-57.861-3.957-62.94-16.702-23.081-58.441-54.326 19.516-63.687 10.081-42.233-43.542-42.866 38.706-54.96 33.195-55.479-24.528-25.341 51.852-39.056 51.505-62.818-1.4-3.957 57.861-16.701 62.939-58.44 23.08 19.515 54.327 10.08 63.687-43.542 42.234 38.705 42.866 33.194 54.96-24.529 55.478 51.853 25.342 51.505 39.057-1.4 62.818 57.861 3.957 62.94 16.702 23.081 58.441 54.326-19.516 63.687-10.081 42.233 43.542 42.866-38.706 54.96-33.194 55.479 24.529 25.341-51.853 39.056-51.506 62.818 1.4 3.956-57.862 16.701-62.94 58.44-23.081-19.515-54.326-10.08-63.687 43.542-42.233C-64.634 75.43-59.123 63.336-1.4 62.818-53.253 37.477-52.905 23.762 0 0" clip-path="url(#B)" style="fill:#fad902;fill-opacity:1;fill-rule:nonzero;stroke:none" transform="matrix(1.33333 0 0 -1.33333 1042.288 610.775)"/><path d="M0 0c-9.562-.66-19.208-1.519-28.585-3.586-5.792-1.277-11.974-3.02-16.684-6.793-3.386-2.713-5.37-6.62-5.164-10.997.265-5.631 3.207-10.943 6.219-15.555 5.709-8.744 12.887-16.536 20.073-24.07l1.459 2.507c-8.915 3.197-17.977 6.257-27.283 8.107-5.678 1.129-11.954 2.08-17.654.545-4.189-1.128-7.395-3.909-8.849-8.021-1.836-5.19-.967-11.193.085-16.445 2.034-10.16 5.791-19.981 9.623-29.573l2.507 1.459c-7.059 6.366-14.314 12.651-22.24 17.926-4.848 3.225-10.31 6.448-16.198 7.165-4.223.515-8.293-.839-11.106-4.093-3.65-4.221-5.165-10.028-6.177-15.387-1.936-10.246-2.219-20.803-2.319-31.2l2.795.757c-4.194 8.566-8.598 17.143-14.074 24.976-3.302 4.723-7.169 9.708-12.328 12.519-3.884 2.117-8.174 2.383-12.211.53-5.075-2.331-8.851-7.127-11.965-11.592-6.01-8.618-10.531-18.282-14.83-27.833l2.795-.757c-.66 9.562-1.519 19.208-3.586 28.585-1.277 5.792-3.02 11.974-6.793 16.684-2.713 3.386-6.619 5.37-10.997 5.164-5.631-.265-10.943-3.208-15.555-6.219-8.743-5.709-16.536-12.887-24.07-20.073l2.507-1.459c3.197 8.915 6.258 17.977 8.107 27.282 1.129 5.678 2.081 11.955.546 17.655-1.128 4.189-3.91 7.394-8.021 8.849-5.19 1.835-11.194.967-16.446-.085-10.159-2.034-19.981-5.792-29.573-9.623l1.459-2.507c6.366 7.059 12.651 14.313 17.926 22.24 3.226 4.847 6.448 10.31 7.166 16.197.514 4.224-.84 8.294-4.093 11.107-4.222 3.65-10.029 5.165-15.388 6.177-10.246 1.936-20.802 2.219-31.2 2.318l.757-2.795c8.567 4.195 17.143 8.598 24.976 14.075 4.723 3.302 9.708 7.168 12.52 12.327 2.116 3.885 2.382 8.174.529 12.211-2.331 5.076-7.127 8.852-11.591 11.965-8.619 6.011-18.282 10.532-27.834 14.831l-.757-2.796c9.562.66 19.208 1.52 28.585 3.587 5.792 1.277 11.974 3.019 16.684 6.793 3.386 2.712 5.37 6.619 5.164 10.996-.265 5.632-3.207 10.943-6.219 15.555-5.709 8.744-12.887 16.536-20.073 24.071l-1.459-2.507c8.915-3.197 17.977-6.258 27.283-8.108 5.678-1.128 11.954-2.08 17.654-.545 4.189 1.128 7.395 3.909 8.849 8.021 1.836 5.19.967 11.193-.085 16.446-2.034 10.159-5.791 19.98-9.623 29.573l-2.507-1.46c7.059-6.365 14.313-12.651 22.24-17.925 4.848-3.226 10.31-6.449 16.198-7.166 4.223-.515 8.293.839 11.106 4.093 3.65 4.222 5.165 10.029 6.177 15.388 1.936 10.246 2.219 20.802 2.319 31.2l-2.795-.758c4.194-8.566 8.598-17.143 14.074-24.975 3.302-4.723 7.169-9.709 12.328-12.52 3.884-2.117 8.174-2.383 12.211-.529 5.075 2.33 8.851 7.127 11.965 11.591 6.01 8.619 10.531 18.282 14.83 27.834l-2.795.757c.66-9.563 1.519-19.209 3.586-28.585 1.277-5.793 3.02-11.975 6.793-16.684 2.713-3.386 6.619-5.371 10.996-5.165 5.632.266 10.944 3.208 15.556 6.219 8.743 5.71 16.536 12.888 24.07 20.073l-2.507 1.46c-3.197-8.915-6.258-17.977-8.107-27.283-1.129-5.678-2.081-11.955-.546-17.655 1.128-4.189 3.909-7.394 8.021-8.848 5.19-1.836 11.193-.967 16.446.084 10.159 2.034 19.981 5.792 29.573 9.623l-1.459 2.507c-6.366-7.058-12.651-14.313-17.926-22.239-3.226-4.848-6.448-10.311-7.166-16.198-.514-4.224.84-8.294 4.093-11.107 4.222-3.649 10.029-5.164 15.388-6.177 10.246-1.935 20.802-2.219 31.2-2.318l-.757 2.795c-8.567-4.195-17.143-8.598-24.976-14.074-4.723-3.302-9.708-7.169-12.52-12.328-2.116-3.885-2.383-8.174-.529-12.211 2.33-5.075 7.127-8.852 11.591-11.965C-19.972 6.024-10.309 1.503-.757-2.795.989-3.581 2.517-.997.757-.205-7.565 3.54-15.874 7.482-23.615 12.341c-4.705 2.953-9.775 6.39-12.851 11.139-2.056 3.176-2.655 6.773-1.066 10.287 2.157 4.769 6.661 8.393 10.795 11.386 8.108 5.869 17.127 10.479 26.094 14.87 1.383.677.656 2.781-.757 2.795-9.084.087-18.258.323-27.255 1.679-5.418.817-11.314 1.917-15.962 5.001-3.128 2.075-4.732 4.994-4.576 8.637.215 5.029 3.086 10.021 5.74 14.228 5.31 8.419 11.936 16 18.585 23.373.906 1.005.04 3.106-1.459 2.507-8.507-3.398-17.15-6.655-26.061-8.837-5.219-1.279-11.14-2.513-16.442-1.402-3.686.772-6.351 2.829-7.542 6.285-1.675 4.864-.956 10.463-.067 15.432 1.766 9.877 5.036 19.488 8.415 28.91.529 1.476-1.489 2.431-2.507 1.46-6.59-6.286-13.358-12.51-20.798-17.787-4.51-3.199-9.569-6.491-15.118-7.454-3.684-.64-7.014.355-9.59 3.098-3.585 3.815-5.194 9.363-6.415 14.316-2.403 9.745-3.27 19.86-3.959 29.847-.092 1.332-2.131 2.233-2.796.757-3.745-8.322-7.686-16.631-12.545-24.372-2.953-4.705-6.39-9.776-11.14-12.851-3.175-2.056-6.772-2.655-10.286-1.066-4.77 2.157-8.394 6.66-11.386 10.794-5.869 8.109-10.479 17.127-14.87 26.095-.677 1.383-2.782.655-2.795-.757-.087-9.084-.324-18.258-1.68-27.256-.816-5.417-1.916-11.313-5-15.962-2.075-3.128-4.995-4.732-8.638-4.576-5.028.216-10.02 3.087-14.228 5.741-8.418 5.31-16 11.936-23.372 18.585-1.005.906-3.106.04-2.507-1.46 3.397-8.506 6.654-17.149 8.837-26.06 1.279-5.22 2.512-11.14 1.402-16.442-.773-3.687-2.829-6.352-6.285-7.542-4.864-1.675-10.464-.956-15.432-.068-9.877 1.767-19.488 5.037-28.91 8.415-1.477.53-2.431-1.488-1.46-2.507 6.285-6.59 12.509-13.357 17.786-20.798 3.199-4.51 6.491-9.569 7.455-15.118.639-3.683-.356-7.013-3.098-9.589-3.816-3.585-9.363-5.195-14.316-6.416-9.746-2.402-19.86-3.27-29.847-3.959-1.332-.092-2.234-2.13-.757-2.795 8.322-3.745 16.631-7.686 24.371-12.545 4.706-2.954 9.776-6.39 12.852-11.14 2.056-3.175 2.655-6.772 1.066-10.286-2.157-4.77-6.661-8.394-10.795-11.386-8.108-5.869-17.127-10.479-26.094-14.87-1.383-.678-.656-2.782.757-2.796 9.084-.087 18.258-.323 27.255-1.679 5.418-.817 11.313-1.916 15.962-5.001 3.128-2.075 4.732-4.994 4.576-8.637-.215-5.029-3.086-10.021-5.74-14.228-5.31-8.419-11.936-16-18.585-23.373-.906-1.005-.04-3.106 1.459-2.507 8.507 3.398 17.15 6.655 26.06 8.838 5.22 1.278 11.141 2.512 16.443 1.401 3.686-.772 6.351-2.828 7.542-6.284 1.675-4.864.956-10.464.067-15.432-1.766-9.878-5.036-19.489-8.415-28.911-.529-1.476 1.489-2.431 2.507-1.459 6.59 6.285 13.358 12.509 20.798 17.786 4.51 3.199 9.569 6.491 15.118 7.454 3.684.64 7.014-.355 9.59-3.097 3.585-3.816 5.194-9.364 6.415-14.317 2.403-9.745 3.27-19.859 3.959-29.846.092-1.332 2.131-2.234 2.796-.757 3.745 8.322 7.686 16.631 12.545 24.371 2.953 4.705 6.39 9.776 11.14 12.851 3.175 2.056 6.772 2.655 10.286 1.066 4.77-2.156 8.394-6.66 11.386-10.794 5.869-8.109 10.479-17.127 14.87-26.094.677-1.384 2.782-.656 2.795.757.087 9.083.324 18.258 1.68 27.255.816 5.418 1.916 11.313 5 15.962 2.075 3.128 4.995 4.732 8.638 4.576 5.028-.215 10.02-3.087 14.228-5.74 8.418-5.31 16-11.937 23.372-18.585 1.005-.907 3.106-.041 2.507 1.459-3.397 8.507-6.654 17.149-8.837 26.06-1.279 5.22-2.512 11.141-1.402 16.442.773 3.687 2.829 6.352 6.285 7.542 4.864 1.676 10.464.956 15.432.068 9.877-1.766 19.488-5.036 28.91-8.415 1.477-.529 2.431 1.488 1.46 2.507-6.285 6.59-12.509 13.357-17.787 20.798-3.198 4.51-6.49 9.569-7.454 15.118-.639 3.684.355 7.013 3.098 9.59C-40.347-9.79-34.8-8.18-29.847-6.959-20.101-4.557-9.987-3.689 0-3c1.916.132 1.93 3.133 0 3" clip-path="url(#C)" style="fill:#000;fill-opacity:1;fill-rule:nonzero;stroke:none" transform="matrix(1.33333 0 0 -1.33333 1042.288 608.775)"/><path d="M0 0c-7.844-43.87-49.766-73.074-93.635-65.231s-73.075 49.766-65.231 93.636 49.766 73.074 93.635 65.23S7.844 43.87 0 0" clip-path="url(#D)" style="fill:#f9b406;fill-opacity:1;fill-rule:nonzero;stroke:none" transform="matrix(1.33333 0 0 -1.33333 941.16 588.987)"/><path d="M0 0c-2.925-16.159-10.717-31.133-22.443-42.653-11.401-11.201-26.102-18.772-41.836-21.569-16.27-2.893-33.474-.463-48.326 6.773-14.415 7.023-26.478 18.392-34.364 32.352-7.996 14.156-11.432 30.593-9.83 46.769 1.618 16.328 8.41 32.036 19.256 44.351 10.507 11.931 24.511 20.56 39.913 24.519 16.106 4.139 33.335 2.985 48.806-3.085 14.935-5.861 27.914-16.438 36.78-29.796C-3.149 44.26 1.541 28.309 1.202 12.22A80 80 0 0 0 0 0c-.333-1.888 2.557-2.698 2.893-.797 2.963 16.781.753 34.105-6.485 49.546-7.01 14.956-18.613 27.666-32.866 36.01-14.845 8.691-32.453 12.562-49.574 10.856-16.562-1.65-32.348-8.362-45.069-19.09-12.842-10.829-22.159-25.62-26.395-41.874-4.307-16.528-3.413-34.272 2.739-50.221 5.959-15.447 16.502-28.892 30.121-38.317 14.128-9.778 31.358-14.878 48.528-14.496 16.644.37 33.048 5.921 46.491 15.742C-16.094-42.76-5.78-28.908-.302-13.07A82.5 82.5 0 0 1 2.893-.797C3.235 1.09.344 1.9 0 0" clip-path="url(#E)" style="fill:#000;fill-opacity:1;fill-rule:nonzero;stroke:none" transform="matrix(1.33333 0 0 -1.33333 939.231 588.455)"/><path d="M0 0c-5.448-1.704-10.906-4.439-15.633-7.88-3.848-2.802-8.151-6.318-10.54-10.496-1.884-3.297-.604-6.981 3.387-7.402 5.165-.546 7.589 4.912 10.617 7.98 4.594 4.655 10.038 6.062 15.279 9.486.411.268.807.571 1.177.904 1.964 1.767 1.826 4.897-.208 6.583A4.36 4.36 0 0 1 0 0" clip-path="url(#F)" style="fill:#fff2d9;fill-opacity:1;fill-rule:nonzero;stroke:none" transform="matrix(1.33333 0 0 -1.33333 802.187 481.783)"/><path d="M0 0c-7.125-2.263-13.594-5.939-19.392-10.633-2.701-2.186-5.256-4.639-7.152-7.572-1.485-2.298-2.281-5.27-.72-7.757 1.496-2.382 4.524-3.155 7.164-2.635 2.603.512 4.593 2.48 6.21 4.455 1.876 2.29 3.585 4.535 6.035 6.268 2.868 2.029 6.105 3.419 9.182 5.085 2.938 1.591 6.492 3.547 6.246 7.415C7.329-1.553 3.657.958 0 0c-1.866-.489-1.075-3.383.798-2.893 2.412.632 4.739-1.866 3.428-4.174C3.62-8.132 2.303-8.772 1.285-9.37c-1.201-.706-2.439-1.347-3.68-1.978-2.569-1.305-5.166-2.58-7.487-4.306-1.999-1.488-3.625-3.2-5.159-5.148-1.243-1.578-2.518-3.342-4.306-4.341-1.574-.88-4.111-.983-5.281.626-1.332 1.831.155 4.127 1.249 5.639 1.689 2.337 3.876 4.318 6.108 6.124C-11.89-8.398-5.809-4.991.798-2.893 2.631-2.311 1.847.587 0 0" clip-path="url(#G)" style="fill:#000;fill-opacity:1;fill-rule:nonzero;stroke:none" transform="matrix(1.33333 0 0 -1.33333 801.656 479.855)"/><path d="M0 0c2.75-.507 5.231-2.719 5.112-5.849-.397-10.435-17.51-5.493-10.795 3.745C-4.304-.206-2.075.383 0 0" clip-path="url(#H)" style="fill:#fff2d9;fill-opacity:1;fill-rule:nonzero;stroke:none" transform="matrix(1.33333 0 0 -1.33333 759.658 520.192)"/><path d="M0 0a8 8 0 0 0 1.184-.331c.231-.082-.18.086.043-.015q.132-.059.262-.124.323-.163.626-.359.12-.079.238-.162c.201-.138-.147.127.04-.027q.25-.205.477-.434c.379-.383.365-.362.637-.83.096-.165.187-.337.262-.514-.103.243.084-.28.098-.329q.084-.289.131-.585c-.037.236-.001-.019.001-.059.007-.158.017-.314.015-.473-.002-.308-.036-.611-.064-.918.04.442-.015-.047-.036-.155a8 8 0 0 0-.099-.428c-.068-.255-.164-.496-.248-.745-.061-.183.142.278.047.114-.029-.05-.05-.106-.075-.157a6 6 0 0 0-.203-.374q-.087-.141-.179-.28c-.022-.034-.084-.155-.119-.166-.005-.002.257.298.086.113-.163-.174-.313-.354-.489-.516-.017-.015-.227-.209-.235-.202-.009.008.324.228.12.093l-.125-.089a5 5 0 0 0-.592-.353c-.037-.019-.274-.105-.275-.131.003.064.343.13.147.062-.048-.016-.096-.037-.143-.054a6 6 0 0 0-.963-.263C.506-8.703.44-8.708.378-8.724c-.181-.046.356.028.169.021-.233-.007-.465-.044-.699-.049a7 7 0 0 0-.666.016c-.104.008-.208.022-.313.029-.203.015.104.055.165-.023-.022.028-.201.031-.233.037a7.7 7.7 0 0 0-1.291.344c-.034.013-.294.098-.292.113.005.028.338-.156.144-.059-.047.024-.095.043-.142.066q-.315.148-.614.328c-.185.111-.354.257-.541.362-.156.086.248-.223.123-.096-.035.036-.079.063-.117.096q-.144.123-.281.252a7 7 0 0 0-.435.463c-.231.264.109-.172.007-.01-.066.104-.141.202-.206.308-.104.169-.186.347-.28.522-.09.168.12-.349.009-.014-.039.12-.081.237-.114.358a4 4 0 0 0-.072.296c-.01.05-.016.102-.028.151-.057.232.035-.154.019-.168.049.045-.035.616-.033.717.004.139.021.276.029.414.014.264-.019-.147-.02-.144-.016.033.039.223.046.258q.09.43.236.843l.068.183c.114.32-.065-.109.003.011.076.134.133.284.204.422q.261.5.579.966c.235.346.44.578.811.904.195.173-.138-.092.07.06q.19.137.393.255.133.078.271.148c.063.032.318.143.132.069q.357.14.73.226.149.033.298.062c.43.09-.231.008.208.025.256.01.509.024.766.013Q-.365.044-.212.03C.104.008-.341.059 0 0c.797-.138 1.616.213 1.845 1.048.199.722-.245 1.706-1.047 1.845-2.36.407-4.788-.081-6.544-1.796-1.151-1.125-2.071-2.773-2.416-4.348-.537-2.446.287-4.954 2.258-6.529 1.829-1.461 4.229-2.202 6.566-1.908 2.712.342 4.874 1.951 5.847 4.528.727 1.922.674 4.158-.21 6.01C5.286.974 3.068 2.449.798 2.893c-.795.155-1.62-.225-1.846-1.048C-1.25 1.109-.799.156 0 0" clip-path="url(#I)" style="fill:#000;fill-opacity:1;fill-rule:nonzero;stroke:none" transform="matrix(1.33333 0 0 -1.33333 759.126 522.12)"/><path d="m0 0-8.636 1.544a7.474 7.474 0 0 0-6.042 8.673l1.544 8.637a7.474 7.474 0 0 0 8.673 6.042l8.636-1.544a7.474 7.474 0 0 0 6.042-8.674L8.673 6.042A7.474 7.474 0 0 0 0 0" clip-path="url(#J)" style="fill:#fb582d;fill-opacity:1;fill-rule:nonzero;stroke:none" transform="matrix(1.33333 0 0 -1.33333 733.497 554.963)"/><path d="m0 0-5.643 1.009c-2.145.383-4.54.525-6.191 2.113-1.973 1.897-1.973 4.264-1.531 6.74.402 2.245.795 4.491 1.205 6.734.525 2.875 2.49 5.264 5.578 5.461 1.963.125 4.096-.55 6.008-.892 1.962-.35 4.4-.465 6.142-1.512 2.457-1.478 3.135-4.171 2.66-6.829-.442-2.472-.876-4.946-1.326-7.417C6.293 2.063 3.589-.556 0 0c-1.889.293-2.703-2.598-.798-2.893C3.563-3.569 7.781-1.352 9.353 2.86c.823 2.208.986 4.791 1.398 7.096.508 2.844 1.12 5.555-.142 8.334-1.436 3.162-4.299 4.68-7.562 5.263-2.443.437-4.883.895-7.33 1.311-3.767.641-7.569-.795-9.588-4.151-1.33-2.211-1.501-5.102-1.946-7.591-.463-2.588-1.268-5.349-.579-7.959 1.026-3.89 4.242-6.025 8.007-6.699l7.591-1.357C1.09-3.23 1.9-.34 0 0" clip-path="url(#K)" style="fill:#000;fill-opacity:1;fill-rule:nonzero;stroke:none" transform="matrix(1.33333 0 0 -1.33333 734.029 553.035)"/><path d="m0 0-8.636 1.544a7.474 7.474 0 0 0-6.042 8.673l1.544 8.637a7.474 7.474 0 0 0 8.673 6.042l8.636-1.544a7.474 7.474 0 0 0 6.042-8.674L8.673 6.042A7.474 7.474 0 0 0 0 0" clip-path="url(#L)" style="fill:#fb582d;fill-opacity:1;fill-rule:nonzero;stroke:none" transform="matrix(1.33333 0 0 -1.33333 956.753 594.88)"/><path d="m0 0-5.643 1.009c-2.145.383-4.54.525-6.191 2.113-1.973 1.897-1.973 4.264-1.531 6.74.402 2.245.795 4.491 1.205 6.734.525 2.875 2.49 5.264 5.578 5.461 1.963.125 4.096-.55 6.008-.892 1.962-.35 4.4-.465 6.142-1.512 2.457-1.478 3.135-4.171 2.66-6.829-.442-2.472-.876-4.946-1.326-7.417C6.293 2.064 3.589-.556 0 0c-1.889.293-2.703-2.597-.798-2.893C3.563-3.569 7.781-1.352 9.353 2.86c.823 2.208.986 4.791 1.398 7.096.508 2.844 1.121 5.555-.142 8.334-1.436 3.162-4.299 4.68-7.562 5.263-2.443.437-4.883.895-7.33 1.311-3.767.641-7.569-.795-9.588-4.151-1.33-2.211-1.501-5.102-1.946-7.591-.463-2.588-1.268-5.349-.579-7.959 1.026-3.89 4.242-6.025 8.007-6.698l7.591-1.358C1.09-3.23 1.9-.34 0 0" clip-path="url(#M)" style="fill:#000;fill-opacity:1;fill-rule:nonzero;stroke:none" transform="matrix(1.33333 0 0 -1.33333 957.285 592.952)"/><path d="m0 0-32.636 5.835 2.023 11.317 32.636-5.835z" clip-path="url(#N)" style="fill:#fb582d;fill-opacity:1;fill-rule:nonzero;stroke:none" transform="matrix(1.33333 0 0 -1.33333 862.97 567.2)"/><path d="m0 0-28.555 5.106-4.081.729 1.047-1.845 2.024 11.317-1.845-1.047 28.555-5.106 4.081-.73L.178 10.27-1.845-1.048c-.338-1.887 2.553-2.698 2.893-.797L3.071 9.472c.132.74-.193 1.692-1.048 1.845l-28.555 5.106-4.081.729c-.739.133-1.692-.192-1.845-1.047l-2.023-11.317c-.133-.74.192-1.693 1.047-1.846l28.556-5.105 4.081-.73C1.09-3.23 1.9-.34 0 0" clip-path="url(#O)" style="fill:#000;fill-opacity:1;fill-rule:nonzero;stroke:none" transform="matrix(1.33333 0 0 -1.33333 863.502 565.271)"/><path d="M0 0c-2.613-14.613-21.665-23.432-42.554-19.697S-78.26-1.088-75.647 13.525c2.613 14.614 21.665 23.432 42.554 19.697S2.613 14.613 0 0" clip-path="url(#P)" style="fill:#fb582d;fill-opacity:1;fill-rule:nonzero;stroke:none" transform="matrix(1.33333 0 0 -1.33333 831.458 555.113)"/><path d="M0 0c-2.378-12.745-16.388-18.512-27.994-19.328-14.105-.993-29.938 3.806-39.286 14.864-3.6 4.257-6.01 9.659-5.688 15.313.319 5.593 3.445 10.492 7.735 13.94 11.018 8.854 27.567 8.951 40.434 4.779C-13.599 25.937-.479 16.989.217 4.01.289 2.67.226 1.323 0 0c-.323-1.888 2.568-2.7 2.893-.798C5.285 13.186-6.173 24.63-17.892 30.059c-13.87 6.427-31.84 7.526-45.402-.34-5.435-3.154-10.023-7.974-11.851-14.087-1.776-5.937-.602-12.28 2.451-17.584 7.64-13.272 24.19-19.823 38.859-20.452 13.187-.565 29.787 4.008 35.424 17.303A20.7 20.7 0 0 1 2.893-.798C3.245 1.09.354 1.898 0 0" clip-path="url(#Q)" style="fill:#000;fill-opacity:1;fill-rule:nonzero;stroke:none" transform="matrix(1.33333 0 0 -1.33333 829.53 554.582)"/><path d="M0 0c-1.579-8.833-13.096-14.164-25.722-11.906S-47.305-.658-45.725 8.176c1.579 8.833 13.095 14.163 25.722 11.906C-7.376 17.824 1.579 8.833 0 0" clip-path="url(#R)" style="fill:#000;fill-opacity:1;fill-rule:nonzero;stroke:none" transform="matrix(1.33333 0 0 -1.33333 811.51 551.547)"/><path d="M0 0c4.509 8.802 10.402 18.606 21.442 20.529 2.667.464 5.569.44 7.878 1.623 4.113 2.105 4.641 6.941 5.919 10.958 1.798 5.655 5.913 10.643 11.473 13.906 1.769 1.038 3.854 1.934 6.039 1.631 3.279-.454 5.504-3.544 5.633-6.387s-1.295-5.474-2.689-7.982c-4.481-8.065-9.573-16.668-18.977-20.446-1.675-.673-3.494-1.196-4.828-2.285-1.724-1.408-2.369-3.53-2.944-5.545l-7.204-25.237Z" clip-path="url(#S)" style="fill:#fff2d9;fill-opacity:1;fill-rule:nonzero;stroke:none" transform="matrix(1.33333 0 0 -1.33333 736.158 571.768)"/><path d="M0 0c4.069 7.926 9.225 16.743 18.382 19.346 2.591.736 5.301.717 7.907 1.353 2.349.574 4.343 1.834 5.753 3.806 2.676 3.742 2.756 8.708 4.966 12.705a24 24 0 0 0 4.707 5.97c1.916 1.776 4.261 3.559 6.762 4.4 2.365.795 4.74.224 6.167-1.893 1.428-2.116 1.005-4.594.046-6.821-1.022-2.375-2.43-4.636-3.739-6.863-1.242-2.114-2.553-4.191-4.015-6.16-2.952-3.974-6.648-7.433-11.191-9.496-2.706-1.229-5.652-1.845-7.496-4.388-1.774-2.446-2.319-5.764-3.132-8.611L19.001-18.08l2.507.662L2.46-.566-.235 1.818C-1.676 3.093-3.805.979-2.356-.304l19.048-16.851 2.694-2.384c.837-.74 2.184-.471 2.507.662l5.709 19.999 1.359 4.762c.384 1.343.728 2.737 1.462 3.942 1.496 2.454 4.761 2.94 7.188 4.095 4.747 2.258 8.562 5.955 11.695 10.113 1.55 2.058 2.931 4.235 4.236 6.455 1.385 2.355 2.834 4.742 3.909 7.257 1.024 2.398 1.598 5.129.667 7.653-.813 2.203-2.429 4.059-4.614 4.973-5.298 2.217-11.207-2.301-14.747-5.881-1.866-1.886-3.481-4.066-4.691-6.429-1.142-2.23-1.802-4.589-2.477-6.988-.597-2.123-1.275-4.422-2.965-5.952-2.134-1.931-5.342-1.868-8.027-2.257C8.995 21.184 2.359 11.155-2.59 1.514-3.471-.2-.883-1.72 0 0" clip-path="url(#T)" style="fill:#000;fill-opacity:1;fill-rule:nonzero;stroke:none" transform="matrix(1.33333 0 0 -1.33333 737.885 572.777)"/><path d="M0 0c-1.44-7.512-9.706-10.827-16.561-11.261-8.26-.523-17.434 2.256-22.973 8.658-2.145 2.479-3.589 5.645-3.409 8.97.176 3.237 2.032 6.082 4.525 8.057 6.495 5.143 16.182 5.177 23.734 2.754C-7.616 14.91 1.425 8.581 0 0c-.314-1.889 2.577-2.701 2.893-.798C4.345 7.947-2.562 15.116-9.963 18.534c-8.596 3.969-19.695 4.659-28.085-.253-3.356-1.964-6.169-4.946-7.338-8.712-1.157-3.725-.452-7.739 1.44-11.093 4.649-8.238 14.843-12.321 23.891-12.761C-11.013-14.724.947-10.951 2.893-.798 3.254 1.089.364 1.897 0 0" clip-path="url(#U)" style="fill:#000;fill-opacity:1;fill-rule:nonzero;stroke:none" transform="matrix(1.33333 0 0 -1.33333 809.582 551.015)"/><path d="M0 0c-2.613-14.613-21.665-23.432-42.554-19.697S-78.26-1.088-75.647 13.525c2.613 14.614 21.665 23.432 42.554 19.697S2.613 14.613 0 0" clip-path="url(#V)" style="fill:#fb582d;fill-opacity:1;fill-rule:nonzero;stroke:none" transform="matrix(1.33333 0 0 -1.33333 953.234 576.887)"/><path d="M0 0c-2.378-12.745-16.388-18.512-27.994-19.328-14.105-.993-29.938 3.806-39.286 14.864-3.6 4.257-6.01 9.659-5.688 15.313.319 5.593 3.444 10.492 7.735 13.94 11.018 8.854 27.567 8.951 40.434 4.779C-13.599 25.937-.479 16.989.217 4.01.289 2.67.226 1.323 0 0c-.323-1.888 2.567-2.7 2.893-.797C5.285 13.186-6.173 24.63-17.892 30.059c-13.87 6.427-31.84 7.526-45.402-.34-5.435-3.154-10.023-7.974-11.851-14.087-1.776-5.937-.602-12.28 2.451-17.584 7.64-13.272 24.19-19.823 38.859-20.452 13.187-.565 29.787 4.008 35.423 17.303A20.7 20.7 0 0 1 2.893-.797C3.245 1.09.354 1.898 0 0" clip-path="url(#W)" style="fill:#000;fill-opacity:1;fill-rule:nonzero;stroke:none" transform="matrix(1.33333 0 0 -1.33333 951.306 576.355)"/><path d="M0 0c-1.579-8.833-13.096-14.164-25.722-11.906S-47.305-.658-45.725 8.176c1.579 8.833 13.095 14.163 25.722 11.906C-7.376 17.824 1.579 8.833 0 0" clip-path="url(#X)" style="fill:#000;fill-opacity:1;fill-rule:nonzero;stroke:none" transform="matrix(1.33333 0 0 -1.33333 933.287 573.32)"/><path d="M0 0c4.508 8.802 10.402 18.606 21.442 20.529 2.667.464 5.569.44 7.878 1.623 4.113 2.105 4.641 6.941 5.919 10.958 1.798 5.655 5.913 10.643 11.473 13.906 1.769 1.038 3.854 1.934 6.039 1.631 3.279-.454 5.504-3.544 5.633-6.387s-1.295-5.474-2.689-7.982c-4.481-8.065-9.573-16.668-18.977-20.446-1.675-.673-3.494-1.196-4.828-2.285-1.724-1.408-2.369-3.529-2.944-5.545l-7.204-25.237Z" clip-path="url(#Y)" style="fill:#fff2d9;fill-opacity:1;fill-rule:nonzero;stroke:none" transform="matrix(1.33333 0 0 -1.33333 857.934 593.54)"/><path d="M0 0c4.069 7.926 9.225 16.743 18.382 19.346 2.591.736 5.301.717 7.907 1.353 2.349.574 4.343 1.834 5.753 3.806 2.676 3.742 2.756 8.708 4.966 12.705a24 24 0 0 0 4.707 5.97c1.916 1.776 4.261 3.559 6.762 4.4 2.365.795 4.74.224 6.167-1.893 1.428-2.116 1.005-4.594.046-6.821-1.022-2.375-2.43-4.636-3.739-6.863-1.242-2.114-2.553-4.191-4.015-6.16-2.952-3.974-6.648-7.433-11.191-9.496-2.706-1.229-5.652-1.845-7.496-4.388-1.774-2.446-2.319-5.764-3.132-8.611L19.001-18.08l2.507.662L2.46-.566-.235 1.818C-1.676 3.093-3.805.979-2.356-.304l19.048-16.851 2.694-2.384c.837-.74 2.184-.471 2.507.662l5.709 19.999 1.359 4.762c.384 1.343.728 2.737 1.463 3.942 1.495 2.454 4.76 2.94 7.187 4.095 4.747 2.258 8.562 5.955 11.695 10.113 1.55 2.058 2.931 4.235 4.236 6.455 1.385 2.355 2.834 4.742 3.909 7.257 1.025 2.398 1.598 5.129.667 7.653-.813 2.203-2.429 4.059-4.614 4.973-5.298 2.217-11.207-2.301-14.747-5.881-1.866-1.886-3.481-4.066-4.691-6.429-1.142-2.23-1.802-4.589-2.477-6.988-.597-2.123-1.275-4.422-2.965-5.952-2.134-1.931-5.342-1.868-8.027-2.257C8.995 21.184 2.359 11.155-2.59 1.514-3.471-.2-.883-1.72 0 0" clip-path="url(#Z)" style="fill:#000;fill-opacity:1;fill-rule:nonzero;stroke:none" transform="matrix(1.33333 0 0 -1.33333 859.661 594.55)"/><path d="M0 0c-1.44-7.512-9.706-10.827-16.561-11.261-8.26-.523-17.434 2.256-22.973 8.658-2.145 2.479-3.589 5.645-3.409 8.97.176 3.237 2.031 6.083 4.525 8.057 6.495 5.143 16.182 5.177 23.734 2.754C-7.616 14.91 1.425 8.581 0 0c-.314-1.889 2.577-2.701 2.893-.797C4.345 7.947-2.562 15.116-9.963 18.534c-8.596 3.969-19.695 4.659-28.085-.253-3.356-1.964-6.169-4.946-7.338-8.712-1.157-3.725-.452-7.739 1.44-11.093 4.649-8.238 14.843-12.321 23.891-12.761C-11.013-14.724.947-10.951 2.893-.797 3.254 1.089.364 1.897 0 0" clip-path="url(#aa)" style="fill:#000;fill-opacity:1;fill-rule:nonzero;stroke:none" transform="matrix(1.33333 0 0 -1.33333 931.358 572.788)"/><path d="M0 0c3.966.248 7.705-.96 9.404-4.257 1.215-2.355.666-5.509 2.447-7.472 2.681-2.956 7.423-.584 11.371-.004 3.834.564 7.913-.982 10.41-3.946 1.621-1.924 2.741-4.49 5.057-5.469 4.261-1.802 8.573 3.033 13.199 3.026 5.084-.008 8.334-6.476 6.514-11.224s-7.008-7.465-12.057-8.073c-5.493-.661-11.21.733-15.783 3.849-1.476 1.006-2.848 2.19-4.464 2.952-7.252 3.418-17.349-2.374-23.263 3.039C.496-25.44-.4-22.049-2.772-19.948c-2.904 2.573-9.235 4.842-10.298 9.193C-14.893-3.291-5.731-.358 0 0" clip-path="url(#ab)" style="fill:#ff8db6;fill-opacity:1;fill-rule:nonzero;stroke:none" transform="matrix(1.33333 0 0 -1.33333 795.21 584.2)"/><path d="M0 0c2.806.142 6.088-.357 7.755-2.902 1.684-2.569.843-5.998 3.035-8.388 2.16-2.355 5.467-2.037 8.296-1.402 3.117.7 5.937 1.572 9.091.488 3.193-1.097 4.69-3.603 6.656-6.115 1.894-2.42 4.467-3.652 7.543-3.045 2.903.572 5.344 2.478 8.231 3.103 2.512.543 4.631-.779 5.832-2.953 3.022-5.472-1.561-10.628-6.649-12.379-6.538-2.249-13.822-.56-19.313 3.414-2.673 1.934-5.165 3.302-8.496 3.626-2.969.29-5.948-.152-8.907-.362-2.717-.193-5.732-.33-8.153 1.135-2.691 1.628-3.679 4.95-5.595 7.295-1.653 2.024-4.084 3.239-6.24 4.636-1.979 1.282-4.284 2.836-4.78 5.305-.997 4.965 4.668 7.261 8.551 8.1C-2.104-.219-1.06-.072 0 0c1.916.131 1.93 3.132 0 3-4.841-.331-10.839-1.856-13.613-6.225-1.447-2.278-1.554-5.292-.429-7.725 1.211-2.62 3.798-4.342 6.157-5.837 1.15-.728 2.341-1.41 3.434-2.223 1.31-.975 2.179-2.281 3.004-3.666 1.747-2.935 3.591-5.506 6.954-6.651 6.15-2.093 12.777 1.245 18.923-.738 1.697-.548 3.107-1.673 4.533-2.704a25 25 0 0 1 4.846-2.77c3.481-1.489 7.302-2.214 11.09-2.005 6.226.343 13.72 3.625 15.257 10.319 1.25 5.45-2.575 12.522-8.775 12.083-3.288-.234-5.926-2.251-9.014-3.138-1.447-.416-2.888-.372-4.091.632-1.244 1.038-2.042 2.541-3.015 3.812-2.114 2.761-5.202 4.595-8.654 5.076-3.536.494-6.633-.976-10.075-1.363-1.418-.16-2.933-.058-3.817 1.214-.941 1.354-.883 3.294-1.261 4.845-.8 3.275-3.294 5.613-6.488 6.557C3.364 2.967 1.661 3.084 0 3c-1.921-.097-1.933-3.098 0-3" clip-path="url(#ac)" style="fill:#000;fill-opacity:1;fill-rule:nonzero;stroke:none" transform="matrix(1.33333 0 0 -1.33333 795.21 586.2)"/><path d="M0 0c.012-3.526 1.693-6.912 4.43-9.129 3.151-2.551 6.749-2.958 10.653-2.302 2.238.376 4.451.954 6.74.732 2.131-.207 4.132-1.056 5.849-2.318 1.645-1.209 3.078-2.685 4.782-3.821a15.2 15.2 0 0 1 5.201-2.179c4.229-.908 8.734-.172 12.37 2.198 1.611 1.05.109 3.649-1.514 2.59-2.795-1.821-6.2-2.569-9.502-2.002-1.677.287-3.281.871-4.724 1.778-1.604 1.007-2.951 2.37-4.442 3.529-2.976 2.313-6.618 3.55-10.405 3.221-3.636-.315-7.463-1.965-11.018-.414C5.24-6.73 3.012-3.473 3 0 2.993 1.93-.007 1.934 0 0" clip-path="url(#ad)" style="fill:#000;fill-opacity:1;fill-rule:nonzero;stroke:none" transform="matrix(1.33333 0 0 -1.33333 795.155 597.873)"/><path d="M0 0q.453-1.343.647-2.747l-.054.398Q.74-3.472.718-4.605c-.015-.785.701-1.535 1.5-1.5.826.037 1.484.659 1.5 1.5A16 16 0 0 1 2.893.798c-.251.741-1.044 1.307-1.845 1.047C.311 1.607-.269.796 0 0" clip-path="url(#ae)" style="fill:#000;fill-opacity:1;fill-rule:nonzero;stroke:none" transform="matrix(1.33333 0 0 -1.33333 859.487 616.167)"/><path d="M0 0q.126.257.298.484L.064.181q.225.284.51.509L.27.455q.332.254.714.419L.626.723q.41.17.85.232L1.077.901q.386.048.773.002l-.399.053q.36-.049.698-.185L1.79.922 1.885.88c.378-.171.741-.265 1.156-.151.348.096.725.365.897.689.184.348.276.77.151 1.156-.113.35-.34.738-.689.897-.605.274-1.187.44-1.858.455a4.3 4.3 0 0 1-1.544-.244c-1.08-.39-2.075-1.114-2.588-2.168-.179-.366-.263-.751-.152-1.156.096-.348.365-.725.69-.896.348-.184.77-.276 1.156-.151.355.115.726.341.896.689" clip-path="url(#af)" style="fill:#000;fill-opacity:1;fill-rule:nonzero;stroke:none" transform="matrix(1.33333 0 0 -1.33333 795.08 599.088)"/><path d="M0 0c4.081-4.144 10.528-5.693 16.03-3.759.764.269 1.273 1.025 1.048 1.845-.204.741-1.077 1.318-1.845 1.048-4.53-1.593-9.731-.445-13.112 2.987C.765 3.499-1.356 1.378 0 0" clip-path="url(#ag)" style="fill:#000;fill-opacity:1;fill-rule:nonzero;stroke:none" transform="matrix(1.33333 0 0 -1.33333 809.808 639.278)"/><path d="M0 0c-1.183-6.619-10.276-10.53-20.31-8.736S-37.518-.122-36.334 6.496c1.183 6.619 10.276 10.531 20.31 8.737S1.183 6.619 0 0" clip-path="url(#ah)" style="fill:#44cdf2;fill-opacity:1;fill-rule:nonzero;stroke:none" transform="matrix(1.33333 0 0 -1.33333 863.441 578.798)"/><path d="M0 0c-1.103-5.62-7.639-7.768-12.667-8.034-6.393-.339-13.568 1.67-18.04 6.459-1.634 1.749-2.869 3.999-2.805 6.448.063 2.381 1.473 4.447 3.341 5.836 5.107 3.796 12.557 3.682 18.383 1.915C-6.605 11.051 1.051 6.506 0 0c-.305-1.889 2.585-2.701 2.893-.797 1.129 6.994-4.7 12.478-10.586 15.077-6.92 3.055-15.767 3.696-22.561-.073-2.638-1.462-4.879-3.733-5.816-6.647-.931-2.9-.308-6.057 1.234-8.627 3.904-6.501 12.188-9.59 19.428-9.967C-8.413-11.397 1.326-8.783 2.893-.797 3.263 1.088.372 1.896 0 0" clip-path="url(#ai)" style="fill:#000;fill-opacity:1;fill-rule:nonzero;stroke:none" transform="matrix(1.33333 0 0 -1.33333 861.513 578.266)"/><path d="M0 0c-.385-2.151-3.339-3.421-6.599-2.839-3.26.583-5.591 2.799-5.206 4.95.384 2.15 3.339 3.421 6.599 2.838C-1.947 4.366.385 2.151 0 0" clip-path="url(#aj)" style="fill:#fff2d9;fill-opacity:1;fill-rule:nonzero;stroke:none" transform="matrix(1.33333 0 0 -1.33333 842.135 569.63)"/><path d="M0 0a4 4 0 0 0-.058-.254c-.001-.003-.153-.378-.059-.183.098.204-.26-.399-.138-.229C-.151-.52-.32-.74-.35-.771q-.12-.12-.243-.239c-.032-.032-.219-.169-.027-.029a4 4 0 0 0-.304-.199q-.13-.075-.261-.145c-.046-.025-.337-.16-.134-.074a5 5 0 0 0-.612-.206 5 5 0 0 0-1.32-.209 7.6 7.6 0 0 0-2.961.469c-.768.278-1.534.765-2.062 1.328a5 5 0 0 0-.196.22c-.156.187.102-.161-.025.039a5 5 0 0 0-.308.534c.13-.27-.043.186-.069.257-.023.063-.048.296-.013-.022-.014.128-.006.252-.014.379-.005.076.045.28-.014-.019q.024.128.059.254.034.125.082.245c-.111-.271-.019-.055.015-.008.049.068.091.149.137.221-.138-.214-.035-.038.011.009.072.074.508.458.316.318 1.401 1.021 3.429 1.049 5.243.481.892-.279 1.768-.776 2.361-1.39q.101-.108.2-.219c.266-.294-.081.18.111-.153.046-.08.099-.155.144-.236.021-.036.19-.423.078-.126Q-.11.588-.074.462C-.062.422.019.074-.02.286c-.042.228.007-.167.008-.178C-.011.024-.054-.347 0 0c-.123-.8.203-1.613 1.048-1.845.71-.195 1.721.242 1.845 1.047C3.307 1.89 1.47 4.1-.879 5.185c-2.6 1.201-5.845 1.46-8.43.067-2.314-1.247-3.279-3.949-1.96-6.288 1.385-2.457 4.403-3.632 7.083-3.821 2.769-.196 6.447.967 7.079 4.059.162.793-.23 1.621-1.048 1.846C1.104 1.251.163.797 0 0" clip-path="url(#ak)" style="fill:#000;fill-opacity:1;fill-rule:nonzero;stroke:none" transform="matrix(1.33333 0 0 -1.33333 840.206 569.099)"/></svg>