<svg xmlns="http://www.w3.org/2000/svg" width="1440" height="1440" viewBox="0 0 1440 1440"><defs><clipPath id="a" clipPathUnits="userSpaceOnUse"><path d="M-534.753 902.179h1080v-1080h-1080Z"/></clipPath><clipPath id="b" clipPathUnits="userSpaceOnUse"><path d="M-535.152 900.732h1080v-1080h-1080Z"/></clipPath><clipPath id="c" clipPathUnits="userSpaceOnUse"><path d="M-866.771 576.995h1080v-1080h-1080Z"/></clipPath><clipPath id="d" clipPathUnits="userSpaceOnUse"><path d="M-865.271 576.995h1080v-1080h-1080Z"/></clipPath><clipPath id="e" clipPathUnits="userSpaceOnUse"><path d="M-896.069 560.275h1080v-1080h-1080Z"/></clipPath><clipPath id="f" clipPathUnits="userSpaceOnUse"><path d="M-894.569 560.275h1080v-1080h-1080Z"/></clipPath><clipPath id="g" clipPathUnits="userSpaceOnUse"><path d="M-877.055 560.275h1080v-1080h-1080Z"/></clipPath><clipPath id="h" clipPathUnits="userSpaceOnUse"><path d="M-875.555 560.275h1080v-1080h-1080Z"/></clipPath><clipPath id="i" clipPathUnits="userSpaceOnUse"><path d="M-327.069 560.275h1080v-1080h-1080Z"/></clipPath><clipPath id="j" clipPathUnits="userSpaceOnUse"><path d="M-325.569 560.275h1080v-1080h-1080Z"/></clipPath><clipPath id="k" clipPathUnits="userSpaceOnUse"><path d="M-308.055 560.275h1080v-1080h-1080Z"/></clipPath><clipPath id="l" clipPathUnits="userSpaceOnUse"><path d="M-306.555 560.275h1080v-1080h-1080Z"/></clipPath><clipPath id="m" clipPathUnits="userSpaceOnUse"><path d="M-604.74 270.824h1080v-1080h-1080Z"/></clipPath><clipPath id="n" clipPathUnits="userSpaceOnUse"><path d="M-604.74 269.324h1080v-1080h-1080Z"/></clipPath><clipPath id="o" clipPathUnits="userSpaceOnUse"><path d="M-604.74 452.824h1080v-1080h-1080Z"/></clipPath><clipPath id="p" clipPathUnits="userSpaceOnUse"><path d="M-604.74 451.324h1080v-1080h-1080Z"/></clipPath><clipPath id="q" clipPathUnits="userSpaceOnUse"><path d="M-811.126 583.672h1080v-1080h-1080Z"/></clipPath><clipPath id="r" clipPathUnits="userSpaceOnUse"><path d="M-851.654 583.672h1080v-1080h-1080Z"/></clipPath><clipPath id="s" clipPathUnits="userSpaceOnUse"><path d="M-240.952 580.224h1080v-1080h-1080Z"/></clipPath><clipPath id="t" clipPathUnits="userSpaceOnUse"><path d="M-255.982 580.224h1080v-1080h-1080Z"/></clipPath><clipPath id="u" clipPathUnits="userSpaceOnUse"><path d="M-288.853 580.224h1080v-1080h-1080Z"/></clipPath><clipPath id="v" clipPathUnits="userSpaceOnUse"><path d="M-302.255 409.084h1080v-1080h-1080Z"/></clipPath><clipPath id="w" clipPathUnits="userSpaceOnUse"><path d="M-382.833 409.084h1080v-1080h-1080Z"/></clipPath><clipPath id="x" clipPathUnits="userSpaceOnUse"><path d="M-505.999 409.084h1080v-1080h-1080Z"/></clipPath><clipPath id="y" clipPathUnits="userSpaceOnUse"><path d="M-578.573 409.084h1080v-1080h-1080Z"/></clipPath><clipPath id="z" clipPathUnits="userSpaceOnUse"><path d="M-693.37 409.084h1080v-1080h-1080Z"/></clipPath><clipPath id="A" clipPathUnits="userSpaceOnUse"><path d="M-757.022 409.084h1080v-1080h-1080Z"/></clipPath><clipPath id="B" clipPathUnits="userSpaceOnUse"><path d="M-752.931 695.174h1080v-1080h-1080Z"/></clipPath><clipPath id="C" clipPathUnits="userSpaceOnUse"><path d="M-751.431 695.174h1080v-1080h-1080Z"/></clipPath><clipPath id="D" clipPathUnits="userSpaceOnUse"><path d="M-622.262-17.82c0-118.704 96.228-214.932 214.93-214.932 118.704 0 214.932 96.228 214.932 214.931 0 118.702-96.228 214.93-214.931 214.93s-214.931-96.228-214.931-214.93"/></clipPath><clipPath id="E" clipPathUnits="userSpaceOnUse"><path d="M-120.214 261.74c0-118.703 96.228-214.931 214.93-214.931 118.704 0 214.932 96.228 214.932 214.93S213.42 476.67 94.717 476.67s-214.931-96.227-214.931-214.93"/></clipPath><clipPath id="F" clipPathUnits="userSpaceOnUse"><path d="M73.042-28.632c0-118.703 96.228-214.93 214.931-214.93s214.931 96.227 214.931 214.93c0 118.702-96.228 214.93-214.93 214.93-118.704 0-214.932-96.228-214.932-214.93"/></clipPath><clipPath id="G" clipPathUnits="userSpaceOnUse"><path d="M-413.458 681.279h1080v-1080h-1080Z"/></clipPath><clipPath id="H" clipPathUnits="userSpaceOnUse"><path d="M-411.958 681.279h1080v-1080h-1080Z"/></clipPath><clipPath id="I" clipPathUnits="userSpaceOnUse"><path d="M-370.532 680.09h1080v-1080h-1080Z"/></clipPath><clipPath id="J" clipPathUnits="userSpaceOnUse"><path d="M-475.923 677.292h1080v-1080h-1080Z"/></clipPath><clipPath id="K" clipPathUnits="userSpaceOnUse"><path d="M-474.423 677.292h1080v-1080h-1080Z"/></clipPath><clipPath id="L" clipPathUnits="userSpaceOnUse"><path d="M-425.848 681.23h1080v-1080h-1080Z"/></clipPath><clipPath id="M" clipPathUnits="userSpaceOnUse"><path d="M-427.297 619.337h1080v-1080h-1080Z"/></clipPath><clipPath id="N" clipPathUnits="userSpaceOnUse"><path d="M-427.297 620.837h1080v-1080h-1080Z"/></clipPath><clipPath id="O" clipPathUnits="userSpaceOnUse"><path d="M-381.133 620.509h1080v-1080h-1080Z"/></clipPath><clipPath id="P" clipPathUnits="userSpaceOnUse"><path d="M-381.133 619.009h1080v-1080h-1080Z"/></clipPath><clipPath id="Q" clipPathUnits="userSpaceOnUse"><path d="M-675.153 828.72h1080v-1080h-1080Z"/></clipPath><clipPath id="R" clipPathUnits="userSpaceOnUse"><path d="M-675.552 827.274h1080v-1080h-1080Z"/></clipPath><clipPath id="S" clipPathUnits="userSpaceOnUse"><path d="M-493.885 502.912h1080v-1080h-1080Z"/></clipPath><clipPath id="T" clipPathUnits="userSpaceOnUse"><path d="M-492.59 503.669h1080v-1080h-1080Z"/></clipPath><clipPath id="U" clipPathUnits="userSpaceOnUse"><path d="M-513.406 700.877h1080v-1080h-1080Z"/></clipPath><clipPath id="V" clipPathUnits="userSpaceOnUse"><path d="M-505.909 675.644h1080v-1080h-1080Z"/></clipPath><clipPath id="W" clipPathUnits="userSpaceOnUse"><path d="M-422.87 718.699h1080v-1080h-1080Z"/></clipPath><clipPath id="X" clipPathUnits="userSpaceOnUse"><path d="M-421.37 718.699h1080v-1080h-1080Z"/></clipPath><clipPath id="Y" clipPathUnits="userSpaceOnUse"><path d="M-395.397 711.993h1080v-1080h-1080Z"/></clipPath><clipPath id="Z" clipPathUnits="userSpaceOnUse"><path d="M-394.102 712.75h1080v-1080h-1080Z"/></clipPath><clipPath id="aa" clipPathUnits="userSpaceOnUse"><path d="M-479.505 679.802h1080v-1080h-1080Z"/></clipPath><clipPath id="ab" clipPathUnits="userSpaceOnUse"><path d="M-467.183 701.358h1080v-1080h-1080Z"/></clipPath><clipPath id="ac" clipPathUnits="userSpaceOnUse"><path d="M-496.868 697.185h1080v-1080h-1080Z"/></clipPath><clipPath id="ad" clipPathUnits="userSpaceOnUse"><path d="M-393.288 750.952h1080v-1080h-1080Z"/></clipPath><clipPath id="ae" clipPathUnits="userSpaceOnUse"><path d="M-410.517 804.165h1080v-1080h-1080Z"/></clipPath><clipPath id="af" clipPathUnits="userSpaceOnUse"><path d="M-399.668 741.98h1080v-1080h-1080Z"/></clipPath><clipPath id="ag" clipPathUnits="userSpaceOnUse"><path d="M46.692 21.606C31.398 12.122 21.448-5.223 1.404-4.483c-4.683.173-9.307 1.296-13.994 1.268a19 19 0 0 1-2.916-.239c-7.858-1.265-13.249-7.459-12.548-16.105.634-7.813 6.212-14.626 13.104-18.362 6.891-3.737 14.933-4.786 22.772-4.813 20.562-.066 41.09 6.658 57.627 18.877 7.524 5.558 14.45 12.558 17.44 21.42s1.126 19.838-6.315 25.506c-3.58 2.729-7.88 3.886-12.33 3.886-6.04 0-12.359-2.129-17.552-5.349"/></clipPath><clipPath id="ah" clipPathUnits="userSpaceOnUse"><path d="M48.192 21.606C32.898 12.122 22.948-5.223 2.904-4.483c-4.683.173-9.307 1.296-13.994 1.268a19 19 0 0 1-2.916-.239c-7.858-1.265-13.249-7.459-12.548-16.105.634-7.813 6.212-14.626 13.104-18.362 6.891-3.737 14.933-4.786 22.772-4.813 20.562-.066 41.09 6.658 57.627 18.877 7.524 5.558 14.45 12.558 17.44 21.42s1.126 19.838-6.315 25.506c-3.58 2.729-7.88 3.886-12.33 3.886-6.04 0-12.359-2.129-17.552-5.349"/></clipPath><clipPath id="ai" clipPathUnits="userSpaceOnUse"><path d="M19.172 14.632C3.878 5.148-6.072-12.198-26.116-11.458c-4.683.174-9.307 1.297-13.994 1.269a19 19 0 0 1-2.916-.24c-7.858-1.264-13.249-7.458-12.548-16.104.634-7.813 6.212-14.626 13.104-18.362 6.891-3.737 14.933-4.786 22.772-4.813 20.562-.066 41.09 6.658 57.627 18.877 7.524 5.558 14.45 12.558 17.44 21.42s1.126 19.838-6.315 25.506c-3.58 2.729-7.88 3.886-12.33 3.886-6.04 0-12.359-2.13-17.552-5.35"/></clipPath><clipPath id="aj" clipPathUnits="userSpaceOnUse"><path d="M20.618 15.03C5.324 5.546-4.626-11.799-24.67-11.059c-4.683.173-9.307 1.296-13.994 1.268a19 19 0 0 1-2.916-.239c-7.858-1.265-13.249-7.459-12.548-16.105.634-7.813 6.212-14.626 13.104-18.362 6.891-3.737 14.933-4.786 22.772-4.813 20.562-.066 41.09 6.658 57.627 18.877 7.524 5.558 14.45 12.558 17.44 21.42s1.126 19.838-6.315 25.506c-3.58 2.73-7.88 3.886-12.33 3.886-6.04 0-12.359-2.129-17.552-5.349"/></clipPath><clipPath id="ak" clipPathUnits="userSpaceOnUse"><path d="M1.24-6.506c-15.296-9.484-25.246-26.829-45.29-26.089-4.683.173-9.307 1.296-13.994 1.268a19 19 0 0 1-2.916-.239c-7.858-1.265-13.249-7.459-12.548-16.105.634-7.813 6.212-14.626 13.104-18.362 6.891-3.737 14.933-4.786 22.772-4.813 20.562-.066 41.09 6.658 57.627 18.877 7.524 5.558 14.45 12.558 17.44 21.42s1.126 19.838-6.315 25.506c-3.58 2.73-7.88 3.886-12.33 3.886-6.04 0-12.359-2.129-17.552-5.349"/></clipPath><clipPath id="al" clipPathUnits="userSpaceOnUse"><path d="M2.3-5.445c-15.294-9.484-25.244-26.829-45.288-26.089-4.683.173-9.307 1.296-13.994 1.268a19 19 0 0 1-2.916-.239c-7.858-1.265-13.249-7.459-12.548-16.105.634-7.813 6.212-14.626 13.104-18.362 6.891-3.737 14.933-4.786 22.772-4.813 20.562-.066 41.09 6.658 57.627 18.877 7.524 5.558 14.45 12.558 17.44 21.42S39.623-9.65 32.182-3.982c-3.58 2.73-7.88 3.886-12.33 3.886-6.04 0-12.359-2.129-17.552-5.349"/></clipPath><clipPath id="am" clipPathUnits="userSpaceOnUse"><path d="M52.351 68.843C37.057 59.36 27.107 42.014 7.063 42.754c-4.683.173-9.307 1.296-13.994 1.268a19 19 0 0 1-2.916-.239c-7.858-1.265-13.249-7.459-12.548-16.105.634-7.813 6.212-14.626 13.104-18.362S5.642 4.53 13.481 4.503c20.562-.066 41.09 6.658 57.627 18.877 7.524 5.558 14.45 12.558 17.44 21.42s1.126 19.838-6.315 25.506c-3.58 2.73-7.88 3.886-12.33 3.886-6.04 0-12.359-2.129-17.552-5.349"/></clipPath><clipPath id="an" clipPathUnits="userSpaceOnUse"><path d="M50.851 68.843C35.557 59.36 25.607 42.014 5.563 42.754.88 42.927-3.744 44.05-8.43 44.022a19 19 0 0 1-2.916-.239c-7.858-1.265-13.249-7.459-12.548-16.105.634-7.813 6.212-14.626 13.104-18.362C-3.9 5.58 4.142 4.53 11.981 4.503c20.562-.066 41.09 6.658 57.627 18.877 7.524 5.558 14.45 12.558 17.44 21.42s1.126 19.838-6.315 25.506c-3.58 2.73-7.88 3.886-12.33 3.886-6.04 0-12.359-2.129-17.552-5.349"/></clipPath><clipPath id="ao" clipPathUnits="userSpaceOnUse"><path d="M6.546 64.28c-15.294-9.485-25.244-26.83-45.288-26.09-4.683.173-9.307 1.296-13.994 1.268a19 19 0 0 1-2.916-.239C-63.51 37.954-68.9 31.76-68.2 23.114c.634-7.813 6.212-14.626 13.104-18.362C-48.205 1.015-40.163-.034-32.324-.06c20.562-.066 41.09 6.658 57.627 18.877 7.524 5.558 14.45 12.558 17.44 21.42s1.126 19.838-6.315 25.506c-3.58 2.73-7.88 3.886-12.33 3.886-6.04 0-12.359-2.129-17.552-5.349"/></clipPath><clipPath id="ap" clipPathUnits="userSpaceOnUse"><path d="M4.858 63.814C-10.436 54.33-20.386 36.985-40.43 37.725c-4.683.173-9.307 1.296-13.994 1.268a19 19 0 0 1-2.916-.239c-7.858-1.265-13.249-7.459-12.548-16.105.634-7.813 6.212-14.626 13.104-18.362C-49.893.55-41.85-.499-34.012-.526c20.562-.066 41.09 6.658 57.627 18.877 7.524 5.558 14.45 12.558 17.44 21.42s1.126 19.838-6.315 25.506c-3.58 2.73-7.88 3.886-12.33 3.886-6.04 0-12.359-2.129-17.552-5.349"/></clipPath><clipPath id="aq" clipPathUnits="userSpaceOnUse"><path d="M-392.89 749.505h1080v-1080h-1080Z"/></clipPath><clipPath id="ar" clipPathUnits="userSpaceOnUse"><path d="M-427.861 576.124h1080v-1080h-1080Z"/></clipPath><clipPath id="as" clipPathUnits="userSpaceOnUse"><path d="M-361.466 578.074h1080v-1080h-1080Z"/></clipPath><clipPath id="at" clipPathUnits="userSpaceOnUse"><path d="M-361.865 579.52h1080v-1080h-1080Z"/></clipPath><clipPath id="au" clipPathUnits="userSpaceOnUse"><path d="M64.917 39.702c-2.143-.014-4.274-.436-6.24-1.29-5.77-2.509-17.041-9.397-22.558-26.294 0 0-13.525-9.598-17.024-18.556-1.29-3.299 1.545-6.752 5.045-6.205C49.788-8.635 171.993 4.848 399.068-54.959c3.626-.954 7.124 2.104 6.516 5.802-.616 3.747-2.67 9.307-7.802 17.433 0 0-1.07 20.318-17.11 28.872 0 0-78.822 42.592-303.775 42.594-3.953 0-7.935-.013-11.98-.04"/></clipPath><clipPath id="av" clipPathUnits="userSpaceOnUse"><path d="M64.518 41.149c-2.143-.014-4.274-.436-6.24-1.29-5.77-2.51-17.041-9.397-22.558-26.294 0 0-13.525-9.598-17.024-18.556-1.29-3.3 1.545-6.752 5.045-6.205 25.648 4.008 147.853 17.49 374.928-42.316 3.626-.954 7.124 2.104 6.516 5.802-.616 3.747-2.67 9.307-7.802 17.433 0 0-1.07 20.318-17.11 28.872 0 0-78.822 42.592-303.775 42.594-3.953 0-7.935-.013-11.98-.04"/></clipPath><clipPath id="aw" clipPathUnits="userSpaceOnUse"><path d="M-361.865 579.52h1080v-1080h-1080Z"/></clipPath></defs><path d="M0 0h1080v1080H0Z" style="fill:#fff;fill-opacity:1;fill-rule:nonzero;stroke:none" transform="matrix(1.33333 0 0 -1.33333 0 1440)"/><path d="M0 0a585 585 0 0 0-23.162 3.784C-93.888 16.761-155.047 41.485-204.92 77.266c-40.315 28.923-73.278 65.005-97.972 107.245-42.086 71.989-45.484 136.9-45.608 139.628l-.822 18.086 89.72 26.045-72.835 242.805L-26.804 721.44l30.059 10.843 30.04-10.841 305.638-110.367-72.836-242.805 89.719-26.045-.821-18.085c-.124-2.728-3.519-67.64-45.604-139.628-24.693-42.241-57.655-78.323-97.971-107.246C161.546 41.485 100.386 16.761 29.638 3.781A602 602 0 0 0 6.537.004L3.269-.468Z" clip-path="url(#a)" style="fill:#eadb26;fill-opacity:1;fill-rule:nonzero;stroke:none" transform="matrix(1.33333 0 0 -1.33333 713.004 1202.905)"/><path d="M0 0c-80.22 11.56-159.606 39.234-222.851 91.153-60.939 50.026-103.711 120.7-119.731 197.927-3.584 17.28-4.841 34.15-5.639 51.698l-1.101-1.446 78.719 22.851 11.001 3.194c.765.222 1.284 1.058 1.048 1.845l-7.268 24.228-17.344 57.818-21.082 70.279-18.143 60.483-5.994 19.982-1.891 6.301c-.252.842-.422 2.613-.989 3.298-.072.088-.09.302-.125.417l-1.047-1.846 36.22 13.08 84.458 30.498 96.075 34.693 72.166 26.059q20.642 7.452 41.285 14.899l3.963 1.429c.876.316 1.98.322.748.543 2.001-.359 4.11-1.483 6.015-2.171l21.583-7.789 9.416-3.4 60.882-21.984 93.543-33.779 90.661-32.738 51.113-18.457 2.444-.883-1.048 1.846-7.267-24.228-17.345-57.819-21.081-70.278-18.144-60.483-5.994-19.983c-.925-3.081-2.402-6.407-2.88-9.599-.02-.138-.084-.281-.125-.416-.235-.784.283-1.623 1.048-1.845l78.718-22.852 11.002-3.193-1.101 1.446c-.676-14.875-1.476-29.298-4.139-43.991-6.763-37.319-20.037-73.564-38.489-106.669-20.192-36.226-46.856-68.62-78.497-95.429-30.701-26.012-65.823-46.541-103.003-61.807C90.051 16.566 48.111 6.141 5.649-.009c-.761-.11-2.76-.433-2.779-.433C2.819-.442.795-.114 0 0c-1.888.27-2.704-2.62-.798-2.893C6.211-3.896 13.471-1.892 20.401-.734a572 572 0 0 1 32.952 6.495c21.217 4.84 42.154 10.946 62.565 18.505 37.807 14.001 73.797 33.019 105.786 57.638 32.885 25.309 61.207 56.325 83.211 91.522 21.444 34.3 37.064 72.427 45.646 111.97 3.646 16.801 5.357 33.377 6.134 50.481l.223 4.901c.03.661-.489 1.269-1.102 1.447l-78.718 22.851-11.001 3.194 1.047-1.846 7.268 24.228 17.344 57.819 21.082 70.278 18.144 60.483 5.994 19.983c.924 3.081 2.402 6.407 2.879 9.599.021.138.085.281.125.416.246.82-.299 1.575-1.047 1.845l-36.221 13.08-84.797 30.62-96.37 34.799-71.869 25.953q-20.99 7.578-41.981 15.154c-1.455.525-3.445 1.712-5.038 1.629-1.714-.089-3.833-1.337-5.421-1.91l-21.798-7.863-9.81-3.542-60.522-21.854-93.781-33.865-90.734-32.764-51.383-18.554-2.443-.883c-.749-.27-1.296-1.018-1.048-1.845l7.268-24.228 17.344-57.819 21.082-70.278 18.144-60.483 5.994-19.982 1.89-6.301c.253-.842.423-2.613.989-3.298.073-.088.091-.302.125-.417l1.048 1.846-78.719-22.852-11.002-3.193c-.61-.177-1.131-.787-1.101-1.447.66-14.521 1.416-28.642 3.928-42.995 6.239-35.643 18.494-70.34 35.385-102.308 19.269-36.467 45.007-69.411 75.772-96.885 29.172-26.051 62.589-47.044 98.246-63.024C-99.668 18.438-59.11 6.943-17.884-.194A616 616 0 0 1-.798-2.893C1.091-3.165 1.906-.275 0 0" clip-path="url(#b)" style="fill:#000;fill-opacity:1;fill-rule:nonzero;stroke:none" transform="matrix(1.33333 0 0 -1.33333 713.536 1200.976)"/><path d="M0 0s-11.112-244.579-306.531-298.78a575 575 0 0 0-22.234-3.635 558 558 0 0 0-22.246 3.635C-646.419-244.579-657.542 0-657.542 0l94.62 27.467-73.25 244.185 285.161 102.973 22.246 8.024 22.234-8.024 285.162-102.973-73.25-244.185z" clip-path="url(#c)" style="fill:#43aadd;fill-opacity:1;fill-rule:nonzero;stroke:none" transform="matrix(1.33333 0 0 -1.33333 1155.695 769.327)"/><path d="M0 0c-.39-8.487-1.851-17.001-3.438-25.328-4.107-21.551-10.567-42.669-18.953-62.935-11.873-28.693-27.849-55.75-47.386-79.893-24.685-30.505-54.941-56.171-88.636-76.228-44.007-26.196-93.173-42.713-143.339-52.262a560 560 0 0 0-12.055-2.163c-4.554-.765-9.775-2.266-14.396-1.967-8.692.563-17.609 2.778-26.154 4.43-13.87 2.681-27.64 5.89-41.246 9.69-24.586 6.867-48.655 15.669-71.653 26.77-37.387 18.047-71.789 42.204-100.452 72.312-22.712 23.857-41.622 51.211-56.084 80.798-10.713 21.916-19.014 45.042-24.61 68.789-2.812 11.934-5.125 24.125-6.034 36.37-.04.539-.081 1.078-.106 1.617l-1.101-1.446 82.904 24.066 11.716 3.401c.765.222 1.283 1.058 1.047 1.845l-7.269 24.232-17.462 58.214-21.14 70.47-18.367 61.228-6.023 20.08-1.864 6.213c-.264.878-.426 2.595-.998 3.327-.074.094-.09.301-.126.421l-1.048-1.845 32.685 11.802 164.657 59.458 68.682 24.802q17.758 6.412 35.518 12.819l4.096 1.478c.863.311 2.276.382.995.629 2.144-.414 4.372-1.578 6.418-2.316l15.797-5.702 9.079-3.278 59.001-21.306 86.401-31.199 82.193-29.68 46.316-16.725 2.167-.782-1.048 1.845-7.269-24.232-17.463-58.214-21.139-70.471-18.367-61.228-6.024-20.079c-.921-3.072-2.37-6.362-2.862-9.54-.021-.141-.085-.284-.126-.421-.235-.784.282-1.623 1.048-1.845l82.904-24.067 11.715-3.4c1.858-.54 2.651 2.354.798 2.892l-82.904 24.067-11.716 3.401 1.048-1.846 7.269 24.233 17.463 58.213 21.14 70.471 18.367 61.228 6.023 20.079c.921 3.072 2.37 6.362 2.862 9.54.022.141.085.284.126.421.246.82-.299 1.575-1.048 1.845l-32.684 11.803-76.672 27.686-88.585 31.989-68.425 24.708-36.01 13c-1.607.58-3.859 1.937-5.618 1.838-1.837-.103-4.066-1.421-5.777-2.039q-8.334-3.005-16.667-6.012l-8.84-3.192-58.687-21.192-86.638-31.285-82.514-29.796-46.316-16.725-2.167-.783c-.749-.27-1.295-1.018-1.047-1.845l7.269-24.232 17.463-58.214 21.139-70.47 18.367-61.228 7.887-26.292c.264-.879.426-2.596.998-3.328.074-.094.09-.301.126-.421l1.048 1.846-82.904-24.067-11.715-3.401c-.61-.177-1.132-.786-1.102-1.446.405-8.799 1.924-17.636 3.574-26.269 4.171-21.819 10.75-43.196 19.301-63.69 12.129-29.067 28.317-56.357 48.182-80.807 24.932-30.685 55.54-56.482 89.529-76.614 44.504-26.361 94.248-42.956 144.941-52.456a570 570 0 0 1 12.447-2.195c4.063-.669 8.591-1.961 12.702-1.83 4.348.138 8.913 1.333 13.206 2.05q6.629 1.107 13.229 2.372c14.063 2.692 28.024 5.921 41.819 9.758 24.456 6.804 48.4 15.532 71.316 26.471 37.987 18.134 73.005 42.566 102.13 73.035 22.961 24.019 42.143 51.588 56.78 81.414C-17.448-86.474-8.939-62.953-3.245-38.784-.379-26.617 1.952-14.181 2.889-1.697 2.931-1.132 2.974-.566 3 0 3.089 1.93.088 1.926 0 0" clip-path="url(#d)" style="fill:#000;fill-opacity:1;fill-rule:nonzero;stroke:none" transform="matrix(1.33333 0 0 -1.33333 1153.695 769.327)"/><path d="M0 0c0-39.526-32.042-71.569-71.569-71.569S-143.138-39.526-143.138 0s32.043 71.569 71.569 71.569S0 39.526 0 0" clip-path="url(#e)" style="fill:#ff571e;fill-opacity:1;fill-rule:nonzero;stroke:none" transform="matrix(1.33333 0 0 -1.33333 1194.758 747.034)"/><path d="M0 0c-.035-14.528-4.542-28.751-12.952-40.606-8.144-11.48-19.835-20.419-33.065-25.231-13.79-5.016-29.042-5.586-43.165-1.593-13.652 3.86-25.899 11.927-34.948 22.84-9.141 11.025-14.736 24.889-15.805 39.17-1.088 14.523 2.33 29.162 9.868 41.633 7.304 12.083 18.235 21.776 31.076 27.636 13.328 6.082 28.603 7.752 42.947 4.819 13.957-2.853 26.825-9.995 36.664-20.291C-9.547 38.087-3.041 24.895-.824 10.839-.259 7.255-.009 3.626 0 0c.005-1.93 3.005-1.934 3 0-.036 15.127-4.732 30.075-13.552 42.388-8.551 11.938-20.57 21.146-34.354 26.227-14.402 5.308-30.48 5.869-45.235 1.662-14.101-4.019-26.882-12.384-36.215-23.692-9.585-11.614-15.403-25.974-16.566-40.992-1.172-15.123 2.473-30.496 10.35-43.461 7.608-12.521 19.004-22.685 32.368-28.708 13.984-6.303 29.755-8.058 44.791-5.019 14.49 2.929 27.947 10.415 38.155 21.097 10.244 10.721 17.138 24.53 19.38 39.2A76 76 0 0 1 3 0C3.005 1.931.005 1.933 0 0" clip-path="url(#f)" style="fill:#000;fill-opacity:1;fill-rule:nonzero;stroke:none" transform="matrix(1.33333 0 0 -1.33333 1192.758 747.034)"/><path d="M0 0c0-29.026-23.53-52.555-52.555-52.555-29.026 0-52.556 23.529-52.556 52.555s23.53 52.555 52.556 52.555S0 29.026 0 0" clip-path="url(#g)" style="fill:#eadb26;fill-opacity:1;fill-rule:nonzero;stroke:none" transform="matrix(1.33333 0 0 -1.33333 1169.407 747.034)"/><path d="M0 0c-.035-10.63-3.33-21.003-9.495-29.671-5.956-8.375-14.537-14.896-24.212-18.366-10.089-3.619-21.211-3.993-31.514-1.028-9.915 2.854-18.783 8.758-25.341 16.711-13.62 16.517-15.238 40.616-4.129 58.875 5.338 8.774 13.303 15.791 22.646 20.043 9.684 4.407 20.811 5.608 31.224 3.469C-20.138 45.783-3.899 28.735-.596 7.89-.183 5.282-.009 2.639 0 0c.006-1.93 3.006-1.934 3 0-.037 11.173-3.485 22.22-9.999 31.318-6.372 8.9-15.315 15.736-25.597 19.498-21.182 7.751-45.749 1.047-60.087-16.341a54.4 54.4 0 0 1-12.263-30.286c-.884-11.208 1.82-22.618 7.665-32.224 5.643-9.277 14.105-16.817 24.024-21.256a54.67 54.67 0 0 1 32.901-3.702C-18.495-48.649-.997-30.396 2.349-8.35 2.769-5.583 2.991-2.798 3 0 3.006 1.931.006 1.933 0 0" clip-path="url(#h)" style="fill:#000;fill-opacity:1;fill-rule:nonzero;stroke:none" transform="matrix(1.33333 0 0 -1.33333 1167.407 747.034)"/><path d="M0 0c0-39.526-32.042-71.569-71.569-71.569S-143.138-39.526-143.138 0s32.043 71.569 71.569 71.569S0 39.526 0 0" clip-path="url(#i)" style="fill:#ff571e;fill-opacity:1;fill-rule:nonzero;stroke:none" transform="matrix(1.33333 0 0 -1.33333 436.092 747.034)"/><path d="M0 0c-.035-14.528-4.542-28.751-12.952-40.606-8.144-11.48-19.835-20.419-33.065-25.231-13.79-5.016-29.042-5.586-43.165-1.593-13.652 3.86-25.899 11.927-34.948 22.84-9.141 11.025-14.736 24.889-15.805 39.17-1.088 14.523 2.33 29.162 9.868 41.633 7.304 12.083 18.235 21.776 31.076 27.636 13.328 6.082 28.604 7.752 42.947 4.819 13.957-2.853 26.825-9.995 36.664-20.291C-9.547 38.087-3.04 24.895-.824 10.839-.259 7.255-.009 3.626 0 0c.005-1.93 3.005-1.934 3 0-.036 15.127-4.732 30.075-13.552 42.388-8.551 11.938-20.57 21.146-34.354 26.227-14.402 5.308-30.48 5.869-45.235 1.662-14.101-4.019-26.882-12.384-36.215-23.692-9.585-11.614-15.403-25.974-16.566-40.992-1.172-15.123 2.473-30.496 10.35-43.461 7.608-12.521 19.004-22.685 32.368-28.708 13.984-6.303 29.755-8.058 44.791-5.019 14.49 2.929 27.947 10.415 38.155 21.097 10.245 10.721 17.138 24.53 19.38 39.2A76 76 0 0 1 3 0C3.005 1.931.005 1.933 0 0" clip-path="url(#j)" style="fill:#000;fill-opacity:1;fill-rule:nonzero;stroke:none" transform="matrix(1.33333 0 0 -1.33333 434.092 747.034)"/><path d="M0 0c0-29.026-23.53-52.555-52.555-52.555-29.026 0-52.556 23.529-52.556 52.555s23.53 52.555 52.556 52.555S0 29.026 0 0" clip-path="url(#k)" style="fill:#eadb26;fill-opacity:1;fill-rule:nonzero;stroke:none" transform="matrix(1.33333 0 0 -1.33333 410.74 747.034)"/><path d="M0 0c-.035-10.63-3.33-21.003-9.495-29.671-5.956-8.375-14.537-14.896-24.212-18.366-10.089-3.619-21.211-3.993-31.514-1.028-9.915 2.854-18.783 8.758-25.341 16.711-13.62 16.517-15.238 40.616-4.129 58.875 5.338 8.774 13.303 15.791 22.646 20.043 9.684 4.407 20.811 5.608 31.224 3.469C-20.137 45.783-3.899 28.735-.596 7.89-.183 5.282-.009 2.639 0 0c.006-1.93 3.006-1.934 3 0-.037 11.173-3.485 22.22-9.999 31.318-6.372 8.9-15.315 15.736-25.597 19.498-21.182 7.751-45.749 1.047-60.087-16.341a54.4 54.4 0 0 1-12.263-30.286c-.884-11.208 1.82-22.618 7.665-32.224 5.644-9.277 14.105-16.817 24.024-21.256a54.67 54.67 0 0 1 32.901-3.702C-18.495-48.649-.997-30.396 2.349-8.35 2.769-5.583 2.991-2.798 3 0 3.006 1.931.006 1.933 0 0" clip-path="url(#l)" style="fill:#000;fill-opacity:1;fill-rule:nonzero;stroke:none" transform="matrix(1.33333 0 0 -1.33333 408.74 747.034)"/><path d="M0 0h-135.312a9.23 9.23 0 0 0-9.231 9.232 9.23 9.23 0 0 0 9.231 9.231H0A9.231 9.231 0 1 0 0 0" clip-path="url(#m)" style="fill:#eadb26;fill-opacity:1;fill-rule:nonzero;stroke:none" transform="matrix(1.33333 0 0 -1.33333 806.32 361.099)"/><path d="M0 0h-134.735c-1.613 0-3.158.26-4.572 1.111-4.006 2.41-4.959 8.05-1.911 11.617 1.585 1.855 3.811 2.726 6.212 2.735.744.003 1.487 0 2.231 0H-1.594c.517 0 1.034.008 1.55 0 3.837-.056 7.202-2.833 7.719-6.703C8.294 4.122 4.597.085 0 0c-1.928-.035-1.934-3.036 0-3 5.167.095 9.75 3.79 10.578 8.969.801 5.006-2.016 9.929-6.738 11.776-2.332.913-4.889.718-7.346.718h-111.223c-6.772 0-13.544.031-20.316 0-2.738-.012-5.306-.895-7.384-2.703-3.83-3.332-4.701-9.204-2.094-13.538 1.969-3.273 5.498-5.172 9.285-5.222.589-.008 1.179 0 1.768 0H0c1.93 0 1.934 3 0 3" clip-path="url(#n)" style="fill:#000;fill-opacity:1;fill-rule:nonzero;stroke:none" transform="matrix(1.33333 0 0 -1.33333 806.32 359.099)"/><path d="M0 0h-135.312a9.23 9.23 0 0 0-9.231 9.232 9.23 9.23 0 0 0 9.231 9.231H0A9.231 9.231 0 1 0 0 0" clip-path="url(#o)" style="fill:#eadb26;fill-opacity:1;fill-rule:nonzero;stroke:none" transform="matrix(1.33333 0 0 -1.33333 806.32 603.766)"/><path d="M0 0h-134.735c-1.613 0-3.158.26-4.572 1.111-4.006 2.41-4.959 8.05-1.911 11.617 1.585 1.855 3.811 2.726 6.212 2.735.744.003 1.487 0 2.231 0H-1.594c.517 0 1.034.008 1.55 0 3.837-.056 7.202-2.833 7.719-6.703C8.294 4.122 4.597.085 0 0c-1.928-.035-1.934-3.036 0-3 5.167.095 9.75 3.79 10.578 8.969.801 5.006-2.016 9.929-6.738 11.776-2.332.913-4.889.718-7.346.718h-111.223c-6.772 0-13.544.031-20.316 0-2.738-.012-5.306-.895-7.384-2.703-3.83-3.332-4.701-9.204-2.094-13.538 1.969-3.273 5.498-5.172 9.285-5.222.589-.008 1.179 0 1.768 0H0c1.93 0 1.934 3 0 3" clip-path="url(#p)" style="fill:#000;fill-opacity:1;fill-rule:nonzero;stroke:none" transform="matrix(1.33333 0 0 -1.33333 806.32 601.766)"/><path d="M8.179.001q-.962 0-.961-.967v-40.412l-5.168.193q-.974 0-.973-.966v-8.34q-.002-.967.973-.967h17.062q.96 0 .961.966V-.966q-.002.967-.96.967zm24.94 0q-2.205 0-3-.902-.786-.914-.785-2.643v-44.318q-.001-1.74.785-2.642.795-.916 3-.916l26.52-.116q2.237 0 3.011.916.774.902.774 2.642v44.434q0 1.73-.774 2.643-.773.903-3.011.902zm9.07-9.655h8.38v-32.227h-8.38zm0 0" aria-label="10" style="fill:#fff;fill-opacity:1;fill-rule:nonzero;stroke:none" transform="matrix(1.33333 0 0 1.21212 1056.025 778.23)"/><path d="M0 0q.965 0 .965.877v45.022q0 .877-.965.877h-17.062q-.964 0-.964-.877v-7.58q0-.877.964-.877l5.172.175V.877q0-.877.966-.877Z" clip-path="url(#q)" style="fill:none;stroke:#000;stroke-width:3;stroke-linecap:butt;stroke-linejoin:miter;stroke-miterlimit:10;stroke-dasharray:none;stroke-opacity:1" transform="matrix(1.33333 0 0 -1.33333 1081.501 778.23)"/><path d="M0 0q2.238 0 3.011.825.772.824.772 2.404v40.389q0 1.58-.772 2.403-.773.825-3.011.825l-26.518-.105q-2.2 0-2.992-.824-.79-.826-.791-2.404V3.229q0-1.58.791-2.404Q-28.717 0-26.518 0Zm-17.447 38.074h8.377V8.773h-8.377z" clip-path="url(#r)" style="fill:none;stroke:#000;stroke-width:3;stroke-linecap:butt;stroke-linejoin:miter;stroke-miterlimit:10;stroke-dasharray:none;stroke-opacity:1" transform="matrix(1.33333 0 0 -1.33333 1135.54 778.23)"/><path d="M4.43.001q-.763.002-.762-.76v-39.2q-.001-.76.762-.761h21.293q.76 0 .761.76v6.6c0 .51-.255.76-.761.76H13.84v8.676h10.84q.773 0 .773.774v5.581q0 .774-.773.774H13.84v8.636h11.883q.76.001.761.76v6.64q-.001.762-.761.76zm29.206 0q-.763.002-.762-.76v-5.75q0-.397.035-.644.046-.241.363-.387l8.004-3.674v-5.44l-7.886-4.885q-.517-.308-.516-.915V-33.67q-.001-.487.059-.71.057-.23.457-.515l8.039-5.427q.303-.191.562-.296.256-.102.656-.103h8.25q.761 0 .762.76v5.195q0 .673-.457.915l-8.004 3.3v5.646l8.004 4.59q.457.22.457.98v13.29q-.002.245-.082.515a.6.6 0 0 1-.316.4L41.663-.36l-.445.231a1.1 1.1 0 0 1-.492.13zm31.277 0q-.763.002-.762-.76V-32.6h-5.343q-.764.001-.762-.76v-6.6q-.001-.76.762-.761h20.87q.762 0 .762.76v6.6c0 .51-.254.76-.761.76h-5.356V-.76c0 .51-.255.761-.761.761zm0 0" aria-label="EST" style="fill:#fff;fill-opacity:1;fill-rule:nonzero;stroke:none" transform="matrix(1.33333 0 0 1.21212 286.973 773.631)"/><path d="M0 0q.764 0 .764.694v6.027q0 .694-.764.694h-11.884v7.859h10.845q.764 0 .764.695v5.082q0 .694-.764.694h-10.845v7.888H0q.764 0 .764.694v5.999q0 .694-.764.695h-21.293q-.764-.001-.764-.695V.694q0-.694.764-.694Z" clip-path="url(#s)" style="fill:none;stroke:#000;stroke-width:3;stroke-linecap:butt;stroke-linejoin:miter;stroke-miterlimit:10;stroke-dasharray:none;stroke-opacity:1" transform="matrix(1.33333 0 0 -1.33333 321.27 773.631)"/><path d="M0 0q.245 0 .504.125.26.124.443.208l9.592 4.333a.56.56 0 0 1 .321.36q.077.25.077.473V17.58q0 .694-.458.889l-8.004 4.165v5.138l8.004 2.999q.458.222.458.833v4.722q0 .694-.764.695H1.925q-.398-.001-.657-.098a4.5 4.5 0 0 1-.565-.264l-8.035-4.943q-.397-.25-.458-.458-.062-.21-.062-.654V20.412q0-.555.52-.833L.55 15.136v-4.944l-8.004-3.333q-.305-.139-.352-.36a3 3 0 0 1-.046-.584V.694q0-.694.764-.694Z" clip-path="url(#t)" style="fill:none;stroke:#000;stroke-width:3;stroke-linecap:butt;stroke-linejoin:miter;stroke-miterlimit:10;stroke-dasharray:none;stroke-opacity:1" transform="matrix(1.33333 0 0 -1.33333 341.31 773.631)"/><path d="M0 0q.764 0 .764.694v28.939H6.11q.764 0 .764.694v5.999q0 .694-.764.695h-20.865q-.764-.001-.764-.695v-5.999q0-.694.764-.694h5.346V.694q0-.694.763-.694Z" clip-path="url(#u)" style="fill:none;stroke:#000;stroke-width:3;stroke-linecap:butt;stroke-linejoin:miter;stroke-miterlimit:10;stroke-dasharray:none;stroke-opacity:1" transform="matrix(1.33333 0 0 -1.33333 385.137 773.631)"/><path d="M10.583 0q-2.31 0-2.309-2.295v-17.299q0-1.199.141-1.933.14-.735 1.055-1.2L33.575-33.76v-16.37L9.845-64.854c-1.05-.609-1.57-1.527-1.57-2.758v-33.76q-.001-1.468.187-2.154.186-.696 1.383-1.52l24.187-16.385q.924-.54 1.7-.863.783-.321 1.98-.323h24.844q2.295.001 2.297 2.295v15.636q-.001 2.025-1.383 2.759l-24.094 9.938v17.016L63.47-61.166q1.382.648 1.383 2.939v40.013q-.001.736-.235 1.572-.224.828-.96 1.186L34.77-1.109q-.555.286-1.336.696c-.516.278-1.02.413-1.512.413zm75.788 0q-2.297 0-2.297-2.295V-120.32q0-2.293 2.297-2.295h50.871q2.203 0 3.68 1.47l18.398 18.395q1.557 1.56 1.559 3.687v31.723q-.002 2.219-1.559 3.687l-18.398 18.395q-1.477 1.56-3.68 1.56h-22.535v41.404Q114.705.001 112.41 0zm35.238-68.72q7.628 0 10.43-3.03 2.813-3.038 2.813-11.498 0-8.468-2.813-11.498-2.802-3.041-10.43-3.042-7.548 0-10.359 3.042c-1.87 2.02-2.8 5.852-2.8 11.498 0 5.64.93 9.472 2.8 11.499q2.81 3.03 10.36 3.03M199.33 0q-2.112 0-3.68-1.56l-18.4-18.408q-1.56-1.47-1.559-3.673v-75.423q0-2.126 1.559-3.687l18.398-18.395q1.57-1.47 3.68-1.47h36.153q2.212 0 3.68 1.47l18.398 18.395q1.557 1.56 1.558 3.687v75.423q-.001 2.205-1.558 3.673L239.16-1.56Q237.694 0 235.48 0zm10.862-24.557h14.438q3.867.001 3.867-5.156v-63.19q0-5.245-3.867-5.246h-14.44q-3.774.001-3.773 5.246v63.19q0 5.157 3.773 5.156M283.404 0q-2.298 0-2.297-2.295V-120.32q0-2.293 2.297-2.295h49.864q2.201.001 3.68 1.186l21.152 20.973q1.005.93 1.242 1.573c.155.432.234 1.134.234 2.114v25.201q-.001 1.2-.926 2.114l-10.113 9.849-8.555 7.36 10.114 13.432 10.394 22.262q.36.828.598 1.612.233.774.234 1.882v10.763q0 2.296-2.308 2.295h-24.282q-2.016.002-2.753-1.843l-14.813-43.042h-6.902v42.59Q310.262.001 307.967 0zm36.985-67.43q7.628 0 10.383-3.172 2.764-3.171 2.765-11.91-.001-8.83-2.765-12.002-2.755-3.171-10.383-3.171-7.55 0-10.407 3.17-2.847 3.174-2.847 12.002 0 8.74 2.847 11.911 2.858 3.171 10.407 3.171M396.733 0q-2.297 0-2.296-2.295v-95.854h-16.102q-2.298.002-2.297-2.308v-19.864q0-2.293 2.297-2.295h62.824q2.308.001 2.309 2.295v19.864q0 2.309-2.309 2.308h-16.09v95.854q0 2.296-2.308 2.295zm68.256 0q-2.309 0-2.308-2.295v-17.299q0-1.199.14-1.933.141-.735 1.055-1.2l24.105-11.034v-16.37l-23.73-14.722q-1.572-.912-1.57-2.758v-33.76q-.001-1.468.187-2.154.186-.696 1.383-1.52l24.188-16.385q.924-.54 1.699-.863.783-.321 1.98-.323h24.844q2.296.001 2.297 2.295v15.636q-.001 2.025-1.383 2.759l-24.094 9.938v17.016l24.094 13.806q1.381.648 1.383 2.939v40.013q-.001.736-.235 1.572-.223.828-.96 1.186L489.177-1.109q-.555.286-1.336.696c-.516.278-1.02.413-1.512.413zm0 0" aria-label="SPORTS" style="fill:#fff;fill-opacity:1;fill-rule:nonzero;stroke:none" transform="matrix(1.33333 0 0 1.21212 360.448 545.445)"/><path d="M0 0q.735 0 1.518.376.78.376 1.334.628l28.883 13.045q.735.334.966 1.087t.23 1.422v36.376q0 2.089-1.38 2.675l-24.1 12.543v15.471l24.1 9.031q1.38.67 1.38 2.509v14.216q-.001 2.09-2.3 2.091H5.795q-1.197-.001-1.978-.293a14 14 0 0 1-1.702-.794l-24.191-14.886q-1.197-.752-1.38-1.379-.186-.628-.185-1.966V61.463q0-1.674 1.565-2.509l23.731-13.38V30.689l-24.099-10.034q-.921-.419-1.058-1.088-.14-.67-.139-1.755V2.091q0-2.092 2.3-2.091z" clip-path="url(#v)" style="fill:none;stroke:#000;stroke-width:3;stroke-linecap:butt;stroke-linejoin:miter;stroke-miterlimit:10;stroke-dasharray:none;stroke-opacity:1" transform="matrix(1.33333 0 0 -1.33333 403.007 545.445)"/><path d="M0 0q2.299 0 2.299 2.091v37.63h22.537q2.207 0 3.679 1.422l18.397 16.724q1.563 1.337 1.564 3.345v28.851q0 1.921-1.564 3.344l-18.397 16.725q-1.472 1.337-3.679 1.338h-50.868q-2.3-.002-2.3-2.091V2.091q0-2.092 2.3-2.091zm-1.15 65.226q-2.806 2.758-2.806 10.453 0 7.693 2.806 10.453t10.348 2.76q7.634 0 10.441-2.76 2.805-2.76 2.805-10.453 0-7.695-2.805-10.453-2.807-2.759-10.441-2.759-7.543 0-10.348 2.759z" clip-path="url(#w)" style="fill:none;stroke:#000;stroke-width:3;stroke-linecap:butt;stroke-linejoin:miter;stroke-miterlimit:10;stroke-dasharray:none;stroke-opacity:1" transform="matrix(1.33333 0 0 -1.33333 510.444 545.445)"/><path d="M0 0q2.207 0 3.679 1.422l18.397 16.724q1.564 1.337 1.564 3.345v68.572q0 1.921-1.564 3.344L3.679 110.132Q2.207 111.469 0 111.47h-36.15q-2.118-.001-3.68-1.338l-18.398-16.725q-1.564-1.423-1.563-3.344V21.491q0-2.008 1.563-3.345L-39.83 1.422Q-38.268-.001-36.15 0Zm-29.067 27.01v57.449q-.002 4.767 3.771 4.767h14.442q3.863 0 3.863-4.767V27.01q0-4.683-3.863-4.683h-14.442q-3.772 0-3.771 4.683z" clip-path="url(#x)" style="fill:none;stroke:#000;stroke-width:3;stroke-linecap:butt;stroke-linejoin:miter;stroke-miterlimit:10;stroke-dasharray:none;stroke-opacity:1" transform="matrix(1.33333 0 0 -1.33333 674.665 545.445)"/><path d="M0 0q2.298 0 2.299 2.091v38.717h6.899l14.81-39.135Q24.743-.001 26.768 0h24.284q2.299 0 2.299 2.091v9.783q-.001 1.003-.23 1.715-.23.71-.598 1.463L42.129 35.289 32.011 47.498l8.554 6.69 10.119 8.948q.919.835.92 1.923v22.913q-.002 1.336-.231 1.923-.23.585-1.241 1.421l-21.157 19.067q-1.472 1.086-3.679 1.087h-49.857q-2.3-.002-2.299-2.091V2.091q0-2.092 2.299-2.091Zm2.023 64.181Q-.828 67.065-.828 75.01q0 8.027 2.851 10.913 2.85 2.885 10.395 2.885 7.634 0 10.394-2.885 2.759-2.886 2.759-10.913 0-7.945-2.759-10.829t-10.394-2.885q-7.544 0-10.395 2.885z" clip-path="url(#y)" style="fill:none;stroke:#000;stroke-width:3;stroke-linecap:butt;stroke-linejoin:miter;stroke-miterlimit:10;stroke-dasharray:none;stroke-opacity:1" transform="matrix(1.33333 0 0 -1.33333 771.43 545.445)"/><path d="M0 0q2.299 0 2.3 2.091v87.135h16.097q2.3 0 2.3 2.09v18.063q0 2.09-2.3 2.091h-62.826q-2.3-.002-2.3-2.091V91.316q0-2.09 2.3-2.09h16.098V2.091q0-2.092 2.3-2.091z" clip-path="url(#z)" style="fill:none;stroke:#000;stroke-width:3;stroke-linecap:butt;stroke-linejoin:miter;stroke-miterlimit:10;stroke-dasharray:none;stroke-opacity:1" transform="matrix(1.33333 0 0 -1.33333 924.492 545.445)"/><path d="M0 0q.735 0 1.518.376.78.376 1.334.628l28.883 13.045q.735.334.966 1.087t.23 1.422v36.376q0 2.089-1.38 2.675l-24.1 12.543v15.471l24.1 9.031q1.38.67 1.38 2.509v14.216q-.001 2.09-2.3 2.091H5.795q-1.197-.001-1.978-.293a14 14 0 0 1-1.702-.794l-24.191-14.886q-1.197-.752-1.38-1.379-.186-.628-.185-1.966V61.463q0-1.674 1.565-2.509l23.731-13.38V30.689l-24.099-10.034q-.921-.419-1.058-1.088-.14-.67-.139-1.755V2.091q0-2.092 2.3-2.091z" clip-path="url(#A)" style="fill:none;stroke:#000;stroke-width:3;stroke-linecap:butt;stroke-linejoin:miter;stroke-miterlimit:10;stroke-dasharray:none;stroke-opacity:1" transform="matrix(1.33333 0 0 -1.33333 1009.363 545.445)"/><path d="M0 0c0-118.703-96.228-214.931-214.931-214.931S-429.861-118.703-429.861 0s96.227 214.931 214.93 214.931S0 118.703 0 0" clip-path="url(#B)" style="fill:#ff571e;fill-opacity:1;fill-rule:nonzero;stroke:none" transform="matrix(1.33333 0 0 -1.33333 1003.908 926.898)"/><path d="M0 0c-.031-22.412-3.492-44.735-10.418-66.058-6.648-20.467-16.448-39.869-28.898-57.418a214.3 214.3 0 0 0-44.503-46.121c-17.046-13.032-36.057-23.512-56.211-30.882a213.4 213.4 0 0 0-65.234-12.799c-22.411-.837-44.905 1.798-66.486 7.913-20.857 5.91-40.748 15.037-58.859 26.947-17.797 11.703-33.804 26.086-47.388 42.491-13.746 16.602-24.993 35.342-33.124 55.307a213 213 0 0 0-15.112 64.065c-1.717 22.54.076 45.333 5.44 67.298a212.8 212.8 0 0 0 24.715 59.737c11.097 18.311 24.948 34.906 40.948 49.132a214.2 214.2 0 0 0 53.566 34.838 211.7 211.7 0 0 0 63.573 17.593c22.411 2.547 45.23 1.609 67.334-2.896a212.5 212.5 0 0 0 61.093-22.651 214.7 214.7 0 0 0 50.399-39 214.4 214.4 0 0 0 36.875-52.42c9.745-19.53 16.41-40.561 19.772-62.124C-.819 22.054-.015 11.027 0 0c.003-1.93 3.003-1.934 3 0C2.969 22.661-.522 45.296-7.525 66.855a215.9 215.9 0 0 1-29.364 58.366 218.7 218.7 0 0 1-44.968 46.623 216.2 216.2 0 0 1-57.106 31.429c-21.141 7.761-43.499 12.12-65.999 12.994-22.757.884-45.671-1.799-67.585-8.009a215.7 215.7 0 0 1-59.576-27.25c-18.165-11.944-34.532-26.613-48.354-43.395a217.5 217.5 0 0 1-33.32-55.666c-8.506-20.726-13.679-42.761-15.413-65.094-1.771-22.796.063-45.889 5.455-68.111a215.5 215.5 0 0 1 25.086-60.737 217.7 217.7 0 0 1 41.628-49.925c16.262-14.422 34.672-26.407 54.483-35.356a216.4 216.4 0 0 1 63.978-17.699 218.2 218.2 0 0 1 68.434 2.877c21.629 4.38 42.567 12.141 61.848 22.873a217.5 217.5 0 0 1 51.449 39.811c14.979 15.699 27.612 33.649 37.276 53.079C-9.692-76.471-2.891-55.1.464-33.167A221 221 0 0 1 3 0C3.003 1.93.003 1.933 0 0" clip-path="url(#C)" style="fill:#000;fill-opacity:1;fill-rule:nonzero;stroke:none" transform="matrix(1.33333 0 0 -1.33333 1001.908 926.898)"/><path d="M0 0c-.039-28.866-4.315-57.642-12.934-85.201a279.3 279.3 0 0 0-35.877-74.063c-15.284-22.374-33.897-42.468-55.077-59.371-21.101-16.84-44.831-30.47-70.071-40.064a256.9 256.9 0 0 0-81.02-16.548c-27.986-1.104-56.084 2.328-82.952 10.249-25.892 7.634-50.496 19.393-72.799 34.588-22.34 15.22-42.3 33.886-59.144 55.02-17.189 21.565-31.117 45.778-41.182 71.45-10.352 26.403-16.674 54.35-18.75 82.631-2.133 29.058.096 58.431 6.765 86.798 6.353 27.024 16.698 53.066 30.691 77.045 13.708 23.491 30.867 44.929 50.85 63.384 19.741 18.233 42.215 33.476 66.514 44.963 24.891 11.767 51.715 19.518 79.059 22.763 27.955 3.318 56.464 2.087 84.004-3.767 26.528-5.638 52.082-15.504 75.555-29.083 23.377-13.523 44.603-30.645 62.892-50.508 18.514-20.108 33.957-42.988 45.79-67.623C-15.544 97.384-7.295 70.27-3.134 42.542-1.022 28.464-.019 14.232 0 0c.003-1.93 3.003-1.934 3 0-.039 29.115-4.347 58.201-13.041 85.999-8.369 26.756-20.717 52.273-36.592 75.383-15.488 22.543-34.271 42.817-55.699 59.824-21.297 16.903-45.081 30.557-70.489 40.256-26.24 10.016-54.095 15.678-82.158 16.785-28.231 1.114-56.646-2.366-83.749-10.356-26.243-7.737-51.227-19.663-73.814-35.094-22.535-15.395-42.699-34.21-59.68-55.57-17.277-21.731-31.255-45.976-41.454-71.795-10.563-26.741-16.961-55.067-19.101-83.733-2.189-29.317.066-58.984 6.756-87.615 6.428-27.511 16.993-54.066 31.266-78.45 13.858-23.676 31.217-45.332 51.399-63.919 20.039-18.455 42.844-33.918 67.512-45.496a260.6 260.6 0 0 1 79.545-22.819 261 261 0 0 1 84.812 3.753c26.893 5.673 52.846 15.702 76.633 29.462 23.583 13.643 45.047 30.94 63.499 50.978 18.767 20.379 34.458 43.577 46.419 68.564A284.3 284.3 0 0 1-.128-42.576 295 295 0 0 1 3 0C3.003 1.93.003 1.933 0 0" clip-path="url(#D)" style="fill:#000;fill-opacity:1;fill-rule:nonzero;stroke:none" transform="matrix(1.33333 0 0 -1.33333 1260.442 903.136)"/><path d="M0 0c-17.161 21.844-31.067 46.174-42.199 71.592-5.928 13.535-11.049 27.424-15.44 41.531-4.643 14.919-8.331 29.993-9.936 45.563a217 217 0 0 0 .33 47.294c1.422 12.216 3.844 24.585 8.734 35.93 3.373 7.827 8.022 15.246 14.552 20.82 5.254 4.487 11.63 7.417 18.417 8.649 14.431 2.619 29.474-2.181 42.285-8.563 7.378-3.676 14.427-8.073 21.029-13.006 11.87-8.868 22.043-19.908 31.231-31.474 18.337-23.079 32.855-48.903 50.644-72.39 12.796-16.894 27.324-33.328 46.35-43.274 15.128-7.909 32.427-12.352 49.549-11.061 21.25 1.603 40.117 12.309 54.256 27.989 4.355 4.83 8.265 10.049 11.823 15.489 1.085 1.657-1.571 3.196-2.649 1.548-12.622-19.294-30.547-35.512-53.58-40.523-17.298-3.762-35.566-.854-51.642 6.222-6.83 3.006-13.368 6.742-19.339 11.224-9.893 7.424-18.408 16.806-26.184 26.366-18.621 22.894-33.187 48.693-50.748 72.355-8.885 11.971-18.548 23.491-29.763 33.359-7.42 6.53-15.573 12.252-24.206 17.067-13.012 7.258-27.97 13.013-43.103 12.382-7.009-.292-13.928-2.075-20.033-5.574-6.785-3.889-12.249-9.699-16.413-16.268-5.643-8.903-9.058-19.134-11.338-29.367-3.273-14.683-4.517-29.915-4.391-44.938.131-15.679 1.93-31.385 5.549-46.646 3.49-14.722 8.313-29.224 13.664-43.366 10.027-26.504 22.812-52.058 38.864-75.442A302 302 0 0 1-2.169-2.17C-.951-3.721 1.207-1.536 0 0" clip-path="url(#E)" style="fill:#000;fill-opacity:1;fill-rule:nonzero;stroke:none" transform="matrix(1.33333 0 0 -1.33333 591.044 1275.883)"/><path d="M0 0c24.13-6.236 48.428-11.953 73.133-15.403 27.389-3.825 55.06-4.793 82.657-3.022 33.562 2.155 66.805 8.012 99.509 15.71q8.314 1.958 16.626 3.918l40.309 9.501L367.376 23.7l60.343 14.222 56.651 13.352 43.846 10.334c7.305 1.722 14.655 3.316 21.928 5.169.329.083.66.155.99.233 1.879.443 1.083 3.336-.797 2.893l-15.121-3.564-39.072-9.209-54.292-12.796-60.008-14.143-56.945-13.422-45.046-10.617L256.126.56c-25.21-5.942-50.674-10.885-76.42-13.835-28.829-3.302-57.933-4.054-86.849-1.417-25.28 2.306-50.194 7.239-74.833 13.246A1276 1276 0 0 0 .798 2.893C-1.073 3.376-1.871.483 0 0" clip-path="url(#F)" style="fill:#000;fill-opacity:1;fill-rule:nonzero;stroke:none" transform="matrix(1.33333 0 0 -1.33333 333.369 888.721)"/><path d="M0 0c0-27.526-16.959-49.839-37.878-49.839S-75.756-27.526-75.756 0s16.959 49.839 37.878 49.839S0 27.526 0 0" clip-path="url(#G)" style="fill:#fff;fill-opacity:1;fill-rule:nonzero;stroke:none" transform="matrix(1.33333 0 0 -1.33333 551.277 908.372)"/><path d="M0 0c-.052-17.43-7.391-37.371-23.978-45.455-7.019-3.421-15.141-3.769-22.44-1.021-7.609 2.864-13.742 8.862-17.982 15.673-10.131 16.274-11.098 38.376-3.15 55.731 3.507 7.656 8.864 14.7 16.148 19.098 6.681 4.034 14.683 5.394 22.259 3.354C-11.912 42.741-2.356 24.119-.437 7.59-.144 5.07-.008 2.537 0 0c.006-1.93 3.006-1.934 3 0-.055 18.497-8.039 39.752-25.731 48.175-7.656 3.644-16.516 4.193-24.484 1.194-8.216-3.092-14.838-9.293-19.508-16.626-10.994-17.269-11.874-40.718-3.417-59.185 3.754-8.198 9.652-15.694 17.481-20.328 7.262-4.298 15.979-5.703 24.171-3.541C-9.915-45.409.346-25.752 2.518-7.97A67 67 0 0 1 3 0C3.006 1.931.006 1.933 0 0" clip-path="url(#H)" style="fill:#000;fill-opacity:1;fill-rule:nonzero;stroke:none" transform="matrix(1.33333 0 0 -1.33333 549.277 908.372)"/><path d="M0 0c0-8.855-5.456-16.034-12.186-16.034S-24.371-8.855-24.371 0s5.456 16.034 12.185 16.034C-5.456 16.034 0 8.855 0 0" clip-path="url(#I)" style="fill:#000;fill-opacity:1;fill-rule:nonzero;stroke:none" transform="matrix(1.33333 0 0 -1.33333 494.042 906.788)"/><path d="M0 0c0-27.526-16.959-49.839-37.878-49.839S-75.756-27.526-75.756 0s16.959 49.839 37.878 49.839S0 27.526 0 0" clip-path="url(#J)" style="fill:#fff;fill-opacity:1;fill-rule:nonzero;stroke:none" transform="matrix(1.33333 0 0 -1.33333 634.564 903.056)"/><path d="M0 0c-.052-17.43-7.391-37.371-23.978-45.455-7.019-3.421-15.141-3.769-22.44-1.021-7.609 2.864-13.742 8.862-17.982 15.673-10.131 16.274-11.098 38.376-3.15 55.731 3.506 7.656 8.864 14.7 16.148 19.098 6.681 4.034 14.683 5.394 22.259 3.354C-11.912 42.741-2.356 24.119-.437 7.59-.144 5.07-.008 2.537 0 0c.006-1.93 3.006-1.934 3 0-.055 18.497-8.039 39.752-25.731 48.175-7.656 3.644-16.516 4.193-24.484 1.194-8.216-3.092-14.838-9.293-19.508-16.626-10.994-17.269-11.874-40.718-3.417-59.185 3.754-8.198 9.652-15.694 17.481-20.328 7.262-4.298 15.979-5.703 24.171-3.541C-9.915-45.409.346-25.752 2.518-7.97A67 67 0 0 1 3 0C3.006 1.931.006 1.933 0 0" clip-path="url(#K)" style="fill:#000;fill-opacity:1;fill-rule:nonzero;stroke:none" transform="matrix(1.33333 0 0 -1.33333 632.564 903.056)"/><path d="M0 0c0-8.855-5.456-16.034-12.186-16.034S-24.371-8.855-24.371 0s5.456 16.034 12.185 16.034C-5.456 16.034 0 8.855 0 0" clip-path="url(#L)" style="fill:#000;fill-opacity:1;fill-rule:nonzero;stroke:none" transform="matrix(1.33333 0 0 -1.33333 567.798 908.306)"/><path d="M0 0c3.171.217 6.274.855 8.291 1.227C16.833 2.8 24.77 4.475 32.425-.917c4.75-3.345 9.875-8.255 15.411-6.493 4.173 1.329 6.346 6.319 5.668 10.645s-3.557 7.994-6.782 10.956C33.716 26.135 13.934 29.022-1.55 20.224c-5.441-3.092-12.795-9.103-9.668-16.173C-9.55.281-4.702-.322 0 0" clip-path="url(#M)" style="fill:#fe8b14;fill-opacity:1;fill-rule:nonzero;stroke:none" transform="matrix(1.33333 0 0 -1.33333 569.729 825.783)"/><path d="M0 0c6.232.468 12.268 2.368 18.511 2.719 3.045.171 6.089-.091 8.962-1.166 2.899-1.085 5.279-3.071 7.746-4.878 4.341-3.18 10.255-6.482 15.377-2.869 4.388 3.095 5.461 9.168 3.644 13.991-2.069 5.489-6.763 9.719-11.505 12.95a43.9 43.9 0 0 1-15.354 6.584c-10.838 2.346-22.572.537-31.863-5.651-4.431-2.951-9.454-7.598-8.95-13.449.246-2.857 1.654-5.514 4.249-6.873C-6.396-.102-3.071-.194 0 0c1.917.121 1.931 3.122 0 3-4.343-.274-10.261.114-10.46 5.72-.161 4.512 4.087 8.102 7.492 10.37 8.188 5.453 18.445 7.376 28.097 5.636a41.6 41.6 0 0 0 14.034-5.253c4.38-2.628 8.813-6.167 11.333-10.692 2.14-3.842 2.486-9.448-1.414-12.385-4.402-3.314-9.814.978-13.331 3.596-2.585 1.924-5.146 3.72-8.247 4.72-2.824.911-5.842 1.164-8.794 1.017C12.392 5.413 6.296 3.473 0 3c-1.913-.144-1.929-3.145 0-3" clip-path="url(#N)" style="fill:#000;fill-opacity:1;fill-rule:nonzero;stroke:none" transform="matrix(1.33333 0 0 -1.33333 569.729 827.783)"/><path d="M0 0c-3.175-.143-6.331.139-8.377.279-8.665.595-16.74 1.361-23.735-4.864-4.341-3.862-8.876-9.321-14.577-8.197-4.296.847-7.02 5.559-6.837 9.934.184 4.375 2.628 8.346 5.497 11.654C-36.46 22.147-17.132 27.257-.752 20.269c5.757-2.455 13.745-7.594 11.439-14.973C9.456 1.361 4.708.213 0 0" clip-path="url(#O)" style="fill:#fe8b14;fill-opacity:1;fill-rule:nonzero;stroke:none" transform="matrix(1.33333 0 0 -1.33333 508.177 827.345)"/><path d="M0 0c-10.618-.41-22.26 3.253-31.566-3.718-3.927-2.942-7.325-8.161-12.432-9.109-4.923-.915-8.196 4.057-8.028 8.479.21 5.545 4.436 10.374 8.311 13.944a40.7 40.7 0 0 0 12.87 8.022c9.471 3.651 20.223 3.796 29.599-.258 4-1.728 9.14-4.529 10.527-8.997.666-2.146.318-4.802-1.521-6.268C5.655.418 2.582.13 0 0c-1.921-.097-1.933-3.098 0-3 5.139.259 11.332 1.65 12.414 7.552.967 5.278-2.57 9.529-6.639 12.368-8.977 6.26-20.959 7.776-31.48 5.398a43.9 43.9 0 0 1-15.355-6.773c-4.759-3.318-9.366-7.682-12.02-12.909-2.578-5.08-2.835-11.445 1.373-15.767 1.846-1.895 4.449-2.967 7.103-2.78 2.778.196 5.208 1.564 7.368 3.236 2.639 2.044 4.823 4.642 7.514 6.611 2.659 1.945 5.779 3.072 9.035 3.492C-13.813-1.687-6.889-3.266 0-3c1.924.074 1.934 3.075 0 3" clip-path="url(#P)" style="fill:#000;fill-opacity:1;fill-rule:nonzero;stroke:none" transform="matrix(1.33333 0 0 -1.33333 508.177 825.345)"/><path d="M0 0c-1.848.288-3.543 1.201-5.022 2.886-6.976 7.953 5.289 19.135 10.71 25.351 13.181 15.113 21.517 35.11 22.676 54.394.558 9.298.982 30.431 14.722 30.243 7.058-.097 9.013-8.466 9.476-14.966 1.424-19.991-3.733-42.278-13.797-61.247C33.785 27.275 13.079-2.036 0 0" clip-path="url(#Q)" style="fill:#fff;fill-opacity:1;fill-rule:nonzero;stroke:none" transform="matrix(1.33333 0 0 -1.33333 900.205 1104.96)"/><path d="M0 0c-4.21.749-6.753 4.754-5.762 8.849.982 4.059 3.852 7.577 6.521 10.671 2.917 3.382 6.037 6.558 8.784 10.087a96 96 0 0 1 9.12 14.073c5.149 9.732 8.705 20.342 10.182 31.262.975 7.207.709 14.536 2.261 21.672 1.264 5.815 4.042 13.115 11.046 13.31 4.156.115 6.313-3.193 7.385-6.814 1.318-4.456 1.385-9.267 1.358-13.876-.067-11.456-2.108-22.86-5.609-33.754-2.787-8.67-6.447-17.155-11.388-24.825-4.131-6.411-8.785-12.538-13.977-18.129-2.593-2.793-5.342-5.494-8.374-7.813C9.114 2.852 6.403 1.091 3.411.299 2.312.008 1.036-.149 0 0c-.808.117-1.602-.2-1.845-1.048-.202-.703.247-1.729 1.048-1.845C6.142-3.894 12.594 1.34 17.362 5.723c6.178 5.68 11.493 12.344 16.294 19.207 11.853 16.944 18.666 37.615 20.019 58.208.358 5.452.414 11.038-.347 16.46-.566 4.035-1.769 8.658-5.08 11.342-3.145 2.55-7.648 2.471-11.183.776-3.095-1.484-5.269-4.4-6.651-7.463-2.987-6.627-3.448-14.139-3.849-21.299-.616-11.029-3.139-21.791-7.639-31.895a95.6 95.6 0 0 0-8.756-15.574C7.282 31.321 3.972 27.572.577 23.827-4.435 18.299-12.884 8.883-7.111 1.163-5.558-.915-3.373-2.435-.797-2.893 1.09-3.229 1.901-.338 0 0" clip-path="url(#R)" style="fill:#000;fill-opacity:1;fill-rule:nonzero;stroke:none" transform="matrix(1.33333 0 0 -1.33333 900.736 1103.032)"/><path d="M0 0c.628-.927.92-2.042.785-3.377C.149-9.679-9.754-8.87-14.689-9.032c-11.998-.394-24.159-4.904-33.077-12.266-4.301-3.55-13.73-11.988-19.254-5.893-2.838 3.131.029 7.402 2.687 10.257 8.175 8.782 20.041 15.619 32.456 18.951C-25.733 3.666-4.446 6.559 0 0" clip-path="url(#S)" style="fill:#fff;fill-opacity:1;fill-rule:nonzero;stroke:none" transform="matrix(1.33333 0 0 -1.33333 658.513 670.549)"/><path d="M0 0c1.186-1.905.588-4.163-1.305-5.259-1.672-.969-3.755-1.216-5.649-1.353-2.002-.145-4.007-.105-6.011-.151a57 57 0 0 1-9.182-.992 58.1 58.1 0 0 1-18.017-6.626c-2.699-1.543-5.236-3.334-7.629-5.315-1.725-1.428-3.438-2.866-5.288-4.132-3.058-2.092-8.964-5.504-11.829-1.23-1.66 2.477 1.079 5.773 2.675 7.54 2.045 2.264 4.326 4.33 6.713 6.226C-46.9-4.441-36.265.535-25.371 2.311c4.807.784 9.733 1.197 14.603.998 2.268-.093 4.549-.323 6.736-.959C-2.568 1.924-.863 1.225 0 0c1.103-1.566 3.706-.069 2.59 1.514C.2 4.908-4.357 5.742-8.218 6.132c-4.894.495-9.887.162-14.753-.467-11.702-1.51-22.914-6.117-32.423-13.113-2.75-2.023-5.365-4.233-7.755-6.674-2.225-2.272-4.655-5.001-5.153-8.264-.462-3.026 1.334-5.74 4.057-6.984 2.327-1.064 4.955-.805 7.299.07 5.092 1.903 8.873 5.782 13.145 8.963 5.698 4.242 12.271 7.243 19.153 8.966a53.7 53.7 0 0 0 10.626 1.572c2.261.101 4.526.022 6.786.168 4.206.272 9.913 1.348 10.731 6.35.275 1.684.001 3.341-.905 4.795C1.572 3.149-1.025 1.645 0 0" clip-path="url(#T)" style="fill:#000;fill-opacity:1;fill-rule:nonzero;stroke:none" transform="matrix(1.33333 0 0 -1.33333 656.786 671.558)"/><path d="M0 0c0-21.063-17.075-38.139-38.139-38.139-21.063 0-38.138 17.076-38.138 38.139s17.075 38.139 38.138 38.139C-17.075 38.139 0 21.063 0 0" clip-path="url(#U)" style="fill:#ff571e;fill-opacity:1;fill-rule:nonzero;stroke:none" transform="matrix(1.33333 0 0 -1.33333 684.54 934.503)"/><path d="M0 0c-3.475 4.618-8.453 8.406-13.581 10.974-4.867 2.439-10.217 3.834-15.672 3.892-5.993.063-11.706-1.534-17.147-3.937C-54.15 7.506-60.966.968-65.018-6.404c-6.382-11.611-6.14-26.015.337-37.528 6.798-12.085 19.74-19.532 33.582-19.576 2.161-.007 4.301.184 6.44.473.809.109 1.234 1.138 1.048 1.845-.229.869-1.046 1.155-1.845 1.048-13.411-1.808-27.004 3.522-34.782 14.76-6.953 10.047-8.527 23.36-3.594 34.619 3.551 8.104 10.26 14.885 18.207 18.757.256.125.516.241.774.36.295.136-.642-.287-.064-.026.87.393 1.751.763 2.644 1.1 3.036 1.145 6.223 1.979 9.457 2.286a32.6 32.6 0 0 0 15.377-2.261C-11.69 7.123-6.569 3.217-2.592-1.519c.267-.318.091-.114.002.005C-1.444-3.038 1.162-1.545 0 0" clip-path="url(#V)" style="fill:#000;fill-opacity:1;fill-rule:nonzero;stroke:none" transform="matrix(1.33333 0 0 -1.33333 674.545 900.86)"/><path d="M0 0c0-8.268-10.213-14.97-22.812-14.97S-45.624-8.268-45.624 0s10.213 14.97 22.812 14.97S0 8.268 0 0" clip-path="url(#W)" style="fill:#10b46f;fill-opacity:1;fill-rule:nonzero;stroke:none" transform="matrix(1.33333 0 0 -1.33333 563.828 958.265)"/><path d="M0 0c-.097-7.183-7.957-11.226-14.017-12.651-7.798-1.833-17.296-.878-23.791 4.153-2.348 1.818-4.376 4.39-4.757 7.417-.376 2.981.928 5.811 2.95 7.938 5.514 5.798 14.743 7.3 22.36 6.377C-10.331 12.396-.113 8.364 0 0c.026-1.929 3.026-1.934 3 0-.116 8.527-8.631 13.716-16.035 15.5-8.954 2.157-19.684.959-27.016-4.978-2.848-2.306-5.028-5.482-5.482-9.174-.45-3.665 1-7.168 3.398-9.891 6.12-6.95 16.924-8.774 25.672-7.589C-8.043-14.991 2.866-9.867 3 0 3.026 1.931.026 1.932 0 0" clip-path="url(#X)" style="fill:#000;fill-opacity:1;fill-rule:nonzero;stroke:none" transform="matrix(1.33333 0 0 -1.33333 561.828 958.265)"/><path d="M0 0c1.591-2.251.1-6.04-3.33-8.464-3.429-2.423-7.499-2.564-9.089-.313s-.1 6.04 3.329 8.464C-5.66 2.11-1.591 2.251 0 0" clip-path="url(#Y)" style="fill:#fff;fill-opacity:1;fill-rule:nonzero;stroke:none" transform="matrix(1.33333 0 0 -1.33333 527.197 949.324)"/><path d="M0 0c.054-.079.346-.621.225-.336a3.4 3.4 0 0 0 .198-.699c.045-.241.006.348.002-.07-.001-.116.008-.231.006-.346q-.005-.176-.02-.353c.024.302-.021-.112-.034-.177-.21-1.013-.668-1.888-1.34-2.707-1.57-1.915-4.108-3.409-6.475-3.432-.167-.002-.332.006-.497.014-.509.025.128-.033-.158.01-.255.038-.498.109-.745.18-.27.079-.655.317-.862.525-.018.018-.301.366-.129.128-.065.09-.115.188-.177.28-.041.061-.164.331-.048.056a3 3 0 0 0-.107.311c-.031.106-.052.214-.079.322-.1.402.005-.183-.009.069a6 6 0 0 0 .009.766c-.026-.323.027.145.034.177q.038.184.089.366c.051.188.177.558.208.633.174.418.555 1.063.888 1.512.691.931 1.734 1.818 2.792 2.442C-5.034.375-3.656.845-2.391.857c.139.001.277-.007.416-.009q.122-.006.243-.018-.2.037.074-.01c.297-.052.596-.129.877-.241-.064.025-.215.108.041-.026.168-.088.334-.183.487-.296C-.503.443.181-.244 0 0c.481-.65 1.3-.978 2.052-.538.642.375 1.023 1.397.538 2.052C.522 4.313-3.229 4.266-6.189 3.025c-3.068-1.287-5.976-3.902-6.841-7.217-.78-2.988.709-6.03 3.834-6.737 3.45-.781 7.144.921 9.59 3.295C2.683-5.412 4.626-1.491 2.59 1.514c-.453.67-1.32.967-2.052.538C-.126 1.664-.456.674 0 0" clip-path="url(#Z)" style="fill:#000;fill-opacity:1;fill-rule:nonzero;stroke:none" transform="matrix(1.33333 0 0 -1.33333 525.47 950.334)"/><path d="M0 0c.214-2.433-1.646-4.306-3.81-5.183-2.5-1.013-5.679-.931-7.919.678-1.8 1.292-2.365 3.466-1.197 5.362 1.396 2.266 4.327 3.246 6.869 3.189C-3.666 3.992-.349 2.724 0 0c.103-.803.616-1.5 1.5-1.5.731 0 1.604.691 1.5 1.5-1.05 8.204-13.002 8.99-17.674 3.507-2.354-2.763-2.524-6.602-.039-9.351 2.57-2.845 6.96-3.514 10.534-2.604C-.387-7.482 3.373-4.242 3 0c-.071.807-.639 1.5-1.5 1.5C.744 1.5-.071.812 0 0" clip-path="url(#aa)" style="fill:#000;fill-opacity:1;fill-rule:nonzero;stroke:none" transform="matrix(1.33333 0 0 -1.33333 639.34 906.403)"/><path d="M0 0c.214-2.434-1.646-4.306-3.81-5.183-2.5-1.013-5.679-.931-7.919.678-1.8 1.292-2.365 3.466-1.197 5.362 1.396 2.266 4.327 3.246 6.869 3.189C-3.666 3.992-.349 2.724 0 0c.103-.803.616-1.5 1.5-1.5.731 0 1.604.691 1.5 1.5-1.05 8.204-13.002 8.99-17.674 3.507-2.354-2.763-2.524-6.602-.039-9.351 2.57-2.845 6.96-3.514 10.534-2.604C-.387-7.482 3.373-4.242 3 0c-.071.807-.639 1.5-1.5 1.5C.744 1.5-.071.812 0 0" clip-path="url(#ab)" style="fill:#000;fill-opacity:1;fill-rule:nonzero;stroke:none" transform="matrix(1.33333 0 0 -1.33333 622.91 935.144)"/><path d="M0 0c.214-2.433-1.646-4.306-3.81-5.183-2.5-1.013-5.679-.931-7.919.678-1.8 1.292-2.365 3.466-1.197 5.362 1.396 2.266 4.327 3.246 6.869 3.189C-3.666 3.992-.349 2.724 0 0c.103-.803.616-1.5 1.5-1.5.731 0 1.604.691 1.5 1.5-1.05 8.204-13.002 8.99-17.674 3.507-2.354-2.763-2.524-6.602-.039-9.351 2.57-2.845 6.96-3.514 10.534-2.604C-.387-7.482 3.373-4.242 3 0c-.071.807-.639 1.5-1.5 1.5C.744 1.5-.071.812 0 0" clip-path="url(#ac)" style="fill:#000;fill-opacity:1;fill-rule:nonzero;stroke:none" transform="matrix(1.33333 0 0 -1.33333 662.49 929.58)"/><path d="M0 0c-7.859-1.265-13.25-7.46-12.549-16.105.634-7.814 6.213-14.627 13.104-18.363s14.933-4.786 22.772-4.811c20.562-.067 41.09 6.657 57.628 18.876 7.523 5.558 14.448 12.557 17.439 21.42s1.126 19.837-6.314 25.506c-8.442 6.432-20.863 4.129-29.883-1.463C46.903 15.576 36.954-1.769 16.909-1.029 12.226-.856 7.602.267 2.916.238A19 19 0 0 1 0 0" clip-path="url(#ad)" style="fill:#000;fill-opacity:1;fill-rule:nonzero;stroke:none" transform="matrix(1.33333 0 0 -1.33333 524.384 1001.27)"/><path d="M0 0c19.237-3.716 39.561-.381 56.706 9.075a82.3 82.3 0 0 1 13.601 9.431c1.472 1.254-.659 3.367-2.121 2.121C53.946 8.498 35.376 1.735 16.701 1.49A78.4 78.4 0 0 0 .798 2.893C-1.089 3.257-1.897.366 0 0" clip-path="url(#ae)" style="fill:#000;fill-opacity:1;fill-rule:nonzero;stroke:none" transform="matrix(1.33333 0 0 -1.33333 547.356 1072.22)"/><path d="M0 0c12.434-3.432 26.543 2.356 32.976 13.539.964 1.676-1.627 3.189-2.591 1.514C24.615 5.021 11.956-.187.798 2.893-1.066 3.407-1.862.514 0 0" clip-path="url(#af)" style="fill:#000;fill-opacity:1;fill-rule:nonzero;stroke:none" transform="matrix(1.33333 0 0 -1.33333 532.89 989.308)"/><path d="M0 0c-.123-5.225-.303-10.674-2.784-15.274s-8.027-8.002-12.96-6.274c-3.631 1.272-5.975 4.968-6.716 8.743-.74 3.775-.156 7.669.431 11.472z" clip-path="url(#ag)" style="fill:#fff;fill-opacity:1;fill-rule:nonzero;stroke:none" transform="matrix(1.33333 0 0 -1.33333 545.057 996.664)"/><path d="M0 0c-.152-6.355-.315-14.102-5.834-18.368-2.114-1.634-4.907-2.633-7.557-1.876-2.816.803-4.757 3.394-5.654 6.073-1.343 4.008-.665 8.362-.038 12.439l-1.446-1.101 19.232 1.164L1.5-1.5c1.918.116 1.932 3.117 0 3L-17.732.336l-2.797-.169c-.598-.036-1.344-.436-1.447-1.102-.669-4.35-1.381-8.904-.204-13.236.919-3.384 3.055-6.706 6.274-8.293C-8.914-25.912-1.582-20.308.989-13.91 2.752-9.52 2.888-4.666 3 0 3.046 1.931.046 1.93 0 0" clip-path="url(#ah)" style="fill:#000;fill-opacity:1;fill-rule:nonzero;stroke:none" transform="matrix(1.33333 0 0 -1.33333 543.057 996.664)"/><path d="M0 0c1.626-4.967 3.272-10.164 2.467-15.328-.806-5.164-4.901-10.22-10.127-10.236-3.847-.012-7.289 2.692-9.246 6.004s-2.704 7.179-3.419 10.959z" clip-path="url(#ai)" style="fill:#fff;fill-opacity:1;fill-rule:nonzero;stroke:none" transform="matrix(1.33333 0 0 -1.33333 581.75 987.365)"/><path d="M0 0c1.511-4.625 3.206-9.595 2.467-14.531-.516-3.442-2.592-6.992-5.839-8.496-3.594-1.664-7.395.231-9.732 3.087-2.764 3.38-3.539 7.971-4.328 12.137l-.689-1.694L-.353-1.978 2.203-.896c.752.318.902 1.413.539 2.052-.443.777-1.311.852-2.053.538l-17.768-7.519-2.556-1.082c-.637-.269-.802-1.099-.69-1.694 1.337-7.054 3.815-16.221 12.067-17.849C-.941-27.893 4.666-21.147 5.48-14.46 6.114-9.245 4.493-4.098 2.893.798 2.296 2.625-.602 1.843 0 0" clip-path="url(#aj)" style="fill:#000;fill-opacity:1;fill-rule:nonzero;stroke:none" transform="matrix(1.33333 0 0 -1.33333 579.822 987.897)"/><path d="M0 0c3.605-3.784 7.329-7.766 8.825-12.773 1.495-5.008-.024-11.335-4.734-13.599-3.468-1.666-7.738-.708-10.931 1.44s-5.53 5.315-7.803 8.42z" clip-path="url(#ak)" style="fill:#fff;fill-opacity:1;fill-rule:nonzero;stroke:none" transform="matrix(1.33333 0 0 -1.33333 605.66 959.182)"/><path d="M0 0c4.32-4.537 9.419-9.868 8.899-16.63-.199-2.583-1.321-5.332-3.526-6.827-2.757-1.869-6.399-1.342-9.195.159-3.601 1.934-6.101 5.376-8.465 8.603l-.235-1.817L.279-2.077 2.121 0C3.398 1.44 1.284 3.569 0 2.121l-12.801-14.435-1.842-2.077c-.406-.458-.637-1.268-.234-1.818 2.488-3.397 5.059-6.891 8.675-9.176 3.373-2.131 7.797-3.053 11.57-1.46 6.861 2.898 7.759 11.732 5.112 17.815C8.607-4.727 5.317-1.235 2.121 2.121.787 3.522-1.332 1.399 0 0" clip-path="url(#al)" style="fill:#000;fill-opacity:1;fill-rule:nonzero;stroke:none" transform="matrix(1.33333 0 0 -1.33333 604.247 960.596)"/><path d="M0 0c-.106 5.225-.165 10.677 2.113 15.381s7.668 8.346 12.672 6.836c3.683-1.111 6.187-4.701 7.092-8.44.906-3.739.492-7.656.073-11.48z" clip-path="url(#am)" style="fill:#fff;fill-opacity:1;fill-rule:nonzero;stroke:none" transform="matrix(1.33333 0 0 -1.33333 537.511 1059.647)"/><path d="M0 0c-.129 6.5-.297 14.374 5.27 18.872 2.162 1.747 5.043 2.73 7.768 1.85 2.725-.881 4.639-3.489 5.532-6.106 1.349-3.951.824-8.258.38-12.319l1.5 1.5L1.22 1.785-1.5 1.5c-1.901-.199-1.921-3.201 0-3L17.73.513l2.72.284c.877.092 1.404.618 1.5 1.5.462 4.229.925 8.676-.386 12.809-1.051 3.314-3.248 6.524-6.482 8.013-7.06 3.25-14.22-2.468-16.598-8.954C-3.167 9.662-3.094 4.726-3 0c.038-1.928 3.038-1.934 3 0" clip-path="url(#an)" style="fill:#000;fill-opacity:1;fill-rule:nonzero;stroke:none" transform="matrix(1.33333 0 0 -1.33333 539.511 1059.647)"/><path d="M0 0c-2.458 6.678-4.973 13.661-4.925 20.398S-1.381 33.46 4.068 33.05c4.012-.301 8.017-4.146 10.567-8.671 2.549-4.525 3.921-9.681 5.247-14.72z" clip-path="url(#ao)" style="fill:#fff;fill-opacity:1;fill-rule:nonzero;stroke:none" transform="matrix(1.33333 0 0 -1.33333 598.585 1053.562)"/><path d="M0 0c-1.664 4.524-3.337 9.083-4.26 13.827-.782 4.02-1.022 8.361.562 12.226 1.098 2.679 3.399 5.352 6.588 4.702 3.697-.753 6.532-4.283 8.335-7.36 2.645-4.513 3.961-9.65 5.281-14.667l.805 1.977L-.07 2.261l-2.501-1.215C-4.597.062-2.824-2.958-.804-1.977l17.381 8.444 2.501 1.215c.694.337.99 1.27.804 1.977-1.345 5.109-2.737 10.292-5.316 14.943-2.18 3.931-5.526 7.88-9.937 9.309-3.997 1.295-7.776-.508-10.099-3.819-2.578-3.673-3.162-8.503-2.782-12.866.548-6.294 2.712-12.271 4.876-18.157C-2.605-3.028.78-2.121 0 0" clip-path="url(#ap)" style="fill:#000;fill-opacity:1;fill-rule:nonzero;stroke:none" transform="matrix(1.33333 0 0 -1.33333 600.835 1052.941)"/><path d="M0 0c-4.038-.689-7.812-2.69-10.358-5.941-2.646-3.379-3.689-7.741-3.258-11.982C-12.59-28.021-4.603-35.669 4.493-39.17c10.133-3.902 21.845-3.6 32.443-2.171a99.5 99.5 0 0 1 31.321 9.694c16.592 8.336 37.499 24.333 32.737 45.567-.983 4.382-3.214 8.602-6.641 11.558-3.597 3.101-8.136 4.691-12.847 4.948-9.751.533-18.592-4.177-26.017-10.043C48.85 15.138 42.98 8.87 35.793 4.335c-3.54-2.234-7.361-3.95-11.478-4.779-5.254-1.06-10.436-.224-15.688.386C5.74.278 2.884.431 0 0c-1.903-.284-1.094-3.176.798-2.893 5.604.838 11.284-.95 16.884-1.094 4.142-.107 8.315.566 12.197 2.017C37.361.825 43.487 6.054 49.404 11.261c6.231 5.484 12.579 11.382 20.512 14.268 8.244 2.998 18.52 2.995 24.476-4.397 5.411-6.716 5.302-16.61 1.764-24.131-4.174-8.875-12.069-15.479-20.133-20.73-17.121-11.147-38.398-17.089-58.848-15.203-9.632.888-19.666 4.524-24.974 13.121-4.168 6.751-4.254 16.591 3.245 21.042 1.653.981 3.464 1.554 5.352 1.876C2.697-2.569 1.891.323 0 0" clip-path="url(#aq)" style="fill:#000;fill-opacity:1;fill-rule:nonzero;stroke:none" transform="matrix(1.33333 0 0 -1.33333 523.852 999.34)"/><path d="m0 0 298.693-43.485S142.574 39.921 0 0" clip-path="url(#ar)" style="fill:#000;fill-opacity:1;fill-rule:nonzero;stroke:none" transform="matrix(1.33333 0 0 -1.33333 570.481 768.166)"/><path d="M0 0c25.649 4.008 147.853 17.491 374.929-42.315 3.624-.955 7.123 2.102 6.515 5.801-.616 3.747-2.669 9.307-7.801 17.434 0 0-1.07 20.317-17.109 28.871 0 0-81.601 44.102-315.757 42.554-2.142-.014-4.273-.436-6.238-1.29-5.771-2.509-17.043-9.397-22.56-26.293 0 0-13.525-9.599-17.024-18.557C-6.334 2.906-3.5-.547 0 0" clip-path="url(#as)" style="fill:#167ab5;fill-opacity:1;fill-rule:nonzero;stroke:none" transform="matrix(1.33333 0 0 -1.33333 481.955 770.765)"/><path d="M0 0c4.177.652 7.666 1.085 12.077 1.556 6.578.703 13.175 1.218 19.779 1.603 9.121.532 18.256.813 27.392.905 11.604.117 23.212-.073 34.808-.508 14.155-.531 28.296-1.426 42.411-2.62 16.734-1.416 33.432-3.252 50.083-5.438 19.512-2.562 38.959-5.615 58.333-9.067 22.015-3.923 43.937-8.367 65.757-13.254a1707 1707 0 0 0 35.652-8.392 1806 1806 0 0 0 18.93-4.777c3.041-.785 6.088-1.766 9.168-2.378 2.03-.404 4.083.021 5.712 1.325 3.158 2.527 2.644 6.296 1.575 9.725-1.38 4.429-3.594 8.608-5.979 12.566-.607 1.007-.792.843-1.005 1.744-.185.785-.191 1.647-.316 2.446a44.7 44.7 0 0 1-1.903 7.652c-2.862 8.305-8.248 15.741-16.21 19.768-2.024 1.024-4.111 1.928-6.2 2.81-4.266 1.802-8.602 3.437-12.973 4.967-6.686 2.339-13.456 4.435-20.27 6.365-9.352 2.648-18.792 4.982-28.28 7.087-12.285 2.725-24.655 5.063-37.071 7.11-15.268 2.516-30.609 4.591-45.986 6.325-18.534 2.09-37.123 3.677-55.735 4.867-21.995 1.405-44.024 2.255-66.06 2.661-12.422.228-24.846.315-37.27.274-5.136-.017-9.863.091-14.566-2.237-2.658-1.316-5.132-2.967-7.428-4.84-6.859-5.592-11.514-13.307-14.291-21.638l.689.896C6.295 24.279 1.999 20.496-1.623 16.28c-2.227-2.593-5.196-6.081-5.587-9.619C-7.642 2.76-4.227-.441-.399-.054c1.903.193 1.923 3.195 0 3-2.555-.258-4.477 1.782-3.598 4.307.69 1.985 2.067 3.875 3.349 5.516 2.638 3.379 5.816 6.354 9.098 9.097 1.435 1.2 3.967 2.469 4.683 4.262 1.978 4.952 4.005 9.641 7.353 13.859 4.065 5.12 10.179 10.472 16.758 11.953 3.292.741 6.945.376 10.3.385a1725 1725 0 0 0 28.418-.153c22.917-.314 45.83-1.098 68.709-2.471 19.225-1.154 38.428-2.723 57.574-4.821 15.924-1.744 31.809-3.856 47.618-6.445 12.688-2.078 25.328-4.459 37.88-7.243 9.648-2.14 19.245-4.517 28.75-7.221 6.899-1.962 13.752-4.095 20.516-6.483a241 241 0 0 0 7.305-2.705q1.465-.571 2.922-1.165c1.048-.428 1.547-.638 2.245-.938 1.86-.799 3.721-1.615 5.522-2.542 9.119-4.695 14.293-14.123 16.201-23.905.262-1.341.313-2.53.538-3.843.154-.894.711-1.58 1.179-2.35a89 89 0 0 0 2.178-3.783c1.155-2.134 2.229-4.323 3.075-6.599 1.102-2.964 3.047-9.301-2.363-9.197-1.509.029-3.158.715-4.608 1.094q-2.406.628-4.814 1.25-4.764 1.23-9.534 2.435c-23.989 6.059-48.103 11.628-72.338 16.618-21.273 4.381-42.64 8.316-64.091 11.724C201.96-3.485 183.43-.941 164.848 1.14c-15.945 1.785-31.929 3.227-47.941 4.251-13.292.851-26.604 1.414-39.922 1.621-10.615.164-21.235.103-31.846-.249-8.058-.268-16.113-.702-24.149-1.366-5.444-.45-10.882-1.003-16.298-1.72a236 236 0 0 1-5.49-.784C-2.699 2.596-1.892-.295 0 0" clip-path="url(#at)" style="fill:#000;fill-opacity:1;fill-rule:nonzero;stroke:none" transform="matrix(1.33333 0 0 -1.33333 482.486 772.694)"/><path d="M0 0s170.376 34.218 427.723-44.911l.713 19.248S223.129 45.624 7.842 22.099z" clip-path="url(#au)" style="fill:#eadb26;fill-opacity:1;fill-rule:nonzero;stroke:none" transform="matrix(1.33333 0 0 -1.33333 449.768 753.908)"/><path d="M0 0c6.215 1.247 12.467 2.031 18.644 2.783 17.995 2.191 36.11 3.412 54.223 4.04 28.379.985 56.806.442 85.145-1.3 38.065-2.34 75.987-6.868 113.58-13.265 46.256-7.871 92.021-18.565 137.062-31.697a1317 1317 0 0 0 18.271-5.472c.965-.296 1.864.503 1.899 1.447l.713 19.247c.025.69-.49 1.234-1.101 1.446-7.311 2.537-14.738 4.763-22.157 6.955C386.333-9.921 366.185-4.703 345.926.001a1193 1193 0 0 1-90.159 17.315c-36.544 5.567-73.358 9.442-110.281 11.284-40.849 2.037-81.858 1.598-122.608-2.026a790 790 0 0 1-15.435-1.529c-.711-.077-1.205-.42-1.447-1.101L-1.845 1.845C-2.492.022.405-.762 1.048 1.048l7.841 22.099-1.446-1.102c40.988 4.457 82.294 5.62 123.487 4.174 37.731-1.325 75.384-4.814 112.759-10.133A1191 1191 0 0 0 336.043-.819c21.508-4.817 42.895-10.209 64.072-16.322a778 778 0 0 0 18.776-5.661 510 510 0 0 0 5.537-1.785c.899-.296 1.92-.822 2.86-.956.116-.017.239-.082.35-.12l-1.101 1.446-.713-19.247 1.899 1.446C381.501-27.822 334.499-16.14 286.934-7.42 248.501-.374 209.701 4.763 170.731 7.659c-29.805 2.215-59.723 3.13-89.605 2.407-19.37-.468-38.744-1.598-58.003-3.759a420 420 0 0 1-16.47-2.155c-2.335-.356-4.87-.542-7.148-1.2-.097-.028-.203-.039-.303-.059C-2.689 2.513-1.888-.379 0 0" clip-path="url(#av)" style="fill:#000;fill-opacity:1;fill-rule:nonzero;stroke:none" transform="matrix(1.33333 0 0 -1.33333 450.3 755.837)"/><path d="M0 0c4.177.652 7.666 1.085 12.077 1.556 6.578.703 13.175 1.218 19.779 1.603 9.121.532 18.256.813 27.392.905 11.604.117 23.212-.073 34.808-.508 14.155-.531 28.296-1.426 42.411-2.62 16.734-1.416 33.432-3.252 50.083-5.438 19.512-2.562 38.959-5.615 58.333-9.067 22.015-3.923 43.937-8.367 65.757-13.254a1707 1707 0 0 0 35.652-8.392 1806 1806 0 0 0 18.93-4.777c3.041-.785 6.088-1.766 9.168-2.378 2.03-.404 4.083.021 5.712 1.325 3.158 2.527 2.644 6.296 1.575 9.725-1.38 4.429-3.594 8.608-5.979 12.566-.607 1.007-.792.843-1.005 1.744-.185.785-.191 1.647-.316 2.446a44.7 44.7 0 0 1-1.903 7.652c-2.862 8.305-8.248 15.741-16.21 19.768-2.024 1.024-4.111 1.928-6.2 2.81-4.266 1.802-8.602 3.437-12.973 4.967-6.686 2.339-13.456 4.435-20.27 6.365-9.352 2.648-18.792 4.982-28.28 7.087-12.285 2.725-24.655 5.063-37.071 7.11-15.268 2.516-30.609 4.591-45.986 6.325-18.534 2.09-37.123 3.677-55.735 4.867-21.995 1.405-44.024 2.255-66.06 2.661-12.422.228-24.846.315-37.27.274-5.136-.017-9.863.091-14.566-2.237-2.658-1.316-5.132-2.967-7.428-4.84-6.859-5.592-11.514-13.307-14.291-21.638l.689.896C6.295 24.279 1.999 20.496-1.623 16.28c-2.227-2.593-5.196-6.081-5.587-9.619C-7.642 2.76-4.227-.441-.399-.054c1.903.193 1.923 3.195 0 3-2.555-.258-4.477 1.782-3.598 4.307.69 1.985 2.067 3.875 3.349 5.516 2.638 3.379 5.816 6.354 9.098 9.097 1.435 1.2 3.967 2.469 4.683 4.262 1.978 4.952 4.005 9.641 7.353 13.859 4.065 5.12 10.179 10.472 16.758 11.953 3.292.741 6.945.376 10.3.385a1725 1725 0 0 0 28.418-.153c22.917-.314 45.83-1.098 68.709-2.471 19.225-1.154 38.428-2.723 57.574-4.821 15.924-1.744 31.809-3.856 47.618-6.445 12.688-2.078 25.328-4.459 37.88-7.243 9.648-2.14 19.245-4.517 28.75-7.221 6.899-1.962 13.752-4.095 20.516-6.483a241 241 0 0 0 7.305-2.705q1.465-.571 2.922-1.165c1.048-.428 1.547-.638 2.245-.938 1.86-.799 3.721-1.615 5.522-2.542 9.119-4.695 14.293-14.123 16.201-23.905.262-1.341.313-2.53.538-3.843.154-.894.711-1.58 1.179-2.35a89 89 0 0 0 2.178-3.783c1.155-2.134 2.229-4.323 3.075-6.599 1.102-2.964 3.047-9.301-2.363-9.197-1.509.029-3.158.715-4.608 1.094q-2.406.628-4.814 1.25-4.764 1.23-9.534 2.435c-23.989 6.059-48.103 11.628-72.338 16.618-21.273 4.381-42.64 8.316-64.091 11.724C201.96-3.485 183.43-.941 164.848 1.14c-15.945 1.785-31.929 3.227-47.941 4.251-13.292.851-26.604 1.414-39.922 1.621-10.615.164-21.235.103-31.846-.249-8.058-.268-16.113-.702-24.149-1.366-5.444-.45-10.882-1.003-16.298-1.72a236 236 0 0 1-5.49-.784C-2.699 2.596-1.892-.295 0 0" clip-path="url(#aw)" style="fill:#000;fill-opacity:1;fill-rule:nonzero;stroke:none" transform="matrix(1.33333 0 0 -1.33333 482.486 772.694)"/></svg>