<svg xmlns="http://www.w3.org/2000/svg" width="1440" height="1440" viewBox="0 0 1440 1440"><defs><clipPath id="a" clipPathUnits="userSpaceOnUse"><path d="M-528.07 851.75h1080v-1080h-1080Z"/></clipPath><clipPath id="b" clipPathUnits="userSpaceOnUse"><path d="M-528.826 850.455h1080v-1080h-1080Z"/></clipPath><clipPath id="c" clipPathUnits="userSpaceOnUse"><path d="M-546.343 828.655h1080v-1080h-1080Z"/></clipPath><clipPath id="d" clipPathUnits="userSpaceOnUse"><path d="M-545.586 827.36h1080v-1080h-1080Z"/></clipPath><clipPath id="e" clipPathUnits="userSpaceOnUse"><path d="M0 1080h1080V0H0Z"/></clipPath><clipPath id="f" clipPathUnits="userSpaceOnUse"><path d="M-772.874 788.15h1080v-1080h-1080Z"/></clipPath><clipPath id="g" clipPathUnits="userSpaceOnUse"><path d="M-771.636 686.088h1080v-1080h-1080Z"/></clipPath><clipPath id="h" clipPathUnits="userSpaceOnUse"><path d="M-301.666 775.008h1080v-1080h-1080Z"/></clipPath><clipPath id="i" clipPathUnits="userSpaceOnUse"><path d="M-571.12 364.869h1080v-1080h-1080Z"/></clipPath><clipPath id="j" clipPathUnits="userSpaceOnUse"><path d="M-571.12 363.369h1080v-1080h-1080Z"/></clipPath><clipPath id="k" clipPathUnits="userSpaceOnUse"><path d="M-374.599 756.083h1080v-1080h-1080Z"/></clipPath><clipPath id="l" clipPathUnits="userSpaceOnUse"><path d="M-399.32 755.191h1080v-1080h-1080Z"/></clipPath><clipPath id="m" clipPathUnits="userSpaceOnUse"><path d="M-471.81 755.314h1080v-1080h-1080Z"/></clipPath><clipPath id="n" clipPathUnits="userSpaceOnUse"><path d="M-539.35 754.945h1080v-1080h-1080Z"/></clipPath><clipPath id="o" clipPathUnits="userSpaceOnUse"><path d="M-657.665 756.083h1080v-1080h-1080Z"/></clipPath><clipPath id="p" clipPathUnits="userSpaceOnUse"><path d="M-684.742 754.945h1080v-1080h-1080Z"/></clipPath><clipPath id="q" clipPathUnits="userSpaceOnUse"><path d="M-477.397 438.792h1080v-1080h-1080Z"/></clipPath><clipPath id="r" clipPathUnits="userSpaceOnUse"><path d="M-497.266 392.665h1080v-1080h-1080Z"/></clipPath><clipPath id="s" clipPathUnits="userSpaceOnUse"><path d="M-541.306 392.665h1080v-1080h-1080Z"/></clipPath><clipPath id="t" clipPathUnits="userSpaceOnUse"><path d="M-600.61 438.792h1080v-1080h-1080Z"/></clipPath><clipPath id="u" clipPathUnits="userSpaceOnUse"><path d="M-451.577 334.446h1080v-1080h-1080Z"/></clipPath><clipPath id="v" clipPathUnits="userSpaceOnUse"><path d="M-451.577 334.446h1080v-1080h-1080Z"/></clipPath><clipPath id="w" clipPathUnits="userSpaceOnUse"><path d="M-496.681 329.168h1080v-1080h-1080Z"/></clipPath><clipPath id="x" clipPathUnits="userSpaceOnUse"><path d="M-549.475 325.077h1080v-1080h-1080Z"/></clipPath><clipPath id="y" clipPathUnits="userSpaceOnUse"><path d="M-628.204 316.866h1080v-1080h-1080Z"/></clipPath><clipPath id="z" clipPathUnits="userSpaceOnUse"><path d="M-628.204 316.866h1080v-1080h-1080Z"/></clipPath><clipPath id="A" clipPathUnits="userSpaceOnUse"><path d="M-788.835 323.084h1080v-1080h-1080Z"/></clipPath><clipPath id="B" clipPathUnits="userSpaceOnUse"><path d="M-787.335 323.084h1080v-1080h-1080Z"/></clipPath><clipPath id="C" clipPathUnits="userSpaceOnUse"><path d="M-783.472 341.616h1080v-1080h-1080Z"/></clipPath><clipPath id="D" clipPathUnits="userSpaceOnUse"><path d="M-783.472 340.116h1080v-1080h-1080Z"/></clipPath><clipPath id="E" clipPathUnits="userSpaceOnUse"><path d="M-733.805 503.084h1080v-1080h-1080Z"/></clipPath><clipPath id="F" clipPathUnits="userSpaceOnUse"><path d="M-732.305 503.084h1080v-1080h-1080Z"/></clipPath><clipPath id="G" clipPathUnits="userSpaceOnUse"><path d="M-480.427 613.334h1080v-1080h-1080Z"/></clipPath><clipPath id="H" clipPathUnits="userSpaceOnUse"><path d="M-480.427 611.834h1080v-1080h-1080Z"/></clipPath><clipPath id="I" clipPathUnits="userSpaceOnUse"><path d="M-593.824 613.334h1080v-1080h-1080Z"/></clipPath><clipPath id="J" clipPathUnits="userSpaceOnUse"><path d="M-593.824 614.834h1080v-1080h-1080Z"/></clipPath><clipPath id="K" clipPathUnits="userSpaceOnUse"><path d="M-534.323 550.414h1080v-1080h-1080Z"/></clipPath><clipPath id="L" clipPathUnits="userSpaceOnUse"><path d="M-534.323 548.914h1080v-1080h-1080Z"/></clipPath><clipPath id="M" clipPathUnits="userSpaceOnUse"><path d="M-789.531 348.032h1080v-1080h-1080Z"/></clipPath><clipPath id="N" clipPathUnits="userSpaceOnUse"><path d="M-749.61 379.472h1080v-1080h-1080Z"/></clipPath><clipPath id="O" clipPathUnits="userSpaceOnUse"><path d="M-749.61 416.14h1080v-1080h-1080Z"/></clipPath><clipPath id="P" clipPathUnits="userSpaceOnUse"><path d="M-749.61 452.806h1080v-1080h-1080Z"/></clipPath><clipPath id="Q" clipPathUnits="userSpaceOnUse"><path d="M-749.61 489.472h1080v-1080h-1080Z"/></clipPath><clipPath id="R" clipPathUnits="userSpaceOnUse"><path d="M-516.984 536.368h1080v-1080h-1080Z"/></clipPath><clipPath id="S" clipPathUnits="userSpaceOnUse"><path d="M-516.984 534.774h1080v-1080h-1080Z"/></clipPath><clipPath id="T" clipPathUnits="userSpaceOnUse"><path d="M-516.984 513.499h1080v-1080h-1080Z"/></clipPath><clipPath id="U" clipPathUnits="userSpaceOnUse"><path d="M-516.984 511.906h1080v-1080h-1080Z"/></clipPath><clipPath id="V" clipPathUnits="userSpaceOnUse"><path d="M-557.35 536.368h1080v-1080h-1080Z"/></clipPath><clipPath id="W" clipPathUnits="userSpaceOnUse"><path d="M-557.35 534.774h1080v-1080h-1080Z"/></clipPath><clipPath id="X" clipPathUnits="userSpaceOnUse"><path d="M-557.35 513.499h1080v-1080h-1080Z"/></clipPath><clipPath id="Y" clipPathUnits="userSpaceOnUse"><path d="M-557.35 511.906h1080v-1080h-1080Z"/></clipPath><clipPath id="Z" clipPathUnits="userSpaceOnUse"><path d="M-568.955 540.668h1080v-1080h-1080Z"/></clipPath><clipPath id="aa" clipPathUnits="userSpaceOnUse"><path d="M-507.134 543.569h1080v-1080h-1080Z"/></clipPath><clipPath id="ab" clipPathUnits="userSpaceOnUse"><path d="M-507.134 544.966h1080v-1080h-1080Z"/></clipPath><clipPath id="ac" clipPathUnits="userSpaceOnUse"><path d="M-507.009 550.549h1080v-1080h-1080Z"/></clipPath><clipPath id="ad" clipPathUnits="userSpaceOnUse"><path d="M-505.908 558.603h1080v-1080h-1080Z"/></clipPath><clipPath id="ae" clipPathUnits="userSpaceOnUse"><path d="M-558.016 533.356h1080v-1080h-1080Z"/></clipPath><clipPath id="af" clipPathUnits="userSpaceOnUse"><path d="M-79.642-20.7c-8.394 0-15.2-6.803-15.2-15.197v-43.597c0-31.041 25.165-56.205 56.206-56.205H31.96c8.394 0 15.198 6.804 15.198 15.199v84.603c0 8.394-6.804 15.198-15.198 15.198z"/></clipPath><clipPath id="ag" clipPathUnits="userSpaceOnUse"><path d="M-129.169-19.999c-8.394 0-15.199-6.804-15.199-15.198v-43.597c0-31.04 25.164-56.205 56.205-56.205h70.597c8.394 0 15.198 6.804 15.198 15.2v84.602c0 8.394-6.804 15.198-15.198 15.198z"/></clipPath><clipPath id="ah" clipPathUnits="userSpaceOnUse"><path d="M-66.515-34.604c-8.394 0-15.2-6.804-15.2-15.198v-84.603c0-8.395 6.806-15.199 15.2-15.199H4.08c31.04 0 56.205 25.164 56.205 56.205v43.597c0 8.394-6.804 15.198-15.198 15.198z"/></clipPath><clipPath id="ai" clipPathUnits="userSpaceOnUse"><path d="M-127.48-20.677c-8.395 0-15.2-6.804-15.2-15.198v-84.603c0-8.395 6.805-15.2 15.2-15.2h70.595c31.041 0 56.205 25.165 56.205 56.206v43.597c0 8.394-6.804 15.198-15.198 15.198z"/></clipPath><clipPath id="aj" clipPathUnits="userSpaceOnUse"><path d="M-374.947 585.35h1080v-1080h-1080Z"/></clipPath><clipPath id="ak" clipPathUnits="userSpaceOnUse"><path d="M-376.447 585.35h1080v-1080h-1080Z"/></clipPath><clipPath id="al" clipPathUnits="userSpaceOnUse"><path d="M-700.725 583.211h1080v-1080h-1080Z"/></clipPath><clipPath id="am" clipPathUnits="userSpaceOnUse"><path d="M-702.225 583.211h1080v-1080h-1080Z"/></clipPath></defs><path d="M0 0h1080v1080H0Z" style="fill:#fff;fill-opacity:1;fill-rule:nonzero;stroke:none" transform="matrix(1.33333 0 0 -1.33333 0 1440)"/><path d="m0 0-34.249 34.263-345.206 12.072-64.524-12.072L-472.327 0Z" style="fill:#000;fill-opacity:1;fill-rule:nonzero;stroke:none" transform="matrix(1.33333 0 0 -1.33333 1030.499 892.15)"/><path d="M0 0a451 451 0 0 0-8.919 4.31c-64.336 31.714-116.673 71.494-155.47 118.192-31.416 37.813-54.015 80.133-67.17 125.783-22.494 78.066-9.483 138.847-8.918 141.396l3.971 17.919h109.12l-.303 13.36h-64.308l2.098 24.794c3.139 37.116 13.116 69.47 29.652 96.163 14.193 22.91 33.217 41.723 56.546 55.916 40.795 24.82 85.064 29.568 107.821 30.188.408.013 1.471.04 1.471.04l.527.009c.729.013 1.364.022 1.974.024a163 163 0 0 0 3.299 0q.922-.004 1.921-.023s1.646-.037 2.12-.051c22.704-.619 66.974-5.367 107.769-30.187 23.328-14.193 42.353-33.006 56.545-55.916 16.537-26.693 26.513-59.048 29.652-96.163l2.097-24.794h-64.307l-.302-13.36h109.121l3.97-17.919c.565-2.549 13.576-63.33-8.92-141.396-13.154-45.65-35.753-87.97-67.168-125.783C145.091 75.804 92.755 36.024 28.334 4.268a532 532 0 0 0-8.827-4.27L9.752-4.601Z" clip-path="url(#a)" style="fill:#43aadd;fill-opacity:1;fill-rule:nonzero;stroke:none" transform="matrix(1.33333 0 0 -1.33333 704.092 1135.667)"/><path d="M0 0c-35.919 16.972-70.374 37.416-101.647 61.971-29.524 23.181-56.233 50.078-78.141 80.61-23.28 32.445-40.994 68.759-51.769 107.229-9.798 34.982-14.049 71.674-11.9 107.965.894 15.097 3.49 29.403 6.748 44.103l.892 4.028-1.446-1.101h109.12c.797 0 1.518.687 1.5 1.5l-.303 13.36c-.018.811-.672 1.5-1.5 1.5h-64.309l1.5-1.5c1.05 12.407 1.821 24.886 3.43 37.236 3.206 24.609 9.941 48.956 21.367 71.055 10.935 21.148 26.149 39.88 44.762 54.742 20.029 15.992 43.598 27.162 68.226 34.005 35.434 9.845 72.772 11.153 108.803 3.862 48.65-9.844 93.473-35.808 120.702-78.075 13.02-20.211 21.573-42.971 26.518-66.442 3.573-16.958 4.806-34.168 6.263-51.394l.422-4.989 1.5 1.5h-64.307c-.825 0-1.482-.687-1.5-1.5l-.302-13.36c-.018-.811.702-1.5 1.5-1.5H255.25l-1.447 1.101c3.151-14.219 6.107-28 7.256-42.56 2.891-36.633-.924-73.852-10.368-109.327-10.796-40.556-29.275-78.809-53.884-112.779-23.161-31.969-51.596-59.947-83.014-83.772C82.738 33.918 48.886 14.564 13.677-2.037L8.238-4.601h1.514zc-1.736.819-3.261-1.766-1.514-2.59l6.263-2.955c1.542-.728 3.335-2.082 5.046-1.626 2.192.583 4.442 2.094 6.493 3.061 2.84 1.339 5.681 2.678 8.505 4.051 20.25 9.845 39.988 20.754 58.941 32.917 34.747 22.298 66.959 48.824 94.186 79.934 28.878 32.995 51.886 71.008 66.834 112.269 14.29 39.444 21.303 81.7 20.087 123.658-.33 11.378-1.239 22.776-3.059 34.018-1.042 6.437-2.607 12.777-4.016 19.139l-1.07 4.828c-.141.638-.812 1.101-1.446 1.101H146.129l1.5-1.5.302 13.36-1.5-1.5h64.307c.761 0 1.569.689 1.5 1.5-1.092 12.913-1.893 25.901-3.629 38.747-3.352 24.802-10.218 49.238-21.803 71.495-11.18 21.48-26.787 40.549-45.81 55.553-20.14 15.883-43.605 27.085-68.25 33.998-36.102 10.128-74.157 11.423-110.882 4-49.077-9.919-94.237-36.167-121.942-78.587-13.264-20.309-22.066-43.311-27.158-66.969-3.743-17.391-5.056-35.043-6.552-52.722l-.467-5.515c-.068-.809.743-1.5 1.5-1.5h64.309l-1.5 1.5.303-13.36 1.5 1.5h-109.12c-.631 0-1.305-.463-1.447-1.101-2.959-13.357-5.834-26.368-7.079-40.019-3.076-33.723-.321-68.066 7.137-101.058 9.032-39.95 25.409-78.118 47.885-112.344 20.865-31.773 46.771-60.02 75.876-84.412 30.367-25.448 64.037-46.783 99.377-64.618a599 599 0 0 1 14-6.843C.222-3.411 1.746-.825 0 0" clip-path="url(#b)" style="fill:#000;fill-opacity:1;fill-rule:nonzero;stroke:none" transform="matrix(1.33333 0 0 -1.33333 705.102 1133.94)"/><path d="M0 0a515 515 0 0 0-8.519-4.122A441 441 0 0 0-17.048 0c-271.308 133.741-220.715 362.067-220.715 362.067h114.826l-1.347 59.438h-62.142c12.303 145.431 132.05 161.17 172.867 162.284.413.012.847.024 1.326.033.154 0 .296 0 .45.011.601.01 1.172.02 1.723.02.939.01 1.969.01 3.071 0 .551 0 1.123-.01 1.724-.02.154-.011.296-.011.449-.011.48-.009.914-.021 1.326-.033 40.818-1.114 160.565-16.853 172.867-162.284h-62.142l-1.346-59.438h114.826S271.307 133.741 0 0" clip-path="url(#c)" style="fill:#eadb26;fill-opacity:1;fill-rule:nonzero;stroke:none" transform="matrix(1.33333 0 0 -1.33333 728.457 1104.873)"/><path d="M0 0a575 575 0 0 0-8.519-4.122h1.514c-47.17 22.298-91.879 50.792-129.51 87.127-28.303 27.328-52.328 59.058-69.846 94.336a316.4 316.4 0 0 0-28.497 87.637c-3.684 21.701-5.117 43.835-4.04 65.826.33 6.743.893 13.481 1.785 20.174.23 1.726.562 3.954.891 5.877.15.874.695 2.234.578 3.118-.014.112.059.285.085.4l-1.447-1.101h114.826c.798 0 1.519.687 1.5 1.5l-1.179 52.048-.168 7.39c-.018.81-.672 1.5-1.5 1.5h-62.142l1.5-1.5c3.822 44.29 19.473 87.945 53.373 118.041 23.607 20.959 53.558 33.452 84.376 39.171 22.503 4.175 45.532 4.726 68.195 1.494 29.764-4.246 59.022-14.493 83.349-32.445 34.384-25.373 53.884-64.305 60.943-105.845 1.15-6.766 1.977-13.579 2.567-20.416l1.5 1.5h-62.142c-.824 0-1.482-.688-1.5-1.5l-1.179-52.049-.167-7.389c-.018-.811.702-1.5 1.5-1.5h114.826l-1.446 1.101c1.709-7.734 2.393-15.448 2.965-23.387 1.469-20.405.683-40.997-2.032-61.266-3.883-28.985-11.83-57.464-23.544-84.259-15.093-34.526-36.349-66.126-61.969-93.713C102.199 61.947 62.108 33.072 19.221 9.917A596 596 0 0 0 0 0c-1.731-.855-.213-3.443 1.514-2.59 45.772 22.61 89.001 51.092 125.338 87.144 27.615 27.398 51.013 59.111 67.983 94.164 13.312 27.498 22.678 56.872 27.642 87.019 3.566 21.653 4.978 43.704 3.859 65.629-.339 6.641-.913 13.273-1.791 19.866-.411 3.088-.599 6.548-1.542 9.538-.041.128-.056.269-.085.4-.141.639-.812 1.102-1.446 1.102H106.646l1.5-1.5 1.179 52.048.167 7.39-1.5-1.5h62.142c.759 0 1.57.689 1.5 1.5-3.87 44.852-19.598 89.165-53.825 119.784-24.055 21.519-54.603 34.472-86.125 40.321-23.073 4.281-46.559 4.807-69.79 1.493-30.527-4.354-60.641-15.049-85.394-33.738a149.6 149.6 0 0 1-37.762-41.788c-12.149-20.034-19.543-42.651-23.372-65.688-1.123-6.757-1.946-13.56-2.535-20.384-.069-.809.744-1.5 1.5-1.5h62.142l-1.5 1.5 1.18-52.049.167-7.389 1.5 1.5h-114.826c-.63 0-1.305-.463-1.446-1.102-1.822-8.241-2.573-16.814-3.145-25.214-1.465-21.513-.414-43.187 2.7-64.513 4.455-30.514 13.408-60.314 26.414-88.272 16.705-35.906 40.131-68.437 67.995-96.515 36.771-37.054 80.789-66.161 127.44-89.246a466 466 0 0 1 4.712-2.305c1.264-.608 3.143-2.022 4.574-2.022 1.183 0 2.589 1.073 3.621 1.568q2.835 1.364 5.655 2.759C3.245-1.736 1.727.852 0 0" clip-path="url(#d)" style="fill:#000;fill-opacity:1;fill-rule:nonzero;stroke:none" transform="matrix(1.33333 0 0 -1.33333 727.448 1103.147)"/><path d="M772.874 290.35H300.547v120.536h472.327z" clip-path="url(#e)" style="fill:#ff61bb;fill-opacity:1;fill-rule:nonzero;stroke:none" transform="matrix(1.33333 0 0 -1.33333 0 1440)"/><path d="M0 0h-465.207c-2.072 0-4.252.194-6.317 0-.263-.025-.538 0-.803 0l1.5-1.5v120.536l-1.5-1.5H-7.12c2.072 0 4.252-.193 6.317 0 .263.025.538 0 .803 0l-1.5 1.5V-1.5c0-1.93 3-1.934 3 0v120.536c0 .811-.687 1.5-1.5 1.5h-453.154c-6.12 0-12.251.109-18.37 0-.267-.004-.535 0-.803 0-.811 0-1.5-.687-1.5-1.5V-1.5c0-.811.687-1.5 1.5-1.5h453.154c6.12 0 12.251-.109 18.37 0 .267.005.535 0 .803 0 1.93 0 1.934 3 0 3" clip-path="url(#f)" style="fill:#000;fill-opacity:1;fill-rule:nonzero;stroke:none" transform="matrix(1.33333 0 0 -1.33333 1030.499 1050.866)"/><path d="M0 0h-450.892c-6.09 0-12.19.108-18.279 0-.266-.005-.532 0-.799 0-1.93 0-1.933-3 0-3h450.893c6.089 0 12.189-.108 18.278 0 .266.005.533 0 .799 0 1.93 0 1.934 3 0 3" clip-path="url(#g)" style="fill:#000;fill-opacity:1;fill-rule:nonzero;stroke:none" transform="matrix(1.33333 0 0 -1.33333 1028.848 914.784)"/><path d="M0 0h450.892c6.09 0 12.19-.108 18.279 0 .266.005.532 0 .799 0 1.93 0 1.933 3 0 3H19.077C12.988 3 6.888 3.108.799 3 .533 2.995.266 3 0 3c-1.93 0-1.934-3 0-3" clip-path="url(#h)" style="fill:#000;fill-opacity:1;fill-rule:nonzero;stroke:none" transform="matrix(1.33333 0 0 -1.33333 402.221 1033.344)"/><path d="M0 0h-60.733c-5.592 0-10.126 4.534-10.126 10.126 0 5.593 4.534 10.127 10.126 10.127H0c5.593 0 10.126-4.534 10.126-10.127C10.126 4.534 5.593 0 0 0" clip-path="url(#i)" style="fill:#43aadd;fill-opacity:1;fill-rule:nonzero;stroke:none" transform="matrix(1.33333 0 0 -1.33333 761.494 486.491)"/><path d="M0 0h-28.745C-39.332 0-49.92-.051-60.507 0c-3.434.017-6.581 1.833-8.057 4.994-2.016 4.316.002 9.608 4.346 11.535 1.588.704 3.205.724 4.885.724h58.58c2.396 0 4.665-.536 6.5-2.193 3.524-3.181 3.854-8.81.578-12.301C4.664.989 2.417.041 0 0c-1.928-.032-1.934-3.033 0-3 5.374.091 10.279 3.826 11.367 9.187 1.029 5.072-1.394 10.441-6.073 12.79-3.621 1.818-8.156 1.276-12.097 1.276h-41.948c-3.939 0-7.88.023-11.82 0-4.066-.024-7.85-2.016-10.032-5.48-2.787-4.427-2.136-10.341 1.424-14.135 2.339-2.493 5.56-3.631 8.923-3.638 1.538-.003 3.077 0 4.615 0H0c1.93 0 1.934 3 0 3" clip-path="url(#j)" style="fill:#000;fill-opacity:1;fill-rule:nonzero;stroke:none" transform="matrix(1.33333 0 0 -1.33333 761.494 484.491)"/><path d="M41.731 2.184Q32.03 2.182 27.282-.17t-4.875-8.364q-.892 2.525-.586 4.709A22 22 0 0 0 22.876.48c-4.87.137-8.918.286-12.152.442q-4.853.234-8.813.17A66 66 0 0 1 .786-9.731Q.68-15.088 1.571-21.1q3.76.002 7.512.755a40 40 0 0 1 7.102 2.081q3.35 1.326 5.742 3.239l1.36-1.431a25.3 25.3 0 0 0-5.017-3.109 49 49 0 0 0-5.425-2.16c-2.33-.812-4.439-1.86-6.328-3.134q-2.826-1.912-4.465-4.774C.956-31.548.412-33.828.412-36.475q0-4.916 2.25-8.91 2.258-3.99 7.417-6.348 5.154-2.353 13.899-2.355 8.67.002 13.242 2.433 4.579 2.42 4.71 8.897.96-2.585.622-4.839a36 36 0 0 0-1.09-4.787 429 429 0 0 0 8.191-.169q3.28-.102 5.801-.234a92 92 0 0 1 5.121-.143c.686 3.278 1.06 6.823 1.125 10.627a70.6 70.6 0 0 1-.773 11.642q-3.904-.077-6.938-.715a23.5 23.5 0 0 1-5.636-1.951q-2.593-1.299-5.32-3.213l-1.231 1.574a34.4 34.4 0 0 0 5.32 3.252q2.73 1.326 5.121 2.42 3.55 1.56 6.012 3.472a13 13 0 0 1 3.785 4.644q1.335 2.732 1.336 6.83-.001 5.672-1.945 9.027-1.948 3.346-5.157 4.956-3.211 1.6-7.007 2.068a60 60 0 0 1-7.536.481m27.311-1.027q-.61-1.433-.961-3.617a36 36 0 0 1-.41-4.54 34 34 0 0 1 .176-4.539q.245-2.186.714-3.63 1.03-.4 2.016-1.391.994-.987 1.676-3.213.678-2.224.68-6.244-.002-4.37-.786-6.595-.785-2.224-1.84-3.004t-1.874-.781q-.623-1.235-.891-3.343a33 33 0 0 1-.246-4.54q.033-2.43.375-4.722.35-2.288 1.031-3.928 5.048.21 9.117.078 4.065-.142 8.121-.416 4.066-.273 8.883-.507 4.815-.246 11.38-.248 9.618 0 16.241 1.678c4.421 1.113 7.782 3.135 10.078 6.075q3.456 4.41 3.457 12.527 0 7.038-2.636 11.277-2.627 4.23-7.547 6.114-4.913 1.873-11.813 1.873-4.372.001-6.972-.715-2.592-.714-4.77-3.252l-1.441 1.3a11.9 11.9 0 0 0 4.3 3.253q2.532 1.121 6.294 1.261.606 1.912.773 4.371a25.3 25.3 0 0 1-.129 4.917q-.308 2.46-1.055 4.436-3.352-.275-9.257-.69-5.907-.406-13.489-.338-3.831-.001-7.523.208-3.681.207-6.727.442-3.037.246-4.945.443M100.8-28.956h4.172v-4.58H100.8zm40.91 30.113c-.416-1.093-.712-2.387-.89-3.89a51 51 0 0 1-.34-4.643 31.5 31.5 0 0 1 .164-4.475q.244-2.078.656-3.317.819-.271 1.875-1.119 1.053-.858 1.84-3.044.783-2.184.785-6.413-.001-4.095-.645-6.347-.646-2.264-1.676-3.213-1.02-.96-2.18-1.093-.622-1.443-.89-3.655a35 35 0 0 1-.246-4.605 34 34 0 0 1 .375-4.618q.35-2.223 1.031-3.655 1.639.147 4.23.312 2.602.172 5.567.338 2.975.17 5.778.274 2.8.105 4.91.104 3.08 0 6.386-.17 3.314-.167 6.153-.442a466 466 0 0 1 4.535-.416q.619 1.433.855 3.824.246 2.397.176 5.021a56 56 0 0 1-.351 5.021q-.273 2.395-.809 3.825-1.643.001-2.426 1.262-.785 1.263-1.031 3.316a38 38 0 0 0-.234 4.371v7.102h1.98a61 61 0 0 1 .035-6.217q.175-3.005.445-4.306 3.138-.546 7.137-.715 3.995-.165 8.051 0 4.065.168 7.277.715.409 1.784.645 5.021.246 3.24.281 7.167.035 3.932-.035 7.727-.07 3.787-.317 6.725-.236 2.926-.574 4.228-6.832-.133-14.238-.573a253 253 0 0 0-15.129-.442q-3.823 0-8.226.091-4.409.103-8.649.273-4.232.18-7.512.351-3.27.167-4.77.3zm64.731 0q-.54-1.433-.89-3.617a32 32 0 0 1-.375-4.54q-.026-2.352.14-4.539c.118-1.457.334-2.667.657-3.63q2.18-.466 3.375-2.002 1.194-1.546 1.734-3.76.549-2.223.89-4.617.41-2.523.551-4.878.14-2.353-.515-3.994-.647-1.637-2.766-1.977-.61-1.235-.89-3.343a32 32 0 0 1-.235-4.54q.034-2.43.375-4.722.338-2.288 1.031-3.928 2.8.275 6.891.52 4.1.235 10.934.235 4.64.001 10.066-.378 5.437-.374 11.168-.715a192 192 0 0 1 11.203-.338q4.64 0 7.336 1.95 2.706 1.942 4.066 5.087c.915 2.09 1.506 4.341 1.782 6.751a58 58 0 0 1 .375 7.076q-.036 3.45-.035 5.97 0 4.036.75 6.388.748 2.355 2.015 3.512 1.264 1.16 2.695 1.704.48 1.443.645 3.629a48 48 0 0 1 .14 4.54 33 33 0 0 1-.374 4.54q-.343 2.183-.891 3.616-2.803-.274-6.727-.69-3.928-.404-9.457-.403-5.673-.001-10.687.403-5.018.416-7.817.69-.281-1.433-.48-3.617a73 73 0 0 1-.27-4.54 73 73 0 0 1 0-4.539q.069-2.186.27-3.63h1.91v-3.407h-5.941v3.408H241q.279 1.443.375 3.629.105 2.187.035 4.54a69 69 0 0 1-.281 4.54q-.202 2.183-.598 3.616-1.854-.197-3.937-.443a128 128 0 0 0-4.84-.442q-2.768-.209-6.797-.208-6.353-.001-10.934.377-4.57.375-7.582.716m33.13-29.775h4.921v-3.213h-4.922zM324.8 2.184q-9.703-.002-14.45-2.354t-4.874-8.364q-.893 2.525-.586 4.709A22 22 0 0 0 305.945.48q-7.302.207-12.152.442-4.852.234-8.813.17a66 66 0 0 1-1.125-10.823q-.106-5.357.786-11.369 3.76.002 7.511.755a40 40 0 0 1 7.102 2.081q3.35 1.326 5.742 3.239l1.36-1.431a25.3 25.3 0 0 0-5.016-3.109 49 49 0 0 0-5.426-2.16c-2.33-.812-4.438-1.86-6.328-3.134q-2.826-1.912-4.465-4.774c-1.096-1.915-1.64-4.195-1.64-6.842q0-4.916 2.25-8.91 2.258-3.99 7.417-6.348 5.155-2.353 13.899-2.355 8.67.002 13.242 2.433 4.58 2.42 4.711 8.897.96-2.585.621-4.839a36 36 0 0 0-1.09-4.787q4.909-.062 8.192-.169 3.278-.102 5.8-.234a92 92 0 0 1 5.122-.143c.685 3.278 1.06 6.823 1.125 10.627a70.6 70.6 0 0 1-.774 11.642q-3.904-.077-6.937-.715a23.5 23.5 0 0 1-5.637-1.951q-2.592-1.299-5.32-3.213l-1.23 1.574a34.4 34.4 0 0 0 5.32 3.252q2.73 1.326 5.12 2.42 3.552 1.56 6.012 3.472a13 13 0 0 1 3.785 4.644q1.336 2.732 1.336 6.83-.001 5.672-1.945 9.027-1.948 3.346-5.156 4.956-3.212 1.6-7.008 2.068a60 60 0 0 1-7.535.481m27.17-1.027q-.54-1.433-.88-3.617a32 32 0 0 1-.374-4.54 50 50 0 0 1 .129-4.539q.174-2.186.656-3.63 1.09-.4 2.11-1.391 1.028-.987 1.71-3.213.678-2.224.68-6.244-.002-4.37-.785-6.595-.786-2.224-1.84-3.004-1.056-.78-1.875-.781-.623-1.235-.89-3.343a33 33 0 0 1-.247-4.54q.034-2.43.375-4.722.351-2.288 1.031-3.928 1.909.145 4.91.377 3.011.235 6.387.417 3.385.17 6.387.169c3.873 0 7.13-.11 9.773-.339q3.96-.351 6.833-.624.407 1.512.609 3.902.208 2.382.27 4.982a69 69 0 0 1-.036 4.943q-.095 2.358-.375 3.929H384.9v3.148h5.461v-3.148h-1.71q-.201-1.572-.27-3.929a87 87 0 0 1 0-4.943 87 87 0 0 1 .27-4.982q.209-2.39.48-3.902 2.799.273 7.066.624 4.264.34 10.488.339 2.73 0 5.977-.17 3.244-.181 6.246-.416l4.852-.377q.675 1.64 1.02 3.928.338 2.294.374 4.722a31 31 0 0 1-.246 4.54q-.272 2.108-.879 3.343-.823 0-1.886.78-1.057.78-1.84 3.005-.786 2.225-.785 6.595-.001 4.02.68 6.244.69 2.226 1.71 3.213 1.03.99 2.121 1.392.478 1.443.645 3.629.176 2.187.14 4.54a33 33 0 0 1-.375 4.54q-.341 2.183-.89 3.616-2.804-.274-6.797-.69-3.998-.404-10.067-.403-5.474-.001-10.113.403-4.642.416-7.441.69c-.182-.956-.34-2.192-.48-3.72a80 80 0 0 1-.27-4.774 81 81 0 0 1 0-4.787q.069-2.288.27-3.72h1.71v-3.487h-5.46v3.486h1.628c.188.956.31 2.195.375 3.72a65 65 0 0 1 .035 4.788 71 71 0 0 1-.27 4.773c-.134 1.529-.336 2.765-.608 3.72q-1.926-.196-4.008-.442-2.076-.235-5.086-.442-3.001-.209-7.57-.208-5.534-.001-9.973.377-4.443.375-7.453.716m0 0" aria-label="SPLASH" style="fill:#fff;fill-opacity:1;fill-rule:nonzero;stroke:none" transform="matrix(1.33333 0 0 1.2012 433.768 1006.06)"/><path d="M0 0q3.789.43 7 1.877 3.21 1.445 5.156 4.46t1.947 8.121q0 3.692-1.332 6.152-1.332 2.462-3.791 4.184t-6.009 3.138a236 236 0 0 0-5.122 2.184 35.3 35.3 0 0 0-5.327 2.922l1.229 1.415a43.5 43.5 0 0 1 5.327-2.891q2.595-1.17 5.634-1.753 3.038-.586 6.932-.647.886 5.353.785 10.49-.103 5.137-1.127 9.567-2.597 0-5.121-.123a284 284 0 0 0-5.805-.215 534 534 0 0 0-8.195-.154q.75-2.277 1.092-4.307t-.615-4.368q-.137 5.845-4.712 8.029-4.576 2.183-13.248 2.184-8.742 0-13.897-2.122-5.157-2.123-7.41-5.722t-2.253-8.029q0-3.568 1.638-6.153 1.639-2.584 4.473-4.306 2.834-1.723 6.317-2.83a51 51 0 0 0 5.429-1.938 26 26 0 0 0 5.02-2.8l-1.366-1.292q-2.391 1.723-5.736 2.923-3.348 1.2-7.102 1.876a42.3 42.3 0 0 1-7.513.677q-.888-5.415-.785-10.243A53.3 53.3 0 0 1-47.36.554q3.959-.06 8.809.153 4.849.217 12.156.4a18.2 18.2 0 0 0-1.058 3.876q-.308 1.97.58 4.246.136-5.415 4.883-7.537Q-17.244-.431-7.546-.431-3.79-.43 0 0z" clip-path="url(#k)" style="fill:none;stroke:#000;stroke-width:3;stroke-linecap:butt;stroke-linejoin:miter;stroke-miterlimit:10;stroke-dasharray:none;stroke-opacity:1" transform="matrix(1.33333 0 0 -1.33333 499.465 1008.11)"/><path d="M0 0q3.037.217 6.727.4 3.686.185 7.511.185 7.58.061 13.488-.308a898 898 0 0 0 9.253-.615q.752 1.785 1.059 3.999a20.7 20.7 0 0 1 .137 4.43q-.171 2.215-.785 3.937-3.758.123-6.284 1.139-2.527 1.015-4.302 2.922l1.434 1.169q2.184-2.276 4.781-2.922 2.594-.647 6.965-.647 6.898 0 11.815 1.693 4.917 1.691 7.546 5.506 2.63 3.814 2.63 10.151 0 7.322-3.45 11.29-3.448 3.968-10.073 5.476-6.624 1.507-16.253 1.507-6.556 0-11.371-.215a585 585 0 0 1-8.878-.462 269 269 0 0 0-8.126-.369q-4.064-.123-9.117.061-.684-1.476-1.024-3.537a28.4 28.4 0 0 1-.376-4.245 26 26 0 0 1 .239-4.092q.273-1.906.888-3.015.818 0 1.878-.707 1.059-.709 1.843-2.707.786-2 .786-5.937 0-3.63-.683-5.629-.683-2.001-1.673-2.892-.99-.892-2.015-1.261-.478-1.293-.716-3.261a26.5 26.5 0 0 1-.171-4.091q.067-2.122.41-4.092.34-1.969.956-3.26Q-3.041-.214 0 0Zm26.804 30.854h4.166v-4.122h-4.166z" clip-path="url(#l)" style="fill:none;stroke:#000;stroke-width:3;stroke-linecap:butt;stroke-linejoin:miter;stroke-miterlimit:10;stroke-dasharray:none;stroke-opacity:1" transform="matrix(1.33333 0 0 -1.33333 532.427 1006.922)"/><path d="M0 0q3.278.156 7.512.308 4.234.154 8.639.246t8.229.092q7.716.001 15.127-.4a401 401 0 0 1 14.238-.522q.341 1.168.581 3.814a88 88 0 0 1 .308 6.061q.066 3.413.033 6.952a91 91 0 0 1-.272 6.46q-.24 2.921-.65 4.521-3.21.492-7.272.647a107 107 0 0 1-8.059 0q-3.995-.155-7.137-.647-.273-1.168-.443-3.876a51 51 0 0 1-.034-5.598h-1.981v6.398q0 2.092.239 3.938.239 1.845 1.024 2.984.785 1.138 2.425 1.138.546 1.291.819 3.445t.342 4.522a33 33 0 0 1-.171 4.522q-.24 2.153-.853 3.445a323 323 0 0 1-4.542-.369q-2.835-.247-6.146-.399a137 137 0 0 0-6.386-.155q-2.117 0-4.917.093t-5.77.246-5.566.308q-2.596.152-4.234.276-.684-1.292-1.024-3.291a27 27 0 0 1-.376-4.153q-.036-2.154.239-4.152.273-2 .888-3.292 1.16-.124 2.185-.985 1.024-.861 1.673-2.891.65-2.03.649-5.722 0-3.815-.786-5.783-.784-1.97-1.844-2.738-1.058-.77-1.877-1.015-.41-1.109-.649-2.984a25.4 25.4 0 0 1-.171-4.03q.067-2.154.342-4.184.273-2.03.888-3.506Q-3.279-.152 0 0Z" clip-path="url(#m)" style="fill:none;stroke:#000;stroke-width:3;stroke-linecap:butt;stroke-linejoin:miter;stroke-miterlimit:10;stroke-dasharray:none;stroke-opacity:1" transform="matrix(1.33333 0 0 -1.33333 629.08 1007.086)"/><path d="M0 0q4.576.34 10.927.339 4.029 0 6.795-.185 2.766-.184 4.849-.4 2.083-.214 3.927-.4.41 1.292.614 3.261t.274 4.092a49 49 0 0 1-.034 4.091q-.104 1.968-.376 3.261h-1.913v3.076h5.942v-3.076h-1.912q-.206-1.293-.274-3.261a61 61 0 0 1 0-4.091q.068-2.122.274-4.092.205-1.969.477-3.261 2.8.247 7.82.616 5.019.369 10.688.369 5.532 0 9.458-.369t6.727-.616q.546 1.292.887 3.261a26.4 26.4 0 0 1 .376 4.092 40 40 0 0 1-.136 4.091q-.172 1.968-.649 3.261a8.6 8.6 0 0 0-2.698 1.538q-1.264 1.046-2.015 3.169-.751 2.122-.751 5.752 0 2.275.035 5.383a47 47 0 0 1-.375 6.368 19.5 19.5 0 0 1-1.777 6.09q-1.366 2.83-4.062 4.584-2.699 1.753-7.342 1.753-5.464 0-11.2-.307a1308 1308 0 0 1-11.165-.646q-5.43-.338-10.074-.339-6.829 0-10.926.216-4.099.215-6.898.461-.684-1.476-1.024-3.537a28.4 28.4 0 0 1-.376-4.245 26 26 0 0 1 .239-4.092q.274-1.907.888-3.015 2.117-.307 2.765-1.784.65-1.476.513-3.598a39 39 0 0 0-.546-4.4 39 39 0 0 0-.889-4.152q-.546-2-1.741-3.384-1.196-1.385-3.38-1.815-.479-1.293-.649-3.261a40 40 0 0 1-.137-4.091 26.4 26.4 0 0 1 .376-4.092q.341-1.969.888-3.261Q-4.576-.336 0 0Zm25.541 29.07h4.918v-2.892h-4.918z" clip-path="url(#n)" style="fill:none;stroke:#000;stroke-width:3;stroke-linecap:butt;stroke-linejoin:miter;stroke-miterlimit:10;stroke-dasharray:none;stroke-opacity:1" transform="matrix(1.33333 0 0 -1.33333 719.133 1006.594)"/><path d="M0 0q3.789.43 7 1.877 3.21 1.445 5.156 4.46t1.947 8.121q0 3.692-1.332 6.152-1.332 2.462-3.791 4.184t-6.009 3.138a236 236 0 0 0-5.122 2.184 35.3 35.3 0 0 0-5.327 2.922l1.229 1.415a43.5 43.5 0 0 1 5.327-2.891q2.595-1.17 5.634-1.753 3.038-.586 6.932-.647.886 5.353.785 10.49-.103 5.137-1.127 9.567-2.597 0-5.121-.123a284 284 0 0 0-5.805-.215 534 534 0 0 0-8.195-.154q.75-2.277 1.092-4.307t-.615-4.368q-.137 5.845-4.712 8.029-4.576 2.183-13.248 2.184-8.742 0-13.897-2.122-5.157-2.123-7.41-5.722t-2.253-8.029q0-3.568 1.638-6.153 1.639-2.584 4.473-4.306 2.834-1.723 6.317-2.83a51 51 0 0 0 5.429-1.938 26 26 0 0 0 5.02-2.8l-1.366-1.292q-2.391 1.723-5.736 2.923-3.348 1.2-7.102 1.876a42.3 42.3 0 0 1-7.513.677q-.888-5.415-.785-10.243A53.3 53.3 0 0 1-47.36.554q3.959-.06 8.809.153 4.849.217 12.156.4a18.2 18.2 0 0 0-1.058 3.876q-.308 1.97.58 4.246.136-5.415 4.883-7.537Q-17.244-.431-7.546-.431-3.79-.43 0 0z" clip-path="url(#o)" style="fill:none;stroke:#000;stroke-width:3;stroke-linecap:butt;stroke-linejoin:miter;stroke-miterlimit:10;stroke-dasharray:none;stroke-opacity:1" transform="matrix(1.33333 0 0 -1.33333 876.887 1008.11)"/><path d="M0 0q4.439.34 9.971.339 4.575 0 7.58-.185 3.005-.184 5.088-.4 2.081-.214 3.995-.4.41 1.292.615 3.354.204 2.06.272 4.307a54 54 0 0 1-.034 4.306q-.103 2.06-.375 3.353h-1.639v3.138h5.464v-3.138h-1.708q-.205-1.293-.273-3.353a67 67 0 0 1 0-4.306q.068-2.247.273-4.307.204-2.062.478-3.354 2.8.247 7.444.616 4.642.369 10.107.369 6.078 0 10.073-.369t6.795-.616q.545 1.292.888 3.261.34 1.97.376 4.092a40 40 0 0 1-.137 4.091q-.172 1.968-.649 3.261-1.093.369-2.117 1.261t-1.707 2.892q-.683 1.999-.683 5.629 0 3.937.785 5.937.785 1.999 1.845 2.707 1.058.707 1.877.707.615 1.108.888 3.015.272 1.908.238 4.092a29 29 0 0 1-.375 4.245q-.342 2.061-1.024 3.537a967 967 0 0 1-4.849-.338 254 254 0 0 0-6.249-.369 126 126 0 0 0-5.975-.154q-6.216 0-10.483.307-4.268.308-7.068.554-.274-1.353-.478-3.507a69 69 0 0 1-.273-4.491 72 72 0 0 1 0-4.46q.068-2.123.273-3.538h1.708v-2.83h-5.464v2.83h1.639q.272 1.415.375 3.538t.034 4.46a69 69 0 0 1-.272 4.491q-.206 2.154-.615 3.507a868 868 0 0 0-6.829-.554q-3.962-.307-9.766-.307-3.006 0-6.385.154a241 241 0 0 0-6.385.369q-3.006.215-4.917.338-.683-1.476-1.025-3.537a29 29 0 0 1-.376-4.245q-.034-2.184.239-4.092.274-1.907.888-3.015.82 0 1.878-.707 1.059-.709 1.844-2.707.785-2 .786-5.937 0-3.63-.684-5.629-.683-2.001-1.707-2.892-1.024-.892-2.117-1.261-.478-1.293-.648-3.261a40 40 0 0 1-.137-4.091q.033-2.122.376-4.092.34-1.969.888-3.261Q-4.439-.336 0 0Z" clip-path="url(#p)" style="fill:none;stroke:#000;stroke-width:3;stroke-linecap:butt;stroke-linejoin:miter;stroke-miterlimit:10;stroke-dasharray:none;stroke-opacity:1" transform="matrix(1.33333 0 0 -1.33333 912.99 1006.594)"/><path d="M8.074.002q-.96.002-.96-.954V-40.81l-5.098.193q-.95.002-.95-.954v-8.224q0-.939.95-.94h16.828q.95.001.949.94V-.952q0 .956-.95.954zm45.97-50.738q.914 0 1.523.645l7.618 7.605q.642.62.644 1.534v28.463q-.001.697-.574 1.147L49.368-.385q-.422.387-1.148.387h-9.516q-.95.001-.95-.954v-4.796q0-.68.575-1.134l12.68-9.41v-2.088H37.45q-.916 0-1.523-.658l-6.352-6.316q-.645-.643-.644-1.521v-14.077q0-.914.644-1.534l7.617-7.605q.642-.644 1.512-.645zm-7.64 9.784q-3.354 0-4.536 1.47-1.184 1.46-1.183 5.607-.002 4.153 1.183 5.633 1.182 1.484 4.535 1.483 3.304.001 4.5-1.483 1.206-1.48 1.207-5.633-.001-4.148-1.207-5.607-1.196-1.47-4.5-1.47m51.644-9.784q.914 0 1.523.645l7.617 7.605q.643.62.645 1.534v28.463q-.001.697-.574 1.147L93.372-.385q-.422.387-1.148.387h-9.516q-.95.001-.95-.954v-4.796q0-.68.575-1.134l12.68-9.41v-2.088H81.454q-.917 0-1.523-.658l-6.352-6.316q-.645-.643-.644-1.521v-14.077q-.001-.914.644-1.534l7.617-7.605q.642-.644 1.512-.645zm-7.64 9.784q-3.354 0-4.536 1.47-1.185 1.46-1.184 5.607-.001 4.153 1.184 5.633 1.182 1.484 4.535 1.483 3.304.001 4.5-1.483 1.206-1.48 1.207-5.633-.001-4.148-1.207-5.607-1.196-1.47-4.5-1.47M126.711.002q-.906.002-1.512-.645l-7.617-7.618q-.645-.604-.645-1.521v-8.225q0-.758.375-1.134l4.301-5.027v-2.398l-4.3-5.027q-.377-.385-.376-1.148v-8.25q0-.875.645-1.534l7.617-7.605q.606-.605 1.512-.606h15.27q.913 0 1.523.606l7.605 7.605q.656.659.657 1.534v8.25q0 .763-.387 1.148l-4.3 5.027v2.398l4.3 5.027q.387.376.387 1.134v8.225q0 .918-.657 1.52l-7.605 7.62q-.61.645-1.524.644zm7.652-8.07q3.349.002 4.535-1.457 1.183-1.469 1.184-5.62-.001-4.149-1.184-5.633-1.185-1.494-4.535-1.495-3.306.001-4.511 1.495-1.196 1.485-1.196 5.633 0 4.151 1.196 5.62 1.205 1.459 4.511 1.457m0-20.406q3.349 0 4.535-1.482 1.183-1.48 1.184-5.633-.001-4.148-1.184-5.634-1.185-1.48-4.535-1.482-3.306.002-4.511 1.482-1.196 1.486-1.196 5.634 0 4.153 1.196 5.633 1.205 1.483 4.511 1.482m0 0" aria-label="1998" style="fill:#fff;fill-opacity:1;fill-rule:nonzero;stroke:none" transform="matrix(1.33333 0 0 1.21212 611.406 585.057)"/><path d="M0 0q.952 0 .952.865v44.397q0 .865-.952.865h-16.824q-.952 0-.952-.865v-7.474q0-.865.952-.865l5.1.173V.865q0-.865.952-.865Z" clip-path="url(#q)" style="fill:none;stroke:#000;stroke-width:3;stroke-linecap:butt;stroke-linejoin:miter;stroke-miterlimit:10;stroke-dasharray:none;stroke-opacity:1" transform="matrix(1.33333 0 0 -1.33333 636.529 585.057)"/><path d="M0 0a2.2 2.2 0 0 1-1.522-.588l-7.614-6.921q-.647-.553-.647-1.384v-12.804q0-.796.647-1.384l6.357-5.744q.61-.59 1.523-.589h13.551v-1.903L-.381-39.864q-.571-.416-.571-1.038v-4.36q0-.865.952-.865h9.516q.723 0 1.142.346l13.894 9.966q.57.415.57 1.038v25.884q0 .83-.646 1.384L16.862-.588Q16.253 0 15.34 0Zm12.199-10.226q1.2-1.332 1.199-5.104 0-3.771-1.199-5.121t-4.511-1.35q-3.35 0-4.529 1.35-1.18 1.35-1.18 5.121t1.18 5.104 4.529 1.333q3.312 0 4.511-1.333z" clip-path="url(#r)" style="fill:none;stroke:#000;stroke-width:3;stroke-linecap:butt;stroke-linejoin:miter;stroke-miterlimit:10;stroke-dasharray:none;stroke-opacity:1" transform="matrix(1.33333 0 0 -1.33333 663.02 523.553)"/><path d="M0 0a2.2 2.2 0 0 1-1.522-.588l-7.614-6.921q-.647-.553-.647-1.384v-12.804q0-.796.647-1.384l6.357-5.744q.61-.59 1.523-.589h13.551v-1.903L-.381-39.864q-.571-.416-.571-1.038v-4.36q0-.865.952-.865h9.516q.723 0 1.142.346l13.894 9.966q.57.415.57 1.038v25.884q0 .83-.646 1.384L16.862-.588Q16.253 0 15.34 0Zm12.199-10.226q1.2-1.332 1.199-5.104 0-3.771-1.199-5.121t-4.511-1.35q-3.35 0-4.529 1.35-1.18 1.35-1.18 5.121t1.18 5.104 4.529 1.333q3.312 0 4.511-1.333z" clip-path="url(#s)" style="fill:none;stroke:#000;stroke-width:3;stroke-linecap:butt;stroke-linejoin:miter;stroke-miterlimit:10;stroke-dasharray:none;stroke-opacity:1" transform="matrix(1.33333 0 0 -1.33333 721.74 523.553)"/><path d="M0 0q.913 0 1.522.588l7.614 6.921q.646.554.647 1.384v7.475q0 .691-.381 1.038l-4.301 4.568v2.18l4.301 4.568q.38.345.381 1.038v7.509q-.001.795-.647 1.384l-7.614 6.921q-.609.552-1.522.553h-15.264q-.914 0-1.522-.553l-7.613-6.921q-.648-.59-.648-1.384V29.76q0-.693.381-1.038l4.302-4.568v-2.18l-4.302-4.568q-.381-.346-.381-1.038V8.893q0-.83.648-1.384l7.613-6.921Q-16.178 0-15.264 0Zm-12.123 8.668q-1.2 1.333-1.199 5.104t1.199 5.122 4.51 1.35q3.35 0 4.53-1.35t1.18-5.122-1.18-5.104-4.53-1.332q-3.311 0-4.51 1.332zm0 18.565q-1.2 1.35-1.199 5.122t1.199 5.122 4.51 1.349q3.35 0 4.53-1.349 1.18-1.35 1.18-5.122t-1.18-5.122q-1.18-1.349-4.53-1.349-3.311 0-4.51 1.349z" clip-path="url(#t)" style="fill:none;stroke:#000;stroke-width:3;stroke-linecap:butt;stroke-linejoin:miter;stroke-miterlimit:10;stroke-dasharray:none;stroke-opacity:1" transform="matrix(1.33333 0 0 -1.33333 800.813 585.057)"/><path d="M0 0c3.919 2.076 5.886 3.052 9.834 4.882 1.51.7 2.15 1.832 1.916 3.432l-4.3 29.431c-.238 1.627-1.174 2.081-2.804 1.326-4.259-1.974-6.382-3.027-10.611-5.268zm-14.007-20.674c-.856-.553-1.36-.492-1.513.196L-27.339 32.4c-.153.687.255 1.35 1.227 1.978 11.68 7.176 23.429 13.837 36.083 19.179.958.404 1.787.502 2.486.303 5.239-1.498 7.823-2.348 12.915-4.233q1.082-.403 1.185-1.406l3.666-35.698q.106-1.044-.744-2.051c-3.974-4.945-5.913-7.477-9.692-12.648-.501-.719-1.17-1.251-2.014-1.607C6.705-8.456-3.92-14.152-14.007-20.674" clip-path="url(#u)" style="fill:#fff;fill-opacity:1;fill-rule:nonzero;stroke:none" transform="matrix(1.33333 0 0 -1.33333 602.103 445.928)"/><path d="M0 0c3.919 2.076 5.886 3.052 9.834 4.882 1.51.7 2.15 1.832 1.916 3.432l-4.3 29.431c-.238 1.627-1.174 2.081-2.804 1.326-4.259-1.974-6.382-3.027-10.611-5.268zm-14.007-20.674c-.856-.553-1.36-.492-1.513.196L-27.339 32.4c-.153.687.255 1.35 1.227 1.978 11.68 7.176 23.429 13.837 36.083 19.179.958.404 1.787.502 2.486.303 5.239-1.498 7.823-2.348 12.915-4.233q1.082-.403 1.185-1.406l3.666-35.698q.106-1.044-.744-2.051c-3.974-4.945-5.913-7.477-9.692-12.648-.501-.719-1.17-1.251-2.014-1.607C6.705-8.456-3.92-14.152-14.007-20.674Z" clip-path="url(#v)" style="fill:none;stroke:#000;stroke-width:3;stroke-linecap:butt;stroke-linejoin:miter;stroke-miterlimit:10;stroke-dasharray:none;stroke-opacity:1" transform="matrix(1.33333 0 0 -1.33333 602.103 445.928)"/><path d="M0 0c-.889-.216-1.36.036-1.414.768l-4.12 56.327c-.053.731.424 1.226 1.434 1.472 14.2 3.004 27.843 4.743 42.345 5.333 1.012.009 1.511-.363 1.497-1.103l-.183-9.593c-.014-.74-.515-1.109-1.504-1.118-9.231-.087-13.856-.43-23.088-1.717l.398-12.569c8.207 1.144 12.316 1.473 20.523 1.643.963.02 1.438-.347 1.427-1.087l-.121-8.127c-.011-.741-.488-1.114-1.43-1.134-8.026-.166-12.045-.487-20.072-1.606l.397-12.524c8.556 1.192 12.842 1.51 21.395 1.59.917.009 1.367-.363 1.353-1.103l-.184-9.638c-.014-.741-.467-1.109-1.359-1.117C24.734 4.576 12.202 2.974 0 0" clip-path="url(#w)" style="fill:#fff;fill-opacity:1;fill-rule:nonzero;stroke:#000;stroke-width:3;stroke-linecap:butt;stroke-linejoin:miter;stroke-miterlimit:10;stroke-dasharray:none;stroke-opacity:1" transform="matrix(1.33333 0 0 -1.33333 662.242 438.89)"/><path d="M0 0c-.889.078-1.316.481-1.28 1.221l2.762 56.918c.035.738.558 1.07 1.568.982 14.438-1.723 27.932-4.527 41.882-8.631.991-.324 1.434-.855 1.331-1.58l-1.332-9.404c-.103-.726-.637-.924-1.604-.608-9.031 2.954-13.584 4.132-22.727 5.888l-1.122-12.53c8.126-1.561 12.174-2.584 20.211-5.117.943-.297 1.364-.816 1.264-1.541l-1.095-7.978c-.1-.727-.611-.939-1.533-.648-7.861 2.477-11.82 3.478-19.768 5.004L17.438 9.491c8.472-1.628 12.691-2.719 21.06-5.456.896-.293 1.292-.809 1.19-1.534l-1.339-9.447c-.102-.726-.589-.94-1.462-.655C24.929-3.684 12.537-1.104 0 0" clip-path="url(#x)" style="fill:#fff;fill-opacity:1;fill-rule:nonzero;stroke:#000;stroke-width:3;stroke-linecap:butt;stroke-linejoin:miter;stroke-miterlimit:10;stroke-dasharray:none;stroke-opacity:1" transform="matrix(1.33333 0 0 -1.33333 732.633 433.437)"/><path d="M0 0c3.014-1.733 5.169-2.537 6.496-2.304 1.325.233 2.308 1.611 2.94 4.161.632 2.548.501 4.637-.405 6.252s-2.906 3.378-6.01 5.163c-3.067 1.763-5.288 2.429-6.629 2.107-1.342-.322-2.28-1.796-2.821-4.396-.542-2.601-.345-4.658.576-6.184S-2.978 1.712 0 0m-26.749-21.528c-.861.371-1.231.91-1.107 1.628l9.542 55.239c.124.717.676.872 1.654.45C-5.549 30.992 5.143 25.241 15.323 18.7q1.365-.878 2.102-2.138c3.679-6.286 5.462-9.485 8.915-15.979q.73-1.381.461-2.314l-4.046-13.997c-.188-.65-.642-.967-1.363-.959-5.145-.133-7.695-.307-12.74-.855q-1.02-.15-2.278.661c-5.145 3.301-7.74 4.84-12.965 7.694l-4.128-18.997c-.153-.704-.653-.822-1.502-.367-5.766 3.095-8.674 4.499-14.528 7.023" clip-path="url(#y)" style="fill:#fff;fill-opacity:1;fill-rule:nonzero;stroke:none" transform="matrix(1.33333 0 0 -1.33333 837.605 422.488)"/><path d="M0 0c3.014-1.733 5.169-2.537 6.496-2.304 1.325.233 2.308 1.611 2.94 4.161.632 2.548.501 4.637-.405 6.252s-2.906 3.378-6.01 5.163c-3.067 1.763-5.288 2.429-6.629 2.107-1.342-.322-2.28-1.796-2.821-4.396-.542-2.601-.345-4.658.576-6.184S-2.978 1.712 0 0Zm-26.749-21.528c-.861.371-1.231.91-1.107 1.628l9.542 55.239c.124.717.676.872 1.654.45C-5.549 30.992 5.143 25.241 15.323 18.7q1.365-.878 2.102-2.138c3.679-6.286 5.462-9.485 8.915-15.979q.73-1.381.461-2.314l-4.046-13.997c-.188-.65-.642-.967-1.363-.959-5.145-.133-7.695-.307-12.74-.855q-1.02-.15-2.278.661c-5.145 3.301-7.74 4.84-12.965 7.694l-4.128-18.997c-.153-.704-.653-.822-1.502-.367-5.766 3.095-8.674 4.499-14.528 7.023z" clip-path="url(#z)" style="fill:none;stroke:#000;stroke-width:3;stroke-linecap:butt;stroke-linejoin:miter;stroke-miterlimit:10;stroke-dasharray:none;stroke-opacity:1" transform="matrix(1.33333 0 0 -1.33333 837.605 422.488)"/><path d="M0 0v-189.612c0-16.54-13.408-29.948-29.948-29.948h-90.542v46.33h80.57V0z" clip-path="url(#A)" style="fill:#eadb26;fill-opacity:1;fill-rule:nonzero;stroke:none" transform="matrix(1.33333 0 0 -1.33333 1051.78 430.779)"/><path d="M0 0v-187.341c0-2.471.004-4.919-.449-7.367-1.784-9.617-8.562-17.958-17.741-21.454-4.265-1.624-8.599-1.898-13.079-1.898h-87.721l1.5-1.5v46.33l-1.5-1.5h80.57c.811 0 1.5.687 1.5 1.5V-7.065c0 2.219.211 4.557 0 6.77-.009.096 0 .198 0 .295l-1.5-1.5H1.5c1.93 0 1.934 3 0 3h-39.92c-.811 0-1.5-.687-1.5-1.5v-166.165c0-2.219-.211-4.557 0-6.769.009-.097 0-.199 0-.296l1.5 1.5h-80.57c-.811 0-1.5-.687-1.5-1.5v-46.33c0-.811.687-1.5 1.5-1.5h65.801c8.227 0 16.455-.037 24.683 0 9.145.041 18.011 4.015 23.953 11.009 4.918 5.79 7.541 13.092 7.553 20.678.008 5.188 0 10.375 0 15.563V0c0 1.93-3 1.934-3 0" clip-path="url(#B)" style="fill:#000;fill-opacity:1;fill-rule:nonzero;stroke:none" transform="matrix(1.33333 0 0 -1.33333 1049.78 430.779)"/><path d="M0 0h-29.941c-7.283 0-13.188 5.905-13.188 13.188s5.905 13.188 13.188 13.188H0c7.284 0 13.188-5.904 13.188-13.188C13.188 5.905 7.284 0 0 0" clip-path="url(#C)" style="fill:#eadb26;fill-opacity:1;fill-rule:nonzero;stroke:none" transform="matrix(1.33333 0 0 -1.33333 1044.63 455.488)"/><path d="M0 0h-20.932c-2.938 0-5.876-.012-8.814 0-5.599.023-10.482 3.816-11.651 9.346-1.323 6.257 2.914 12.494 9.114 13.799 2.54.534 5.417.231 7.99.231H-.628c4.869 0 9.339-2.425 11.351-7.009 2.58-5.878-.278-12.988-6.194-15.47C3.089.293 1.554.02 0 0c-1.929-.025-1.934-3.025 0-3 7.19.094 13.494 5.369 14.522 12.556 1.009 7.058-3.285 13.95-10.082 16.136-3.095.995-6.578.684-9.79.684h-14.647c-3.263 0-6.528.015-9.791 0-6.303-.029-11.963-3.95-14.05-9.931-2.332-6.684.72-14.391 6.963-17.707C-33.398-3.109-29.768-3-25.988-3H0c1.93 0 1.934 3 0 3" clip-path="url(#D)" style="fill:#000;fill-opacity:1;fill-rule:nonzero;stroke:none" transform="matrix(1.33333 0 0 -1.33333 1044.63 453.488)"/><path d="M0 0v-54.53c0-38.583-31.277-69.86-69.86-69.86h-87.32c-10.438 0-18.9 8.462-18.9 18.9v25.598c0 11.559-9.438 21.025-20.994 20.769l-.851-.021C-209.121-59.464-218-68.709-218-79.91v-25.59c0-10.433-8.457-18.89-18.89-18.89h-87.32c-38.588 0-69.87 31.282-69.87 69.87V0c0 10.433 8.457 18.89 18.89 18.89h138.3C-226.457 18.89-218 10.433-218 0a3.21 3.21 0 0 1 3.21-3.21h35.5A3.21 3.21 0 0 1-176.08 0c0 10.433 8.457 18.89 18.89 18.89h138.3C-8.457 18.89 0 10.433 0 0" clip-path="url(#E)" style="fill:#ff571e;fill-opacity:1;fill-rule:nonzero;stroke:none" transform="matrix(1.33333 0 0 -1.33333 978.407 670.778)"/><path d="M0 0v-48.242c0-9.064-.362-17.902-3.087-26.664-4.206-13.521-12.725-25.619-24.025-34.155-11.691-8.831-26.043-13.703-40.692-13.827-4.513-.038-9.029-.002-13.542-.002h-59.109c-5.036 0-10.075-.051-15.111 0-6.205.063-11.978 3.222-15.138 8.618-2.339 3.992-2.376 8.202-2.376 12.636v14.991c0 3.602.256 7.358-.393 10.917-2.652 14.532-19.079 22.206-32.155 15.797-6.168-3.023-10.74-9.054-11.978-15.812-.651-3.559-.394-7.316-.394-10.918v-14.986c0-4.432-.036-8.639-2.374-12.63-3.16-5.394-8.928-8.55-15.13-8.613-1.602-.016-3.204 0-4.806 0h-78.923c-8.829 0-17.447.841-25.862 3.745-13.535 4.672-25.482 13.719-33.671 25.464-8.02 11.5-12.271 25.2-12.314 39.208-.02 6.608 0 13.217 0 19.826V-5.52c0 1.839-.022 3.68 0 5.52.088 7.446 4.857 14.25 12.016 16.545 3.876 1.243 8.291.845 12.321.845h128.249c1.017 0 2.034.011 3.051 0 6.364-.069 12.238-3.45 15.322-9.059a17.4 17.4 0 0 0 1.804-4.988c.319-1.611.058-3.388.61-4.936.748-2.096 2.661-3.068 4.771-3.117 3.379-.079 6.77 0 10.15 0 8.263 0 16.599-.328 24.856 0 2.445.097 4.502 1.671 4.808 4.189.2 1.65.172 3.261.595 4.891a17.5 17.5 0 0 0 2.224 5.06c3.218 5.016 8.798 7.901 14.708 7.96 11.492.115 22.992 0 34.484 0H-18.52c2.387 0 4.716-.204 6.997-1.011C-4.602 13.933-.103 7.259 0 0c.027-1.929 3.027-1.934 3 0-.164 11.575-9.534 20.366-20.972 20.39-4.401.009-8.801 0-13.202 0h-113.343c-3.684 0-7.37.039-11.053 0-5.527-.059-10.838-2.17-14.717-6.153-2.447-2.514-4.249-5.672-5.132-9.07-.448-1.721-.349-3.454-.661-5.167-.204-1.119-.774-1.621-1.911-1.71-3.154-.248-6.427 0-9.588 0h-15.922c-3.161 0-6.434-.248-9.588 0-1.137.089-1.707.591-1.911 1.71-.312 1.71-.214 3.451-.661 5.167-.883 3.398-2.685 6.556-5.132 9.07-3.879 3.984-9.191 6.094-14.717 6.153-1.171.012-2.343 0-3.515 0h-129.373c-5.439 0-10.642.11-15.583-2.784-6.248-3.66-10.01-10.407-10.099-17.606-.023-1.839 0-3.681 0-5.52 0-16.332-.055-32.665 0-48.996.098-29.273 18.404-56.026 45.718-66.617 16.033-6.217 33.559-4.757 50.416-4.757h57.241c1.709 0 3.418-.016 5.127 0 5.721.052 11.226 2.286 15.135 6.522 3.777 4.094 5.443 9.264 5.443 14.763v13.463c0 3.702-.037 7.406 0 11.108.069 6.862 3.556 13.274 9.521 16.778 6.421 3.773 14.876 3.513 21.028-.681 5.389-3.673 8.344-9.834 8.371-16.279.034-8.243-.021-16.486 0-24.728.029-11.574 9.014-20.892 20.68-20.946 15.834-.074 31.67 0 47.505 0h28.786c5.399 0 10.872-.204 16.26.214C-33.651-123.408-8.163-102.801.112-74.69 2.698-65.907 3-57.032 3-47.978V0c0 1.93-3 1.934-3 0" clip-path="url(#F)" style="fill:#000;fill-opacity:1;fill-rule:nonzero;stroke:none" transform="matrix(1.33333 0 0 -1.33333 976.407 670.778)"/><path d="M0 0h-70.597c-31.041 0-56.205 25.164-56.205 56.205v43.597c0 8.394 6.805 15.198 15.198 15.198H0c8.394 0 15.198-6.804 15.198-15.198V15.198C15.198 6.804 8.394 0 0 0" clip-path="url(#G)" style="fill:#167ab5;fill-opacity:1;fill-rule:nonzero;stroke:none" transform="matrix(1.33333 0 0 -1.33333 640.57 817.779)"/><path d="M0 0h-63.382c-5.738 0-11.469-.159-17.143.893-12.34 2.288-23.599 8.835-31.75 18.37-8.197 9.587-12.826 21.958-13.02 34.561-.09 5.906-.007 11.82-.007 17.726v24.266c0 2.953.03 5.804 1.403 8.538 2.358 4.699 7.122 7.606 12.362 7.646 3.254.025 6.508 0 9.762 0h95.741c4.009 0 8.399.448 12.086-1.402 4.712-2.365 7.605-7.134 7.646-12.384.01-1.275 0-2.55 0-3.825V15.613c0-1.882.017-3.711-.489-5.556C11.583 4.126 6.1.069 0 0c-1.929-.022-1.934-3.022 0-3C6.575-2.926 12.673.949 15.299 7.025c1.11 2.568 1.399 5.235 1.399 7.988v70.719c0 4.169.033 8.339 0 12.507-.045 5.707-2.904 11.037-7.715 14.14C6.093 114.243 2.773 115-.63 115h-108.241c-.906 0-1.812.009-2.717 0-6.003-.057-11.657-3.28-14.596-8.554-1.759-3.156-2.118-6.527-2.118-10.045V59.745c0-1.914-.019-3.83.005-5.745.081-6.606 1.285-13.221 3.604-19.41 4.475-11.944 12.869-22.21 23.705-28.947C-91.715-.122-80.987-3-70.095-3H0c1.93 0 1.934 3 0 3" clip-path="url(#H)" style="fill:#000;fill-opacity:1;fill-rule:nonzero;stroke:none" transform="matrix(1.33333 0 0 -1.33333 640.57 815.779)"/><path d="M0 0h70.597c31.041 0 56.205 25.164 56.205 56.205v43.597c0 8.394-6.805 15.198-15.198 15.198H0c-8.394 0-15.198-6.804-15.198-15.198V15.198C-15.198 6.804-8.394 0 0 0" clip-path="url(#I)" style="fill:#167ab5;fill-opacity:1;fill-rule:nonzero;stroke:none" transform="matrix(1.33333 0 0 -1.33333 791.765 817.779)"/><path d="M0 0h64.458c6.521 0 12.941.026 19.354 1.522 12.42 2.896 23.759 10.055 31.732 20.005 8.171 10.198 12.704 22.925 12.757 36.001.025 6.001.001 12.001.001 18.001v24.086c0 3.612-.457 7.079-2.364 10.254-3.025 5.039-8.514 8.08-14.366 8.131-3.24.028-6.482 0-9.722 0H4.989c-5.109 0-10.058.163-14.511-2.985-4.512-3.191-7.133-8.294-7.176-13.81-.011-1.329 0-2.659 0-3.988V24.241c0-4.956-.519-10.213 1.668-14.815C-12.293 3.667-6.318.071 0 0c1.931-.022 1.932 2.978 0 3-6.302.071-11.856 4.379-13.333 10.543-.415 1.732-.365 3.474-.365 5.236v70.41c0 4.019-.033 8.039 0 12.058.044 5.438 3.22 10.44 8.238 12.632 2.111.922 4.318 1.121 6.578 1.121h107.625c.94 0 1.879.008 2.819 0 5.432-.045 10.43-3.227 12.619-8.238 1.162-2.659 1.121-5.385 1.121-8.198V62.255c0-1.985.031-3.973-.017-5.957a55 55 0 0 0-3.843-18.842c-4.534-11.472-13.103-21.215-23.804-27.317C89.049 5.243 79.464 3 69.619 3H0c-1.93 0-1.934-3 0-3" clip-path="url(#J)" style="fill:#000;fill-opacity:1;fill-rule:nonzero;stroke:none" transform="matrix(1.33333 0 0 -1.33333 791.765 819.779)"/><path d="M0 0s-34.039 4.161-35.061-90.213c-.096-8.84 7.607-16.067 17.156-16.117l39.695-.211c9.751-.052 17.597 7.377 17.347 16.4C38.263-58.616 32.545 6.527 0 0" clip-path="url(#K)" style="fill:#eadb26;fill-opacity:1;fill-rule:nonzero;stroke:none" transform="matrix(1.33333 0 0 -1.33333 712.431 733.885)"/><path d="M0 0c-1.702.206-3.587-.216-5.2-.707-4.44-1.35-8.308-4.209-11.419-7.596-5.747-6.259-9.358-14.271-11.982-22.262-4.731-14.41-6.532-29.762-7.413-44.84a324 324 0 0 1-.541-15.839c-.039-4.026 1.157-7.808 3.662-10.981 3.866-4.9 9.753-7.078 15.853-7.11l29.449-.157c3.116-.016 6.232-.055 9.348-.049 7.698.015 15.025 4.41 17.836 11.72 1.247 3.241 1.047 6.609.919 10.005a365 365 0 0 1-.438 8.81c-.411 6.655-1.006 13.301-1.853 19.916-1.697 13.257-4.167 26.747-9.574 39.05C24.638-10.918 17.968-1.226 7.322.244 4.737.602 2.159.447-.399-.054c-1.893-.37-1.091-3.262.798-2.892 4.431.868 8.936.3 12.844-1.989 4.097-2.398 7.163-6.22 9.564-10.249 6.323-10.609 9.121-23.272 11.145-35.321 2.083-12.403 3.102-24.983 3.569-37.544.117-3.165.334-6.28-.939-9.274-1.457-3.426-4.269-6.1-7.606-7.681-3.607-1.708-7.41-1.536-11.267-1.516l-30.451.162c-3.434.018-6.977-.218-10.29.842-3.586 1.147-6.763 3.565-8.67 6.829-2.2 3.765-1.873 7.845-1.77 12.049.394 16.187 1.68 32.58 5.734 48.308 2.264 8.782 5.425 17.648 10.853 25.013a36 36 0 0 0 2.773 3.305 30 30 0 0 0 2.944 2.731l.329.262c.198.155-.222-.165.105.079q.36.268.727.527.655.458 1.339.872c.822.497 1.674.929 2.548 1.324.371.168-.13-.05.023.011q.136.056.273.11c.199.075.397.153.598.224q.528.189 1.066.345a18 18 0 0 0 1.881.428c.132.023.266.039.398.06-.456-.07-.223-.025.034-.001.213.019.427.04.641.051.301.016.6.008.901.01C-.204-2.978-.1-2.988 0-3c1.913-.231 1.896 2.771 0 3" clip-path="url(#L)" style="fill:#000;fill-opacity:1;fill-rule:nonzero;stroke:none" transform="matrix(1.33333 0 0 -1.33333 712.431 731.885)"/><path d="m0 0-39.921-6.416-2.138 14.258L1.426 6.416Z" clip-path="url(#M)" style="fill:#000;fill-opacity:1;fill-rule:nonzero;stroke:none" transform="matrix(1.33333 0 0 -1.33333 1052.708 464.043)"/><path d="m0 0 33.732-.625 4.763-.088c1.931-.036 1.931 2.964 0 3l-33.732.625L0 3c-1.931.036-1.931-2.964 0-3" clip-path="url(#N)" style="fill:#000;fill-opacity:1;fill-rule:nonzero;stroke:none" transform="matrix(1.33333 0 0 -1.33333 999.48 505.963)"/><path d="m0 0 33.732-.625 4.763-.088c1.931-.036 1.931 2.964 0 3l-33.732.625L0 3c-1.931.036-1.931-2.964 0-3" clip-path="url(#O)" style="fill:#000;fill-opacity:1;fill-rule:nonzero;stroke:none" transform="matrix(1.33333 0 0 -1.33333 999.48 554.852)"/><path d="m0 0 33.732-.625 4.763-.088c1.931-.036 1.931 2.964 0 3l-33.732.625L0 3c-1.931.036-1.931-2.964 0-3" clip-path="url(#P)" style="fill:#000;fill-opacity:1;fill-rule:nonzero;stroke:none" transform="matrix(1.33333 0 0 -1.33333 999.48 603.741)"/><path d="m0 0 33.732-.625 4.763-.088c1.931-.036 1.931 2.964 0 3l-33.732.625L0 3c-1.931.036-1.931-2.964 0-3" clip-path="url(#Q)" style="fill:#000;fill-opacity:1;fill-rule:nonzero;stroke:none" transform="matrix(1.33333 0 0 -1.33333 999.48 652.63)"/><path d="M0 0c-12.646 0-22.897 10.251-22.897 22.897v28.621c0 12.646 10.251 22.897 22.897 22.897s22.897-10.251 22.897-22.897V22.897C22.897 10.251 12.646 0 0 0" clip-path="url(#R)" style="fill:#fff;fill-opacity:1;fill-rule:nonzero;stroke:none" transform="matrix(1.33333 0 0 -1.33333 689.311 715.157)"/><path d="M0 0c-8.117 0-15.592 4.732-19.173 11.996-2.206 4.475-2.131 9.146-2.131 13.968v17.269c0 4.388-.338 8.917.998 13.156 2.432 7.713 9.295 13.479 17.285 14.639 7.942 1.152 16.136-2.458 20.631-9.106 2.294-3.392 3.595-7.374 3.687-11.472.027-1.199.006-2.4.006-3.598V30.01c0-3.929.388-8.165-.253-12.064C19.727 9.905 13.827 3.139 5.985.852 4.028.281 2.037.015 0 0c-2.05-.015-2.055-3.202 0-3.187 8.911.067 17.303 4.963 21.548 12.845 1.937 3.597 2.918 7.61 2.942 11.691.009 1.476 0 2.951 0 4.427v18.092c0 5.131.236 10.211-1.729 15.087-3.339 8.286-10.957 14.168-19.824 15.273-8.832 1.1-17.615-2.871-22.831-10.029-2.591-3.557-4.111-7.818-4.503-12.19-.143-1.605-.093-3.231-.093-4.841V29.55c0-4.691-.406-9.684.747-14.27C-21.596 6.738-14.711-.189-6.187-2.399A24.8 24.8 0 0 1 0-3.187C2.051-3.187 2.054 0 0 0" clip-path="url(#S)" style="fill:#000;fill-opacity:1;fill-rule:nonzero;stroke:none" transform="matrix(1.33333 0 0 -1.33333 689.311 713.033)"/><path d="M0 0a8.824 8.824 0 0 0-8.824 8.824v11.029A8.824 8.824 0 0 0 0 28.677a8.824 8.824 0 0 0 8.824-8.824V8.824A8.824 8.824 0 0 0 0 0" clip-path="url(#T)" style="fill:#000;fill-opacity:1;fill-rule:nonzero;stroke:none" transform="matrix(1.33333 0 0 -1.33333 689.311 684.665)"/><path d="M0 0c-2.833 0-5.469 1.707-6.62 4.302-.685 1.545-.61 3.153-.61 4.794v6.377c0 1.424-.15 2.99.176 4.387 1.411 6.055 9.743 7.67 13.128 2.326 1.027-1.62 1.156-3.324 1.156-5.169v-6.209c0-1.664.205-3.542-.176-5.177C6.284 2.326 3.363.065 0 0c-2.048-.039-2.055-3.226 0-3.187 3.679.071 7.119 1.957 8.995 5.16 1.255 2.143 1.422 4.44 1.422 6.844v7.285c0 2.266-.005 4.425-.976 6.547C6.25 29.62-3.537 30.665-8.21 24.65c-3.093-3.982-2.207-9.683-2.207-14.413 0-2.548-.108-5.003.976-7.396C-7.792-.798-3.98-3.187 0-3.187 2.051-3.187 2.054 0 0 0" clip-path="url(#U)" style="fill:#000;fill-opacity:1;fill-rule:nonzero;stroke:none" transform="matrix(1.33333 0 0 -1.33333 689.311 682.54)"/><path d="M0 0c-12.646 0-22.897 10.251-22.897 22.897v28.621c0 12.646 10.251 22.897 22.897 22.897s22.897-10.251 22.897-22.897V22.897C22.897 10.251 12.646 0 0 0" clip-path="url(#V)" style="fill:#fff;fill-opacity:1;fill-rule:nonzero;stroke:none" transform="matrix(1.33333 0 0 -1.33333 743.133 715.157)"/><path d="M0 0c-8.117 0-15.592 4.732-19.173 11.996-2.206 4.475-2.131 9.146-2.131 13.968v17.269c0 4.388-.338 8.917.998 13.156 2.432 7.713 9.295 13.479 17.285 14.639 7.942 1.152 16.136-2.458 20.631-9.106 2.294-3.392 3.595-7.374 3.687-11.472.027-1.199.006-2.4.006-3.598V30.01c0-3.929.388-8.165-.253-12.064C19.727 9.905 13.827 3.139 5.985.852 4.028.281 2.037.015 0 0c-2.05-.015-2.055-3.202 0-3.187 8.911.067 17.303 4.963 21.548 12.845 1.937 3.597 2.918 7.61 2.942 11.691.009 1.476 0 2.951 0 4.427v18.092c0 5.131.236 10.211-1.729 15.087-3.339 8.286-10.957 14.168-19.824 15.273-8.832 1.1-17.615-2.871-22.831-10.029-2.591-3.557-4.111-7.818-4.503-12.19-.143-1.605-.093-3.231-.093-4.841V29.55c0-4.691-.406-9.684.747-14.27C-21.596 6.738-14.711-.189-6.187-2.399A24.8 24.8 0 0 1 0-3.187C2.051-3.187 2.054 0 0 0" clip-path="url(#W)" style="fill:#000;fill-opacity:1;fill-rule:nonzero;stroke:none" transform="matrix(1.33333 0 0 -1.33333 743.133 713.033)"/><path d="M0 0a8.824 8.824 0 0 0-8.824 8.824v11.029A8.824 8.824 0 0 0 0 28.677a8.824 8.824 0 0 0 8.824-8.824V8.824A8.824 8.824 0 0 0 0 0" clip-path="url(#X)" style="fill:#000;fill-opacity:1;fill-rule:nonzero;stroke:none" transform="matrix(1.33333 0 0 -1.33333 743.133 684.665)"/><path d="M0 0c-2.833 0-5.469 1.707-6.62 4.302-.685 1.545-.61 3.153-.61 4.794v6.377c0 1.424-.15 2.99.176 4.387 1.411 6.055 9.743 7.67 13.128 2.326 1.027-1.62 1.156-3.324 1.156-5.169v-6.209c0-1.664.205-3.542-.176-5.177C6.284 2.326 3.363.065 0 0c-2.048-.039-2.055-3.226 0-3.187 3.679.071 7.119 1.957 8.995 5.16 1.255 2.143 1.422 4.44 1.422 6.844v7.285c0 2.266-.005 4.425-.976 6.547C6.25 29.62-3.537 30.665-8.21 24.65c-3.093-3.982-2.207-9.683-2.207-14.413 0-2.548-.108-5.003.976-7.396C-7.792-.798-3.98-3.187 0-3.187 2.051-3.187 2.054 0 0 0" clip-path="url(#Y)" style="fill:#000;fill-opacity:1;fill-rule:nonzero;stroke:none" transform="matrix(1.33333 0 0 -1.33333 743.133 682.54)"/><path d="M0 0c4.66-9.83.829-22.11-7.643-29.323s-20.69-9.713-32.019-8.283c-11.329 1.431-21.859 6.43-31.205 12.634z" clip-path="url(#Z)" style="fill:#000;fill-opacity:1;fill-rule:nonzero;stroke:none" transform="matrix(1.33333 0 0 -1.33333 758.606 720.89)"/><path d="M0 0c1.196-.11 2.376-.36 3.564-.546 8.401-1.315 17.297.598 24.162 5.684 4.409 3.267 7.872 7.627 11.917 11.335 4.046 3.708 9.047 6.88 14.534 6.878 7.291-.003 13.752-6.048 15.449-13.138s-.792-14.742-5.346-20.434-10.965-9.636-17.644-12.557a81.1 81.1 0 0 0-35.374-6.708c-5.314.199-10.73.962-15.448 3.413-4.719 2.452-8.671 6.829-9.526 12.078C-14.943-6.439-8.028.471-.481.036Q-.24.023 0 0" clip-path="url(#aa)" style="fill:#10b46f;fill-opacity:1;fill-rule:nonzero;stroke:none" transform="matrix(1.33333 0 0 -1.33333 676.179 724.759)"/><path d="M0 0c3.555-.377 6.928-1.092 10.534-.901 3.468.185 6.926.865 10.179 2.087a32.8 32.8 0 0 1 8.859 5.021c2.89 2.289 5.386 5.016 7.959 7.645 4.678 4.779 10.65 10.158 17.872 9.44 5.909-.587 10.9-5.505 12.597-11.032 2.005-6.533-.099-13.658-3.949-19.083C60-12.53 53.874-16.483 47.625-19.408c-6.963-3.26-14.466-5.431-22.07-6.539-7.455-1.085-15.567-1.422-22.951.302-6.323 1.475-12.808 5.339-14.652 11.977-1.59 5.726 2.14 11.539 7.709 13.237C-2.91.004-1.486.112 0 0c1.793-.135 1.785 2.659 0 2.794-6.38.481-12.537-3.592-14.599-9.658-2.268-6.67 1.719-13.459 7.018-17.346 6.439-4.723 15.024-5.415 22.749-5.326a82.5 82.5 0 0 1 24.757 4.104C53.961-20.818 69.506-11.73 71.403 4.426c.804 6.848-1.753 13.774-7.23 18.069-2.545 1.996-5.537 3.29-8.77 3.591-3.65.34-7.307-.804-10.466-2.57-6.949-3.885-11.354-10.728-17.57-15.514-6.041-4.651-13.798-6.661-21.352-6.045-2.022.165-4 .623-6.015.837C-1.786 2.983-1.773.188 0 0" clip-path="url(#ab)" style="fill:#000;fill-opacity:1;fill-rule:nonzero;stroke:none" transform="matrix(1.33333 0 0 -1.33333 676.179 726.621)"/><path d="M0 0c-2.24-1.94-3.297-4.978-2.859-7.889.405-2.694 2.246-5.148 4.681-6.351.676-.334 1.512-.182 1.911.501.361.617.178 1.576-.501 1.911-1.78.88-3.078 2.527-3.37 4.508-.291 1.975.585 4.02 2.114 5.344.57.495.506 1.469 0 1.976C1.41.566.572.495 0 0" clip-path="url(#ac)" style="fill:#000;fill-opacity:1;fill-rule:nonzero;stroke:none" transform="matrix(1.33333 0 0 -1.33333 676.012 734.065)"/><path d="M0 0c17.103-6.166 36.651-1.69 49.341 11.312a47 47 0 0 1 8.082 11.181c.827 1.594-1.584 3.008-2.412 1.41C47.417 9.254 32.08-.119 15.548.017 10.487.058 5.501.979.743 2.694-.952 3.305-1.681.606 0 0" clip-path="url(#ad)" style="fill:#000;fill-opacity:1;fill-rule:nonzero;stroke:none" transform="matrix(1.33333 0 0 -1.33333 674.544 744.804)"/><path d="M0 0c.101-.009.373-.051.122-.009a7.6 7.6 0 0 0 1.429-.375c.082-.03.345-.147.122-.045a8 8 0 0 0 1.591-.939c-.228.171.059-.051.105-.09a9 9 0 0 0 1.092-1.099l.118-.144-.029.036q.111-.149.216-.303a9 9 0 0 0 .73-1.293q.062-.138-.018.05.036-.085.069-.172.066-.172.126-.348a8 8 0 0 0 .279-1.072c.008-.042.06-.418.041-.24-.019.18.015-.201.018-.243q.012-.184.016-.37a8 8 0 0 0-.031-.805c-.064-.73.688-1.429 1.397-1.397.811.036 1.329.615 1.397 1.397.219 2.515-.76 4.97-2.353 6.879A9.54 9.54 0 0 1 0 2.794c-.73.068-1.429-.691-1.397-1.397C-1.36.582-.782.073 0 0" clip-path="url(#ae)" style="fill:#000;fill-opacity:1;fill-rule:nonzero;stroke:none" transform="matrix(1.33333 0 0 -1.33333 744.02 711.141)"/><path d="M0 0c-10.399 1.275-20.331-4.491-26.857-12.233-7.405-8.786-10.677-20.129-13.478-31.05-2.757-10.75-5.252-21.888-11.346-31.341-3.032-4.705-6.988-8.579-11.549-11.8-4.659-3.289-9.687-5.998-14.498-9.05-9.545-6.054-19.427-15.083-19.374-27.304.008-1.93 3.008-1.934 3 0-.045 10.362 8.239 18.368 16.293 23.684 9.068 5.983 19.252 10.596 26.123 19.329 14.053 17.859 12.034 42.544 24.006 61.382C-21.806-9.141-11.394-1.603 0-3c1.912-.234 1.895 2.768 0 3" clip-path="url(#af)" style="fill:#000;fill-opacity:1;fill-rule:nonzero;stroke:none" transform="matrix(1.33333 0 0 -1.33333 597.955 636.846)"/><path d="M0 0c-11.369-4.02-20.016-12.756-26.243-22.856-6.755-10.956-10.529-23.257-14.23-35.489-4.002-13.227-8.15-26.616-16.231-38.011-8.108-11.435-19.092-20.369-28.6-30.56-10.005-10.724-18.9-23.653-19.881-38.721-.125-1.928 2.875-1.92 3 0 .861 13.222 8.457 24.827 17.046 34.456 8.978 10.065 19.527 18.649 27.945 29.227a82.7 82.7 0 0 1 10.539 17.16c2.843 6.215 5.065 12.686 7.101 19.202 3.841 12.289 7.065 24.873 13.108 36.323C-20.445-17.901-11.66-7.297.798-2.893 2.605-2.254 1.827.646 0 0" clip-path="url(#ag)" style="fill:#000;fill-opacity:1;fill-rule:nonzero;stroke:none" transform="matrix(1.33333 0 0 -1.33333 663.99 637.78)"/><path d="M0 0c-9.883-4.317-16.841-13.038-21.329-22.612-4.91-10.476-6.971-21.75-8.956-33.061-2.186-12.447-4.473-25.314-11.149-36.266-5.473-8.979-13.536-15.975-21.002-23.235-8.212-7.985-16.267-16.818-19.056-28.249-.458-1.875 2.435-2.675 2.893-.798 2.436 9.984 9.158 17.866 16.277 24.953 7.317 7.283 15.261 14.051 21.291 22.506 14.308 20.063 11.836 46.058 20.441 68.294C-16.393-17.622-9.452-7.381 1.514-2.59 3.279-1.819 1.754.766 0 0" clip-path="url(#ah)" style="fill:#000;fill-opacity:1;fill-rule:nonzero;stroke:none" transform="matrix(1.33333 0 0 -1.33333 880.452 618.307)"/><path d="M0 0c-10.364-5.184-17.589-14.72-22.52-24.971-5.469-11.369-8.197-23.699-11.867-35.702-1.907-6.24-4.079-12.425-7.076-18.234-2.953-5.724-6.739-10.883-11.131-15.583-8.779-9.395-19.318-16.882-28.484-25.865-9.775-9.577-18.324-21.247-19.883-35.209-.214-1.916 2.787-1.9 3 0 1.362 12.198 8.787 22.651 17.135 31.215 8.754 8.98 19.015 16.32 27.881 25.184 4.433 4.432 8.513 9.261 11.771 14.63 3.368 5.55 5.874 11.588 7.962 17.721 4.034 11.847 6.481 24.217 11.262 35.81C-17.195-19.477-9.938-8.319 1.514-2.59 3.241-1.727 1.724.862 0 0" clip-path="url(#ai)" style="fill:#000;fill-opacity:1;fill-rule:nonzero;stroke:none" transform="matrix(1.33333 0 0 -1.33333 961.74 636.876)"/><path d="M0 0c-.128 1.245.175 2.499 1.015 3.742 3.964 5.87 13.29-.171 18.237-2.625C31.279-4.849 45.646-6.847 58.33-4.319 64.446-3.1 78.203.218 80.417-8.711c1.137-4.587-3.95-7.276-8.08-8.681-12.703-4.32-28.012-4.77-42.007-1.477C23.406-17.24.905-8.815 0 0" clip-path="url(#aj)" style="fill:#fff;fill-opacity:1;fill-rule:nonzero;stroke:none" transform="matrix(1.33333 0 0 -1.33333 499.93 780.467)"/><path d="M0 0c-.198 2.926 2.032 4.838 4.809 4.721 2.652-.113 5.252-1.357 7.587-2.518 2.64-1.313 5.198-2.747 7.916-3.902a64.7 64.7 0 0 1 10.399-3.423c7.178-1.695 14.688-2.237 22.019-1.351 4.829.584 9.532 1.994 14.406 2.237 3.825.19 9.03-.196 10.264-4.607.768-2.745-1.547-4.56-3.713-5.721-2.828-1.515-6.065-2.343-9.17-3.074-12.892-3.035-27.243-2.662-39.838 1.553-4.676 1.565-9.258 3.482-13.599 5.823C7.358-8.254 2.903-5.756.728-1.959.39-1.369.068-.568 0 0c-.226 1.893-3.229 1.916-3 0 .561-4.696 4.768-7.982 8.455-10.413 4.682-3.087 9.887-5.41 15.122-7.386 13.006-4.908 27.476-5.941 41.133-3.48 3.783.682 7.616 1.603 11.181 3.061 2.68 1.096 5.669 2.674 7.001 5.397 1.246 2.548.61 5.557-1.077 7.751-1.476 1.921-3.724 3.018-6.066 3.486-4.924.982-10.069-.02-14.913-1.004-7.374-1.497-14.875-1.719-22.309-.456A64 64 0 0 0 23.869.088c-3.157 1.18-6.098 2.73-9.089 4.264-4.623 2.373-12.069 5.883-16.145.706C-2.508 3.606-3.126 1.854-3 0c.13-1.916 3.131-1.93 3 0" clip-path="url(#ak)" style="fill:#000;fill-opacity:1;fill-rule:nonzero;stroke:none" transform="matrix(1.33333 0 0 -1.33333 501.93 780.467)"/><path d="M0 0c.128 1.245-.175 2.499-1.015 3.742-3.964 5.87-13.29-.171-18.237-2.625-12.027-5.966-26.394-7.964-39.078-5.436C-64.446-3.1-78.203.218-80.417-8.711c-1.137-4.587 3.95-7.276 8.08-8.681 12.703-4.32 28.012-4.77 42.007-1.477C-23.406-17.24-.905-8.815 0 0" clip-path="url(#al)" style="fill:#fff;fill-opacity:1;fill-rule:nonzero;stroke:none" transform="matrix(1.33333 0 0 -1.33333 934.3 777.615)"/><path d="M0 0c.219 3.23-1.872 6.375-4.958 7.374-2.796.905-5.942.008-8.562-1.048-2.722-1.097-5.258-2.548-7.877-3.858C-24.98.676-28.756-.715-32.624-1.753c-7.751-2.08-15.985-2.742-23.947-1.609-5.13.729-10.129 2.231-15.357 2.161-4.932-.066-10.296-1.879-11.471-7.274-1.557-7.151 7.588-10.051 12.802-11.476 7.933-2.169 16.278-2.902 24.479-2.459 6.465.35 12.969 1.345 19.123 3.395 5.145 1.714 10.214 3.835 14.966 6.455 4.118 2.272 9.03 5.233 11.177 9.626C-.388-1.985-.125-1.045 0 0c.229 1.913-2.773 1.896-3 0-.429-3.587-4.87-6.505-7.704-8.296-4.318-2.73-9.025-4.864-13.799-6.659-11.854-4.455-24.955-5.66-37.469-3.753-3.683.561-7.328 1.4-10.868 2.563-2.44.802-5.33 1.856-6.946 3.975-1.39 1.823-.713 4.315.827 5.828 1.375 1.352 3.414 1.875 5.282 2.051 4.433.416 8.844-.551 13.164-1.418 7.028-1.41 14.209-1.497 21.293-.463A64 64 0 0 1-18.941.36c2.437 1.27 4.851 2.637 7.457 3.539 2.064.715 4.88 1.495 6.805.016C-3.467 2.984-2.899 1.489-3 0c-.13-1.927 2.87-1.919 3 0" clip-path="url(#am)" style="fill:#000;fill-opacity:1;fill-rule:nonzero;stroke:none" transform="matrix(1.33333 0 0 -1.33333 936.3 777.615)"/></svg>