<svg xmlns="http://www.w3.org/2000/svg" width="1440" height="1440" viewBox="0 0 1440 1440"><defs><clipPath id="a" clipPathUnits="userSpaceOnUse"><path d="M-870.31 337.59h1080v-1080h-1080Z"/></clipPath><clipPath id="b" clipPathUnits="userSpaceOnUse"><path d="M-870.31 336.09h1080v-1080h-1080Z"/></clipPath><clipPath id="c" clipPathUnits="userSpaceOnUse"><path d="M-545.065 824.11h1080v-1080h-1080Z"/></clipPath><clipPath id="d" clipPathUnits="userSpaceOnUse"><path d="M-544.308 822.815h1080v-1080h-1080Z"/></clipPath><clipPath id="e" clipPathUnits="userSpaceOnUse"><path d="M-805.835 367.967h1080v-1080h-1080Z"/></clipPath><clipPath id="f" clipPathUnits="userSpaceOnUse"><path d="M-805.835 366.467h1080v-1080h-1080Z"/></clipPath><clipPath id="g" clipPathUnits="userSpaceOnUse"><path d="M-354.16 383.296h1080v-1080h-1080Z"/></clipPath><clipPath id="h" clipPathUnits="userSpaceOnUse"><path d="M-352.713 383.695h1080v-1080h-1080Z"/></clipPath><clipPath id="i" clipPathUnits="userSpaceOnUse"><path d="M-727.247 383.296h1080v-1080h-1080Z"/></clipPath><clipPath id="j" clipPathUnits="userSpaceOnUse"><path d="M-725.8 383.695h1080v-1080h-1080Z"/></clipPath><clipPath id="k" clipPathUnits="userSpaceOnUse"><path d="M-354.607 350.523h1080v-1080h-1080Z"/></clipPath><clipPath id="l" clipPathUnits="userSpaceOnUse"><path d="M-437.836 350.412h1080v-1080h-1080Z"/></clipPath><clipPath id="m" clipPathUnits="userSpaceOnUse"><path d="M-534.049 351.008h1080v-1080h-1080Z"/></clipPath><clipPath id="n" clipPathUnits="userSpaceOnUse"><path d="M-582.01 350.114h1080v-1080h-1080Z"/></clipPath><clipPath id="o" clipPathUnits="userSpaceOnUse"><path d="M-694.432 350.114h1080v-1080h-1080Z"/></clipPath><clipPath id="p" clipPathUnits="userSpaceOnUse"><path d="M-622.003 797.526h1080v-1080h-1080Z"/></clipPath><clipPath id="q" clipPathUnits="userSpaceOnUse"><path d="M-622.76 798.822h1080v-1080h-1080Z"/></clipPath><clipPath id="r" clipPathUnits="userSpaceOnUse"><path d="M-662.544 629.255h1080v-1080h-1080Z"/></clipPath><clipPath id="s" clipPathUnits="userSpaceOnUse"><path d="M-409.222 585.429h1080v-1080h-1080Z"/></clipPath><clipPath id="t" clipPathUnits="userSpaceOnUse"><path d="M-424.602 780.109h1080v-1080h-1080Z"/></clipPath><clipPath id="u" clipPathUnits="userSpaceOnUse"><path d="M-425.001 778.662h1080v-1080h-1080Z"/></clipPath><clipPath id="v" clipPathUnits="userSpaceOnUse"><path d="M-501.24 803.332h1080v-1080h-1080Z"/></clipPath><clipPath id="w" clipPathUnits="userSpaceOnUse"><path d="M-501.24 801.832h1080v-1080h-1080Z"/></clipPath><clipPath id="x" clipPathUnits="userSpaceOnUse"><path d="M-636.802 848.618h1080v-1080h-1080Z"/></clipPath><clipPath id="y" clipPathUnits="userSpaceOnUse"><path d="M-636.802 847.09h1080v-1080h-1080Z"/></clipPath><clipPath id="z" clipPathUnits="userSpaceOnUse"><path d="M-527.948 839.329h1080v-1080h-1080Z"/></clipPath><clipPath id="A" clipPathUnits="userSpaceOnUse"><path d="M-526.448 839.329h1080v-1080h-1080Z"/></clipPath><clipPath id="B" clipPathUnits="userSpaceOnUse"><path d="M-513.737 444.94h1080v-1080h-1080Z"/></clipPath><clipPath id="C" clipPathUnits="userSpaceOnUse"><path d="M-512.676 446.001h1080v-1080h-1080Z"/></clipPath><clipPath id="D" clipPathUnits="userSpaceOnUse"><path d="M-634.834 623.078h1080v-1080h-1080Z"/></clipPath><clipPath id="E" clipPathUnits="userSpaceOnUse"><path d="M-633.334 623.078h1080v-1080h-1080Z"/></clipPath><clipPath id="F" clipPathUnits="userSpaceOnUse"><path d="M-556.575 505.212h1080v-1080h-1080Z"/></clipPath><clipPath id="G" clipPathUnits="userSpaceOnUse"><path d="M-555.075 505.212h1080v-1080h-1080Z"/></clipPath><clipPath id="H" clipPathUnits="userSpaceOnUse"><path d="M-515.071 525.403h1080v-1080h-1080Z"/></clipPath><clipPath id="I" clipPathUnits="userSpaceOnUse"><path d="M-643.448 505.212h1080v-1080h-1080Z"/></clipPath><clipPath id="J" clipPathUnits="userSpaceOnUse"><path d="M-641.948 505.212h1080v-1080h-1080Z"/></clipPath><clipPath id="K" clipPathUnits="userSpaceOnUse"><path d="M-596.526 524.63h1080v-1080h-1080Z"/></clipPath><clipPath id="L" clipPathUnits="userSpaceOnUse"><path d="M-523.992 573.297h1080v-1080h-1080Z"/></clipPath><clipPath id="M" clipPathUnits="userSpaceOnUse"><path d="M-513.239 575.282h1080v-1080h-1080Z"/></clipPath><clipPath id="N" clipPathUnits="userSpaceOnUse"><path d="M-564.65 579.542h1080v-1080h-1080Z"/></clipPath><clipPath id="O" clipPathUnits="userSpaceOnUse"><path d="M-542.82 570.47h1080v-1080h-1080Z"/></clipPath><clipPath id="P" clipPathUnits="userSpaceOnUse"><path d="M-562.377 530.428h1080v-1080h-1080Z"/></clipPath><clipPath id="Q" clipPathUnits="userSpaceOnUse"><path d="M-560.976 530.815h1080v-1080h-1080Z"/></clipPath><clipPath id="R" clipPathUnits="userSpaceOnUse"><path d="M-551.706 530.47h1080v-1080h-1080Z"/></clipPath><clipPath id="S" clipPathUnits="userSpaceOnUse"><path d="M-550.58 529.811h1080v-1080h-1080Z"/></clipPath><clipPath id="T" clipPathUnits="userSpaceOnUse"><path d="M-492.793 734.54h1080v-1080h-1080Z"/></clipPath></defs><path d="M0 0h1080v1080H0Z" style="fill:#fff;fill-opacity:1;fill-rule:nonzero;stroke:none" transform="matrix(1.33333 0 0 -1.33333 0 1440)"/><path d="M0 0h-44.9c4.078-76.97-.9-349.28-255.432-505.07a589 589 0 0 0-29.982-17.17 597 597 0 0 0-29.973 17.16C-614.819-349.29-619.798-76.97-615.72 0h-44.9v100.51h43.329v29.94h81.788v-29.94h37.152v29.94h81.788v-29.94h37.152v29.94h98.202v-29.94h37.152v29.94h81.789v-29.94h37.151v29.94h81.789v-29.94H0z" clip-path="url(#a)" style="fill:#ff61bb;fill-opacity:1;fill-rule:nonzero;stroke:none" transform="matrix(1.33333 0 0 -1.33333 1160.413 450.12)"/><path d="M0 0h-44.9c-.779 0-1.542-.688-1.5-1.5 1.183-22.456.869-44.996-.583-67.431-2.174-33.572-7.004-66.978-14.535-99.769-9.243-40.24-22.588-79.577-40.331-116.875-20.401-42.886-46.593-82.971-78.015-118.599-36.862-41.796-80.614-77.106-128.517-105.494a605 605 0 0 0-22.69-12.777h1.514c-51.165 27.439-98.35 62.176-138.406 104.296-33.293 35.008-61.373 74.794-83.472 117.745-19.258 37.431-33.949 77.134-44.329 117.912-8.57 33.67-14.236 68.073-17.075 102.696-1.968 24.004-2.633 48.146-1.664 72.215q.123 3.042.283 6.081c.043.81-.721 1.5-1.5 1.5h-44.9l1.5-1.5V99.01l-1.5-1.5h43.329c.811 0 1.5.687 1.5 1.5v29.94l-1.5-1.5h81.788l-1.5 1.5V99.01c0-.811.687-1.5 1.5-1.5h37.152c.811 0 1.5.687 1.5 1.5v29.94l-1.5-1.5h81.788l-1.5 1.5V99.01c0-.811.688-1.5 1.5-1.5h37.152c.811 0 1.5.687 1.5 1.5v29.94l-1.5-1.5h98.202l-1.5 1.5V99.01c0-.811.687-1.5 1.5-1.5h37.152c.811 0 1.5.687 1.5 1.5v29.94l-1.5-1.5h81.789l-1.5 1.5V99.01c0-.811.687-1.5 1.5-1.5h37.151c.811 0 1.5.687 1.5 1.5v29.94l-1.5-1.5h81.789l-1.5 1.5V99.01c0-.811.687-1.5 1.5-1.5H0l-1.5 1.5V-1.5c0-1.93 3-1.934 3 0V99.01c0 .811-.687 1.5-1.5 1.5h-43.328l1.5-1.5v29.94c0 .811-.688 1.5-1.5 1.5h-81.789c-.811 0-1.5-.687-1.5-1.5V99.01l1.5 1.5h-37.151l1.5-1.5v29.94c0 .811-.688 1.5-1.5 1.5h-81.789c-.811 0-1.5-.687-1.5-1.5V99.01l1.5 1.5h-37.152l1.5-1.5v29.94c0 .811-.687 1.5-1.5 1.5h-98.202c-.811 0-1.5-.687-1.5-1.5V99.01l1.5 1.5h-37.152l1.5-1.5v29.94c0 .811-.687 1.5-1.5 1.5h-81.788c-.811 0-1.5-.687-1.5-1.5V99.01l1.5 1.5h-37.152l1.5-1.5v29.94c0 .811-.687 1.5-1.5 1.5h-81.788c-.811 0-1.5-.687-1.5-1.5V99.01l1.5 1.5h-43.329c-.81 0-1.5-.687-1.5-1.5V-1.5c0-.811.688-1.5 1.5-1.5h44.9l-1.5 1.5c-1.201-22.794-.86-45.675.65-68.446 2.252-33.938 7.19-67.723 14.877-100.857 9.407-40.551 23.008-80.153 41.006-117.704 20.669-43.124 47.227-83.377 78.996-119.137 37.313-42 81.623-77.459 130.042-105.86a591 591 0 0 1 17.262-9.744c1.243-.675 3.002-2.168 4.472-1.938 1.55.242 3.429 1.801 4.777 2.537a590 590 0 0 1 17.219 9.769 572 572 0 0 1 38.636 24.902c22.591 15.894 43.998 33.484 63.851 52.692 35.55 34.394 65.961 73.99 90.123 117.145 21.097 37.68 37.454 77.959 49.217 119.493 9.852 34.786 16.511 70.465 20.17 106.428 2.631 25.851 3.737 51.888 3.033 77.867A501 501 0 0 1-43.4-1.5L-44.9-3H0c1.93 0 1.934 3 0 3" clip-path="url(#b)" style="fill:#000;fill-opacity:1;fill-rule:nonzero;stroke:none" transform="matrix(1.33333 0 0 -1.33333 1160.413 448.12)"/><path d="M0 0a213 213 0 0 0-3.401-1.74C-4.537-1.18-5.674-.59-6.812 0c-288.042 149.08-260.025 482.24-260.025 482.24h526.863S288.053 149.08 0 0" clip-path="url(#c)" style="fill:#39c266;fill-opacity:1;fill-rule:nonzero;stroke:none" transform="matrix(1.33333 0 0 -1.33333 726.754 1098.814)"/><path d="M0 0a286 286 0 0 0-3.401-1.74h1.515c-27.2 13.564-53.149 30.047-77.142 48.693-21.607 16.791-41.689 35.534-59.888 55.971-16.917 18.998-32.177 39.443-45.677 61.001-12.563 20.061-23.599 41.068-33.13 62.731-8.819 20.045-16.328 40.663-22.623 61.634-5.709 19.022-10.416 38.344-14.163 57.847a608 608 0 0 0-7.578 51.045 592 592 0 0 0-2.912 41.296c-.333 9.563-.431 19.137-.203 28.703.068 2.901.167 5.8.311 8.698.07 1.433.41 3.072.267 4.501-.018.179.029.384.044.565l-1.5-1.5h518.931c2.304 0 4.742-.229 7.037 0 .292.029.601 0 .895 0l-1.5 1.5c.251-2.987.369-5.989.479-8.984.306-8.344.33-16.699.169-25.046-.246-12.769-.945-25.528-2.041-38.252a607 607 0 0 0-6.172-48.632c-3.178-18.893-7.24-37.638-12.224-56.137-5.553-20.61-12.249-40.916-20.154-60.745-8.586-21.54-18.627-42.509-30.125-62.648-12.326-21.59-26.335-42.231-41.983-61.553a448 448 0 0 0-55.591-57.334C69.489 42.512 45.467 25.625 20.136 11.008A512 512 0 0 0 0 0c-1.715-.889-.199-3.479 1.514-2.59 26.658 13.822 52.074 29.976 75.718 48.496 21.591 16.911 41.64 35.779 59.791 56.34 16.708 18.925 31.816 39.261 45.186 60.673 12.529 20.066 23.535 41.073 33.037 62.735 8.826 20.123 16.383 40.794 22.699 61.839 5.732 19.095 10.452 38.491 14.206 58.07a617 617 0 0 1 7.58 51.047 592 592 0 0 1 2.961 41.578c.34 9.601.442 19.213.218 28.818-.104 4.436-.112 8.955-.584 13.374-.02.187-.027.377-.043.565-.068.808-.632 1.5-1.5 1.5h-505.504c-6.818 0-13.647.117-20.465 0-.298-.005-.596 0-.894 0-.861 0-1.432-.69-1.5-1.5-.259-3.083-.379-6.182-.49-9.273-.307-8.601-.319-17.214-.136-25.818.28-13.141 1.036-26.271 2.211-39.362a618 618 0 0 1 6.535-49.868c3.337-19.328 7.603-38.498 12.838-57.401 5.828-21.047 12.859-41.765 21.158-61.967 8.963-21.818 19.377-43.04 31.326-63.381 12.794-21.78 27.336-42.532 43.509-61.938a448.5 448.5 0 0 1 57.85-57.759c22.916-19.046 47.684-35.822 73.758-50.236a508 508 0 0 1 9.805-5.28c1.791-.939 3.871-2.468 5.815-2.992 1.699-.458 3.436.97 4.915 1.74C3.227-1.699 1.712.891 0 0" clip-path="url(#d)" style="fill:#000;fill-opacity:1;fill-rule:nonzero;stroke:none" transform="matrix(1.33333 0 0 -1.33333 725.744 1097.087)"/><path d="M0 0h-528.35v53.873c0 22.216 18.009 40.226 40.225 40.226h447.899C-18.01 94.099 0 76.089 0 53.873Z" clip-path="url(#e)" style="fill:#eadb26;fill-opacity:1;fill-rule:nonzero;stroke:none" transform="matrix(1.33333 0 0 -1.33333 1074.447 490.623)"/><path d="M0 0h-520.386c-2.313 0-4.762.23-7.066 0-.293-.029-.603 0-.898 0l1.5-1.5v50.028c0 5.745.284 11.321 2.224 16.825 5.475 15.53 20.483 25.664 36.798 25.746 2.732.014 5.464 0 8.196 0h423.273c11.391 0 23.408 1.134 33.862-4.285C-13.4 82.099-6.342 73.817-3.281 64.021-1.657 58.822-1.5 53.601-1.5 48.235V-1.5c0-1.93 3-1.934 3 0v50.587c0 5.817-.374 11.509-2.332 17.063-5.885 16.693-21.857 27.824-39.485 27.949-2.441.017-4.884 0-7.325 0H-485.94c-8.646 0-17.009-1.723-24.423-6.415-8.236-5.212-14.493-13.255-17.491-22.532-1.759-5.443-1.996-10.976-1.996-16.624V-1.5c0-.811.687-1.5 1.5-1.5h506.903c6.846 0 13.703-.118 20.549 0 .299.005.599 0 .898 0 1.93 0 1.934 3 0 3" clip-path="url(#f)" style="fill:#000;fill-opacity:1;fill-rule:nonzero;stroke:none" transform="matrix(1.33333 0 0 -1.33333 1074.447 488.623)"/><path d="m0 0 12.801-39.396h41.423L20.712-63.744l12.8-39.397L0-78.792l-33.512-24.349 12.8 39.397-33.512 24.348h41.423z" clip-path="url(#g)" style="fill:#eadb26;fill-opacity:1;fill-rule:nonzero;stroke:none" transform="matrix(1.33333 0 0 -1.33333 472.213 511.061)"/><path d="m0 0 11.203-34.479 1.598-4.917c.205-.632.765-1.101 1.446-1.101h41.424l-.757 2.795-29.33-21.309-4.183-3.039c-.524-.381-.907-1.023-.689-1.694l11.203-34.479 1.597-4.918 2.204 1.694-29.33 21.309-4.183 3.039c-.391.285-1.122.285-1.514 0L-28.64-98.408l-4.183-3.039 2.203-1.694 11.203 34.479 1.598 4.918c.221.678-.163 1.311-.689 1.694l-29.33 21.309-4.183 3.039-.757-2.795h41.424c.684 0 1.241.469 1.446 1.101L1.295-4.917 2.893 0C3.491 1.84.595 2.629 0 .797l-11.203-34.479-1.598-4.917 1.447 1.102h-41.424c-1.593 0-1.901-1.964-.757-2.796l29.33-21.309 4.183-3.039-.69 1.694-11.203-34.479-1.597-4.917c-.383-1.178 1.136-2.47 2.203-1.694l29.33 21.309 4.182 3.039H.689l29.33-21.309 4.183-3.039c1.063-.773 2.589.508 2.203 1.694L25.202-67.864l-1.597 4.917-.69-1.694 29.33 21.309 4.183 3.039c1.143.831.838 2.796-.757 2.796H14.247l1.446-1.102L4.491-4.12 2.893.797C2.299 2.626-.599 1.844 0 0" clip-path="url(#h)" style="fill:#000;fill-opacity:1;fill-rule:nonzero;stroke:none" transform="matrix(1.33333 0 0 -1.33333 470.284 511.593)"/><path d="m0 0 12.801-39.396h41.423L20.712-63.744l12.8-39.397L0-78.792l-33.512-24.349 12.8 39.397-33.512 24.348h41.423z" clip-path="url(#i)" style="fill:#eadb26;fill-opacity:1;fill-rule:nonzero;stroke:none" transform="matrix(1.33333 0 0 -1.33333 969.662 511.061)"/><path d="m0 0 11.203-34.479 1.598-4.917c.205-.632.765-1.101 1.446-1.101h41.424l-.757 2.795-29.33-21.309-4.183-3.039c-.524-.381-.907-1.023-.689-1.694l11.203-34.479 1.597-4.918 2.204 1.694-29.33 21.309-4.183 3.039c-.391.285-1.122.285-1.514 0L-28.64-98.408l-4.183-3.039 2.203-1.694 11.203 34.479 1.598 4.918c.221.678-.163 1.311-.689 1.694l-29.33 21.309-4.183 3.039-.757-2.795h41.424c.684 0 1.241.469 1.446 1.101L1.295-4.917 2.893 0C3.491 1.84.595 2.629 0 .797l-11.203-34.479-1.598-4.917 1.447 1.102h-41.424c-1.593 0-1.901-1.964-.757-2.796l29.33-21.309 4.183-3.039-.69 1.694-11.203-34.479-1.597-4.917c-.383-1.178 1.136-2.47 2.203-1.694l29.33 21.309 4.182 3.039H.689l29.33-21.309 4.183-3.039c1.063-.773 2.589.508 2.203 1.694L25.202-67.864l-1.597 4.917-.69-1.694 29.33 21.309 4.183 3.039c1.143.831.838 2.796-.757 2.796H14.247l1.446-1.102L4.491-4.12 2.893.797C2.299 2.626-.599 1.844 0 0" clip-path="url(#j)" style="fill:#000;fill-opacity:1;fill-rule:nonzero;stroke:none" transform="matrix(1.33333 0 0 -1.33333 967.734 511.593)"/><path d="M2.812 1.404c-.5-1.155-.887-2.608-1.16-4.37A44 44 0 0 1 1.16-8.47a41 41 0 0 1 .2-5.502q.29-2.654.878-4.384 1.231-.492 2.426-1.691c.803-.807 1.48-2.1 2.027-3.89q.831-2.692.832-7.57 0-5.291-.949-7.974-.95-2.692-2.238-3.642c-.853-.63-1.611-.95-2.274-.95Q1.324-45.564.984-48.13a38 38 0 0 1-.28-5.49q.042-2.937.456-5.71.409-2.77 1.242-4.76 1.406.093 4.418.22 3.024.12 7.067.248 4.05.119 8.472.208a1022 1022 0 0 0 16.5.156q8.764.001 18.07-.247 9.305-.244 19.887-.664.41 1.575.739 5.125.337 3.553.504 8.065.163 4.503.164 9.054 0 4.556-.246 8.195-.248 3.632-.75 5.28-5.791.99-11.625.99-5.828 0-13.676-.99a53.7 53.7 0 0 1 0-12.565h-9.832v3.395h8.015v13.802h-8.015c0 1.43.521 2.452 1.57 3.056q1.568.912 6.691.755.572 1.483.868 4.292.291 2.81.293 6.127-.002 3.308-.293 6.283c-.197 1.987-.513 3.554-.95 4.709q-1.572-.249-5.168-.547-3.6-.288-7.863-.533a137 137 0 0 0-7.969-.247q-3.06 0-6.738.117-3.681.128-7.406.338a321 321 0 0 0-6.95.455q-3.223.245-5.367.417m82.363 0c-.501-1.155-.888-2.608-1.16-4.37a44 44 0 0 1-.493-5.503 41 41 0 0 1 .2-5.502q.29-2.654.867-4.384 1.24-.492 2.52-1.691c.858-.807 1.56-2.1 2.109-3.89q.83-2.692.832-7.57-.002-5.291-.996-7.974-.986-2.692-2.274-3.642c-.852-.63-1.582-.95-2.191-.95q-.738-1.492-1.16-4.058-.412-2.561-.375-5.49.045-2.937.504-5.71.456-2.77 1.37-4.76 2.47.17 6.364.507 3.89.327 8.227.533 4.345.209 8.062.208 4.135.001 8.52-.208 4.38-.206 8.261-.533a373 373 0 0 1 6.375-.508q.817 1.99 1.23 4.761.423 2.772.423 5.75-.001 2.98-.34 5.541-.329 2.564-1.067 4.045c-.829 0-1.658.32-2.484.95q-1.244.95-2.074 3.603-.821 2.644-.82 7.935-.001 4.878.867 7.57c.577 1.79 1.28 3.083 2.109 3.89q1.24 1.199 2.484 1.69.656 1.731.903 4.385.254 2.643.176 5.502a43 43 0 0 1-.504 5.502c-.276 1.763-.657 3.216-1.149 4.37a285 285 0 0 0-6.375-.546q-3.88-.287-8.262-.533a151 151 0 0 0-8.519-.247q-3.81-.001-7.98.247c-2.784.163-5.426.342-7.934.533q-3.762.298-6.246.547m89.716.585q-19.514.002-29.438-8.065-9.915-8.062-9.914-25.183 0-11.238 4.008-18.887 4.006-7.659 11.45-11.63 7.439-3.966 17.694-3.967 6.442 0 11.04 1.288 4.59 1.277 7.113 4.384 2.518 3.097 2.765 8.637 1.24-2.731.914-5.906-.33-3.186-.668-6.503 2.975 0 6.692-.117 3.725-.13 7.652-.248c2.625-.084 5.092-.156 7.406-.208q3.467-.078 5.954-.078.584 2.473.914 6.322c.216 2.56.34 5.275.363 8.143a120 120 0 0 1-.2 8.403q-.246 4.087-.831 7.141-2.065.342-5.742.507-3.683.157-8.274.196a564 564 0 0 1-9.387 0 330 330 0 0 1-9.14-.196q-4.339-.166-7.477-.507v-4.383h-4.055v16.949h4.887v-2.966h-2.812c-.276-1.327-.41-2.553-.41-3.681q-.001-1.703.574-4.02c2.256.228 5.11.465 8.554.716q5.168.365 12.692.364 3.314 0 7.277-.117 3.973-.128 7.77-.338 3.806-.206 6.457-.456.817 1.656 1.23 4.514.422 2.85.457 6.114.045 3.267-.281 6.074-.33 2.812-1.078 4.306-1.408.078-2.438 1.99c-.688 1.269-1.227 2.849-1.617 4.748q-.575 2.851-.574 5.906A100 100 0 0 0 200.93.818c-4.518.173-8.953.41-13.313.716q-6.53.454-12.726.455m51.688-.585c-.445-1.155-.806-2.608-1.078-4.37a40 40 0 0 1-.457-5.503q-.036-2.859.164-5.502.21-2.654.785-4.384 1.322-.492 2.567-1.691c.826-.807 1.514-2.1 2.062-3.89q.831-2.692.832-7.57 0-5.291-.95-7.974-.949-2.692-2.237-3.642c-.853-.63-1.612-.95-2.274-.95q-.739-1.492-1.078-4.058a38 38 0 0 1-.281-5.49q.044-2.937.457-5.71.407-2.77 1.242-4.76 2.308.17 5.941.468 3.644.288 7.735.494 4.1.195 7.734.195 7.031.001 11.824-.403 4.793-.414 8.274-.755.492 1.825.738 4.722.246 2.888.328 6.036.093 3.136-.035 5.996-.132 2.85-.457 4.748h-1.98v3.812h6.609v-3.812h-2.063q-.247-1.898-.328-4.748a108 108 0 0 1 0-5.996q.08-3.147.328-6.036.246-2.897.575-4.722 3.397.34 8.566.755 5.168.404 12.691.403 3.305 0 7.23-.195 3.925-.206 7.56-.494 3.642-.298 5.882-.469.817 1.99 1.23 4.761.422 2.773.458 5.71.045 2.929-.293 5.49-.329 2.565-1.067 4.058c-.665 0-1.426.32-2.285.95q-1.277.95-2.226 3.642-.95 2.683-.95 7.974 0 4.878.82 7.57c.555 1.79 1.246 3.083 2.075 3.89q1.24 1.199 2.566 1.69.573 1.731.786 4.385.209 2.643.164 5.502a41 41 0 0 1-.457 5.502c-.276 1.763-.633 3.216-1.078 4.37q-3.389-.325-8.227-.832-4.83-.495-12.188-.494-6.622-.001-12.246.494-5.616.506-9.011.833-.329-1.731-.575-4.501a93 93 0 0 1-.328-5.788q-.083-3.017 0-5.789.08-2.77.328-4.514h2.063v-4.214h-6.61v4.214h1.981q.326 1.745.457 4.514.128 2.772.035 5.789a95 95 0 0 1-.328 5.788q-.246 2.77-.738 4.5A451 451 0 0 1 263 .858q-2.522-.287-6.164-.533-3.635-.248-9.176-.247-6.692-.001-12.07.455-5.38.453-9.012.872m112.456 0c-.44-1.155-.797-2.608-1.078-4.37a40 40 0 0 1-.457-5.503q-.036-2.859.164-5.502.209-2.654.797-4.384 2.647-.662 4.055-3.681 1.406-3.015 1.406-10.303v-5.944h-2.649q.739 6.284-.246 12.396-3.235.666-6.129.872-2.881.21-6.117 0-3.225-.207-7.523-.872-.492-2.887-.738-7.14a157 157 0 0 1-.247-9.015q-.002-4.76.165-9.223.162-4.472.492-7.896.326-3.433.75-5.008 4.873 0 14.707.625 9.842.613 25.054.611 10.335.001 17.696-.325 7.356-.337 12.445-.624 5.084-.286 8.402-.287.41 1.825.739 5.425.324 3.59.492 8.103.163 4.503.164 9.171 0 4.672-.246 8.767-.246 4.086-.738 6.816-4.304.665-7.442.872a44 44 0 0 1-6.082 0q-2.93-.207-6.656-.872-.998-6.034-.246-12.318h-2.649v5.866q-.002 4.88.868 7.78c.577 1.924 1.335 3.362 2.273 4.305q1.405 1.405 3.14 1.899.584 1.73.786 4.384.209 2.643.164 5.502a39 39 0 0 1-.446 5.502c-.275 1.763-.632 3.216-1.078 4.37q-3.635-.418-9.14-.87-5.498-.457-12.856-.456-7.69-.001-13.02.455-5.333.453-8.976.872m0 0" aria-label="FIGHT" style="fill:#fff;fill-opacity:1;fill-rule:nonzero;stroke:none" transform="matrix(1.33333 0 0 1.2012 461.895 466.173)"/><path d="M0 0q3.226.223 6.946.409 3.722.187 7.401.298 3.679.112 6.74.112 3.72 0 7.979-.223 4.259-.224 7.856-.485 3.596-.26 5.169-.484.66 1.565.95 4.246t.29 5.662-.29 5.513-.868 3.874q-5.129-.15-6.698.671-1.572.818-1.572 2.756h8.022V34.79h-8.022v3.055h9.841a43.3 43.3 0 0 1 0-11.324q7.855-.894 13.686-.894 5.828 0 11.618.894.496 1.49.744 4.767.249 3.279.248 7.376 0 4.096-.165 8.157a119 119 0 0 1-.496 7.264q-.332 3.203-.744 4.618-10.586-.372-19.888-.596a758 758 0 0 0-25.842-.186q-4.3.037-8.723.112a760 760 0 0 0-8.476.187q-4.053.111-7.07.222-3.02.113-4.424.187-.828-1.787-1.241-4.283a34.5 34.5 0 0 1-.454-5.141 31 31 0 0 1 .289-4.954q.33-2.31 1.075-3.65.992-.001 2.274-.857 1.28-.857 2.233-3.278.95-2.422.951-7.189-.001-4.397-.827-6.816-.828-2.422-2.027-3.502-1.198-1.08-2.439-1.527-.58-1.565-.868-3.949a32 32 0 0 1-.207-4.954 35 35 0 0 1 .497-4.954q.412-2.384 1.157-3.948z" clip-path="url(#k)" style="fill:none;stroke:#000;stroke-width:3;stroke-linecap:butt;stroke-linejoin:miter;stroke-miterlimit:10;stroke-dasharray:none;stroke-opacity:1" transform="matrix(1.33333 0 0 -1.33333 472.81 467.365)"/><path d="M0 0q3.763.262 7.938.484a150 150 0 0 0 7.981.224q4.134 0 8.517-.224A506 506 0 0 0 32.705 0q3.887-.26 6.367-.484.744 1.564 1.158 3.948t.497 4.954q.081 2.57-.166 4.954-.248 2.384-.91 3.948-1.24.447-2.48 1.528-1.24 1.078-2.109 3.502-.869 2.419-.869 6.816 0 4.767.828 7.151.826 2.383 2.067 3.242 1.24.855 2.48.856.744 1.34 1.076 3.65.33 2.31.331 4.992 0 2.68-.414 5.177-.415 2.495-1.241 4.284-2.48-.15-6.367-.448t-8.269-.483a199 199 0 0 0-8.517-.187q-3.722 0-8.063.187-4.341.185-8.228.483t-6.367.448q-.911-1.789-1.364-4.284a31.3 31.3 0 0 1-.497-5.14q-.042-2.646.373-4.954.413-2.31 1.158-3.651.908 0 2.191-.856 1.281-.857 2.274-3.279.992-2.421.992-7.188-.001-4.397-.827-6.816-.827-2.424-2.109-3.502-1.282-1.08-2.521-1.528-.58-1.564-.869-3.948a32 32 0 0 1-.206-4.954A35 35 0 0 1-7.4 3.464q.413-2.384 1.157-3.948Q-3.763-.261 0 0Z" clip-path="url(#l)" style="fill:none;stroke:#000;stroke-width:3;stroke-linecap:butt;stroke-linejoin:miter;stroke-miterlimit:10;stroke-dasharray:none;stroke-opacity:1" transform="matrix(1.33333 0 0 -1.33333 583.781 467.216)"/><path d="M0 0q6.532.41 13.313.633 6.78.224 13.479-.372 0 2.756.579 5.326.578 2.57 1.612 4.284t2.44 1.787q.744 1.342 1.075 3.874t.29 5.476a38.4 38.4 0 0 1-.455 5.513q-.415 2.57-1.24 4.06a187 187 0 0 0-6.45-.41 372 372 0 0 0-7.774-.298 262 262 0 0 0-7.276-.111q-7.527 0-12.694.335t-8.558.632q-.58-2.086-.579-3.612-.001-1.528.413-3.315h2.811V21.12h-4.879v15.272h4.053v-3.949q3.141-.298 7.484-.447 4.34-.15 9.137-.185 4.795-.04 9.385 0 4.59.035 8.27.185 3.678.15 5.747.447.578 2.756.827 6.445.247 3.687.207 7.561a88 88 0 0 1-.372 7.338q-.334 3.465-.91 5.699-2.481 0-5.955-.075-3.474-.074-7.4-.185-3.928-.114-7.649-.224a224 224 0 0 0-6.699-.112q.33-2.981.663-5.848.33-2.868-.911-5.326-.248 4.99-2.769 7.784-2.523 2.793-7.111 3.948-4.591 1.155-11.041 1.156-10.253 0-17.696-3.577-7.442-3.576-11.452-10.466-4.012-6.892-4.011-17.023 0-15.421 9.923-22.684T-12.734-.41Q-6.533-.409 0 0Z" clip-path="url(#m)" style="fill:none;stroke:#000;stroke-width:3;stroke-linecap:butt;stroke-linejoin:miter;stroke-miterlimit:10;stroke-dasharray:none;stroke-opacity:1" transform="matrix(1.33333 0 0 -1.33333 712.065 468.01)"/><path d="M0 0q5.375.41 12.073.41 5.54 0 9.179-.223 3.638-.224 6.161-.485 2.521-.26 4.837-.484.496 1.564.744 4.06.249 2.495.331 5.215t-.041 5.215q-.125 2.495-.455 4.06h-1.984v3.799h6.615v-3.799h-2.067q-.249-1.565-.331-4.06a82 82 0 0 1 0-5.215q.082-2.72.331-5.215.247-2.496.579-4.06 3.388.298 9.013.745Q50.607.41 57.224.41q7.358 0 12.197-.447 4.837-.447 8.227-.745.661 1.564 1.076 3.948.412 2.384.454 4.954a49 49 0 0 1-.165 4.954q-.208 2.383-.785 3.948-1.325.447-2.564 1.528-1.242 1.08-2.067 3.502-.828 2.42-.827 6.816 0 4.767.951 7.189.95 2.42 2.232 3.278 1.281.855 2.275.856.743 1.342 1.074 3.651.33 2.308.29 4.954a35 35 0 0 1-.455 5.141q-.415 2.495-1.241 4.283-2.233-.15-5.871-.409a303 303 0 0 0-7.566-.448 153 153 0 0 0-7.235-.186q-7.527 0-12.694.373-5.17.372-8.558.67-.331-1.64-.579-4.246a83 83 0 0 1-.331-5.439 88 88 0 0 1 0-5.401q.082-2.57.331-4.283h2.067v-3.427h-6.615v3.427h1.984q.33 1.713.455 4.283.124 2.57.041 5.401a83 83 0 0 1-.331 5.439q-.247 2.607-.744 4.246-3.473-.298-8.269-.67t-11.825-.373q-3.64 0-7.731.186-4.094.185-7.733.448-3.639.258-5.953.409-.828-1.788-1.241-4.283a35 35 0 0 1-.454-5.141 31.4 31.4 0 0 1 .289-4.954q.33-2.31 1.075-3.651.991 0 2.275-.856 1.28-.858 2.232-3.278.95-2.422.951-7.189-.001-4.397-.827-6.816-.827-2.422-2.067-3.502-1.242-1.08-2.564-1.528-.58-1.564-.786-3.948a48 48 0 0 1-.165-4.954q.04-2.57.455-4.954.412-2.384 1.075-3.948Q-5.376-.408 0 0Z" clip-path="url(#n)" style="fill:none;stroke:#000;stroke-width:3;stroke-linecap:butt;stroke-linejoin:miter;stroke-miterlimit:10;stroke-dasharray:none;stroke-opacity:1" transform="matrix(1.33333 0 0 -1.33333 776.014 466.82)"/><path d="M0 0q5.333.41 13.023.41 7.36 0 12.86-.41 5.498-.408 9.137-.782.66 1.564 1.075 3.948.412 2.384.455 4.954a49 49 0 0 1-.165 4.954q-.21 2.383-.786 3.948-1.736.448-3.143 1.714-1.405 1.266-2.273 3.874t-.869 7.003v5.289h2.646q-.744-5.663.248-11.1 3.72-.597 6.657-.782a50 50 0 0 1 6.078 0q3.142.185 7.443.782.495 2.458.744 6.146.248 3.687.248 7.897 0 4.207-.166 8.269-.166 4.06-.496 7.301-.331 3.24-.744 4.879-3.308 0-8.393-.261-5.087-.261-12.445-.558-7.36-.298-17.696-.298-15.217 0-25.056.558-9.843.56-14.72.559-.414-1.415-.744-4.507-.331-3.092-.496-7.114a201 201 0 0 1-.165-8.307q0-4.284.248-8.12.248-3.838.744-6.444 4.299-.597 7.524-.782a50 50 0 0 1 6.121 0q2.892.185 6.119.782.992 5.512.248 11.175h2.645v-5.364q0-6.557-1.405-9.275-1.406-2.72-4.052-3.316-.58-1.564-.786-3.948a48 48 0 0 1-.165-4.954q.04-2.57.455-4.954.412-2.384 1.074-3.948Q-5.334-.408 0 0Z" clip-path="url(#o)" style="fill:none;stroke:#000;stroke-width:3;stroke-linecap:butt;stroke-linejoin:miter;stroke-miterlimit:10;stroke-dasharray:none;stroke-opacity:1" transform="matrix(1.33333 0 0 -1.33333 925.909 466.82)"/><path d="M0 0s116.118 74.316 39.48 167.21c0 0 97.353 147.6-81.653 195.315-29.264 7.8-60.097 8.334-89.319.377-46.262-12.596-100.048-48.686-79.843-150.406 0 0-2.323-105.667 13.934-195.078l59.22-29.03z" clip-path="url(#p)" style="fill:#ff571e;fill-opacity:1;fill-rule:nonzero;stroke:none" transform="matrix(1.33333 0 0 -1.33333 829.338 1063.369)"/><path d="M0 0c3.967 2.541 7.722 5.46 11.391 8.405 8.645 6.936 16.733 14.601 24.027 22.949 9.211 10.542 17.257 22.255 22.851 35.125 6.132 14.109 9.193 29.498 7.759 44.884-1.762 18.898-9.898 36.476-21.095 51.616a165 165 0 0 1-5.149 6.587l.234-1.818c1.845 2.8 3.484 5.749 5.077 8.696a198 198 0 0 1 10.667 23.243c4.049 10.544 7.194 21.465 9.042 32.615 2.083 12.568 2.518 25.393.588 38.01-2.08 13.603-7.085 26.702-14.768 38.129-9.439 14.038-22.469 25.254-36.873 33.97-9.136 5.528-18.837 10.087-28.782 13.958-12.467 4.852-25.422 8.838-38.541 11.479-28.43 5.723-58.216 4.644-85.894-4.221-14.522-4.652-28.407-11.448-40.371-20.969-13.398-10.662-23.679-24.676-29.956-40.598-8.251-20.924-9.43-44.043-7.158-66.217.725-7.069 1.71-14.169 3.153-21.13.2-.964.189-1.755.174-2.742a857 857 0 0 1-.082-14.159c.031-20.078.55-40.158 1.511-60.212 1.336-27.841 3.521-55.663 7.074-83.313.921-7.17 1.932-14.33 3.059-21.471q.847-5.378 1.786-10.741c.258-1.473.156-3.849 1.519-4.735 1.192-.774 2.649-1.299 3.923-1.923l7.875-3.86 41.212-20.202 5.226-2.562c.612-.3 1.132-.576 1.824-.589 2.592-.049 5.309.446 7.889.663l38.94 3.272 49.647 4.172L-6.136-.657l5.379.452c1.91.161 1.927 3.162 0 3L-28.5.464l-56.885-4.78-46.513-3.909-5.377-.452c-.417-.035-.922-.001-1.326-.111-.705-.192.205.122.358-.203-.119.252-1.182.58-1.42.696l-3.061 1.501-9.827 4.817-43.889 21.514-.961.471.689-.896c-7.02 38.732-10.511 78.084-12.429 117.373-1.189 24.37-1.787 48.794-1.513 73.194.015 1.35.147 2.748.061 4.097-.105 1.649-.629 3.374-.922 5.003a244 244 0 0 0-1.35 8.283 209 209 0 0 0-1.561 14.098c-1.215 15.949-.53 32.181 3.505 47.713 6.079 23.396 20.166 43.453 40.325 56.823 23.578 15.638 52.87 22.592 80.879 22.725 21.143.1 41.792-4.037 61.816-10.622 14.553-4.786 28.756-10.875 41.782-18.988 18.707-11.652 34.788-27.925 43.042-48.635 6.673-16.743 7.98-35.053 5.627-52.816-2.006-15.153-6.53-29.996-12.585-44.006-3.422-7.919-7.301-15.711-11.868-23.038-.22-.353-.44-.706-.669-1.053-.392-.596-.177-1.318.234-1.818 12.225-14.876 21.839-32.26 24.801-51.477 2.318-15.041.13-30.387-5.364-44.515-5.013-12.892-12.652-24.718-21.507-35.295-7.243-8.651-15.353-16.581-24.042-23.773C7.399 8.948 3.005 5.924-1.312 2.722c-.064-.048-.135-.089-.202-.132C-3.135 1.552-1.632-1.046 0 0" clip-path="url(#q)" style="fill:#000;fill-opacity:1;fill-rule:nonzero;stroke:none" transform="matrix(1.33333 0 0 -1.33333 830.347 1065.095)"/><path d="M0 0c-1.968 2.24-4.087 4.358-6.216 6.442A190 190 0 0 1-23 21.036c-7.526 5.808-15.515 11.064-24.041 15.29-8.975 4.449-18.555 7.772-28.54 8.919-10.203 1.172-20.507-.294-29.875-4.541-9.081-4.117-16.907-10.73-22.446-19.022-5.235-7.836-8.281-17.026-9.045-26.402-.77-9.451.898-19.029 4.755-27.685 4.112-9.228 10.819-17.104 19.074-22.893 10.227-7.171 21.743-12.443 33.441-16.714a231 231 0 0 1 10.869-3.65c1.848-.572 2.639 2.323.798 2.893-12.788 3.961-25.372 8.894-36.904 15.754-8.608 5.12-16.21 11.378-21.479 20.013-9.522 15.603-10.302 35.819-1.917 52.08 9.02 17.493 27.668 28.048 47.245 27.554 19.05-.481 36.966-9.922 52.089-20.85 9.528-6.885 18.577-14.751 26.475-23.479l.38-.424C-.844-3.574 1.271-1.446 0 0" clip-path="url(#r)" style="fill:#000;fill-opacity:1;fill-rule:nonzero;stroke:none" transform="matrix(1.33333 0 0 -1.33333 883.392 839.007)"/><path d="M0 0c.718-2.398 1.782-4.725 2.862-6.975 2.71-5.646 6.126-10.932 10.014-15.837 5.567-7.024 12.224-13.152 19.618-18.212 9.593-6.564 20.436-11.218 31.679-14.1 15.036-3.854 30.753-4.634 46.191-3.5q3.412.254 6.814.625c1.899.205 1.92 3.208 0 3-15.744-1.705-31.819-1.639-47.362 1.638-11.508 2.426-22.631 6.608-32.624 12.846A87.4 87.4 0 0 0 16.825-22.92 83 83 0 0 0 6.232-7.035a73 73 0 0 0-1.45 3.012q-.288.641-.566 1.288c-.15.349.097-.234.004-.01l-.125.301-.219.537c-.342.855-.634 1.724-.947 2.588q-.02.058-.036.117C2.34 2.642-.556 1.857 0 0" clip-path="url(#s)" style="fill:#000;fill-opacity:1;fill-rule:nonzero;stroke:none" transform="matrix(1.33333 0 0 -1.33333 545.629 780.572)"/><path d="M0 0s-16.257 3.484-17.418-33.674L-18.6-59.678c-.621-13.668 10.292-25.088 23.975-25.088h49.201S46.447-47.609 59.22-29.03C59.22-29.03 26.707 2.322 0 0" clip-path="url(#t)" style="fill:#eadb26;fill-opacity:1;fill-rule:nonzero;stroke:none" transform="matrix(1.33333 0 0 -1.33333 566.136 1040.145)"/><path d="M0 0c-5.717 1.207-10.927-3.593-13.533-8.117-3.965-6.88-5.087-15.269-5.595-23.056-.333-5.104-.474-10.229-.706-15.338-.221-4.854-.469-9.708-.662-14.563-.346-8.671 3.731-16.943 10.787-21.982C-4.8-86.561.862-87.713 6.774-87.713h47.403c1.016 0 1.652.955 1.446 1.899-.949 4.352-1.516 8.81-1.932 13.24-.85 9.045-.979 18.374.868 27.309 1.026 4.965 2.691 9.815 5.558 14.032.365.537.22 1.38-.235 1.818-4.003 3.855-8.399 7.351-12.849 10.67C38.161-12.128 28.487-6.2 17.959-2.63 12.087-.638 5.817.565-.399.054c-1.91-.158-1.927-3.159 0-3 10.951.9 21.737-3.504 31.124-8.73 8.145-4.533 15.764-10.038 22.838-16.099 1.425-1.222 2.845-2.459 4.198-3.762l-.235 1.818c-5.382-7.917-6.952-17.964-7.321-27.34-.324-8.207.347-16.456 1.624-24.562.263-1.668.541-3.34.901-4.991l1.447 1.899H10.383c-3.702 0-7.481-.222-11.095.724-8.307 2.176-14.737 9.064-16.407 17.476-.913 4.6-.183 9.707.028 14.352l.736 16.192c.334 7.342.838 14.761 3.322 21.745.855 2.406 2.051 4.886 3.576 6.843 1.11 1.424 2.274 2.495 3.732 3.329.302.172.612.327.926.475.394.185-.194-.063.206.087q.226.087.455.165a11.5 11.5 0 0 0 1.655.408c.363.066-.265-.026-.035-.004.114.011.227.028.341.034.202.01.403.025.606.027.289.003.574-.033.862-.041.227-.006-.492.093-.089.008C1.086-3.29 1.891-.399 0 0" clip-path="url(#u)" style="fill:#000;fill-opacity:1;fill-rule:nonzero;stroke:none" transform="matrix(1.33333 0 0 -1.33333 566.668 1038.216)"/><path d="M0 0s-35.152 2.85-25.536-50.745c1.964-10.945 11.567-18.871 22.687-18.782l115.862.927c7.839.063 14.908 4.641 18.249 11.732 6.639 14.088 12.52 38.888-10.499 62.674z" clip-path="url(#v)" style="fill:#eadb26;fill-opacity:1;fill-rule:nonzero;stroke:none" transform="matrix(1.33333 0 0 -1.33333 668.32 1071.11)"/><path d="M0 0c-2.223.177-4.564-.168-6.725-.643-4.831-1.063-9.368-3.464-12.855-6.989-5.437-5.497-7.877-13.093-8.742-20.621-.663-5.779-.409-11.644.29-17.408.412-3.4.781-6.942 1.873-10.203a24.7 24.7 0 0 1 4.402-7.896c3.925-4.758 9.662-7.809 15.761-8.576 1.504-.189 2.999-.192 4.507-.18l12.719.102 21.996.176 26.222.21 25.396.203 19.517.156c2.863.023 5.726.028 8.588.069 5.346.075 10.467 2.034 14.464 5.593 4.065 3.618 6.201 8.706 7.957 13.74 3.646 10.454 4.48 21.881 1.464 32.602-1.878 6.674-5.154 12.905-9.338 18.416a72 72 0 0 1-3.873 4.69c-.752.834-1.658 2.277-2.877 2.364-.217.016-.45-.022-.666-.032l-10.902-.524-20.615-.991-25.687-1.235-26.121-1.256L1.77.085zc-1.922-.092-1.933-3.093 0-3l12.053.579 28.81 1.386L75.701.639l30.222 1.453 9.947.479c1.503.072 3.204-.065 4.686.225.065.013.14.007.207.01l-1.061.439c6.591-6.853 11.886-14.974 14.379-24.217 1.914-7.097 2.095-14.585.734-21.8a61 61 0 0 0-2.556-9.313c-1.054-2.927-2.233-5.946-4.017-8.511-3.521-5.061-9.371-7.943-15.483-8.006-4.953-.05-9.907-.079-14.86-.119l-30.051-.24-34.037-.272-27.228-.218c-4.912-.039-10.427-.628-15.211.666-7.575 2.05-13.515 8.252-15.251 15.901-1.746 7.699-2.316 16.083-1.517 23.943.52 5.112 1.832 10.268 4.485 14.707 1.879 3.143 4.446 5.811 7.445 7.674 2.528 1.57 4.755 2.436 7.745 3.069.549.116 1.102.211 1.657.297.193.03.377.05.052.009q.195.025.391.048.366.04.733.074a22 22 0 0 0 2.121.089C-.512-2.976-.255-2.98 0-3c1.925-.154 1.915 2.847 0 3" clip-path="url(#w)" style="fill:#000;fill-opacity:1;fill-rule:nonzero;stroke:none" transform="matrix(1.33333 0 0 -1.33333 668.32 1069.11)"/><path d="M0 0h-116.556a8.555 8.555 0 0 0-8.555 8.554v1.47a8.555 8.555 0 0 0 8.555 8.555H0a8.555 8.555 0 0 0 8.554-8.555v-1.47A8.554 8.554 0 0 0 0 0" clip-path="url(#x)" style="fill:#eadb26;fill-opacity:1;fill-rule:nonzero;stroke:none" transform="matrix(1.33333 0 0 -1.33333 849.069 1131.491)"/><path d="M0 0h-111.102c-1.762 0-3.524-.012-5.285 0-2.462.017-4.76 1.141-6.096 3.252-1.835 2.898-1.556 7.607.846 10.099 2.086 2.166 4.64 2.173 7.349 2.173H-.798c.694 0 1.389.018 2.075-.111a7.08 7.08 0 0 0 4.736-3.277c.929-1.542 1.027-3.176 1.014-4.924C6.998 3.25 4.001.079 0 0c-1.963-.039-1.97-3.094 0-3.055C4.52-2.966 8.591.02 9.749 4.454c.983 3.765.231 8.215-2.508 11.058-2.547 2.643-5.805 3.067-9.215 3.067h-96.183c-6.048 0-12.098.032-18.146 0-2.393-.013-4.654-.716-6.539-2.214-3.218-2.556-4.2-6.625-3.708-10.563.557-4.468 4.093-8.116 8.566-8.742.766-.107 1.507-.115 2.273-.115H0C1.966-3.055 1.969 0 0 0" clip-path="url(#y)" style="fill:#000;fill-opacity:1;fill-rule:nonzero;stroke:none" transform="matrix(1.33333 0 0 -1.33333 849.069 1129.455)"/><path d="M0 0c0-10.261-8.318-18.579-18.579-18.579S-37.158-10.261-37.158 0s8.318 18.579 18.579 18.579S0 10.261 0 0" clip-path="url(#z)" style="fill:#fff;fill-opacity:1;fill-rule:nonzero;stroke:none" transform="matrix(1.33333 0 0 -1.33333 703.93 1119.105)"/><path d="M0 0c-.065-7.052-4.468-13.614-11.167-16.033-6.799-2.455-14.442-.378-19.084 5.151-4.604 5.485-5.137 13.583-1.464 19.689 3.665 6.093 10.995 9.372 17.982 7.948C-5.785 15.135-.074 8.079 0 0c.018-1.929 3.018-1.934 3 0-.077 8.403-5.326 15.94-13.215 18.869-7.85 2.914-17.089.377-22.364-6.116-5.289-6.51-6.074-15.847-1.726-23.074 4.357-7.244 12.93-10.974 21.204-9.359C-3.783-17.862 2.914-9.399 3 0 3.018 1.931.018 1.933 0 0" clip-path="url(#A)" style="fill:#000;fill-opacity:1;fill-rule:nonzero;stroke:none" transform="matrix(1.33333 0 0 -1.33333 701.93 1119.105)"/><path d="M0 0c.929-.993 1.491-2.275 1.582-3.902.432-7.68-11.601-8.587-17.49-9.717-14.318-2.748-28.05-10.463-37.353-20.985-4.486-5.074-14.197-16.984-21.979-10.72-3.998 3.218-1.368 8.885 1.279 12.814 8.141 12.085 21.079 22.535 35.34 28.887C-31.564-.481-6.576 7.026 0 0" clip-path="url(#B)" style="fill:#fff;fill-opacity:1;fill-rule:nonzero;stroke:none" transform="matrix(1.33333 0 0 -1.33333 684.982 593.254)"/><path d="M0 0c1.686-1.909 1.49-4.817-.306-6.542-1.723-1.656-4.241-2.401-6.498-2.972-2.498-.633-5.048-.995-7.582-1.441a66 66 0 0 1-10.557-2.8 71.3 71.3 0 0 1-20.333-11.208 62.4 62.4 0 0 1-8.132-7.686c-1.815-2.056-3.611-4.129-5.585-6.038-3.413-3.301-9.347-8.274-14.126-4.516-2.74 2.156-1.397 5.867-.036 8.432 1.689 3.182 3.987 6.091 6.329 8.813C-57.831-15.502-45.599-6.73-32.685-2.291c5.177 1.78 10.52 3.182 15.925 4.06 2.712.441 5.463.726 8.213.7 2.168-.021 4.479-.194 6.493-1.071C-1.268 1.055-.584.605 0 0c1.343-1.392 3.463.731 2.121 2.121-3.527 3.654-9.675 3.581-14.346 3.206-6.185-.496-12.313-1.92-18.233-3.742-13.867-4.266-26.612-12.581-36.483-23.181-2.754-2.958-5.33-6.135-7.538-9.524-1.896-2.912-3.733-6.549-3.128-10.128.554-3.277 3.605-5.648 6.782-6.16 3.002-.483 5.949.604 8.468 2.179 5.583 3.493 9.328 8.946 13.938 13.5 5.991 5.917 13.229 10.607 21.003 13.828a67 67 0 0 0 12.165 3.737c2.704.555 5.448.89 8.142 1.495 4.952 1.111 11.477 3.558 11.257 9.695-.069 1.931-.752 3.652-2.027 5.095C.841 3.571-1.275 1.443 0 0" clip-path="url(#C)" style="fill:#000;fill-opacity:1;fill-rule:nonzero;stroke:none" transform="matrix(1.33333 0 0 -1.33333 683.568 594.669)"/><path d="M0 0c-.005-1.31-.459-2.581-1.471-3.782C-6.247-9.451-15.282-2.13-20.158.971c-11.855 7.542-26.584 11.214-40.064 9.989-6.5-.591-21.184-2.52-22.498 7.018-.675 4.9 4.917 7.134 9.371 8.138 13.698 3.088 29.679 1.859 43.877-3.118C-22.447 20.535.035 9.274 0 0" clip-path="url(#D)" style="fill:#fff;fill-opacity:1;fill-rule:nonzero;stroke:none" transform="matrix(1.33333 0 0 -1.33333 846.445 830.771)"/><path d="M0 0c-.12-3.117-2.95-4.791-5.792-4.251-2.834.538-5.41 2.131-7.804 3.669-2.637 1.695-5.186 3.49-7.944 4.994A69 69 0 0 1-31.988 9.01c-7.183 2.482-14.846 3.79-22.451 3.674-5.036-.076-10.018-1.003-15.066-.736-4.002.212-9.314 1.232-10.18 5.901-.518 2.795 1.738 4.483 4.034 5.504 2.98 1.327 6.388 1.855 9.595 2.296 8.014 1.102 16.268.81 24.226-.59 6.017-1.059 12.009-2.665 17.58-5.204 4.789-2.184 9.449-4.734 13.802-7.698 3.673-2.501 8.161-5.675 9.956-9.923C-.177 1.489-.009.742 0 0c.023-1.929 3.024-1.934 3 0-.06 4.904-4.333 8.896-7.868 11.74-4.617 3.716-9.778 6.75-15.079 9.377-13.185 6.534-28.457 9.204-43.098 7.871-3.843-.35-7.799-.874-11.491-2.037-2.817-.889-6.01-2.331-7.459-5.08-1.33-2.523-.827-5.756.78-8.046 1.434-2.045 3.638-3.288 5.995-3.991 4.885-1.457 10.217-.97 15.214-.495 7.821.742 15.583.131 23.166-1.963A65 65 0 0 0-25.12 2.9c3.175-1.586 6.108-3.502 9.062-5.453C-11.541-5.538-4.212-10.095.67-5.297 2.118-3.875 2.922-2.017 3 0 3.074 1.931.074 1.927 0 0" clip-path="url(#E)" style="fill:#000;fill-opacity:1;fill-rule:nonzero;stroke:none" transform="matrix(1.33333 0 0 -1.33333 844.445 830.771)"/><path d="M0 0v-5.046c0-16.219-13.147-29.366-29.366-29.366h-40.52c-16.219 0-29.366 13.147-29.366 29.366V0c0 16.218 13.147 29.366 29.366 29.366h40.52C-13.147 29.366 0 16.218 0 0" clip-path="url(#F)" style="fill:#eadb26;fill-opacity:1;fill-rule:nonzero;stroke:none" transform="matrix(1.33333 0 0 -1.33333 742.1 673.616)"/><path d="M0 0c0-4.145.136-8.245-.952-12.292-1.496-5.564-4.724-10.529-9.138-14.223-4.477-3.747-10.201-6.003-16.025-6.346-1.913-.112-3.845-.051-5.76-.051h-33.803c-2.503 0-4.998-.04-7.476.4C-84.777-30.45-93.983-21.121-95.91-9.478c-.355 2.145-.342 4.304-.342 6.47 0 2.047-.05 4.1.165 6.139.604 5.721 3.127 11.25 6.983 15.507a28.1 28.1 0 0 0 14.618 8.56c2.75.621 5.506.668 8.301.668h22.51c5.386 0 10.776.066 16.161-.002 11.759-.15 22.488-7.965 26.133-19.171A28.5 28.5 0 0 0 0 0c.011-1.93 3.011-1.934 3 0-.074 12.596-7.818 23.985-19.497 28.694-6.625 2.672-13.73 2.172-20.713 2.172h-25.396c-1.918 0-3.837.008-5.755 0-5.85-.027-11.646-1.657-16.584-4.815-5.098-3.261-9.232-8.011-11.663-13.559-2.194-5.007-2.644-10.111-2.644-15.5 0-5.509.745-10.73 3.2-15.731 2.663-5.422 7.004-10.019 12.229-13.041 4.725-2.732 10.102-4.113 15.55-4.132 2.167-.008 4.334 0 6.501 0h33.344c4.576 0 9.014.852 13.206 2.71C-4.088-28.267 2.98-16.907 3-4.816 3.003-3.211 3-1.605 3 0c0 1.93-3 1.934-3 0" clip-path="url(#G)" style="fill:#000;fill-opacity:1;fill-rule:nonzero;stroke:none" transform="matrix(1.33333 0 0 -1.33333 740.1 673.616)"/><path d="M0 0v-2.099c0-6.747-5.469-12.216-12.216-12.216h-16.857c-6.747 0-12.216 5.469-12.216 12.216V0c0 6.747 5.469 12.216 12.216 12.216h16.857C-5.469 12.216 0 6.747 0 0" clip-path="url(#H)" style="fill:#000;fill-opacity:1;fill-rule:nonzero;stroke:none" transform="matrix(1.33333 0 0 -1.33333 686.761 700.538)"/><path d="M0 0v-5.046c0-16.219-13.147-29.366-29.366-29.366h-40.52c-16.219 0-29.366 13.147-29.366 29.366V0c0 16.218 13.147 29.366 29.366 29.366h40.52C-13.147 29.366 0 16.218 0 0" clip-path="url(#I)" style="fill:#eadb26;fill-opacity:1;fill-rule:nonzero;stroke:none" transform="matrix(1.33333 0 0 -1.33333 857.931 673.616)"/><path d="M0 0c0-4.145.136-8.245-.952-12.292-1.496-5.564-4.724-10.529-9.138-14.223-4.477-3.747-10.201-6.003-16.025-6.346-1.913-.112-3.845-.051-5.76-.051h-33.803c-2.503 0-4.998-.04-7.476.4C-84.777-30.45-93.983-21.121-95.91-9.478c-.355 2.145-.342 4.304-.342 6.47 0 2.047-.05 4.1.165 6.139.604 5.721 3.127 11.25 6.983 15.507a28.1 28.1 0 0 0 14.618 8.56c2.75.621 5.506.668 8.301.668h22.51c5.386 0 10.776.066 16.161-.002 11.759-.15 22.488-7.965 26.133-19.171A28.5 28.5 0 0 0 0 0c.011-1.93 3.011-1.934 3 0-.074 12.596-7.818 23.985-19.497 28.694-6.625 2.672-13.73 2.172-20.713 2.172h-25.396c-1.918 0-3.837.008-5.755 0-5.85-.027-11.646-1.657-16.584-4.815-5.098-3.261-9.232-8.011-11.663-13.559-2.194-5.007-2.644-10.111-2.644-15.5 0-5.509.745-10.73 3.2-15.731 2.663-5.422 7.004-10.019 12.229-13.041 4.725-2.732 10.102-4.113 15.55-4.132 2.167-.008 4.334 0 6.501 0h33.344c4.576 0 9.014.852 13.206 2.71C-4.088-28.267 2.98-16.907 3-4.816 3.003-3.211 3-1.605 3 0c0 1.93-3 1.934-3 0" clip-path="url(#J)" style="fill:#000;fill-opacity:1;fill-rule:nonzero;stroke:none" transform="matrix(1.33333 0 0 -1.33333 855.931 673.616)"/><path d="M0 0v-2.099c0-6.747-5.469-12.216-12.216-12.216h-16.857c-6.747 0-12.216 5.469-12.216 12.216V0c0 6.747 5.469 12.216 12.216 12.216h16.857C-5.469 12.216 0 6.747 0 0" clip-path="url(#K)" style="fill:#000;fill-opacity:1;fill-rule:nonzero;stroke:none" transform="matrix(1.33333 0 0 -1.33333 795.368 699.506)"/><path d="M0 0c2.725 7.42 9.115 13.311 16.614 15.714 7.744 2.483 16.064.841 22.63-3.854 3.685-2.635 6.6-6.229 8.47-10.347.797-1.755 3.383-.232 2.59 1.514-3.679 8.105-11.38 14.179-20.029 16.163-8.786 2.015-17.89-.539-24.729-6.311A28.8 28.8 0 0 1-2.893.798C-3.559-1.017-.661-1.8 0 0" clip-path="url(#L)" style="fill:#000;fill-opacity:1;fill-rule:nonzero;stroke:none" transform="matrix(1.33333 0 0 -1.33333 698.657 764.396)"/><path d="M0 0c6.104.166 12.07-2.198 16.384-6.525 1.365-1.369 3.486.752 2.121 2.121C13.656.46 6.869 3.187 0 3c-1.927-.052-1.934-3.053 0-3" clip-path="url(#M)" style="fill:#000;fill-opacity:1;fill-rule:nonzero;stroke:none" transform="matrix(1.33333 0 0 -1.33333 684.318 767.043)"/><path d="M0 0c4.857 4.739 12.053 6.728 18.652 5.128 1.875-.455 2.676 2.437.797 2.893-7.642 1.853-15.938-.405-21.57-5.9C-3.506.771-1.383-1.35 0 0" clip-path="url(#N)" style="fill:#000;fill-opacity:1;fill-rule:nonzero;stroke:none" transform="matrix(1.33333 0 0 -1.33333 752.866 772.723)"/><path d="M0 0c.024.021.307.257.186.162-.1-.079.12.085.141.1A7.3 7.3 0 0 0 1.46.909c.142.067-.138-.045.11.045l.273.098c.415.141.839.239 1.27.318.451.083-.155-.011.107.015q.183.018.364.03.328.02.658.015c.219-.004.437-.021.656-.036.11-.008.198-.021.036.001q.181-.025.36-.061A8 8 0 0 0 6.556.987c.024-.009.285-.111.159-.058-.15.062.188-.088.218-.103A7.4 7.4 0 0 0 8.051.154c-.127.093-.025.022.041-.034q.166-.143.328-.291c.594-.551 1.533-.589 2.121 0 .557.557.596 1.568 0 2.121-3.485 3.229-9.089 3.273-12.662.171-.612-.531-.545-1.577 0-2.121C-1.514-.607-.614-.533 0 0" clip-path="url(#O)" style="fill:#000;fill-opacity:1;fill-rule:nonzero;stroke:none" transform="matrix(1.33333 0 0 -1.33333 723.76 760.627)"/><path d="M0 0c2.156-8.375-8.027-16.917-22.746-19.078-14.719-2.162-28.399 2.875-30.556 11.25s8.028 16.917 22.747 19.078C-15.837 13.412-2.156 8.375 0 0" clip-path="url(#P)" style="fill:#ff61bb;fill-opacity:1;fill-rule:nonzero;stroke:none" transform="matrix(1.33333 0 0 -1.33333 749.836 707.238)"/><path d="M0 0c1.858-7.642-7.267-13.012-13.178-15.162-9.078-3.301-20.351-3.893-29.306.172-3.068 1.392-6.242 3.515-7.615 6.728-1.272 2.974-.451 6.116 1.382 8.65 2.343 3.238 6.014 5.467 9.626 7.022 4.731 2.037 9.939 3.057 15.072 3.244 5.293.192 10.806-.458 15.7-2.583C-4.731 6.514-1.078 3.963 0 0c.49-1.803 3.296-1.038 2.803.773C.284 10.034-11.57 13.062-19.88 13.523c-5.807.322-11.777-.44-17.294-2.291-4.577-1.535-9.137-3.873-12.47-7.439-2.587-2.767-4.393-6.392-3.905-10.258.506-4.016 3.243-7.185 6.525-9.351 4.192-2.767 9.266-4.052 14.207-4.583 5.858-.63 11.923-.083 17.59 1.524C-6.917-16.519 5.364-9.756 2.803.773 2.361 2.59-.443 1.82 0 0" clip-path="url(#Q)" style="fill:#000;fill-opacity:1;fill-rule:nonzero;stroke:none" transform="matrix(1.33333 0 0 -1.33333 747.967 707.753)"/><path d="M0 0c-1.092-2.396-5.336-3.465-9.479-2.388-4.144 1.078-6.617 3.893-5.525 6.289s5.336 3.464 9.479 2.387S1.092 2.396 0 0" clip-path="url(#R)" style="fill:#fff;fill-opacity:1;fill-rule:nonzero;stroke:none" transform="matrix(1.33333 0 0 -1.33333 735.609 707.293)"/><path d="M0 0c-.956-1.959-3.784-2.238-5.708-2.146-2.262.11-5.041.897-6.519 2.747-.501.628-.721 1.292-.549 1.868.211.708.945 1.283 1.696 1.627 2.303 1.057 5.191.761 7.503-.089 1.125-.413 2.277-1.071 3.04-2.016.295-.366.474-.695.577-1.118C.097.637.105.248 0 0c-.276-.648-.194-1.398.468-1.785.548-.32 1.508-.184 1.785.468 1.234 2.9-.691 5.512-3.181 6.947-2.99 1.721-7.012 2.286-10.313 1.188-2.624-.873-5.035-3.272-3.928-6.235 1.146-3.068 4.717-4.669 7.737-5.151 3.238-.516 8.035-.131 9.685 3.251C2.987.186.737 1.51 0 0" clip-path="url(#S)" style="fill:#000;fill-opacity:1;fill-rule:nonzero;stroke:none" transform="matrix(1.33333 0 0 -1.33333 734.106 706.415)"/><path d="M0 0c3.551 20.937 17.327 38.977 36.651 47.809 5.427 2.48 11.211 4.153 17.105 5.054 1.903.29 1.095 3.182-.797 2.893-21.792-3.329-40.999-17.61-50.374-37.572C-.011 12.657-1.872 6.819-2.893.798-3.213-1.091-.323-1.902 0 0" clip-path="url(#T)" style="fill:#000;fill-opacity:1;fill-rule:nonzero;stroke:none" transform="matrix(1.33333 0 0 -1.33333 657.057 979.387)"/></svg>