<svg xmlns="http://www.w3.org/2000/svg" width="1440" height="1440" viewBox="0 0 1440 1440"><defs><clipPath id="a" clipPathUnits="userSpaceOnUse"><path d="M-451.863 737.703h1080v-1080h-1080Z"/></clipPath><clipPath id="b" clipPathUnits="userSpaceOnUse"><path d="M-451.863 736.203h1080v-1080h-1080Z"/></clipPath><clipPath id="c" clipPathUnits="userSpaceOnUse"><path d="M-760.906 491.659h1080v-1080h-1080Z"/></clipPath><clipPath id="d" clipPathUnits="userSpaceOnUse"><path d="M-759.406 491.659h1080v-1080h-1080Z"/></clipPath><clipPath id="e" clipPathUnits="userSpaceOnUse"><path d="M-370.535 566.011h1080v-1080h-1080Z"/></clipPath><clipPath id="f" clipPathUnits="userSpaceOnUse"><path d="M-369.035 566.011h1080v-1080h-1080Z"/></clipPath><clipPath id="g" clipPathUnits="userSpaceOnUse"><path d="M-354.883 566.011h1080v-1080h-1080Z"/></clipPath><clipPath id="h" clipPathUnits="userSpaceOnUse"><path d="M-353.383 566.011h1080v-1080h-1080Z"/></clipPath><clipPath id="i" clipPathUnits="userSpaceOnUse"><path d="M-831.535 566.011h1080v-1080h-1080Z"/></clipPath><clipPath id="j" clipPathUnits="userSpaceOnUse"><path d="M-830.035 566.011h1080v-1080h-1080Z"/></clipPath><clipPath id="k" clipPathUnits="userSpaceOnUse"><path d="M-815.883 566.011h1080v-1080h-1080Z"/></clipPath><clipPath id="l" clipPathUnits="userSpaceOnUse"><path d="M-814.383 566.011h1080v-1080h-1080Z"/></clipPath><clipPath id="m" clipPathUnits="userSpaceOnUse"><path d="M-291.237 580.503h1080v-1080h-1080Z"/></clipPath><clipPath id="n" clipPathUnits="userSpaceOnUse"><path d="M-302.638 580.503h1080v-1080h-1080Z"/></clipPath><clipPath id="o" clipPathUnits="userSpaceOnUse"><path d="M-327.572 580.503h1080v-1080h-1080Z"/></clipPath><clipPath id="p" clipPathUnits="userSpaceOnUse"><path d="M-345.415 580.317h1080v-1080h-1080Z"/></clipPath><clipPath id="q" clipPathUnits="userSpaceOnUse"><path d="M-744.018 577.834h1080v-1080h-1080Z"/></clipPath><clipPath id="r" clipPathUnits="userSpaceOnUse"><path d="M-753.725 553.043h1080v-1080h-1080Z"/></clipPath><clipPath id="s" clipPathUnits="userSpaceOnUse"><path d="M-775.243 553.043h1080v-1080h-1080Z"/></clipPath><clipPath id="t" clipPathUnits="userSpaceOnUse"><path d="M-801.689 577.834h1080v-1080h-1080Z"/></clipPath><clipPath id="u" clipPathUnits="userSpaceOnUse"><path d="M-478.207 710.978h1080v-1080h-1080Z"/></clipPath><clipPath id="v" clipPathUnits="userSpaceOnUse"><path d="M-512.24 710.978h1080v-1080h-1080Z"/></clipPath><clipPath id="w" clipPathUnits="userSpaceOnUse"><path d="M-542.622 710.978h1080v-1080h-1080Z"/></clipPath><clipPath id="x" clipPathUnits="userSpaceOnUse"><path d="M-560.577 710.978h1080v-1080h-1080Z"/></clipPath><clipPath id="y" clipPathUnits="userSpaceOnUse"><path d="M-597.785 710.978h1080v-1080h-1080Z"/></clipPath><clipPath id="z" clipPathUnits="userSpaceOnUse"><path d="M-628.167 710.978h1080v-1080h-1080Z"/></clipPath><clipPath id="A" clipPathUnits="userSpaceOnUse"><path d="M-557.293 439.766h1080v-1080h-1080Z"/></clipPath><clipPath id="B" clipPathUnits="userSpaceOnUse"><path d="M-616.594 452.588h1080v-1080h-1080Z"/></clipPath><clipPath id="C" clipPathUnits="userSpaceOnUse"><path d="M-557.293 438.266h1080v-1080h-1080Z"/></clipPath><clipPath id="D" clipPathUnits="userSpaceOnUse"><path d="M-461.749 578.736h1080v-1080h-1080Z"/></clipPath><clipPath id="E" clipPathUnits="userSpaceOnUse"><path d="M-463.044 577.979h1080v-1080h-1080Z"/></clipPath><clipPath id="F" clipPathUnits="userSpaceOnUse"><path d="M-636.935 394.261h1080v-1080h-1080Z"/></clipPath><clipPath id="G" clipPathUnits="userSpaceOnUse"><path d="M-638.381 394.66h1080v-1080h-1080Z"/></clipPath><clipPath id="H" clipPathUnits="userSpaceOnUse"><path d="M-635.15 472.27h1080v-1080h-1080Z"/></clipPath><clipPath id="I" clipPathUnits="userSpaceOnUse"><path d="M-633.704 471.87h1080v-1080h-1080Z"/></clipPath><clipPath id="J" clipPathUnits="userSpaceOnUse"><path d="M-620.034 357.624h1080v-1080h-1080Z"/></clipPath><clipPath id="K" clipPathUnits="userSpaceOnUse"><path d="M-493.823 464.215h1080v-1080h-1080Z"/></clipPath><clipPath id="L" clipPathUnits="userSpaceOnUse"><path d="M-495.119 463.458h1080v-1080h-1080Z"/></clipPath><clipPath id="M" clipPathUnits="userSpaceOnUse"><path d="M-383.023 474.256h1080v-1080h-1080Z"/></clipPath><clipPath id="N" clipPathUnits="userSpaceOnUse"><path d="M-383.422 475.702h1080v-1080h-1080Z"/></clipPath><clipPath id="O" clipPathUnits="userSpaceOnUse"><path d="M-388.94 492.086h1080v-1080h-1080Z"/></clipPath><clipPath id="P" clipPathUnits="userSpaceOnUse"><path d="M-490.243 500.428h1080v-1080h-1080Z"/></clipPath><clipPath id="Q" clipPathUnits="userSpaceOnUse"><path d="M-490.243 498.928h1080v-1080h-1080Z"/></clipPath><clipPath id="R" clipPathUnits="userSpaceOnUse"><path d="M-585.373 500.428h1080v-1080h-1080Z"/></clipPath><clipPath id="S" clipPathUnits="userSpaceOnUse"><path d="M-585.373 498.928h1080v-1080h-1080Z"/></clipPath><clipPath id="T" clipPathUnits="userSpaceOnUse"><path d="M-410.748 423.383h1080v-1080h-1080Z"/></clipPath><clipPath id="U" clipPathUnits="userSpaceOnUse"><path d="M-536.385 541.51h1080v-1080h-1080Z"/></clipPath><clipPath id="V" clipPathUnits="userSpaceOnUse"><path d="M-534.885 541.51h1080v-1080h-1080Z"/></clipPath><clipPath id="W" clipPathUnits="userSpaceOnUse"><path d="M-17.713-35.377c-.747-16.962 12.398-31.318 29.359-32.065 16.963-.747 31.319 12.397 32.066 29.36.747 16.961-12.398 31.317-29.36 32.064q-.692.03-1.376.03c-16.355 0-29.962-12.888-30.69-29.389"/></clipPath><clipPath id="X" clipPathUnits="userSpaceOnUse"><path d="M-51.36-5.237c-.748-16.962 12.397-31.318 29.358-32.065 16.963-.747 31.32 12.397 32.066 29.36.747 16.961-12.398 31.317-29.36 32.064q-.69.03-1.376.03c-16.355 0-29.962-12.888-30.689-29.389"/></clipPath><clipPath id="Y" clipPathUnits="userSpaceOnUse"><path d="M-44.599 7.3c-.747-16.962 12.398-31.318 29.36-32.065s31.318 12.397 32.065 29.36c.747 16.96-12.398 31.317-29.36 32.064q-.69.03-1.376.03c-16.355 0-29.962-12.888-30.689-29.39"/></clipPath><clipPath id="Z" clipPathUnits="userSpaceOnUse"><path d="M-583.644 533.976h1080v-1080h-1080Z"/></clipPath><clipPath id="aa" clipPathUnits="userSpaceOnUse"><path d="M-582.144 533.976h1080v-1080h-1080Z"/></clipPath><clipPath id="ab" clipPathUnits="userSpaceOnUse"><path d="M-17.713-35.377c-.747-16.961 12.397-31.317 29.359-32.064s31.318 12.397 32.066 29.36c.747 16.96-12.4 31.317-29.36 32.064q-.692.03-1.376.03c-16.356 0-29.963-12.888-30.69-29.39"/></clipPath><clipPath id="ac" clipPathUnits="userSpaceOnUse"><path d="M-53.513-5.67c-.747-16.96 12.397-31.317 29.36-32.064 16.96-.746 31.316 12.397 32.064 29.36C8.66 8.587-4.487 22.943-21.448 23.69q-.69.03-1.376.03c-16.356 0-29.963-12.888-30.689-29.39"/></clipPath><clipPath id="ad" clipPathUnits="userSpaceOnUse"><path d="M-46.75 6.867c-.748-16.961 12.396-31.317 29.358-32.064S13.926-12.8 14.674 4.163c.747 16.96-12.399 31.317-29.36 32.064q-.69.03-1.376.03c-16.356 0-29.963-12.888-30.689-29.39"/></clipPath><clipPath id="ae" clipPathUnits="userSpaceOnUse"><path d="M-513.31 568.4h1080v-1080h-1080Z"/></clipPath><clipPath id="af" clipPathUnits="userSpaceOnUse"><path d="M-571.332 560.88h1080v-1080h-1080Z"/></clipPath><clipPath id="ag" clipPathUnits="userSpaceOnUse"><path d="M-535.221 604.93h1080v-1080h-1080Z"/></clipPath><clipPath id="ah" clipPathUnits="userSpaceOnUse"><path d="M-416.783 486.834h1080v-1080h-1080Z"/></clipPath><clipPath id="ai" clipPathUnits="userSpaceOnUse"><path d="M-629.207 481.884h1080v-1080h-1080Z"/></clipPath></defs><path d="M0 0h1080v1080H0Z" style="fill:#feffff;fill-opacity:1;fill-rule:nonzero;stroke:none" transform="matrix(1.33333 0 0 -1.33333 0 1440)"/><path d="M0 0c-84.197 0-152.696 70.252-152.696 156.604v95.531c0 6.316 5.12 11.435 11.436 11.435h457.651c6.315 0 11.435-5.119 11.435-11.435v-95.531C327.826 70.252 259.322 0 175.121 0Z" clip-path="url(#a)" style="fill:#458c28;fill-opacity:1;fill-rule:nonzero;stroke:none" transform="matrix(1.33333 0 0 -1.33333 602.484 983.604)"/><path d="M0 0c-35.503.079-70.1 13.042-96.999 36.209-26.778 23.062-45.058 55.08-51.535 89.803-3.873 20.764-2.662 42.335-2.662 63.364 0 20.216-.122 40.435 0 60.651.035 5.768 4.037 10.372 9.956 10.543.466.014.935 0 1.402 0h453.042c3.947 0 7.682-.003 10.643-3.365 2.456-2.789 2.479-6.025 2.479-9.437V166.04c0-7.959.12-15.92-.516-23.862-2.848-35.589-18.053-69.744-42.727-95.563C258.824 21.229 225.986 4.564 190.997.84 176.341-.72 161.293 0 146.578 0zc-1.93 0-1.934-3 0-3h171.388c9.092 0 18.133.426 27.135 1.827 17.381 2.704 34.247 8.543 49.635 17.058 30.614 16.941 54.895 44.336 68.509 76.521 7.04 16.646 11.198 34.435 12.337 52.471.482 7.639.322 15.321.322 22.972v71.529c0 7.122 1.465 16.16-4.723 21.241-3.392 2.786-7.177 2.951-11.223 2.951h-431.173c-7.623 0-15.248.047-22.871 0-8.11-.049-13.532-6.122-13.532-14.043v-91.731c0-30.727 7.583-60.734 23.796-86.994C-112.004 41.006-83.773 17.67-50.775 5.81-34.51-.036-17.276-2.962 0-3c1.931-.004 1.933 2.996 0 3" clip-path="url(#b)" style="fill:#000;fill-opacity:1;fill-rule:nonzero;stroke:none" transform="matrix(1.33333 0 0 -1.33333 602.484 981.604)"/><path d="M0 0v-89.727c0-76.651-60.411-138.791-134.936-138.791h-173.093c-74.517 0-134.927 62.14-134.927 138.791V0Z" clip-path="url(#c)" style="fill:#f7583b;fill-opacity:1;fill-rule:nonzero;stroke:none" transform="matrix(1.33333 0 0 -1.33333 1014.542 655.545)"/><path d="M0 0v-88.138c0-14.797-1.947-29.423-6.354-43.573-10.866-34.89-35.689-64.803-68.349-81.33a130.1 130.1 0 0 0-53.827-13.887c-4.908-.179-9.834-.09-14.743-.09h-161.383c-12.155 0-24.171 1.328-35.924 4.511-35.244 9.546-65.235 34.042-82.585 66.053-8.953 16.519-14.485 34.868-16.194 53.579-.785 8.596-.597 17.241-.597 25.863V0l-1.5-1.5h424.975c5.739 0 11.489-.104 17.228 0 .251.005.502 0 .753 0 1.93 0 1.934 3 0 3h-424.976c-5.739 0-11.489.104-17.227 0-.251-.005-.503 0-.753 0-.811 0-1.5-.687-1.5-1.5v-88.502c0-15.519 2.196-30.943 7.006-45.72 11.322-34.782 36.248-64.653 68.92-81.278a133.7 133.7 0 0 1 53.159-14.316c5.499-.303 11.025-.202 16.532-.202h162.323c12.705 0 25.317 1.495 37.567 4.932 35.292 9.899 65.409 34.53 82.967 66.602 8.987 16.416 14.613 34.545 16.638 53.142C3.158-96.131 3-86.892 3-77.646V0c0 1.93-3 1.934-3 0" clip-path="url(#d)" style="fill:#000;fill-opacity:1;fill-rule:nonzero;stroke:none" transform="matrix(1.33333 0 0 -1.33333 1012.542 655.545)"/><path d="M0 0c0-33.709-27.326-61.035-61.035-61.035S-122.07-33.709-122.07 0s27.326 61.035 61.035 61.035S0 33.709 0 0" clip-path="url(#e)" style="fill:#458c28;fill-opacity:1;fill-rule:nonzero;stroke:none" transform="matrix(1.33333 0 0 -1.33333 494.047 754.681)"/><path d="M0 0c-.035-12.367-3.87-24.458-11.035-34.546-6.898-9.712-16.807-17.292-28.001-21.371-11.728-4.273-24.687-4.775-36.703-1.386-11.622 3.278-22.04 10.142-29.742 19.429-7.737 9.331-12.487 21.077-13.41 33.162-.947 12.409 1.968 24.912 8.426 35.56 6.202 10.227 15.464 18.424 26.338 23.395 11.33 5.18 24.341 6.601 36.535 4.097 11.822-2.428 22.72-8.462 31.068-17.176C-8.148 32.422-2.611 21.219-.707 9.266-.219 6.203-.009 3.1 0 0c.005-1.93 3.005-1.934 3 0-.036 12.911-4.025 25.673-11.54 36.194-7.345 10.283-17.676 18.198-29.542 22.559-12.24 4.498-25.91 4.981-38.455 1.443-12.135-3.422-23.147-10.6-31.169-20.327a62.9 62.9 0 0 1-14.172-34.984c-1.028-12.953 2.084-26.136 8.822-37.247 6.507-10.73 16.268-19.45 27.716-24.609 11.936-5.378 25.373-6.891 38.213-4.329 12.419 2.478 23.967 8.877 32.725 18.015 8.788 9.17 14.711 20.994 16.64 33.56C2.733-6.505 2.991-3.259 3 0 3.005 1.931.005 1.933 0 0" clip-path="url(#f)" style="fill:#000;fill-opacity:1;fill-rule:nonzero;stroke:none" transform="matrix(1.33333 0 0 -1.33333 492.047 754.681)"/><path d="M0 0c0-25.064-20.319-45.383-45.383-45.383S-90.766-25.064-90.766 0s20.319 45.383 45.383 45.383S0 25.064 0 0" clip-path="url(#g)" style="fill:#f5b241;fill-opacity:1;fill-rule:nonzero;stroke:none" transform="matrix(1.33333 0 0 -1.33333 473.177 754.681)"/><path d="M0 0c-.069-18.217-11.652-35.041-28.864-41.25-17.375-6.269-37.136-.841-48.913 13.364-11.745 14.167-13.174 34.888-3.661 50.6 9.484 15.664 28.294 23.968 46.261 20.309 17.8-3.625 31.765-18.24 34.653-36.162C-.159 4.594-.009 2.296 0 0c.007-1.93 3.007-1.934 3 0-.074 19.51-12.439 37.261-30.753 44.029-18.393 6.797-39.799.98-52.249-14.148-12.51-15.2-14.25-37.222-4.026-54.109 10.179-16.813 30.225-25.568 49.482-21.721 18.9 3.775 34.05 19.565 36.968 38.628A49.6 49.6 0 0 1 3 0C3.007 1.931.007 1.933 0 0" clip-path="url(#h)" style="fill:#000;fill-opacity:1;fill-rule:nonzero;stroke:none" transform="matrix(1.33333 0 0 -1.33333 471.177 754.681)"/><path d="M0 0c0-33.709-27.326-61.035-61.035-61.035S-122.07-33.709-122.07 0s27.326 61.035 61.035 61.035S0 33.709 0 0" clip-path="url(#i)" style="fill:#458c28;fill-opacity:1;fill-rule:nonzero;stroke:none" transform="matrix(1.33333 0 0 -1.33333 1108.714 754.681)"/><path d="M0 0c-.035-12.367-3.87-24.458-11.035-34.546-6.898-9.712-16.806-17.292-28.001-21.371-11.727-4.273-24.687-4.775-36.703-1.386-11.622 3.278-22.04 10.142-29.742 19.429-7.737 9.331-12.487 21.077-13.41 33.162-.947 12.409 1.968 24.912 8.426 35.56 6.202 10.227 15.464 18.424 26.338 23.395 11.33 5.18 24.341 6.601 36.535 4.097 11.822-2.428 22.72-8.462 31.068-17.176C-8.148 32.422-2.611 21.219-.707 9.266-.219 6.203-.009 3.1 0 0c.005-1.93 3.005-1.934 3 0-.036 12.911-4.025 25.673-11.54 36.194-7.345 10.283-17.676 18.198-29.542 22.559-12.24 4.498-25.91 4.981-38.455 1.443-12.135-3.422-23.147-10.6-31.169-20.327a62.9 62.9 0 0 1-14.172-34.984c-1.028-12.953 2.084-26.136 8.822-37.247 6.507-10.73 16.268-19.45 27.716-24.609 11.936-5.378 25.373-6.891 38.213-4.329 12.419 2.478 23.967 8.877 32.725 18.015 8.788 9.17 14.711 20.994 16.64 33.56C2.733-6.505 2.991-3.259 3 0 3.005 1.931.005 1.933 0 0" clip-path="url(#j)" style="fill:#000;fill-opacity:1;fill-rule:nonzero;stroke:none" transform="matrix(1.33333 0 0 -1.33333 1106.714 754.681)"/><path d="M0 0c0-25.064-20.319-45.383-45.383-45.383S-90.766-25.064-90.766 0s20.319 45.383 45.383 45.383S0 25.064 0 0" clip-path="url(#k)" style="fill:#f5b241;fill-opacity:1;fill-rule:nonzero;stroke:none" transform="matrix(1.33333 0 0 -1.33333 1087.844 754.681)"/><path d="M0 0c-.069-18.217-11.652-35.041-28.864-41.25-17.375-6.269-37.136-.841-48.913 13.364-11.745 14.167-13.174 34.888-3.661 50.6 9.484 15.664 28.294 23.968 46.261 20.309 17.8-3.625 31.765-18.24 34.653-36.162C-.159 4.594-.009 2.296 0 0c.007-1.93 3.007-1.934 3 0-.074 19.51-12.439 37.261-30.753 44.029-18.393 6.797-39.799.98-52.249-14.148-12.51-15.2-14.251-37.222-4.026-54.109 10.179-16.813 30.225-25.568 49.482-21.721 18.9 3.775 34.05 19.565 36.968 38.628A49.6 49.6 0 0 1 3 0C3.007 1.931.007 1.933 0 0" clip-path="url(#l)" style="fill:#000;fill-opacity:1;fill-rule:nonzero;stroke:none" transform="matrix(1.33333 0 0 -1.33333 1085.844 754.681)"/><path d="M3.363 0q-.587.001-.586-.574v-29.742q-.001-.573.586-.575h16.149c.38 0 .574.194.574.575v5.015q-.001.575-.574.574H10.5v6.586h8.227c.38 0 .574.194.574.575v4.242q-.002.575-.574.574H10.5v6.563h9.012c.38 0 .574.193.574.574v5.039Q20.085 0 19.512 0zM25.51 0q-.575.001-.574-.574v-4.36q0-.303.035-.492.033-.186.27-.293l6.07-2.789v-4.125l-5.977-3.703a.75.75 0 0 1-.398-.691v-8.508q-.001-.373.046-.54.045-.174.352-.386l6.094-4.125q.22-.14.422-.223a1.4 1.4 0 0 1 .504-.082h6.257q.573.002.575.575v3.949q0 .506-.352.691l-6.07 2.508v4.277l6.07 3.48q.352.168.352.74v10.077q-.001.188-.059.399a.47.47 0 0 1-.246.304L31.603-.28l-.329.176a.84.84 0 0 1-.386.105zm23.777 0q-.575.001-.574-.574v-24.153h-4.055q-.587.001-.586-.574v-5.015q-.001-.573.586-.575h15.82q.585.002.586.575v5.015q0 .575-.585.574h-4.055V-.574Q56.42 0 55.849 0zm16.969-.187q-.588.001-.586-.622v-7.37q-.002-.621.586-.622h7.406q.585 0 .586.621v7.371q0 .623-.586.622zm0 0" aria-label="EST." style="fill:#fef6e3;fill-opacity:1;fill-rule:nonzero;stroke:none" transform="translate(362.3 774.004)scale(1.33333)"/><path d="M0 0q.579 0 .579.579v5.029q0 .579-.579.579h-9.015v6.558h8.227q.579 0 .579.579v4.241q0 .58-.579.58h-8.227v6.581H0q.579 0 .579.579v5.005q0 .579-.579.579h-16.152q-.579 0-.579-.579V.579q0-.579.579-.579Z" clip-path="url(#m)" style="fill:none;stroke:#000;stroke-width:2;stroke-linecap:butt;stroke-linejoin:miter;stroke-miterlimit:10;stroke-dasharray:none;stroke-opacity:1" transform="matrix(1.33333 0 0 -1.33333 388.316 774.004)"/><path d="M0 0q.186 0 .382.104.197.105.336.174l7.277 3.615a.46.46 0 0 1 .243.301q.058.208.058.394v10.08q0 .58-.348.742l-6.071 3.476v4.287l6.071 2.502q.348.186.348.696v3.939q0 .579-.58.579H1.46q-.301 0-.499-.081a3 3 0 0 1-.428-.22l-6.095-4.125q-.301-.208-.347-.382a2.3 2.3 0 0 1-.047-.544v-8.505q0-.464.394-.695l5.979-3.708V8.504l-6.071-2.78q-.232-.117-.267-.302a3 3 0 0 1-.035-.486V.579q0-.579.58-.579Z" clip-path="url(#n)" style="fill:none;stroke:#000;stroke-width:2;stroke-linecap:butt;stroke-linejoin:miter;stroke-miterlimit:10;stroke-dasharray:none;stroke-opacity:1" transform="matrix(1.33333 0 0 -1.33333 403.518 774.004)"/><path d="M0 0q.579 0 .579.579v24.147h4.055q.58 0 .58.579v5.005q0 .579-.58.579h-15.827q-.579 0-.579-.579v-5.005q0-.58.579-.579h4.056V.579q0-.579.579-.579Z" clip-path="url(#o)" style="fill:none;stroke:#000;stroke-width:2;stroke-linecap:butt;stroke-linejoin:miter;stroke-miterlimit:10;stroke-dasharray:none;stroke-opacity:1" transform="matrix(1.33333 0 0 -1.33333 436.762 774.004)"/><path d="M0 0q.579 0 .579.625v7.37q0 .625-.579.625h-7.416q-.579 0-.579-.625V.625q0-.625.579-.625Z" clip-path="url(#p)" style="fill:none;stroke:#000;stroke-width:2;stroke-linecap:butt;stroke-linejoin:miter;stroke-miterlimit:10;stroke-dasharray:none;stroke-opacity:1" transform="matrix(1.33333 0 0 -1.33333 460.553 773.757)"/><path d="M3.939 0Q3.48.001 3.48-.469v-19.465l-2.496.094q-.469.001-.468-.469v-4.02q0-.456.468-.456h8.227q.457 0 .457.457v23.86q0 .469-.457.468zm22.47-24.785q.444 0 .738.316l3.727 3.715q.316.294.316.738v13.91a.68.68 0 0 1-.28.563L24.123-.188q-.21.189-.562.188h-4.653q-.456.001-.457-.469v-2.344q-.002-.324.27-.55l6.199-4.594v-1.031H18.3a1 1 0 0 1-.75-.317l-3.106-3.082a1 1 0 0 1-.316-.738v-6.89q0-.445.316-.739l3.727-3.715q.316-.316.738-.316zm-3.738 4.77q-1.644 0-2.215.726-.575.716-.574 2.742-.001 2.03.574 2.754.571.716 2.215.715 1.615.001 2.203-.715.585-.724.586-2.754 0-2.026-.586-2.742-.588-.726-2.203-.727m25.24-4.77q.443 0 .737.316l3.727 3.715q.316.294.316.738v13.91a.68.68 0 0 1-.28.563L45.624-.188q-.21.189-.562.188H40.41q-.457.001-.457-.469v-2.344q-.002-.324.27-.55l6.199-4.594v-1.031H39.8a1 1 0 0 1-.75-.317l-3.106-3.082a1 1 0 0 1-.316-.738v-6.89q0-.445.316-.739l3.727-3.715q.316-.316.738-.316zm-3.74 4.77q-1.642 0-2.214.726-.575.716-.574 2.742-.001 2.03.574 2.754.571.716 2.215.715 1.615.001 2.203-.715.585-.724.586-2.754 0-2.026-.586-2.742-.588-.726-2.203-.727M57.597 0q-.47.001-.469-.469v-3.715q-.001-.466.469-.468h7.816v-5.578h-6.27q-.469 0-.468-.47v-3.714q-.001-.467.469-.469h6.27v-4.957h-7.817q-.47.001-.469-.469v-4.02q-.001-.456.469-.456h9.246q.422.002.738.293l3.727 3.715c.193.21.293.463.293.75v3.714q-.002.4-.188.563l-2.414 2.766v1.171l2.414 2.754q.186.19.188.563v3.715q-.002.448-.293.75L67.58-.316Q67.264 0 66.842 0Zm0 0" aria-label="1993" style="fill:#fef6e3;fill-opacity:1;fill-rule:nonzero;stroke:none" transform="translate(979.749 770.445)scale(1.33333)"/><path d="M0 0q.465 0 .465.465v23.861q0 .465-.465.465h-8.22q-.466 0-.466-.465v-4.017q0-.465.466-.465l2.491.093V.465q0-.465.466-.465Z" clip-path="url(#q)" style="fill:none;stroke:#000;stroke-width:2;stroke-linecap:butt;stroke-linejoin:miter;stroke-miterlimit:10;stroke-dasharray:none;stroke-opacity:1" transform="matrix(1.33333 0 0 -1.33333 992.023 770.445)"/><path d="M0 0q-.428 0-.744-.316l-3.719-3.72a.98.98 0 0 1-.316-.743v-6.882q0-.428.316-.743l3.106-3.088a.98.98 0 0 1 .743-.316h6.621v-1.023l-6.193-4.593a.69.69 0 0 1-.279-.558v-2.344q0-.465.465-.465h4.649q.354 0 .559.187l6.788 5.355a.69.69 0 0 1 .279.559v13.911a.98.98 0 0 1-.317.743L8.239-.316A.98.98 0 0 1 7.495 0Zm5.96-5.496q.586-.715.586-2.743 0-2.026-.586-2.752-.586-.725-2.203-.725-1.636 0-2.214.725-.576.726-.576 2.752 0 2.028.576 2.743.578.717 2.214.717 1.617 0 2.203-.717z" clip-path="url(#r)" style="fill:none;stroke:#000;stroke-width:2;stroke-linecap:butt;stroke-linejoin:miter;stroke-miterlimit:10;stroke-dasharray:none;stroke-opacity:1" transform="matrix(1.33333 0 0 -1.33333 1004.967 737.391)"/><path d="M0 0q-.428 0-.744-.316l-3.72-3.72a.98.98 0 0 1-.316-.743v-6.882q0-.428.316-.743l3.106-3.088a.98.98 0 0 1 .744-.316h6.621v-1.023l-6.194-4.593a.69.69 0 0 1-.279-.558v-2.344q0-.465.466-.465h4.649q.353 0 .558.187l6.788 5.355a.69.69 0 0 1 .279.559v13.911a.98.98 0 0 1-.316.743l-3.72 3.72A.98.98 0 0 1 7.494 0Zm5.96-5.496q.586-.715.586-2.743 0-2.026-.586-2.752-.586-.725-2.204-.725-1.636 0-2.213.725-.576.726-.576 2.752 0 2.028.576 2.743.577.717 2.213.717 1.618 0 2.204-.717z" clip-path="url(#s)" style="fill:none;stroke:#000;stroke-width:2;stroke-linecap:butt;stroke-linejoin:miter;stroke-miterlimit:10;stroke-dasharray:none;stroke-opacity:1" transform="matrix(1.33333 0 0 -1.33333 1033.658 737.391)"/><path d="M0 0q.428 0 .744.316l3.72 3.72q.298.297.298.744v3.719q0 .372-.187.558L2.157 11.81v1.171l2.418 2.771q.186.168.187.558v3.72q0 .427-.298.743l-3.72 3.72a1.05 1.05 0 0 1-.744.298h-9.243q-.465 0-.465-.465v-4.017q0-.465.465-.465h7.811v-4.966h-6.267q-.465 0-.465-.465v-3.719q0-.465.465-.465h6.267v-5.58h-7.811q-.465 0-.465-.464V.465q0-.465.465-.465Z" clip-path="url(#t)" style="fill:none;stroke:#000;stroke-width:2;stroke-linecap:butt;stroke-linejoin:miter;stroke-miterlimit:10;stroke-dasharray:none;stroke-opacity:1" transform="matrix(1.33333 0 0 -1.33333 1068.918 770.445)"/><path d="M4.945.001q-.843 0-.843-.855v-43.793q0-.855.843-.856h18.88q.816.001 1.37.55l6.82 6.821q.586.59.587 1.371v11.778q-.001.822-.586 1.359l-6.82 6.832q-.555.575-1.372.574H15.47V-.854Q15.468 0 14.613 0zm13.078-25.5q2.834 0 3.88-1.125 1.042-1.123 1.042-4.266 0-3.138-1.043-4.265-1.045-1.136-3.879-1.137-2.803 0-3.843 1.137-1.033 1.127-1.032 4.265 0 3.142 1.032 4.266 1.04 1.125 3.843 1.125M38.944.001q-.843 0-.843-.855v-43.793q0-.855.843-.856h9.668q.855.001.856.856V-.854Q49.467 0 48.612 0zm31.585 0q-.786.002-1.37-.445L63.591-5.53l-5.625-7.336q-.377-.48-.48-.598-.106-.114-.106-.598v-17.414q0-.478.117-.609.127-.14.469-.586l5.215-6.762 5.976-5.625q.374-.304.598-.375.22-.07.773-.07h8.426q.854.001.856.856v5.46q0 .273-.06.563-.047.294-.35.492l-6.423 4.406-4.195 5.391v11.168l4.266 5.39L79.4-7.404q.27.165.34.41.07.236.07.516v5.625Q79.809 0 78.956 0zm16.685 0q-.844 0-.844-.855v-43.793q0-.855.844-.856h19.394q.819.001 1.36.55l6.832 6.821q.585.59.586 1.371V-.854q-.001.855-.856.855h-9.668q-.843 0-.843-.855v-35.567h-6.282V-.854Q97.735 0 96.882 0zm37.207 0q-.844 0-.844-.855v-43.793q0-.855.844-.856h9.668q.853.001.855.856V-.854q-.002.855-.855.855zm31.585 0q-.787.002-1.371-.445l-5.567-5.086-5.625-7.336q-.376-.48-.48-.598-.106-.114-.106-.598v-17.414q0-.478.118-.609.127-.14.468-.586l5.215-6.762 5.977-5.625q.374-.304.597-.375.22-.07.774-.07h8.426q.853.001.855.856v5.46q0 .273-.059.563-.048.294-.351.492l-6.422 4.406-4.195 5.391v11.168l4.265 5.39 6.352 4.372q.269.165.34.41.07.236.07.516v5.625q-.001.855-.855.855zm0 0" aria-label="PICNIC" style="fill:#fef6e3;fill-opacity:1;fill-rule:nonzero;stroke:none" transform="translate(618.129 947.971)scale(1.33333)"/><path d="M0 0q.853 0 .854.854v15.361h8.363q.819 0 1.365.58l6.828 6.827a1.8 1.8 0 0 1 .58 1.365v11.778q0 .785-.58 1.365l-6.828 6.827q-.546.547-1.365.547H-9.661q-.852 0-.853-.854V.854q0-.854.853-.854Zm-.427 26.626q-1.041 1.126-1.041 4.268 0 3.139 1.041 4.266t3.841 1.127q2.832 0 3.874-1.127 1.041-1.127 1.041-4.266 0-3.142-1.041-4.268T3.414 25.5q-2.8 0-3.841 1.126z" clip-path="url(#u)" style="fill:none;stroke:#000;stroke-width:3;stroke-linecap:butt;stroke-linejoin:miter;stroke-miterlimit:10;stroke-dasharray:none;stroke-opacity:1" transform="matrix(1.33333 0 0 -1.33333 637.61 947.971)"/><path d="M0 0q.853 0 .854.854V44.65q-.001.854-.854.854h-9.661q-.852 0-.853-.854V.854q0-.854.853-.854Z" clip-path="url(#v)" style="fill:none;stroke:#000;stroke-width:3;stroke-linecap:butt;stroke-linejoin:miter;stroke-miterlimit:10;stroke-dasharray:none;stroke-opacity:1" transform="matrix(1.33333 0 0 -1.33333 682.987 947.971)"/><path d="M0 0q.853 0 .853.854v5.632q0 .273-.068.512-.07.238-.341.409l-6.35 4.37-4.267 5.394v11.162l4.199 5.394L.444 38.13q.307.206.358.495t.051.563v5.462q0 .854-.853.854h-8.432q-.546-.001-.768-.068-.222-.069-.597-.376l-5.974-5.632-5.223-6.76a15 15 0 0 0-.461-.58q-.12-.137-.119-.614v-17.41q0-.479.102-.597.102-.12.478-.598l5.633-7.339L-9.797.443Q-9.218 0-8.432 0Z" clip-path="url(#w)" style="fill:none;stroke:#000;stroke-width:3;stroke-linecap:butt;stroke-linejoin:miter;stroke-miterlimit:10;stroke-dasharray:none;stroke-opacity:1" transform="matrix(1.33333 0 0 -1.33333 723.495 947.971)"/><path d="M0 0q.853 0 .854.854v35.57h6.28V.854q0-.854.854-.854h9.66q.854 0 .854.854v35.911q0 .785-.581 1.365l-6.827 6.827q-.546.547-1.365.547h-19.39q-.852 0-.853-.854V.854q0-.854.853-.854Z" clip-path="url(#x)" style="fill:none;stroke:#000;stroke-width:3;stroke-linecap:butt;stroke-linejoin:miter;stroke-miterlimit:10;stroke-dasharray:none;stroke-opacity:1" transform="matrix(1.33333 0 0 -1.33333 747.436 947.971)"/><path d="M0 0q.853 0 .854.854V44.65q-.001.854-.854.854h-9.661q-.852 0-.853-.854V.854q0-.854.853-.854Z" clip-path="url(#y)" style="fill:none;stroke:#000;stroke-width:3;stroke-linecap:butt;stroke-linejoin:miter;stroke-miterlimit:10;stroke-dasharray:none;stroke-opacity:1" transform="matrix(1.33333 0 0 -1.33333 797.047 947.971)"/><path d="M0 0q.853 0 .853.854v5.632q0 .273-.068.512-.07.238-.341.409l-6.35 4.37-4.267 5.394v11.162l4.199 5.394L.444 38.13q.307.206.358.495t.051.563v5.462q0 .854-.853.854h-8.432q-.546-.001-.768-.068-.222-.069-.597-.376l-5.974-5.632-5.223-6.76a15 15 0 0 0-.461-.58q-.12-.137-.119-.614v-17.41q0-.479.102-.597.102-.12.478-.598l5.633-7.339L-9.797.443Q-9.218 0-8.432 0Z" clip-path="url(#z)" style="fill:none;stroke:#000;stroke-width:3;stroke-linecap:butt;stroke-linejoin:miter;stroke-miterlimit:10;stroke-dasharray:none;stroke-opacity:1" transform="matrix(1.33333 0 0 -1.33333 837.555 947.971)"/><path d="M0 0c-7.081 0-12.822-5.741-12.822-12.822S-7.081-25.644 0-25.644s12.822 5.741 12.822 12.822S7.081 0 0 0m60.8-12.822c0-33.579-27.221-60.8-60.8-60.8s-60.8 27.221-60.8 60.8S-33.579 47.979 0 47.979s60.8-27.222 60.8-60.801" clip-path="url(#A)" style="fill:#fe7c1c;fill-opacity:1;fill-rule:nonzero;stroke:none" transform="matrix(1.33333 0 0 -1.33333 743.057 586.355)"/><path d="M0 0c-.035-12.294-3.839-24.314-10.95-34.352-6.878-9.707-16.771-17.282-27.952-21.352-11.711-4.263-24.658-4.751-36.65-1.342-11.545 3.283-21.889 10.115-29.539 19.353-7.685 9.28-12.405 20.955-13.329 32.966-.948 12.337 1.936 24.767 8.337 35.365 6.176 10.226 15.419 18.418 26.277 23.387 11.26 5.152 24.194 6.574 36.318 4.102 11.811-2.408 22.7-8.428 31.036-17.132C-8.089 32.263-2.567 21.066-.688 9.125-.214 6.108-.009 3.053 0 0c.005-1.93 3.005-1.934 3 0C2.963 12.839-.995 25.53-8.455 36c-7.324 10.278-17.641 18.188-29.493 22.539-12.222 4.488-25.881 4.96-38.401 1.4-12.059-3.429-22.996-10.572-30.968-20.251-8.127-9.869-13.073-22.039-14.089-34.788-1.032-12.936 2.076-26.102 8.818-37.193 6.481-10.662 16.188-19.328 27.57-24.459 11.919-5.373 25.342-6.878 38.161-4.302 12.344 2.481 23.82 8.851 32.526 17.938C-5.595-33.998.302-22.244 2.231-9.753 2.73-6.523 2.991-3.268 3 0 3.005 1.931.005 1.933 0 0" clip-path="url(#B)" style="fill:#000;fill-opacity:1;fill-rule:nonzero;stroke:none" transform="matrix(1.33333 0 0 -1.33333 822.125 603.45)"/><path d="M0 0c-6.02-.08-11.38-3.806-13.472-9.467-2.051-5.551-.261-12.093 4.303-15.847 4.659-3.833 11.395-4.421 16.583-1.263 5.124 3.118 7.735 9.161 6.634 15.032C12.793-4.851 6.712-.089 0 0c-1.931.026-1.932-2.974 0-3 4.68-.062 9.037-2.953 10.636-7.419 1.616-4.514.238-9.613-3.463-12.672-3.67-3.033-9.024-3.361-13.073-.896-3.97 2.416-6.143 7.233-5.222 11.809C-10.052-6.858-5.404-3.072 0-3c1.929.026 1.934 3.026 0 3" clip-path="url(#C)" style="fill:#000;fill-opacity:1;fill-rule:nonzero;stroke:none" transform="matrix(1.33333 0 0 -1.33333 743.057 584.355)"/><path d="M0 0a2493 2493 0 0 0-60.708 131.283c-9.76 22.82-19.246 46.014-23.507 70.465-1.188 6.816-1.573 14.857 3.508 19.553 6.358 5.877 16.84 2.474 23.633-2.895 13.805-10.912 21.635-28.96 20.171-46.496 10.24 6.466 24.808.211 30.817-10.303s5.415-23.531 3.064-35.411c13.248-2.939 23.366-14.986 26.179-28.261s-.883-27.341-7.881-38.968C33.527 52.476 44.157 33.266 48.92 14.49c1.902-7.498 3.139-15.356 1.699-22.956s-5.947-14.949-12.978-18.176-16.541-1.224-20.452 5.45z" clip-path="url(#D)" style="fill:#fe7c1c;fill-opacity:1;fill-rule:nonzero;stroke:none" transform="matrix(1.33333 0 0 -1.33333 615.665 771.648)"/><path d="M0 0a2494 2494 0 0 0-56.944 122.528c-8.648 20.009-17.4 40.123-23.146 61.199-1.422 5.218-2.654 10.489-3.64 15.808-.787 4.246-1.515 8.735-.723 13.039.705 3.833 2.806 7.383 6.594 8.822 3.822 1.452 8.154.58 11.816-.933 7.963-3.29 14.365-10.438 18.747-17.669 4.581-7.561 7.318-16.262 7.72-25.104.099-2.18.051-4.362-.122-6.537-.091-1.141 1.34-1.862 2.257-1.295 7.038 4.346 15.859 2.287 22.18-2.401 7.668-5.687 10.715-15.209 11.076-24.427.226-5.775-.47-11.534-1.579-17.193-.15-.767.21-1.654 1.048-1.845 9.267-2.116 16.807-8.694 21.317-16.927 5.12-9.346 5.757-20.39 3.314-30.635-1.471-6.172-3.98-12.024-7.229-17.463-.529-.885.004-1.881.896-2.203 11.045-3.987 19.223-12.957 24.755-23.054 2.861-5.221 5.072-10.774 6.768-16.477 2.045-6.877 3.626-14.094 3.306-21.306-.276-6.233-2.243-12.556-6.461-17.272-3.761-4.205-9.027-6.638-14.714-5.952-2.494.301-4.969 1.206-6.991 2.71-1.452 1.081-2.307 2.464-3.409 3.845-1.494 1.871-3.017 3.719-4.525 5.579L-.235.304c-1.216 1.499-3.327-.635-2.121-2.122L9.247-16.122c1.769-2.182 3.641-4.314 5.324-6.564.863-1.154 1.736-2.493 2.969-3.555 2.137-1.841 4.742-3.102 7.495-3.704 5.858-1.281 11.746.249 16.397 3.975 4.89 3.918 8.036 9.905 9.267 15.986 1.576 7.787.429 15.802-1.455 23.426-1.513 6.121-3.585 12.11-6.29 17.809-5.213 10.987-13.214 21.277-24.375 26.651a45 45 0 0 1-4.2 1.755l.897-2.204c6.105 10.217 9.858 22.252 8.883 34.239-.848 10.429-5.457 20.475-13.341 27.461-4.211 3.73-9.239 6.476-14.737 7.732l1.048-1.845c2.116 10.795 2.958 22.496-1.405 32.869-3.578 8.506-11.162 15.264-20.371 16.96-4.929.908-10.007.236-14.308-2.421l2.257-1.295c1.457 18.305-6.885 37.512-21.77 48.442-6.433 4.725-16.578 8.235-23.639 2.805-7.564-5.817-5.864-16.674-4.297-24.819 4.26-22.156 12.654-43.222 21.441-63.909a2425 2425 0 0 1 28.407-64.215A2495 2495 0 0 1-2.59-1.514C-1.73-3.243.859-1.725 0 0" clip-path="url(#E)" style="fill:#000;fill-opacity:1;fill-rule:nonzero;stroke:none" transform="matrix(1.33333 0 0 -1.33333 617.392 770.638)"/><path d="m0 0 6.273 33.865a7.71 7.71 0 0 1 5.459 6.007 7.72 7.72 0 0 1-6.185 8.998l-15.996 2.963a7.72 7.72 0 0 1-8.998-6.185 7.71 7.71 0 0 1 2.945-7.564l-6.28-33.904C-40.58 2.359-55.801-10.949-59.224-29.43l-24.031-129.734c-2.372-12.803 6.085-25.104 18.887-27.476l34.976-6.478c12.802-2.372 25.103 6.084 27.475 18.887L22.114-44.497C25.547-25.966 16.042-8.044 0 0" clip-path="url(#F)" style="fill:#104b2b;fill-opacity:1;fill-rule:nonzero;stroke:none" transform="matrix(1.33333 0 0 -1.33333 849.246 525.681)"/><path d="m0 0 5.481 29.591.792 4.274-1.048-1.048c5.507 1.721 8.309 7.939 5.634 13.143-1.197 2.328-3.469 4.085-6.014 4.683-.791.186-1.603.305-2.402.453l-10.361 1.919c-3.183.59-6.256 1.405-9.37-.066-6.074-2.868-6.939-11.384-1.721-15.527l-.386 1.459-5.487-29.625-.793-4.278 1.447 1.101c-13.184-1.406-25.203-8.777-32.22-20.073-3.348-5.388-5.051-11.302-6.192-17.461l-2.765-14.931-4.358-23.526-5.097-27.517-4.997-26.975-3.989-21.538-2.15-11.602c-.479-2.587-.749-5.188-.493-7.821.623-6.406 3.685-12.475 8.585-16.677 3.591-3.08 7.844-4.933 12.469-5.79l9.435-1.747 23.589-4.37c4.32-.8 8.614-.92 12.878.33 6.158 1.804 11.525 6.001 14.726 11.567 2.254 3.919 2.947 8.129 3.75 12.466l3.119 16.837 4.554 24.586 5.162 27.864 4.86 26.239 3.721 20.089c.575 3.103 1.154 6.204 1.724 9.307 2.161 11.762-.498 24.055-7.703 33.662C10.387-5.677 5.252-1.318-.689 1.694c-1.718.871-3.239-1.716-1.514-2.59C9.758-6.961 18.24-18.851 19.645-32.257c.544-5.197-.189-10.173-1.126-15.236l-2.9-15.655-4.366-23.569-5.025-27.127-4.868-26.282-3.896-21.034-2.109-11.383c-.435-2.348-1.034-4.647-2.109-6.797-2.793-5.584-7.876-9.807-13.899-11.478-3.771-1.047-7.521-.875-11.317-.172l-10.173 1.885-22.494 4.166c-4.451.825-8.549 2.566-11.893 5.686-4.584 4.277-7.187 10.363-7.065 16.636.06 3.124.866 6.292 1.433 9.354l3.222 17.395 4.57 24.669 5.057 27.304 4.748 25.633 3.624 19.56c.561 3.028 1.117 6.057 1.682 9.084 2.031 10.883 8.341 20.575 17.695 26.57 5.215 3.343 11.173 5.47 17.336 6.127.616.066 1.319.415 1.446 1.101l5.488 29.625.792 4.279c.091.489.045 1.117-.386 1.459-1.912 1.519-3.015 3.813-2.523 6.278.418 2.095 1.885 3.875 3.89 4.638 2.1.799 4.288.13 6.398-.261l9.036-1.674c1.916-.355 4.29-.497 5.991-1.516 4.634-2.775 3.55-9.728-1.476-11.298-.471-.147-.953-.534-1.048-1.048L-2.101 5.071-2.893.798C-3.242-1.09-.352-1.899 0 0" clip-path="url(#G)" style="fill:#000;fill-opacity:1;fill-rule:nonzero;stroke:none" transform="matrix(1.33333 0 0 -1.33333 851.175 526.213)"/><path d="M0 0c-4.575-27.645-18.636-48.342-31.406-46.229-12.771 2.113-19.415 26.237-14.841 53.882 4.575 27.645 18.636 48.342 31.407 46.229C-2.07 51.768 4.575 27.645 0 0" clip-path="url(#H)" style="fill:#8bb2d9;fill-opacity:1;fill-rule:nonzero;stroke:none" transform="matrix(1.33333 0 0 -1.33333 846.867 629.692)"/><path d="M0 0c-1.575-9.4-4.234-18.741-8.572-27.257-3.07-6.026-7.134-12.401-13.057-15.985-4.256-2.577-9.292-2.811-13.208.554-4.991 4.287-7.194 11.25-8.474 17.477-1.898 9.229-1.783 18.876-.611 28.191 1.211 9.634 3.677 19.29 7.703 28.145 2.964 6.519 6.874 13.295 12.658 17.724 3.958 3.03 9.042 4.533 13.557 1.77C-4.707 47.376-2.178 40.617-.7 34.911 1.591 26.064 1.793 16.701.976 7.639A107 107 0 0 0 0 0c-.309-1.889 2.582-2.701 2.893-.798 1.673 10.242 2.115 20.754.442 31.027-1.163 7.14-3.416 14.958-8.551 20.316-4.08 4.258-9.894 5.728-15.399 3.459-6.566-2.706-11.314-8.881-14.812-14.823-4.979-8.458-8.151-18.001-10.094-27.587-2.088-10.292-2.893-20.995-1.658-31.449.902-7.634 2.754-15.84 7.536-22.058 3.586-4.664 9.024-7.448 14.936-5.908 6.54 1.703 11.495 7.396 15.092 12.797C-4.357-27.129-.963-17.958 1.267-8.783A113 113 0 0 1 2.893-.798C3.209 1.091.319 1.903 0 0" clip-path="url(#I)" style="fill:#000;fill-opacity:1;fill-rule:nonzero;stroke:none" transform="matrix(1.33333 0 0 -1.33333 844.939 629.16)"/><path d="m0 0 19.901-3.686 2.874-.533c1.887-.349 2.696 2.541.797 2.893L3.672 2.36l-2.874.533C-1.09 3.242-1.899.352 0 0" clip-path="url(#J)" style="fill:#000;fill-opacity:1;fill-rule:nonzero;stroke:none" transform="matrix(1.33333 0 0 -1.33333 826.712 476.832)"/><path d="M0 0c-8.66 20.134-15.685 42.722-9.308 64.506 5.481 18.723 19.568 35.211 38.198 41.766 17.74 6.241 35.503.293 47.651-13.666 9.533-10.953 13.6-25.855 14.744-40.056 1.38-17.132-.806-34.363-4.715-51.036-1.552-6.616 8.638-9.44 10.192-2.81 7.639 32.577 10.891 73.597-12.348 100.907-13.159 15.464-33.613 23.348-53.538 18.305-21.778-5.512-39.223-22.527-47.673-42.993-11.075-26.822-3.293-54.767 7.67-80.258C-6.447-11.566 2.662-6.188 0 0" clip-path="url(#K)" style="fill:#b49d01;fill-opacity:1;fill-rule:nonzero;stroke:none" transform="matrix(1.33333 0 0 -1.33333 658.431 618.953)"/><path d="M0 0c-4.738 11.041-8.853 22.494-10.676 34.413-1.761 11.52-.932 23.261 3.297 34.17 6.979 18.002 22.917 33.923 42.405 37.333 9.986 1.747 20.243-.601 28.74-6.039 8.923-5.711 15.539-14.39 19.425-24.184 4.099-10.334 5.551-21.494 5.701-32.552.172-12.703-1.447-25.363-4.115-37.766-.501-2.331-1.504-4.871-1.025-7.28.323-1.629 1.324-3.037 2.655-4.004 2.499-1.813 6.202-1.993 8.584.121 1.501 1.332 1.897 3.199 2.323 5.071a250 250 0 0 1 1.47 6.902 222 222 0 0 1 2.388 14.529c2.527 19.414 2.39 40.026-4.781 58.506-7.261 18.711-22.148 34.483-42.043 39.404-19.753 4.887-40.057-2.841-54.662-16.293-7.154-6.59-13.04-14.606-17.265-23.363-5.115-10.601-7.572-22.205-7.375-33.968.2-11.992 2.91-23.826 6.746-35.144 1.909-5.634 3.995-11.302 6.491-16.705 1.598-3.46 5.528-4.421 8.72-2.467C.042-7.456 1.504-3.716.151-.358c-.712 1.768-3.615.996-2.893-.798 1.088-2.699-.574-6.086-3.715-6.204-1.764-.066-2.435 1.471-3.032 2.871a234 234 0 0 0-3.315 8.193c-4.164 10.89-7.539 22.236-8.71 33.873-1.173 11.654-.024 23.428 4.161 34.411 3.419 8.972 8.679 17.31 15.232 24.32 12.924 13.825 32.122 23.351 51.366 20.297 9.767-1.55 18.977-5.957 26.456-12.408 7.267-6.269 12.838-14.315 16.686-23.077 7.727-17.599 8.311-37.635 6.257-56.47a200 200 0 0 0-2.098-14.235A240 240 0 0 0 94.5.429c-.218-.966-.344-2.052-.763-2.956-1.115-2.409-4.409-2.201-6.086-.526-1.007 1.007-1.18 2.3-.875 3.645.689 3.049 1.362 6.099 1.945 9.17 2.265 11.934 3.529 24.109 3.101 36.264-.376 10.683-2.008 21.48-6.12 31.405-3.948 9.529-10.193 17.873-18.656 23.848-7.942 5.608-17.64 8.656-27.383 8.153-19.398-1.001-36.522-14.734-45.765-31.181-5.131-9.13-8.052-19.338-8.424-29.811-.415-11.674 2.138-23.297 5.853-34.303C-6.882 8.831-4.798 3.631-2.59-1.514-1.831-3.283.754-1.757 0 0" clip-path="url(#L)" style="fill:#000;fill-opacity:1;fill-rule:nonzero;stroke:none" transform="matrix(1.33333 0 0 -1.33333 660.158 617.944)"/><path d="M0 0s148.379 30.966 309.661 3.871l-52.9-183.216H67.093Z" clip-path="url(#M)" style="fill:#f5b241;fill-opacity:1;fill-rule:nonzero;stroke:none" transform="matrix(1.33333 0 0 -1.33333 510.697 632.341)"/><path d="M0 0c5.263 1.098 10.574 1.99 15.878 2.865 14.472 2.387 29.017 4.33 43.593 5.953a999 999 0 0 0 65.508 5.104c27.053 1.221 54.16 1.358 81.221.293 30.499-1.201 60.957-3.92 91.139-8.502a761 761 0 0 0 11.525-1.842l-1.048 1.845-5.294-18.337-12.621-43.709-15.253-52.83-13.253-45.9-4.336-15.017c-.666-2.308-1.676-4.74-2.055-7.117-.016-.102-.059-.206-.088-.306l1.446 1.101H74.459c-2.411 0-5.046.302-7.444 0-.103-.013-.216 0-.321 0l1.447-1.101-6.696 17.897-16.07 42.959-19.371 51.778-16.729 44.72C6.57-12.916 3.94-5.653 1.159 1.548l-.111.297c-.671 1.792-3.572 1.016-2.893-.797L4.85-16.85l16.071-42.959 19.37-51.778 16.73-44.72c2.705-7.229 5.335-14.492 8.116-21.693l.111-.298c.235-.627.744-1.101 1.446-1.101h166.418c7.628 0 15.304-.253 22.929 0 .107.003.214 0 .321 0a1.53 1.53 0 0 1 1.446 1.101l5.295 18.337 12.62 43.71 15.254 52.829 13.253 45.9c2.125 7.36 4.535 14.699 6.39 22.134.026.103.059.204.089.306.208.72-.253 1.712-1.048 1.846-30.488 5.108-61.279 8.329-92.147 9.934-27.74 1.443-55.545 1.595-83.303.598a1003 1003 0 0 1-67.944-4.746c-15.711-1.637-31.388-3.638-46.989-6.113A601 601 0 0 1 5.567 4.111c-2.023-.369-4.122-.639-6.113-1.166-.082-.022-.168-.035-.252-.052C-2.686 2.499-1.887-.393 0 0" clip-path="url(#N)" style="fill:#000;fill-opacity:1;fill-rule:nonzero;stroke:none" transform="matrix(1.33333 0 0 -1.33333 511.229 634.27)"/><path d="M0 0c5.798 1.095 11.635 2 17.468 2.883 15.407 2.332 30.879 4.244 46.381 5.822 22.046 2.243 44.166 3.793 66.313 4.558 25.75.89 51.552.725 77.271-.887 26.748-1.676 53.451-4.904 79.654-10.604q4.763-1.037 9.5-2.186c1.875-.454 2.676 2.438.797 2.893-26.04 6.309-52.668 10.042-79.362 12.148-26.107 2.06-52.33 2.546-78.506 1.911-22.89-.555-45.759-1.973-68.552-4.134-16.661-1.579-33.288-3.551-49.848-5.968A740 740 0 0 1 6.236 4.12c-2.235-.372-4.544-.638-6.749-1.174-.093-.023-.19-.035-.285-.053C-2.692 2.535-1.89-.357 0 0" clip-path="url(#O)" style="fill:#000;fill-opacity:1;fill-rule:nonzero;stroke:none" transform="matrix(1.33333 0 0 -1.33333 518.586 656.115)"/><path d="M0 0c-6.396 0-11.581 5.185-11.581 11.581v21.508c0 6.396 5.185 11.581 11.581 11.581s11.581-5.185 11.581-11.581V11.581C11.581 5.185 6.396 0 0 0" clip-path="url(#P)" style="fill:#f7583b;fill-opacity:1;fill-rule:nonzero;stroke:none" transform="matrix(1.33333 0 0 -1.33333 653.657 667.238)"/><path d="M0 0c-4.881 0-9.145 3.623-9.955 8.435-.352 2.095-.126 4.392-.126 6.502 0 5.548-.071 11.1 0 16.648.062 4.888 3.573 9.14 8.435 9.958 4.656.784 9.429-1.95 11.081-6.381.858-2.3.646-4.807.646-7.217V17.533c0-2.48.031-4.963 0-7.443A10.196 10.196 0 0 0 0 0c-1.929-.028-1.934-3.029 0-3 5.732.084 10.871 3.807 12.537 9.337.785 2.607.544 5.491.544 8.183v11.566c0 2.604.228 5.369-.233 7.946-.984 5.49-5.648 9.788-11.137 10.512-5.407.714-10.914-2.117-13.369-7.022-1.482-2.962-1.423-6.008-1.423-9.201V16.944c0-2.936-.278-6.056.179-8.973C-11.922 1.725-6.303-3 0-3c1.93 0 1.934 3 0 3" clip-path="url(#Q)" style="fill:#000;fill-opacity:1;fill-rule:nonzero;stroke:none" transform="matrix(1.33333 0 0 -1.33333 653.657 665.238)"/><path d="M0 0c-6.396 0-11.581 5.185-11.581 11.581v21.508c0 6.396 5.185 11.581 11.581 11.581s11.581-5.185 11.581-11.581V11.581C11.581 5.185 6.396 0 0 0" clip-path="url(#R)" style="fill:#f7583b;fill-opacity:1;fill-rule:nonzero;stroke:none" transform="matrix(1.33333 0 0 -1.33333 780.497 667.238)"/><path d="M0 0c-4.881 0-9.145 3.623-9.955 8.435-.352 2.095-.126 4.392-.126 6.502 0 5.548-.071 11.1 0 16.648.062 4.888 3.573 9.14 8.435 9.958 4.656.784 9.429-1.95 11.081-6.381.858-2.3.646-4.807.646-7.217V17.533c0-2.48.031-4.963 0-7.443A10.196 10.196 0 0 0 0 0c-1.929-.028-1.934-3.029 0-3 5.732.084 10.871 3.807 12.537 9.337.785 2.607.544 5.491.544 8.183v11.566c0 2.604.228 5.369-.234 7.946-.983 5.49-5.647 9.788-11.136 10.512-5.407.714-10.914-2.117-13.369-7.022-1.482-2.962-1.423-6.008-1.423-9.201V16.944c0-2.936-.278-6.056.179-8.973C-11.922 1.725-6.303-3 0-3c1.93 0 1.934 3 0 3" clip-path="url(#S)" style="fill:#000;fill-opacity:1;fill-rule:nonzero;stroke:none" transform="matrix(1.33333 0 0 -1.33333 780.497 665.238)"/><path d="M0 0c8.283 2.657 13.233 10.214 15.951 18.068.632 1.828-2.265 2.613-2.893.797C10.703 12.058 6.418 5.208-.798 2.893-2.629 2.305-1.846-.592 0 0" clip-path="url(#T)" style="fill:#000;fill-opacity:1;fill-rule:nonzero;stroke:none" transform="matrix(1.33333 0 0 -1.33333 547.665 564.51)"/><path d="M0 0c-.747-16.962-15.103-30.107-32.065-29.359S-62.171-14.256-61.424 2.705c.747 16.962 15.103 30.107 32.065 29.36S.747 16.962 0 0" clip-path="url(#U)" style="fill:#fef6e3;fill-opacity:1;fill-rule:nonzero;stroke:none" transform="matrix(1.33333 0 0 -1.33333 715.18 722.014)"/><path d="M0 0c-.603-12.137-8.84-22.945-20.481-26.565-11.662-3.626-24.751.524-32.093 10.314-7.377 9.835-7.784 23.539-.999 33.792 6.757 10.209 19.61 15.164 31.477 12.181C-10.48 26.802-1.441 16.655-.148 4.693.02 3.133.06 1.567 0 0c-.074-1.931 2.926-1.927 3 0 .514 13.391-7.456 25.944-19.829 31.118-12.43 5.198-27.258 1.879-36.282-8.125-9.109-10.097-10.914-25.231-4.363-37.166 6.513-11.866 20.031-18.352 33.357-16.307C-11.042-28.474-.183-18.026 2.386-5.06 2.717-3.392 2.916-1.698 3 0 3.096 1.93.096 1.925 0 0" clip-path="url(#V)" style="fill:#000;fill-opacity:1;fill-rule:nonzero;stroke:none" transform="matrix(1.33333 0 0 -1.33333 713.18 722.014)"/><path d="m0 0 7.325-34.556 14.221-.242-12.674-8.289 5.807-34.104 35.729 16.504L40.744-.641z" clip-path="url(#W)" style="fill:#000;fill-opacity:1;fill-rule:nonzero;stroke:none" transform="matrix(1.33333 0 0 -1.33333 656.9 671.238)"/><path d="M0 0a5.17 5.17 0 1 0-10.332.456A5.17 5.17 0 0 0 0 0" clip-path="url(#X)" style="fill:#fff;fill-opacity:1;fill-rule:nonzero;stroke:none" transform="matrix(1.33333 0 0 -1.33333 701.763 711.424)"/><path d="M0 0a3.516 3.516 0 1 0-7.025.309A3.516 3.516 0 0 0 0 0" clip-path="url(#Y)" style="fill:#fff;fill-opacity:1;fill-rule:nonzero;stroke:none" transform="matrix(1.33333 0 0 -1.33333 692.746 728.14)"/><path d="M0 0c-.747-16.962-15.103-30.107-32.065-29.359S-62.171-14.256-61.424 2.705c.747 16.962 15.103 30.107 32.065 29.36S.747 16.962 0 0" clip-path="url(#Z)" style="fill:#fef6e3;fill-opacity:1;fill-rule:nonzero;stroke:none" transform="matrix(1.33333 0 0 -1.33333 778.192 711.968)"/><path d="M0 0c-.603-12.137-8.84-22.945-20.481-26.565-11.662-3.626-24.751.524-32.093 10.314-7.377 9.835-7.784 23.539-.999 33.792 6.757 10.209 19.61 15.164 31.477 12.181C-10.48 26.802-1.441 16.655-.148 4.693.02 3.133.06 1.567 0 0c-.074-1.931 2.926-1.927 3 0 .514 13.391-7.456 25.944-19.829 31.118-12.43 5.198-27.258 1.879-36.282-8.125-9.109-10.097-10.914-25.231-4.363-37.166 6.513-11.866 20.031-18.352 33.357-16.307C-11.042-28.474-.183-18.026 2.386-5.06 2.717-3.392 2.916-1.698 3 0 3.096 1.93.096 1.925 0 0" clip-path="url(#aa)" style="fill:#000;fill-opacity:1;fill-rule:nonzero;stroke:none" transform="matrix(1.33333 0 0 -1.33333 776.192 711.968)"/><path d="m0 0 7.325-34.556 14.221-.242-12.674-8.289 5.807-34.104 35.729 16.504L40.744-.641z" clip-path="url(#ab)" style="fill:#000;fill-opacity:1;fill-rule:nonzero;stroke:none" transform="matrix(1.33333 0 0 -1.33333 719.91 661.192)"/><path d="M0 0a5.17 5.17 0 1 0-10.332.456A5.17 5.17 0 0 0 0 0" clip-path="url(#ac)" style="fill:#fff;fill-opacity:1;fill-rule:nonzero;stroke:none" transform="matrix(1.33333 0 0 -1.33333 767.644 700.802)"/><path d="M0 0a3.516 3.516 0 1 0-7.025.309A3.516 3.516 0 0 0 0 0" clip-path="url(#ad)" style="fill:#fff;fill-opacity:1;fill-rule:nonzero;stroke:none" transform="matrix(1.33333 0 0 -1.33333 758.627 717.517)"/><path d="m0 0 .397-10.824c.06-1.64.106-3.281.18-4.921.069-1.525.242-3.019 1.311-4.2 1.794-1.983 4.911-2.032 7.382-2.21a61 61 0 0 1 8.5-.016 66.8 66.8 0 0 1 31.299 10.305C54.394-8.463 59.222-4.297 63.318.517c1.244 1.462-.868 3.594-2.122 2.121-6.695-7.871-15.365-13.974-25.01-17.684-4.685-1.802-9.591-3.089-14.569-3.747-4.95-.654-10.388-.952-15.327-.05-1.434.262-2.483.726-2.67 2.289-.206 1.718-.142 3.509-.205 5.238L3 0C2.929 1.925-.071 1.934 0 0" clip-path="url(#ae)" style="fill:#000;fill-opacity:1;fill-rule:nonzero;stroke:none" transform="matrix(1.33333 0 0 -1.33333 684.412 757.868)"/><path d="M0 0c1.794-5.486 7.064-9.439 12.843-9.582.811-.021 1.5.703 1.5 1.5 0 .829-.687 1.479-1.5 1.5q-.453.01-.903.053c-.25.024-.306.032-.657.1q-.887.174-1.739.478c-.48.171-.825.325-1.366.616q-.799.43-1.53.966C4.983-3.148 3.54-1.182 2.893.798c-.252.769-1.038 1.269-1.845 1.047C.293 1.638-.253.773 0 0" clip-path="url(#af)" style="fill:#000;fill-opacity:1;fill-rule:nonzero;stroke:none" transform="matrix(1.33333 0 0 -1.33333 761.776 747.84)"/><path d="M0 0c5.788-4.781 14.414-4.822 20.264-.131.632.507.529 1.592 0 2.121-.625.625-1.487.509-2.121 0-4.484-3.596-11.597-3.523-16.022.131-.624.516-1.51.611-2.121 0C-.531 1.59-.628.518 0 0" clip-path="url(#ag)" style="fill:#000;fill-opacity:1;fill-rule:nonzero;stroke:none" transform="matrix(1.33333 0 0 -1.33333 713.629 806.574)"/><path d="M0 0c9.93-6.89 14.013-20.817 10.186-32.142-1.054-3.118-3.356-6.695-.219-9.432 1.183-1.031 2.681-1.615 3.999-2.445a22.4 22.4 0 0 0 3.229-2.476c4.189-3.859 6.954-9.07 8.202-14.6 1.402-6.218.799-12.917-2.235-18.572-.491-.914-.024-1.856.896-2.204 13.019-4.917 20.678-18.772 18.878-32.406a31.2 31.2 0 0 0-3.973-11.597c-.411-.705-.16-1.636.538-2.053 12.766-7.617 18.696-24.431 14.297-38.495-.577-1.847 2.318-2.637 2.893-.798 3.761 12.026.528 25.721-7.674 35.185a33 33 0 0 1-8.002 6.699l.538-2.053c7.918 13.588 5.422 31.501-6.302 42.084a32.7 32.7 0 0 1-10.395 6.327l.896-2.203c5.782 10.776 3.797 24.643-3.816 34.013a26.6 26.6 0 0 1-6.591 5.824c-1.156.718-3.336 1.346-3.914 2.67-.643 1.475.914 3.711 1.418 5.084 2.196 5.98 2.256 12.69.612 18.813C11.59-7.814 7.462-1.536 1.514 2.59-.076 3.694-1.577 1.094 0 0" clip-path="url(#ah)" style="fill:#000;fill-opacity:1;fill-rule:nonzero;stroke:none" transform="matrix(1.33333 0 0 -1.33333 555.71 649.112)"/><path d="M0 0c6.609-9.781 5.601-24.081-1.924-33.113-1.946-2.336-4.927-4.633-3.484-8.039.612-1.445 1.807-2.501 2.741-3.731a22.5 22.5 0 0 0 2.112-3.401c2.496-4.899 3.202-10.688 2.442-16.1-.882-6.283-3.746-12.247-8.503-16.499-.58-.518-.58-1.603 0-2.121 10.353-9.232 12.228-24.791 5.545-36.709a31.2 31.2 0 0 0-7.273-8.736c-.675-.562-.46-1.533 0-2.122 8.894-11.38 7.998-28.744-.626-39.971-.497-.647-.094-1.673.538-2.052.769-.46 1.562-.101 2.053.538 7.419 9.658 9.306 23.395 5.084 34.787a32.7 32.7 0 0 1-4.928 8.82v-2.122c11.552 9.617 15.391 26.377 8.97 39.978a30.5 30.5 0 0 1-7.242 9.71v-2.121C4.259-75.18 7.326-61.745 3.672-50.7c-.9 2.721-2.202 5.306-3.943 7.587-.802 1.051-2.703 2.537-2.513 3.987.192 1.46 1.972 2.694 2.868 3.757 4.072 4.828 6.424 10.842 7.103 17.094C7.93-11.426 6.472-4.23 2.59 1.514 1.515 3.105-1.085 1.606 0 0" clip-path="url(#ai)" style="fill:#000;fill-opacity:1;fill-rule:nonzero;stroke:none" transform="matrix(1.33333 0 0 -1.33333 838.942 642.512)"/></svg>