<svg xmlns="http://www.w3.org/2000/svg" width="1440" height="1440" viewBox="0 0 1440 1440"><defs><clipPath id="a" clipPathUnits="userSpaceOnUse"><path d="M-493.037 758.743h1080v-1080h-1080Z"/></clipPath><clipPath id="b" clipPathUnits="userSpaceOnUse"><path d="M-493.037 757.243h1080v-1080h-1080Z"/></clipPath><clipPath id="c" clipPathUnits="userSpaceOnUse"><path d="M-587.258 742.743h1080v-1080h-1080Z"/></clipPath><clipPath id="d" clipPathUnits="userSpaceOnUse"><path d="M-587.258 741.243h1080v-1080h-1080Z"/></clipPath><clipPath id="e" clipPathUnits="userSpaceOnUse"><path d="M-693.783 694.134h1080v-1080h-1080Z"/></clipPath><clipPath id="f" clipPathUnits="userSpaceOnUse"><path d="M-693.783 692.634h1080v-1080h-1080Z"/></clipPath><clipPath id="g" clipPathUnits="userSpaceOnUse"><path d="M-444.584 591.358h1080v-1080h-1080Z"/></clipPath><clipPath id="h" clipPathUnits="userSpaceOnUse"><path d="M-403.844 591.357h1080v-1080h-1080Z"/></clipPath><clipPath id="i" clipPathUnits="userSpaceOnUse"><path d="M-682.584 591.358h1080v-1080h-1080Z"/></clipPath><clipPath id="j" clipPathUnits="userSpaceOnUse"><path d="M-641.844 591.357h1080v-1080h-1080Z"/></clipPath><clipPath id="k" clipPathUnits="userSpaceOnUse"><path d="M-456.296 648.094h1080v-1080h-1080Z"/></clipPath><clipPath id="l" clipPathUnits="userSpaceOnUse"><path d="M-523.398 643.877h1080v-1080h-1080Z"/></clipPath><clipPath id="m" clipPathUnits="userSpaceOnUse"><path d="M-585.636 682.727h1080v-1080h-1080Z"/></clipPath><clipPath id="n" clipPathUnits="userSpaceOnUse"><path d="M-592.382 660.238h1080v-1080h-1080Z"/></clipPath><clipPath id="o" clipPathUnits="userSpaceOnUse"><path d="M-627.324 648.094h1080v-1080h-1080Z"/></clipPath><clipPath id="p" clipPathUnits="userSpaceOnUse"><path d="M-560.917 360.268h1080v-1080h-1080Z"/></clipPath><clipPath id="q" clipPathUnits="userSpaceOnUse"><path d="M-561.977 359.207h1080v-1080h-1080Z"/></clipPath><clipPath id="r" clipPathUnits="userSpaceOnUse"><path d="M-540.269 331.586h1080v-1080h-1080Z"/></clipPath><clipPath id="s" clipPathUnits="userSpaceOnUse"><path d="M-541.026 330.291h1080v-1080h-1080Z"/></clipPath><clipPath id="t" clipPathUnits="userSpaceOnUse"><path d="M-520.431 494.75h1080v-1080h-1080Z"/></clipPath><clipPath id="u" clipPathUnits="userSpaceOnUse"><path d="M-520.431 493.25h1080v-1080h-1080Z"/></clipPath><clipPath id="v" clipPathUnits="userSpaceOnUse"><path d="M-37.945-20.456v-39.391c0-9.348 7.578-16.926 16.925-16.926s16.926 7.578 16.926 16.926v39.391c0 9.347-7.578 16.925-16.926 16.925s-16.925-7.578-16.925-16.925"/></clipPath><clipPath id="w" clipPathUnits="userSpaceOnUse"><path d="M3.462 10.865v-39.39c0-9.349 7.578-16.927 16.925-16.927s16.926 7.578 16.926 16.926v39.391c0 9.347-7.578 16.925-16.926 16.925S3.462 20.212 3.462 10.865"/></clipPath><clipPath id="x" clipPathUnits="userSpaceOnUse"><path d="M-3.447 25.182v-39.39c0-9.349 7.578-16.927 16.925-16.927s16.926 7.578 16.926 16.926v39.391c0 9.347-7.578 16.925-16.926 16.925S-3.447 34.53-3.447 25.182"/></clipPath><clipPath id="y" clipPathUnits="userSpaceOnUse"><path d="M-563.515 494.134h1080v-1080h-1080Z"/></clipPath><clipPath id="z" clipPathUnits="userSpaceOnUse"><path d="M-563.515 492.634h1080v-1080h-1080Z"/></clipPath><clipPath id="A" clipPathUnits="userSpaceOnUse"><path d="M-37.945-20.458v-39.39c0-9.347 7.578-16.925 16.925-16.925 9.35 0 16.927 7.578 16.927 16.925v39.39c0 9.35-7.578 16.927-16.927 16.927-9.347 0-16.925-7.578-16.925-16.927"/></clipPath><clipPath id="B" clipPathUnits="userSpaceOnUse"><path d="M3.462 10.864v-39.39c0-9.347 7.578-16.925 16.925-16.925 9.35 0 16.927 7.578 16.927 16.925v39.39c0 9.349-7.578 16.927-16.927 16.927-9.347 0-16.925-7.578-16.925-16.927"/></clipPath><clipPath id="C" clipPathUnits="userSpaceOnUse"><path d="M-3.447 25.181v-39.39c0-9.347 7.578-16.925 16.925-16.925 9.35 0 16.927 7.578 16.927 16.925v39.39c0 9.349-7.578 16.927-16.927 16.927-9.347 0-16.925-7.578-16.925-16.927"/></clipPath><clipPath id="D" clipPathUnits="userSpaceOnUse"><path d="M-569.362 513.83h1080v-1080h-1080Z"/></clipPath><clipPath id="E" clipPathUnits="userSpaceOnUse"><path d="M-567.862 513.83h1080v-1080h-1080Z"/></clipPath><clipPath id="F" clipPathUnits="userSpaceOnUse"><path d="M-555.206 513.83h1080v-1080h-1080Z"/></clipPath><clipPath id="G" clipPathUnits="userSpaceOnUse"><path d="M-508.83 535.544h1080v-1080h-1080Z"/></clipPath><clipPath id="H" clipPathUnits="userSpaceOnUse"><path d="M-445.347 388.763h1080v-1080h-1080Z"/></clipPath><clipPath id="I" clipPathUnits="userSpaceOnUse"><path d="M-444.286 389.824h1080v-1080h-1080Z"/></clipPath><clipPath id="J" clipPathUnits="userSpaceOnUse"><path d="M-664.835 489.408h1080v-1080h-1080Z"/></clipPath><clipPath id="K" clipPathUnits="userSpaceOnUse"><path d="M-665.592 488.112h1080v-1080h-1080Z"/></clipPath></defs><path d="M0 0h1080v1080H0Z" style="fill:#feffff;fill-opacity:1;fill-rule:nonzero;stroke:none" transform="matrix(1.33333 0 0 -1.33333 0 1440)"/><path d="M0 0c-60.903 0-112.153 45.617-119.212 106.11l-16.089 137.871c-3.966 33.991 6.808 68.146 29.561 93.709 22.753 25.562 55.43 40.223 89.652 40.223h126.397c34.222 0 66.898-14.661 89.651-40.223s33.528-59.717 29.562-93.709L213.433 106.11C206.374 45.617 155.124 0 94.221 0Z" clip-path="url(#a)" style="fill:#fe87e3;fill-opacity:1;fill-rule:nonzero;stroke:none" transform="matrix(1.33333 0 0 -1.33333 657.383 1011.658)"/><path d="M0 0c-27.852.061-55.179 9.945-76.463 27.957-21.143 17.893-35.53 42.912-40.305 70.2-1.804 10.312-2.625 20.857-3.838 31.246l-6.654 57.024-5.622 48.179c-.33 2.833-.675 5.665-.99 8.501a119.35 119.35 0 0 0 4.966 49.578c10.159 31.638 33.679 57.922 63.909 71.664 14.566 6.621 30.502 10.218 46.496 10.54 3.472.07 6.949.024 10.422.024h117.681c11.977-.003 23.85-1.674 35.314-5.173 31.549-9.63 58.069-32.48 72.318-62.223 7.189-15.007 11.14-31.54 11.558-48.171.174-6.901-.405-13.738-1.203-20.578l-5.004-42.88-6.814-58.39c-1.269-10.875-2.53-21.751-3.807-32.625-2.982-25.388-14.171-49.428-31.793-67.962C161.188 16.947 135.365 3.917 107.968.782 101.619.055 95.27 0 88.895 0zc-1.93 0-1.934-3 0-3h90.131c7.499 0 14.949.271 22.384 1.384 13.787 2.064 27.2 6.576 39.462 13.206 24.178 13.073 43.53 34.359 54.212 59.684 4.534 10.748 7.42 22.058 8.779 33.637q.645 5.507 1.285 11.013l6.068 51.997 6.531 55.963c1.617 13.862 3.701 27.665 2.624 41.668-2.562 33.336-19.078 64.824-45.23 85.698-21.807 17.406-48.99 26.663-76.846 26.663H11.023c-11.596 0-23.348.502-34.931-.255-32.47-2.125-63.418-17.527-84.546-42.305-21.769-25.53-32.167-59.536-28.347-92.873 1.134-9.897 2.31-19.79 3.464-29.685l6.852-58.716 5.259-45.065c.638-5.471 1.312-10.923 2.476-16.317a121 121 0 0 1 15.648-38.527c14.558-23.276 36.946-41.204 62.839-50.324C-27.35-.703-13.685-2.97 0-3c1.931-.004 1.933 2.996 0 3" clip-path="url(#b)" style="fill:#000;fill-opacity:1;fill-rule:nonzero;stroke:none" transform="matrix(1.33333 0 0 -1.33333 657.383 1009.658)"/><path d="M0 0h-94.221c-52.785 0-97.202 39.535-103.32 91.965l-16.088 137.87c-7.213 61.808 41.093 116.078 103.32 116.078H16.088c62.228 0 110.533-54.27 103.321-116.078L103.32 91.965C97.202 39.535 52.785 0 0 0" clip-path="url(#c)" style="fill:#ffd79c;fill-opacity:1;fill-rule:nonzero;stroke:none" transform="matrix(1.33333 0 0 -1.33333 783.01 990.324)"/><path d="M0 0h-88.382c-5.833 0-11.642-.004-17.454.644-13.558 1.511-26.796 5.828-38.673 12.527-23.473 13.238-41.145 35.631-48.415 61.595-3.145 11.231-3.975 23.051-5.323 34.6l-6.319 54.154-6.001 51.431-1.454 12.455c-1.089 9.334-1.131 18.761.257 28.069 3.88 26.017 17.958 49.934 38.739 66.049 18.234 14.141 40.669 21.389 63.669 21.389h95.402c10.014 0 20.028.02 30.041 0 26.771-.053 52.743-10.592 71.845-29.381 18.903-18.593 30.108-44.229 30.668-70.76.24-11.356-1.67-22.822-2.984-34.079l-6.352-54.442-5.956-51.037-1.4-12c-1.143-9.789-3.572-19.405-7.397-28.496C84.108 37.989 63.822 17.848 38.99 7.675 26.62 2.607 13.362.031 0 0c-1.93-.004-1.934-3.004 0-3 27.579.064 54.414 11.003 74.076 30.371 17.29 17.031 27.992 39.582 30.807 63.633 1.342 11.464 2.676 22.929 4.014 34.393l6.799 58.265 4.86 41.655c.751 6.433 1.242 12.864.987 19.352-.532 13.5-3.696 26.808-9.247 39.121-10.864 24.099-30.9 43.62-55.252 53.884-12.634 5.325-26.268 8.106-39.977 8.235-3.103.029-6.208.004-9.312.004h-117.331c-10.22 0-20.401-1.315-30.225-4.164-25.553-7.41-47.713-24.698-61.298-47.552-11.925-20.06-16.635-43.541-13.936-66.669l4.16-35.652 6.809-58.351 4.729-40.52c.824-7.062 2.003-14.039 4.051-20.865 3.92-13.072 10.411-25.29 18.971-35.911 17.052-21.158 42.109-35.034 69.05-38.416C-101.038-2.968-94.815-3-88.558-3H0c1.93 0 1.934 3 0 3" clip-path="url(#d)" style="fill:#000;fill-opacity:1;fill-rule:nonzero;stroke:none" transform="matrix(1.33333 0 0 -1.33333 783.01 988.324)"/><path d="M0 0h-307.565c-17.181 0-31.109 13.928-31.109 31.109s13.928 31.108 31.109 31.108H0c17.181 0 31.109-13.927 31.109-31.108S17.181 0 0 0" clip-path="url(#e)" style="fill:#fe87e3;fill-opacity:1;fill-rule:nonzero;stroke:none" transform="matrix(1.33333 0 0 -1.33333 925.044 925.512)"/><path d="M0 0h-298.658c-5.101 0-10.583-.41-15.572.752-11.456 2.667-20.404 12.091-22.496 23.664-2.089 11.55 3.149 23.601 12.979 29.994 5.095 3.314 10.896 4.807 16.935 4.807h292.777c4.592 0 9.184.013 13.777 0 8.364-.022 16.329-3.382 22.031-9.541 7.995-8.636 10.117-21.73 5.149-32.425C22.059 6.782 11.512.094 0 0c-1.93-.016-1.934-3.016 0-3 11.749.096 22.797 6.461 28.517 16.784 5.68 10.253 5.382 23.174-.864 33.112-5.962 9.488-16.479 15.247-27.658 15.321-1.037.007-2.074 0-3.111 0H-290.76c-5.378 0-10.755.005-16.133 0-6.349-.005-12.554-1.557-17.96-4.955-9.734-6.117-15.689-17.182-15.304-28.691.388-11.607 7.105-22.424 17.409-27.826C-317.743-1.88-312.278-3-306.66-3H0c1.93 0 1.934 3 0 3" clip-path="url(#f)" style="fill:#000;fill-opacity:1;fill-rule:nonzero;stroke:none" transform="matrix(1.33333 0 0 -1.33333 925.044 923.512)"/><path d="M0 0c-11.925-5.607-16.471-10.153-22.078-22.078C-27.685-10.153-32.23-5.607-44.155 0c11.925 5.607 16.47 10.152 22.077 22.078C-16.471 10.152-11.925 5.607 0 0" clip-path="url(#g)" style="fill:#fef6e3;fill-opacity:1;fill-rule:nonzero;stroke:none" transform="matrix(1.33333 0 0 -1.33333 592.779 788.477)"/><path d="M0 0c9.302-4.744 13.919-9.362 18.662-18.663C23.406-9.362 28.024-4.744 37.325 0c-9.301 4.743-13.919 9.36-18.663 18.662C13.919 9.36 9.302 4.743 0 0m18.662-25.604-1.357 2.887C11.815-11.04 7.623-6.848-4.054-1.357L-6.94 0l2.886 1.357c11.677 5.49 15.869 9.682 21.359 21.359l1.357 2.887 1.358-2.887c5.491-11.677 9.682-15.869 21.359-21.359L44.266 0l-2.887-1.357C29.702-6.848 25.51-11.04 20.02-22.717Z" clip-path="url(#h)" style="fill:#000;fill-opacity:1;fill-rule:nonzero;stroke:none" transform="matrix(1.33333 0 0 -1.33333 538.459 788.477)"/><path d="M0 0c-11.925-5.607-16.471-10.153-22.078-22.078C-27.685-10.153-32.23-5.607-44.155 0c11.925 5.607 16.47 10.152 22.077 22.078C-16.471 10.152-11.925 5.607 0 0" clip-path="url(#i)" style="fill:#fef6e3;fill-opacity:1;fill-rule:nonzero;stroke:none" transform="matrix(1.33333 0 0 -1.33333 910.112 788.477)"/><path d="M0 0c9.302-4.744 13.919-9.362 18.662-18.663C23.406-9.362 28.024-4.744 37.325 0c-9.301 4.743-13.919 9.36-18.663 18.662C13.919 9.36 9.302 4.743 0 0m18.662-25.604-1.357 2.887C11.815-11.04 7.623-6.848-4.054-1.357L-6.94 0l2.886 1.357c11.677 5.49 15.869 9.682 21.359 21.359l1.357 2.887 1.358-2.887c5.491-11.677 9.682-15.869 21.359-21.359L44.266 0l-2.887-1.357C29.702-6.848 25.51-11.04 20.02-22.717Z" clip-path="url(#j)" style="fill:#000;fill-opacity:1;fill-rule:nonzero;stroke:none" transform="matrix(1.33333 0 0 -1.33333 855.792 788.477)"/><path d="M1.629-22.49v-16.359h34.64v16.36h-6.867V-.001H8.38v-22.488Zm56.443-16.92h4.676q10.113 0 14.719 4.781 4.615 4.773 4.617 15.012 0 10.23-4.64 15.21Q72.811.563 62.747.563h-4.676q-10.055 0-14.73-4.97-4.665-4.98-4.664-15.21 0-10.239 4.64-15.012 4.64-4.78 14.754-4.781m.739 18.492v6.527q0 .73.421 1.184.423.447 1.125.445.704.002 1.172-.445c.32-.305.48-.697.48-1.184v-6.527q0-.666-.48-1.113-.469-.457-1.172-.457-.702 0-1.125.457-.42.447-.421 1.113m71.015-17.93V0H110.42v-14.063l-2.473 6.528h-1.465l-2.578-6.528V0H84.557v-38.848h19.347l2.578 7.477h1.465l2.473-7.477zM153.996 0l-.34-6.012h-3.433L149.895 0h-17.72c.376-6.146 1.143-12.451 2.31-18.914q1.744-9.702 3.199-14.824l1.406-5.11h26.66q.608 2.018 1.559 5.614.957 3.6 2.812 13.804Q171.984-9.22 172.664 0zm-2.93-19.957-.445 8.766h2.637l-.387-8.766zm21.592-2.531v-16.36h34.64v16.36h-6.866V-.001h-21.024v-22.488Zm56.444-16.922h4.675q10.113 0 14.72 4.781 4.614 4.773 4.616 15.012 0 10.23-4.64 15.21-4.632 4.97-14.696 4.97h-4.675q-10.056 0-14.73-4.97-4.667-4.98-4.665-15.21 0-10.239 4.64-15.012 4.64-4.78 14.755-4.781m.738 18.492v6.527q0 .73.422 1.184.421.447 1.125.445.702.002 1.172-.445c.319-.305.48-.697.48-1.184v-6.527q0-.666-.48-1.113-.47-.457-1.172-.457-.704 0-1.125.457-.422.447-.422 1.113m0 0" aria-label="TOMATO" style="fill:#fef6e3;fill-opacity:1;fill-rule:nonzero;stroke:none" transform="translate(550.637 910.302)scale(1.33333)"/><path d="M0 0v-22.489h21.027V0h6.859v16.361H-6.747V0Z" style="fill:none;stroke:#000;stroke-width:2;stroke-linecap:butt;stroke-linejoin:miter;stroke-miterlimit:10;stroke-dasharray:none;stroke-opacity:1" transform="matrix(1.33333 0 0 -1.33333 561.806 880.317)"/><path d="M0 0q-4.638-4.78-4.638-15.011 0-10.233 4.666-15.208 4.667-4.976 14.73-4.976h4.667q10.064 0 14.702 4.976 4.639 4.975 4.639 15.208 0 10.232-4.611 15.011t-14.73 4.779h-4.667Q4.638 4.779 0 0Zm15.911-12.594q.42.45 1.125.45.702 0 1.18-.45.477-.45.478-1.124v-6.522q0-.732-.478-1.18-.478-.45-1.18-.45-.704 0-1.125.45-.422.448-.422 1.18v6.522q0 .674.422 1.124z" clip-path="url(#k)" style="fill:none;stroke:#000;stroke-width:2;stroke-linecap:butt;stroke-linejoin:miter;stroke-miterlimit:10;stroke-dasharray:none;stroke-opacity:1" transform="matrix(1.33333 0 0 -1.33333 608.395 864.125)"/><path d="m0 0-2.474-7.478h-1.462L-6.522 0h-19.34v-38.85h19.34v14.056l2.586-6.522h1.462L0-24.794V-38.85h19.397V0Z" clip-path="url(#l)" style="fill:none;stroke:#000;stroke-width:2;stroke-linecap:butt;stroke-linejoin:miter;stroke-miterlimit:10;stroke-dasharray:none;stroke-opacity:1" transform="matrix(1.33333 0 0 -1.33333 697.863 858.503)"/><path d="M0 0q-.675 9.22-2.53 19.425-1.856 10.204-2.811 13.803-.957 3.596-1.574 5.622h-26.649l-1.406-5.117q-1.463-5.117-3.205-14.814Q-39.918 9.219-40.48 0h17.71l.337 6.016h3.43L-18.666 0Zm-19.79 19.959.394-8.771h-2.643l.45 8.771z" clip-path="url(#m)" style="fill:none;stroke:#000;stroke-width:2;stroke-linecap:butt;stroke-linejoin:miter;stroke-miterlimit:10;stroke-dasharray:none;stroke-opacity:1" transform="matrix(1.33333 0 0 -1.33333 780.848 910.302)"/><path d="M0 0v-22.489h21.027V0h6.859v16.361H-6.747V0Z" clip-path="url(#n)" style="fill:none;stroke:#000;stroke-width:2;stroke-linecap:butt;stroke-linejoin:miter;stroke-miterlimit:10;stroke-dasharray:none;stroke-opacity:1" transform="matrix(1.33333 0 0 -1.33333 789.842 880.317)"/><path d="M0 0q-4.638-4.78-4.638-15.011 0-10.233 4.666-15.208 4.667-4.976 14.73-4.976h4.667q10.064 0 14.702 4.976 4.638 4.975 4.638 15.208 0 10.232-4.61 15.011t-14.73 4.779h-4.667Q4.638 4.779 0 0Zm15.911-12.594q.42.45 1.125.45.702 0 1.18-.45.477-.45.478-1.124v-6.522q0-.732-.478-1.18-.478-.45-1.18-.45-.704 0-1.125.45-.422.448-.422 1.18v6.522q0 .674.422 1.124z" clip-path="url(#o)" style="fill:none;stroke:#000;stroke-width:2;stroke-linecap:butt;stroke-linejoin:miter;stroke-miterlimit:10;stroke-dasharray:none;stroke-opacity:1" transform="matrix(1.33333 0 0 -1.33333 836.432 864.125)"/><text xml:space="preserve" transform="translate(635.222 828.127)scale(1.33333)"><tspan x="0" y="0" style="font-variant:normal;font-weight:400;font-stretch:normal;font-size:52.126px;font-family:Pacifico;writing-mode:lr-tb;fill:#000;fill-opacity:1;fill-rule:nonzero;stroke:none">Fresh</tspan></text><text xml:space="preserve" transform="translate(665.176 975.717)scale(1.33333)"><tspan x="0" y="0" style="font-variant:normal;font-weight:400;font-stretch:normal;font-size:41.0358px;font-family:Pacifico;writing-mode:lr-tb;fill:#000;fill-opacity:1;fill-rule:nonzero;stroke:none">1990</tspan></text><path d="M0 0c-6.85 7.793-15.319 13.706-24.727 17.026-35.619 12.566-77.861 2.323-104.148-27.146-30.563-34.262-36.816-91.436-14.503-132.609 17.21-31.758 48.713-52.396 81.816-59.684 33.102-7.289 67.664-2.309 99.966 8.446 20.814 6.931 41.269 16.435 58.09 31.522s29.788 36.304 32.516 59.902c3.754 32.474-12.836 65.214-37.267 84.14C67.312.522 29.927 1.074 0 0" clip-path="url(#p)" style="fill:#f7583b;fill-opacity:1;fill-rule:nonzero;stroke:none" transform="matrix(1.33333 0 0 -1.33333 747.889 480.357)"/><path d="M0 0c-4.743 5.359-10.334 9.992-16.603 13.464-5.776 3.199-12.109 5.294-18.524 6.783-12.335 2.863-25.167 3.201-37.661 1.211-25.312-4.032-48.467-17.901-63.801-38.449-14.969-20.059-22.376-45.401-22.677-70.281-.31-25.603 7.157-51.014 22.717-71.495 15.812-20.815 38.471-35.846 63.386-43.486 29.94-9.181 62.216-7.259 92.273.319 28.759 7.25 58.132 18.896 79.878 39.676 20.008 19.12 32.879 46.188 30.752 74.205-2.034 26.799-16.311 52.54-37.348 69.142C71.498-2.422 43.277.564 17.544.755 11.341.801 5.138.66-1.061.439zc-1.277 1.453-3.392-.676-2.121-2.121.79-.899 3.128-.368 4.196-.335q2.395.075 4.792.127c3.142.067 6.285.102 9.428.091 6.469-.023 12.941-.237 19.389-.763 12.888-1.053 25.887-3.344 37.875-8.342 23.806-9.925 41.641-32.667 49.293-56.91 4.044-12.813 5.288-26.517 2.945-39.784-2.343-13.273-7.938-25.79-15.687-36.778-16.591-23.528-42.329-37.974-68.994-47.339-29.407-10.329-61.232-16.178-92.369-11.842-25.733 3.583-50.392 14.528-69.513 32.258-9.517 8.824-17.557 19.227-23.476 30.789-5.528 10.799-9.055 22.572-10.798 34.563-3.522 24.228.266 49.892 11.204 71.838 5.432 10.897 12.663 20.848 21.65 29.086 9.259 8.488 20.248 15.088 32.059 19.353 11.495 4.152 23.723 6.155 35.943 5.804 12.395-.356 25.564-2.896 36.453-9.037 5.908-3.332 11.12-7.707 15.61-12.779C-.839-3.57 1.276-1.442 0 0" clip-path="url(#q)" style="fill:#000;fill-opacity:1;fill-rule:nonzero;stroke:none" transform="matrix(1.33333 0 0 -1.33333 749.303 478.943)"/><path d="M0 0c-25.729 11.981-57.112 11.113-86.162 9.202L4.02-25.581c-27.128-4.138-53.28-14.545-75.834-30.178a791 791 0 0 1 78.255 14.92 126.6 126.6 0 0 1-5.363-53.865 183.8 183.8 0 0 1 28.763 46.937 197.5 197.5 0 0 1 62.285-44.756A178.5 178.5 0 0 1 50.591-44.67a321 321 0 0 1 87.256-1.173C102.52-26.176 61.791-16.331 21.381-17.689 15.817-10.125 8.513-3.964 0 0" clip-path="url(#r)" style="fill:#104b2b;fill-opacity:1;fill-rule:nonzero;stroke:none" transform="matrix(1.33333 0 0 -1.33333 720.358 442.115)"/><path d="M0 0c-20.926 9.683-44.524 11.055-67.245 10.398-6.565-.19-13.122-.561-19.674-.991-1.739-.114-1.974-2.339-.399-2.946l8.936-3.447L-56.8-5.31l26.006-10.031 22.58-8.709 7.404-2.856c1.131-.436 2.335-1.086 3.519-1.357.052-.012.105-.041.155-.06v2.893c-21.197-3.26-41.785-10.293-60.567-20.646a182 182 0 0 1-15.625-9.683c-1.463-1.012-.507-2.973 1.156-2.742a794 794 0 0 1 61.107 10.948A804 804 0 0 1 6.083-43.58l-1.845 1.845c-5.659-17.442-7.526-36.049-5.417-54.264.132-1.141 1.63-2.167 2.56-1.061C13.332-82.848 23.14-66.922 30.379-49.819l-2.356-.304a199.6 199.6 0 0 1 47.39-37.257 198 198 0 0 1 15.198-7.734c1.286-.587 2.881.662 2.053 2.053-8.507 14.285-18.983 27.401-31.068 38.823a180 180 0 0 1-10.702 9.333l-1.459-2.507c22.548-3.39 45.42-4.444 68.181-3.032 6.508.403 13.002 1.01 19.474 1.806 1.36.167 2.187 2.001.757 2.795a226.3 226.3 0 0 1-43.783 18.588 228.3 228.3 0 0 1-46.491 9.03 224 224 0 0 1-26.949.741l1.295-.743C16.213-10.47 8.73-4.106 0 0c-1.737.817-3.262-1.768-1.514-2.59C2.598-4.525 6.482-6.943 9.978-9.851c3.555-2.955 6.414-6.354 9.351-9.89.732-.882 1.57-.731 2.632-.702q1.894.052 3.79.071 3.679.038 7.356-.047c4.978-.116 9.951-.398 14.91-.846 19.775-1.787 39.309-6.256 57.921-13.164a221 221 0 0 0 30.395-14.004l.757 2.795a322 322 0 0 0-67.838-1.157 317 317 0 0 0-19.02 2.276c-1.281.192-2.774-1.448-1.459-2.507 12.806-10.318 24.202-22.38 33.69-35.817a180 180 0 0 0 7.61-11.733l2.053 2.053C74-84.251 57.144-73.258 42.321-59.939a199 199 0 0 0-12.177 11.937c-.596.637-1.979.587-2.356-.303C20.655-65.16 11.041-80.929-.74-94.939l2.561-1.06A126.3 126.3 0 0 0 7.13-42.533c.366 1.128-.783 2.104-1.845 1.846a794 794 0 0 0-60.848-12.306 804 804 0 0 0-17.406-2.615l1.155-2.742a181.2 181.2 0 0 0 57.893 26.436 182 182 0 0 0 17.582 3.591c1.626.25 1.206 2.428 0 2.893l-8.935 3.446-21.582 8.325-26.006 10.03-22.58 8.71-7.405 2.855c-1.13.436-2.334 1.086-3.518 1.358-.053.011-.105.04-.155.059l-.399-2.946c22.52 1.476 45.709 2.511 67.815-2.924C-13.07 1.999-7.157.02-1.514-2.59.227-3.396 1.752-.811 0 0" clip-path="url(#s)" style="fill:#000;fill-opacity:1;fill-rule:nonzero;stroke:none" transform="matrix(1.33333 0 0 -1.33333 721.368 440.388)"/><path d="M0 0c-9.348 0-16.926 7.578-16.926 16.926v39.39c0 9.348 7.578 16.926 16.926 16.926s16.926-7.578 16.926-16.926v-39.39C16.926 7.578 9.348 0 0 0" clip-path="url(#t)" style="fill:#fef6e3;fill-opacity:1;fill-rule:nonzero;stroke:none" transform="matrix(1.33333 0 0 -1.33333 693.909 659.666)"/><path d="M0 0c-8.469 0-15.352 7.016-15.426 15.427-.028 3.183 0 6.369 0 9.553 0 9.87-.028 19.74 0 29.611.022 7.397 5.106 13.865 12.414 15.36 8.268 1.692 16.469-3.922 18.147-12.123.69-3.368.291-7.167.291-10.576V16.22c0-6.469-3.292-12.424-9.417-15.016C4.102.397 2.064.021 0 0c-1.929-.02-1.934-3.02 0-3 9.292.094 17.217 7.094 18.3 16.355.429 3.669.126 7.512.126 11.193 0 10.082.088 20.168 0 30.249-.078 8.81-6.486 16.726-15.282 18.169-9.045 1.485-18.019-3.921-20.755-12.718-1.227-3.945-.815-8.413-.815-12.498V28.862c0-4.365-.008-8.729 0-13.094.016-7.827 4.68-14.847 12.052-17.63C-4.353-2.624-2.159-3 0-3c1.93 0 1.934 3 0 3" clip-path="url(#u)" style="fill:#000;fill-opacity:1;fill-rule:nonzero;stroke:none" transform="matrix(1.33333 0 0 -1.33333 693.909 657.666)"/><path d="m0 0-9.904-38.159-15.868.445 13.714-9.878-8.188-37.732-39.006 20.198 13.793 66.46z" clip-path="url(#v)" style="fill:#000;fill-opacity:1;fill-rule:nonzero;stroke:none" transform="matrix(1.33333 0 0 -1.33333 721.934 557.303)"/><path d="M0 0a5.77 5.77 0 1 1 11.54-.012A5.77 5.77 0 1 1 0 0" clip-path="url(#w)" style="fill:#fff;fill-opacity:1;fill-rule:nonzero;stroke:none" transform="matrix(1.33333 0 0 -1.33333 666.725 599.065)"/><path d="M0 0a3.923 3.923 0 1 1 7.847-.01A3.923 3.923 0 0 1 0 0" clip-path="url(#x)" style="fill:#fff;fill-opacity:1;fill-rule:nonzero;stroke:none" transform="matrix(1.33333 0 0 -1.33333 675.937 618.154)"/><path d="M0 0c-9.348 0-16.926 7.578-16.926 16.926v39.39c0 9.348 7.578 16.926 16.926 16.926s16.926-7.578 16.926-16.926v-39.39C16.926 7.578 9.348 0 0 0" clip-path="url(#y)" style="fill:#fef6e3;fill-opacity:1;fill-rule:nonzero;stroke:none" transform="matrix(1.33333 0 0 -1.33333 751.353 658.845)"/><path d="M0 0c-8.469 0-15.352 7.016-15.426 15.427-.028 3.183 0 6.369 0 9.553 0 9.87-.028 19.74 0 29.611.022 7.397 5.106 13.865 12.414 15.36 8.267 1.692 16.469-3.922 18.147-12.123.69-3.368.291-7.167.291-10.576V16.22c0-6.469-3.292-12.424-9.417-15.016C4.102.397 2.064.021 0 0c-1.929-.02-1.934-3.02 0-3 9.292.094 17.217 7.094 18.3 16.355.429 3.669.126 7.512.126 11.193 0 10.082.088 20.168 0 30.249-.078 8.81-6.487 16.726-15.282 18.169-9.045 1.485-18.019-3.921-20.755-12.718-1.227-3.945-.815-8.413-.815-12.498V28.862c0-4.365-.008-8.729 0-13.094.016-7.827 4.68-14.847 12.052-17.63C-4.353-2.624-2.159-3 0-3c1.93 0 1.934 3 0 3" clip-path="url(#z)" style="fill:#000;fill-opacity:1;fill-rule:nonzero;stroke:none" transform="matrix(1.33333 0 0 -1.33333 751.353 656.845)"/><path d="m0 0-9.904-38.159-15.868.445 13.714-9.878-8.188-37.732-39.006 20.198 13.793 66.46z" clip-path="url(#A)" style="fill:#000;fill-opacity:1;fill-rule:nonzero;stroke:none" transform="matrix(1.33333 0 0 -1.33333 779.379 556.482)"/><path d="M0 0a5.77 5.77 0 1 1 11.54-.012A5.77 5.77 0 1 1 0 0" clip-path="url(#B)" style="fill:#fff;fill-opacity:1;fill-rule:nonzero;stroke:none" transform="matrix(1.33333 0 0 -1.33333 724.169 598.244)"/><path d="M0 0a3.924 3.924 0 1 1 7.846-.008A3.924 3.924 0 0 1 0 0" clip-path="url(#C)" style="fill:#fff;fill-opacity:1;fill-rule:nonzero;stroke:none" transform="matrix(1.33333 0 0 -1.33333 733.381 617.333)"/><path d="M0 0c0-14.616-11.849-26.465-26.465-26.465-14.617 0-26.466 11.849-26.466 26.465s11.849 26.465 26.466 26.465C-11.849 26.465 0 14.616 0 0" clip-path="url(#D)" style="fill:#fe87e3;fill-opacity:1;fill-rule:nonzero;stroke:none" transform="matrix(1.33333 0 0 -1.33333 759.149 685.106)"/><path d="M0 0c-.067-10.338-6.58-19.915-16.372-23.452-9.927-3.586-21.15-.504-27.89 7.6-6.706 8.062-7.465 19.9-2.037 28.827 5.416 8.906 16.171 13.624 26.392 11.481C-8.391 22.041-.076 11.732 0 0c.013-1.93 3.013-1.934 3 0-.075 11.631-7.366 22.138-18.263 26.23-10.946 4.111-23.808.646-31.224-8.382-7.434-9.051-8.536-22.109-2.486-32.197s18.01-15.328 29.533-13.067C-8.218-25.213.852-15.828 2.627-4.524 2.862-3.024 2.99-1.518 3 0 3.013 1.931.013 1.933 0 0" clip-path="url(#E)" style="fill:#000;fill-opacity:1;fill-rule:nonzero;stroke:none" transform="matrix(1.33333 0 0 -1.33333 757.149 685.106)"/><path d="M0 0c0-6.798-5.511-12.31-12.31-12.31-6.798 0-12.309 5.512-12.309 12.31s5.511 12.31 12.309 12.31C-5.511 12.31 0 6.798 0 0" clip-path="url(#F)" style="fill:#000;fill-opacity:1;fill-rule:nonzero;stroke:none" transform="matrix(1.33333 0 0 -1.33333 740.274 685.106)"/><path d="M0 0c2.313-7.072 8.866-12.645 15.747-14.942 3.9-1.302 8.077-1.651 12.165-1.411 1.919.113 1.932 3.114 0 3-6.151-.361-12.312.759-17.399 4.389C7.589-6.878 5.259-4.076 3.638-.895q-.204.403-.394.813L3.101.24c-.083.188.136-.353-.004.013-.069.181-.144.36-.204.544C2.295 2.624-.603 1.842 0 0" clip-path="url(#G)" style="fill:#000;fill-opacity:1;fill-rule:nonzero;stroke:none" transform="matrix(1.33333 0 0 -1.33333 678.44 714.059)"/><path d="M0 0c1.944-1.921 2.954-5.094 2.544-8.735-1.006-8.908-7.858-16.198-8.892-25.162-1.042-9.031 1.306-18.614-2.156-27.02-1.062-2.581-2.813-5.076-5.421-6.071-3.079-1.174-6.697.088-9.033 2.413C-39.74-47.874-12.298 12.157 0 0" clip-path="url(#H)" style="fill:#fef6e3;fill-opacity:1;fill-rule:nonzero;stroke:none" transform="matrix(1.33333 0 0 -1.33333 593.796 518.351)"/><path d="M0 0c2.566-2.654 2.488-6.616 1.674-9.979-.885-3.66-2.606-7.023-4.233-10.394-1.594-3.302-3.172-6.689-3.896-10.307-.794-3.973-.657-8.096-.567-12.124.092-4.16.25-8.404-.607-12.501-.688-3.286-2.062-7.452-5.331-9.034-4.862-2.352-9.292 2.572-10.939 6.572-3.205 7.784-1.794 17.205.163 25.111 2.186 8.826 5.698 17.572 10.805 25.127 1.001 1.48 2.076 2.906 3.276 4.231.983 1.085 2.217 2.26 3.221 2.961C-5.256.485-4.569.825-3.333 1.112c.154.036.32.052.052.02.129.016.261.032.39.034.277.004.546.006.822-.023-.411.043.251-.067.4-.105.124-.032.244-.078.364-.121.198-.072-.172.105.153-.076C-.475.462-.474.46 0 0c1.386-1.346 3.51.774 2.121 2.121-5.286 5.132-11.84-.614-15.299-4.951-6.064-7.602-10.084-16.994-12.723-26.293-2.522-8.884-4.343-19.366-1.292-28.357 1.606-4.734 4.992-9.371 10.242-10.245 9.311-1.55 12.423 9.661 12.883 16.748.293 4.5-.08 9.009-.002 13.513.075 4.287.808 8.213 2.514 12.156 3.024 6.996 8.497 14.864 6.27 22.865a10.64 10.64 0 0 1-2.593 4.564C.777 3.512-1.343 1.389 0 0" clip-path="url(#I)" style="fill:#000;fill-opacity:1;fill-rule:nonzero;stroke:none" transform="matrix(1.33333 0 0 -1.33333 592.382 519.766)"/><path d="M0 0c-2.107 1.328-3.629 3.953-3.978 7.274-.853 8.124 3.813 15.955 2.974 24.135-.845 8.24-4.814 16.306-3.384 24.465.439 2.505 1.507 5.069 3.633 6.466 2.508 1.649 5.976 1.236 8.51-.374C25.966 50.398 13.329-8.404 0 0" clip-path="url(#J)" style="fill:#fef6e3;fill-opacity:1;fill-rule:nonzero;stroke:none" transform="matrix(1.33333 0 0 -1.33333 886.447 652.544)"/><path d="M0 0c-2.715 1.802-3.377 5.284-3.337 8.323.05 3.74 1.09 7.368 1.928 10.986.818 3.529 1.505 7.169 1.148 10.804-.377 3.846-1.398 7.583-2.289 11.331-.901 3.789-1.686 7.664-1.304 11.578.305 3.122 1.58 6.956 5.133 7.514 4.079.64 7.37-2.629 9.238-5.803 3.846-6.535 4.298-14.897 4.004-22.286-.32-8.038-1.763-16.269-4.807-23.743-1.078-2.647-2.508-5.438-4.342-7.371C4.608.529 3.932-.022 3.133-.355c.116.049-.363-.119-.498-.158-.121-.034-.245-.057-.367-.082-.253-.052.276.008-.077-.007a8 8 0 0 0-.637 0c-.309.013.059-.017-.029 0-.125.024-.252.046-.375.082-.233.067-.624.219-.448.139A6 6 0 0 0 0 0c-1.648 1.017-3.156-1.577-1.514-2.59C4.117-6.065 8.849.096 11.115 4.582c3.92 7.759 5.643 16.739 6.265 25.348.61 8.452.229 17.922-3.848 25.559-1.927 3.611-5.112 7.052-9.28 7.889-3.621.727-7.126-.582-9.13-3.734-2.069-3.253-2.298-7.553-1.95-11.282.776-8.324 4.72-16.199 3.27-24.67C-4.798 16.452-8.611 7.89-4.7.837A9.8 9.8 0 0 1-1.514-2.59C.099-3.661 1.603-1.064 0 0" clip-path="url(#K)" style="fill:#000;fill-opacity:1;fill-rule:nonzero;stroke:none" transform="matrix(1.33333 0 0 -1.33333 887.456 650.817)"/></svg>