<svg xmlns="http://www.w3.org/2000/svg" width="1440" height="1440" viewBox="0 0 1440 1440"><defs><clipPath id="a" clipPathUnits="userSpaceOnUse"><path d="M-335.609 738.88h1080v-1080h-1080Z"/></clipPath><clipPath id="b" clipPathUnits="userSpaceOnUse"><path d="M-337.109 738.88h1080v-1080h-1080Z"/></clipPath><clipPath id="c" clipPathUnits="userSpaceOnUse"><path d="M-724.174 743.62h1080v-1080h-1080Z"/></clipPath><clipPath id="d" clipPathUnits="userSpaceOnUse"><path d="M-724.174 742.12h1080v-1080h-1080Z"/></clipPath><clipPath id="e" clipPathUnits="userSpaceOnUse"><path d="M-637.693 672.392h1080v-1080h-1080Z"/></clipPath><clipPath id="f" clipPathUnits="userSpaceOnUse"><path d="M-637.693 670.892h1080v-1080h-1080Z"/></clipPath><clipPath id="g" clipPathUnits="userSpaceOnUse"><path d="M-364.401 613.55h1080v-1080h-1080Z"/></clipPath><clipPath id="h" clipPathUnits="userSpaceOnUse"><path d="M-365.697 614.306h1080v-1080h-1080Z"/></clipPath><clipPath id="i" clipPathUnits="userSpaceOnUse"><path d="M-754.401 613.55h1080v-1080h-1080Z"/></clipPath><clipPath id="j" clipPathUnits="userSpaceOnUse"><path d="M-755.696 614.306h1080v-1080h-1080Z"/></clipPath><clipPath id="k" clipPathUnits="userSpaceOnUse"><path d="M-327.429 658.85h1080v-1080h-1080Z"/></clipPath><clipPath id="l" clipPathUnits="userSpaceOnUse"><path d="M-347.31 658.537h1080v-1080h-1080Z"/></clipPath><clipPath id="m" clipPathUnits="userSpaceOnUse"><path d="M-364.756 658.85h1080v-1080h-1080Z"/></clipPath><clipPath id="n" clipPathUnits="userSpaceOnUse"><path d="M-380.227 658.85h1080v-1080h-1080Z"/></clipPath><clipPath id="o" clipPathUnits="userSpaceOnUse"><path d="M-716.519 645.364h1080v-1080h-1080Z"/></clipPath><clipPath id="p" clipPathUnits="userSpaceOnUse"><path d="M-763.124 642.77h1080v-1080h-1080Z"/></clipPath><clipPath id="q" clipPathUnits="userSpaceOnUse"><path d="M-429.203 726.721h1080v-1080h-1080Z"/></clipPath><clipPath id="r" clipPathUnits="userSpaceOnUse"><path d="M-467.608 688.703h1080v-1080h-1080Z"/></clipPath><clipPath id="s" clipPathUnits="userSpaceOnUse"><path d="M-520.364 727.287h1080v-1080h-1080Z"/></clipPath><clipPath id="t" clipPathUnits="userSpaceOnUse"><path d="M-539.537 718.95h1080v-1080h-1080Z"/></clipPath><clipPath id="u" clipPathUnits="userSpaceOnUse"><path d="M-590.863 727.287h1080v-1080h-1080Z"/></clipPath><clipPath id="v" clipPathUnits="userSpaceOnUse"><path d="M-639.45 727.287h1080v-1080h-1080Z"/></clipPath><clipPath id="w" clipPathUnits="userSpaceOnUse"><path d="M-659.933 727.287h1080v-1080h-1080Z"/></clipPath><clipPath id="x" clipPathUnits="userSpaceOnUse"><path d="M-626.27 639.743h1080v-1080h-1080Z"/></clipPath><clipPath id="y" clipPathUnits="userSpaceOnUse"><path d="M-624.825 639.345h1080v-1080h-1080Z"/></clipPath><clipPath id="z" clipPathUnits="userSpaceOnUse"><path d="M-11.174-16.685c-1.647-5.641 1.24-11.613 6.681-13.834l19.901-8.124c5.325-2.174 11.417-.056 14.3 4.922 4.773 8.242 6.36 16.98 6.36 16.98L-3.31-.486c-3.553-3.536-6.164-10.376-7.864-16.198"/></clipPath><clipPath id="A" clipPathUnits="userSpaceOnUse"><path d="M-20.82-12.712c-1.647-5.641 1.24-11.613 6.681-13.834L5.762-34.67c5.325-2.174 11.417-.056 14.3 4.922 4.773 8.242 6.36 16.98 6.36 16.98L-12.957 3.487C-16.509-.05-19.12-6.89-20.82-12.712"/></clipPath><clipPath id="B" clipPathUnits="userSpaceOnUse"><path d="M-30.962-6.47c-1.647-5.64 1.24-11.612 6.681-13.833l19.901-8.124c5.325-2.174 11.417-.056 14.3 4.922 4.773 8.242 6.36 16.98 6.36 16.98L-23.099 9.73c-3.551-3.537-6.163-10.377-7.863-16.2"/></clipPath><clipPath id="C" clipPathUnits="userSpaceOnUse"><path d="M-40.058-1.754c-1.647-5.641 1.24-11.613 6.681-13.834l19.901-8.124c5.325-2.174 11.417-.056 14.3 4.922 4.773 8.242 6.36 16.98 6.36 16.98l-39.378 16.254c-3.553-3.536-6.164-10.376-7.864-16.198"/></clipPath><clipPath id="D" clipPathUnits="userSpaceOnUse"><path d="M-471.453 646.009h1080v-1080h-1080Z"/></clipPath><clipPath id="E" clipPathUnits="userSpaceOnUse"><path d="M-470.006 646.407h1080v-1080h-1080Z"/></clipPath><clipPath id="F" clipPathUnits="userSpaceOnUse"><path d="M-1.758-1.71s3.192-9.687 9.953-17.53c3.06-3.552 8.24-4.384 12.293-2.029l21.137 12.28c4.27 2.48 6.034 7.756 4.087 12.294-2.502 5.833-6.323 13.226-10.719 16.526z"/></clipPath><clipPath id="G" clipPathUnits="userSpaceOnUse"><path d="M-10.46-7.208s3.191-9.686 9.952-17.53c3.06-3.551 8.24-4.383 12.293-2.028l21.137 12.279c4.27 2.48 6.034 7.757 4.087 12.295-2.502 5.833-6.323 13.226-10.719 16.526z"/></clipPath><clipPath id="H" clipPathUnits="userSpaceOnUse"><path d="M-19.472-15.076s3.192-9.686 9.953-17.53c3.06-3.551 8.24-4.383 12.293-2.028l21.137 12.279c4.27 2.481 6.034 7.757 4.087 12.295C25.496-4.227 21.675 3.166 17.28 6.466z"/></clipPath><clipPath id="I" clipPathUnits="userSpaceOnUse"><path d="M-30.611-16s3.192-9.685 9.953-17.53c3.06-3.55 8.239-4.382 12.293-2.027l21.137 12.279c4.27 2.48 6.034 7.757 4.087 12.295C14.357-5.15 10.536 2.243 6.139 5.543z"/></clipPath><clipPath id="J" clipPathUnits="userSpaceOnUse"><path d="M-473.54 590.9h1080v-1080h-1080Z"/></clipPath><clipPath id="K" clipPathUnits="userSpaceOnUse"><path d="M-473.142 592.347h1080v-1080h-1080Z"/></clipPath><clipPath id="L" clipPathUnits="userSpaceOnUse"><path d="m-22.17 17.35-8.164-41.89s83.792-16.899 146.088 6.258l-3.427 49.046z"/></clipPath><clipPath id="M" clipPathUnits="userSpaceOnUse"><path d="m-37.337 14.71-8.164-41.89s83.792-16.9 146.088 6.257L97.16 28.123z"/></clipPath><clipPath id="N" clipPathUnits="userSpaceOnUse"><path d="m-52.905 14.729-8.164-41.89S22.723-44.06 85.02-20.903l-3.427 49.046z"/></clipPath><clipPath id="O" clipPathUnits="userSpaceOnUse"><path d="m-71.01 16.594-8.163-41.89S4.619-42.195 66.915-19.038l-3.427 49.046z"/></clipPath><clipPath id="P" clipPathUnits="userSpaceOnUse"><path d="m-93.229 10.74-8.164-41.89S-17.6-48.047 44.695-24.89l-3.427 49.046z"/></clipPath><clipPath id="Q" clipPathUnits="userSpaceOnUse"><path d="m-107.702 16.874-8.164-41.89s83.792-16.899 146.088 6.258l-3.427 49.046z"/></clipPath><clipPath id="R" clipPathUnits="userSpaceOnUse"><path d="M-527.744 343.945h1080v-1080h-1080Z"/></clipPath><clipPath id="S" clipPathUnits="userSpaceOnUse"><path d="M-528.5 342.65h1080v-1080h-1080Z"/></clipPath><clipPath id="T" clipPathUnits="userSpaceOnUse"><path d="M-494.804 569.516h1080v-1080h-1080Z"/></clipPath><clipPath id="U" clipPathUnits="userSpaceOnUse"><path d="M-600.665 564.588h1080v-1080h-1080Z"/></clipPath><clipPath id="V" clipPathUnits="userSpaceOnUse"><path d="M-447.977 489.665h1080v-1080h-1080Z"/></clipPath><clipPath id="W" clipPathUnits="userSpaceOnUse"><path d="M-622.633 509.213h1080v-1080h-1080Z"/></clipPath><clipPath id="X" clipPathUnits="userSpaceOnUse"><path d="M-34.934 78.198s-38.723-56.702 24.71-149.522c0 0 24.308-59.967 41.89-56.07l33.856 20.376a15.935 15.935 0 0 1 6.4 20.007A2350 2350 0 0 1 52.15-42.81s77.156-2.973 105.86 5.726c0 0-12.992-27.256-18.24-46.12-2.087-7.498.832-15.482 7.196-19.957 8.067-5.674 20.284-12.897 32.31-14.756 6.727-1.039 13.405 2.112 16.842 7.986 14.725 25.166 58.917 106.607 50.597 164.453-4.62 32.134-15.004 64.933-34.476 91.272-19.32 26.132-53.546 49.012-87.31 39.824 0 0-22.093-6.899-38.393-2.458 0 0-11.597 4.972-27.863 4.972-29.667.001-74.87-16.536-93.606-109.934"/></clipPath><clipPath id="Y" clipPathUnits="userSpaceOnUse"><path d="M-33.434 78.198S-72.157 21.496-8.724-71.324c0 0 24.308-59.967 41.89-56.07l33.856 20.376a15.935 15.935 0 0 1 6.4 20.007A2350 2350 0 0 1 53.65-42.81s77.156-2.973 105.86 5.726c0 0-12.992-27.256-18.24-46.12-2.087-7.498.832-15.482 7.196-19.957 8.067-5.674 20.284-12.897 32.31-14.756 6.727-1.039 13.405 2.112 16.842 7.986 14.725 25.166 58.917 106.607 50.597 164.453-4.62 32.134-15.004 64.933-34.476 91.272-19.32 26.132-53.546 49.012-87.31 39.824 0 0-22.093-6.899-38.393-2.458 0 0-11.597 4.972-27.863 4.972-29.667.001-74.87-16.536-93.606-109.934"/></clipPath><clipPath id="Z" clipPathUnits="userSpaceOnUse"><path d="M-310.462 86.633s-38.723-56.702 24.71-149.522c0 0 24.308-59.967 41.89-56.07l33.856 20.376a15.935 15.935 0 0 1 6.4 20.007 2350 2350 0 0 1-19.773 44.201s77.156-2.973 105.86 5.726c0 0-12.992-27.256-18.24-46.12-2.087-7.498.832-15.482 7.196-19.957 8.067-5.674 20.284-12.897 32.31-14.756 6.727-1.039 13.405 2.112 16.842 7.986C-64.686-76.33-20.494 5.111-28.814 62.957c-4.62 32.134-15.004 64.933-34.476 91.272-19.32 26.132-53.546 49.012-87.31 39.824 0 0-22.093-6.899-38.393-2.458 0 0-11.597 4.972-27.863 4.972-29.667.001-74.87-16.536-93.606-109.934"/></clipPath><clipPath id="aa" clipPathUnits="userSpaceOnUse"><path d="M-308.962 86.633s-38.723-56.702 24.71-149.522c0 0 24.308-59.967 41.89-56.07l33.856 20.376a15.935 15.935 0 0 1 6.4 20.007 2350 2350 0 0 1-19.773 44.201s77.156-2.973 105.86 5.726c0 0-12.992-27.256-18.24-46.12-2.087-7.498.832-15.482 7.196-19.957 8.067-5.674 20.284-12.897 32.31-14.756 6.727-1.039 13.405 2.112 16.842 7.986C-63.186-76.33-18.994 5.111-27.314 62.957c-4.62 32.134-15.004 64.933-34.476 91.272-19.32 26.132-53.546 49.012-87.31 39.824 0 0-22.093-6.899-38.393-2.458 0 0-11.597 4.972-27.863 4.972-29.667.001-74.87-16.536-93.606-109.934"/></clipPath><clipPath id="ab" clipPathUnits="userSpaceOnUse"><path d="M-528.5 342.65h1080v-1080h-1080Z"/></clipPath><clipPath id="ac" clipPathUnits="userSpaceOnUse"><path d="M-473.275 342.787h1080v-1080h-1080Z"/></clipPath><clipPath id="ad" clipPathUnits="userSpaceOnUse"><path d="M-471.775 342.787h1080v-1080h-1080Z"/></clipPath><clipPath id="ae" clipPathUnits="userSpaceOnUse"><path d="M-492.078 362.096h1080v-1080h-1080Z"/></clipPath><clipPath id="af" clipPathUnits="userSpaceOnUse"><path d="M-490.631 362.494h1080v-1080h-1080Z"/></clipPath><clipPath id="ag" clipPathUnits="userSpaceOnUse"><path d="M-533.759 530.124h1080v-1080h-1080Z"/></clipPath><clipPath id="ah" clipPathUnits="userSpaceOnUse"><path d="M-534.158 528.678h1080v-1080h-1080Z"/></clipPath><clipPath id="ai" clipPathUnits="userSpaceOnUse"><path d="M-499.716 447.657h1080v-1080h-1080Z"/></clipPath><clipPath id="aj" clipPathUnits="userSpaceOnUse"><path d="M-499.317 449.103h1080v-1080h-1080Z"/></clipPath><clipPath id="ak" clipPathUnits="userSpaceOnUse"><path d="M-622.477 505.816h1080v-1080h-1080Z"/></clipPath><clipPath id="al" clipPathUnits="userSpaceOnUse"><path d="M-451.428 479.06h1080v-1080h-1080Z"/></clipPath><clipPath id="am" clipPathUnits="userSpaceOnUse"><path d="M-524.113 497.948h1080v-1080h-1080Z"/></clipPath><clipPath id="an" clipPathUnits="userSpaceOnUse"><path d="M-524.113 496.448h1080v-1080h-1080Z"/></clipPath><clipPath id="ao" clipPathUnits="userSpaceOnUse"><path d="M-12.948-2.486c-5.78-.135-10.358-4.93-10.223-10.71l.567-24.36c.135-5.78 4.93-10.358 10.711-10.223s10.358 4.93 10.223 10.711l-.567 24.36C-2.37-7.012-7.03-2.484-12.7-2.484q-.123 0-.248-.003"/></clipPath><clipPath id="ap" clipPathUnits="userSpaceOnUse"><path d="M12.207 17.48C6.427 17.345 1.85 12.55 1.984 6.769l.567-24.36c.135-5.78 4.93-10.357 10.711-10.222s10.358 4.93 10.223 10.71l-.567 24.36c-.133 5.698-4.793 10.226-10.463 10.226z"/></clipPath><clipPath id="aq" clipPathUnits="userSpaceOnUse"><path d="M7.728 26.234c-5.78-.135-10.358-4.93-10.223-10.711l.567-24.36c.135-5.78 4.93-10.357 10.711-10.222s10.358 4.93 10.223 10.71l-.567 24.36c-.133 5.698-4.793 10.226-10.463 10.226z"/></clipPath><clipPath id="ar" clipPathUnits="userSpaceOnUse"><path d="M-550.747 496.947h1080v-1080h-1080Z"/></clipPath><clipPath id="as" clipPathUnits="userSpaceOnUse"><path d="M-550.747 495.447h1080v-1080h-1080Z"/></clipPath><clipPath id="at" clipPathUnits="userSpaceOnUse"><path d="M-12.948-2.486c-5.78-.135-10.357-4.93-10.223-10.71l.568-24.36c.134-5.78 4.93-10.358 10.71-10.223s10.358 4.93 10.223 10.71l-.567 24.36C-2.37-7.01-7.03-2.483-12.7-2.483q-.124 0-.248-.003"/></clipPath><clipPath id="au" clipPathUnits="userSpaceOnUse"><path d="M12.207 17.48C6.427 17.345 1.85 12.55 1.984 6.769l.568-24.36c.134-5.78 4.93-10.357 10.71-10.222s10.358 4.93 10.223 10.71l-.567 24.36c-.133 5.698-4.794 10.226-10.463 10.226q-.124 0-.248-.003"/></clipPath><clipPath id="av" clipPathUnits="userSpaceOnUse"><path d="M7.728 26.234c-5.78-.135-10.357-4.93-10.223-10.711l.568-24.36c.134-5.78 4.93-10.357 10.71-10.222s10.358 4.93 10.223 10.71l-.567 24.36c-.133 5.698-4.794 10.226-10.463 10.226q-.124 0-.248-.003"/></clipPath><clipPath id="aw" clipPathUnits="userSpaceOnUse"><path d="M-536.392 510.619h1080v-1080h-1080Z"/></clipPath><clipPath id="ax" clipPathUnits="userSpaceOnUse"><path d="M-550.08 500.907h1080v-1080h-1080Z"/></clipPath><clipPath id="ay" clipPathUnits="userSpaceOnUse"><path d="M-546.116 519.263h1080v-1080h-1080Z"/></clipPath></defs><path d="M0 0h1080v1080H0Z" style="fill:#feffff;fill-opacity:1;fill-rule:nonzero;stroke:none" transform="matrix(1.33333 0 0 -1.33333 0 1440)"/><path d="M0 0v236.826c0 112.291 91.867 205.971 204.159 206.027 112.676.055 204.362-91.597 204.362-204.261V0c0-13.812-11.196-25.009-25.008-25.009H25.009C11.197-25.009 0-13.812 0 0" clip-path="url(#a)" style="fill:#fe87e3;fill-opacity:1;fill-rule:nonzero;stroke:none" transform="matrix(1.33333 0 0 -1.33333 447.479 985.173)"/><path d="M0 0v195.163c0 13.757-.007 27.513 0 41.27.017 35.881 9.492 71.337 27.459 102.406 19.368 33.493 48.12 61.329 82.338 79.415 35.195 18.604 75.49 26.186 115.053 21.912 38.874-4.199 76.205-19.994 106.396-44.822 29.601-24.342 52.127-56.936 64.129-93.355a202.4 202.4 0 0 0 10.095-58.779c.096-4.296.051-8.597.051-12.893V1.144c0-3.946-.581-7.794-2.337-11.385-3.966-8.112-12.203-13.17-21.192-13.268-8.742-.095-17.49 0-26.233 0H57.273c-10.974 0-21.948-.018-32.921 0C11.104-23.487.173-13.491 0 0c-.025 1.929-3.025 1.934-3 0 .191-14.865 12.245-26.462 27.01-26.509 3.407-.01 6.814 0 10.221 0h341.266c2.6 0 5.224-.1 7.823.034 14.608.753 25.177 13.051 25.201 27.346.026 14.898 0 29.797 0 44.695v161.281c0 13.411.379 26.896-.176 40.302-1.623 39.181-14.621 77.528-37.212 109.587-22.212 31.52-53.143 56.554-88.681 71.545-36.907 15.568-78.251 19.992-117.606 12.477-38.413-7.336-74.231-26.116-102.571-53-28.15-26.705-48.71-61.19-58.556-98.739C-.759 271.94-2.98 254.303-3 236.65c-.005-4.12 0-8.24 0-12.36V0c0-1.93 3-1.934 3 0" clip-path="url(#b)" style="fill:#000;fill-opacity:1;fill-rule:nonzero;stroke:none" transform="matrix(1.33333 0 0 -1.33333 449.479 985.173)"/><path d="M0 0h-368.609v243.021c0 101.788 82.516 184.304 184.304 184.304h.001C-82.516 427.325 0 344.809 0 243.021Z" clip-path="url(#c)" style="fill:#82c6f4;fill-opacity:1;fill-rule:nonzero;stroke:none" transform="matrix(1.33333 0 0 -1.33333 965.565 991.493)"/><path d="M0 0h-363.056c-1.61 0-3.325.168-4.928 0-.204-.021-.42 0-.625 0l1.5-1.5v239.535c0 15.428 1.346 30.703 4.909 45.749 5.772 24.371 16.625 47.415 31.648 67.448 14.919 19.894 33.954 36.671 55.525 49.028 22.031 12.621 46.687 20.565 71.952 23.121 25.748 2.604 51.951-.205 76.518-8.362 23.665-7.859 45.645-20.666 64.206-37.313 18.447-16.546 33.466-36.777 43.926-59.244C-7.539 295.08-1.801 269.411-1.512 243.63c.064-5.688.012-11.38.012-17.069V-1.5c0-1.93 3-1.934 3 0v240.279c0 16.599-1.705 33.063-5.847 49.166-6.262 24.347-17.556 47.303-32.934 67.181-15.208 19.659-34.348 36.229-56.011 48.42-22.114 12.444-46.711 20.215-71.948 22.805-25.888 2.657-52.337-.134-77.066-8.26-23.669-7.777-45.655-20.373-64.398-36.78-18.737-16.402-34.156-36.604-44.979-59.034-11.162-23.13-17.401-48.481-18.309-74.146-.238-6.716-.117-13.457-.117-20.177V-1.5c0-.811.688-1.5 1.5-1.5h353.647c4.775 0 9.563-.104 14.337 0 .208.005.417 0 .625 0 1.93 0 1.934 3 0 3" clip-path="url(#d)" style="fill:#000;fill-opacity:1;fill-rule:nonzero;stroke:none" transform="matrix(1.33333 0 0 -1.33333 965.565 989.493)"/><path d="M0 0h-195.646c-13.83 0-25.041 11.211-25.041 25.04v136.966c0 67.856 55.008 122.864 122.864 122.864S25.04 229.862 25.04 162.006V25.04C25.04 11.211 13.829 0 0 0" clip-path="url(#e)" style="fill:#748d49;fill-opacity:1;fill-rule:nonzero;stroke:none" transform="matrix(1.33333 0 0 -1.33333 850.257 896.523)"/><path d="M0 0h-194.561c-6.062 0-11.865 1.689-16.504 5.747-5.541 4.848-8.122 11.584-8.122 18.836v133.413c0 5.018.124 10.025.63 15.023 1.156 11.431 3.992 22.697 8.319 33.338 8.407 20.678 22.717 38.929 40.731 52.1 18.428 13.474 40.518 21.597 63.305 23.131 23.131 1.558 46.484-3.49 66.804-14.681C-19.83 256.131-3.415 239.97 7.66 220.569c10.458-18.322 15.869-39.181 15.88-60.262.005-8.125 0-16.251 0-24.377V28.101c0-2.871.162-5.853-.354-8.684C21.149 8.25 11.318.089 0 0c-1.93-.015-1.934-3.015 0-3 11.824.093 22.485 8.074 25.609 19.547.984 3.611.931 7.226.931 10.911v125.2c0 2.565.003 5.131 0 7.696-.01 10.136-1.202 20.27-3.633 30.114-5.458 22.097-17.134 42.51-33.321 58.502-16.29 16.095-36.997 27.571-59.322 32.713-22.893 5.273-47.249 3.979-69.411-3.848-21.483-7.587-40.728-21.123-55.106-38.801-14.514-17.847-23.878-39.498-26.873-62.309-1.301-9.91-1.061-19.882-1.061-29.85V24.583c0-7.37 2.402-14.358 7.642-19.677C-209.336-.381-202.302-3-194.947-3H0c1.93 0 1.934 3 0 3" clip-path="url(#f)" style="fill:#000;fill-opacity:1;fill-rule:nonzero;stroke:none" transform="matrix(1.33333 0 0 -1.33333 850.257 894.523)"/><path d="M0 0c19.989 34.622-58.792 34.622-38.803 0-19.989 34.622-59.38-33.604-19.401-33.604-39.979 0-.588-68.227 19.401-33.604-19.989-34.623 58.792-34.623 38.803 0 19.989-34.623 59.38 33.604 19.401 33.604C59.38-33.604 19.989 34.622 0 0" clip-path="url(#g)" style="fill:#fe87e3;fill-opacity:1;fill-rule:nonzero;stroke:none" transform="matrix(1.33333 0 0 -1.33333 485.868 818.065)"/><path d="M0 0c3.07 5.358 4.905 11.91 1.943 17.719-2.473 4.849-7.649 7.722-12.704 9.167-5.735 1.639-11.976 1.758-17.799.515-5.293-1.13-10.651-3.615-13.847-8.147-3.56-5.047-2.764-11.379-.31-16.708.401-.869.848-1.716 1.324-2.546l2.59 1.514c-3.104 5.332-7.867 10.2-14.375 10.529-5.461.276-10.542-2.79-14.33-6.468-4.281-4.157-7.508-9.518-9.325-15.193-1.639-5.119-2.16-10.972.157-15.97 3.058-6.599 10.425-8.735 17.177-8.759v3c-6.166-.022-12.772-1.707-16.31-7.178-2.974-4.597-2.859-10.535-1.565-15.662 1.46-5.786 4.494-11.257 8.5-15.668 3.617-3.983 8.408-7.332 13.893-7.842 7.237-.673 12.789 4.667 16.178 10.489l-2.59 1.514c-3.07-5.358-4.905-11.91-1.943-17.719 2.473-4.849 7.649-7.722 12.704-9.167 5.735-1.639 11.976-1.758 17.799-.515 5.293 1.13 10.651 3.615 13.847 8.147 3.56 5.047 2.764 11.379.31 16.708A33 33 0 0 1 0-65.694l-2.59-1.514c3.104-5.332 7.867-10.2 14.375-10.529 5.461-.276 10.542 2.79 14.33 6.468 4.281 4.157 7.508 9.518 9.325 15.193 1.639 5.119 2.159 10.972-.157 15.97-3.058 6.599-10.425 8.735-17.177 8.759v-3c6.166.022 12.772 1.707 16.31 7.178 2.973 4.597 2.859 10.535 1.565 15.662-1.46 5.786-4.495 11.257-8.5 15.668-3.617 3.983-8.408 7.332-13.893 7.842C6.351 12.676.799 7.336-2.59 1.514-3.564-.158-.972-1.67 0 0c1.513 2.599 3.435 5.187 5.87 6.884 1.947 1.357 4.037 2.114 6.216 2.17 4.511.116 8.737-2.484 12.034-5.724 3.808-3.742 6.724-8.525 8.371-13.574.817-2.501 1.304-4.881 1.353-7.415.041-2.19-.283-4.454-1.089-6.277-1.052-2.381-2.63-4.067-4.851-5.305-2.902-1.619-6.432-2.094-9.798-2.106-1.93-.007-1.933-2.993 0-3 2.993-.011 6.224-.39 8.875-1.633 2.152-1.01 3.847-2.422 5.005-4.314 2.371-3.873 2.208-8.82 1.058-13.267-1.335-5.164-4.007-10.079-7.564-14.039-1.739-1.937-3.586-3.579-5.76-4.89-1.026-.619-1.984-1.095-2.96-1.446a16 16 0 0 0-1.628-.489 11 11 0 0 0-1.394-.257c-2.591-.266-4.805.231-6.998 1.54-2.883 1.723-5.042 4.531-6.74 7.448-.971 1.668-3.553.165-2.59-1.514 1.475-2.576 2.8-5.719 3.017-8.478.188-2.401-.171-4.542-1.203-6.457-2.175-4.037-6.589-6.395-11.097-7.632-5.059-1.387-10.646-1.519-15.727-.461-2.591.539-4.926 1.312-7.12 2.511-1.99 1.087-3.856 2.549-5.016 4.178-1.541 2.163-2.194 4.321-2.136 6.907.071 3.185 1.401 6.52 3.069 9.432.962 1.678-1.618 3.184-2.59 1.514-1.513-2.599-3.435-5.187-5.87-6.884-1.947-1.357-4.037-2.114-6.216-2.17-4.511-.116-8.737 2.484-12.035 5.724-3.807 3.742-6.723 8.525-8.37 13.574-.817 2.501-1.305 4.88-1.353 7.415-.041 2.19.283 4.454 1.089 6.277 1.052 2.381 2.629 4.067 4.851 5.305 2.902 1.619 6.432 2.094 9.798 2.106 1.93.007 1.933 2.993 0 3-2.993.011-6.224.39-8.875 1.633-2.152 1.01-3.847 2.422-5.005 4.314-2.371 3.873-2.208 8.82-1.058 13.267 1.335 5.164 4.007 10.079 7.564 14.039 1.739 1.937 3.586 3.579 5.76 4.89 1.026.619 1.984 1.095 2.96 1.446q.801.29 1.628.489.861.205 1.394.257c2.591.266 4.805-.231 6.997-1.54C-45.25 5.725-43.091 2.917-41.393 0c.971-1.668 3.553-.165 2.59 1.514-1.475 2.576-2.8 5.719-3.017 8.478-.188 2.401.171 4.542 1.203 6.457 2.175 4.037 6.589 6.395 11.097 7.632 5.059 1.387 10.646 1.519 15.727.461 2.591-.539 4.926-1.312 7.12-2.511 1.99-1.087 3.856-2.549 5.016-4.178C-.116 15.69.537 13.532.479 10.946.408 7.761-.922 4.426-2.59 1.514-3.552-.164-.961-1.677 0 0" clip-path="url(#h)" style="fill:#000;fill-opacity:1;fill-rule:nonzero;stroke:none" transform="matrix(1.33333 0 0 -1.33333 487.595 819.075)"/><path d="M0 0c19.989 34.622-58.792 34.622-38.803 0-19.989 34.622-59.379-33.604-19.401-33.604-39.978 0-.588-68.227 19.401-33.604-19.989-34.623 58.792-34.623 38.803 0 19.989-34.623 59.38 33.604 19.401 33.604C59.38-33.604 19.989 34.622 0 0" clip-path="url(#i)" style="fill:#fe87e3;fill-opacity:1;fill-rule:nonzero;stroke:none" transform="matrix(1.33333 0 0 -1.33333 1005.868 818.065)"/><path d="M0 0c3.07 5.358 4.905 11.91 1.943 17.719-2.473 4.849-7.649 7.722-12.704 9.167-5.735 1.639-11.976 1.758-17.799.515-5.294-1.13-10.651-3.615-13.847-8.147-3.56-5.047-2.764-11.379-.31-16.708.401-.869.848-1.716 1.324-2.546l2.59 1.514c-3.104 5.332-7.867 10.2-14.375 10.529-5.461.276-10.543-2.79-14.33-6.468-4.281-4.157-7.508-9.518-9.325-15.193-1.639-5.119-2.16-10.972.157-15.97 3.058-6.599 10.425-8.735 17.177-8.759v3c-6.166-.022-12.772-1.707-16.31-7.178-2.974-4.597-2.859-10.535-1.565-15.662 1.46-5.786 4.494-11.257 8.5-15.668 3.617-3.983 8.408-7.332 13.893-7.842 7.237-.673 12.789 4.667 16.178 10.489l-2.59 1.514c-3.07-5.358-4.905-11.91-1.943-17.719 2.473-4.849 7.649-7.722 12.704-9.167 5.735-1.639 11.976-1.758 17.799-.515 5.293 1.13 10.651 3.615 13.847 8.147 3.56 5.047 2.764 11.379.31 16.708A33 33 0 0 1 0-65.694l-2.59-1.514c3.104-5.332 7.867-10.2 14.375-10.529 5.461-.276 10.542 2.79 14.33 6.468 4.281 4.157 7.508 9.518 9.325 15.193 1.639 5.119 2.159 10.972-.157 15.97-3.058 6.599-10.425 8.735-17.177 8.759v-3c6.166.022 12.772 1.707 16.31 7.178 2.973 4.597 2.859 10.535 1.565 15.662-1.46 5.786-4.495 11.257-8.5 15.668-3.617 3.983-8.408 7.332-13.893 7.842C6.351 12.676.799 7.336-2.59 1.514-3.564-.158-.972-1.67 0 0c1.513 2.599 3.435 5.187 5.87 6.884 1.947 1.357 4.037 2.114 6.216 2.17 4.511.116 8.737-2.484 12.034-5.724 3.808-3.742 6.724-8.525 8.371-13.574.817-2.501 1.304-4.881 1.353-7.415.041-2.19-.283-4.454-1.089-6.277-1.052-2.381-2.63-4.067-4.851-5.305-2.902-1.619-6.432-2.094-9.798-2.106-1.93-.007-1.933-2.993 0-3 2.993-.011 6.224-.39 8.875-1.633 2.152-1.01 3.847-2.422 5.005-4.314 2.371-3.873 2.208-8.82 1.058-13.267-1.335-5.164-4.007-10.079-7.564-14.039-1.739-1.937-3.586-3.579-5.76-4.89-1.026-.619-1.984-1.095-2.96-1.446a16 16 0 0 0-1.628-.489 11 11 0 0 0-1.394-.257c-2.591-.266-4.805.231-6.998 1.54-2.883 1.723-5.042 4.531-6.74 7.448-.971 1.668-3.553.165-2.59-1.514 1.475-2.576 2.8-5.719 3.017-8.478.188-2.401-.171-4.542-1.203-6.457-2.175-4.037-6.589-6.395-11.097-7.632-5.059-1.387-10.646-1.519-15.727-.461-2.591.539-4.926 1.312-7.12 2.511-1.99 1.087-3.856 2.549-5.017 4.178-1.54 2.163-2.193 4.321-2.135 6.907.071 3.185 1.401 6.52 3.069 9.432.962 1.678-1.618 3.184-2.59 1.514-1.513-2.599-3.435-5.187-5.87-6.884-1.947-1.357-4.037-2.114-6.216-2.17-4.511-.116-8.737 2.484-12.035 5.724-3.807 3.742-6.723 8.525-8.37 13.574-.817 2.501-1.305 4.88-1.353 7.415-.041 2.19.283 4.454 1.089 6.277 1.052 2.381 2.629 4.067 4.851 5.305 2.902 1.619 6.432 2.094 9.798 2.106 1.93.007 1.933 2.993 0 3-2.993.011-6.224.39-8.875 1.633-2.152 1.01-3.847 2.422-5.005 4.314-2.371 3.873-2.208 8.82-1.058 13.267 1.335 5.164 4.007 10.079 7.564 14.039 1.739 1.937 3.586 3.579 5.76 4.89 1.026.619 1.984 1.095 2.96 1.446q.801.29 1.628.489.861.205 1.394.257c2.591.266 4.805-.231 6.998-1.54 2.883-1.723 5.042-4.531 6.74-7.448.971-1.668 3.553-.165 2.59 1.514-1.475 2.576-2.8 5.719-3.017 8.478-.188 2.401.171 4.542 1.203 6.457 2.175 4.037 6.589 6.395 11.097 7.632 5.059 1.387 10.646 1.519 15.727.461 2.591-.539 4.926-1.312 7.12-2.511 1.99-1.087 3.856-2.549 5.016-4.178C-.116 15.69.537 13.532.479 10.946.408 7.761-.922 4.426-2.59 1.514-3.552-.164-.961-1.677 0 0" clip-path="url(#j)" style="fill:#000;fill-opacity:1;fill-rule:nonzero;stroke:none" transform="matrix(1.33333 0 0 -1.33333 1007.595 819.075)"/><path d="M18.728 0H3.458Q2.273.001 2.274-1.184v-21.328q-.001-1.183 1.184-1.183h15.27q1.182 0 1.183 1.183v3.844q0 1.185-1.183 1.184H9.645v2.543h6.422q1.183 0 1.184 1.183v3.516q-.001 1.195-1.184 1.195H9.645v2.824h9.083q1.182.001 1.183 1.184v3.855q0 1.185-1.183 1.184m16.066 0H24.388q-1.185.001-1.184-1.184v-3.855q-.001-1.183 1.184-1.184h8.859q.432 0 .645-.281.21-.28.21-.668 0-.562-.21-.82-.213-.269-.645-.305l-4.934-.691q-2.31-.361-3.714-1.524-1.396-1.17-1.395-3.937v-3.457q-.001-2.835 1.805-4.313 1.816-1.476 5.015-1.476h9.211q1.183 0 1.184 1.183v3.914q-.001 1.185-1.184 1.184h-7.664q-.89 0-.89.984 0 .963.89 1.055l4.899.656q1.544.237 2.695.809 1.16.575 1.793 1.699.643 1.115.645 2.965v3.457Q41.6-3 39.798-1.5 37.993.002 34.794 0M56.06 0h-5.333q-1.184.001-1.183-1.184v-16.16h-4.84q-1.185.002-1.184-1.183v-3.985q-.001-1.183 1.184-1.183h17.379q1.183 0 1.184 1.183v3.985q-.001 1.184-1.184 1.183h-4.84v16.16Q57.243.001 56.06 0m15.468 0h-6.644q-1.196.001-1.196-1.184v-6.68q0-1.182 1.196-1.183h6.644q1.183.001 1.184 1.184v6.68Q72.712 0 71.529 0m0 0" aria-label="EST." style="fill:#fef6e3;fill-opacity:1;fill-rule:nonzero;stroke:none" transform="translate(410.018 880.047)scale(1.33333)"/><path d="M0 0v3.852q0 1.185-1.185 1.185h-9.086v2.83h6.419q1.185 0 1.185 1.186v3.522q0 1.185-1.185 1.185h-6.419v2.534h9.086Q0 16.294 0 17.479v3.852q0 1.185-1.185 1.185h-15.274q-1.185 0-1.185-1.185V0q0-1.185 1.185-1.185h15.274Q0-1.185 0 0Z" clip-path="url(#k)" style="fill:none;stroke:#000;stroke-width:2;stroke-linecap:butt;stroke-linejoin:miter;stroke-miterlimit:10;stroke-dasharray:none;stroke-opacity:1" transform="matrix(1.33333 0 0 -1.33333 436.572 878.467)"/><path d="M0 0q1.81 1.497 1.811 4.295v3.457q0 1.843-.643 2.962a4.17 4.17 0 0 1-1.793 1.695q-1.153.577-2.7.807l-4.904.658q-.89.099-.889 1.054 0 .987.889.987H-.56q1.185 0 1.185 1.186v3.917q0 1.185-1.185 1.184h-9.216q-3.193 0-5.004-1.481t-1.81-4.312v-3.457q-.001-2.764 1.399-3.933t3.703-1.531l4.937-.691q.427-.033.642-.296.214-.264.214-.823 0-.396-.214-.675-.215-.28-.642-.279h-8.854q-1.185 0-1.185-1.186V-.313q0-1.186 1.185-1.185h10.402Q-1.811-1.498 0 0z" clip-path="url(#l)" style="fill:none;stroke:#000;stroke-width:2;stroke-linecap:butt;stroke-linejoin:miter;stroke-miterlimit:10;stroke-dasharray:none;stroke-opacity:1" transform="matrix(1.33333 0 0 -1.33333 463.08 878.05)"/><path d="M0 0v16.163h4.839q1.185 0 1.185 1.185v3.983q0 1.185-1.185 1.185h-17.38q-1.185 0-1.185-1.185v-3.983q0-1.185 1.185-1.185h4.838V0q0-1.185 1.185-1.185h5.333Q0-1.185 0 0Z" clip-path="url(#m)" style="fill:none;stroke:#000;stroke-width:2;stroke-linecap:butt;stroke-linejoin:miter;stroke-miterlimit:10;stroke-dasharray:none;stroke-opacity:1" transform="matrix(1.33333 0 0 -1.33333 486.341 878.467)"/><path d="M0 0v6.683q0 1.185-1.185 1.184h-6.649q-1.185 0-1.185-1.184V0q0-1.185 1.185-1.185h6.649Q0-1.185 0 0Z" clip-path="url(#n)" style="fill:none;stroke:#000;stroke-width:2;stroke-linecap:butt;stroke-linejoin:miter;stroke-miterlimit:10;stroke-dasharray:none;stroke-opacity:1" transform="matrix(1.33333 0 0 -1.33333 506.97 878.467)"/><path d="M12.282-19.372q2.153-.642 5.484-.644 3.936 0 6.14.867 2.203.87 3.106 2.602.914 1.723.914 4.312v4.149q0 2.636-1.043 4.605-1.031 1.97-3.738 3.047Q20.447.644 15.481.644q-3.985 0-6.54-.633Q6.4-.609 4.994-1.747 3.585-2.893 3.047-4.489q-.54-1.603-.539-3.597v-14.18q0-2.636.95-4.617.948-1.992 3.28-3.118 2.343-1.125 6.4-1.125h9.948q1.558.002 1.559 1.56v5.097q-.001 1.559-1.559 1.558h-8.085q-1.595.001-2.157.504c-.375.328-.562 1.026-.562 2.086zm0 8.04v2.554q-.001.693.515 1.149.515.456 2.38.457 1.942 0 2.46-.457a1.47 1.47 0 0 0 .516-1.149v-2.555q0-.64-.516-1.09-.518-.456-2.46-.456-1.865 0-2.38.457-.516.448-.515 1.09m46.6 3.164q-.001 1.982-.587 3.609-.588 1.619-2.039 2.789-1.442 1.16-4.02 1.781-2.565.633-6.538.633-3.986 0-6.574-.633-2.594-.62-4.043-1.781-1.442-1.17-2.028-2.79-.587-1.625-.586-3.608v-14.743q-.001-1.99.586-3.609.586-1.627 2.028-2.79 1.45-1.168 4.043-1.816 2.588-.642 6.574-.644 3.972.002 6.539.644 2.576.648 4.02 1.817 1.45 1.161 2.038 2.789.585 1.617.586 3.61zM42.24-9.728q-.001.87.62 1.454.633.575 2.837.574 2.25.001 2.847-.574.609-.584.61-1.453v-11.625q-.001-.866-.61-1.43-.597-.562-2.847-.562-2.204 0-2.836.562-.623.563-.621 1.43zm0 0" aria-label="60" style="fill:#fef6e3;fill-opacity:1;fill-rule:nonzero;stroke:none" transform="translate(938.988 887.579)scale(1.33333)"/><path d="M0 0q0 1.599.562 2.097.562.497 2.162.497h8.085q1.556 0 1.556 1.556v5.102q0 1.557-1.556 1.557H.864q-4.064 0-6.398-1.125-2.335-1.124-3.285-3.113-.952-1.988-.952-4.626v-14.18q0-1.989.541-3.589.54-1.6 1.945-2.745 1.404-1.146 3.956-1.772 2.55-.627 6.528-.627 4.972 0 7.674 1.08t3.74 3.049q1.037 1.966 1.037 4.604v4.151q0 2.593-.907 4.323-.908 1.728-3.113 2.594-2.205.864-6.14.864-3.33 0-5.49-.648zm.519-7.89q.518.454 2.377.454 1.946 0 2.465-.454t.519-1.103v-2.55q0-.692-.519-1.146-.52-.454-2.465-.454-1.859 0-2.377.454A1.46 1.46 0 0 0 0-11.543v2.55q0 .649.519 1.103z" clip-path="url(#o)" style="fill:none;stroke:#000;stroke-width:2;stroke-linecap:butt;stroke-linejoin:miter;stroke-miterlimit:10;stroke-dasharray:none;stroke-opacity:1" transform="matrix(1.33333 0 0 -1.33333 955.359 860.486)"/><path d="M0 0q0 1.989-.583 3.61-.584 1.622-2.032 2.789-1.45 1.167-4.021 1.816-2.573.648-6.55.648t-6.572-.648q-2.593-.65-4.042-1.816-1.448-1.167-2.032-2.789-.583-1.621-.583-3.61v-14.742q0-1.988.583-3.611.584-1.62 2.032-2.788 1.45-1.168 4.042-1.794 2.595-.627 6.572-.627t6.55.627q2.571.626 4.021 1.794 1.448 1.168 2.032 2.788Q0-16.73 0-14.742zm-16.645-1.556q0 .864.627 1.427.626.562 2.832.562 2.248 0 2.854-.562.604-.563.604-1.427v-11.63a1.93 1.93 0 0 0-.604-1.448q-.606-.584-2.854-.584-2.206 0-2.832.584a1.9 1.9 0 0 0-.627 1.448z" clip-path="url(#p)" style="fill:none;stroke:#000;stroke-width:2;stroke-linecap:butt;stroke-linejoin:miter;stroke-miterlimit:10;stroke-dasharray:none;stroke-opacity:1" transform="matrix(1.33333 0 0 -1.33333 1017.5 857.027)"/><path d="M24 0H5.18Q3.034 0 3.034-2.145v-6.96q0-2.145 2.144-2.145H21.2q.773 0 1.16-.504.387-.515.387-1.23 0-1.006-.387-1.477-.387-.479-1.16-.539l-8.93-1.254q-4.173-.655-6.703-2.766-2.531-2.119-2.531-7.125v-6.246q0-5.12 3.27-7.793 3.278-2.682 9.058-2.683H32.04q2.131 0 2.132 2.144v7.078Q34.17-31.5 32.04-31.5H18.164q-1.608 0-1.606 1.793-.002 1.722 1.606 1.898l8.87 1.196q2.801.411 4.876 1.453a7.6 7.6 0 0 1 3.246 3.07q1.16 2.03 1.16 5.356v6.257q-.002 5.063-3.281 7.77Q29.765 0 23.999 0m49.59-42.867h8.883q2.132 0 2.133 2.144v23.098q-.001 1.912-.117 3.55-.12 1.632-.95 3.833l-2.976 8.097a4.2 4.2 0 0 1-.867 1.524q-.563.623-1.512.621h-7.922q-.95.001-1.7-.41-.738-.421-1.042-1.371l-2.742-9.715q-.293-1.007-1.067-1.008h-.539q-.775 0-1.066 1.008l-2.8 9.715C58.944-.591 58.112 0 56.808 0h-7.863q-.95 0-1.64-.598-.682-.597-.985-1.547l-2.977-8.214q-.774-2.201-.926-3.844a42 42 0 0 1-.14-3.54v-22.98q0-2.145 2.144-2.144h9.164q2.145 0 2.145 2.144v21.903l3.457-7.5q.48-1.006 1.254-1.418.773-.422 1.898-.422h2.508q1.183 0 1.922.422.747.412 1.23 1.418l3.457 7.5v-21.903q0-2.145 2.133-2.144M122.065 0H94.444q-2.145 0-2.145-2.145v-38.578q0-2.145 2.145-2.144h27.62q2.145 0 2.145 2.144v6.961q0 2.145-2.144 2.145h-16.43v4.582h11.613q2.132 0 2.133 2.144v6.375q0 2.145-2.133 2.145h-11.613v5.121h16.43q2.145 0 2.144 2.144v6.961Q124.21 0 122.065 0m21.316-2.145q0 2.145-2.144 2.145h-8.754q-2.145 0-2.145-2.145v-15.714q0-1.794.563-4.114c.38-1.547.973-3.351 1.77-5.414l5.18-13.523q.642-1.957 3.034-1.957h16.008q2.33 0 2.988 1.957l5.18 13.523q1.183 3.094 1.746 5.414.573 2.32.574 4.114v15.714q0 2.145-2.144 2.145h-8.988q-2.334 0-2.333-2.145v-8.332h-10.535zm3.399-28.218-2.801 9.047h9.352l-2.801-9.047q-.423-1.02-1.137-1.02h-1.488q-.717 0-1.125 1.02M192.562 0h-9.645q-2.144 0-2.144-2.145v-29.238h-8.754q-2.145 0-2.145-2.144v-7.196q0-2.145 2.145-2.144h31.441q2.145 0 2.145 2.144v7.196q0 2.145-2.145 2.144h-8.754v29.238q0 2.145-2.144 2.145m48.589 0H213.53q-2.145 0-2.145-2.145v-38.578q0-2.145 2.145-2.144h27.62q2.145 0 2.145 2.144v6.961q0 2.145-2.144 2.145h-16.43v4.582h11.613q2.132 0 2.133 2.144v6.375q0 2.145-2.133 2.145h-11.613v5.121h16.43q2.144 0 2.144 2.144v6.961q0 2.145-2.144 2.145m20.484 0h-9.164q-2.144 0-2.144-2.145v-38.578q0-2.145 2.144-2.144h19.817q4.474 0 7.03 1.254 2.567 1.244 3.634 3.48 1.065 2.229 1.066 5.203v2.742q-.001 2.499-.715 4.23-.715 1.725-2.613 2.556 3.27.365 5.238 2.625 1.97 2.262 1.969 6.011v12.621q0 2.145-2.145 2.145h-9.234q-2.144 0-2.144-2.145v-9.105q-.002-1.37-.504-1.969-.505-.597-1.758-.597h-8.332v11.671Q263.78 0 261.635 0m2.145-32.156v7.629h4.465q1.545 0 2.086-.809.537-.807.539-1.992v-2.028q-.002-1.192-.54-1.992-.54-.808-2.085-.808zm0 0" aria-label="SWEATER" style="fill:#fef6e3;fill-opacity:1;fill-rule:nonzero;stroke:none" transform="translate(528.208 972.574)scale(1.33333)"/><path d="M0 0q3.275 2.709 3.275 7.771v6.251q0 3.334-1.161 5.359a7.57 7.57 0 0 1-3.245 3.067q-2.084 1.04-4.883 1.459l-8.872 1.191q-1.608.178-1.607 1.905 0 1.786 1.607 1.786h13.873q2.145 0 2.145 2.144v7.086q0 2.143-2.145 2.143h-16.672q-5.776 0-9.05-2.679-3.275-2.68-3.275-7.8V23.43q0-5.001 2.531-7.115 2.53-2.115 6.698-2.769l8.931-1.251q.774-.06 1.162-.535.386-.477.387-1.489 0-.715-.387-1.221-.388-.506-1.162-.506h-16.016q-2.145 0-2.144-2.143V-.566q0-2.143 2.144-2.143h18.815Q-3.276-2.709 0 0z" clip-path="url(#q)" style="fill:none;stroke:#000;stroke-width:2;stroke-linecap:butt;stroke-linejoin:miter;stroke-miterlimit:10;stroke-dasharray:none;stroke-opacity:1" transform="matrix(1.33333 0 0 -1.33333 572.27 968.962)"/><path d="M0 0v-21.912l-3.453 7.502q-.477 1.012-1.221 1.43-.745.416-1.935.417H-9.11q-1.132 0-1.906-.417-.774-.418-1.25-1.43l-3.454-7.502V0q0 2.144-2.143 2.144h-9.17q-2.144 0-2.144-2.144v-22.984q0-1.907.15-3.543.147-1.638.923-3.84l2.977-8.217q.296-.954.982-1.549.684-.595 1.637-.595h7.861q1.964 0 2.501 1.786l2.797 9.706q.298 1.012 1.073 1.012h.536q.772 0 1.071-1.012l2.739-9.706q.297-.953 1.042-1.369.744-.417 1.698-.417h7.919q.951 0 1.518.625.565.625.863 1.519l2.978 8.098q.832 2.201.952 3.84a49 49 0 0 1 .119 3.543V0q0 2.144-2.143 2.144H2.144Q0 2.144 0 0Z" clip-path="url(#r)" style="fill:none;stroke:#000;stroke-width:2;stroke-linecap:butt;stroke-linejoin:miter;stroke-miterlimit:10;stroke-dasharray:none;stroke-opacity:1" transform="matrix(1.33333 0 0 -1.33333 623.477 918.27)"/><path d="M0 0v6.967Q0 9.11-2.144 9.11h-16.434v5.121h11.611q2.144 0 2.144 2.144v6.371q0 2.144-2.144 2.144h-11.611v4.584h16.434Q0 29.474 0 31.618v6.966q0 2.144-2.144 2.144h-27.628q-2.144 0-2.144-2.144V0q0-2.144 2.144-2.144h27.628Q0-2.144 0 0Z" clip-path="url(#s)" style="fill:none;stroke:#000;stroke-width:2;stroke-linecap:butt;stroke-linejoin:miter;stroke-miterlimit:10;stroke-dasharray:none;stroke-opacity:1" transform="matrix(1.33333 0 0 -1.33333 693.818 969.716)"/><path d="M0 0h10.539v-8.336q0-2.145 2.322-2.144h8.992q2.142 0 2.143 2.144V7.383q0 1.787-.565 4.109-.567 2.322-1.757 5.418l-5.181 13.517q-.656 1.965-2.976 1.965H-2.501q-2.383 0-3.037-1.965l-5.181-13.517q-1.19-3.096-1.756-5.418t-.565-4.109V-8.336q0-2.144 2.144-2.144h8.752Q0-10.48 0-8.336zm4.525 20.9h1.489q.714 0 1.131-1.012l2.798-9.051H.595l2.799 9.051q.416 1.011 1.131 1.012Z" clip-path="url(#t)" style="fill:none;stroke:#000;stroke-width:2;stroke-linecap:butt;stroke-linejoin:miter;stroke-miterlimit:10;stroke-dasharray:none;stroke-opacity:1" transform="matrix(1.33333 0 0 -1.33333 719.382 958.6)"/><path d="M0 0v29.236h8.753q2.143 0 2.143 2.144v7.204q0 2.144-2.143 2.144h-31.44q-2.143 0-2.143-2.144V31.38q0-2.144 2.143-2.144h8.753V0q0-2.144 2.144-2.144h9.646Q0-2.144 0 0Z" clip-path="url(#u)" style="fill:none;stroke:#000;stroke-width:2;stroke-linecap:butt;stroke-linejoin:miter;stroke-miterlimit:10;stroke-dasharray:none;stroke-opacity:1" transform="matrix(1.33333 0 0 -1.33333 787.817 969.716)"/><path d="M0 0v6.967Q0 9.11-2.144 9.11h-16.434v5.121h11.611q2.144 0 2.144 2.144v6.371q0 2.144-2.144 2.144h-11.611v4.584h16.434Q0 29.474 0 31.618v6.966q0 2.144-2.144 2.144h-27.628q-2.144 0-2.144-2.144V0q0-2.144 2.144-2.144h27.628Q0-2.144 0 0Z" clip-path="url(#v)" style="fill:none;stroke:#000;stroke-width:2;stroke-linecap:butt;stroke-linejoin:miter;stroke-miterlimit:10;stroke-dasharray:none;stroke-opacity:1" transform="matrix(1.33333 0 0 -1.33333 852.6 969.716)"/><path d="M0 0v11.67h8.336q1.25 0 1.757-.595t.506-1.965V0q0-2.144 2.143-2.144h9.23q2.142 0 2.143 2.144v12.624q0 3.75-1.965 6.013-1.964 2.263-5.24 2.62 1.906.833 2.62 2.56t.715 4.228v2.739q0 2.978-1.072 5.21-1.072 2.233-3.632 3.484t-7.026 1.25h-19.828q-2.144 0-2.144-2.144V0q0-2.144 2.144-2.144h9.169Q0-2.144 0 0Zm4.466 30.01q1.547 0 2.084-.803.536-.805.536-1.996v-2.024q0-1.19-.536-1.995-.536-.803-2.084-.803H0v7.621z" clip-path="url(#w)" style="fill:none;stroke:#000;stroke-width:2;stroke-linecap:butt;stroke-linejoin:miter;stroke-miterlimit:10;stroke-dasharray:none;stroke-opacity:1" transform="matrix(1.33333 0 0 -1.33333 879.91 969.716)"/><path d="M0 0s-1.586-8.739-6.359-16.98c-2.882-4.978-8.974-7.097-14.3-4.923l-19.901 8.124c-5.441 2.221-8.328 8.193-6.68 13.835 1.699 5.822 4.31 12.662 7.864 16.197z" clip-path="url(#x)" style="fill:#f7583b;fill-opacity:1;fill-rule:nonzero;stroke:none" transform="matrix(1.33333 0 0 -1.33333 835.028 852.991)"/><path d="M0 0c-.355-1.936-.901-3.849-1.491-5.725-1.262-4.009-2.824-8.359-5.294-11.796-2.077-2.891-5.68-4.454-9.206-4.077-1.564.168-2.991.811-4.428 1.398l-12.825 5.235c-3.676 1.501-7.803 2.58-10.007 6.146a10.03 10.03 0 0 0-1.504 5.359c.019 2.176.855 4.303 1.55 6.338 1.43 4.182 3.188 8.704 6.336 11.915l-1.459-.385L-3.781.148l4.829-1.993c1.783-.736 2.56 2.165.797 2.893l-34.548 14.26-4.828 1.992c-.474.196-1.121-.04-1.459-.385-3.009-3.07-4.84-7.147-6.343-11.114-1.499-3.955-3.061-8.097-2.067-12.363.873-3.75 3.54-7.075 7.038-8.695 1.251-.58 2.555-1.063 3.831-1.584l14.191-5.793c1.334-.545 2.68-1.19 4.074-1.569 3.803-1.034 7.993-.223 11.141 2.142 4.007 3.01 5.978 8.35 7.635 12.909.985 2.708 1.861 5.514 2.383 8.354C3.239 1.09.349 1.899 0 0" clip-path="url(#y)" style="fill:#000;fill-opacity:1;fill-rule:nonzero;stroke:none" transform="matrix(1.33333 0 0 -1.33333 833.1 852.46)"/><path d="M0 0a681 681 0 0 1-13.801-37.942c-.607-1.837 2.289-2.625 2.893-.798A681 681 0 0 0 2.893-.798C3.606.997.706 1.776 0 0" clip-path="url(#z)" style="fill:#000;fill-opacity:1;fill-rule:nonzero;stroke:none" transform="matrix(1.33333 0 0 -1.33333 786.938 830.67)"/><path d="m0 0-12.256-36.028c-.623-1.832 2.273-2.618 2.893-.798L2.893-.798C3.516 1.034.619 1.821 0 0" clip-path="url(#A)" style="fill:#000;fill-opacity:1;fill-rule:nonzero;stroke:none" transform="matrix(1.33333 0 0 -1.33333 799.8 835.968)"/><path d="m0 0-15.925-36.916c-.757-1.754 1.827-3.284 2.59-1.514L2.59-1.514C3.347.24.763 1.77 0 0" clip-path="url(#B)" style="fill:#000;fill-opacity:1;fill-rule:nonzero;stroke:none" transform="matrix(1.33333 0 0 -1.33333 813.322 844.292)"/><path d="m0 0-14.339-34.269c-.315-.754.34-1.642 1.048-1.846.861-.247 1.534.305 1.845 1.048L2.893-.798c.315.754-.34 1.643-1.048 1.846C.984 1.295.311.744 0 0" clip-path="url(#C)" style="fill:#000;fill-opacity:1;fill-rule:nonzero;stroke:none" transform="matrix(1.33333 0 0 -1.33333 825.45 850.579)"/><path d="M0 0s3.191-9.686 9.952-17.53c3.061-3.551 8.239-4.384 12.293-2.029l21.137 12.28c4.27 2.481 6.034 7.756 4.087 12.294-2.501 5.834-6.323 13.226-10.719 16.527z" clip-path="url(#D)" style="fill:#f7583b;fill-opacity:1;fill-rule:nonzero;stroke:none" transform="matrix(1.33333 0 0 -1.33333 628.604 861.345)"/><path d="M0 0c2.091-6.308 5.552-12.42 9.775-17.525 2.832-3.423 7.046-5.144 11.462-4.187 1.825.396 3.374 1.352 4.961 2.274l13.715 7.967c3.97 2.307 8.564 4.254 10.435 8.776a11.34 11.34 0 0 1 .563 6.821c-.545 2.416-1.884 4.787-2.993 6.986-2.253 4.465-4.946 9.028-8.964 12.124-.41.315-1.097.244-1.514 0L5.196 4.335.689 1.694C-.975.718.533-1.876 2.203-.896l32.245 18.9 4.506 2.641H37.44c3.248-2.503 5.455-6.399 7.33-9.964 1.719-3.269 4.145-7.134 3.22-10.973-1.051-4.356-5.231-6.056-8.74-8.094l-13.053-7.583c-1.072-.623-2.136-1.262-3.217-1.869-2.954-1.659-6.671-1.524-9.358.631-1.931 1.548-3.402 3.888-4.739 5.942a60 60 0 0 0-3.341 5.864c-1 2.005-1.943 4.069-2.649 6.199C2.288 2.621-.61 1.84 0 0" clip-path="url(#E)" style="fill:#000;fill-opacity:1;fill-rule:nonzero;stroke:none" transform="matrix(1.33333 0 0 -1.33333 626.675 861.877)"/><path d="M0 0a367 367 0 0 1 26.533-33.112c1.295-1.437 3.411.69 2.121 2.122A361 361 0 0 0 2.59 1.514C1.481 3.075-1.122 1.578 0 0" clip-path="url(#F)" style="fill:#000;fill-opacity:1;fill-rule:nonzero;stroke:none" transform="matrix(1.33333 0 0 -1.33333 630.946 859.065)"/><path d="m0 0 29.546-36.918c1.206-1.507 3.316.628 2.121 2.121L2.121 2.121C.915 3.628-1.195 1.494 0 0" clip-path="url(#G)" style="fill:#000;fill-opacity:1;fill-rule:nonzero;stroke:none" transform="matrix(1.33333 0 0 -1.33333 642.55 851.734)"/><path d="M0 0a434 434 0 0 0 25.467-36.751c1.015-1.638 3.612-.133 2.591 1.514A441 441 0 0 1 2.121 2.121c-.499.646-1.594.516-2.121 0C-.64 1.496-.493.637 0 0" clip-path="url(#H)" style="fill:#000;fill-opacity:1;fill-rule:nonzero;stroke:none" transform="matrix(1.33333 0 0 -1.33333 654.565 841.244)"/><path d="M0 0a1143 1143 0 0 0 23.681-34.078c1.067-1.597 3.667-.097 2.59 1.514A1143 1143 0 0 1 2.59 1.514C1.471 3.065-1.133 1.569 0 0" clip-path="url(#I)" style="fill:#000;fill-opacity:1;fill-rule:nonzero;stroke:none" transform="matrix(1.33333 0 0 -1.33333 669.418 840.013)"/><path d="M0 0s83.793-16.899 146.088 6.258l-3.427 49.046L8.164 41.89Z" clip-path="url(#J)" style="fill:#f7583b;fill-opacity:1;fill-rule:nonzero;stroke:none" transform="matrix(1.33333 0 0 -1.33333 631.388 787.868)"/><path d="M0 0c2.921-.588 5.869-1.057 8.813-1.511a386 386 0 0 1 23.552-2.873C43.344-5.39 54.368-5.953 65.394-6.001c12.792-.056 25.603.576 38.299 2.172 13.051 1.64 26.014 4.251 38.5 8.431q2.36.79 4.693 1.656c.589.218 1.149.757 1.101 1.447l-1.156 16.549-1.845 26.402-.426 6.094c-.052.747-.648 1.585-1.5 1.5l-13.404-1.336-32.179-3.21-38.785-3.868-33.536-3.345c-5.454-.544-10.915-1.038-16.363-1.632l-.23-.023c-.622-.062-1.314-.418-1.447-1.101L4.37 29.644-.037 7.029l-1.011-5.184c-.367-1.886 2.524-2.693 2.893-.797l2.746 14.091 4.408 22.614 1.01 5.184-1.446-1.101 13.404 1.337 32.179 3.209 38.785 3.869 33.536 3.344 11.07 1.105c1.715.171 3.609.144 5.293.528.073.016.155.015.23.022l-1.5 1.5 1.156-16.549 1.845-26.402.426-6.094 1.101 1.446c-12.266-4.542-25.073-7.496-38.003-9.384-12.64-1.845-25.431-2.648-38.199-2.759-11.264-.097-22.532.359-33.757 1.281A380 380 0 0 0 11.69 1.068C8.093 1.599 4.522 2.244.94 2.865l-.142.028C-1.088 3.272-1.894.382 0 0" clip-path="url(#K)" style="fill:#000;fill-opacity:1;fill-rule:nonzero;stroke:none" transform="matrix(1.33333 0 0 -1.33333 630.856 789.796)"/><path d="M0 0a238 238 0 0 1 1.696-41.848c.244-1.888 3.247-1.913 3 0A238 238 0 0 0 3 0C3.092 1.93.092 1.925 0 0" clip-path="url(#L)" style="fill:#000;fill-opacity:1;fill-rule:nonzero;stroke:none" transform="matrix(1.33333 0 0 -1.33333 671.833 755.148)"/><path d="m0 0 1.094-46.434c.045-1.928 3.045-1.935 3 0L3 0C2.955 1.927-.046 1.934 0 0" clip-path="url(#M)" style="fill:#000;fill-opacity:1;fill-rule:nonzero;stroke:none" transform="matrix(1.33333 0 0 -1.33333 692.057 751.627)"/><path d="M0 0a838 838 0 0 0 4.092-44.078c.127-1.916 3.128-1.931 3 0A838 838 0 0 1 3 0C2.774 1.893-.229 1.916 0 0" clip-path="url(#N)" style="fill:#000;fill-opacity:1;fill-rule:nonzero;stroke:none" transform="matrix(1.33333 0 0 -1.33333 712.813 751.653)"/><path d="M0 0a334 334 0 0 0 4.379-39.505c.098-1.921 3.098-1.933 3 0A340 340 0 0 1 2.893.798C2.566 2.696-.325 1.891 0 0" clip-path="url(#O)" style="fill:#000;fill-opacity:1;fill-rule:nonzero;stroke:none" transform="matrix(1.33333 0 0 -1.33333 736.953 754.14)"/><path d="M0 0a428 428 0 0 0 .008-52.171c-.117-1.928 2.883-1.921 3 0A428 428 0 0 1 3 0C2.882 1.918-.118 1.931 0 0" clip-path="url(#P)" style="fill:#000;fill-opacity:1;fill-rule:nonzero;stroke:none" transform="matrix(1.33333 0 0 -1.33333 766.578 746.335)"/><path d="m0 0-.897-40.391c-.043-1.931 2.957-1.93 3 0L3 0C3.043 1.931.043 1.931 0 0" clip-path="url(#Q)" style="fill:#000;fill-opacity:1;fill-rule:nonzero;stroke:none" transform="matrix(1.33333 0 0 -1.33333 785.876 754.513)"/><path d="M0 0s-92.462 39.645-121.468-104.963c0 0-38.723-56.701 24.709-149.521 0 0 24.308-59.967 41.891-56.071l33.855 20.377a15.935 15.935 0 0 1 6.401 20.007 2348 2348 0 0 1-19.774 44.201s77.157-2.973 105.861 5.725c0 0-12.993-27.255-18.242-46.12-2.086-7.497.833-15.481 7.198-19.957 8.07-5.675 20.295-12.903 32.327-14.757 6.716-1.036 13.384 2.108 16.816 7.973 14.716 25.15 58.926 106.611 50.605 164.468-4.621 32.134-15.004 64.933-34.476 91.272-19.32 26.132-53.545 49.012-87.31 39.824 0 0-22.092-6.9-38.393-2.458" clip-path="url(#R)" style="fill:#ffd79c;fill-opacity:1;fill-rule:nonzero;stroke:none" transform="matrix(1.33333 0 0 -1.33333 703.658 458.593)"/><path d="M0 0c-4.513 1.932-9.424 3.086-14.242 3.917-11.122 1.919-22.618 1.681-33.573-1.123-15.421-3.946-28.968-12.992-39.497-24.822-16.538-18.582-26.057-42.6-32.327-66.365a290 290 0 0 1-2.947-12.276c-.34-1.559-.424-3.566-1.033-4.981-.349-.813-.961-1.583-1.384-2.364-2.245-4.133-4.012-8.543-5.455-13.014-5.785-17.922-6.132-37.292-2.999-55.75 2.396-14.119 6.894-27.809 12.692-40.883 3.612-8.144 7.752-16.05 12.287-23.716a273 273 0 0 1 7.928-12.586c.689-1.032 1.442-1.874 1.911-2.998a283 283 0 0 1 8.766-18.978c4.662-9.206 9.773-18.358 16.258-26.421 2.666-3.315 5.655-6.545 9.272-8.84 2.505-1.59 6.514-3.289 9.478-1.943 2.007.911 3.912 2.355 5.797 3.489l12.463 7.501 11.723 7.056c2.388 1.437 4.961 2.773 6.987 4.713 5.313 5.088 6.682 12.987 3.821 19.675-2.789 6.518-5.687 12.993-8.575 19.468a2440 2440 0 0 1-11.198 24.733l-1.296-2.257c9.304-.358 18.622-.47 27.931-.489 17.888-.036 35.849.292 53.662 2.049 8.268.815 16.685 1.82 24.667 4.219l-1.694 2.203c-5.802-12.178-11.132-24.687-15.542-37.437-1.454-4.203-3.241-8.661-3.533-13.134-.306-4.681 1.172-9.428 3.997-13.159 2.882-3.806 7.212-6.32 11.228-8.773 4.655-2.844 9.518-5.361 14.602-7.347 4.788-1.871 10.335-3.766 15.549-3.395 4.649.331 9.122 2.431 12.234 5.925 1.915 2.149 3.241 4.796 4.661 7.285a507 507 0 0 1 4.007 7.16c7.299 13.294 14.051 26.897 20.138 40.788 7.372 16.824 13.843 34.104 18.517 51.882 4.513 17.164 7.552 35.118 6.465 52.916-.614 10.049-2.588 20.096-4.828 29.893-2.49 10.89-5.712 21.623-9.822 32.014-7.845 19.836-18.898 38.805-34.383 53.657C98.197-8.585 79.649 2.431 59.323 4.428c-7.984.785-15.834-.112-23.541-2.239C28.589.204 21.112-1.059 13.648-1.26 8.935-1.388 4.21-1.061-.358.151c-1.868.496-2.665-2.397-.798-2.893 8.814-2.339 18.207-1.744 27.116-.275 5.345.881 10.458 2.526 15.745 3.606 19.801 4.047 39.833-3.16 55.937-14.503 16.834-11.858 29.6-28.311 39.023-46.478 10.009-19.298 16.28-40.4 20.01-61.765 1.519-8.698 2.463-17.339 2.24-26.178-.22-8.704-1.293-17.368-2.908-25.918-3.338-17.676-8.869-34.909-15.417-51.641-5.911-15.103-12.731-29.85-20.17-44.259a526 526 0 0 0-8.791-16.324 468 468 0 0 0-3.496-6.119c-2.142-3.684-5.039-6.573-9.218-7.827-4.928-1.479-10.138-.014-14.862 1.565-5.162 1.725-10.076 4.132-14.777 6.858-3.993 2.316-8.579 4.769-11.69 8.24-3.12 3.481-4.64 8.225-4.202 12.869.214 2.265.991 4.477 1.664 6.638a184 184 0 0 0 2.099 6.303c1.517 4.315 3.161 8.586 4.875 12.826a454 454 0 0 0 9.991 22.827c.533 1.118-.353 2.607-1.694 2.204-6.95-2.089-14.228-3.083-21.425-3.86-8.844-.956-17.733-1.476-26.62-1.815-15.844-.604-31.714-.614-47.564-.273-3.285.071-6.57.15-9.853.276-1.232.047-1.741-1.287-1.295-2.257a2402 2402 0 0 0 11.403-25.192c2.823-6.331 5.804-12.636 8.393-19.067 2.661-6.608.159-14.157-5.887-17.899-1.918-1.186-3.866-2.326-5.797-3.489l-23.639-14.227-3.469-2.088c-.265-.159-.532-.362-.814-.49-.046-.02-.085-.06-.131-.079.383.151-.378.036-.616.027-2.929-.105-5.81 1.666-8.091 3.569-7.341 6.125-12.535 14.918-17.18 23.138-4.338 7.677-8.216 15.619-11.772 23.686a274 274 0 0 0-1.445 3.341c-.042.1-.13.307-.322.768-.076.184-.144.373-.228.553-.417.896-1.032 1.687-1.583 2.509a279 279 0 0 0-4.306 6.614 258 258 0 0 0-7.063 11.871c-7.657 13.709-14.009 28.193-18.194 43.348-5.496 19.899-7.226 41.196-2.552 61.443 1.294 5.606 3.16 11.394 5.434 16.368.99 2.164 2.306 4.144 3.342 6.265.296.607.361 1.312.496 1.97q.634 3.082 1.329 6.151a282 282 0 0 0 3.012 12.08c1.899 6.94 4.082 13.806 6.63 20.536 4.24 11.202 9.534 22.076 16.329 31.962 9.372 13.633 21.998 25.34 37.54 31.471C-44.61 1.46-32.836 2.919-21.076 1.824c6.153-.572 12.892-1.896 19.008-4.205.22-.084 1.357-.553.554-.209C.241-3.342 1.771-.758 0 0" clip-path="url(#S)" style="fill:#000;fill-opacity:1;fill-rule:nonzero;stroke:none" transform="matrix(1.33333 0 0 -1.33333 704.667 456.866)"/><path d="M0 0c-1.348 6.168-3.04 12.275-4.829 18.326-3.738 12.654-8.154 25.178-13.85 37.093-3.234 6.763-6.912 13.374-11.482 19.334v-1.514l17.076 38.382c.778 1.748-1.807 3.276-2.591 1.514l-14.936-33.573-2.14-4.809c-.202-.455-.34-1.07 0-1.514 8.179-10.666 13.74-23.288 18.418-35.808 3.893-10.422 7.16-21.088 9.907-31.868.539-2.112 1.069-4.23 1.534-6.361C-2.481-2.683.412-1.885 0 0" clip-path="url(#T)" style="fill:#000;fill-opacity:1;fill-rule:nonzero;stroke:none" transform="matrix(1.33333 0 0 -1.33333 659.74 759.355)"/><path d="m0 0 7.129 17.962 11.705 29.494c1.035 2.607 2.136 5.197 3.107 7.828.496 1.345-.364 2.767-.82 4.047L11.49 86.345c-2.661 7.465-5.257 14.956-7.985 22.397l-.139.39c-.643 1.806-3.543 1.028-2.892-.797l6.729-18.877 10.216-28.653 1.358-3.811c.115-.323.203-.686.354-.994.301-.61-.361.168.087.511-.317-.243-.538-1.358-.679-1.712l-1.613-4.064L5.652 22.328.191 8.568c-.978-2.463-2.057-4.91-2.941-7.409-.043-.122-.095-.241-.143-.361C-3.605-.997-.705-1.776 0 0" clip-path="url(#U)" style="fill:#000;fill-opacity:1;fill-rule:nonzero;stroke:none" transform="matrix(1.33333 0 0 -1.33333 800.887 752.784)"/><path d="M0 0a35.7 35.7 0 0 0 14.631-7.956c1.429-1.292 3.557.824 2.121 2.122A38.96 38.96 0 0 1 .798 2.893C-1.069 3.396-1.865.503 0 0" clip-path="url(#V)" style="fill:#000;fill-opacity:1;fill-rule:nonzero;stroke:none" transform="matrix(1.33333 0 0 -1.33333 597.302 652.887)"/><path d="M0 0c2.232 4.755 7.204 8.607 12.149 10.624 2.998 1.223 6.193 1.895 9.416 2.13 1.914.139 1.929 3.14 0 3-9.163-.668-18.045-4.796-23.204-12.613-.344-.521-.685-1.06-.951-1.627C-3.406-.223-.82-1.748 0 0" clip-path="url(#W)" style="fill:#000;fill-opacity:1;fill-rule:nonzero;stroke:none" transform="matrix(1.33333 0 0 -1.33333 830.177 678.95)"/><path d="M0 0c.455-19.549-15.023-35.766-34.573-36.221-19.549-.455-35.765 15.023-36.221 34.572s15.024 35.766 34.573 36.222C-16.672 35.028-.455 19.549 0 0" clip-path="url(#X)" style="fill:#64a3d8;fill-opacity:1;fill-rule:nonzero;stroke:none" transform="matrix(1.33333 0 0 -1.33333 588.279 702.807)"/><path d="M0 0c.258-14.032-8.282-27.255-21.448-32.381-13.325-5.189-28.708-1.404-38.097 9.373-9.349 10.73-10.855 26.739-3.767 39.058 7.026 12.211 21.346 19.014 35.259 16.538C-14.208 30.123-3.111 19.126-.538 5.298-.212 3.547-.05 1.779 0 0c.054-1.926 3.055-1.934 3 0-.433 15.378-10.456 29.146-25.043 34.134-14.567 4.981-31.264.04-40.778-12.051-9.591-12.189-10.614-29.584-2.227-42.707 8.31-13.001 24.175-19.557 39.242-16.214C-10.911-33.535.652-20.844 2.671-5.748A38 38 0 0 1 3 0C2.965 1.928-.036 1.934 0 0" clip-path="url(#Y)" style="fill:#000;fill-opacity:1;fill-rule:nonzero;stroke:none" transform="matrix(1.33333 0 0 -1.33333 586.279 702.807)"/><path d="M0 0c.455-19.549-15.023-35.766-34.572-36.221S-70.338-21.198-70.794-1.649C-71.249 17.9-55.77 34.117-36.221 34.572-16.672 35.028-.455 19.549 0 0" clip-path="url(#Z)" style="fill:#64a3d8;fill-opacity:1;fill-rule:nonzero;stroke:none" transform="matrix(1.33333 0 0 -1.33333 955.649 714.054)"/><path d="M0 0c.258-14.032-8.282-27.255-21.448-32.382-13.325-5.188-28.708-1.403-38.097 9.374-9.348 10.73-10.855 26.739-3.767 39.058 7.026 12.211 21.346 19.014 35.259 16.538C-14.208 30.123-3.111 19.126-.538 5.298-.212 3.547-.05 1.779 0 0c.054-1.927 3.055-1.934 3 0-.433 15.378-10.456 29.146-25.043 34.134-14.567 4.981-31.264.04-40.778-12.051-9.591-12.189-10.614-29.584-2.227-42.707 8.31-13.001 24.175-19.557 39.242-16.214C-10.911-33.535.652-20.845 2.671-5.748A38 38 0 0 1 3 0C2.965 1.928-.036 1.934 0 0" clip-path="url(#aa)" style="fill:#000;fill-opacity:1;fill-rule:nonzero;stroke:none" transform="matrix(1.33333 0 0 -1.33333 953.649 714.054)"/><path d="M0 0c-4.513 1.932-9.424 3.086-14.242 3.917-11.122 1.919-22.618 1.681-33.573-1.123-15.421-3.946-28.968-12.992-39.497-24.822-16.538-18.582-26.057-42.6-32.327-66.365a290 290 0 0 1-2.947-12.276c-.34-1.559-.424-3.566-1.033-4.981-.349-.813-.961-1.583-1.384-2.364-2.245-4.133-4.012-8.543-5.455-13.014-5.785-17.922-6.132-37.292-2.999-55.75 2.396-14.119 6.894-27.809 12.692-40.883 3.612-8.144 7.752-16.05 12.287-23.716a273 273 0 0 1 7.928-12.586c.689-1.032 1.442-1.874 1.911-2.998a283 283 0 0 1 8.766-18.978c4.662-9.206 9.773-18.358 16.258-26.421 2.666-3.315 5.655-6.545 9.272-8.84 2.505-1.59 6.514-3.289 9.478-1.943 2.007.911 3.912 2.355 5.797 3.489l12.463 7.501 11.723 7.056c2.388 1.437 4.961 2.773 6.987 4.713 5.313 5.088 6.682 12.987 3.821 19.675-2.789 6.518-5.687 12.993-8.575 19.468a2440 2440 0 0 1-11.198 24.733l-1.296-2.257c9.304-.358 18.622-.47 27.931-.489 17.888-.036 35.849.292 53.662 2.049 8.268.815 16.685 1.82 24.667 4.219l-1.694 2.203c-5.739-12.045-11.009-24.413-15.395-37.014-1.463-4.204-3.234-8.637-3.645-13.097-.42-4.569.893-9.33 3.552-13.064 2.819-3.959 7.067-6.505 11.136-9.02 4.645-2.87 9.496-5.416 14.569-7.443 4.773-1.908 10.06-3.747 15.276-3.272a21.06 21.06 0 0 1 12.113 5.242c2.637 2.348 4.305 5.368 6.023 8.394a503 503 0 0 1 4.062 7.291c7.343 13.436 14.131 27.185 20.232 41.229 7.356 16.936 13.796 34.336 18.374 52.24 4.394 17.185 7.283 35.184 5.906 52.96-.788 10.171-2.841 20.349-5.199 30.26-2.564 10.781-5.858 21.399-10.035 31.666-7.961 19.572-19.088 38.207-34.578 52.757C97.276-7.998 78.783 2.743 58.599 4.496c-7.781.675-15.398-.269-22.901-2.33-7.169-1.97-14.614-3.225-22.05-3.426C8.935-1.388 4.21-1.061-.358.151c-1.868.496-2.665-2.397-.798-2.893 8.814-2.339 18.208-1.744 27.116-.275C31.142-2.163 36.1-.604 41.216.487c19.521 4.163 39.352-2.663 55.4-13.688 16.873-11.592 29.758-27.789 39.299-45.762 10.069-18.968 16.46-39.748 20.335-60.819 1.64-8.916 2.808-17.803 2.696-26.882-.106-8.628-1.074-17.229-2.594-25.717-3.197-17.838-8.686-35.233-15.217-52.112-5.889-15.216-12.709-30.068-20.159-44.58a528 528 0 0 0-8.86-16.535c-1.211-2.165-2.409-4.343-3.686-6.47-2.365-3.943-6.178-6.864-10.621-8.074-4.86-1.323-9.59-.138-14.234 1.456-5.244 1.8-10.233 4.294-15.002 7.108-4.007 2.364-8.643 4.847-11.588 8.532-2.863 3.583-4.174 8.348-3.514 12.887.622 4.279 2.389 8.585 3.825 12.644a303 303 0 0 0 4.809 12.607 454 454 0 0 0 9.908 22.621c.533 1.118-.353 2.607-1.694 2.204-6.95-2.089-14.228-3.083-21.425-3.86-8.844-.956-17.733-1.476-26.62-1.815-15.844-.604-31.714-.614-47.564-.273-3.285.071-6.57.15-9.853.276-1.232.047-1.741-1.287-1.295-2.257a2402 2402 0 0 0 11.403-25.192c2.823-6.331 5.804-12.636 8.393-19.067 2.661-6.608.159-14.157-5.887-17.899-1.918-1.186-3.866-2.326-5.797-3.489l-23.639-14.227-3.469-2.088c-.265-.159-.532-.362-.814-.49-.046-.02-.085-.06-.131-.079.383.151-.378.036-.616.027-2.929-.105-5.81 1.666-8.091 3.569-7.341 6.125-12.535 14.918-17.18 23.138-4.338 7.677-8.216 15.619-11.772 23.686a274 274 0 0 0-1.445 3.341c-.042.1-.13.307-.322.768-.076.184-.144.373-.228.553-.417.896-1.032 1.687-1.583 2.509a279 279 0 0 0-4.306 6.614 258 258 0 0 0-7.063 11.871c-7.657 13.709-14.009 28.193-18.194 43.348-5.496 19.899-7.226 41.196-2.552 61.443 1.294 5.606 3.16 11.394 5.434 16.368.99 2.164 2.306 4.144 3.342 6.265.296.607.361 1.312.496 1.97q.634 3.082 1.329 6.151a282 282 0 0 0 3.012 12.08c1.899 6.94 4.082 13.806 6.63 20.536 4.24 11.202 9.534 22.076 16.329 31.962 9.372 13.633 21.998 25.34 37.54 31.471C-44.61 1.46-32.836 2.919-21.076 1.824c6.153-.572 12.892-1.896 19.008-4.205.22-.084 1.357-.553.554-.209C.241-3.342 1.771-.758 0 0" clip-path="url(#ab)" style="fill:#000;fill-opacity:1;fill-rule:nonzero;stroke:none" transform="matrix(1.33333 0 0 -1.33333 704.667 456.866)"/><path d="M0 0s3.712-78.888 63.292-75.991c0 0 61.378-3.716 70.137 75.015 0 0-70.381 27.011-133.429.976" clip-path="url(#ac)" style="fill:#64a3d8;fill-opacity:1;fill-rule:nonzero;stroke:none" transform="matrix(1.33333 0 0 -1.33333 631.034 457.05)"/><path d="M0 0c.133-2.794.496-5.586.884-8.353a131 131 0 0 1 4.114-19.045c2.362-7.954 5.535-15.745 9.857-22.844 4.6-7.559 10.578-14.335 18.02-19.194 8.422-5.499 18.364-8.072 28.374-8.132 2.866-.017 5.816-.013 8.677.205a68.8 68.8 0 0 1 14.828 2.803c6.801 2.079 13.305 5.204 19.108 9.322 7.411 5.259 13.621 12.015 18.437 19.711 6.391 10.213 10.292 21.853 12.515 33.643a148 148 0 0 1 1.615 10.908c.078.693-.53 1.227-1.101 1.446-8.971 3.438-18.496 5.732-27.885 7.655-21.097 4.318-42.917 5.968-64.367 3.679-14.391-1.535-28.574-4.85-41.975-10.358-1.761-.723-.99-3.627.798-2.892C24.719 7.932 49.61 10.872 74.127 9.498c17.288-.969 34.522-3.985 51.13-8.886 3.114-.919 6.24-1.872 9.274-3.035l-1.102 1.447c-1.422-12.635-4.421-25.3-10.163-36.708-4.173-8.289-9.785-15.805-16.876-21.822-5.48-4.651-11.914-8.364-18.524-10.835a68 68 0 0 0-14.068-3.602l-.347-.049-.112-.016q-.413-.053-.825-.103c-2.528-.299-5.043-.401-7.585-.387-3.885.022-7.695-.076-11.557.508-4.704.713-9.334 2.053-13.626 4.12-7.749 3.732-14.248 9.602-19.26 16.551-4.794 6.647-8.358 14.121-11.032 21.849-2.27 6.562-3.938 13.333-5.098 20.176a137 137 0 0 0-.664 4.356c.041-.304-.001.009-.018.139l-.11.858q-.09.733-.172 1.468A86 86 0 0 0 3.03-.509Q3.013-.254 3 0C2.909 1.922-.092 1.933 0 0" clip-path="url(#ad)" style="fill:#000;fill-opacity:1;fill-rule:nonzero;stroke:none" transform="matrix(1.33333 0 0 -1.33333 629.034 457.05)"/><path d="M0 0c3.755-16.454 14.326-41.636 43.792-40.019 0 0 36.275-1.867 48.534 38.596 2.549 8.414-2.578 17.247-11.147 19.212-15.952 3.659-43.134 7.484-70.357.243C2.959 15.941-1.81 7.932 0 0" clip-path="url(#ae)" style="fill:#f5b241;fill-opacity:1;fill-rule:nonzero;stroke:none" transform="matrix(1.33333 0 0 -1.33333 656.104 482.794)"/><path d="M0 0c3.388-14.763 10.75-30.338 25.007-37.313 4.207-2.058 8.737-3.245 13.393-3.688 2.489-.237 4.958-.116 7.448-.132 3.339-.023 6.714.445 9.971 1.149C69.772-36.966 81.71-28.21 88.962-15.923c2.612 4.426 4.64 9.219 6.144 14.13 1.451 4.739.905 9.903-1.784 14.111-2.805 4.388-7.068 6.62-12.028 7.704a179 179 0 0 1-14.993 2.602c-12.515 1.641-25.251 1.944-37.793.414a128 128 0 0 1-10.399-1.688c-3.099-.641-6.368-1.216-9.239-2.598-4.462-2.147-7.805-6.429-8.885-11.253C-.573 5.012-.537 2.486 0 0c.407-1.886 3.3-1.088 2.893.797-1.008 4.665.448 9.57 3.894 12.888 1.656 1.596 3.672 2.685 5.88 3.3 3.304.92 6.687 1.613 10.066 2.198 12.289 2.126 24.894 2.309 37.295 1.147a169 169 0 0 0 15.135-2.122c4.296-.799 9.134-1.308 12.64-4.141 3.573-2.887 5.486-7.447 5.067-12.016-.225-2.441-1.196-4.855-2.052-7.133a60 60 0 0 0-2.876-6.483c-6.374-12.34-17.269-21.473-30.741-25.004-3.672-.963-6.708-1.456-10.407-1.553-5.288-.14-10.513-.007-15.616 1.568C16.334-31.975 8.025-17.745 4.018-3.61A89 89 0 0 0 2.893.797C2.461 2.678-.432 1.882 0 0" clip-path="url(#af)" style="fill:#000;fill-opacity:1;fill-rule:nonzero;stroke:none" transform="matrix(1.33333 0 0 -1.33333 654.175 483.326)"/><path d="M0 0c-25.349 8.753-45.145 29.218-52.259 55.075a82 82 0 0 0-.918 3.664c-2.368 10.497-1.971 23.186 6.447 29.889 3.556 2.83 8.109 4.164 12.632 4.61 16.841 1.66 34.088-9.578 39.37-25.655C12.423 78.994 22.65 89.307 35.693 92.66s28.924-2.302 33.83-14.844c3.381-8.641 1.135-18.461-2.389-27.044C56.875 25.782 35.633 5.535 10.18-3.515Z" clip-path="url(#ag)" style="fill:#f7583b;fill-opacity:1;fill-rule:nonzero;stroke:none" transform="matrix(1.33333 0 0 -1.33333 711.679 706.833)"/><path d="M0 0c-21.271 7.397-39.056 23.571-47.867 44.368-4.265 10.066-7.627 22.511-4.02 33.269 1.876 5.596 6.07 9.702 11.699 11.492 5.443 1.732 11.416 1.7 16.944.385 12.078-2.872 22.7-11.907 26.671-23.777.411-1.228 2.036-1.478 2.742-.358 7.21 11.448 17.914 22.453 31.794 24.877 11.222 1.96 24.958-2.884 29.592-13.978 3.115-7.454 1.605-15.869-.994-23.229-2.312-6.547-5.565-12.797-9.353-18.608-7.366-11.3-17.156-21.035-28.479-28.363-5.686-3.68-11.757-6.781-18.107-9.142-.342-.127-1.325-.343-.449-.449a.4.4 0 0 0-.104.036c-.211.094-.446.154-.665.23l-2.473.854L1.136-.392zc-1.829.631-2.614-2.265-.798-2.893 3.249-1.122 6.48-2.328 9.756-3.368 1.018-.324 1.828.064 2.815.436a100 100 0 0 1 5.066 2.073 95 95 0 0 1 9.555 4.873c12.434 7.249 23.231 17.229 31.505 29a96 96 0 0 1 10.283 18.806c3.137 7.654 5.282 16.252 3.414 24.498-3.005 13.264-16.677 20.591-29.552 20.226-14.8-.42-27.11-10.763-35.411-22.223a84 84 0 0 1-3.055-4.535l2.742-.358C2.499 77.956-6.806 86.912-18.024 91.065c-11.079 4.1-26.49 3.672-33.901-6.847-3.364-4.775-4.454-10.861-4.401-16.601.057-6.216 1.448-12.381 3.394-18.26 3.759-11.351 10.045-21.794 18.258-30.48C-25.337 9.002-13.62 1.566-.798-2.893 1.03-3.528 1.815-.631 0 0" clip-path="url(#ah)" style="fill:#000;fill-opacity:1;fill-rule:nonzero;stroke:none" transform="matrix(1.33333 0 0 -1.33333 712.21 704.904)"/><path d="M0 0c1.105-.328 2.089-1.107 2.829-2.492.587-1.099.681-2.386.764-3.63l.849-12.849c.181-2.724.233-5.813-1.693-7.748-1.703-1.711-4.547-1.891-6.744-.889C-14.318-22.9-13.573 4.027 0 0" clip-path="url(#ai)" style="fill:#fef6e3;fill-opacity:1;fill-rule:nonzero;stroke:none" transform="matrix(1.33333 0 0 -1.33333 666.288 596.876)"/><path d="M0 0c1.473-.497 2.178-1.976 2.387-3.426.27-1.869.274-3.812.398-5.697.242-3.654.753-7.399.63-11.063-.048-1.41-.281-2.985-1.328-4.026-1.01-1.004-2.551-1.231-3.903-.96-1.627.326-2.978 1.407-3.99 2.677-2.02 2.535-2.963 5.973-3.245 9.152-.293 3.303-.043 6.948 1.5 9.945C-5.974-.334-3.381.966 0 0c1.86-.531 2.654 2.363.798 2.893C-3.242 4.047-7.09 2.764-9.46-.729c-2.362-3.481-2.925-8.165-2.619-12.266.319-4.268 1.569-8.744 4.474-11.998 1.582-1.773 3.724-3.016 6.112-3.242 3.696-.348 6.847 1.973 7.623 5.595.448 2.096.27 4.233.129 6.351l-.523 7.907C5.455-4.128 5.682 1.243.798 2.893-1.036 3.512-1.822.615 0 0" clip-path="url(#aj)" style="fill:#000;fill-opacity:1;fill-rule:nonzero;stroke:none" transform="matrix(1.33333 0 0 -1.33333 665.756 598.805)"/><path d="M0 0c-.315 9.72 7.803 16.491 14.972 21.653 1.552 1.118.057 3.722-1.514 2.591C5.412 18.45-3.352 10.872-3 0c.062-1.926 3.063-1.934 3 0" clip-path="url(#ak)" style="fill:#000;fill-opacity:1;fill-rule:nonzero;stroke:none" transform="matrix(1.33333 0 0 -1.33333 829.969 674.421)"/><path d="M0 0c6.046-3.354 8.773-10.248 11.114-16.38.289-.757 1.01-1.277 1.845-1.048.724.199 1.338 1.084 1.048 1.845C11.38-8.703 8.29-1.168 1.514 2.59-.176 3.528-1.69.938 0 0" clip-path="url(#al)" style="fill:#000;fill-opacity:1;fill-rule:nonzero;stroke:none" transform="matrix(1.33333 0 0 -1.33333 601.904 638.746)"/><path d="M0 0c-5.781-.135-10.576 4.442-10.711 10.223l-.567 24.359c-.135 5.781 4.442 10.576 10.223 10.711S9.521 40.85 9.656 35.07l.567-24.359C10.358 4.93 5.781.135 0 0" clip-path="url(#am)" style="fill:#fef6e3;fill-opacity:1;fill-rule:nonzero;stroke:none" transform="matrix(1.33333 0 0 -1.33333 698.818 663.93)"/><path d="M0 0c-4.933-.115-9.026 3.821-9.211 8.726-.073 1.957-.091 3.918-.136 5.875-.142 6.091-.313 12.181-.426 18.273-.079 4.252 2.57 8.083 6.769 9.152 4.888 1.244 9.891-1.941 10.97-6.832.438-1.986.251-4.236.297-6.252l.254-10.87c.067-2.884.148-5.768.201-8.653C8.811 4.403 5.085.201 0 0c-1.924-.076-1.934-3.076 0-3 5.806.229 10.798 4.485 11.599 10.31.334 2.432.051 5.016-.005 7.457-.146 6.266-.207 12.54-.438 18.803-.215 5.804-4.496 10.799-10.31 11.599-5.728.787-11.278-2.713-13.063-8.211-.839-2.584-.525-5.435-.462-8.11l.279-11.978c.062-2.669.099-5.339.186-8.008.168-5.149 3.387-9.694 8.338-11.301A11.8 11.8 0 0 1 0-3c1.927.045 1.934 3.045 0 3" clip-path="url(#an)" style="fill:#000;fill-opacity:1;fill-rule:nonzero;stroke:none" transform="matrix(1.33333 0 0 -1.33333 698.818 661.93)"/><path d="m0 0-5.575-23.74-9.819.047 8.623-5.911-4.52-23.452-24.413 11.929L-28.131.17z" clip-path="url(#ao)" style="fill:#000;fill-opacity:1;fill-rule:nonzero;stroke:none" transform="matrix(1.33333 0 0 -1.33333 714.675 600.226)"/><path d="M0 0a3.57 3.57 0 1 1 7.137.159A3.57 3.57 0 0 1 0 0" clip-path="url(#ap)" style="fill:#fff;fill-opacity:1;fill-rule:nonzero;stroke:none" transform="matrix(1.33333 0 0 -1.33333 681.134 626.846)"/><path d="M0 0a2.426 2.426 0 1 1 4.852.108A2.426 2.426 0 0 1 0 0" clip-path="url(#aq)" style="fill:#fff;fill-opacity:1;fill-rule:nonzero;stroke:none" transform="matrix(1.33333 0 0 -1.33333 687.106 638.519)"/><path d="M0 0c-5.781-.135-10.576 4.442-10.711 10.223l-.567 24.359c-.134 5.781 4.442 10.576 10.223 10.711S9.521 40.85 9.656 35.07l.567-24.359C10.358 4.93 5.781.135 0 0" clip-path="url(#ar)" style="fill:#fef6e3;fill-opacity:1;fill-rule:nonzero;stroke:none" transform="matrix(1.33333 0 0 -1.33333 734.33 662.596)"/><path d="M0 0c-4.933-.115-9.026 3.821-9.211 8.726-.073 1.957-.091 3.918-.136 5.875-.142 6.091-.313 12.181-.426 18.273-.079 4.252 2.57 8.083 6.769 9.152 4.888 1.244 9.891-1.941 10.97-6.832.438-1.986.251-4.236.297-6.252l.254-10.87c.067-2.884.148-5.768.201-8.653C8.811 4.403 5.085.201 0 0c-1.924-.076-1.934-3.076 0-3 5.806.229 10.798 4.485 11.599 10.31.334 2.432.051 5.016-.005 7.457-.146 6.266-.207 12.54-.438 18.803-.215 5.804-4.496 10.799-10.31 11.599-5.728.787-11.278-2.713-13.063-8.211-.839-2.584-.525-5.435-.462-8.11l.279-11.978c.062-2.669.099-5.339.186-8.008.168-5.149 3.387-9.694 8.338-11.301A11.8 11.8 0 0 1 0-3c1.927.045 1.934 3.045 0 3" clip-path="url(#as)" style="fill:#000;fill-opacity:1;fill-rule:nonzero;stroke:none" transform="matrix(1.33333 0 0 -1.33333 734.33 660.596)"/><path d="m0 0-5.575-23.74-9.819.047 8.623-5.912-4.52-23.451-24.413 11.929L-28.131.17z" clip-path="url(#at)" style="fill:#000;fill-opacity:1;fill-rule:nonzero;stroke:none" transform="matrix(1.33333 0 0 -1.33333 750.186 598.89)"/><path d="M0 0a3.57 3.57 0 1 1 7.137.159A3.57 3.57 0 0 1 0 0" clip-path="url(#au)" style="fill:#fff;fill-opacity:1;fill-rule:nonzero;stroke:none" transform="matrix(1.33333 0 0 -1.33333 716.646 625.512)"/><path d="M0 0a2.426 2.426 0 1 1 4.852.108A2.426 2.426 0 0 1 0 0" clip-path="url(#av)" style="fill:#fff;fill-opacity:1;fill-rule:nonzero;stroke:none" transform="matrix(1.33333 0 0 -1.33333 722.618 637.184)"/><path d="M0 0c6.278-1.991 13.391.561 17.146 5.912.465.663.12 1.667-.538 2.052-.749.438-1.586.127-2.053-.538C11.556 3.151 5.728 1.329.798 2.893-1.047 3.478-1.837.582 0 0" clip-path="url(#aw)" style="fill:#000;fill-opacity:1;fill-rule:nonzero;stroke:none" transform="matrix(1.33333 0 0 -1.33333 715.189 680.825)"/><path d="M0 0a10.97 10.97 0 0 1 6.713-6.829c.74-.265 1.675.298 1.845 1.047.192.843-.255 1.562-1.047 1.846-.116.041-.652.281-.199.067-.154.073-.311.14-.464.216a9 9 0 0 0-1.275.778c-.057.041-.112.09-.172.127.359-.225.123-.094.036-.022a10 10 0 0 0-.757.692c-.23.235-.442.483-.65.737-.095.115.224-.3.027-.032l-.125.173A9.3 9.3 0 0 0 3.156.126l-.107.233c-.117.253.124-.325.019-.044-.06.161-.121.32-.175.482-.249.743-1.045 1.307-1.845 1.048C.309 1.606-.267.796 0 0" clip-path="url(#ax)" style="fill:#000;fill-opacity:1;fill-rule:nonzero;stroke:none" transform="matrix(1.33333 0 0 -1.33333 733.44 667.876)"/><path d="m0 0 3.399 1.222c.373.134.691.338.896.689.189.321.268.795.152 1.156-.118.363-.343.713-.69.896-.341.181-.778.287-1.156.151L-.798 2.893c-.372-.134-.691-.339-.896-.69-.188-.321-.268-.795-.151-1.155.117-.363.342-.713.689-.897C-.814-.029-.377-.136 0 0" clip-path="url(#ay)" style="fill:#000;fill-opacity:1;fill-rule:nonzero;stroke:none" transform="matrix(1.33333 0 0 -1.33333 728.155 692.35)"/></svg>