<svg xmlns="http://www.w3.org/2000/svg" width="1440" height="1440" viewBox="0 0 1440 1440"><defs><clipPath id="a" clipPathUnits="userSpaceOnUse"><path d="M-224.146 794.769h1080v-1080h-1080Z"/></clipPath><clipPath id="b" clipPathUnits="userSpaceOnUse"><path d="M-224.146 793.269h1080v-1080h-1080Z"/></clipPath><clipPath id="c" clipPathUnits="userSpaceOnUse"><path d="M-913.486 520.978h1080v-1080h-1080Z"/></clipPath><clipPath id="d" clipPathUnits="userSpaceOnUse"><path d="M-911.986 520.978h1080v-1080h-1080Z"/></clipPath><clipPath id="e" clipPathUnits="userSpaceOnUse"><path d="M-360.522 825.475h1080v-1080h-1080Z"/></clipPath><clipPath id="f" clipPathUnits="userSpaceOnUse"><path d="M-360.522 823.975h1080v-1080h-1080Z"/></clipPath><clipPath id="g" clipPathUnits="userSpaceOnUse"><path d="M-710.691 808.654h1080v-1080h-1080Z"/></clipPath><clipPath id="h" clipPathUnits="userSpaceOnUse"><path d="M-710.691 807.154h1080v-1080h-1080Z"/></clipPath><clipPath id="i" clipPathUnits="userSpaceOnUse"><path d="M-235.33 600.495h1080v-1080h-1080Z"/></clipPath><clipPath id="j" clipPathUnits="userSpaceOnUse"><path d="M-233.83 600.495h1080v-1080h-1080Z"/></clipPath><clipPath id="k" clipPathUnits="userSpaceOnUse"><path d="M-218.277 600.495h1080v-1080h-1080Z"/></clipPath><clipPath id="l" clipPathUnits="userSpaceOnUse"><path d="M-216.777 600.495h1080v-1080h-1080Z"/></clipPath><clipPath id="m" clipPathUnits="userSpaceOnUse"><path d="M-1003.33 600.495h1080v-1080h-1080Z"/></clipPath><clipPath id="n" clipPathUnits="userSpaceOnUse"><path d="M-1002.035 601.252h1080v-1080h-1080Z"/></clipPath><clipPath id="o" clipPathUnits="userSpaceOnUse"><path d="M-986.277 600.495h1080v-1080h-1080Z"/></clipPath><clipPath id="p" clipPathUnits="userSpaceOnUse"><path d="M-984.777 600.495h1080v-1080h-1080Z"/></clipPath><clipPath id="q" clipPathUnits="userSpaceOnUse"><path d="M-348.019 604.005h1080v-1080h-1080Z"/></clipPath><clipPath id="r" clipPathUnits="userSpaceOnUse"><path d="M-347.262 602.71h1080v-1080h-1080Z"/></clipPath><clipPath id="s" clipPathUnits="userSpaceOnUse"><path d="M-818.019 604.005h1080v-1080h-1080Z"/></clipPath><clipPath id="t" clipPathUnits="userSpaceOnUse"><path d="M-817.262 602.71h1080v-1080h-1080Z"/></clipPath><clipPath id="u" clipPathUnits="userSpaceOnUse"><path d="M-376.268 789.204h1080v-1080h-1080Z"/></clipPath><clipPath id="v" clipPathUnits="userSpaceOnUse"><path d="M-455.257 789.204h1080v-1080h-1080Z"/></clipPath><clipPath id="w" clipPathUnits="userSpaceOnUse"><path d="M-481.114 789.204h1080v-1080h-1080Z"/></clipPath><clipPath id="x" clipPathUnits="userSpaceOnUse"><path d="M-527.151 789.204h1080v-1080h-1080Z"/></clipPath><clipPath id="y" clipPathUnits="userSpaceOnUse"><path d="M-602.305 789.204h1080v-1080h-1080Z"/></clipPath><clipPath id="z" clipPathUnits="userSpaceOnUse"><path d="M-628.213 789.204h1080v-1080h-1080Z"/></clipPath><clipPath id="A" clipPathUnits="userSpaceOnUse"><path d="M-654.07 789.204h1080v-1080h-1080Z"/></clipPath><clipPath id="B" clipPathUnits="userSpaceOnUse"><path d="M-710.62 789.204h1080v-1080h-1080Z"/></clipPath><clipPath id="C" clipPathUnits="userSpaceOnUse"><path d="M-136.44 628.266h1080v-1080h-1080Z"/></clipPath><clipPath id="D" clipPathUnits="userSpaceOnUse"><path d="M-157.369 628.266h1080v-1080h-1080Z"/></clipPath><clipPath id="E" clipPathUnits="userSpaceOnUse"><path d="M-194.325 628.266h1080v-1080h-1080Z"/></clipPath><clipPath id="F" clipPathUnits="userSpaceOnUse"><path d="M-866.653 625.108h1080v-1080h-1080Z"/></clipPath><clipPath id="G" clipPathUnits="userSpaceOnUse"><path d="M-885.407 577.216h1080v-1080h-1080Z"/></clipPath><clipPath id="H" clipPathUnits="userSpaceOnUse"><path d="M-941.382 625.108h1080v-1080h-1080Z"/></clipPath><clipPath id="I" clipPathUnits="userSpaceOnUse"><path d="M-987.442 625.108h1080v-1080h-1080Z"/></clipPath><clipPath id="J" clipPathUnits="userSpaceOnUse"><path d="M-516.969 392.084h1080v-1080h-1080Z"/></clipPath><clipPath id="K" clipPathUnits="userSpaceOnUse"><path d="M-518.415 391.685h1080v-1080h-1080Z"/></clipPath><clipPath id="L" clipPathUnits="userSpaceOnUse"><path d="M-683.1 705.787h1080v-1080h-1080Z"/></clipPath><clipPath id="M" clipPathUnits="userSpaceOnUse"><path d="M-683.1 704.287h1080v-1080h-1080Z"/></clipPath><clipPath id="N" clipPathUnits="userSpaceOnUse"><path d="M-461.506 373.686h1080v-1080h-1080Z"/></clipPath><clipPath id="O" clipPathUnits="userSpaceOnUse"><path d="M-462.952 373.288h1080v-1080h-1080Z"/></clipPath><clipPath id="P" clipPathUnits="userSpaceOnUse"><path d="M-617.267 374.63h1080v-1080h-1080Z"/></clipPath><clipPath id="Q" clipPathUnits="userSpaceOnUse"><path d="M-616.206 375.691h1080v-1080h-1080Z"/></clipPath><clipPath id="R" clipPathUnits="userSpaceOnUse"><path d="M-454.566 418.785h1080v-1080h-1080Z"/></clipPath><clipPath id="S" clipPathUnits="userSpaceOnUse"><path d="M-454.566 417.285h1080v-1080h-1080Z"/></clipPath><clipPath id="T" clipPathUnits="userSpaceOnUse"><path d="M-454.566 401.291h1080v-1080h-1080Z"/></clipPath><clipPath id="U" clipPathUnits="userSpaceOnUse"><path d="M-454.566 399.791h1080v-1080h-1080Z"/></clipPath><clipPath id="V" clipPathUnits="userSpaceOnUse"><path d="M-572.106 418.785h1080v-1080h-1080Z"/></clipPath><clipPath id="W" clipPathUnits="userSpaceOnUse"><path d="M-572.106 417.285h1080v-1080h-1080Z"/></clipPath><clipPath id="X" clipPathUnits="userSpaceOnUse"><path d="M-684.546 706.186h1080v-1080h-1080Z"/></clipPath><clipPath id="Y" clipPathUnits="userSpaceOnUse"><path d="M-701.926 660.008h1080v-1080h-1080Z"/></clipPath><clipPath id="Z" clipPathUnits="userSpaceOnUse"><path d="M-486.615 499.792h1080v-1080h-1080Z"/></clipPath><clipPath id="aa" clipPathUnits="userSpaceOnUse"><path d="M-488.061 500.19h1080v-1080h-1080Z"/></clipPath><clipPath id="ab" clipPathUnits="userSpaceOnUse"><path d="M-456.532 500.91h1080v-1080h-1080Z"/></clipPath><clipPath id="ac" clipPathUnits="userSpaceOnUse"><path d="M-457.593 499.85h1080v-1080h-1080Z"/></clipPath><clipPath id="ad" clipPathUnits="userSpaceOnUse"><path d="M-25.85 92.607c-10.119-.76-18.634-9.947-20.387-20.284s2.533-21.145 9.75-28.486l3.25-4.008-1.922-2.298c-5.87-6.458-6.715-17.18-1.93-24.493 4.784-7.313 14.712-10.474 22.68-7.223 2.138.873 4.137 2.162 5.714 3.894 4.457 4.895 4.86 12.373 4.046 19.027-.813 6.654-2.583 13.35-1.519 19.974.667 4.153 2.421 8.04 3.355 12.137 1.712 7.508.474 15.796-3.837 22.065-4.043 5.88-10.844 9.747-17.806 9.747q-.696 0-1.394-.052"/></clipPath><clipPath id="ae" clipPathUnits="userSpaceOnUse"><path d="M-537.688 502.202h1080v-1080h-1080Z"/></clipPath><clipPath id="af" clipPathUnits="userSpaceOnUse"><path d="M-538.75 501.142h1080v-1080h-1080Z"/></clipPath><clipPath id="ag" clipPathUnits="userSpaceOnUse"><path d="M-25.849 92.607c-10.119-.76-18.636-9.946-20.388-20.284s2.533-21.144 9.75-28.486l3.25-4.007-1.922-2.298c-5.87-6.458-6.716-17.18-1.93-24.494 4.783-7.312 14.712-10.474 22.68-7.222 2.138.873 4.137 2.162 5.714 3.893 4.457 4.895 4.86 12.373 4.046 19.027-.813 6.655-2.582 13.35-1.518 19.975.667 4.152 2.42 8.039 3.354 12.136 1.713 7.509.474 15.796-3.837 22.066-4.042 5.878-10.844 9.747-17.806 9.747a19 19 0 0 1-1.393-.053"/></clipPath><clipPath id="ah" clipPathUnits="userSpaceOnUse"><path d="M-495.725 624.563h1080v-1080h-1080Z"/></clipPath><clipPath id="ai" clipPathUnits="userSpaceOnUse"><path d="M-485.947 567.074h1080v-1080h-1080Z"/></clipPath><clipPath id="aj" clipPathUnits="userSpaceOnUse"><path d="M-487.447 567.074h1080v-1080h-1080Z"/></clipPath><clipPath id="ak" clipPathUnits="userSpaceOnUse"><path d="M-505.02 577.97h1080v-1080h-1080Z"/></clipPath><clipPath id="al" clipPathUnits="userSpaceOnUse"><path d="M-514.708 522.796h1080v-1080h-1080Z"/></clipPath><clipPath id="am" clipPathUnits="userSpaceOnUse"><path d="M-513.208 522.796h1080v-1080h-1080Z"/></clipPath><clipPath id="an" clipPathUnits="userSpaceOnUse"><path d="M-495.642 519.79h1080v-1080h-1080Z"/></clipPath><clipPath id="ao" clipPathUnits="userSpaceOnUse"><path d="M-494.142 519.79h1080v-1080h-1080Z"/></clipPath><clipPath id="ap" clipPathUnits="userSpaceOnUse"><path d="M-491.504 544.364h1080v-1080h-1080Z"/></clipPath><clipPath id="aq" clipPathUnits="userSpaceOnUse"><path d="M-550.846 443.607h1080v-1080h-1080Z"/></clipPath><clipPath id="ar" clipPathUnits="userSpaceOnUse"><path d="M-460.509 442.388h1080v-1080h-1080Z"/></clipPath><clipPath id="as" clipPathUnits="userSpaceOnUse"><path d="M-571.322 401.291h1080v-1080h-1080Z"/></clipPath><clipPath id="at" clipPathUnits="userSpaceOnUse"><path d="M-571.322 399.791h1080v-1080h-1080Z"/></clipPath></defs><path d="M0 0h1080v1080H0Z" style="fill:#fff;fill-opacity:1;fill-rule:nonzero;stroke:none" transform="matrix(1.33333 0 0 -1.33333 0 1440)"/><path d="M0 0c-46.847 0-84.96 38.113-84.96 84.96v188.83c0 46.847 38.113 84.96 84.96 84.96h120.53c13.291 36.031 36.891 68.187 67.549 91.692 35.878 27.508 78.795 42.048 124.111 42.048s88.233-14.54 124.111-42.048c30.657-23.505 54.258-55.661 67.549-91.692h120.53c46.847 0 84.96-38.113 84.96-84.96V84.96C709.34 38.113 671.227 0 624.38 0Z" clip-path="url(#a)" style="fill:#ff5b35;fill-opacity:1;fill-rule:nonzero;stroke:none" transform="matrix(1.33333 0 0 -1.33333 298.862 1059.692)"/><path d="M0 0c-29.831.193-57.761 16.294-72.57 42.272-7.16 12.559-10.809 26.757-10.89 41.192-.013 2.299 0 4.597 0 6.896v160.954c0 9.15-.452 18.47.256 27.606 2.291 29.539 20.877 56.137 47.573 68.842 11.249 5.353 23.534 7.933 35.965 7.988 4.306.019 8.613 0 12.92 0H120.53c.708 0 1.213.475 1.447 1.101 22.496 60.393 73.436 107.964 135.657 125.263 63.366 17.617 133.003 2.957 183.643-39.047 27.487-22.8 48.666-52.763 61.127-86.216.233-.627.744-1.101 1.446-1.101h114.074c8.599 0 17.068-.208 25.514-2.194 17.124-4.028 32.665-13.532 44.162-26.831 11.756-13.598 18.903-30.959 20.062-48.901.288-4.462.178-8.963.178-13.432V85.171c0-29.431-14.347-57.04-39.585-72.684C653.614 3.412 637.289 0 620.295 0zc-1.93 0-1.934-3 0-3h614.038c6.738 0 13.534-.204 20.237.573 33.859 3.921 62.989 28.249 72.881 60.886 4.586 15.134 3.684 30.9 3.684 46.501v140.887c0 13.824 1.062 28.433-1.425 42.094-6.128 33.67-32.821 61.337-66.223 68.746-8.237 1.827-16.514 2.063-24.89 2.063H503.85l1.447-1.101c-22.874 61.406-74.467 109.741-137.754 127.358-64.446 17.939-135.098 2.87-186.561-39.819-27.895-23.139-49.259-53.607-61.898-87.539l1.446 1.101H21.891c-14.602 0-29.566.929-43.82-2.817-27.376-7.194-49.962-27.998-59.516-54.621-4.805-13.389-5.015-26.941-5.015-40.881V95.114c0-14.233.296-28.047 5.378-41.668C-71.199 26.955-48.369 6.384-20.895-.447-14.057-2.147-7.041-2.955 0-3c1.931-.012 1.933 2.988 0 3" clip-path="url(#b)" style="fill:#000;fill-opacity:1;fill-rule:nonzero;stroke:none" transform="matrix(1.33333 0 0 -1.33333 298.862 1057.692)"/><path d="M0 0v-188.83c0-35.88-29.08-64.96-64.96-64.96h-624.38c-35.87 0-64.96 29.08-64.96 64.96V0c0 35.87 29.09 64.96 64.96 64.96h135.03c21.92 77.2 92.94 133.74 177.16 133.74s155.24-56.54 177.16-133.74h135.03C-29.08 64.96 0 35.87 0 0" clip-path="url(#c)" style="fill:#ffcc83;fill-opacity:1;fill-rule:nonzero;stroke:none" transform="matrix(1.33333 0 0 -1.33333 1217.982 694.638)"/><path d="M0 0v-138.754c0-16.679.106-33.362 0-50.04-.224-35.315-29.202-63.429-64.301-63.496-8.201-.016-16.401 0-24.602 0h-588.323c-3.078 0-6.157-.003-9.236 0-10.691.009-21.119 2.163-30.647 7.139-19.284 10.07-32.445 29.83-34.018 51.568-.403 5.583-.173 11.255-.173 16.846V-16.97c0 5.592-.031 11.184 0 16.776.11 19.421 8.851 37.891 24.115 49.997 12.094 9.591 26.658 13.657 41.907 13.657h132.468a1.53 1.53 0 0 1 1.446 1.101c17.012 59.262 63.88 107.116 122.988 124.914 60.472 18.208 127.702 3.249 174.677-38.947 25.582-22.979 44.277-52.924 53.763-85.967a1.53 1.53 0 0 1 1.446-1.101h119.911c10.408 0 21.008.605 31.172-2.048C-19.625 54.161-.229 28.556 0 0c.015-1.93 3.016-1.934 3 0-.194 24.2-13.43 46.862-34.793 58.442-12.555 6.805-25.838 8.018-39.736 8.018H-198.49l1.446-1.101c-17.298 60.259-64.973 108.927-125.082 127.008-61.53 18.509-129.827 3.192-177.596-39.718-25.95-23.309-44.914-53.779-54.534-87.29l1.446 1.101h-61.123c-24.148 0-48.296.019-72.444 0-15.817-.012-30.944-4.839-43.314-14.847-15.548-12.578-24.474-31.701-24.609-51.639-.116-17.133 0-34.27 0-51.403v-125.308c0-5.76-.251-11.62.211-17.369 2.789-34.681 32.433-61.107 66.939-61.184 8.144-.018 16.288 0 24.432 0h591.359c2.481 0 4.961-.007 7.442 0 14.581.041 28.786 4.578 40.451 13.39 16.419 12.401 26.244 31.974 26.462 52.538.051 4.816.004 9.634.004 14.45V0c0 1.93-3 1.934-3 0" clip-path="url(#d)" style="fill:#000;fill-opacity:1;fill-rule:nonzero;stroke:none" transform="matrix(1.33333 0 0 -1.33333 1215.982 694.638)"/><path d="M0 0c-38.813 0-70.389 31.576-70.389 70.39S-38.813 140.779 0 140.779h350.169c38.814 0 70.39-31.576 70.39-70.389 0-38.814-31.576-70.39-70.39-70.39Z" clip-path="url(#e)" style="fill:#ff5b35;fill-opacity:1;fill-rule:nonzero;stroke:none" transform="matrix(1.33333 0 0 -1.33333 480.696 1100.633)"/><path d="M0 0c-30.868.149-58.661 21.299-66.597 51.237-8.01 30.213 5.976 62.767 33.262 77.926 10.285 5.713 21.836 8.58 33.582 8.616 1.987.006 3.973 0 5.96 0h320.515c7.49 0 14.979.003 22.469 0 23.572-.01 45.824-11.505 58.749-31.395 17.063-26.259 13.926-61.732-7.514-84.565-10.283-10.95-23.976-18.346-38.79-20.871C357.055.167 352.444 0 347.814 0zc-1.93 0-1.934-3 0-3h341.398c11.431 0 22.542.344 33.501 4.388 28.428 10.493 47.746 38.546 47.146 68.885-.6 30.385-21.019 57.767-49.94 67.083-10.346 3.332-20.73 3.423-31.39 3.423H15.1c-5.943 0-11.919.179-17.86-.053-30.332-1.188-57.338-22.088-66.099-51.16-8.879-29.464 2.61-61.942 27.711-79.59C-29.126 1.523-14.672-2.929 0-3c1.931-.009 1.933 2.991 0 3" clip-path="url(#f)" style="fill:#000;fill-opacity:1;fill-rule:nonzero;stroke:none" transform="matrix(1.33333 0 0 -1.33333 480.696 1098.633)"/><path d="M0 0h-350.169c-29.585 0-53.569 23.983-53.569 53.568s23.984 53.569 53.569 53.569H0c29.585 0 53.568-23.984 53.568-53.569S29.585 0 0 0" clip-path="url(#g)" style="fill:#4ccfe5;fill-opacity:1;fill-rule:nonzero;stroke:none" transform="matrix(1.33333 0 0 -1.33333 947.588 1078.205)"/><path d="M0 0h-348.634c-5.719 0-11.352.605-16.847 2.288-13.585 4.161-25.033 13.969-31.364 26.671-6.411 12.861-7.082 28.165-2.024 41.592 4.954 13.15 15.411 23.961 28.327 29.462 6.793 2.894 14.029 4.124 21.382 4.124H-4.622c1.519 0 3.039.006 4.558 0 12.55-.056 24.803-4.52 34.271-12.807 10.754-9.414 17.33-23.037 17.827-37.34.494-14.193-4.859-28.155-14.797-38.316C27.442 5.661 13.98.082 0 0c-1.93-.011-1.934-3.011 0-3 14.245.084 28.046 5.575 38.301 15.503 10.105 9.782 16.142 23.276 16.72 37.326 1.191 28.933-21.151 54.359-49.936 57.069-5.933.559-12.033.239-17.981.239H-328.51c-6.92 0-13.839.003-20.758 0-21.996-.012-42.403-12.569-51.316-32.905-5.706-13.02-6.197-28.121-1.178-41.444 4.871-12.93 14.587-23.814 26.969-29.986 7.867-3.921 16.467-5.793 25.237-5.802q3.297-.002 6.594 0H0c1.93 0 1.934 3 0 3" clip-path="url(#h)" style="fill:#000;fill-opacity:1;fill-rule:nonzero;stroke:none" transform="matrix(1.33333 0 0 -1.33333 947.588 1076.205)"/><path d="M0 0c0-45.62-36.982-82.602-82.602-82.602S-165.204-45.62-165.204 0s36.982 82.602 82.602 82.602S0 45.62 0 0" clip-path="url(#i)" style="fill:#ff5b35;fill-opacity:1;fill-rule:nonzero;stroke:none" transform="matrix(1.33333 0 0 -1.33333 313.774 800.66)"/><path d="M0 0c-.035-16.828-5.269-33.32-15.023-47.043-9.42-13.254-22.914-23.574-38.194-29.143-16.036-5.845-33.786-6.492-50.201-1.807-15.749 4.494-29.881 13.835-40.311 26.448-10.544 12.751-16.997 28.756-18.239 45.254-1.268 16.834 2.704 33.812 11.454 48.261 8.444 13.943 21.068 25.141 35.893 31.912 15.446 7.054 33.141 8.997 49.767 5.595 16.116-3.298 30.982-11.536 42.357-23.414C-11.046 44.105-3.474 28.749-.931 12.392-.294 8.294-.009 4.146 0 0c.004-1.93 3.004-1.934 3 0-.036 17.372-5.425 34.537-15.528 48.691-9.865 13.822-23.784 24.485-39.735 30.331-16.549 6.066-35.007 6.7-51.952 1.864-16.263-4.641-30.988-14.292-41.739-27.346-10.988-13.34-17.667-29.84-19.001-47.076-1.345-17.381 2.819-35.033 11.85-49.948 8.749-14.446 21.873-26.168 37.271-33.125 16.101-7.275 34.294-9.305 51.612-5.795 16.702 3.385 32.202 12.012 43.96 24.338C-8.502-45.737-.596-29.875 1.988-13.02A87 87 0 0 1 3 0C3.004 1.931.004 1.933 0 0" clip-path="url(#j)" style="fill:#000;fill-opacity:1;fill-rule:nonzero;stroke:none" transform="matrix(1.33333 0 0 -1.33333 311.774 800.66)"/><path d="M0 0c0-36.202-29.347-65.549-65.549-65.549-36.201 0-65.548 29.347-65.548 65.549s29.347 65.549 65.548 65.549S0 36.202 0 0" clip-path="url(#k)" style="fill:#fdab23;fill-opacity:1;fill-rule:nonzero;stroke:none" transform="matrix(1.33333 0 0 -1.33333 291.036 800.66)"/><path d="M0 0c-.035-13.277-4.148-26.267-11.829-37.105-7.432-10.485-18.117-18.668-30.198-23.063-12.653-4.602-26.634-5.125-39.588-1.442-12.468 3.546-23.645 10.933-31.902 20.913-8.302 10.034-13.395 22.648-14.387 35.632-1.018 13.322 2.105 26.754 9.028 38.192 6.681 11.039 16.667 19.885 28.402 25.242 12.171 5.556 26.138 7.082 39.237 4.401 12.7-2.598 24.411-9.07 33.393-18.414C-8.797 34.943-2.808 22.855-.761 9.964-.238 6.67-.009 3.334 0 0c.005-1.93 3.005-1.934 3 0-.037 13.876-4.338 27.591-12.429 38.886-7.843 10.949-18.851 19.387-31.488 24.06-13.204 4.882-27.96 5.403-41.495 1.557-12.982-3.689-24.753-11.391-33.33-21.811-8.744-10.621-14.067-23.733-15.149-37.454-1.094-13.869 2.219-27.974 9.424-39.879 6.956-11.493 17.386-20.837 29.629-26.387 12.868-5.833 27.382-7.463 41.232-4.669 13.286 2.68 25.634 9.548 34.996 19.338C-6.213-36.533.121-23.874 2.185-10.423 2.714-6.971 2.991-3.492 3 0 3.005 1.931.005 1.933 0 0" clip-path="url(#l)" style="fill:#000;fill-opacity:1;fill-rule:nonzero;stroke:none" transform="matrix(1.33333 0 0 -1.33333 289.036 800.66)"/><path d="M0 0c25.935-48.159-30.102-83.276-82.602-82.602-45.616.585-82.602 36.982-82.602 82.602s36.982 82.602 82.602 82.602S-21.63 40.166 0 0" clip-path="url(#m)" style="fill:#ff5b35;fill-opacity:1;fill-rule:nonzero;stroke:none" transform="matrix(1.33333 0 0 -1.33333 1337.774 800.66)"/><path d="M0 0c3.883-7.259 6.438-15.289 6.335-23.583C6.247-30.731 4.12-37.671.472-43.797c-8.174-13.729-22.711-22.898-37.3-28.56-16.537-6.418-35.145-9.431-52.838-7.474-16.844 1.862-33.014 9.051-45.663 20.329-12.593 11.227-21.504 26.232-25.172 42.712-3.784 17.001-1.926 35.216 5.313 51.066 6.955 15.231 18.581 28.12 33.042 36.566 14.769 8.624 32.826 12.815 49.861 10.424 7.948-1.115 15.548-3.899 22.296-8.247 6.558-4.226 12.152-9.784 17.029-15.84 10.997-13.652 18.69-29.743 26.689-45.235A793 793 0 0 1 0 0c.915-1.701 3.506-.188 2.59 1.514-8.775 16.311-16.475 33.328-26.807 48.75-9.115 13.606-20.801 25.895-36.626 31.349-16.761 5.776-36.228 3.645-52.402-3.043-16.086-6.65-29.885-18.219-39.199-32.932-9.589-15.147-14.08-33.296-12.729-51.168 1.333-17.63 8.288-34.48 19.749-47.938 11.297-13.266 26.738-22.837 43.607-27.166 17.893-4.59 37.259-3.121 54.932 1.789 16.308 4.529 32.683 12.554 44.01 25.442 4.977 5.663 8.901 12.305 10.829 19.63 1.988 7.552 1.736 15.516-.344 23.019C6.427-6.487 4.677-2.386 2.59 1.514 1.679 3.217-.911 1.704 0 0" clip-path="url(#n)" style="fill:#000;fill-opacity:1;fill-rule:nonzero;stroke:none" transform="matrix(1.33333 0 0 -1.33333 1336.047 801.67)"/><path d="M0 0c0-36.202-29.347-65.549-65.549-65.549-36.201 0-65.548 29.347-65.548 65.549s29.347 65.549 65.548 65.549S0 36.202 0 0" clip-path="url(#o)" style="fill:#fdab23;fill-opacity:1;fill-rule:nonzero;stroke:none" transform="matrix(1.33333 0 0 -1.33333 1315.036 800.66)"/><path d="M0 0c-.035-13.277-4.147-26.267-11.829-37.105-7.432-10.485-18.117-18.668-30.198-23.063-12.653-4.602-26.634-5.125-39.588-1.442-12.468 3.546-23.645 10.933-31.901 20.913-8.302 10.034-13.396 22.648-14.388 35.632-1.018 13.322 2.105 26.754 9.028 38.192 6.681 11.039 16.667 19.885 28.402 25.242 12.171 5.556 26.138 7.082 39.237 4.401 12.7-2.598 24.411-9.07 33.393-18.414C-8.797 34.943-2.808 22.855-.761 9.964-.238 6.67-.009 3.334 0 0c.005-1.93 3.005-1.934 3 0-.036 13.876-4.338 27.591-12.429 38.886-7.843 10.949-18.851 19.387-31.488 24.06-13.204 4.882-27.96 5.403-41.495 1.557-12.982-3.689-24.753-11.391-33.33-21.811-8.744-10.621-14.067-23.733-15.149-37.454-1.094-13.869 2.219-27.974 9.424-39.879 6.956-11.493 17.386-20.837 29.629-26.387 12.868-5.833 27.382-7.463 41.232-4.669 13.286 2.68 25.634 9.548 34.996 19.338C-6.213-36.533.121-23.874 2.185-10.423 2.714-6.971 2.991-3.492 3 0 3.005 1.931.005 1.933 0 0" clip-path="url(#p)" style="fill:#000;fill-opacity:1;fill-rule:nonzero;stroke:none" transform="matrix(1.33333 0 0 -1.33333 1313.036 800.66)"/><path d="M0 0c-22.748-10.696-31.419-19.367-42.115-42.115C-52.811-19.367-61.482-10.696-84.23 0c22.748 10.696 31.419 19.367 42.115 42.115C-31.419 19.367-22.748 10.696 0 0" clip-path="url(#q)" style="fill:#f6efdf;fill-opacity:1;fill-rule:nonzero;stroke:none" transform="matrix(1.33333 0 0 -1.33333 464.025 805.34)"/><path d="M0 0c-7.527-3.547-14.933-7.485-21.415-12.751-5.732-4.656-10.403-10.393-14.249-16.675-2.606-4.256-4.863-8.716-6.989-13.227h2.59c-3.547 7.527-7.485 14.932-12.751 21.415-4.656 5.731-10.393 10.403-16.675 14.249C-73.745-4.384-78.205-2.126-82.716 0v-2.59c7.527 3.547 14.933 7.485 21.415 12.751 5.732 4.656 10.403 10.393 14.249 16.675 2.606 4.256 4.863 8.715 6.989 13.227h-2.59c3.547-7.527 7.485-14.933 12.751-21.416 4.656-5.731 10.393-10.402 16.675-14.248C-8.971 1.793-4.511-.464 0-2.59 1.737-3.409 3.261-.823 1.514 0c-7.313 3.446-14.627 7.237-20.918 12.372-5.58 4.554-10.103 10.105-13.833 16.246-2.537 4.176-4.744 8.542-6.826 12.959-.462.981-2.128.981-2.59 0-3.446-7.313-7.237-14.627-12.372-20.918-4.554-5.581-10.105-10.103-16.247-13.833C-75.447 4.289-79.813 2.081-84.23 0c-.981-.462-.981-2.128 0-2.59 7.313-3.447 14.627-7.237 20.918-12.372 5.58-4.555 10.103-10.105 13.833-16.247 2.537-4.175 4.744-8.541 6.826-12.958.462-.981 2.128-.981 2.59 0 3.446 7.313 7.237 14.627 12.372 20.918 4.554 5.58 10.105 10.102 16.247 13.833C-7.269-6.879-2.903-4.672 1.514-2.59 3.259-1.768 1.738.819 0 0" clip-path="url(#r)" style="fill:#000;fill-opacity:1;fill-rule:nonzero;stroke:none" transform="matrix(1.33333 0 0 -1.33333 463.016 803.613)"/><path d="M0 0c-22.748-10.696-31.419-19.367-42.115-42.115C-52.811-19.367-61.482-10.696-84.23 0c22.748 10.696 31.419 19.367 42.115 42.115C-31.419 19.367-22.748 10.696 0 0" clip-path="url(#s)" style="fill:#f6efdf;fill-opacity:1;fill-rule:nonzero;stroke:none" transform="matrix(1.33333 0 0 -1.33333 1090.692 805.34)"/><path d="M0 0c-7.527-3.547-14.933-7.485-21.415-12.751-5.732-4.656-10.403-10.393-14.249-16.675-2.606-4.256-4.863-8.716-6.989-13.227h2.59c-3.547 7.527-7.485 14.932-12.751 21.415-4.656 5.731-10.393 10.403-16.675 14.249C-73.745-4.384-78.205-2.126-82.716 0v-2.59c7.527 3.547 14.933 7.485 21.415 12.751 5.732 4.656 10.403 10.393 14.249 16.675 2.606 4.256 4.863 8.715 6.989 13.227h-2.59c3.547-7.527 7.485-14.933 12.751-21.416 4.656-5.731 10.393-10.402 16.675-14.248C-8.971 1.793-4.511-.464 0-2.59 1.737-3.409 3.261-.823 1.514 0c-7.313 3.446-14.627 7.237-20.918 12.372-5.58 4.554-10.103 10.105-13.833 16.246-2.537 4.176-4.744 8.542-6.826 12.959-.462.981-2.128.981-2.59 0-3.446-7.313-7.237-14.627-12.372-20.918-4.554-5.581-10.105-10.103-16.246-13.833C-75.447 4.289-79.813 2.081-84.23 0c-.981-.462-.981-2.128 0-2.59 7.313-3.447 14.627-7.237 20.918-12.372 5.58-4.555 10.103-10.105 13.833-16.247 2.537-4.175 4.744-8.541 6.826-12.958.462-.981 2.128-.981 2.59 0 3.446 7.313 7.237 14.627 12.372 20.918 4.554 5.58 10.105 10.102 16.247 13.833C-7.269-6.879-2.903-4.672 1.514-2.59 3.259-1.768 1.738.819 0 0" clip-path="url(#t)" style="fill:#000;fill-opacity:1;fill-rule:nonzero;stroke:none" transform="matrix(1.33333 0 0 -1.33333 1089.682 803.613)"/><path d="M19.815.001q-1.265 0-2.109-.89L7.194-11.402q-.89-.844-.89-2.11v-55.23q-.001-1.311 1.312-1.313h14.871q1.311.002 1.313 1.313v54.656h11.777v-54.656q0-1.311 1.313-1.313h14.87q1.312.002 1.313 1.313v54.656h11.719v-54.656q0-1.311 1.312-1.313h14.93q1.311.002 1.313 1.313v55.23c0 .844-.3 1.547-.891 2.11L70.944-.89q-.892.892-2.097.891H56.495q-1.209 0-2.11-.89l-8.823-8.837h-2.473L34.265-.89q-.893.892-2.098.891Zm76.41 0q-1.314 0-1.313-1.313v-67.43q0-1.31 1.313-1.312h14.87q1.312.002 1.313 1.313v67.43q-.002 1.312-1.312 1.312zm28.49 0q-1.312 0-1.312-1.313v-9.878q0-.678.07-1.102.08-.42.61-.691l13.77-6.305v-9.352l-13.56-8.414q-.89-.514-.89-1.57v-19.29q0-.843.106-1.23.104-.395.785-.867l13.816-9.363q.526-.303.973-.492.443-.186 1.137-.188h14.18q1.323.002 1.324 1.313v8.941q-.001 1.151-.797 1.57l-13.77 5.684v9.715l13.77 7.887q.796.365.797 1.675v22.864q0 .423-.141.902-.131.47-.55.68l-16.5 8.191-.763.399a1.84 1.84 0 0 1-.867.234zm43.299 0q-1.313 0-1.313-1.313v-67.43q0-1.31 1.313-1.312h14.87q1.312.002 1.313 1.313v24.96h12.985v-24.96q-.001-1.311 1.312-1.313h14.871q1.311.002 1.313 1.313v67.43Q214.676 0 213.365 0h-14.87q-1.314 0-1.313-1.313V-29.8h-12.985v28.488c0 .876-.44 1.313-1.312 1.313zm60.545 0q-1.313 0-1.313-1.313v-67.43q0-1.31 1.313-1.312h14.87q1.312.002 1.313 1.313v54.715h13.254c.873 0 1.313.44 1.313 1.312v11.402q-.002 1.314-1.313 1.313zm40.467 0q-1.313 0-1.312-1.313v-67.43q-.001-1.31 1.312-1.312h14.871q1.312.002 1.313 1.313v67.43Q285.208 0 283.897 0zm28.492 0q-1.313 0-1.313-1.313v-9.878q0-.678.07-1.102.08-.42.61-.691l13.77-6.305v-9.352l-13.56-8.414q-.89-.514-.89-1.57v-19.29q0-.843.106-1.23.104-.395.785-.867l13.816-9.363a9 9 0 0 1 .973-.492q.443-.186 1.136-.188h14.18q1.323.002 1.324 1.313v8.941q0 1.151-.796 1.57l-13.77 5.684v9.715l13.77 7.887q.795.365.796 1.675v22.864q0 .423-.14.902-.13.47-.551.68l-16.5 8.191-.762.399a1.84 1.84 0 0 1-.867.234zm53.81 0q-1.314 0-1.313-1.313v-54.761h-9.2q-1.313 0-1.312-1.313V-68.74q-.001-1.311 1.312-1.313h35.895q1.31.002 1.312 1.313v11.355q-.001 1.314-1.312 1.313h-9.2v54.761q0 1.313-1.311 1.312zm0 0" aria-label="WISHLIST" style="fill:#3d71e2;fill-opacity:1;fill-rule:nonzero;stroke:none" transform="translate(458.806 1052.272)scale(1.33333)"/><path d="M0 0q1.209 0 2.102.894l8.83 8.829h2.469l8.83-8.829q.893-.895 2.102-.894h12.351q1.207 0 2.102.894l10.511 10.51q.893.841.893 2.103v55.235q0 1.313-1.314 1.314H33.951q-1.315 0-1.314-1.314V14.085h-11.72v54.657q0 1.313-1.314 1.314H4.73q-1.314 0-1.314-1.314V14.085H-8.356v54.657q0 1.313-1.314 1.314h-14.873q-1.314 0-1.314-1.314V13.507q0-1.261.894-2.103l10.51-10.51q.84-.895 2.103-.894Z" clip-path="url(#u)" style="fill:none;stroke:#000;stroke-width:3;stroke-linecap:butt;stroke-linejoin:miter;stroke-miterlimit:10;stroke-dasharray:none;stroke-opacity:1" transform="matrix(1.33333 0 0 -1.33333 501.69 1052.272)"/><path d="M0 0q1.313 0 1.314 1.313v67.429q0 1.313-1.314 1.314h-14.873q-1.315 0-1.314-1.314V1.313Q-16.187 0-14.873 0Z" clip-path="url(#v)" style="fill:none;stroke:#000;stroke-width:3;stroke-linecap:butt;stroke-linejoin:miter;stroke-miterlimit:10;stroke-dasharray:none;stroke-opacity:1" transform="matrix(1.33333 0 0 -1.33333 607.01 1052.272)"/><path d="M0 0q.42 0 .867.236.446.237.762.395l16.502 8.198q.42.21.552.684.13.472.131.893v22.862q0 1.312-.788 1.681L4.257 42.832v9.723l13.769 5.675q.788.42.788 1.578v8.934q0 1.313-1.314 1.314H3.311q-.684 0-1.13-.184a7.5 7.5 0 0 1-.973-.499l-13.821-9.355q-.684-.474-.789-.868t-.105-1.234V38.628q0-1.052.894-1.577L.946 28.643v-9.355l-13.77-6.307q-.525-.263-.604-.683a6.3 6.3 0 0 1-.079-1.104V1.313Q-13.507 0-12.193 0Z" clip-path="url(#w)" style="fill:none;stroke:#000;stroke-width:3;stroke-linecap:butt;stroke-linejoin:miter;stroke-miterlimit:10;stroke-dasharray:none;stroke-opacity:1" transform="matrix(1.33333 0 0 -1.33333 641.486 1052.272)"/><path d="M0 0q1.313 0 1.314 1.313v28.486h12.981V1.313Q14.295 0 15.609 0h14.873q1.313 0 1.314 1.313v67.429q0 1.313-1.314 1.314H15.609q-1.315 0-1.314-1.314V43.778H1.314v24.964q0 1.313-1.314 1.314h-14.873q-1.315 0-1.314-1.314V1.313Q-16.187 0-14.873 0Z" clip-path="url(#x)" style="fill:none;stroke:#000;stroke-width:3;stroke-linecap:butt;stroke-linejoin:miter;stroke-miterlimit:10;stroke-dasharray:none;stroke-opacity:1" transform="matrix(1.33333 0 0 -1.33333 702.869 1052.272)"/><path d="M0 0q1.313 0 1.313 1.313v11.406q0 1.313-1.313 1.313h-13.244v54.71q0 1.313-1.315 1.314h-14.872q-1.315 0-1.314-1.314V1.313Q-30.745 0-29.431 0Z" clip-path="url(#y)" style="fill:none;stroke:#000;stroke-width:3;stroke-linecap:butt;stroke-linejoin:miter;stroke-miterlimit:10;stroke-dasharray:none;stroke-opacity:1" transform="matrix(1.33333 0 0 -1.33333 803.073 1052.272)"/><path d="M0 0q1.314 0 1.314 1.313v67.429q0 1.313-1.314 1.314h-14.873q-1.314 0-1.314-1.314V1.313Q-16.187 0-14.873 0Z" clip-path="url(#z)" style="fill:none;stroke:#000;stroke-width:3;stroke-linecap:butt;stroke-linejoin:miter;stroke-miterlimit:10;stroke-dasharray:none;stroke-opacity:1" transform="matrix(1.33333 0 0 -1.33333 837.617 1052.272)"/><path d="M0 0q.42 0 .867.236.447.237.763.395l16.502 8.198q.42.21.552.684.13.472.13.893v22.862q0 1.312-.788 1.681L4.257 42.832v9.723l13.769 5.675q.788.42.788 1.578v8.934q0 1.313-1.313 1.314H3.312q-.685 0-1.13-.184a7.4 7.4 0 0 1-.973-.499l-13.822-9.355q-.683-.474-.788-.868-.106-.394-.106-1.234V38.628q0-1.052.894-1.577L.946 28.643v-9.355l-13.769-6.307q-.526-.263-.605-.683a6.3 6.3 0 0 1-.079-1.104V1.313Q-13.507 0-12.192 0Z" clip-path="url(#A)" style="fill:none;stroke:#000;stroke-width:3;stroke-linecap:butt;stroke-linejoin:miter;stroke-miterlimit:10;stroke-dasharray:none;stroke-opacity:1" transform="matrix(1.33333 0 0 -1.33333 872.094 1052.272)"/><path d="M0 0q1.313 0 1.313 1.313v54.763h9.198q1.313 0 1.313 1.314v11.352q0 1.313-1.313 1.314h-35.896q-1.314 0-1.313-1.314V57.39q0-1.314 1.313-1.314h9.198V1.313Q-16.187 0-14.873 0Z" clip-path="url(#B)" style="fill:none;stroke:#000;stroke-width:3;stroke-linecap:butt;stroke-linejoin:miter;stroke-miterlimit:10;stroke-dasharray:none;stroke-opacity:1" transform="matrix(1.33333 0 0 -1.33333 947.492 1052.272)"/><path d="M5.976 0Q4.945 0 4.945-1.031v-52.864q0-1.029 1.031-1.03h28.711q1.03.001 1.031 1.03v8.907q-.001 1.02-1.031 1.02h-16.02v11.706h14.626q1.029.002 1.03 1.032v7.535q-.001 1.032-1.03 1.031H18.668v11.66h16.019q1.03.002 1.031 1.031v8.942Q35.717 0 34.687 0zm39.346 0Q44.29 0 44.29-1.031V-7.7q-.001-.949.62-1.242l8.403-4.98v-4.29l-8.402-4.535q-.622-.362-.621-1.277V-37.16q0-.457.14-.738.151-.292.434-.504l8.777-6.422q.457-.338.738-.422.291-.08.586-.082h10.008q1.03.002 1.031 1.031v6.469q0 .703-.105.95-.107.245-.434.41l-7.78 4.206v4.782l8.32 4.113q.703.294.703 1.242V-9.48q0 1.032-.704 1.652L57.228-.54q-.66.54-1.652.539Zm39.474 0q-.948 0-1.652-.703l-6.879-6.832a2.34 2.34 0 0 1-.656-1.652V-35.72h-1.734q-1.033.001-1.032-1.031v-7.547q0-1.03 1.032-1.031h1.734v-5.145q0-1.029 1.02-1.03h10.968q1.03.001 1.031 1.03v5.145h3.997q1.029.002 1.03 1.031v7.547q-.001 1.032-1.03 1.031h-3.997v21.996q0 .787.493 1.278l4.03 4.078q.423.377.423 1.242v6.094Q93.572 0 92.543 0zm0 0" aria-label="Est" style="fill:#d2d11f;fill-opacity:1;fill-rule:nonzero;stroke:none" transform="translate(135.665 837.687)scale(1.33333)"/><path d="M0 0q1.03 0 1.03 1.03v8.941Q1.03 11 0 11.001h-16.027V22.66h14.626q1.03 0 1.03 1.03v7.539q0 1.03-1.03 1.031h-14.626v11.701H0q1.03 0 1.03 1.03v8.899q0 1.03-1.03 1.03h-28.717q-1.03 0-1.03-1.03V1.03q0-1.03 1.03-1.03z" clip-path="url(#C)" style="fill:none;stroke:#000;stroke-width:3;stroke-linecap:butt;stroke-linejoin:miter;stroke-miterlimit:10;stroke-dasharray:none;stroke-opacity:1" transform="matrix(1.33333 0 0 -1.33333 181.92 837.687)"/><path d="M0 0q.988 0 1.648.535l8.776 7.293q.7.617.7 1.649v12.648q0 .947-.7 1.235l-8.322 4.12v4.78l7.786 4.202q.33.165.433.412t.103.948v6.468q0 1.03-1.03 1.03H-.618q-.29 0-.577-.082-.288-.082-.741-.412l-8.776-6.428a1.35 1.35 0 0 1-.433-.494q-.144-.288-.144-.741V24.02q0-.907.618-1.278l8.405-4.531v-4.285l-8.405-4.986q-.618-.288-.618-1.236V1.03q0-1.03 1.03-1.03z" clip-path="url(#D)" style="fill:none;stroke:#000;stroke-width:3;stroke-linecap:butt;stroke-linejoin:miter;stroke-miterlimit:10;stroke-dasharray:none;stroke-opacity:1" transform="matrix(1.33333 0 0 -1.33333 209.825 837.687)"/><path d="M0 0q1.03 0 1.03 1.03v6.098q0 .864-.412 1.235l-4.038 4.079q-.494.494-.494 1.278v22.001H.082q1.03-.001 1.03 1.03v7.539q0 1.03-1.03 1.03h-3.996v5.151q0 1.028-1.03 1.029h-10.959q-1.03 0-1.031-1.029V45.32h-1.73q-1.03 0-1.03-1.03v-7.539q0-1.031 1.03-1.03h1.73V9.188q0-.948.66-1.648L-9.394.7q.7-.7 1.648-.7Z" clip-path="url(#E)" style="fill:none;stroke:#000;stroke-width:3;stroke-linecap:butt;stroke-linejoin:miter;stroke-miterlimit:10;stroke-dasharray:none;stroke-opacity:1" transform="matrix(1.33333 0 0 -1.33333 259.1 837.687)"/><path d="M7.617-.001Q6.713 0 6.714-.903v-37.618l-4.816.188q-.891.001-.89-.902v-7.758q-.001-.901.89-.903h15.89q.89 0 .891.903v46.09q-.002.903-.89.902zm43.397-47.895q.866.002 1.442.61l7.183 7.183q.608.576.61 1.442v26.871q-.002.658-.54 1.078L46.596-.364q-.388.364-1.078.363h-8.977q-.903.001-.902-.902v-4.524q0-.642.54-1.078l11.964-8.871v-1.98H35.358q-.87 0-1.442-.61l-6-5.965a1.96 1.96 0 0 1-.609-1.441v-13.29q-.001-.865.61-1.44l7.183-7.184c.404-.404.885-.61 1.441-.61zm-7.219 9.235q-3.165.002-4.277 1.383-1.115 1.386-1.113 5.297-.002 3.914 1.113 5.32 1.112 1.406 4.277 1.406 3.129 0 4.254-1.406 1.135-1.406 1.137-5.32 0-3.912-1.137-5.297-1.125-1.382-4.254-1.383M78.073-.001q-.87.001-1.442-.61l-7.183-7.183q-.611-.57-.61-1.441v-7.758q-.001-.726.364-1.078l4.054-4.746v-2.262l-4.054-4.746q-.365-.35-.364-1.078v-7.793q-.001-.83.61-1.442l7.183-7.183q.572-.573 1.442-.575h14.402q.866.002 1.441.575l7.184 7.183c.404.408.61.888.61 1.442v7.793q0 .727-.352 1.078L97.29-25.08v2.262l4.067 4.746q.351.352.351 1.078v7.758q-.002.87-.609 1.441L93.916-.61q-.575.61-1.441.609zm7.218-7.617q3.163 0 4.278-1.383 1.112-1.381 1.113-5.297c0-2.607-.372-4.383-1.113-5.32q-1.115-1.406-4.278-1.406c-2.085 0-3.51.468-4.265 1.406Q79.9-18.21 79.9-14.298q0 3.916 1.125 5.297 1.136 1.384 4.265 1.383m0-19.254q3.163 0 4.278-1.406 1.112-1.406 1.113-5.32 0-3.912-1.113-5.31-1.115-1.405-4.278-1.405c-2.085 0-3.51.468-4.265 1.406Q79.9-37.511 79.9-33.6q0 3.915 1.125 5.32 1.136 1.407 4.265 1.407M113.815-.001q-2.04 0-2.777-.844-.74-.844-.739-2.46v-41.25q0-1.619.739-2.462.738-.843 2.777-.843l24.691-.106q2.085 0 2.801.844.714.844.715 2.46v41.356q-.001 1.618-.715 2.461-.717.844-2.8.844zm8.45-8.977h7.792v-30.011h-7.793zm0 0" aria-label="1980" style="fill:#d2d11f;fill-opacity:1;fill-rule:nonzero;stroke:none" transform="translate(1131.825 833.478)scale(1.33333)"/><path d="M0 0q.898 0 .898.898v46.096q0 .899-.898.899h-15.88q-.898 0-.898-.899v-7.761q0-.898.898-.898l4.815.18V.898Q-11.066 0-10.167 0Z" clip-path="url(#F)" style="fill:none;stroke:#000;stroke-width:3;stroke-linecap:butt;stroke-linejoin:miter;stroke-miterlimit:10;stroke-dasharray:none;stroke-opacity:1" transform="matrix(1.33333 0 0 -1.33333 1155.537 833.478)"/><path d="M0 0q-.826 0-1.437-.611l-7.186-7.186a1.9 1.9 0 0 1-.61-1.436v-13.294q0-.827.61-1.438l6-5.964a1.9 1.9 0 0 1 1.437-.61h12.79v-1.977L-.359-41.39q-.54-.43-.539-1.078v-4.526q0-.9.898-.899h8.982q.682 0 1.078.36l13.114 10.347q.539.432.539 1.078v26.875q0 .861-.611 1.436L15.916-.611A1.9 1.9 0 0 1 14.479 0Zm11.515-10.617q1.132-1.384 1.131-5.299 0-3.917-1.131-5.317-1.131-1.402-4.257-1.402-3.162 0-4.276 1.402-1.114 1.4-1.114 5.317 0 3.915 1.114 5.299t4.276 1.384q3.126 0 4.257-1.384z" clip-path="url(#G)" style="fill:none;stroke:#000;stroke-width:3;stroke-linecap:butt;stroke-linejoin:miter;stroke-miterlimit:10;stroke-dasharray:none;stroke-opacity:1" transform="matrix(1.33333 0 0 -1.33333 1180.542 769.621)"/><path d="M0 0a1.9 1.9 0 0 1 1.437.61l7.186 7.187q.61.575.61 1.436v7.761q0 .718-.359 1.078l-4.06 4.742v2.264l4.06 4.742q.359.36.359 1.078v7.796q0 .827-.61 1.438l-7.186 7.185q-.574.575-1.437.576h-14.407q-.863 0-1.438-.576l-7.185-7.185q-.61-.611-.611-1.438v-7.796q0-.718.36-1.078l4.059-4.742v-2.264l-4.059-4.742q-.36-.36-.36-1.078V9.233q0-.861.611-1.436L-15.845.61Q-15.27 0-14.407 0Zm-11.443 9q-1.131 1.383-1.132 5.3t1.132 5.317q1.132 1.401 4.257 1.401 3.162 0 4.276-1.401t1.113-5.317q0-3.918-1.113-5.3-1.114-1.383-4.276-1.383-3.125 0-4.257 1.383zm0 19.275q-1.131 1.401-1.132 5.318t1.132 5.317q1.132 1.402 4.257 1.402 3.162 0 4.276-1.402 1.113-1.4 1.113-5.317t-1.113-5.318q-1.114-1.4-4.276-1.401-3.125 0-4.257 1.401z" clip-path="url(#H)" style="fill:none;stroke:#000;stroke-width:3;stroke-linecap:butt;stroke-linejoin:miter;stroke-miterlimit:10;stroke-dasharray:none;stroke-opacity:1" transform="matrix(1.33333 0 0 -1.33333 1255.176 833.478)"/><path d="M0 0q2.084 0 2.803.845.717.843.718 2.461v41.353q0 1.616-.718 2.461-.719.844-2.803.844l-24.683-.108q-2.048 0-2.784-.844t-.736-2.461V3.306q0-1.618.736-2.461Q-26.731 0-24.683 0Zm-16.239 38.982h7.797v-30h-7.797z" clip-path="url(#I)" style="fill:none;stroke:#000;stroke-width:3;stroke-linecap:butt;stroke-linejoin:miter;stroke-miterlimit:10;stroke-dasharray:none;stroke-opacity:1" transform="matrix(1.33333 0 0 -1.33333 1316.59 833.478)"/><path d="M0 0c-5.912 20.001-9.613 40.355-2.385 60.589C3.093 75.92 14.995 88.325 29.28 95.827c14.985 7.869 32.848 9.704 49.173 5.316 7.418-1.994 14.727-5.279 20.39-10.577 6.185-5.787 9.773-13.255 11.636-21.433 2.311-10.145 1.983-20.9 1.336-31.217-.778-12.41-2.853-24.627-5.945-36.665-2.511-9.774 12.601-13.943 15.112-4.166 5.877 22.882 9.249 48.014 5.504 71.532-1.673 10.507-5.739 20.459-12.528 28.701-6.363 7.724-14.99 13.005-24.228 16.606-38.143 14.87-85.185-3.017-103.299-39.851-12.394-25.202-9.235-52.217-1.543-78.239C-12.26-13.817 2.869-9.708 0 0" clip-path="url(#J)" style="fill:#f6efdf;fill-opacity:1;fill-rule:nonzero;stroke:none" transform="matrix(1.33333 0 0 -1.33333 689.291 522.779)"/><path d="M0 0c-3.744 12.706-6.732 25.826-6.27 39.155.422 12.213 3.96 24.191 10.983 34.247 13.179 18.872 36.106 29.495 58.975 28.029 11.517-.738 24.047-4.279 32.648-12.324 8.811-8.242 12.055-20.238 12.802-31.929.418-6.548.146-13.121-.269-19.661a185 185 0 0 0-2.415-20.213 206 206 0 0 0-1.999-9.94c-.616-2.716-1.699-5.542-1.806-8.339-.132-3.432 1.867-6.577 4.871-8.163 2.873-1.517 6.494-1.739 9.378-.122 4.1 2.299 4.599 7.444 5.559 11.575 2.943 12.653 4.98 25.569 5.52 38.559.27 6.518.153 13.056-.456 19.553-.569 6.068-1.485 12.124-3.346 17.941-3.541 11.064-10.114 20.966-19.458 27.943-16.009 11.953-37.306 15.809-56.818 13.085C29.304 116.8 11.481 108.09-1.756 94.739a78.2 78.2 0 0 1-16.488-24.548c-4.869-11.504-6.875-23.973-6.552-36.431.323-12.464 2.8-24.802 6.22-36.759.604-2.111 1.179-4.136 2.697-5.788 1.089-1.187 2.559-2.036 4.111-2.45 3.178-.847 6.706-.008 9.211 2.1C.143-6.867.931-3.324 0 0c-.52 1.856-3.415 1.068-2.893-.797.824-2.944-.319-5.688-3.1-7.033-2.397-1.16-5.567-1.019-7.527.916-1.448 1.429-1.817 3.482-2.35 5.368a196 196 0 0 0-2.324 8.993c-1.374 5.906-2.456 11.886-3.064 17.921-1.215 12.059-.56 24.317 2.972 35.959 2.979 9.816 7.913 19.009 14.557 26.832 11.845 13.946 28.46 23.44 46.299 27.262 18.45 3.953 38.428 1.599 54.873-7.915 9.798-5.668 17.262-14.087 21.791-24.464 4.845-11.101 5.881-23.637 5.88-35.621-.001-12.683-1.573-25.324-4.112-37.738A258 258 0 0 0 118.87.199c-.471-1.927-.732-4.189-2.09-5.741-1.821-2.082-4.94-2.276-7.356-1.199-2.687 1.198-4.237 3.866-3.648 6.791.632 3.132 1.529 6.219 2.193 9.348a204 204 0 0 1 1.78 9.487 195 195 0 0 1 2.177 19.557c.386 6.391.621 12.809.181 19.204-.775 11.254-3.724 22.656-11.383 31.26-7.64 8.582-19.125 12.992-30.245 14.761-11.489 1.827-23.407.851-34.391-3.021-10.152-3.579-19.489-9.595-26.999-17.303C1.482 75.536-4.056 65.987-6.883 55.45c-3.311-12.339-2.889-25.224-.585-37.698C-6.311 11.484-4.693 5.313-2.893-.797-2.348-2.645.548-1.859 0 0" clip-path="url(#K)" style="fill:#000;fill-opacity:1;fill-rule:nonzero;stroke:none" transform="matrix(1.33333 0 0 -1.33333 691.22 522.247)"/><path d="M0 0h-324.478l65.832 331.156h192.813z" clip-path="url(#L)" style="fill:#ff99f1;fill-opacity:1;fill-rule:nonzero;stroke:none" transform="matrix(1.33333 0 0 -1.33333 910.8 941.05)"/><path d="M0 0h-311.287c-4.166 0-8.492.337-12.648 0-.179-.014-.364 0-.543 0l1.446-1.899 1.763 8.868 11.865 59.683 8.65 43.515 9.477 47.67 9.534 47.958 8.948 45.012 7.51 37.775 5.404 27.183c.849 4.27 2.056 8.624 2.574 12.951.022.181.072.363.108.542l-1.447-1.102h184.993c2.407 0 5.101-.342 7.492 0 .104.015.222 0 .328 0l-1.446 1.102 1.763-8.868 4.797-24.131 7.067-35.552 8.651-43.516 9.477-47.669 9.534-47.958 8.948-45.012 7.509-37.775 5.404-27.183c.857-4.311 1.594-8.667 2.575-12.951.041-.179.072-.362.108-.542.376-1.892 3.268-1.091 2.892.798L-.316 7.766l-4.798 24.131-7.067 35.552-8.651 43.516-9.476 47.669-9.534 47.958-8.949 45.012-12.913 64.959c-.858 4.312-1.615 8.659-2.575 12.951-.04.179-.072.361-.107.541-.127.639-.823 1.101-1.447 1.101h-169.099c-7.778 0-15.61.271-23.385 0-.109-.004-.219 0-.329 0-.618 0-1.319-.462-1.446-1.101l-1.763-8.868-4.797-24.13-7.068-35.553-8.65-43.515-9.477-47.669-9.534-47.958-8.948-45.012-7.51-37.776-5.404-27.183c-.858-4.316-1.755-8.627-2.574-12.951q-.052-.271-.108-.541c-.188-.945.416-1.899 1.447-1.899h311.287c4.213 0 8.436-.084 12.648 0 .181.004.362 0 .543 0 1.93 0 1.934 3 0 3" clip-path="url(#M)" style="fill:#000;fill-opacity:1;fill-rule:nonzero;stroke:none" transform="matrix(1.33333 0 0 -1.33333 910.8 939.05)"/><path d="M0 0c-5.912 20.001-9.613 40.355-2.385 60.589C3.093 75.92 14.995 88.325 29.28 95.827c14.985 7.869 32.848 9.704 49.173 5.316 7.418-1.994 14.727-5.279 20.39-10.577 6.185-5.787 9.773-13.255 11.636-21.433 2.311-10.145 1.983-20.9 1.336-31.217-.778-12.41-2.853-24.627-5.945-36.665-2.511-9.774 12.601-13.943 15.112-4.166 5.877 22.882 9.249 48.014 5.504 71.532-1.673 10.507-5.739 20.459-12.528 28.701-6.363 7.724-14.99 13.005-24.228 16.606-38.143 14.87-85.185-3.017-103.299-39.851-12.394-25.202-9.235-52.217-1.543-78.239C-12.26-13.817 2.869-9.708 0 0" clip-path="url(#N)" style="fill:#f6efdf;fill-opacity:1;fill-rule:nonzero;stroke:none" transform="matrix(1.33333 0 0 -1.33333 615.34 498.248)"/><path d="M0 0c-3.744 12.706-6.732 25.826-6.27 39.154.422 12.214 3.96 24.192 10.983 34.248 13.179 18.872 36.106 29.495 58.975 28.029 11.517-.738 24.047-4.279 32.648-12.324 8.811-8.242 12.055-20.238 12.802-31.93.418-6.547.146-13.12-.269-19.66a185 185 0 0 0-2.415-20.213 206 206 0 0 0-1.999-9.94c-.616-2.716-1.699-5.542-1.806-8.339-.132-3.432 1.867-6.577 4.871-8.163 2.873-1.517 6.494-1.739 9.378-.122 4.1 2.299 4.599 7.444 5.559 11.575 2.943 12.653 4.98 25.569 5.52 38.559.27 6.518.153 13.056-.456 19.553-.569 6.068-1.485 12.124-3.346 17.941-3.541 11.064-10.114 20.966-19.458 27.943-16.009 11.953-37.306 15.809-56.818 13.085C29.304 116.8 11.481 108.09-1.756 94.739a78.2 78.2 0 0 1-16.488-24.548c-4.869-11.504-6.875-23.973-6.552-36.431.323-12.464 2.8-24.802 6.22-36.759.604-2.111 1.179-4.136 2.697-5.788 1.089-1.187 2.559-2.036 4.111-2.45 3.178-.847 6.706-.008 9.211 2.1C.143-6.867.931-3.324 0 0c-.52 1.856-3.415 1.068-2.893-.797.824-2.944-.319-5.688-3.1-7.033-2.397-1.16-5.567-1.019-7.527.916-1.448 1.429-1.817 3.482-2.35 5.368a196 196 0 0 0-2.324 8.993c-1.374 5.906-2.456 11.886-3.064 17.921-1.215 12.059-.56 24.317 2.972 35.959 2.979 9.816 7.913 19.009 14.557 26.832 11.845 13.946 28.459 23.44 46.299 27.262 18.45 3.953 38.428 1.599 54.873-7.915 9.797-5.668 17.262-14.087 21.791-24.464 4.845-11.101 5.881-23.637 5.88-35.621-.001-12.683-1.573-25.324-4.112-37.738A258 258 0 0 0 118.87.199c-.471-1.927-.732-4.189-2.09-5.741-1.821-2.082-4.94-2.276-7.356-1.199-2.687 1.198-4.237 3.866-3.648 6.791.632 3.132 1.529 6.219 2.193 9.348a204 204 0 0 1 1.78 9.487 195 195 0 0 1 2.177 19.557c.386 6.391.621 12.809.181 19.204-.775 11.254-3.724 22.656-11.383 31.26-7.64 8.582-19.125 12.992-30.245 14.76-11.489 1.828-23.407.852-34.391-3.02-10.152-3.579-19.489-9.595-26.999-17.303C1.482 75.536-4.056 65.987-6.883 55.45c-3.311-12.339-2.889-25.224-.585-37.698C-6.311 11.484-4.693 5.313-2.893-.797-2.348-2.645.548-1.859 0 0" clip-path="url(#O)" style="fill:#000;fill-opacity:1;fill-rule:nonzero;stroke:none" transform="matrix(1.33333 0 0 -1.33333 617.27 497.717)"/><path d="m0 0 37.786-31.344 78.543-299.812H65.833Z" clip-path="url(#P)" style="fill:#ff5b35;fill-opacity:1;fill-rule:nonzero;stroke:none" transform="matrix(1.33333 0 0 -1.33333 823.022 499.508)"/><path d="m0 0 30.235-25.081 6.332-5.252c.134-.111.989-1.007 1.173-.972-.098-.019-.255.9-.31.507-.047-.34.249-.951.335-1.277l.686-2.62 5.756-21.969 9.584-36.583 12.096-46.176 13.175-50.289 12.93-49.358 11.362-43.372 8.384-32.001 4.031-15.387.174-.664 1.446 1.898H66.894l1.446-1.101-1.763 8.868-4.797 24.13-7.068 35.553-8.65 43.515-9.477 47.669-9.534 47.958-8.948 45.013-7.51 37.775-5.404 27.183C4.332-7.723 3.595-3.367 2.615.918c-.041.179-.072.361-.108.541C2.131 3.351-.761 2.551-.386.662l1.763-8.868 4.797-24.13 7.068-35.553 8.651-43.515 9.476-47.669 9.534-47.958 8.948-45.012 7.51-37.776 5.404-27.183c.857-4.312 1.615-8.66 2.574-12.951.041-.179.072-.361.108-.541.127-.639.823-1.102 1.447-1.102h50.495c.984 0 1.693.958 1.447 1.899l-2.794 10.665-7.469 28.509-10.775 41.13-12.712 48.524-13.28 50.693-12.48 47.637-10.31 39.355-6.771 25.848-1.637 6.248c-.369 1.409-.846 1.986-2.019 2.959L5.184-.419l-3.063 2.54C.646 3.345-1.488 1.234 0 0" clip-path="url(#Q)" style="fill:#000;fill-opacity:1;fill-rule:nonzero;stroke:none" transform="matrix(1.33333 0 0 -1.33333 821.608 500.922)"/><path d="M0 0c-7.79 0-14.105 6.315-14.105 14.105v29.436c0 7.79 6.315 14.105 14.105 14.105s14.105-6.315 14.105-14.105V14.105C14.105 6.315 7.79 0 0 0" clip-path="url(#R)" style="fill:#f6efdf;fill-opacity:1;fill-rule:nonzero;stroke:none" transform="matrix(1.33333 0 0 -1.33333 606.088 558.38)"/><path d="M0 0c-6.358 0-12.011 5.006-12.553 11.397-.223 2.63-.052 5.333-.052 7.968 0 7.535-.063 15.072 0 22.607.051 6.069 4.305 11.289 10.285 12.465 6.299 1.239 12.703-2.801 14.444-8.939.786-2.772.481-5.923.481-8.777V22.895c0-3.301.006-6.602 0-9.903C12.595 7.741 9.679 2.896 4.71.901 3.204.297 1.617.02 0 0c-1.929-.023-1.934-3.023 0-3 7.232.087 13.767 5.157 15.255 12.323.65 3.129.35 6.55.35 9.724v15.14c0 2.944.176 5.95-.038 8.891-.519 7.142-5.977 13.287-13.114 14.366-7.147 1.08-14.201-2.876-16.927-9.59-1.384-3.411-1.131-7.052-1.131-10.649V22.3c0-3.208-.027-6.418 0-9.626.057-6.723 4.319-12.738 10.717-14.89A15.5 15.5 0 0 1 0-3c1.93 0 1.934 3 0 3" clip-path="url(#S)" style="fill:#000;fill-opacity:1;fill-rule:nonzero;stroke:none" transform="matrix(1.33333 0 0 -1.33333 606.088 556.38)"/><path d="M0 0a5.544 5.544 0 0 0-5.544 5.544v11.57a5.544 5.544 0 1 0 11.088 0V5.544A5.544 5.544 0 0 0 0 0" clip-path="url(#T)" style="fill:#f6efdf;fill-opacity:1;fill-rule:nonzero;stroke:none" transform="matrix(1.33333 0 0 -1.33333 606.088 535.055)"/><path d="M0 0c-2.251 0-3.995 1.839-4.044 4.05-.021.953 0 1.908 0 2.861 0 2.869-.052 5.744 0 8.613.035 1.933 1.264 3.646 3.214 4.051 2.156.448 4.341-.97 4.791-3.131.195-.937.083-1.991.083-2.942V8.378c0-1.398.014-2.796 0-4.194C4.021 1.876 2.335.065 0 0c-1.927-.054-1.934-3.054 0-3 3.115.087 5.916 2.072 6.779 5.123.396 1.403.265 2.958.265 4.401v6.123c0 1.365.106 2.789-.11 4.143-.487 3.062-3.057 5.438-6.11 5.807-2.899.35-5.863-1.211-7.136-3.864-.759-1.58-.732-3.191-.732-4.885V7.731c0-1.549-.13-3.17.088-4.71C-6.471-.388-3.445-3 0-3c1.93 0 1.934 3 0 3" clip-path="url(#U)" style="fill:#000;fill-opacity:1;fill-rule:nonzero;stroke:none" transform="matrix(1.33333 0 0 -1.33333 606.088 533.055)"/><path d="M0 0c-7.79 0-14.105 6.315-14.105 14.105v29.436c0 7.79 6.315 14.105 14.105 14.105s14.105-6.315 14.105-14.105V14.105C14.105 6.315 7.79 0 0 0" clip-path="url(#V)" style="fill:#f6efdf;fill-opacity:1;fill-rule:nonzero;stroke:none" transform="matrix(1.33333 0 0 -1.33333 762.808 558.38)"/><path d="M0 0c-6.358 0-12.011 5.006-12.553 11.397-.223 2.63-.052 5.333-.052 7.968 0 7.535-.063 15.072 0 22.607.051 6.069 4.305 11.289 10.285 12.465 6.299 1.239 12.703-2.801 14.444-8.939.786-2.772.481-5.923.481-8.777V22.895c0-3.301.006-6.602 0-9.903C12.595 7.741 9.679 2.896 4.71.901 3.204.297 1.617.02 0 0c-1.929-.023-1.934-3.023 0-3 7.232.087 13.767 5.157 15.255 12.323.65 3.129.35 6.55.35 9.724v15.14c0 2.944.176 5.95-.038 8.891-.519 7.142-5.977 13.287-13.114 14.366-7.147 1.08-14.201-2.876-16.927-9.59-1.384-3.411-1.131-7.052-1.131-10.649V22.3c0-3.208-.027-6.418 0-9.626.057-6.723 4.319-12.738 10.717-14.89A15.5 15.5 0 0 1 0-3c1.93 0 1.934 3 0 3" clip-path="url(#W)" style="fill:#000;fill-opacity:1;fill-rule:nonzero;stroke:none" transform="matrix(1.33333 0 0 -1.33333 762.808 556.38)"/><path d="m0 0 5.879 15.35 9.362 24.446 2.139 5.585-2.741-.359 11.207-15.357 17.841-24.45 4.067-5.573c1.127-1.544 3.731-.049 2.591 1.514L39.138 16.514 21.296 40.963l-4.067 5.574c-.789 1.081-2.263.892-2.742-.359l-5.878-15.35L-.754 6.382-2.893.798C-3.584-1.007-.685-1.788 0 0" clip-path="url(#X)" style="fill:#000;fill-opacity:1;fill-rule:nonzero;stroke:none" transform="matrix(1.33333 0 0 -1.33333 912.728 941.581)"/><path d="m0 0-1.681 7.137-4.537 19.254-6.75 28.653-8.182 34.726-9.02 38.287-9.045 38.393-8.491 36.037-7.127 30.255-5.161 21.903c-.81 3.437-1.538 6.907-2.432 10.323-.038.146-.069.293-.103.44-.443 1.878-3.336 1.083-2.893-.798l1.681-7.137 4.536-19.254 6.751-28.653 8.181-34.726 9.021-38.287 9.045-38.393 8.49-36.037 7.128-30.255 5.16-21.902c.81-3.438 1.538-6.908 2.433-10.324.038-.146.069-.293.103-.44C-2.45-2.676.443-1.881 0 0" clip-path="url(#Y)" style="fill:#000;fill-opacity:1;fill-rule:nonzero;stroke:none" transform="matrix(1.33333 0 0 -1.33333 935.902 880.01)"/><path d="m0 0 20.077 65.062 24.53-58.565 34.956 33.269-8.177-54.426 59.266 1.839-40.051-27.661 40.051-40.41-56.271-6.745 16.22-61.326-56.355 30.356-36.138-52.507-10.533 69.985-65.311-12.878 45.687 47.833-40.137 33.116 53.187 2.917-19.183 46.757z" clip-path="url(#Z)" style="fill:#fdab23;fill-opacity:1;fill-rule:nonzero;stroke:none" transform="matrix(1.33333 0 0 -1.33333 648.82 666.39)"/><path d="m0 0 6.814 22.08 10.775 34.918 2.488 8.065h-2.892l8.32-19.866 13.158-31.415 3.052-7.285c.428-1.023 1.614-1.512 2.507-.662l11.786 11.217 18.813 17.906 4.356 4.146-2.507 1.459-2.758-18.356-4.401-29.296-1.018-6.774c-.138-.918.377-1.932 1.447-1.899l20.05.623 31.927.991 7.289.226-.757 2.795-13.569-9.371-21.514-14.859-4.968-3.431c-.788-.545-1.025-1.629-.304-2.356l13.544-13.665 21.573-21.767 4.934-4.977 1.061 2.56-19.003-2.278-30.299-3.632-6.969-.836c-.957-.114-1.72-.866-1.447-1.898l5.502-20.802 8.701-32.895 2.018-7.629 2.203 1.694-18.998 10.234-30.405 16.377-6.953 3.745c-.753.406-1.578.15-2.052-.538l-12.22-17.755-19.465-28.283-4.453-6.469 2.742-.358-3.565 23.69-5.676 37.708-1.292 8.587c-.127.841-1.13 1.188-1.845 1.047l-22.053-4.348-35.166-6.934-8.093-1.596 1.46-2.507 15.455 16.181 24.612 25.768 5.62 5.885c.52.544.638 1.595 0 2.121l-13.54 11.171-21.605 17.826-4.992 4.119-1.06-2.561 18.006.987 28.573 1.567 6.607.362c.865.048 1.841.939 1.447 1.899l-6.472 15.775-10.326 25.17-2.385 5.812-2.203-1.694L-6.934 1.162l4.731-2.058C-.451-1.659 1.078.925-.689 1.694L-34.14 16.251l-4.731 2.059c-1.024.445-2.763-.331-2.203-1.694L-34.603.841l10.326-25.17 2.385-5.812 1.446 1.898-18.006-.987-28.573-1.567-6.607-.362c-1.175-.065-2.137-1.673-1.061-2.561l13.54-11.171 21.605-17.826 4.992-4.118v2.121l-15.455-16.181-24.612-25.768-5.62-5.885c-1.078-1.128.018-2.791 1.459-2.507l22.053 4.349 35.166 6.934 8.092 1.595-1.845 1.048 3.566-23.69 5.675-37.708 1.292-8.587c.21-1.396 2.094-1.299 2.742-.358l12.22 17.755 19.465 28.283 4.452 6.469-2.052-.538 18.998-10.233 30.405-16.378 6.953-3.745c1.144-.616 2.545.402 2.203 1.694L85.1-127.364l-8.701 32.896-2.018 7.628-1.446-1.899 19.003 2.278 30.299 3.633 6.969.835c1.231.148 2.053 1.559 1.06 2.561l-13.543 13.665-21.574 21.766-4.933 4.978-.304-2.356 13.569 9.372 21.513 14.859 4.969 3.431c1.151.795.83 2.845-.757 2.795l-20.05-.622-31.928-.991-7.288-.227 1.446-1.898 2.758 18.356 4.401 29.296 1.018 6.774c.213 1.417-1.337 2.573-2.507 1.459L65.27 30.008 46.456 12.102 42.1 7.956l2.508-.662-8.321 19.866-13.158 31.415-3.052 7.285c-.547 1.308-2.42 1.53-2.892 0l-6.814-22.08L-.404 8.862-2.893.798C-3.463-1.051-.568-1.842 0 0" clip-path="url(#aa)" style="fill:#000;fill-opacity:1;fill-rule:nonzero;stroke:none" transform="matrix(1.33333 0 0 -1.33333 650.748 666.92)"/><path d="M0 0c-7.216 7.341-11.502 18.148-9.749 28.486C-7.997 38.823.519 48.009 10.638 48.77c7.437.559 14.888-3.425 19.199-9.695s5.55-14.557 3.838-22.065c-.934-4.098-2.688-7.984-3.355-12.137-1.064-6.624.705-13.32 1.519-19.974s.411-14.132-4.047-19.027c-1.576-1.732-3.576-3.021-5.714-3.894-7.967-3.252-17.896-.09-22.68 7.223-4.785 7.313-3.94 18.035 1.931 24.493l1.922 2.298z" clip-path="url(#ab)" style="fill:#f6efdf;fill-opacity:1;fill-rule:nonzero;stroke:none" transform="matrix(1.33333 0 0 -1.33333 608.71 667.881)"/><path d="M0 0c-9.725 10.005-13.662 26.617-4.353 38.23 4.025 5.021 10.015 8.422 16.573 7.99 7.027-.462 13.325-5.085 16.616-11.182 3.631-6.728 3.69-14.55 1.507-21.731-1.191-3.922-2.573-7.737-2.849-11.863-.287-4.279.405-8.556 1.07-12.77 1.087-6.891 2.334-14.947-1.666-21.194-3.708-5.791-11.398-7.45-17.684-5.569-6.19 1.853-10.771 6.836-12.088 13.153-1.274 6.112.542 12.165 4.505 16.87q.812.967 1.62 1.936c.562.673.55 1.443 0 2.122zc-1.216 1.5-3.328-.634-2.121-2.121l3.25-4.009v2.122C-.418-5.858-2.099-7.65-3.31-9.747c-1.797-3.112-2.763-6.678-2.928-10.26-.336-7.315 2.953-14.367 9.117-18.415 5.946-3.904 13.809-4.59 20.196-1.362 7.483 3.782 9.805 11.942 9.515 19.791-.166 4.495-1.133 8.905-1.715 13.353-.624 4.764-.593 9.352.748 13.991 1.212 4.195 2.736 8.221 3.119 12.607.352 4.017-.092 8.166-1.35 12-2.472 7.537-8.19 13.728-15.791 16.229-7.115 2.341-14.57.582-20.319-4.063-5.768-4.66-9.295-11.743-9.891-19.091-.647-7.981 2.038-16.127 6.669-22.586a40 40 0 0 1 3.819-4.568C-.773-3.508 1.347-1.386 0 0" clip-path="url(#ac)" style="fill:#000;fill-opacity:1;fill-rule:nonzero;stroke:none" transform="matrix(1.33333 0 0 -1.33333 610.124 666.467)"/><path d="M0 0a47.8 47.8 0 0 1 3.692 20.663c-.187 4.092-1.798 9.095-5.857 9.643-1.463.198-3.293-.128-4.12 1.095-.312.462-.379 1.041-.43 1.596-.767 8.267 1.089 16.569.321 24.849-.496 5.351-6.597 22.169-12.552 10.615-4.756-9.227-3.524-20.279-1.973-30.544.333-2.2.674-4.456.216-6.634-.677-3.218-2.982-5.801-4.639-8.641-4.063-6.963-4.104-16.095-.103-23.094z" clip-path="url(#ad)" style="fill:#000;fill-opacity:1;fill-rule:nonzero;stroke:none" transform="matrix(1.33333 0 0 -1.33333 657.36 726.331)"/><path d="M0 0c-7.216 7.341-11.502 18.148-9.749 28.486C-7.997 38.823.519 48.01 10.638 48.77c7.437.559 14.888-3.425 19.2-9.695s5.549-14.557 3.837-22.065c-.934-4.098-2.688-7.984-3.355-12.137-1.064-6.624.705-13.32 1.519-19.974s.411-14.132-4.047-19.027c-1.576-1.731-3.576-3.021-5.714-3.894-7.967-3.252-17.896-.09-22.68 7.223-4.785 7.313-3.94 18.035 1.931 24.493l1.922 2.298z" clip-path="url(#ae)" style="fill:#f6efdf;fill-opacity:1;fill-rule:nonzero;stroke:none" transform="matrix(1.33333 0 0 -1.33333 716.918 669.603)"/><path d="M0 0c-9.725 10.005-13.662 26.617-4.353 38.23 4.025 5.02 10.015 8.422 16.573 7.99 7.027-.462 13.325-5.085 16.616-11.182 3.631-6.728 3.69-14.55 1.507-21.731-1.191-3.922-2.573-7.737-2.849-11.863-.287-4.279.405-8.556 1.07-12.77 1.087-6.891 2.334-14.947-1.666-21.194-3.708-5.791-11.398-7.451-17.684-5.569-6.19 1.853-10.771 6.836-12.088 13.153-1.274 6.112.542 12.165 4.505 16.87q.812.967 1.62 1.936c.562.673.55 1.443 0 2.122zc-1.216 1.5-3.328-.634-2.121-2.121l3.25-4.009v2.122C-.418-5.858-2.099-7.65-3.31-9.747c-1.797-3.112-2.763-6.678-2.928-10.26-.336-7.315 2.953-14.367 9.117-18.415 5.946-3.904 13.809-4.59 20.196-1.362 7.483 3.782 9.805 11.942 9.515 19.791-.166 4.495-1.133 8.905-1.715 13.353-.624 4.764-.593 9.352.748 13.991 1.212 4.195 2.736 8.221 3.119 12.607.352 4.017-.092 8.166-1.35 12-2.472 7.537-8.19 13.728-15.791 16.229-7.115 2.341-14.57.582-20.319-4.063-5.768-4.66-9.295-11.743-9.891-19.091-.647-7.981 2.038-16.127 6.669-22.586a40 40 0 0 1 3.819-4.568C-.773-3.508 1.347-1.386 0 0" clip-path="url(#af)" style="fill:#000;fill-opacity:1;fill-rule:nonzero;stroke:none" transform="matrix(1.33333 0 0 -1.33333 718.332 668.19)"/><path d="M0 0a47.8 47.8 0 0 1 3.692 20.663c-.187 4.092-1.798 9.095-5.857 9.643-1.463.198-3.293-.128-4.12 1.095-.312.462-.379 1.041-.43 1.596-.767 8.267 1.088 16.569.321 24.849-.496 5.351-6.597 22.169-12.552 10.615-4.756-9.227-3.524-20.279-1.973-30.544.333-2.2.674-4.456.216-6.634-.677-3.218-2.982-5.801-4.639-8.641-4.063-6.963-4.104-16.095-.103-23.094z" clip-path="url(#ag)" style="fill:#000;fill-opacity:1;fill-rule:nonzero;stroke:none" transform="matrix(1.33333 0 0 -1.33333 765.567 728.053)"/><path d="M0 0s35.935-54.986 46.848 43.879Z" clip-path="url(#ah)" style="fill:#000;fill-opacity:1;fill-rule:nonzero;stroke:none" transform="matrix(1.33333 0 0 -1.33333 660.967 832.75)"/><path d="M0 0c-.51 5.74.545 11.098 5.312 14.862 4.348 3.433 10.53 4.22 15.745 2.348 1.336-.479 2.76-1.128 4.115-.705 1.118.349 1.885 1.344 2.709 2.177 5.984 6.05 17.032 3.873 22.547-2.608s6.607-15.647 6.08-24.14c-.824-13.255-5.05-26.283-12.165-37.497-3.76-5.926-8.537-11.524-14.931-14.417-6.395-2.893-14.667-2.469-19.633 2.491-4.061 4.055-5.205 10.221-5.049 15.958.172 6.292.525 13.436-.134 20.023C3.856-14.106.653-7.355 0 0" clip-path="url(#ai)" style="fill:#ff5b35;fill-opacity:1;fill-rule:nonzero;stroke:none" transform="matrix(1.33333 0 0 -1.33333 647.93 756.099)"/><path d="M0 0c-.271 3.276-.138 6.724 1.416 9.697 1.626 3.113 4.554 5.342 7.896 6.345 3.619 1.086 7.152.671 10.657-.576 1.773-.631 3.654-.92 5.317.171 1.399.918 2.329 2.367 3.736 3.286 5.047 3.296 12.074 1.823 16.59-1.731 5.566-4.38 7.565-11.948 7.938-18.715.864-15.662-4.352-32.044-13.094-44.949-3.953-5.837-9.318-11.502-16.392-13.256-6.582-1.632-13.856.365-17.147 6.642-1.633 3.115-2.165 6.73-2.198 10.209-.039 4.056.252 8.116.261 12.174.008 4.174-.11 8.391-.851 12.508C3.4-14.139 2.1-10.219 1.119-6.222.616-4.172.202-2.103 0 0c-.183 1.905-3.185 1.924-3 0 .43-4.476 1.685-8.759 2.854-13.083 1.202-4.452 1.911-8.835 2.065-13.447.153-4.568-.016-9.137-.151-13.703-.116-3.905.054-7.858 1.359-11.581 1.228-3.502 3.359-6.599 6.476-8.669 3.013-2 6.732-2.863 10.321-2.795 7.924.152 14.691 4.775 19.645 10.67 5.391 6.415 9.378 14.092 12.236 21.939 2.945 8.086 4.667 16.752 4.813 25.366.132 7.79-1.314 15.965-6.378 22.137-4.206 5.128-11.445 7.876-17.979 6.588-1.571-.31-3.117-.9-4.484-1.738a14 14 0 0 1-1.858-1.379c-.74-.65-1.336-1.514-2.148-2.074-.894-.616-1.858-.273-2.799.055-1.015.354-2.007.726-3.059.957-1.892.417-3.857.561-5.786.374-7.744-.755-13.976-6.202-15.03-14.008C-3.156 3.742-3.155 1.875-3 0c.158-1.91 3.16-1.927 3 0" clip-path="url(#aj)" style="fill:#000;fill-opacity:1;fill-rule:nonzero;stroke:none" transform="matrix(1.33333 0 0 -1.33333 649.93 756.099)"/><path d="M0 0c-.166 2.093.177 4.046 1.726 5.419 1.413 1.251 3.422 1.538 5.116.856.435-.175.897-.411 1.338-.257.363.127.612.49.88.793 1.945 2.206 5.535 1.412 7.327-.95s2.147-5.705 1.975-8.802c-.267-4.832-1.641-9.583-3.953-13.671-1.221-2.161-2.774-4.202-4.852-5.257s-4.766-.9-6.379.909c-1.32 1.478-1.692 3.726-1.641 5.818.056 2.294.171 4.899-.043 7.3C1.253-5.143.212-2.682 0 0" clip-path="url(#ak)" style="fill:#000;fill-opacity:1;fill-rule:nonzero;stroke:none" transform="matrix(1.33333 0 0 -1.33333 673.36 770.625)"/><path d="M0 0c0-7.677-8.786-13.9-19.624-13.9S-39.248-7.677-39.248 0s8.786 13.9 19.624 13.9S0 7.677 0 0" clip-path="url(#al)" style="fill:#b5bc31;fill-opacity:1;fill-rule:nonzero;stroke:none" transform="matrix(1.33333 0 0 -1.33333 686.277 697.062)"/><path d="M0 0c-.091-6.362-6.44-10.269-11.956-11.657-6.631-1.667-14.746-.731-20.129 3.774-2.087 1.746-3.795 4.118-4.112 6.884-.305 2.661.706 5.27 2.45 7.26 4.593 5.244 12.53 6.837 19.179 5.911C-8.27 11.294-.105 7.352 0 0c.028-1.929 3.028-1.934 3 0-.109 7.605-7.05 12.656-13.798 14.456-7.852 2.094-17.233.854-23.53-4.553-2.609-2.241-4.485-5.311-4.855-8.763-.36-3.361.9-6.61 3.022-9.177 5.196-6.285 14.474-8.147 22.198-7.054C-6.169-13.988 2.874-8.84 3 0 3.028 1.931.028 1.932 0 0" clip-path="url(#am)" style="fill:#000;fill-opacity:1;fill-rule:nonzero;stroke:none" transform="matrix(1.33333 0 0 -1.33333 684.277 697.062)"/><path d="M0 0c0-2.431-2.782-4.401-6.213-4.401S-12.426-2.431-12.426 0s2.782 4.401 6.213 4.401S0 2.431 0 0" clip-path="url(#an)" style="fill:#f6efdf;fill-opacity:1;fill-rule:nonzero;stroke:none" transform="matrix(1.33333 0 0 -1.33333 660.856 693.053)"/><path d="M0 0a4 4 0 0 0-.013-.284c.026.288-.006-.01-.029-.085q-.037-.135-.079-.27c-.073-.227.094.184-.01-.033a3.5 3.5 0 0 0-.332-.558c.041.055.154.178-.043-.044a5 5 0 0 0-.321-.328c-.523-.488-1.358-.884-2.177-1.093a7 7 0 0 0-3.054-.084c-.383.08-.945.238-1.195.343a6 6 0 0 0-.61.309q-.18.104-.351.218c-.046.03-.293.215-.15.101a5 5 0 0 0-.504.478c-.202.213-.068.036-.217.282q-.092.154-.179.312c-.026.046-.1.261-.019.031q-.047.132-.085.268c-.018.069-.073.463-.045.153a3 3 0 0 0 0 .568c-.025-.277.055.188.085.288.08.269.03.102.002.036.047.109.106.214.166.317q.074.124.155.244c.08.118-.081-.079.085.105.583.645 1.295 1.061 2.144 1.321a7 7 0 0 0 3.051.25 7 7 0 0 0 1.585-.426c-.126.052.133-.06.124-.056a7 7 0 0 0 .736-.409c-.007.005.37-.267.218-.146.201-.16.383-.343.556-.534.023-.026.174-.222.043-.044A3.5 3.5 0 0 0-.1.608C-.185.804-.103.599-.078.505-.049.391-.018.28.003.164-.045.429-.002.086 0 0c.043-1.928 3.043-1.934 3 0C2.935 2.908.435 4.915-2.206 5.587c-2.853.726-6.147.214-8.399-1.759-2.122-1.859-2.368-4.887-.58-7.052 1.897-2.296 5.233-2.959 8.051-2.544C-.163-5.331 2.927-3.272 3 0 3.043 1.931.043 1.931 0 0" clip-path="url(#ao)" style="fill:#000;fill-opacity:1;fill-rule:nonzero;stroke:none" transform="matrix(1.33333 0 0 -1.33333 658.856 693.053)"/><path d="M0 0c3.19 1.176 6.524 1.7 9.922 1.469 3.102-.21 6.35-1.697 9.207.206 1.199.8 2.252 1.755 3.52 2.463a17.3 17.3 0 0 0 4.041 1.62c2.959.78 6.038.773 8.995-.007 1.869-.492 2.666 2.401.798 2.893-6.043 1.593-12.677.362-17.657-3.447-1.395-1.067-2.328-1.714-4.155-1.431-1.664.257-3.284.62-4.972.719-3.558.208-7.157-.361-10.497-1.592C-2.594 2.231-1.817-.67 0 0" clip-path="url(#ap)" style="fill:#000;fill-opacity:1;fill-rule:nonzero;stroke:none" transform="matrix(1.33333 0 0 -1.33333 655.339 725.818)"/><path d="M0 0c7.302.012 14.539-2.684 20.017-7.531 5.594-4.95 8.862-11.813 10.31-19.06.839-4.201 1.045-8.499.843-12.773-.091-1.93 2.909-1.925 3 0 .381 8.075-.763 16.346-4.314 23.671A33.12 33.12 0 0 1 13.028.34 33.1 33.1 0 0 1 0 3c-1.93-.003-1.934-3.003 0-3" clip-path="url(#aq)" style="fill:#000;fill-opacity:1;fill-rule:nonzero;stroke:none" transform="matrix(1.33333 0 0 -1.33333 734.462 591.476)"/><path d="M0 0c7.835 2.359 16.516 1.175 23.35-3.369 6.3-4.188 10.56-11.003 11.856-18.42.332-1.898 3.224-1.093 2.893.798C35.749-7.553 24.481 2.722 10.96 4.06c-3.945.39-7.964-.025-11.758-1.167C-2.641 2.338-1.856-.559 0 0" clip-path="url(#ar)" style="fill:#000;fill-opacity:1;fill-rule:nonzero;stroke:none" transform="matrix(1.33333 0 0 -1.33333 614.011 589.851)"/><path d="M0 0a5.544 5.544 0 0 0-5.544 5.544v11.57a5.544 5.544 0 1 0 11.088 0V5.544A5.544 5.544 0 0 0 0 0" clip-path="url(#as)" style="fill:#f6efdf;fill-opacity:1;fill-rule:nonzero;stroke:none" transform="matrix(1.33333 0 0 -1.33333 761.763 535.055)"/><path d="M0 0c-2.251 0-3.995 1.839-4.044 4.05-.021.953 0 1.908 0 2.861 0 2.869-.052 5.744 0 8.613.035 1.933 1.264 3.646 3.214 4.051 2.156.448 4.341-.97 4.791-3.131.195-.937.083-1.991.083-2.942V8.378c0-1.398.014-2.796 0-4.194C4.021 1.876 2.335.065 0 0c-1.927-.054-1.934-3.054 0-3 3.115.087 5.916 2.072 6.779 5.123.396 1.403.265 2.958.265 4.401v6.123c0 1.365.106 2.789-.11 4.143-.487 3.062-3.057 5.438-6.11 5.807-2.899.35-5.863-1.211-7.136-3.864-.759-1.58-.732-3.191-.732-4.885V7.731c0-1.549-.13-3.17.088-4.71C-6.471-.388-3.445-3 0-3c1.93 0 1.934 3 0 3" clip-path="url(#at)" style="fill:#000;fill-opacity:1;fill-rule:nonzero;stroke:none" transform="matrix(1.33333 0 0 -1.33333 761.763 533.055)"/></svg>