<svg xmlns="http://www.w3.org/2000/svg" width="1440" height="1440" viewBox="0 0 1440 1440"><defs><clipPath id="a" clipPathUnits="userSpaceOnUse"><path d="M-431.215 843.42h1080v-1080h-1080Z"/></clipPath><clipPath id="b" clipPathUnits="userSpaceOnUse"><path d="M-431.215 841.92h1080v-1080h-1080Z"/></clipPath><clipPath id="c" clipPathUnits="userSpaceOnUse"><path d="M-709.615 738.791h1080v-1080h-1080Z"/></clipPath><clipPath id="d" clipPathUnits="userSpaceOnUse"><path d="M-711.061 738.392h1080v-1080h-1080Z"/></clipPath><clipPath id="e" clipPathUnits="userSpaceOnUse"><path d="M-403.114 559.539h1080v-1080h-1080Z"/></clipPath><clipPath id="f" clipPathUnits="userSpaceOnUse"><path d="M-401.614 559.539h1080v-1080h-1080Z"/></clipPath><clipPath id="g" clipPathUnits="userSpaceOnUse"><path d="M-385.973 559.539h1080v-1080h-1080Z"/></clipPath><clipPath id="h" clipPathUnits="userSpaceOnUse"><path d="M-384.473 559.539h1080v-1080h-1080Z"/></clipPath><clipPath id="i" clipPathUnits="userSpaceOnUse"><path d="M-813.114 559.539h1080v-1080h-1080Z"/></clipPath><clipPath id="j" clipPathUnits="userSpaceOnUse"><path d="M-811.614 559.539h1080v-1080h-1080Z"/></clipPath><clipPath id="k" clipPathUnits="userSpaceOnUse"><path d="M-795.973 559.539h1080v-1080h-1080Z"/></clipPath><clipPath id="l" clipPathUnits="userSpaceOnUse"><path d="M-794.473 559.539h1080v-1080h-1080Z"/></clipPath><clipPath id="m" clipPathUnits="userSpaceOnUse"><path d="M-661.05 848.833h1080v-1080h-1080Z"/></clipPath><clipPath id="n" clipPathUnits="userSpaceOnUse"><path d="M-661.05 847.333h1080v-1080h-1080Z"/></clipPath><clipPath id="o" clipPathUnits="userSpaceOnUse"><path d="M-321.953 582.331h1080v-1080h-1080Z"/></clipPath><clipPath id="p" clipPathUnits="userSpaceOnUse"><path d="M-339.13 582.331h1080v-1080h-1080Z"/></clipPath><clipPath id="q" clipPathUnits="userSpaceOnUse"><path d="M-369.46 582.331h1080v-1080h-1080Z"/></clipPath><clipPath id="r" clipPathUnits="userSpaceOnUse"><path d="M-738.35 582.331h1080v-1080h-1080Z"/></clipPath><clipPath id="s" clipPathUnits="userSpaceOnUse"><path d="M-771.148 582.331h1080v-1080h-1080Z"/></clipPath><clipPath id="t" clipPathUnits="userSpaceOnUse"><path d="M-403.689 815.863h1080v-1080h-1080Z"/></clipPath><clipPath id="u" clipPathUnits="userSpaceOnUse"><path d="M-446.591 815.863h1080v-1080h-1080Z"/></clipPath><clipPath id="v" clipPathUnits="userSpaceOnUse"><path d="M-463.851 815.863h1080v-1080h-1080Z"/></clipPath><clipPath id="w" clipPathUnits="userSpaceOnUse"><path d="M-501.596 815.863h1080v-1080h-1080Z"/></clipPath><clipPath id="x" clipPathUnits="userSpaceOnUse"><path d="M-525.87 815.863h1080v-1080h-1080Z"/></clipPath><clipPath id="y" clipPathUnits="userSpaceOnUse"><path d="M-571.123 815.863h1080v-1080h-1080Z"/></clipPath><clipPath id="z" clipPathUnits="userSpaceOnUse"><path d="M-600.94 815.863h1080v-1080h-1080Z"/></clipPath><clipPath id="A" clipPathUnits="userSpaceOnUse"><path d="M-627.952 815.863h1080v-1080h-1080Z"/></clipPath><clipPath id="B" clipPathUnits="userSpaceOnUse"><path d="M-659.768 815.863h1080v-1080h-1080Z"/></clipPath><clipPath id="C" clipPathUnits="userSpaceOnUse"><path d="M-679.308 815.863h1080v-1080h-1080Z"/></clipPath><clipPath id="D" clipPathUnits="userSpaceOnUse"><path d="M-514.635 556.791h1080v-1080h-1080Z"/></clipPath><clipPath id="E" clipPathUnits="userSpaceOnUse"><path d="M-514.635 555.291h1080v-1080h-1080Z"/></clipPath><clipPath id="F" clipPathUnits="userSpaceOnUse"><path d="M-514.635 578.216h1080v-1080h-1080Z"/></clipPath><clipPath id="G" clipPathUnits="userSpaceOnUse"><path d="M-514.635 576.716h1080v-1080h-1080Z"/></clipPath><clipPath id="H" clipPathUnits="userSpaceOnUse"><path d="M-629.685 726.652h1080v-1080h-1080Z"/></clipPath><clipPath id="I" clipPathUnits="userSpaceOnUse"><path d="M-629.685 725.152h1080v-1080h-1080Z"/></clipPath><clipPath id="J" clipPathUnits="userSpaceOnUse"><path d="M-645.18 694.566h1080v-1080h-1080Z"/></clipPath><clipPath id="K" clipPathUnits="userSpaceOnUse"><path d="M-645.18 693.066h1080v-1080h-1080Z"/></clipPath><clipPath id="L" clipPathUnits="userSpaceOnUse"><path d="M-585.853 276.09h1080v-1080h-1080Z"/></clipPath><clipPath id="M" clipPathUnits="userSpaceOnUse"><path d="M-585.853 274.59h1080v-1080h-1080Z"/></clipPath><clipPath id="N" clipPathUnits="userSpaceOnUse"><path d="M0 1080h1080V0H0Z"/></clipPath><clipPath id="O" clipPathUnits="userSpaceOnUse"><path d="M-670.627 368.607h1080v-1080h-1080Z"/></clipPath><clipPath id="P" clipPathUnits="userSpaceOnUse"><path d="M0 1080h1080V0H0Z"/></clipPath><clipPath id="Q" clipPathUnits="userSpaceOnUse"><path d="M-643.963 368.607h1080v-1080h-1080Z"/></clipPath><clipPath id="R" clipPathUnits="userSpaceOnUse"><path d="M0 1080h1080V0H0Z"/></clipPath><clipPath id="S" clipPathUnits="userSpaceOnUse"><path d="M-560.187 368.607h1080v-1080h-1080Z"/></clipPath><clipPath id="T" clipPathUnits="userSpaceOnUse"><path d="M0 1080h1080V0H0Z"/></clipPath><clipPath id="U" clipPathUnits="userSpaceOnUse"><path d="M-476.412 368.607h1080v-1080h-1080Z"/></clipPath><clipPath id="V" clipPathUnits="userSpaceOnUse"><path d="M-475.297 370.107h1080v-1080h-1080Z"/></clipPath><clipPath id="W" clipPathUnits="userSpaceOnUse"><path d="M-473.797 370.107h1080v-1080h-1080Z"/></clipPath><clipPath id="X" clipPathUnits="userSpaceOnUse"><path d="M-540.407 370.107h1080v-1080h-1080Z"/></clipPath><clipPath id="Y" clipPathUnits="userSpaceOnUse"><path d="M-538.907 370.107h1080v-1080h-1080Z"/></clipPath><clipPath id="Z" clipPathUnits="userSpaceOnUse"><path d="M-605.517 370.107h1080v-1080h-1080Z"/></clipPath><clipPath id="aa" clipPathUnits="userSpaceOnUse"><path d="M-604.017 370.107h1080v-1080h-1080Z"/></clipPath><clipPath id="ab" clipPathUnits="userSpaceOnUse"><path d="M-670.627 370.107h1080v-1080h-1080Z"/></clipPath><clipPath id="ac" clipPathUnits="userSpaceOnUse"><path d="M-669.127 370.107h1080v-1080h-1080Z"/></clipPath><clipPath id="ad" clipPathUnits="userSpaceOnUse"><path d="M-551.087 710.72h1080v-1080h-1080Z"/></clipPath><clipPath id="ae" clipPathUnits="userSpaceOnUse"><path d="M-549.587 710.72h1080v-1080h-1080Z"/></clipPath><clipPath id="af" clipPathUnits="userSpaceOnUse"><path d="M-510.787 528.553h1080v-1080h-1080Z"/></clipPath><clipPath id="ag" clipPathUnits="userSpaceOnUse"><path d="M-510.787 527.053h1080v-1080h-1080Z"/></clipPath><clipPath id="ah" clipPathUnits="userSpaceOnUse"><path d="M-555.445 528.553h1080v-1080h-1080Z"/></clipPath><clipPath id="ai" clipPathUnits="userSpaceOnUse"><path d="M-555.445 527.053h1080v-1080h-1080Z"/></clipPath><clipPath id="aj" clipPathUnits="userSpaceOnUse"><path d="M-541.976 500.404h1080v-1080h-1080Z"/></clipPath><clipPath id="ak" clipPathUnits="userSpaceOnUse"><path d="M-498.007 500.404h1080v-1080h-1080Z"/></clipPath><clipPath id="al" clipPathUnits="userSpaceOnUse"><path d="M-542.2 426.533h1080v-1080h-1080Z"/></clipPath><clipPath id="am" clipPathUnits="userSpaceOnUse"><path d="M-543.646 426.932h1080v-1080h-1080Z"/></clipPath><clipPath id="an" clipPathUnits="userSpaceOnUse"><path d="M-491.2 424.861h1080v-1080h-1080Z"/></clipPath><clipPath id="ao" clipPathUnits="userSpaceOnUse"><path d="M-492.646 425.26h1080v-1080h-1080Z"/></clipPath><clipPath id="ap" clipPathUnits="userSpaceOnUse"><path d="M-549.542 520.673h1080v-1080h-1080Z"/></clipPath><clipPath id="aq" clipPathUnits="userSpaceOnUse"><path d="M-548.042 520.673h1080v-1080h-1080Z"/></clipPath><clipPath id="ar" clipPathUnits="userSpaceOnUse"><path d="M-532.008 517.908h1080v-1080h-1080Z"/></clipPath><clipPath id="as" clipPathUnits="userSpaceOnUse"><path d="M-530.508 517.908h1080v-1080h-1080Z"/></clipPath><clipPath id="at" clipPathUnits="userSpaceOnUse"><path d="M-530.895 560.976h1080v-1080h-1080Z"/></clipPath><clipPath id="au" clipPathUnits="userSpaceOnUse"><path d="M-509.67 554.138h1080v-1080h-1080Z"/></clipPath><clipPath id="av" clipPathUnits="userSpaceOnUse"><path d="M-510.965 554.895h1080v-1080h-1080Z"/></clipPath><clipPath id="aw" clipPathUnits="userSpaceOnUse"><path d="M-516.99 571.738h1080v-1080h-1080Z"/></clipPath><clipPath id="ax" clipPathUnits="userSpaceOnUse"><path d="M-514.801 562.687h1080v-1080h-1080Z"/></clipPath><clipPath id="ay" clipPathUnits="userSpaceOnUse"><path d="M-578.001 545.45h1080v-1080h-1080Z"/></clipPath><clipPath id="az" clipPathUnits="userSpaceOnUse"><path d="M-598.236 677.36h1080v-1080h-1080Z"/></clipPath><clipPath id="aA" clipPathUnits="userSpaceOnUse"><path d="M-598.236 675.86h1080v-1080h-1080Z"/></clipPath><clipPath id="aB" clipPathUnits="userSpaceOnUse"><path d="M-598.236 666.19h1080v-1080h-1080Z"/></clipPath><clipPath id="aC" clipPathUnits="userSpaceOnUse"><path d="M-598.236 664.69h1080v-1080h-1080Z"/></clipPath><clipPath id="aD" clipPathUnits="userSpaceOnUse"><path d="M-507.213 627.063h1080v-1080h-1080Z"/></clipPath><clipPath id="aE" clipPathUnits="userSpaceOnUse"><path d="M-520.072 643.174h1080v-1080h-1080Z"/></clipPath><clipPath id="aF" clipPathUnits="userSpaceOnUse"><path d="M-503.2 634.777h1080v-1080h-1080Z"/></clipPath><clipPath id="aG" clipPathUnits="userSpaceOnUse"><path d="M-508.713 627.063h1080v-1080h-1080Z"/></clipPath><clipPath id="aH" clipPathUnits="userSpaceOnUse"><path d="M-556.876 621.805h1080v-1080h-1080Z"/></clipPath><clipPath id="aI" clipPathUnits="userSpaceOnUse"><path d="M-555.376 621.805h1080v-1080h-1080Z"/></clipPath><clipPath id="aJ" clipPathUnits="userSpaceOnUse"><path d="M-595.148 614.965h1080v-1080h-1080Z"/></clipPath><clipPath id="aK" clipPathUnits="userSpaceOnUse"><path d="M-593.853 614.208h1080v-1080h-1080Z"/></clipPath><clipPath id="aL" clipPathUnits="userSpaceOnUse"><path d="M-444.082 530.559h1080v-1080h-1080Z"/></clipPath><clipPath id="aM" clipPathUnits="userSpaceOnUse"><path d="M-444.082 529.059h1080v-1080h-1080Z"/></clipPath><clipPath id="aN" clipPathUnits="userSpaceOnUse"><path d="M-637.163 603.961h1080v-1080h-1080Z"/></clipPath><clipPath id="aO" clipPathUnits="userSpaceOnUse"><path d="M-637.163 602.461h1080v-1080h-1080Z"/></clipPath><clipPath id="aP" clipPathUnits="userSpaceOnUse"><path d="M-444.082 551.984h1080v-1080h-1080Z"/></clipPath><clipPath id="aQ" clipPathUnits="userSpaceOnUse"><path d="M-444.082 550.484h1080v-1080h-1080Z"/></clipPath></defs><path d="M0 0h1080v1080H0Z" style="fill:#fff;fill-opacity:1;fill-rule:nonzero;stroke:none" transform="matrix(1.33333 0 0 -1.33333 0 1440)"/><path d="M0 0c-2.452 0-4.926.05-7.351.15-17.048.688-30.88 4.062-42.272 10.314-17.305 9.505-29.184 25.497-34.362 46.251-4.867 19.516-2.777 38.723-.166 51.399 1.344 6.513 2.962 12.919 4.527 19.115 4.655 18.439 9.054 35.855 4.711 50.262-3.001 9.954-10.603 19.948-18.65 30.529-6.822 8.972-13.877 18.248-19.486 29.029-11.391 21.898-14.889 47.078-9.849 70.901 2.959 13.995 8.507 26.505 13.872 38.604 6.342 14.3 12.333 27.806 11.836 39.963-.714 17.471-14.581 35.233-29.261 54.038-19.363 24.802-41.309 52.913-37.428 88.752 2.479 22.951 16.064 44.016 38.253 59.308 19.061 13.139 42.818 21.087 66.895 22.381 2.965.16 6.002.242 9.023.242 41.674 0 81.665-15.672 113.799-28.264l.558-.219.546-.249c13.196-6.009 27.238-9.055 41.738-9.055 14.498 0 28.54 3.046 41.734 9.054l2.773 1.263.56.22c32.134 12.592 72.125 28.264 113.799 28.264 3.02 0 6.057-.082 9.029-.242 24.07-1.294 47.828-9.242 66.889-22.381 22.189-15.293 35.774-36.358 38.254-59.315 3.88-35.833-18.066-63.944-37.429-88.745-14.68-18.805-28.547-36.567-29.261-54.039-.497-12.156 5.493-25.663 11.836-39.963 5.365-12.098 10.913-24.608 13.873-38.605 5.039-23.821 1.541-49.001-9.849-70.899-5.61-10.781-12.665-20.058-19.487-29.029-8.047-10.58-15.649-20.575-18.651-30.532-4.342-14.404.056-31.821 4.712-50.259 1.565-6.196 3.182-12.603 4.525-19.106 2.612-12.686 4.703-31.893-.165-51.408-5.177-20.754-17.057-36.746-34.354-46.247-11.4-6.256-25.232-9.631-42.295-10.319-2.413-.099-4.895-.15-7.357-.15-13.839 0-27.921 1.542-43.05 4.713-21.074 4.417-42.42 6.658-63.446 6.658-21.372 0-42.535-2.318-62.902-6.888C30.196 1.799 14.93.001 0 0" clip-path="url(#a)" style="fill:#ff5b35;fill-opacity:1;fill-rule:nonzero;stroke:none" transform="matrix(1.33333 0 0 -1.33333 574.953 1124.56)"/><path d="M0 0c-16.441.048-33.388 2.009-48.103 9.847-12.999 6.923-23.161 17.954-29.372 31.275-7.302 15.663-8.972 33.49-7.406 50.542 1.63 17.744 7.565 34.663 11.034 52.063 1.608 8.068 2.798 16.424 1.933 24.655-.843 8.033-4.009 15.219-8.258 22.016-9.467 15.143-21.924 28.158-30.513 43.904-8.66 15.875-13.191 33.874-12.952 51.962.247 18.741 6.283 36.12 13.728 53.103 6.415 14.632 15.599 30.905 14.102 47.428-1.488 16.418-12.375 30.862-22.014 43.542-18.955 24.93-42.248 50.501-44.78 83.273-2.559 33.107 17.845 61.079 45.537 77.151 31.619 18.351 68.547 20.594 103.843 13.806 17.38-3.343 34.326-8.613 50.949-14.634 7.519-2.724 14.98-5.607 22.428-8.52 7.062-2.763 13.907-5.846 21.282-7.747 16.982-4.378 35.116-4.285 52.05.28 6.479 1.746 12.475 4.403 18.631 6.985 7.355 3.085 14.891 5.831 22.371 8.598 33.29 12.31 68.737 22.275 104.582 19.183 32.909-2.838 67.537-18.352 86.608-46.227 8.668-12.67 13.421-27.507 13.235-42.89-.196-16.296-5.991-31.726-14.134-45.656-8.005-13.692-18.06-26.002-27.74-38.515-9.976-12.894-21.536-27.173-24.594-43.655-3.065-16.526 5.313-32.775 11.81-47.441 7.341-16.57 14.092-33.428 15.265-51.712 1.153-17.965-2.396-36.161-10.215-52.379-7.981-16.552-20.391-30.055-30.632-45.137-4.44-6.539-8.504-13.6-10.042-21.442-1.516-7.727-.923-15.667.306-23.388 2.834-17.81 9.178-34.9 11.502-52.808 4.091-31.51-3.784-66.735-32.437-84.414C254.03 4.426 237.533 1.564 221.343 1.09c-8.784-.257-17.582.134-26.315 1.09-9.665 1.058-19.101 3.107-28.645 4.884-37.367 6.956-75.971 7.213-113.294-.182-8.763-1.736-17.425-3.775-26.286-5.002A199.5 199.5 0 0 0 0 0c-1.93-.006-1.934-3.006 0-3 8.863.026 17.701.65 26.485 1.834C36.109.132 45.507 2.368 55.029 4.213c19.49 3.777 39.375 5.446 59.222 5.134 20.071-.316 39.908-2.815 59.561-6.815 18.098-3.683 36.729-5.495 55.183-4.04 15.321 1.208 30.656 5.05 43.445 13.873 11.451 7.899 20.065 19.099 25.321 31.935 6.6 16.12 7.877 34.103 5.909 51.283-2.032 17.744-8.033 34.671-11.268 52.182-1.628 8.815-2.638 18.168-.46 26.983 2.147 8.691 7.414 16.348 12.607 23.492 10.753 14.794 22.584 28.741 29.729 45.782 6.825 16.276 9.661 34.21 7.99 51.792-1.679 17.669-8.3 33.955-15.421 50.029-7.161 16.165-15.849 33.502-9.864 51.388 5.807 17.353 18.994 31.937 30.024 46.146 19.172 24.697 38.035 52.591 34.464 85.437-3.379 31.07-26.179 55.376-53.175 69.004-32.469 16.39-69.116 17.177-104.142 9.775-17.545-3.708-34.63-9.289-51.422-15.528-7.25-2.693-14.559-5.355-21.691-8.351-6.75-2.836-13.331-5.666-20.477-7.424-18.322-4.507-37.855-3.624-55.704 2.477-6.842 2.338-13.491 5.393-20.24 8.005-7.948 3.076-15.929 6.071-23.988 8.844-33.935 11.676-70.767 19.908-106.647 13.327-31.676-5.81-63.822-23.323-79.987-52.104-7.379-13.14-10.762-28.192-9.599-43.229 1.188-15.375 6.999-29.855 14.806-43.022 8.398-14.164 18.944-26.855 28.945-39.884 10.167-13.246 22.934-29.069 23.186-46.625.127-8.865-2.965-17.552-6.232-25.668-3.513-8.727-7.601-17.21-11.179-25.91-6.921-16.829-11.322-34.339-10.452-52.646.838-17.61 6.052-34.788 14.912-50.011 9.135-15.698 22.192-28.775 31.026-44.622 4.36-7.823 6.247-15.967 5.907-24.912-.365-9.598-2.626-19.048-4.922-28.335-4.136-16.73-8.643-33.274-8.807-50.63-.158-16.613 3.15-33.612 11.66-48.041 7.227-12.255 18.106-22.086 31.06-27.983C-31.394-1.188-15.56-2.954 0-3c1.931-.006 1.933 2.994 0 3" clip-path="url(#b)" style="fill:#000;fill-opacity:1;fill-rule:nonzero;stroke:none" transform="matrix(1.33333 0 0 -1.33333 574.953 1122.56)"/><path d="M0 0c-5.514 26.72-16.654 54.078-8.748 80.312 7.085 23.496 28.23 41.357 39.705 63.414 9.011 17.323 11.789 37.211 7.815 55.994-6.082 28.767-27.368 54.828-26.172 84.092 2.108 51.585 72.364 88.096 66.799 139.479-3.811 35.285-44.763 59.703-84.173 61.822-39.401 2.129-77.302-12.336-113.489-26.517l-2.229-1.015a123.02 123.02 0 0 0-101.954.001c-36.187 14.181-74.087 28.646-113.488 26.517-39.411-2.118-80.362-26.537-84.174-61.822-5.565-51.382 64.691-87.894 66.8-139.479 1.196-29.264-20.091-55.324-26.173-84.092-3.973-18.783-1.196-38.671 7.816-55.994 11.474-22.057 32.619-39.918 39.704-63.414 7.907-26.233-3.233-53.592-8.747-80.312z" clip-path="url(#c)" style="fill:#3d71e2;fill-opacity:1;fill-rule:nonzero;stroke:none" transform="matrix(1.33333 0 0 -1.33333 946.153 985.055)"/><path d="M0 0c-5.861 28.09-18.473 58.216-6.222 86.4 10.252 23.585 31.347 40.504 40.844 64.566 5.06 12.82 6.998 26.916 5.454 40.619-1.465 13.005-6.23 25.176-11.43 37.084-5.277 12.083-11.133 24.086-14.154 36.991-2.519 10.758-2.48 21.675.608 32.296 5.56 19.124 18.589 35.246 30.639 50.685 11.805 15.124 24.545 30.634 30.73 49.081 2.894 8.631 4.023 17.82 2.773 26.862-1.401 10.132-5.911 19.478-12.27 27.422-13.907 17.374-35.719 27.895-57.207 32.178-27.238 5.429-55.652.53-81.911-7.327-14.225-4.257-28.133-9.485-41.963-14.869-5.221-2.032-10.296-4.417-15.53-6.405a123 123 0 0 0-20.071-5.729c-13.846-2.706-28.215-2.973-42.15-.755a123 123 0 0 0-20.215 5.004c-6.49 2.205-12.749 5.061-19.138 7.54-27.221 10.563-55.163 20.552-84.451 23.141-24.581 2.173-49.414-1.617-71.037-13.95-18.028-10.283-33.706-26.968-36.279-48.308-2.279-18.899 6.115-36.572 16.426-51.839 11.317-16.758 25.133-31.702 35.985-48.789 5.051-7.954 9.463-16.412 12.028-25.516 3.095-10.984 2.869-22.249.07-33.285-6.467-25.493-22.951-47.606-25.383-74.256-1.254-13.756.986-27.781 6.295-40.521 4.972-11.934 12.759-22.265 20.531-32.487 7.669-10.087 15.662-20.353 20.389-32.227 5.472-13.744 5.217-28.558 2.69-42.921-2.474-14.063-6.738-27.73-9.652-41.699-.197-.941.422-1.901 1.446-1.898l33.914.101 81.434.242 98.493.293 85.09.253 27.999.083c4.387.013 8.844-.2 13.226.04.183.01.369.001.553.001 1.93.006 1.933 3.006 0 3L-35.36 1l-81.435-.242-98.493-.293-85.089-.253-28-.083-8.697-.026c-1.422-.005-3.125.248-4.528-.014-.172-.032-.376-.001-.553-.001l1.447-1.899c5.687 27.257 17.683 56.302 7.779 84.048-8.524 23.881-29.203 40.61-40.078 63.211-6.081 12.639-8.866 26.793-8.042 40.792.808 13.741 5.625 26.636 11.061 39.141 9.445 21.723 20.713 44.093 15.201 68.414-4.234 18.679-16.007 34.7-27.49 49.592-11.856 15.377-25.098 30.541-32.795 48.578-3.596 8.429-5.676 17.502-5.233 26.697.499 10.355 4.369 20.124 10.491 28.433 13.428 18.226 35.836 28.989 57.606 33.254 27.508 5.391 56.223-.067 82.619-8.208 14.182-4.374 28.057-9.665 41.874-15.064 6.324-2.471 12.477-5.236 18.997-7.196a125.04 125.04 0 0 1 59.805-2.92 123 123 0 0 1 19.251 5.421c5.238 1.947 10.286 4.349 15.492 6.379 27.351 10.661 55.428 21.067 84.857 23.91 24.988 2.414 50.275-1.242 72.128-14.127 18.004-10.615 33.229-27.958 33.924-49.739.61-19.093-9.494-36.215-20.291-51.188-11.668-16.182-25.252-31.088-35.25-48.433-4.584-7.953-8.384-16.492-10.259-25.513-2.325-11.182-1.281-22.528 1.878-33.445 7.235-25.008 23.378-47.201 24.678-73.84.698-14.311-2.396-28.734-8.875-41.513-5.679-11.202-13.666-21.006-21.181-30.994-7.438-9.887-14.713-20.226-18.614-32.091-4.354-13.244-3.756-27.325-1.37-40.887 2.474-14.063 6.738-27.73 9.652-41.699C-2.499-2.686.394-1.887 0 0" clip-path="url(#d)" style="fill:#000;fill-opacity:1;fill-rule:nonzero;stroke:none" transform="matrix(1.33333 0 0 -1.33333 948.082 984.523)"/><path d="M0 0c0-37.441-30.352-67.792-67.792-67.792-37.441 0-67.793 30.351-67.793 67.792s30.352 67.792 67.793 67.792C-30.352 67.792 0 37.441 0 0" clip-path="url(#e)" style="fill:#ff5b35;fill-opacity:1;fill-rule:nonzero;stroke:none" transform="matrix(1.33333 0 0 -1.33333 537.485 746.052)"/><path d="M0 0c-.035-13.751-4.299-27.208-12.261-38.429-7.706-10.86-18.777-19.323-31.297-23.868-13.054-4.738-27.48-5.276-40.844-1.491-12.921 3.658-24.502 11.299-33.063 21.632-8.608 10.389-13.89 23.456-14.92 36.908-1.056 13.798 2.184 27.71 9.357 39.556 6.921 11.43 17.275 20.593 29.433 26.128 12.563 5.719 26.965 7.298 40.483 4.549 13.216-2.687 25.398-9.425 34.726-19.162 9.315-9.724 15.482-22.2 17.596-35.496C-.247 6.913-.009 3.456 0 0c.005-1.93 3.005-1.934 3 0-.036 14.294-4.454 28.425-12.766 40.076-8.121 11.384-19.554 20.163-32.681 24.999-13.609 5.013-28.803 5.556-42.752 1.606-13.433-3.803-25.612-11.757-34.492-22.53-9.051-10.98-14.557-24.54-15.68-38.729-1.135-14.345 2.297-28.933 9.752-41.244 7.197-11.884 17.994-21.545 30.661-27.273 13.257-5.994 28.21-7.684 42.477-4.817 13.747 2.762 26.523 9.844 36.216 19.968C-6.541-37.788.019-24.698 2.156-10.786A72 72 0 0 1 3 0C3.005 1.931.005 1.933 0 0" clip-path="url(#f)" style="fill:#000;fill-opacity:1;fill-rule:nonzero;stroke:none" transform="matrix(1.33333 0 0 -1.33333 535.485 746.052)"/><path d="M0 0c0-27.974-22.677-50.651-50.651-50.651S-101.303-27.974-101.303 0s22.678 50.651 50.652 50.651S0 27.974 0 0" clip-path="url(#g)" style="fill:#ff99f1;fill-opacity:1;fill-rule:nonzero;stroke:none" transform="matrix(1.33333 0 0 -1.33333 514.63 746.052)"/><path d="M0 0c-.069-20.406-13.05-39.223-32.311-46.195-9.704-3.513-20.41-3.906-30.338-1.08-9.611 2.736-18.205 8.443-24.553 16.148-13.107 15.909-14.647 39.115-3.941 56.687 10.672 17.515 31.771 26.757 51.884 22.599C-19.345 44.042-3.73 27.627-.566 7.547-.173 5.052-.009 2.525 0 0c.007-1.93 3.007-1.934 3 0-.037 10.836-3.398 21.55-9.746 30.353-6.147 8.523-14.737 15.068-24.611 18.678-20.435 7.473-44.141.997-57.966-15.783-6.871-8.339-11.027-18.625-11.836-29.405-.807-10.76 1.811-21.702 7.426-30.917 5.423-8.901 13.536-16.145 23.046-20.428a52.74 52.74 0 0 1 31.893-3.617C-17.703-46.914-.826-29.284 2.379-8.007 2.779-5.353 2.991-2.683 3 0 3.007 1.931.007 1.933 0 0" clip-path="url(#h)" style="fill:#000;fill-opacity:1;fill-rule:nonzero;stroke:none" transform="matrix(1.33333 0 0 -1.33333 512.63 746.052)"/><path d="M0 0c0-37.441-30.352-67.792-67.792-67.792-37.441 0-67.793 30.351-67.793 67.792s30.352 67.792 67.793 67.792C-30.352 67.792 0 37.441 0 0" clip-path="url(#i)" style="fill:#ff5b35;fill-opacity:1;fill-rule:nonzero;stroke:none" transform="matrix(1.33333 0 0 -1.33333 1084.152 746.052)"/><path d="M0 0c-.035-13.751-4.299-27.208-12.261-38.429-7.706-10.86-18.777-19.323-31.297-23.868-13.054-4.738-27.48-5.276-40.844-1.491-12.921 3.658-24.502 11.299-33.063 21.632-8.608 10.389-13.89 23.456-14.92 36.908-1.056 13.798 2.184 27.71 9.357 39.556 6.921 11.43 17.275 20.593 29.433 26.128 12.563 5.719 26.965 7.298 40.483 4.549 13.216-2.687 25.398-9.425 34.726-19.162 9.315-9.724 15.482-22.2 17.596-35.496C-.247 6.913-.009 3.456 0 0c.005-1.93 3.005-1.934 3 0-.036 14.294-4.454 28.425-12.766 40.076-8.121 11.384-19.554 20.163-32.681 24.999-13.609 5.013-28.803 5.556-42.753 1.606-13.432-3.803-25.611-11.757-34.491-22.53-9.051-10.98-14.557-24.54-15.68-38.729-1.135-14.345 2.297-28.933 9.752-41.244 7.197-11.884 17.994-21.545 30.661-27.273 13.257-5.994 28.21-7.684 42.477-4.817 13.747 2.762 26.523 9.844 36.216 19.968C-6.541-37.788.019-24.698 2.156-10.786A72 72 0 0 1 3 0C3.005 1.931.005 1.933 0 0" clip-path="url(#j)" style="fill:#000;fill-opacity:1;fill-rule:nonzero;stroke:none" transform="matrix(1.33333 0 0 -1.33333 1082.152 746.052)"/><path d="M0 0c0-27.974-22.677-50.651-50.651-50.651S-101.303-27.974-101.303 0s22.678 50.651 50.652 50.651S0 27.974 0 0" clip-path="url(#k)" style="fill:#ff99f1;fill-opacity:1;fill-rule:nonzero;stroke:none" transform="matrix(1.33333 0 0 -1.33333 1061.297 746.052)"/><path d="M0 0c-.07-20.406-13.05-39.223-32.311-46.195-9.704-3.513-20.41-3.906-30.338-1.08-9.611 2.736-18.205 8.443-24.553 16.148-13.107 15.909-14.647 39.115-3.941 56.687 10.672 17.515 31.771 26.757 51.884 22.599C-19.345 44.042-3.73 27.627-.566 7.547-.173 5.052-.009 2.525 0 0c.007-1.93 3.007-1.934 3 0-.037 10.836-3.398 21.55-9.746 30.353-6.147 8.523-14.737 15.068-24.611 18.678-20.435 7.473-44.141.997-57.966-15.783-6.871-8.339-11.027-18.625-11.836-29.405-.807-10.76 1.811-21.702 7.426-30.917 5.423-8.901 13.536-16.145 23.046-20.428a52.74 52.74 0 0 1 31.893-3.617C-17.703-46.914-.826-29.284 2.379-8.007 2.779-5.353 2.991-2.683 3 0 3.007 1.931.007 1.933 0 0" clip-path="url(#l)" style="fill:#000;fill-opacity:1;fill-rule:nonzero;stroke:none" transform="matrix(1.33333 0 0 -1.33333 1059.297 746.052)"/><path d="M0 0h-243.414c-40.004 0-72.434 32.43-72.434 72.434v36.594H72.434V72.434C72.434 32.43 40.004 0 0 0" clip-path="url(#m)" style="fill:#ff99f1;fill-opacity:1;fill-rule:nonzero;stroke:none" transform="matrix(1.33333 0 0 -1.33333 881.4 1131.777)"/><path d="M0 0h-240.973c-13.495 0-26.502 2.807-38.243 9.685-18.981 11.118-32.134 30.985-34.653 52.878-.69 5.991-.479 12.068-.479 18.088v26.877l-1.5-1.5H56.673c4.971 0 10.142-.412 15.101 0 .217.018.442 0 .66 0l-1.5 1.5c0-12.176.033-24.351 0-36.527-.064-23.786-12.148-46.389-32.094-59.435C27.296 4.016 13.781.051 0 0c-1.93-.007-1.934-3.007 0-3 24.847.092 48.344 12.765 61.959 33.581 6.813 10.417 10.852 22.517 11.775 34.923.495 6.652.2 13.414.2 20.077v21.947c0 .811-.687 1.5-1.5 1.5h-372.521c-5.03 0-10.071.093-15.101 0-.22-.004-.44 0-.66 0-.811 0-1.5-.687-1.5-1.5V71.931c0-20.103 7.635-39.453 22.015-53.634C-281.473 4.63-262.637-2.954-243.205-3c5.049-.012 10.098 0 15.147 0H-18.5c5.906 0 11.819-.08 17.725 0 .258.003.517 0 .775 0 1.93 0 1.934 3 0 3" clip-path="url(#n)" style="fill:#000;fill-opacity:1;fill-rule:nonzero;stroke:none" transform="matrix(1.33333 0 0 -1.33333 881.4 1129.777)"/><path d="M4.897 0q-.843 0-.843-.844v-43.383q0-.843.843-.843h23.579q.843 0 .843.843v7.301q0 .844-.843.844h-13.16v9.61h12q.854 0 .855.843v6.188q-.001.843-.856.843h-12v9.575h13.16q.844 0 .844.843v7.336q0 .844-.843.844zm32.297 0q-.843 0-.843-.844v-5.484q0-.772.504-1.008l6.902-4.09v-3.515l-6.902-3.727q-.505-.303-.504-1.043v-10.793q0-.36.117-.598c.076-.164.193-.298.351-.41l7.207-5.273q.374-.28.61-.34.232-.07.469-.07h8.214q.844 0 .844.843v5.309q-.002.576-.082.785-.084.202-.351.328l-6.387 3.457v3.914l6.82 3.387q.585.236.586 1.008v10.383q0 .844-.586 1.36L46.968-.446Q46.427 0 45.608 0Zm32.397 0q-.775.001-1.348-.574l-5.648-5.614a1.87 1.87 0 0 1-.551-1.347V-29.32h-1.418q-.844 0-.844-.844v-6.188q0-.843.844-.843h1.418v-4.23q0-.845.855-.845h8.989q.843 0 .843.844v4.23h3.282q.843 0 .843.844v6.188q0 .844-.843.844H72.73v18.058q-.001.645.41 1.055l3.317 3.34q.34.308.34 1.02v5.003q0 .844-.855.844zm0 0" aria-label="Est" style="fill:#f6efdf;fill-opacity:1;fill-rule:nonzero;stroke:none" transform="translate(391.31 776.441)scale(1.33333)"/><path d="M0 0q.845 0 .846.846v7.337q0 .845-.846.845h-13.153v9.57h12.004q.845 0 .845.844v6.189q0 .845-.845.845h-12.004v9.603H0q.845 0 .846.846v7.304q0 .843-.846.844h-23.567q-.847 0-.846-.844V.846q0-.847.846-.846Z" clip-path="url(#o)" style="fill:none;stroke:#000;stroke-width:3;stroke-linecap:butt;stroke-linejoin:miter;stroke-miterlimit:10;stroke-dasharray:none;stroke-opacity:1" transform="matrix(1.33333 0 0 -1.33333 429.27 776.441)"/><path d="M0 0q.81 0 1.353.439l7.202 5.986q.575.507.575 1.352v10.381q0 .778-.575 1.014l-6.83 3.382v3.922l6.39 3.449q.27.135.356.339.083.201.084.777v5.309q0 .845-.846.845H-.507q-.237 0-.473-.068-.239-.067-.609-.338l-7.203-5.274a1.1 1.1 0 0 1-.354-.407q-.12-.237-.119-.608V19.713q0-.744.507-1.048l6.899-3.72v-3.516l-6.899-4.091q-.507-.237-.507-1.015V.846q0-.847.845-.846Z" clip-path="url(#p)" style="fill:none;stroke:#000;stroke-width:3;stroke-linecap:butt;stroke-linejoin:miter;stroke-miterlimit:10;stroke-dasharray:none;stroke-opacity:1" transform="matrix(1.33333 0 0 -1.33333 452.175 776.441)"/><path d="M0 0q.845 0 .846.846V5.85q-.001.71-.338 1.014l-3.315 3.348q-.405.405-.405 1.048v18.056h3.28q.845 0 .845.846v6.188q0 .845-.845.845h-3.28v4.227q0 .845-.846.845h-8.994q-.845 0-.845-.845v-4.227h-1.42q-.846 0-.845-.845v-6.188q0-.846.845-.846h1.42V7.54q0-.778.541-1.353L-7.709.575Q-7.134 0-6.356 0Z" clip-path="url(#q)" style="fill:none;stroke:#000;stroke-width:3;stroke-linecap:butt;stroke-linejoin:miter;stroke-miterlimit:10;stroke-dasharray:none;stroke-opacity:1" transform="matrix(1.33333 0 0 -1.33333 492.615 776.441)"/><path d="M3.316 0q-.843 0-.843-.844l-.035-10.992c0-.226.04-.41.128-.55q.14-.22.375-.528l10.688-13.02V-32.8L2.94-36.926q-.503-.162-.503-1.02v-6.28q0-.844.843-.844h8.555q.466 0 .738.14.268.132.61.293l11.168 4.91q.432.167.503.47.07.306.07.878v14.602q-.001.342-.152.492a5 5 0 0 0-.421.527L13.758-9.879v1.36h12.105q.855 0 .856.843v6.832Q26.718 0 25.863 0zm32.122 0q-1.924.001-2.625-.797-.693-.795-.692-2.309V-41.93q-.001-1.52.692-2.308.7-.796 2.625-.797l23.226-.106q1.969.001 2.637.797.678.788.68 2.309v38.93q-.002 1.512-.68 2.308-.668.798-2.637.797zm7.945-8.45h7.336v-28.24h-7.336zm0 0" aria-label="20" style="fill:#f6efdf;fill-opacity:1;fill-rule:nonzero;stroke:none" transform="translate(949.977 776.441)scale(1.33333)"/><path d="M0 0q.845 0 .846.846v6.83q0 .845-.846.845h-12.105v1.353l10.584 12.883q.27.372.422.523.153.152.153.491v14.608q0 .575-.069.879-.068.304-.506.473l-11.159 4.903-.608.304q-.271.135-.744.135h-8.555q-.846 0-.846-.844v-6.291q0-.845.507-1.013l10.686-4.126v-6.864l-10.686-13.018a6 6 0 0 1-.371-.524 1.04 1.04 0 0 1-.136-.558l.035-10.989q0-.847.844-.846Z" clip-path="url(#r)" style="fill:none;stroke:#000;stroke-width:3;stroke-linecap:butt;stroke-linejoin:miter;stroke-miterlimit:10;stroke-dasharray:none;stroke-opacity:1" transform="matrix(1.33333 0 0 -1.33333 984.466 776.441)"/><path d="M0 0q1.96 0 2.638.795.675.794.675 2.316V42.03q0 1.521-.675 2.317-.678.794-2.638.795l-23.23-.102q-1.928 0-2.621-.795t-.693-2.316V3.111q0-1.522.693-2.316Q-25.158 0-23.23 0Zm-15.284 36.688h7.338V8.454h-7.338z" clip-path="url(#s)" style="fill:none;stroke:#000;stroke-width:3;stroke-linecap:butt;stroke-linejoin:miter;stroke-miterlimit:10;stroke-dasharray:none;stroke-opacity:1" transform="matrix(1.33333 0 0 -1.33333 1028.198 776.441)"/><path d="M5.261-.001q-.879 0-.879-.879v-45q0-.879.88-.879h21.116q.81 0 1.407.563l7.02 7.008q.549.597.55 1.406v7.37q0 .353-.14.563a4 4 0 0 1-.41.48l-5.509 4.923-.527 1.289.527.949 5.508 4.91q.27.283.41.48.141.19.141.575v7.23q-.001.845-.55 1.395l-7.02 7.02q-.599.597-1.407.597zm13.957-7.898q2.918.002 3.985-1.149 1.077-1.16 1.078-4.394 0-3.256-1.078-4.407-1.068-1.16-3.985-1.16-2.873 0-3.949 1.16-1.067 1.151-1.066 4.407-.001 3.234 1.066 4.394 1.076 1.15 3.95 1.149m0-19.887q2.918.002 3.985-1.149 1.077-1.16 1.078-4.394 0-3.223-1.078-4.383-1.068-1.16-3.985-1.16-2.873 0-3.949 1.16-1.067 1.161-1.066 4.383-.001 3.234 1.066 4.394 1.076 1.15 3.95 1.149M44.798-.001q-.88 0-.88-.879v-45q0-.879.88-.879h24.456q.868 0 .868.88v7.57q0 .878-.868.878H55.602v9.961h12.457q.879 0 .879.88v6.421q0 .879-.879.879H55.602v9.926h13.652q.868 0 .868.879V-.88q0 .879-.868.879zm33.533 0q-.88 0-.88-.879v-6.598q0-.455.048-.726.057-.282.41-.457l9.199-4.219v-6.234l-9.059-5.614q-.597-.35-.597-1.054v-12.88q0-.56.07-.82.07-.268.527-.585l9.235-6.235q.35-.21.644-.328.292-.128.75-.129h9.48q.868 0 .868.88v5.952q0 .773-.516 1.055l-9.199 3.797v6.48l9.2 5.262q.514.246.515 1.125V-6.95q0 .281-.094.597a.7.7 0 0 1-.351.457L87.565-.423q-.211.106-.516.27a1.2 1.2 0 0 1-.574.152Zm35.926 0q-.879 0-.879-.879v-36.55h-6.14q-.88 0-.88-.88v-7.57q0-.879.88-.879h23.965q.866 0 .867.88v7.57q0 .878-.867.878h-6.141V-.88q0 .879-.879.879zm26.025 0q-.88 0-.88-.879v-6.598q0-.455.048-.726.057-.282.41-.457l9.2-4.219v-6.234L140-24.728q-.597-.35-.597-1.054v-12.88q0-.56.07-.82.07-.268.527-.585l9.235-6.235q.35-.21.644-.328.292-.128.75-.129h9.48q.867 0 .868.88v5.952q0 .773-.516 1.055l-9.199 3.797v6.48l9.2 5.262q.514.246.515 1.125V-6.95q0 .281-.094.597a.7.7 0 0 1-.351.457L149.516-.423q-.211.106-.515.27a1.2 1.2 0 0 1-.575.152zm28.907 0q-.879 0-.879-.879v-45q0-.879.879-.879h24.457q.866 0 .867.88v7.57q0 .878-.867.878h-13.652v9.961h12.457q.879 0 .879.88v6.421q0 .879-.88.879h-12.456v9.926h13.652q.866 0 .867.879V-.88q0 .879-.867.879zm34.588 0q-.88 0-.88-.879v-45q0-.879.88-.879h9.926q.879 0 .879.88v36.515h8.835q.88 0 .88.879V-.88q0 .879-.88.879zm27.012 0q-.88 0-.88-.879v-45q0-.879.88-.879h9.925q.88 0 .88.88v36.515h8.835q.88 0 .88.879V-.88q0 .879-.88.879zm27.011 0q-.879 0-.879-.879v-45q0-.879.88-.879h24.456q.866 0 .867.88v7.57q0 .878-.867.878h-13.652v9.961h12.457q.879 0 .879.88v6.421q0 .879-.879.879h-12.457v9.926h13.652q.866 0 .867.879V-.88q0 .879-.867.879zm34.588 0q-.879 0-.879-.879v-45q0-.879.88-.879h19.019q.831 0 1.394.457l8.074 7.992q.386.352.47.598.091.246.093.809v9.609q0 .457-.352.809l-3.867 3.75-3.258 2.812 3.856 5.121 3.972 8.485q.14.317.223.62.093.294.094.716V-.88q0 .879-.88.879h-9.269q-.763 0-1.043-.703l-5.648-16.418h-2.637V-.88q0 .879-.879.879zm14.098-25.71q2.918 0 3.972-1.208 1.055-1.216 1.055-4.547 0-3.374-1.055-4.582-1.054-1.206-3.972-1.207-2.873.001-3.961 1.207-1.09 1.208-1.09 4.582 0 3.33 1.09 4.547 1.088 1.208 3.96 1.207m0 0" aria-label="BESTSELLER" style="fill:#f6efdf;fill-opacity:1;fill-rule:nonzero;stroke:none" transform="translate(503.079 1087.818)scale(1.33333)"/><path d="M0 0q.807 0 1.403.597l7.016 7.015q.561.561.561 1.404v7.226q0 .385-.14.578a4.4 4.4 0 0 1-.421.474l-5.508 4.911-.525.947.525 1.298 5.508 4.911q.28.282.421.492t.14.561v7.366q0 .807-.561 1.404L1.403 46.2A2 2 0 0 1 0 46.761h-21.118q-.877 0-.877-.877V.877q0-.877.877-.877Zm-11.103 9.051q-1.07 1.156-1.07 4.385 0 3.262 1.07 4.419 1.07 1.158 3.947 1.158 2.91 0 3.981-1.158t1.071-4.419q0-3.229-1.071-4.385-1.071-1.159-3.981-1.158-2.877 0-3.947 1.158zm0 19.889q-1.07 1.159-1.07 4.385t1.07 4.386q1.07 1.157 3.947 1.157 2.91 0 3.981-1.157 1.07-1.159 1.071-4.386 0-3.226-1.071-4.385-1.071-1.157-3.981-1.157-2.877 0-3.947 1.157z" clip-path="url(#t)" style="fill:none;stroke:#000;stroke-width:3;stroke-linecap:butt;stroke-linejoin:miter;stroke-miterlimit:10;stroke-dasharray:none;stroke-opacity:1" transform="matrix(1.33333 0 0 -1.33333 538.252 1087.818)"/><path d="M0 0q.877 0 .877.877v7.612q0 .877-.877.877h-13.646v9.928h12.454q.877 0 .877.877v6.42q0 .877-.877.877h-12.454v9.962H0q.877 0 .877.877v7.577q0 .877-.877.877h-24.45q-.877 0-.877-.877V.877q0-.877.877-.877Z" clip-path="url(#u)" style="fill:none;stroke:#000;stroke-width:3;stroke-linecap:butt;stroke-linejoin:miter;stroke-miterlimit:10;stroke-dasharray:none;stroke-opacity:1" transform="matrix(1.33333 0 0 -1.33333 595.455 1087.818)"/><path d="M0 0q.28 0 .578.158.299.158.509.263l11.016 5.473a.7.7 0 0 1 .368.456q.087.315.088.595v15.26q0 .877-.527 1.123L2.841 28.59v6.49l9.191 3.788q.527.28.527 1.053v5.963q0 .877-.877.877H2.21q-.457 0-.754-.122a5 5 0 0 1-.649-.334l-9.226-6.244q-.457-.316-.526-.579-.07-.264-.071-.824V25.783q0-.702.597-1.052l9.05-5.613v-6.244L-8.56 8.665q-.35-.176-.403-.456a4 4 0 0 1-.053-.737V.877q0-.877.877-.877Z" clip-path="url(#v)" style="fill:none;stroke:#000;stroke-width:3;stroke-linecap:butt;stroke-linejoin:miter;stroke-miterlimit:10;stroke-dasharray:none;stroke-opacity:1" transform="matrix(1.33333 0 0 -1.33333 618.468 1087.818)"/><path d="M0 0q.877 0 .877.877V37.43h6.139q.876 0 .877.877v7.577q0 .877-.877.877h-23.959q-.877 0-.877-.877v-7.577q0-.877.877-.877h6.138V.877q0-.877.877-.877Z" clip-path="url(#w)" style="fill:none;stroke:#000;stroke-width:3;stroke-linecap:butt;stroke-linejoin:miter;stroke-miterlimit:10;stroke-dasharray:none;stroke-opacity:1" transform="matrix(1.33333 0 0 -1.33333 668.795 1087.818)"/><path d="M0 0q.28 0 .578.158.299.158.509.263l11.016 5.473a.7.7 0 0 1 .368.456q.087.315.088.595v15.26q0 .877-.527 1.123L2.841 28.59v6.49l9.191 3.788q.527.28.527 1.053v5.963q0 .877-.877.877H2.21q-.457 0-.754-.122a5 5 0 0 1-.649-.334l-9.226-6.244q-.457-.316-.526-.579-.07-.264-.071-.824V25.783q0-.702.597-1.052l9.05-5.613v-6.244L-8.56 8.665q-.35-.176-.403-.456a4 4 0 0 1-.053-.737V.877q0-.877.877-.877Z" clip-path="url(#x)" style="fill:none;stroke:#000;stroke-width:3;stroke-linecap:butt;stroke-linejoin:miter;stroke-miterlimit:10;stroke-dasharray:none;stroke-opacity:1" transform="matrix(1.33333 0 0 -1.33333 701.16 1087.818)"/><path d="M0 0q.877 0 .877.877v7.612q0 .877-.877.877h-13.646v9.928h12.454q.877 0 .877.877v6.42q0 .877-.877.877h-12.454v9.962H0q.877 0 .877.877v7.577q0 .877-.877.877h-24.45q-.877 0-.877-.877V.877q0-.877.877-.877Z" clip-path="url(#y)" style="fill:none;stroke:#000;stroke-width:3;stroke-linecap:butt;stroke-linejoin:miter;stroke-miterlimit:10;stroke-dasharray:none;stroke-opacity:1" transform="matrix(1.33333 0 0 -1.33333 761.497 1087.818)"/><path d="M0 0q.877 0 .877.877v7.612q0 .877-.877.877h-8.841v36.518q0 .877-.877.877h-9.927q-.876 0-.876-.877V.877q0-.877.876-.877Z" clip-path="url(#z)" style="fill:none;stroke:#000;stroke-width:3;stroke-linecap:butt;stroke-linejoin:miter;stroke-miterlimit:10;stroke-dasharray:none;stroke-opacity:1" transform="matrix(1.33333 0 0 -1.33333 801.255 1087.818)"/><path d="M0 0q.877 0 .877.877v7.612q0 .877-.877.877h-8.841v36.518q0 .877-.877.877h-9.927q-.876 0-.876-.877V.877q0-.877.876-.877Z" clip-path="url(#A)" style="fill:none;stroke:#000;stroke-width:3;stroke-linecap:butt;stroke-linejoin:miter;stroke-miterlimit:10;stroke-dasharray:none;stroke-opacity:1" transform="matrix(1.33333 0 0 -1.33333 837.269 1087.818)"/><path d="M0 0q.877 0 .877.877v7.612q0 .877-.877.877h-13.646v9.928h12.454q.877 0 .877.877v6.42q0 .877-.877.877h-12.454v9.962H0q.877 0 .877.877v7.577q0 .877-.877.877h-24.45q-.877 0-.877-.877V.877q0-.877.877-.877Z" clip-path="url(#B)" style="fill:none;stroke:#000;stroke-width:3;stroke-linecap:butt;stroke-linejoin:miter;stroke-miterlimit:10;stroke-dasharray:none;stroke-opacity:1" transform="matrix(1.33333 0 0 -1.33333 879.69 1087.818)"/><path d="M0 0q.877 0 .877.877v16.242h2.631L9.155.701Q9.436 0 10.208 0h9.261q.877 0 .877.877v4.104q0 .422-.088.719a5 5 0 0 1-.228.614l-3.964 8.49-3.859 5.121 3.263 2.806 3.858 3.754q.352.35.352.807v9.611q-.001.561-.088.808-.088.245-.474.596l-8.068 7.998q-.561.455-1.404.456H-9.366q-.877 0-.877-.877V.877q0-.877.877-.877Zm.771 26.924q-1.087 1.209-1.087 4.543 0 3.367 1.087 4.577 1.087 1.212 3.964 1.211 2.913 0 3.964-1.211 1.053-1.21 1.053-4.577 0-3.334-1.053-4.543-1.051-1.21-3.964-1.211-2.877 0-3.964 1.211z" clip-path="url(#C)" style="fill:none;stroke:#000;stroke-width:3;stroke-linecap:butt;stroke-linejoin:miter;stroke-miterlimit:10;stroke-dasharray:none;stroke-opacity:1" transform="matrix(1.33333 0 0 -1.33333 905.744 1087.818)"/><path d="M0 0a6.87 6.87 0 0 0-6.869 6.868V113.1a6.868 6.868 0 1 0 13.737 0V6.868A6.87 6.87 0 0 0 0 0" clip-path="url(#D)" style="fill:#f6efdf;fill-opacity:1;fill-rule:nonzero;stroke:none" transform="matrix(1.33333 0 0 -1.33333 686.18 742.388)"/><path d="M0 0c-2.995 0-5.312 2.458-5.369 5.396-.007.391 0 .782 0 1.173v102.639c0 1.91-.189 3.849.993 5.507 2.109 2.962 6.642 2.963 8.752 0 .752-1.055.988-2.257.992-3.519.006-1.821 0-3.642 0-5.463V18.641c0-4.412.085-8.833 0-13.245C5.311 2.404 2.993.073 0 0c-1.927-.047-1.934-3.047 0-3 4.006.098 7.587 2.918 8.24 6.955.117.72.128 1.42.128 2.142v103.859c0 .51.008 1.022 0 1.533-.041 2.684-1.192 5.163-3.351 6.795-3.166 2.392-7.613 2.148-10.584-.439-1.853-1.615-2.769-3.976-2.802-6.396-.021-1.629 0-3.259 0-4.888v-98.2c0-1.652-.145-3.444.258-5.058C-7.199-.356-3.759-3 0-3c1.93 0 1.934 3 0 3" clip-path="url(#E)" style="fill:#000;fill-opacity:1;fill-rule:nonzero;stroke:none" transform="matrix(1.33333 0 0 -1.33333 686.18 740.388)"/><path d="M0 0a6.868 6.868 0 1 0 0 13.737A6.868 6.868 0 0 0 0 0" clip-path="url(#F)" style="fill:#f6efdf;fill-opacity:1;fill-rule:nonzero;stroke:none" transform="matrix(1.33333 0 0 -1.33333 686.18 770.955)"/><path d="M0 0c-2.176 0-4.229 1.38-4.999 3.39-.836 2.178-.211 4.561 1.529 6.08 1.636 1.429 4.171 1.665 6.076.594C4.544 8.973 5.68 6.713 5.313 4.543 4.865 1.896 2.631.036 0 0c-1.929-.026-1.934-3.027 0-3a8.5 8.5 0 0 1 7.923 5.678c1.135 3.209.043 7.014-2.606 9.143-2.74 2.201-6.641 2.559-9.669.696C-7.37 10.66-8.86 7.111-8.189 3.654-7.446-.175-3.866-3 0-3c1.93 0 1.934 3 0 3" clip-path="url(#G)" style="fill:#000;fill-opacity:1;fill-rule:nonzero;stroke:none" transform="matrix(1.33333 0 0 -1.33333 686.18 768.955)"/><path d="M0 0h-179.023c-21.865 0-39.59 17.725-39.59 39.59v401.708c0 21.865 17.725 39.591 39.59 39.591H0c21.865 0 39.59-17.726 39.59-39.591V39.59C39.59 17.725 21.865 0 0 0" clip-path="url(#H)" style="fill:#fdab23;fill-opacity:1;fill-rule:nonzero;stroke:none" transform="matrix(1.33333 0 0 -1.33333 839.58 968.87)"/><path d="M0 0h-170.878c-8.628 0-16.921-.09-24.961 3.899-13.342 6.62-21.254 20.211-21.274 34.963-.005 3.761 0 7.523 0 11.285v387.559c0 10.559 3.072 20.567 10.5 28.354 7.208 7.557 17.18 11.752 27.597 11.829 1.397.01 2.795 0 4.192 0h115.292c19.598 0 39.195.029 58.793 0 17.289-.026 32.898-11.167 37.497-28.068 1.354-4.974 1.332-9.89 1.332-14.951V64.972c0-8.957.064-17.917 0-26.875C37.941 17.203 20.883.174 0 0c-1.93-.016-1.934-3.016 0-3 21.404.179 39.565 16.956 41.001 38.407.205 3.068.089 6.179.089 9.25v391.002c0 6.353-.324 12.559-2.63 18.618-6.177 16.228-21.833 26.582-39.066 26.612-6.546.011-13.093 0-19.639 0h-155.194c-1.642 0-3.289.032-4.931-.023-10.264-.343-20.166-4.587-27.485-11.792-8.402-8.27-12.258-19.303-12.258-30.926V71.402c0-10.958-.026-21.917 0-32.876.038-15.824 8.932-30.637 23.33-37.494C-188.53-2.899-180.123-3-171.304-3H0c1.93 0 1.934 3 0 3" clip-path="url(#I)" style="fill:#000;fill-opacity:1;fill-rule:nonzero;stroke:none" transform="matrix(1.33333 0 0 -1.33333 839.58 966.87)"/><path d="M0 0h-210.012a7.81 7.81 0 0 0-7.808 7.808v390.079a7.81 7.81 0 0 0 7.808 7.808H0a7.81 7.81 0 0 0 7.808-7.808V7.808A7.81 7.81 0 0 0 0 0" clip-path="url(#J)" style="fill:#ff99f1;fill-opacity:1;fill-rule:nonzero;stroke:none" transform="matrix(1.33333 0 0 -1.33333 860.24 926.088)"/><path d="M0 0h-197.264c-4.226 0-8.48-.145-12.704 0-3.895.133-6.33 3.134-6.352 6.858-.007 1.162 0 2.325 0 3.487v374.87c0 3.485-.016 6.97 0 10.455.016 3.735 2.316 6.877 6.312 7.025 1.07.039 2.149 0 3.22 0H-3.563c1.177 0 2.364.042 3.542 0 3.935-.142 6.308-3.204 6.329-6.929.019-3.395 0-6.791 0-10.185V10.577C6.308 5.981 6.525.229 0 0c-1.925-.068-1.934-3.068 0-3 5.399.19 9.258 4.361 9.308 9.698.01 1.082 0 2.164 0 3.246v376.492c0 3.191.03 6.384 0 9.575-.051 5.316-3.919 9.517-9.309 9.684-1.036.032-2.078 0-3.114 0h-204.047c-1.309 0-2.652.075-3.955-.078-4.969-.585-8.164-4.864-8.203-9.681-.027-3.284 0-6.569 0-9.852V9.772c0-1.048-.012-2.096 0-3.144.056-5.292 3.962-9.474 9.314-9.628 4.036-.116 8.092 0 12.128 0H0c1.93 0 1.934 3 0 3" clip-path="url(#K)" style="fill:#000;fill-opacity:1;fill-rule:nonzero;stroke:none" transform="matrix(1.33333 0 0 -1.33333 860.24 924.088)"/><path d="M0 0h-91.359a7.265 7.265 0 0 0 0 14.53H0A7.265 7.265 0 1 0 0 0" clip-path="url(#L)" style="fill:#f6efdf;fill-opacity:1;fill-rule:nonzero;stroke:none" transform="matrix(1.33333 0 0 -1.33333 781.137 368.12)"/><path d="M0 0h-86.827c-1.443 0-2.887-.01-4.331 0-1.674.012-3.215.578-4.389 1.802-2.136 2.229-2.061 5.868.113 8.039 1.666 1.663 3.681 1.689 5.816 1.689H-.763c.311 0 .623.006.934-.004 3.084-.095 5.588-2.675 5.594-5.761C5.772 2.565 3.141.073 0 0c-1.927-.045-1.934-3.045 0-3 3.554.082 6.748 2.147 8.109 5.464 1.304 3.178.574 6.906-1.8 9.385-2.11 2.205-4.858 2.681-7.727 2.681h-75.431c-4.769 0-9.54.034-14.309 0-5.566-.039-9.836-4.964-8.789-10.506C-99.109-.406-95.079-3-90.785-3H0c1.93 0 1.934 3 0 3" clip-path="url(#M)" style="fill:#000;fill-opacity:1;fill-rule:nonzero;stroke:none" transform="matrix(1.33333 0 0 -1.33333 781.137 366.12)"/><path d="M670.627 709.893h-260.61v82.033h260.61z" clip-path="url(#N)" style="fill:#ff5b35;fill-opacity:1;fill-rule:nonzero;stroke:none" transform="matrix(1.33333 0 0 -1.33333 0 1440)"/><path d="M0 0h-250.044c-3.351 0-6.778.21-10.123 0-.147-.009-.296 0-.443 0l1.5-1.5v82.033l-1.5-1.5h250.045c3.35 0 6.777-.209 10.122 0 .147.01.296 0 .443 0l-1.5 1.5V-1.5c0-1.93 3-1.934 3 0v82.033c0 .811-.687 1.5-1.5 1.5h-250.044c-3.372 0-6.752.065-10.123 0q-.221-.002-.443 0c-.811 0-1.5-.687-1.5-1.5V-1.5c0-.811.687-1.5 1.5-1.5h250.045c3.372 0 6.751-.064 10.122 0 .148.003.296 0 .443 0 1.93 0 1.934 3 0 3" clip-path="url(#O)" style="fill:#000;fill-opacity:1;fill-rule:nonzero;stroke:none" transform="matrix(1.33333 0 0 -1.33333 894.169 491.476)"/><path d="M643.962 709.893h-43.119v82.033h43.119z" clip-path="url(#P)" style="fill:#f6efdf;fill-opacity:1;fill-rule:nonzero;stroke:none" transform="matrix(1.33333 0 0 -1.33333 0 1440)"/><path d="M0 0h-43.119l1.5-1.5v82.033l-1.5-1.5H0l-1.5 1.5V-1.5c0-1.93 3-1.934 3 0v82.033c0 .811-.687 1.5-1.5 1.5h-43.119c-.811 0-1.5-.687-1.5-1.5V-1.5c0-.811.687-1.5 1.5-1.5H0c1.93 0 1.934 3 0 3" clip-path="url(#Q)" style="fill:#000;fill-opacity:1;fill-rule:nonzero;stroke:none" transform="matrix(1.33333 0 0 -1.33333 858.617 491.476)"/><path d="M560.187 709.893h-43.119v82.033h43.119z" clip-path="url(#R)" style="fill:#f6efdf;fill-opacity:1;fill-rule:nonzero;stroke:none" transform="matrix(1.33333 0 0 -1.33333 0 1440)"/><path d="M0 0h-43.119l1.5-1.5v82.033l-1.5-1.5H0l-1.5 1.5V-1.5c0-1.93 3-1.934 3 0v82.033c0 .811-.687 1.5-1.5 1.5h-43.119c-.811 0-1.5-.687-1.5-1.5V-1.5c0-.811.687-1.5 1.5-1.5H0c1.93 0 1.934 3 0 3" clip-path="url(#S)" style="fill:#000;fill-opacity:1;fill-rule:nonzero;stroke:none" transform="matrix(1.33333 0 0 -1.33333 746.917 491.476)"/><path d="M476.412 709.893h-43.119v82.033h43.119z" clip-path="url(#T)" style="fill:#f6efdf;fill-opacity:1;fill-rule:nonzero;stroke:none" transform="matrix(1.33333 0 0 -1.33333 0 1440)"/><path d="M0 0h-43.119l1.5-1.5v82.033l-1.5-1.5H0l-1.5 1.5V-1.5c0-1.93 3-1.934 3 0v82.033c0 .811-.687 1.5-1.5 1.5h-43.119c-.811 0-1.5-.687-1.5-1.5V-1.5c0-.811.687-1.5 1.5-1.5H0c1.93 0 1.934 3 0 3" clip-path="url(#U)" style="fill:#000;fill-opacity:1;fill-rule:nonzero;stroke:none" transform="matrix(1.33333 0 0 -1.33333 635.217 491.476)"/><path d="M0 0c0-14.398-14.613-26.069-32.64-26.069S-65.28-14.398-65.28 0z" clip-path="url(#V)" style="fill:#f6efdf;fill-opacity:1;fill-rule:nonzero;stroke:none" transform="matrix(1.33333 0 0 -1.33333 633.73 493.476)"/><path d="M0 0c-.084-11.569-9.871-19.976-20.284-23.031-11.712-3.436-25.799-1.244-34.823 7.357-4.331 4.128-7.129 9.63-7.173 15.674l-1.5-1.5H1.5c1.93 0 1.934 3 0 3h-65.28c-.807 0-1.506-.687-1.5-1.5.094-12.867 10.674-22.393 22.314-25.873 12.824-3.834 28.214-1.273 38.03 8.188C-.108-13.032 2.951-6.757 3 0 3.014 1.931.014 1.933 0 0" clip-path="url(#W)" style="fill:#000;fill-opacity:1;fill-rule:nonzero;stroke:none" transform="matrix(1.33333 0 0 -1.33333 631.73 493.476)"/><path d="M0 0c0-14.398-14.614-26.069-32.64-26.069-18.027 0-32.64 11.671-32.64 26.069z" clip-path="url(#X)" style="fill:#ff5b35;fill-opacity:1;fill-rule:nonzero;stroke:none" transform="matrix(1.33333 0 0 -1.33333 720.543 493.476)"/><path d="M0 0c-.084-11.569-9.871-19.976-20.284-23.031-11.712-3.436-25.799-1.244-34.823 7.357-4.331 4.128-7.129 9.63-7.173 15.674l-1.5-1.5H1.5c1.93 0 1.934 3 0 3h-65.28c-.807 0-1.506-.687-1.5-1.5.094-12.867 10.674-22.393 22.314-25.873 12.824-3.834 28.214-1.273 38.03 8.188C-.108-13.032 2.951-6.757 3 0 3.014 1.931.014 1.933 0 0" clip-path="url(#Y)" style="fill:#000;fill-opacity:1;fill-rule:nonzero;stroke:none" transform="matrix(1.33333 0 0 -1.33333 718.543 493.476)"/><path d="M0 0c0-14.398-14.614-26.069-32.64-26.069-18.027 0-32.64 11.671-32.64 26.069z" clip-path="url(#Z)" style="fill:#f6efdf;fill-opacity:1;fill-rule:nonzero;stroke:none" transform="matrix(1.33333 0 0 -1.33333 807.356 493.476)"/><path d="M0 0c-.084-11.569-9.871-19.976-20.284-23.031-11.712-3.436-25.799-1.244-34.823 7.357-4.331 4.128-7.129 9.63-7.173 15.674l-1.5-1.5H1.5c1.93 0 1.934 3 0 3h-65.28c-.807 0-1.506-.687-1.5-1.5.094-12.867 10.674-22.393 22.314-25.873 12.824-3.834 28.214-1.273 38.03 8.188C-.109-13.032 2.951-6.757 3 0 3.014 1.931.014 1.933 0 0" clip-path="url(#aa)" style="fill:#000;fill-opacity:1;fill-rule:nonzero;stroke:none" transform="matrix(1.33333 0 0 -1.33333 805.356 493.476)"/><path d="M0 0c0-14.398-14.614-26.069-32.64-26.069-18.027 0-32.64 11.671-32.64 26.069z" clip-path="url(#ab)" style="fill:#ff5b35;fill-opacity:1;fill-rule:nonzero;stroke:none" transform="matrix(1.33333 0 0 -1.33333 894.169 493.476)"/><path d="M0 0c-.084-11.569-9.871-19.976-20.284-23.031-11.712-3.436-25.799-1.244-34.823 7.357-4.331 4.128-7.129 9.63-7.173 15.674l-1.5-1.5H1.5c1.93 0 1.934 3 0 3h-65.28c-.807 0-1.506-.687-1.5-1.5.094-12.867 10.674-22.393 22.314-25.873 12.824-3.834 28.214-1.273 38.03 8.188C-.108-13.032 2.951-6.757 3 0 3.014 1.931.014 1.933 0 0" clip-path="url(#ac)" style="fill:#000;fill-opacity:1;fill-rule:nonzero;stroke:none" transform="matrix(1.33333 0 0 -1.33333 892.169 493.476)"/><path d="M0 0c0-5.696-4.618-10.314-10.314-10.314-5.697 0-10.314 4.618-10.314 10.314s4.617 10.314 10.314 10.314C-4.618 10.314 0 5.696 0 0" clip-path="url(#ad)" style="fill:#f6efdf;fill-opacity:1;fill-rule:nonzero;stroke:none" transform="matrix(1.33333 0 0 -1.33333 734.783 947.627)"/><path d="M0 0c-.05-3.649-2.296-7.026-5.772-8.279-3.53-1.272-7.537-.174-9.908 2.74-2.308 2.836-2.567 6.939-.699 10.065 1.85 3.097 5.576 4.837 9.142 4.153C-3.051 7.876-.058 4.245 0 0c.026-1.929 3.027-1.934 3 0-.068 4.936-3.097 9.319-7.717 11.077-4.592 1.746-10.062.279-13.169-3.521-3.13-3.828-3.64-9.318-1.084-13.596 2.551-4.269 7.532-6.431 12.393-5.556C-1.03-10.598 2.924-5.546 3 0 3.026 1.931.026 1.932 0 0" clip-path="url(#ae)" style="fill:#000;fill-opacity:1;fill-rule:nonzero;stroke:none" transform="matrix(1.33333 0 0 -1.33333 732.783 947.627)"/><path d="M0 0c-13.227 0-23.95 10.723-23.95 23.95v52.193c0 13.228 10.723 23.951 23.95 23.951s23.95-10.723 23.95-23.951V23.95C23.95 10.723 13.227 0 0 0" clip-path="url(#af)" style="fill:#f6efdf;fill-opacity:1;fill-rule:nonzero;stroke:none" transform="matrix(1.33333 0 0 -1.33333 681.05 704.737)"/><path d="M0 0c-11.597 0-21.648 9.263-22.399 20.883-.295 4.556-.051 9.192-.051 13.753v24.823c0 5.02-.021 10.039 0 15.058.045 10.732 7.651 20.118 18.229 22.185 11.379 2.223 22.885-5.039 25.898-16.198 1.319-4.885.773-10.449.773-15.461V23.151c0-3.601-.603-7.127-2.188-10.392C17.83 7.75 13.577 3.679 8.388 1.61 5.71.543 2.878.021 0 0c-1.93-.014-1.934-3.014 0-3 12.366.089 23.345 9.265 25.151 21.604.318 2.175.299 4.329.299 6.515v35.023c0 4.833.029 9.667 0 14.5-.072 12.221-9.087 23.174-21.267 25.101-12.231 1.935-24.325-5.234-28.316-17.004-1.848-5.45-1.317-11.53-1.317-17.205V40.083c0-5.769-.009-11.539 0-17.309.015-10.816 6.667-20.581 16.885-24.291C-5.837-2.508-2.901-3 0-3c1.93 0 1.934 3 0 3" clip-path="url(#ag)" style="fill:#000;fill-opacity:1;fill-rule:nonzero;stroke:none" transform="matrix(1.33333 0 0 -1.33333 681.05 702.737)"/><path d="M0 0c-13.227 0-23.95 10.723-23.95 23.95v52.193c0 13.228 10.723 23.951 23.95 23.951s23.95-10.723 23.95-23.951V23.95C23.95 10.723 13.227 0 0 0" clip-path="url(#ah)" style="fill:#f6efdf;fill-opacity:1;fill-rule:nonzero;stroke:none" transform="matrix(1.33333 0 0 -1.33333 740.593 704.737)"/><path d="M0 0c-11.597 0-21.648 9.263-22.399 20.883-.295 4.556-.051 9.192-.051 13.753v24.823c0 5.02-.021 10.039 0 15.058.045 10.732 7.651 20.118 18.229 22.185 11.379 2.223 22.885-5.039 25.898-16.198 1.319-4.885.773-10.449.773-15.461V23.151c0-3.601-.603-7.127-2.188-10.392C17.83 7.75 13.577 3.679 8.388 1.61 5.71.543 2.878.021 0 0c-1.93-.014-1.934-3.014 0-3 12.366.089 23.345 9.265 25.15 21.604.319 2.175.3 4.329.3 6.515v35.023c0 4.833.029 9.667 0 14.5-.072 12.221-9.088 23.174-21.267 25.101-12.231 1.935-24.325-5.234-28.316-17.004-1.848-5.45-1.317-11.53-1.317-17.205V40.083c0-5.769-.009-11.539 0-17.309.015-10.816 6.667-20.581 16.885-24.291C-5.837-2.508-2.902-3 0-3c1.93 0 1.934 3 0 3" clip-path="url(#ai)" style="fill:#000;fill-opacity:1;fill-rule:nonzero;stroke:none" transform="matrix(1.33333 0 0 -1.33333 740.593 702.737)"/><path d="M0 0c-5.789 0-10.481 4.693-10.481 10.481v22.841c0 5.788 4.692 10.481 10.481 10.481s10.481-4.693 10.481-10.481V10.481C10.481 4.693 5.789 0 0 0" clip-path="url(#aj)" style="fill:#000;fill-opacity:1;fill-rule:nonzero;stroke:none" transform="matrix(1.33333 0 0 -1.33333 722.634 667.206)"/><path d="M0 0c-5.789 0-10.481 4.693-10.481 10.481v22.841c0 5.788 4.692 10.481 10.481 10.481s10.481-4.693 10.481-10.481V10.481C10.481 4.693 5.789 0 0 0" clip-path="url(#ak)" style="fill:#000;fill-opacity:1;fill-rule:nonzero;stroke:none" transform="matrix(1.33333 0 0 -1.33333 664.009 667.206)"/><path d="m0 0 2.353 8.893c.957 3.619 4.698 5.756 8.295 4.718 8.491-2.452 23.148-8.823 32.205-24.734 3.35-5.886-3.326-12.403-9.19-9.016-8.098 4.677-18.374 9.626-28.655 11.913A6.676 6.676 0 0 0 0 0" clip-path="url(#al)" style="fill:#4ccfe5;fill-opacity:1;fill-rule:nonzero;stroke:none" transform="matrix(1.33333 0 0 -1.33333 722.933 568.71)"/><path d="m0 0 1.579 5.967c.596 2.255.929 4.725 3.103 6.051 2.699 1.646 6.008.037 8.669-.974a55.6 55.6 0 0 0 8.558-4.129c7.115-4.207 13.164-10.058 17.459-17.133.998-1.644 1.816-3.254 1.218-5.205-.474-1.547-1.712-2.841-3.222-3.417-1.847-.706-3.468-.129-5.1.802a142 142 0 0 1-6.43 3.457c-5.176 2.611-10.54 4.916-16.078 6.644a75 75 0 0 1-4.455 1.243c-1.171.286-2.326.463-3.326 1.184C.226-4.251-.49-2.066 0 0c.445 1.877-2.447 2.678-2.893.798C-4.03-4.001-1.075-8.265 3.61-9.375c5.889-1.396 11.574-3.482 17.06-6.029a132 132 0 0 0 7.701-3.896c2.145-1.172 4.184-2.653 6.691-2.85 4.122-.323 8.029 2.904 8.639 6.957.353 2.345-.445 4.334-1.635 6.312a53.5 53.5 0 0 1-4.621 6.503c-2.97 3.593-6.442 6.743-10.244 9.436a56.4 56.4 0 0 1-10.151 5.694 64 64 0 0 1-4.729 1.845c-1.596.547-3.265 1.175-4.972 1.173a8.22 8.22 0 0 1-6.309-3.008C.044 11.537-.423 10.133-.818 8.641L-2.893.798C-3.387-1.071-.494-1.868 0 0" clip-path="url(#am)" style="fill:#000;fill-opacity:1;fill-rule:nonzero;stroke:none" transform="matrix(1.33333 0 0 -1.33333 724.862 569.242)"/><path d="m0 0 2.353 8.893c.957 3.619 4.698 5.756 8.295 4.718 8.491-2.452 23.148-8.823 32.205-24.734 3.35-5.886-3.326-12.403-9.19-9.016-8.098 4.677-18.374 9.626-28.655 11.913A6.676 6.676 0 0 0 0 0" clip-path="url(#an)" style="fill:#4ccfe5;fill-opacity:1;fill-rule:nonzero;stroke:none" transform="matrix(1.33333 0 0 -1.33333 654.933 566.481)"/><path d="m0 0 1.579 5.967c.596 2.255.929 4.725 3.103 6.051 2.699 1.646 6.008.037 8.669-.974a55.6 55.6 0 0 0 8.558-4.129c7.115-4.207 13.164-10.058 17.459-17.133.998-1.644 1.816-3.254 1.218-5.205-.474-1.547-1.712-2.841-3.222-3.417-1.847-.706-3.468-.129-5.1.802a142 142 0 0 1-6.43 3.457c-5.176 2.611-10.54 4.916-16.078 6.644a75 75 0 0 1-4.455 1.243c-1.171.286-2.326.463-3.326 1.184C.226-4.251-.49-2.066 0 0c.445 1.877-2.447 2.678-2.893.797C-4.03-4.001-1.075-8.265 3.61-9.375c5.889-1.396 11.574-3.482 17.06-6.029a132 132 0 0 0 7.701-3.896c2.145-1.172 4.184-2.653 6.691-2.85 4.122-.323 8.029 2.904 8.639 6.957.352 2.345-.445 4.334-1.635 6.312a53.5 53.5 0 0 1-4.621 6.503c-2.97 3.593-6.442 6.743-10.244 9.436a56.4 56.4 0 0 1-10.151 5.694 64 64 0 0 1-4.729 1.845c-1.596.547-3.265 1.175-4.972 1.173a8.22 8.22 0 0 1-6.309-3.008C.044 11.537-.423 10.133-.818 8.641L-2.893.797C-3.387-1.071-.494-1.868 0 0" clip-path="url(#ao)" style="fill:#000;fill-opacity:1;fill-rule:nonzero;stroke:none" transform="matrix(1.33333 0 0 -1.33333 656.861 567.013)"/><path d="M0 0c0-7.06-8.08-12.783-18.047-12.783S-36.094-7.06-36.094 0s8.08 12.783 18.047 12.783S0 7.06 0 0" clip-path="url(#ap)" style="fill:#b5bc31;fill-opacity:1;fill-rule:nonzero;stroke:none" transform="matrix(1.33333 0 0 -1.33333 732.722 694.231)"/><path d="M0 0c-.089-5.756-5.818-9.3-10.808-10.579-6.062-1.553-13.511-.725-18.454 3.381-1.91 1.586-3.483 3.742-3.785 6.266-.29 2.427.644 4.817 2.237 6.628 4.188 4.758 11.371 6.198 17.422 5.392C-7.626 10.321-.104 6.725 0 0c.03-1.929 3.03-1.934 3 0-.109 7.075-6.548 11.76-12.832 13.424-7.279 1.927-15.992.75-21.791-4.309-2.354-2.054-4.048-4.85-4.401-7.983-.35-3.1.772-6.099 2.708-8.49 4.751-5.871 13.358-7.645 20.51-6.652C-5.539-13.003 2.873-8.241 3 0 3.03 1.931.03 1.932 0 0" clip-path="url(#aq)" style="fill:#000;fill-opacity:1;fill-rule:nonzero;stroke:none" transform="matrix(1.33333 0 0 -1.33333 730.722 694.231)"/><path d="M0 0c0-2.235-2.558-4.047-5.714-4.047-3.155 0-5.713 1.812-5.713 4.047s2.558 4.047 5.713 4.047S0 2.235 0 0" clip-path="url(#ar)" style="fill:#f6efdf;fill-opacity:1;fill-rule:nonzero;stroke:none" transform="matrix(1.33333 0 0 -1.33333 709.344 690.544)"/><path d="M0 0a5 5 0 0 0-.012-.261c.023.317.005.041-.022-.047l-.073-.247c-.06-.216.107.198.003-.002a4 4 0 0 0-.305-.513c.041.058.174.183-.021-.017-.099-.1-.192-.205-.295-.301a4 4 0 0 0-.217-.19c.055.045.196.126-.05-.031-.172-.111-.342-.222-.521-.318-.41-.221-.634-.301-1.161-.435-.845-.215-1.922-.247-2.745-.077a8 8 0 0 0-.66.168c-.092.029-.546.192-.409.135-.193.081-.38.18-.561.284q-.165.096-.324.201c-.066.043-.272.202-.113.073a5 5 0 0 0-.464.44c-.027.028-.209.251-.102.112.104-.137-.058.089-.078.123-.055.092-.265.569-.17.286q-.042.122-.078.247c-.022.082-.062.45-.038.109a4 4 0 0 0 0 .522c-.023-.326.051.127.074.233.058.253.022.076-.01.004q.069.15.152.292.069.113.144.225c.083.128-.127-.118.059.072.15.153.294.303.456.444.183.159-.158-.107.045.035q.154.109.314.208c.463.282.662.361 1.103.497.913.28 1.762.362 2.774.225-.177.024.177-.033.211-.04q.212-.041.42-.094a7 7 0 0 0 .795-.253c-.173.069.069-.032.085-.04a6 6 0 0 0 .677-.376c.006-.004.375-.277.175-.115.185-.15.345-.322.512-.491.037-.038.168-.225.021-.017q.116-.163.214-.338C-.05.473-.006.277 0 0c.043-1.928 3.043-1.934 3 0C2.939 2.729.606 4.623-1.876 5.255c-2.667.678-5.737.194-7.841-1.649-2.003-1.755-2.22-4.618-.534-6.656 1.776-2.145 4.888-2.76 7.522-2.371C.059-5.008 2.931-3.063 3 0 3.043 1.931.043 1.931 0 0" clip-path="url(#as)" style="fill:#000;fill-opacity:1;fill-rule:nonzero;stroke:none" transform="matrix(1.33333 0 0 -1.33333 707.344 690.544)"/><path d="M0 0c13.302 4.447 27.046 8.952 41.029 7.866 3.355-.261 6.776-.878 9.647-2.634 2.87-1.756 5.107-4.843 5.078-8.208S52.91-9.671 49.547-9.58c-1.052.028-2.081.363-3.133.359-3.857-.013-6.113-4.146-8.261-7.349-2.806-4.186-6.885-7.66-11.735-9.027-4.851-1.367-10.473-.381-14.104 3.114-2.015 1.938-3.534 4.653-6.201 5.492-3.091.973-6.232-.989-9.223-2.234s-7.343-1.267-8.515 1.754z" clip-path="url(#at)" style="fill:#000;fill-opacity:1;fill-rule:nonzero;stroke:none" transform="matrix(1.33333 0 0 -1.33333 707.86 747.969)"/><path d="M0 0c4.349 6.496 11.247 10.488 18.191 6.518 1.672-.956 3.234-2.374 5.159-2.434 3.399-.106 5.234 3.761 7.321 6.445 4.137 5.322 12.373 6.901 18.185 3.487 2.223-1.305 4.33-3.299 6.905-3.172 3.34.165 5.328 3.698 8.091 5.581 3.602 2.454 8.697 1.89 12.288-.58s5.839-6.509 7.098-10.682c1.297-4.3 1.629-9.092-.233-13.179s-6.326-7.173-10.754-6.423c-4.303.729-8.737 4.687-12.396 2.307-1.689-1.097-2.376-3.176-3.323-4.953-3.972-7.453-14.785-10.178-21.815-5.499-2.657 1.769-5.188 4.511-8.36 4.157-3.149-.352-5.015-3.547-7.261-5.782-5.21-5.184-14.623-5.242-19.897-.122C-6.687-18.617-5.086-7.597 0 0" clip-path="url(#au)" style="fill:#ff5b35;fill-opacity:1;fill-rule:nonzero;stroke:none" transform="matrix(1.33333 0 0 -1.33333 679.56 738.85)"/><path d="M0 0c2.202 3.235 5.284 6.236 9.211 7.136 1.832.42 3.748.229 5.493-.455 1.895-.742 3.407-2.179 5.306-2.912 3.886-1.502 6.771 1.324 8.863 4.249 1.061 1.484 2.032 2.991 3.456 4.163 1.379 1.134 3.028 1.936 4.745 2.407 3.474.954 7.168.506 10.228-1.415 1.733-1.087 3.407-2.461 5.454-2.902 1.868-.403 3.712.002 5.3 1.047 3.145 2.07 5.014 5.602 9.12 5.917 4.233.326 8.02-2.062 10.373-5.452 4.375-6.305 6.666-18.168-1.166-22.867-1.615-.969-3.515-1.458-5.387-1.083-2.002.4-3.84 1.384-5.73 2.117-1.756.681-3.654 1.175-5.538.772-1.842-.394-3.257-1.692-4.221-3.256-.956-1.551-1.536-3.297-2.661-4.751-1.013-1.31-2.299-2.394-3.719-3.237-2.825-1.677-6.229-2.42-9.497-2.017a12.6 12.6 0 0 0-4.635 1.506c-1.709.965-3.146 2.331-4.803 3.376-1.597 1.007-3.419 1.689-5.33 1.46-1.9-.227-3.488-1.283-4.829-2.598-1.322-1.296-2.401-2.826-3.786-4.06-1.309-1.169-2.924-1.994-4.605-2.478-3.387-.976-7.183-.66-10.283 1.058-6.877 3.813-6.526 12.6-4.082 19.042C-2.024-3.389-1.085-1.645 0 0c1.066 1.616-1.531 3.121-2.59 1.514-4.249-6.443-6.766-15.808-2.92-23.016 3.808-7.14 13.364-9.045 20.352-5.811 1.766.818 3.319 2.017 4.635 3.443 1.331 1.443 2.532 3.219 4.268 4.207 3.696 2.102 7.42-2.855 10.44-4.329 6.599-3.22 15.24-1.545 20.19 3.889 1.313 1.441 2.176 3.065 3.038 4.794.889 1.783 1.984 3.356 4.189 3.168 2.052-.175 4.014-1.308 5.897-2.056 2.054-.817 4.142-1.304 6.355-.964 4.144.636 7.69 3.753 9.325 7.543 1.949 4.52 1.55 9.701.097 14.305-1.309 4.145-3.545 8.099-7.054 10.759-3.439 2.606-8.288 3.665-12.387 2.073-1.944-.755-3.449-2.089-4.922-3.523-1.23-1.197-2.619-2.756-4.447-2.895-2.157-.164-4.102 1.714-5.816 2.767a14.7 14.7 0 0 1-5.486 2.008c-3.874.585-7.973-.209-11.283-2.335-1.672-1.073-3.03-2.435-4.201-4.031-1.104-1.502-2.069-3.302-3.577-4.451-1.778-1.354-3.477-.382-5.127.682-1.843 1.19-3.77 2.15-5.964 2.47-4.163.608-8.096-1.046-11.239-3.704C.076 5.073-1.343 3.346-2.59 1.514-3.68-.086-1.081-1.588 0 0" clip-path="url(#av)" style="fill:#000;fill-opacity:1;fill-rule:nonzero;stroke:none" transform="matrix(1.33333 0 0 -1.33333 681.287 739.86)"/><path d="M0 0c-1.613.564-1.727 2.699-1.634 4.109a26.7 26.7 0 0 0 1.071 5.902c.979 3.239 3.354 6.669 7.085 6.718 1.929.025 1.934 3.025 0 3-5.264-.068-8.746-4.573-10.075-9.252-.697-2.453-1.293-5.355-1.078-7.913.205-2.431 1.453-4.625 3.834-5.457C1.029-3.531 1.814-.634 0 0" clip-path="url(#aw)" style="fill:#000;fill-opacity:1;fill-rule:nonzero;stroke:none" transform="matrix(1.33333 0 0 -1.33333 689.321 762.317)"/><path d="M0 0c3.327-4.392 9.387-3.351 13.653-.995 2.548 1.408 4.977 3.266 7.841 3.987 2.512.633 4.836-.172 7.032-1.376 4.047-2.219 8.322-5.885 13.271-4.408 4.981 1.486 6.584 6.828 9.907 10.233 4.435 4.545 11.651 4.02 17.315 2.666 1.877-.448 2.677 2.444.797 2.893-5.204 1.244-10.951 1.714-15.968-.495-2.363-1.04-4.23-2.704-5.779-4.743-1.447-1.905-2.588-4.071-4.253-5.803C42.35.433 40.468-.433 38.331-.027c-2.291.435-4.308 1.851-6.262 3.042-2.008 1.224-4.123 2.48-6.451 2.971-2.74.577-5.354-.028-7.849-1.203-2.749-1.296-5.172-3.34-8.084-4.274C7.459-.204 4.211-.625 2.59 1.514 1.439 3.034-1.167 1.54 0 0" clip-path="url(#ax)" style="fill:#000;fill-opacity:1;fill-rule:nonzero;stroke:none" transform="matrix(1.33333 0 0 -1.33333 686.402 750.25)"/><path d="M0 0c4.534-3.216 7.086-8.777 6.792-14.293-.103-1.93 2.897-1.924 3 0 .353 6.62-2.898 13.067-8.278 16.883-.661.469-1.669.118-2.052-.538C-.978 1.3-.663.47 0 0" clip-path="url(#ay)" style="fill:#000;fill-opacity:1;fill-rule:nonzero;stroke:none" transform="matrix(1.33333 0 0 -1.33333 770.668 727.267)"/><path d="M0 0h-119.728c-17.732 0-32.106 14.375-32.106 32.107s14.374 32.106 32.106 32.106H0c17.732 0 32.107-14.374 32.107-32.106S17.732 0 0 0" clip-path="url(#az)" style="fill:#f6efdf;fill-opacity:1;fill-rule:nonzero;stroke:none" transform="matrix(1.33333 0 0 -1.33333 797.648 903.147)"/><path d="M0 0h-119.197c-8.025 0-15.738 2.833-21.589 8.395-8.024 7.628-11.365 19.246-8.557 29.969 2.743 10.475 11.085 18.917 21.533 21.771 3.883 1.06 7.754 1.078 11.719 1.078H-1.856c5.838 0 11.45-.925 16.637-3.799 9.677-5.361 15.826-15.737 15.826-26.807 0-10.831-5.892-21.042-15.254-26.484C10.684 1.41 5.392.029 0 0c-1.93-.01-1.934-3.01 0-3 11.448.061 22.229 5.949 28.391 15.618 6.176 9.691 6.837 22.175 1.911 32.526C25.426 55.39 15.379 62.521 4.158 63.946c-3.04.387-6.147.267-9.207.267H-119.32c-8.82-.006-17.318-3.253-23.705-9.386-8.259-7.932-11.875-19.759-9.628-30.965 2.226-11.106 10.231-20.418 20.72-24.568C-127.114-2.612-122.113-3-117.01-3H0c1.93 0 1.934 3 0 3" clip-path="url(#aA)" style="fill:#000;fill-opacity:1;fill-rule:nonzero;stroke:none" transform="matrix(1.33333 0 0 -1.33333 797.648 901.147)"/><path d="M0 0h-119.728c-17.732 0-32.106 14.375-32.106 32.107s14.374 32.106 32.106 32.106H0c17.732 0 32.107-14.374 32.107-32.106S17.732 0 0 0" clip-path="url(#aB)" style="fill:#b5bc31;fill-opacity:1;fill-rule:nonzero;stroke:none" transform="matrix(1.33333 0 0 -1.33333 797.648 888.254)"/><path d="M0 0h-119.197c-8.025 0-15.738 2.833-21.589 8.395-8.024 7.628-11.365 19.246-8.557 29.969 2.743 10.475 11.085 18.917 21.533 21.771 3.883 1.06 7.754 1.078 11.719 1.078H-1.856c5.838 0 11.45-.925 16.637-3.799 9.677-5.361 15.826-15.737 15.826-26.807 0-10.831-5.892-21.042-15.254-26.484C10.684 1.41 5.392.029 0 0c-1.93-.01-1.934-3.01 0-3 11.448.061 22.229 5.949 28.391 15.618 6.176 9.691 6.837 22.175 1.911 32.526C25.426 55.39 15.379 62.52 4.158 63.946c-3.04.387-6.147.267-9.207.267H-119.32c-8.82-.006-17.318-3.253-23.705-9.386-8.259-7.932-11.875-19.759-9.628-30.965 2.226-11.106 10.231-20.418 20.72-24.568C-127.114-2.612-122.113-3-117.01-3H0c1.93 0 1.934 3 0 3" clip-path="url(#aC)" style="fill:#000;fill-opacity:1;fill-rule:nonzero;stroke:none" transform="matrix(1.33333 0 0 -1.33333 797.648 886.254)"/><path d="M0 0q0 .82-.339 1.399a3.1 3.1 0 0 1-.834.947q-.495.368-1.074.537t-1.032.17q-.565 0-1.102-.17a10 10 0 0 1-1.046-.396l-.17-6.275q.65 0 1.612.114.96.111 1.851.494A3.96 3.96 0 0 1-.622-2.049Q-.001-1.3 0 0m-4.014-9.215a7.3 7.3 0 0 1-1.583-.169l-.113-6.445q.425-.085.834-.155.41-.072.806-.071.594 0 1.3.127a3.8 3.8 0 0 1 1.329.509q.621.381 1.031 1.031T0-12.663t-.41 1.752a3.2 3.2 0 0 1-1.003 1.06 3.5 3.5 0 0 1-1.3.509 7.4 7.4 0 0 1-1.301.127m18.373-6.896q0-2.347-.862-4.043a8.95 8.95 0 0 0-2.304-2.883 12.4 12.4 0 0 0-3.321-1.936q-1.88-.75-3.915-1.173a30 30 0 0 0-4.084-.565 56 56 0 0 0-3.83-.142q-1.753 0-3.632.128a38 38 0 0 0-3.745.438 33 33 0 0 0-3.675.833 21 21 0 0 0-3.42 1.315l-.057 36.406q1.583.65 3.364 1.173a39 39 0 0 0 3.632.877q1.85.353 3.689.536 1.837.184 3.561.184 2.007 0 4.057-.254 2.048-.254 3.942-.848a17.5 17.5 0 0 0 3.534-1.541 11.5 11.5 0 0 0 2.869-2.332 10.3 10.3 0 0 0 1.922-3.222q.692-1.837.692-4.24a9.5 9.5 0 0 0-.452-2.967 8.3 8.3 0 0 0-1.3-2.488 8 8 0 0 0-2.064-1.88A8.9 8.9 0 0 0 6.218-5.88a12.2 12.2 0 0 0 3.35-1.413 9.9 9.9 0 0 0 2.572-2.261 10 10 0 0 0 1.64-2.996q.579-1.668.579-3.561" clip-path="url(#aD)" style="fill:#f6efdf;fill-opacity:1;fill-rule:nonzero;stroke:none" transform="matrix(1.33333 0 0 -1.33333 676.284 836.084)"/><path d="M0 0c-.111-6.541-7.065-8.599-12.531-9.065-5.935-.506-12.54-.274-18 2.333l.743-1.296-.05 31.927-.007 4.48-1.101-1.447a37.8 37.8 0 0 0 11.648 2.645c3.827.247 7.92-.019 11.467-1.594 3.369-1.497 5.848-4.234 6.197-8.003.364-3.933-1.477-7.266-5.405-8.302-1.441-.379-1.415-2.499 0-2.893C-2.853 7.621-.085 4.424 0 0c.037-1.928 3.037-1.934 3 0-.111 5.749-3.763 10.155-9.242 11.678V8.785c4.47 1.178 7.444 4.851 7.65 9.478.198 4.46-1.801 8.592-5.509 11.095-3.867 2.611-8.858 3.347-13.431 3.288-4.832-.063-9.729-1.017-14.212-2.821-.622-.25-1.102-.732-1.101-1.446l.05-31.927.007-4.48c.001-.494.277-1.073.743-1.295 6.421-3.065 14.302-3.493 21.276-2.542 3.456.472 7.055 1.426 9.838 3.621C1.671-6.192 2.945-3.276 3 0 3.033 1.931.033 1.932 0 0" clip-path="url(#aE)" style="fill:#000;fill-opacity:1;fill-rule:nonzero;stroke:none" transform="matrix(1.33333 0 0 -1.33333 693.43 857.565)"/><path d="M0 0a10 10 0 0 1-1.982-.223c-.647-.138-1.09-.815-1.101-1.446l-.099-5.634-.014-.811c-.011-.617.47-1.322 1.101-1.447.597-.118 1.203-.243 1.811-.273.62-.032 1.254.056 1.863.163a4.92 4.92 0 0 1 3.017 1.823c1.444 1.868 1.2 4.971-.611 6.53C2.866-.353 1.454-.014 0 0c-.785.008-1.536-.695-1.5-1.5.037-.819.659-1.492 1.5-1.5.261-.003.544 0 .801-.052-.377.076.084-.018.159-.033a4 4 0 0 0 .565-.159q.156-.058-.09.039c.136-.017.289-.165.409-.226.253-.13-.203.205.02-.008.075-.071.152-.138.223-.213q.073-.077.14-.158-.184.246-.039.045c.057-.09.116-.176.168-.269q.046-.084.085-.171-.12.29-.062.13c.029-.117.072-.231.098-.349q.023-.106.039-.214l-.025.173c.056-.111.023-.361.023-.484 0-.122-.012-.244-.013-.366-.003-.325.065.287-.014-.1-.024-.118-.061-.231-.091-.347-.078-.302.159.261.004.005q-.092-.147-.182-.295-.096-.135.074.09a4 4 0 0 0-.139-.158c-.072-.076-.15-.144-.224-.217q-.187-.156.059.042a3 3 0 0 0-.173-.114c-.102-.064-.211-.116-.316-.175q-.231-.107.031.008a3 3 0 0 0-.167-.059c-.226-.074-.529-.185-.771-.174.377-.017-.116-.008-.202-.014a5.4 5.4 0 0 0-.903.006q.308-.046.05-.006-.418.073-.834.155l1.101-1.446.099 5.634.014.811-1.101-1.447q.177.037.355.069c.395.073-.32-.02.084.011.249.019.496.034.745.036.784.006 1.536.685 1.5 1.5C1.464-.693.841.007 0 0" clip-path="url(#aF)" style="fill:#000;fill-opacity:1;fill-rule:nonzero;stroke:none" transform="matrix(1.33333 0 0 -1.33333 670.932 846.37)"/><path d="M0 0c-.027 1.696-.968 3.28-2.53 4.006-.773.359-1.64.598-2.499.538-.952-.065-1.789-.383-2.655-.761-.477-.208-.73-.812-.743-1.296l-.148-5.491-.022-.784c-.022-.807.705-1.504 1.5-1.5 1.601.009 3.348.231 4.739 1.08.693.424 1.351 1.022 1.759 1.731.432.75.59 1.621.599 2.477.009.785-.696 1.536-1.5 1.5C-2.32 1.463-2.991.841-3 0a8 8 0 0 0-.021-.455c-.016-.227-.029.033.012.082-.029-.035-.031-.154-.042-.2-.026-.113-.109-.259-.113-.373.003.066.142.279.04.103-.031-.052-.056-.107-.088-.159-.015-.025-.101-.124-.097-.149-.007.049.225.261.057.08-.097-.104-.192-.209-.297-.306-.021-.019-.158-.115-.158-.139 0 .039.248.173.054.043a5 5 0 0 0-.402-.249c-.062-.034-.129-.062-.19-.097-.173-.098.249.092.045.016-.151-.055-.3-.113-.453-.161-.307-.097-.618-.158-.933-.222-.217-.045.269.026.037.004l-.248-.027q-.23-.024-.463-.042a12 12 0 0 0-.837-.037l1.5-1.5.149 5.491.021.784-.743-1.295c-.338-.148.154.06.216.083q.175.065.353.123a4 4 0 0 0 .602.156q-.293-.034-.03-.01c.118.001.235.011.352.007q.108-.005.214-.017-.318.044-.055-.003c.122-.036.249-.058.372-.095.058-.017.417-.187.23-.075-.2.121.174-.103.21-.125.054-.033.216-.175.276-.185q-.25.196-.066.037.077-.07.147-.146l.071-.077q.156-.187-.036.053c.073-.047.135-.198.18-.276q.053-.09.096-.184-.12.297-.037.061c.004-.014.085-.323.078-.323q-.035.314-.011.05Q-3 .123-3 0c.013-.784.681-1.537 1.5-1.5C-.698-1.464.014-.841 0 0" clip-path="url(#aG)" style="fill:#000;fill-opacity:1;fill-rule:nonzero;stroke:none" transform="matrix(1.33333 0 0 -1.33333 678.284 836.084)"/><path d="M0 0q0-2.092-.198-4.607a60 60 0 0 0-.65-5.201 63 63 0 0 0-1.173-5.441 39 39 0 0 0-1.795-5.3 31.3 31.3 0 0 0-2.501-4.763 18.8 18.8 0 0 0-3.279-3.873 14.5 14.5 0 0 0-4.141-2.6q-2.29-.947-5.088-.947-3.28 0-5.696 1.06t-4.141 2.855q-1.724 1.794-2.826 4.183a26 26 0 0 0-1.724 5.06 39 39 0 0 0-.863 5.455 62 62 0 0 0-.24 5.357q0 3.956.396 7.9.395 3.944 1.13 7.872l13.229-.509a187 187 0 0 1-1.314-8.918 74 74 0 0 1-.552-9.002q0-.482.043-1.428.042-.947.155-2.12t.326-2.402q.211-1.23.579-2.247.367-1.018.89-1.668.524-.65 1.23-.65.82 0 1.469.777t1.145 2.077.862 2.997q.368 1.695.622 3.533t.41 3.675q.155 1.836.255 3.42a75 75 0 0 1 .155 4.607 137 137 0 0 1-.283 8.762H-.339Q0 4.014 0 0" clip-path="url(#aH)" style="fill:#f6efdf;fill-opacity:1;fill-rule:nonzero;stroke:none" transform="matrix(1.33333 0 0 -1.33333 742.501 829.074)"/><path d="M0 0c-.024-5.616-.811-11.297-2.487-16.664-1.571-5.029-4.232-10.469-9.03-13.116-4.405-2.431-10.484-1.88-14.176 1.62-3.947 3.742-5.077 9.767-5.455 14.963-.482 6.622.103 13.292 1.306 19.808l-1.447-1.101 13.229-.509-1.446 1.899c-.793-4.645-1.523-9.337-1.796-14.045-.239-4.112-.391-8.748.973-12.698.603-1.743 1.694-3.642 3.786-3.576 2.024.064 3.157 2.075 3.816 3.731 1.561 3.925 1.863 8.415 2.173 12.586.372 5.005.301 10.009-.014 15.016l-1.5-1.5H1.161l-1.5 1.5C-.117 5.281-.007 2.643 0 0c.005-1.93 3.005-1.934 3 0a97 97 0 0 1-.339 7.914c-.069.809-.632 1.5-1.5 1.5h-13.229c-.773 0-1.551-.688-1.5-1.5.297-4.722.399-9.454.074-14.177-.166-2.423-.365-4.849-.764-7.246-.34-2.041-.688-4.341-1.757-6.149-.119-.201-.401-.81-.688-.776-.242.028-.602 1.035-.674 1.216-.401 1.019-.586 2.143-.733 3.222-.314 2.305-.352 4.633-.277 6.954.163 5.086.919 10.135 1.773 15.145.167.977-.399 1.858-1.446 1.898l-13.229.509c-.607.023-1.331-.479-1.446-1.101-1.195-6.477-1.859-13.108-1.473-19.695.353-6.016 1.511-12.672 5.703-17.289 3.879-4.272 10.444-5.768 15.889-3.946C-6.797-31.574-3.142-26.39-.87-20.948 1.859-14.414 2.97-7.053 3 0 3.008 1.931.008 1.933 0 0" clip-path="url(#aI)" style="fill:#000;fill-opacity:1;fill-rule:nonzero;stroke:none" transform="matrix(1.33333 0 0 -1.33333 740.501 829.074)"/><path d="m0 0-15.546-21.708-.735-17.694h-13.398l.339 17.581-8.084 20.973L-23.008.961l2.261-12.211L-13.568.961z" clip-path="url(#aJ)" style="fill:#f6efdf;fill-opacity:1;fill-rule:nonzero;stroke:none" transform="matrix(1.33333 0 0 -1.33333 793.53 819.953)"/><path d="m0 0-11.278-15.748-2.893-4.04c-.438-.612-1.007-1.231-1.359-1.898-.377-.713-.262-1.774-.295-2.556l-.232-5.588-.429-10.329 1.5 1.5h-13.398l1.5-1.5.329 17.052c.029 1.524-.855 3.033-1.392 4.426l-3.976 10.315-2.759 7.16-1.447-1.899 14.416 1.809-1.446 1.101 2.261-12.211c.242-1.31 2.127-1.404 2.741-.358l7.18 12.211-1.295-.743 13.567-.961c1.927-.137 1.918 2.864 0 3l-13.567.961c-.518.037-1.042-.312-1.295-.743l-7.18-12.211 2.742-.358L-20.266.603c-.107.576-.842 1.177-1.447 1.101L-36.129-.105c-.861-.108-1.836-.886-1.446-1.899l6.3-16.344 1.391-3.61c.102-.265.175-.616.33-.856.231-.357.076.492.006.045-.163-1.03-.043-2.197-.063-3.237l-.103-5.363-.17-8.79c-.015-.811.7-1.5 1.5-1.5h13.398c.836 0 1.467.688 1.5 1.5l.352 8.475.25 6.024.089 2.126c.011.269.133.767.042 1.028.133-.38-.469-.962.005-.426.27.305.488.682.726 1.013l2.633 3.677 7.246 10.119L2.59-1.514C3.716.058 1.116 1.558 0 0" clip-path="url(#aK)" style="fill:#000;fill-opacity:1;fill-rule:nonzero;stroke:none" transform="matrix(1.33333 0 0 -1.33333 791.804 818.944)"/><path d="M0 0a6.87 6.87 0 0 0-6.869 6.869V113.1a6.87 6.87 0 0 0 13.737 0V6.869A6.87 6.87 0 0 0 0 0" clip-path="url(#aL)" style="fill:#f6efdf;fill-opacity:1;fill-rule:nonzero;stroke:none" transform="matrix(1.33333 0 0 -1.33333 592.11 707.412)"/><path d="M0 0c-2.995 0-5.312 2.458-5.369 5.397-.007.39 0 .781 0 1.172v102.639c0 1.91-.189 3.849.993 5.508 2.11 2.961 6.642 2.962 8.752 0 .752-1.056.988-2.258.992-3.52.006-1.821 0-3.642 0-5.463V18.641c0-4.412.085-8.833 0-13.244C5.311 2.404 2.993.073 0 0c-1.927-.047-1.934-3.047 0-3 4.006.098 7.587 2.918 8.24 6.955.117.72.128 1.42.128 2.142v103.859c0 .511.008 1.022 0 1.533-.041 2.684-1.192 5.163-3.351 6.795-3.166 2.392-7.613 2.148-10.584-.439-1.853-1.614-2.769-3.976-2.802-6.396-.021-1.629 0-3.259 0-4.888v-98.2c0-1.652-.145-3.444.258-5.058C-7.199-.356-3.759-3 0-3c1.93 0 1.934 3 0 3" clip-path="url(#aM)" style="fill:#000;fill-opacity:1;fill-rule:nonzero;stroke:none" transform="matrix(1.33333 0 0 -1.33333 592.11 705.412)"/><path d="M0 0a6.87 6.87 0 0 0-6.868 6.868v51.978a6.868 6.868 0 0 0 13.737 0V6.868A6.87 6.87 0 0 0 0 0" clip-path="url(#aN)" style="fill:#f6efdf;fill-opacity:1;fill-rule:nonzero;stroke:none" transform="matrix(1.33333 0 0 -1.33333 849.551 805.282)"/><path d="M0 0c-3.046 0-5.319 2.503-5.368 5.469-.016.903 0 1.807 0 2.709v45.178c0 3.114-.521 6.763 2.658 8.626 3.381 1.98 7.827-.371 8.07-4.293.045-.716.009-1.443.009-2.159V10.71c0-2.404.537-5.882-.733-8.051C3.66.993 1.909.047 0 0c-1.927-.047-1.934-3.047 0-3 4.531.111 8.214 3.63 8.364 8.197.025.747.005 1.497.005 2.244v46.911c0 .968.016 1.937 0 2.905-.064 3.61-2.23 6.808-5.676 8.011-4.04 1.412-8.652-.663-10.348-4.566-.641-1.476-.713-2.972-.713-4.537V9.645c0-3.777-.383-7.728 2.801-10.521C-4.031-2.223-2.049-3 0-3c1.93 0 1.934 3 0 3" clip-path="url(#aO)" style="fill:#000;fill-opacity:1;fill-rule:nonzero;stroke:none" transform="matrix(1.33333 0 0 -1.33333 849.551 803.282)"/><path d="M0 0a6.87 6.87 0 1 0 0 13.738A6.87 6.87 0 0 0 0 0" clip-path="url(#aP)" style="fill:#f6efdf;fill-opacity:1;fill-rule:nonzero;stroke:none" transform="matrix(1.33333 0 0 -1.33333 592.11 735.979)"/><path d="M0 0c-2.176 0-4.229 1.38-4.999 3.39-.836 2.178-.211 4.561 1.529 6.08 1.636 1.429 4.171 1.665 6.076.594 1.938-1.091 3.073-3.351 2.707-5.521C4.865 1.896 2.631.036 0 0c-1.929-.026-1.934-3.027 0-3a8.5 8.5 0 0 1 7.923 5.678c1.135 3.209.043 7.014-2.606 9.143-2.74 2.201-6.641 2.559-9.669.696C-7.37 10.66-8.86 7.111-8.189 3.654-7.446-.175-3.866-3 0-3c1.93 0 1.934 3 0 3" clip-path="url(#aQ)" style="fill:#000;fill-opacity:1;fill-rule:nonzero;stroke:none" transform="matrix(1.33333 0 0 -1.33333 592.11 733.979)"/></svg>