<svg xmlns="http://www.w3.org/2000/svg" width="1440" height="1440" viewBox="0 0 1440 1440"><defs><clipPath id="a" clipPathUnits="userSpaceOnUse"><path d="M-302.359 752.495h1080v-1080h-1080Z"/></clipPath><clipPath id="b" clipPathUnits="userSpaceOnUse"><path d="M-302.359 750.995h1080v-1080h-1080Z"/></clipPath><clipPath id="c" clipPathUnits="userSpaceOnUse"><path d="M-256.166 644.84h1080v-1080h-1080Z"/></clipPath><clipPath id="d" clipPathUnits="userSpaceOnUse"><path d="M-257.46 645.597h1080v-1080h-1080Z"/></clipPath><clipPath id="e" clipPathUnits="userSpaceOnUse"><path d="M-810.336 733.106h1080v-1080h-1080Z"/></clipPath><clipPath id="f" clipPathUnits="userSpaceOnUse"><path d="M-808.836 733.106h1080v-1080h-1080Z"/></clipPath><clipPath id="g" clipPathUnits="userSpaceOnUse"><path d="M-314.742 752.495h1080v-1080h-1080Z"/></clipPath><clipPath id="h" clipPathUnits="userSpaceOnUse"><path d="M-313.242 752.495h1080v-1080h-1080Z"/></clipPath><clipPath id="i" clipPathUnits="userSpaceOnUse"><path d="M-269.441 722.278h1080v-1080h-1080Z"/></clipPath><clipPath id="j" clipPathUnits="userSpaceOnUse"><path d="M-268.146 723.035h1080v-1080h-1080Z"/></clipPath><clipPath id="k" clipPathUnits="userSpaceOnUse"><path d="M-855.742 752.495h1080v-1080h-1080Z"/></clipPath><clipPath id="l" clipPathUnits="userSpaceOnUse"><path d="M-854.242 752.495h1080v-1080h-1080Z"/></clipPath><clipPath id="m" clipPathUnits="userSpaceOnUse"><path d="M-810.441 722.278h1080v-1080h-1080Z"/></clipPath><clipPath id="n" clipPathUnits="userSpaceOnUse"><path d="M-809.146 723.035h1080v-1080h-1080Z"/></clipPath><clipPath id="o" clipPathUnits="userSpaceOnUse"><path d="M-319.406 832.189h1080v-1080h-1080Z"/></clipPath><clipPath id="p" clipPathUnits="userSpaceOnUse"><path d="M-322.406 693.189h1080v-1080h-1080Z"/></clipPath><clipPath id="q" clipPathUnits="userSpaceOnUse"><path d="M-372.12 797.737h1080v-1080h-1080Z"/></clipPath><clipPath id="r" clipPathUnits="userSpaceOnUse"><path d="M-417.163 797.737h1080v-1080h-1080Z"/></clipPath><clipPath id="s" clipPathUnits="userSpaceOnUse"><path d="M-476.448 797.737h1080v-1080h-1080Z"/></clipPath><clipPath id="t" clipPathUnits="userSpaceOnUse"><path d="M-505.91 797.737h1080v-1080h-1080Z"/></clipPath><clipPath id="u" clipPathUnits="userSpaceOnUse"><path d="M-557.174 797.737h1080v-1080h-1080Z"/></clipPath><clipPath id="v" clipPathUnits="userSpaceOnUse"><path d="M-608.438 797.737h1080v-1080h-1080Z"/></clipPath><clipPath id="w" clipPathUnits="userSpaceOnUse"><path d="M-637.9 797.737h1080v-1080h-1080Z"/></clipPath><clipPath id="x" clipPathUnits="userSpaceOnUse"><path d="M-710.658 797.737h1080v-1080h-1080Z"/></clipPath><clipPath id="y" clipPathUnits="userSpaceOnUse"><path d="M-714.626 673.664h1080v-1080h-1080Z"/></clipPath><clipPath id="z" clipPathUnits="userSpaceOnUse"><path d="M0 1080h1080V0H0Z"/></clipPath><clipPath id="A" clipPathUnits="userSpaceOnUse"><path d="M-734.94 420.396h1080v-1080h-1080Z"/></clipPath><clipPath id="B" clipPathUnits="userSpaceOnUse"><path d="M-714.626 421.896h1080v-1080h-1080Z"/></clipPath><clipPath id="C" clipPathUnits="userSpaceOnUse"><path d="M-574.462 335.114h1080v-1080h-1080Z"/></clipPath><clipPath id="D" clipPathUnits="userSpaceOnUse"><path d="M-572.962 335.114h1080v-1080h-1080Z"/></clipPath><clipPath id="E" clipPathUnits="userSpaceOnUse"><path d="M-343.54 404.997h1080v-1080h-1080Z"/></clipPath><clipPath id="F" clipPathUnits="userSpaceOnUse"><path d="M-431.919 538.186h1080v-1080h-1080Z"/></clipPath><clipPath id="G" clipPathUnits="userSpaceOnUse"><path d="M-431.919 536.686h1080v-1080h-1080Z"/></clipPath><clipPath id="H" clipPathUnits="userSpaceOnUse"><path d="M-414.593 496.88h1080v-1080h-1080Z"/></clipPath><clipPath id="I" clipPathUnits="userSpaceOnUse"><path d="M-413.093 496.88h1080v-1080h-1080Z"/></clipPath><clipPath id="J" clipPathUnits="userSpaceOnUse"><path d="M-544.063 347.107h1080v-1080h-1080Z"/></clipPath><clipPath id="K" clipPathUnits="userSpaceOnUse"><path d="M-542.616 346.709h1080v-1080h-1080Z"/></clipPath><clipPath id="L" clipPathUnits="userSpaceOnUse"><path d="M-505.762 341.343h1080v-1080h-1080Z"/></clipPath><clipPath id="M" clipPathUnits="userSpaceOnUse"><path d="M-594.063 347.107h1080v-1080h-1080Z"/></clipPath><clipPath id="N" clipPathUnits="userSpaceOnUse"><path d="M-592.616 346.709h1080v-1080h-1080Z"/></clipPath><clipPath id="O" clipPathUnits="userSpaceOnUse"><path d="M-555.762 341.343h1080v-1080h-1080Z"/></clipPath><clipPath id="P" clipPathUnits="userSpaceOnUse"><path d="M-571.845 408.657h1080v-1080h-1080Z"/></clipPath><clipPath id="Q" clipPathUnits="userSpaceOnUse"><path d="M-580.413 395.865h1080v-1080h-1080Z"/></clipPath><clipPath id="R" clipPathUnits="userSpaceOnUse"><path d="M-578.966 395.467h1080v-1080h-1080Z"/></clipPath><clipPath id="S" clipPathUnits="userSpaceOnUse"><path d="M-572.002 403.397h1080v-1080h-1080Z"/></clipPath><clipPath id="T" clipPathUnits="userSpaceOnUse"><path d="M-566.76 391.206h1080v-1080h-1080Z"/></clipPath><clipPath id="U" clipPathUnits="userSpaceOnUse"><path d="M-512.382 406.705h1080v-1080h-1080Z"/></clipPath><clipPath id="V" clipPathUnits="userSpaceOnUse"><path d="M-687.346 615.662h1080v-1080h-1080Z"/></clipPath><clipPath id="W" clipPathUnits="userSpaceOnUse"><path d="M-687.346 614.162h1080v-1080h-1080Z"/></clipPath><clipPath id="X" clipPathUnits="userSpaceOnUse"><path d="M-687.346 642.516h1080v-1080h-1080Z"/></clipPath><clipPath id="Y" clipPathUnits="userSpaceOnUse"><path d="M-687.346 641.016h1080v-1080h-1080Z"/></clipPath></defs><path d="M0 0h1080v1080H0Z" style="fill:#fff;fill-opacity:1;fill-rule:nonzero;stroke:none" transform="matrix(1.33333 0 0 -1.33333 0 1440)"/><path d="M0 0c-28.962 0-54.536 15.179-68.409 40.602s-12.799 55.143 2.874 79.5l235.19 365.496c14.408 22.392 38.908 35.76 65.535 35.76s51.126-13.368 65.535-35.76l235.19-365.496c15.671-24.357 16.746-54.076 2.873-79.5C524.915 15.179 499.341 0 470.379 0Z" clip-path="url(#a)" style="fill:#ff99f1;fill-opacity:1;fill-rule:nonzero;stroke:none" transform="matrix(1.33333 0 0 -1.33333 403.145 1003.327)"/><path d="M0 0c-28.778.157-54.918 16.02-68.079 41.682-12.529 24.43-10.767 53.338 3.975 76.374 7.137 11.152 14.329 22.268 21.494 33.402l48.278 75.027 59.821 92.965 56.906 88.434 39.467 61.334 8.396 13.047c10.234 15.905 25.428 27.872 43.708 33.118 28.133 8.074 59.121-.881 78.5-22.825 4.161-4.711 7.441-9.958 10.821-15.212l32.768-50.922 53.923-83.8 60.781-94.456 52.264-81.22 29.406-45.7c7.02-10.909 12.395-22.549 13.998-35.595 3.671-29.884-11.636-60.459-37.679-75.522C496.252 2.903 482.355 0 468.042 0zc-1.93 0-1.934-3 0-3h426.623c14.278 0 28.556-.013 42.834 0 18.54.016 36.49 5.813 50.955 17.559 22.972 18.655 34.126 49.888 27.705 78.817-3.957 17.825-15.295 32.802-25.011 47.901l-44.26 68.782-59.559 92.558-103.329 160.578c-9.384 14.584-18.016 30.532-31.886 41.371-22.052 17.235-52.569 21.576-78.543 11.079-15.965-6.452-28.81-17.799-38.077-32.201l-26.171-40.67-51.443-79.946-61.29-95.247-55.503-86.255-34.994-54.381c-2.181-3.39-4.451-6.745-6.505-10.216-15.678-26.503-14.367-59.857 2.954-85.261C-50.698 9.758-26.188-2.857 0-3c1.931-.011 1.933 2.989 0 3" clip-path="url(#b)" style="fill:#000;fill-opacity:1;fill-rule:nonzero;stroke:none" transform="matrix(1.33333 0 0 -1.33333 403.145 1001.327)"/><path d="m0 0 235.19 365.497c21.626 33.608 70.76 33.608 92.386 0L562.766 0c23.523-36.556-2.723-84.655-46.193-84.655H46.193C2.723-84.655-23.523-36.556 0 0" clip-path="url(#c)" style="fill:#ff5b35;fill-opacity:1;fill-rule:nonzero;stroke:none" transform="matrix(1.33333 0 0 -1.33333 341.554 859.787)"/><path d="m0 0 18.247 28.357 45.36 70.491 58.401 90.758 57.37 89.157 42.268 65.687c8.095 12.58 15.765 27.784 28.384 36.334 19.168 12.987 45.718 12.026 63.706-2.669 5.863-4.789 10.049-10.752 14.077-17.011l30.172-46.89 51.956-80.741 59.666-92.724 53.305-82.84 32.873-51.086c2.129-3.308 4.393-6.58 6.306-10.02 11.308-20.335 7.708-46.15-8.349-62.912-10.468-10.926-24.672-16.289-39.669-16.289H58.6c-4.32 0-8.639-.005-12.959 0-16.944.022-32.922 7.374-43.229 20.991C-11.199-43.423-12.045-18.984 0 0c1.037 1.635-1.558 3.142-2.59 1.514-12.208-19.24-11.852-44.109 1.255-62.842C9.346-76.594 26.654-85.33 45.219-85.398c3.893-.014 7.786 0 11.68 0h443.52c4.623 0 9.246-.003 13.869 0 15.562.012 30.429 5.671 41.346 16.932 15.585 16.076 20.523 40.519 11.757 61.211-2.201 5.193-5.286 9.797-8.318 14.508l-12.535 19.48-19.668 30.565-24.989 38.835-28.645 44.515-30.195 46.926-30.069 46.728-28.129 43.714-24.377 37.882-18.888 29.354-11.392 17.703c-4.419 6.867-9.151 13.317-15.723 18.385-17.775 13.707-42.982 15.335-62.452 4.212-9.1-5.199-15.746-12.844-21.328-21.519l-10.511-16.334-18.088-28.111-23.853-37.068-27.805-43.211-30.096-46.771-30.268-47.037-28.772-44.713-25.463-39.572L15.399 29.47 2.03 8.694l-4.62-7.18C-3.638-.114-1.042-1.62 0 0" clip-path="url(#d)" style="fill:#000;fill-opacity:1;fill-rule:nonzero;stroke:none" transform="matrix(1.33333 0 0 -1.33333 343.28 860.797)"/><path d="M0 0v-62.692c-33.473-.026-60.59-23.228-60.59-51.853 0-.41 0-.811.026-1.212h-427.062c.017.401.017.802.017 1.212 0 28.625-27.108 51.827-60.582 51.853V0c33.474.026 60.582 23.228 60.582 51.854 0 2.04-.131 4.054-.401 6.025h427.829a44 44 0 0 1-.409-6.025C-60.59 23.228-33.473.026 0 0" clip-path="url(#e)" style="fill:#ff99f1;fill-opacity:1;fill-rule:nonzero;stroke:none" transform="matrix(1.33333 0 0 -1.33333 1080.448 977.474)"/><path d="M0 0v-62.692l1.5 1.5c-24.079-.156-49.164-12.577-58.617-35.746-2.415-5.919-3.69-12.417-3.447-18.819l1.5 1.5h-420.617c-1.832 0-3.906.273-5.722 0-.23-.035-.489 0-.723 0l1.5-1.5c.612 24.319-17.927 43.872-40.073 51.11-7.095 2.318-14.537 3.407-21.992 3.455l1.5-1.5V0l-1.5-1.5c24.754.161 50.597 13.366 59.349 37.663 2.501 6.946 3.246 14.401 2.332 21.716l-1.5-1.5h421.394c1.829 0 3.9-.274 5.713 0 .23.034.489 0 .722 0l-1.5 1.5C-63.429 32.02-44.768 10.194-21.222 2.198-13.91-.285-6.212-1.45 1.5-1.5c1.931-.013 1.933 2.987 0 3-15.794.103-31.666 5.366-43.386 16.185-11.213 10.352-17.212 24.932-15.295 40.194.102.806-.769 1.5-1.5 1.5h-410.481c-5.536 0-11.091.132-16.626 0-.24-.006-.481 0-.722 0-.736 0-1.601-.692-1.5-1.5 1.906-15.259-4.089-29.842-15.299-40.194-11.718-10.82-27.588-16.082-43.382-16.185-.81-.005-1.5-.683-1.5-1.5v-62.692c0-.814.688-1.494 1.5-1.5 15.314-.099 30.709-5.036 42.322-15.231 10.471-9.193 17.097-22.252 16.743-36.334-.021-.811.704-1.5 1.5-1.5h409.688c5.545 0 11.107-.133 16.65 0 .241.005.483 0 .724 0 .788 0 1.53.687 1.5 1.5-.531 14.02 6.358 27.224 16.738 36.334C-29.211-69.228-13.814-64.291 1.5-64.192c.811.006 1.5.683 1.5 1.5V0c0 1.93-3 1.934-3 0" clip-path="url(#f)" style="fill:#000;fill-opacity:1;fill-rule:nonzero;stroke:none" transform="matrix(1.33333 0 0 -1.33333 1078.448 977.474)"/><path d="M0 0c0-24.986-20.255-45.242-45.242-45.242S-90.484-24.986-90.484 0s20.256 45.242 45.242 45.242C-20.255 45.242 0 24.986 0 0" clip-path="url(#g)" style="fill:#d2d11f;fill-opacity:1;fill-rule:nonzero;stroke:none" transform="matrix(1.33333 0 0 -1.33333 419.656 1003.327)"/><path d="M0 0c-.069-18.163-11.615-34.922-28.771-41.118-17.316-6.254-37.02-.834-48.756 13.322-11.707 14.122-13.131 34.775-3.649 50.437 9.453 15.613 28.202 23.891 46.112 20.243C-17.321 39.271-3.401 24.703-.522 6.839-.158 4.579-.009 2.288 0 0c.007-1.93 3.007-1.934 3 0-.074 19.452-12.402 37.148-30.661 43.896-18.338 6.777-39.678.978-52.091-14.105-12.473-15.154-14.208-37.11-4.014-53.946 10.148-16.763 30.134-25.491 49.333-21.656C-15.59-42.048-.485-26.304 2.424-7.299 2.794-4.88 2.991-2.447 3 0 3.007 1.931.007 1.933 0 0" clip-path="url(#h)" style="fill:#000;fill-opacity:1;fill-rule:nonzero;stroke:none" transform="matrix(1.33333 0 0 -1.33333 417.656 1003.327)"/><path d="M0 0c4.111-5.495 1.01-14.764-6.928-20.702S-24.632-27-28.744-21.504c-4.111 5.495-1.009 14.764 6.928 20.702S-4.111 5.495 0 0" clip-path="url(#i)" style="fill:#f6efdf;fill-opacity:1;fill-rule:nonzero;stroke:none" transform="matrix(1.33333 0 0 -1.33333 359.255 963.037)"/><path d="M0 0c3.209-4.434 1.082-10.266-1.914-14.213-3.844-5.065-10.264-8.966-16.743-8.931-2.527.014-5.144.716-6.96 2.561-1.688 1.714-2.279 4.073-2.12 6.424.405 5.996 5.174 11.27 10.081 14.241C-12.508 3.2-4.081 5.265.235-.304c.5-.645 1.594-.515 2.121 0 .639.626.493 1.485 0 2.122-4.454 5.748-12.904 4.922-18.821 2.274-6.513-2.915-12.617-9.012-14.003-16.22-.558-2.901-.336-5.983 1.19-8.571 1.601-2.715 4.402-4.491 7.459-5.116 7.462-1.525 15.392 2.332 20.458 7.655C3.353-13.209 7.131-4.76 2.59 1.514 1.469 3.064-1.135 1.568 0 0" clip-path="url(#j)" style="fill:#000;fill-opacity:1;fill-rule:nonzero;stroke:none" transform="matrix(1.33333 0 0 -1.33333 357.528 964.047)"/><path d="M0 0c0-24.986-20.255-45.242-45.242-45.242S-90.484-24.986-90.484 0s20.256 45.242 45.242 45.242C-20.255 45.242 0 24.986 0 0" clip-path="url(#k)" style="fill:#d2d11f;fill-opacity:1;fill-rule:nonzero;stroke:none" transform="matrix(1.33333 0 0 -1.33333 1140.99 1003.327)"/><path d="M0 0c-.069-18.163-11.615-34.922-28.771-41.118-17.316-6.254-37.02-.834-48.756 13.322-11.707 14.122-13.131 34.775-3.649 50.437 9.453 15.613 28.202 23.891 46.112 20.243C-17.321 39.271-3.401 24.703-.522 6.839-.158 4.579-.009 2.288 0 0c.007-1.93 3.007-1.934 3 0-.074 19.452-12.402 37.148-30.661 43.896-18.337 6.777-39.678.978-52.091-14.105-12.472-15.154-14.208-37.11-4.014-53.946 10.148-16.763 30.134-25.491 49.333-21.656C-15.59-42.048-.485-26.304 2.424-7.299 2.794-4.88 2.991-2.447 3 0 3.007 1.931.007 1.933 0 0" clip-path="url(#l)" style="fill:#000;fill-opacity:1;fill-rule:nonzero;stroke:none" transform="matrix(1.33333 0 0 -1.33333 1138.99 1003.327)"/><path d="M0 0c4.111-5.495 1.01-14.764-6.928-20.702S-24.632-27-28.744-21.504c-4.111 5.495-1.009 14.764 6.928 20.702S-4.111 5.495 0 0" clip-path="url(#m)" style="fill:#f6efdf;fill-opacity:1;fill-rule:nonzero;stroke:none" transform="matrix(1.33333 0 0 -1.33333 1080.588 963.037)"/><path d="M0 0c3.209-4.434 1.082-10.266-1.914-14.213-3.844-5.065-10.264-8.966-16.743-8.931-2.527.014-5.144.716-6.96 2.561-1.688 1.714-2.279 4.073-2.12 6.424.405 5.996 5.174 11.27 10.081 14.241C-12.508 3.2-4.081 5.265.235-.304c.5-.645 1.594-.515 2.121 0 .639.626.493 1.485 0 2.122-4.454 5.748-12.904 4.922-18.821 2.274-6.513-2.915-12.617-9.012-14.003-16.22-.558-2.901-.336-5.983 1.19-8.571 1.601-2.715 4.402-4.491 7.459-5.116 7.462-1.525 15.392 2.332 20.458 7.655C3.353-13.209 7.131-4.76 2.59 1.514 1.469 3.064-1.135 1.568 0 0" clip-path="url(#n)" style="fill:#000;fill-opacity:1;fill-rule:nonzero;stroke:none" transform="matrix(1.33333 0 0 -1.33333 1078.861 964.047)"/><path d="M0 0h416.058c5.619 0 11.248-.102 16.866 0 .246.004.492 0 .738 0 1.93 0 1.933 3 0 3H17.604C11.985 3 6.355 3.102.737 3 .492 2.996.246 3 0 3c-1.93 0-1.934-3 0-3" clip-path="url(#o)" style="fill:#000;fill-opacity:1;fill-rule:nonzero;stroke:none" transform="matrix(1.33333 0 0 -1.33333 425.874 1109.585)"/><path d="M0 0h408.944c5.522 0 11.056-.101 16.578 0 .241.004.483 0 .724 0 1.931 0 1.934 3 0 3H17.303C11.78 3 6.247 3.101.725 3 .483 2.996.241 3 0 3c-1.93 0-1.934-3 0-3" clip-path="url(#p)" style="fill:#000;fill-opacity:1;fill-rule:nonzero;stroke:none" transform="matrix(1.33333 0 0 -1.33333 429.874 924.252)"/><path d="M5.918-.001Q4.628 0 4.628-1.29v-9.668q0-.667.071-1.078.08-.409.598-.668l13.465-6.164v-9.153L5.496-36.247q-.868-.514-.867-1.547V-56.66q-.001-.82.094-1.207.105-.386.773-.856l13.524-9.14q.513-.316.949-.492.445-.186 1.113-.188h13.875q1.288 0 1.29 1.29v8.741q0 1.14-.774 1.547L22.008-51.41v9.504l13.465 7.71q.773.366.773 1.653v22.36q0 .413-.129.878a1.04 1.04 0 0 1-.539.668L19.43-.622l-.739.398Q18.257 0 17.836 0zm42.36 0Q46.988 0 46.99-1.29v-65.965q-.002-1.288 1.29-1.289h14.554q1.288 0 1.29 1.29v24.421h12.69v-24.422q-.001-1.288 1.29-1.289h14.554q1.276 0 1.278 1.29V-1.29Q93.933 0 92.657-.001H78.103Q76.812 0 76.813-1.29v-27.867h-12.69V-1.29Q64.12 0 62.832-.001zm59.236 0q-1.291.001-1.29-1.289v-65.965q-.002-1.288 1.29-1.289h14.554q1.29 0 1.29 1.29V-1.29q0 1.29-1.29 1.289zm29.41 0q-1.289.001-1.288-1.289v-65.965q-.002-1.288 1.289-1.289h28.43q1.24 0 2.062.832l10.277 10.277q.88.88.88 2.063v17.73q0 1.245-.88 2.063l-10.277 10.277q-.823.88-2.062.88h-12.586V-1.29q0 1.29-1.29 1.289zm19.7-38.402q4.263 0 5.824-1.7 1.57-1.696 1.57-6.433 0-4.72-1.57-6.422c-1.04-1.13-2.982-1.7-5.824-1.7-2.812 0-4.743.57-5.789 1.7q-1.572 1.701-1.57 6.422-.002 4.737 1.57 6.433 1.57 1.7 5.789 1.7M188.139-.001q-1.292.001-1.29-1.289v-65.965q-.002-1.288 1.29-1.289h28.43q1.24 0 2.062.832l10.277 10.277q.88.88.88 2.063v17.73q0 1.245-.88 2.063l-10.277 10.277q-.822.88-2.063.88h-12.586V-1.29q0 1.29-1.289 1.289zm19.699-38.402q4.263 0 5.824-1.7 1.57-1.696 1.57-6.433 0-4.72-1.57-6.422c-1.04-1.13-2.982-1.7-5.824-1.7-2.813 0-4.743.57-5.79 1.7q-1.571 1.701-1.57 6.422-.001 4.737 1.57 6.433 1.57 1.7 5.79 1.7M239.353-.001q-1.291.001-1.29-1.289v-65.965q-.001-1.288 1.29-1.289h14.554q1.29 0 1.29 1.29V-1.29q0 1.29-1.29 1.289zm29.41 0q-1.289.001-1.288-1.289v-65.965q-.002-1.288 1.289-1.289h29.203q1.24 0 2.062.832l10.278 10.277q.879.88.879 2.063V-1.29q0 1.29-1.29 1.289h-14.542q-1.292.001-1.29-1.289v-53.566h-9.457V-1.29q0 1.29-1.289 1.289zm67.975 0q-1.232 0-2.05-.879l-10.29-10.277q-.878-.819-.878-2.063v-42.152q0-1.183.878-2.063l10.29-10.277c.544-.554 1.23-.832 2.05-.832h30.387q1.289 0 1.29 1.29v11.108q-.002 1.291-1.29 1.29h-24.727q-.728 0-1.242.515a1.67 1.67 0 0 0-.504 1.23v37.583q0 .715.504 1.23.514.518 1.242.516h11.098v-13.723h-6.574q-1.29.001-1.29-1.289v-11.05q0-1.29 1.29-1.29h21.082q1.276 0 1.277 1.29v26.624q0 1.245-.867 2.063L358.125-.88q-.821.879-2.05.879zm0 0" aria-label="SHIPPING" style="fill:#f6efdf;fill-opacity:1;fill-rule:nonzero;stroke:none" transform="translate(472.371 1063.65)scale(1.33333)"/><path d="M0 0q.411 0 .849.231.436.232.745.386L17.74 8.638q.41.206.539.669.129.462.129.874v22.367q0 1.285-.771 1.645L4.165 41.906v9.513l13.472 5.553q.771.41.771 1.543v8.741q0 1.284-1.285 1.285H3.239q-.669 0-1.105-.18a7 7 0 0 1-.951-.488L-12.34 58.72q-.669-.462-.772-.848-.103-.387-.102-1.208V37.793q-.001-1.03.874-1.543L.926 28.023v-9.152L-12.546 12.7q-.514-.258-.592-.668a6 6 0 0 1-.076-1.08V1.286Q-13.214 0-11.929 0Z" clip-path="url(#q)" style="fill:none;stroke:#000;stroke-width:3;stroke-linecap:butt;stroke-linejoin:miter;stroke-miterlimit:10;stroke-dasharray:none;stroke-opacity:1" transform="matrix(1.33333 0 0 -1.33333 496.16 1063.65)"/><path d="M0 0q1.285 0 1.285 1.286v27.868h12.701V1.286Q13.986 0 15.271 0h14.552q1.285 0 1.285 1.286v65.97q0 1.284-1.285 1.285H15.271q-1.285 0-1.285-1.285V42.832H1.285v24.424q0 1.284-1.285 1.285h-14.552q-1.285 0-1.285-1.285V1.286Q-15.837 0-14.552 0Z" clip-path="url(#r)" style="fill:none;stroke:#000;stroke-width:3;stroke-linecap:butt;stroke-linejoin:miter;stroke-miterlimit:10;stroke-dasharray:none;stroke-opacity:1" transform="matrix(1.33333 0 0 -1.33333 556.217 1063.65)"/><path d="M0 0q1.285 0 1.285 1.286v65.97q0 1.284-1.285 1.285h-14.552q-1.285 0-1.285-1.285V1.286Q-15.837 0-14.552 0Z" clip-path="url(#s)" style="fill:none;stroke:#000;stroke-width:3;stroke-linecap:butt;stroke-linejoin:miter;stroke-miterlimit:10;stroke-dasharray:none;stroke-opacity:1" transform="matrix(1.33333 0 0 -1.33333 635.264 1063.65)"/><path d="M0 0q1.285 0 1.285 1.286v23.138h12.598q1.234 0 2.057.874l10.284 10.284q.874.822.874 2.057v17.739q0 1.182-.874 2.057L15.94 67.719q-.823.822-2.057.822h-28.435q-1.285 0-1.285-1.285V1.286Q-15.837 0-14.552 0Zm-.643 40.106q-1.568 1.698-1.568 6.428t1.568 6.427 5.785 1.697q4.267 0 5.836-1.697 1.568-1.696 1.568-6.427t-1.568-6.428q-1.569-1.695-5.836-1.696-4.217 0-5.785 1.696z" clip-path="url(#t)" style="fill:none;stroke:#000;stroke-width:3;stroke-linecap:butt;stroke-linejoin:miter;stroke-miterlimit:10;stroke-dasharray:none;stroke-opacity:1" transform="matrix(1.33333 0 0 -1.33333 674.547 1063.65)"/><path d="M0 0q1.285 0 1.285 1.286v23.138h12.598q1.234 0 2.057.874l10.284 10.284q.874.822.874 2.057v17.739q0 1.182-.874 2.057L15.94 67.719q-.823.822-2.057.822h-28.435q-1.285 0-1.285-1.285V1.286Q-15.837 0-14.552 0Zm-.643 40.106q-1.568 1.698-1.568 6.428t1.568 6.427 5.785 1.697q4.267 0 5.836-1.697 1.568-1.696 1.568-6.427t-1.568-6.428q-1.569-1.695-5.836-1.696-4.217 0-5.785 1.696z" clip-path="url(#u)" style="fill:none;stroke:#000;stroke-width:3;stroke-linecap:butt;stroke-linejoin:miter;stroke-miterlimit:10;stroke-dasharray:none;stroke-opacity:1" transform="matrix(1.33333 0 0 -1.33333 742.9 1063.65)"/><path d="M0 0q1.285 0 1.285 1.286v65.97q0 1.284-1.285 1.285h-14.552q-1.285 0-1.285-1.285V1.286Q-15.837 0-14.552 0Z" clip-path="url(#v)" style="fill:none;stroke:#000;stroke-width:3;stroke-linecap:butt;stroke-linejoin:miter;stroke-miterlimit:10;stroke-dasharray:none;stroke-opacity:1" transform="matrix(1.33333 0 0 -1.33333 811.25 1063.65)"/><path d="M0 0q1.285 0 1.286 1.286v53.578h9.461V1.286Q10.747 0 12.032 0h14.552q1.285 0 1.285 1.286v54.092q0 1.182-.874 2.057L16.712 67.719q-.823.822-2.058.822h-29.205q-1.286 0-1.286-1.285V1.286Q-15.837 0-14.551 0Z" clip-path="url(#w)" style="fill:none;stroke:#000;stroke-width:3;stroke-linecap:butt;stroke-linejoin:miter;stroke-miterlimit:10;stroke-dasharray:none;stroke-opacity:1" transform="matrix(1.33333 0 0 -1.33333 850.534 1063.65)"/><path d="M0 0q1.233 0 2.057.874L12.34 11.158q.874.822.874 2.057V39.85q0 1.285-1.285 1.285H-9.153q-1.285 0-1.285-1.285V28.794q0-1.285 1.285-1.285h6.582V13.78h-11.107q-.72 0-1.234.514a1.68 1.68 0 0 0-.514 1.234v37.588q0 .718.514 1.234.514.514 1.234.514h24.733q1.284 0 1.285 1.285v11.107q0 1.284-1.285 1.285h-30.389q-1.234 0-2.057-.822l-10.284-10.284q-.874-.875-.874-2.057V13.215q0-1.235.874-2.057L-21.391.874Q-20.568 0-19.334 0Z" clip-path="url(#x)" style="fill:none;stroke:#000;stroke-width:3;stroke-linecap:butt;stroke-linejoin:miter;stroke-miterlimit:10;stroke-dasharray:none;stroke-opacity:1" transform="matrix(1.33333 0 0 -1.33333 947.544 1063.65)"/><path d="M714.626 404.836h-350.77v295.323h350.77z" style="fill:#4ccfe5;fill-opacity:1;fill-rule:nonzero;stroke:none" transform="matrix(1.33333 0 0 -1.33333 0 1440)"/><path d="M0 0h-336.531c-4.498 0-9.155.349-13.643 0-.196-.015-.399 0-.596 0l1.5-1.5v283.296c0 3.78.366 7.768 0 11.535-.016.16 0 .33 0 .492l-1.5-1.5h336.531c4.498 0 9.154-.349 13.643 0 .196.015.399 0 .596 0l-1.5 1.5V10.526c0-3.84-.091-7.694 0-11.534.004-.164 0-.328 0-.492 0-1.93 3-1.934 3 0v283.296c0 3.841.091 7.695 0 11.535-.004.163 0 .328 0 .492 0 .81-.687 1.5-1.5 1.5h-336.531c-4.545 0-9.099.085-13.643 0-.198-.004-.398 0-.596 0-.811 0-1.5-.688-1.5-1.5V10.526c0-3.84-.091-7.694 0-11.534.004-.164 0-.328 0-.492 0-.811.687-1.5 1.5-1.5h336.531C-9.694-3-5.14-3.086-.596-3c.198.004.397 0 .596 0 1.93 0 1.934 3 0 3" clip-path="url(#y)" style="fill:#000;fill-opacity:1;fill-rule:nonzero;stroke:none" transform="matrix(1.33333 0 0 -1.33333 952.834 898.219)"/><path d="M734.941 658.104H343.54v79.216h391.401z" clip-path="url(#z)" style="fill:#4ccfe5;fill-opacity:1;fill-rule:nonzero;stroke:none" transform="matrix(1.33333 0 0 -1.33333 0 1440)"/><path d="M0 0h-375.513c-5.01 0-10.224.417-15.222 0-.219-.018-.446 0-.666 0l1.5-1.5v79.216l-1.5-1.5h375.513c5.01 0 10.225-.417 15.222 0 .219.018.446 0 .666 0l-1.5 1.5V-1.5c0-1.93 3-1.934 3 0v79.216c0 .811-.687 1.5-1.5 1.5h-375.513c-5.071 0-10.152.094-15.222 0-.222-.004-.444 0-.666 0-.811 0-1.5-.687-1.5-1.5V-1.5c0-.811.688-1.5 1.5-1.5h375.513c5.071 0 10.152-.094 15.222 0 .222.004.444 0 .666 0 1.93 0 1.934 3 0 3" clip-path="url(#A)" style="fill:#000;fill-opacity:1;fill-rule:nonzero;stroke:none" transform="matrix(1.33333 0 0 -1.33333 979.921 560.528)"/><path d="M0 0v-13.557l-350.77 10.35V0Z" clip-path="url(#B)" style="fill:#000;fill-opacity:1;fill-rule:nonzero;stroke:none" transform="matrix(1.33333 0 0 -1.33333 952.834 562.528)"/><path d="M0 0v-198.65l-12 5.2-11.09-8.2-12.13 6.2-11.57-6.2-9.91 6.2-13.74-10.11V0Z" clip-path="url(#C)" style="fill:#fdab23;fill-opacity:1;fill-rule:nonzero;stroke:none" transform="matrix(1.33333 0 0 -1.33333 765.95 446.819)"/><path d="M0 0v-190.547c0-2.556-.214-5.218 0-7.768.009-.11 0-.224 0-.335l2.257 1.295-11.003 4.768c-.507.22-1.198.631-1.754.637-.641.007-1.118-.472-1.597-.826l-5.702-4.216-4.548-3.363h1.514l-10.708 5.473c-.464.238-.927.518-1.409.72-.818.343-1.387.082-2.087-.293l-5.883-3.152-5.127-2.748h1.514l-9.91 6.2c-.415.26-1.104.302-1.514 0l-13.74-10.11 2.257-1.295V-8.374c0 2.642.221 5.392 0 8.027-.01.114 0 .232 0 .347l-1.5-1.5H1.5c1.93 0 1.934 3 0 3h-70.44c-.811 0-1.5-.687-1.5-1.5v-197.186c0-2.673-.068-5.355 0-8.027.003-.116 0-.231 0-.347 0-1.046 1.311-1.991 2.257-1.295l13.74 10.11h-1.514l9.91-6.2c.464-.29 1.047-.25 1.514 0l11.57 6.2h-1.514l12.13-6.2c.444-.227 1.078-.323 1.514 0l11.09 8.2h-1.514l12-5.2C1.749-200.381 3-199.89 3-198.65V-8.103c0 2.586.066 5.182 0 7.768C2.997-.224 3-.112 3 0c0 1.93-3 1.934-3 0" clip-path="url(#D)" style="fill:#000;fill-opacity:1;fill-rule:nonzero;stroke:none" transform="matrix(1.33333 0 0 -1.33333 763.95 446.819)"/><path d="m0 0 10.527.07L38.92.259l42.261.282 51.207.341 56.469.377 56.614.377 53.148.354 44.613.298 32.301.215c5.065.034 10.139-.022 15.203.101.221.006.443.003.665.005 1.929.013 1.934 3.013 0 3l-10.527-.07-28.393-.19-42.261-.281-51.208-.342-56.468-.376-56.614-.377-53.148-.355-44.613-.297-32.301-.215c-5.065-.034-10.14.022-15.203-.102C.443 2.999.221 3.002 0 3c-1.93-.013-1.934-3.013 0-3" clip-path="url(#E)" style="fill:#000;fill-opacity:1;fill-rule:nonzero;stroke:none" transform="matrix(1.33333 0 0 -1.33333 458.053 539.996)"/><path d="M0 0h-41.702c-5.917 0-10.714 4.797-10.714 10.714v77.739c0 5.918 4.797 10.715 10.714 10.715H0c5.917 0 10.714-4.797 10.714-10.715V10.714C10.714 4.797 5.917 0 0 0" clip-path="url(#F)" style="fill:#f6efdf;fill-opacity:1;fill-rule:nonzero;stroke:none" transform="matrix(1.33333 0 0 -1.33333 575.892 717.581)"/><path d="M0 0h-28.769c-4.186 0-8.372-.012-12.558 0-5.499.015-9.577 4.147-9.589 9.63-.018 8.246 0 16.493 0 24.739v49.808c0 .862-.004 1.723 0 2.585.014 2.904 1.223 5.652 3.538 7.462 3.277 2.564 7.784 1.944 11.686 1.944h33.661c1.324 0 2.699.082 3.996-.208 4.23-.947 7.19-4.699 7.249-9.007.095-6.889 0-13.785 0-20.674V14.188c0-2.316.3-4.995-.286-7.263C7.873 2.843 4.178.066 0 0c-1.929-.031-1.934-3.031 0-3 4.621.073 9.013 2.675 11.001 6.914.883 1.882 1.213 3.86 1.213 5.92v75.769c0 .909.019 1.815-.086 2.72-.542 4.647-3.7 8.574-8.094 10.159-1.781.642-3.616.686-5.475.686h-39.544c-2.636 0-5.205-.521-7.431-2.012-3.435-2.302-5.446-6.106-5.5-10.229-.03-2.303 0-4.608 0-6.912V12.3c0-.939-.004-1.879 0-2.818.012-2.966.932-5.761 2.822-8.065 2.347-2.862 5.867-4.38 9.533-4.417 1.335-.013 2.671 0 4.007 0H0c1.93 0 1.934 3 0 3" clip-path="url(#G)" style="fill:#000;fill-opacity:1;fill-rule:nonzero;stroke:none" transform="matrix(1.33333 0 0 -1.33333 575.892 715.581)"/><path d="M0 0v-23.34h.98c4.61 0 8.35-3.74 8.35-8.35h-25.71c0 2.31.93 4.39 2.45 5.9a8.33 8.33 0 0 0 5.9 2.45h.98V.01c-7.09 1.6-12.39 7.94-12.39 15.52V45h31.83V15.53C12.39 7.95 7.09 1.61 0 0" clip-path="url(#H)" style="fill:#ff5b35;fill-opacity:1;fill-rule:nonzero;stroke:none" transform="matrix(1.33333 0 0 -1.33333 552.79 662.508)"/><path d="M0 0v-23.34c0-.811.687-1.5 1.5-1.5 1.876 0 3.612-.222 5.154-1.407 1.703-1.309 2.633-3.318 2.676-5.443l1.5 1.5h-25.71l1.5-1.5c.052 2.208 1.045 4.275 2.864 5.571 1.514 1.078 3.165 1.279 4.966 1.279.811 0 1.5.687 1.5 1.5V.01c0 .639-.464 1.295-1.101 1.446-5.058 1.2-9.216 4.942-10.696 9.969-.675 2.29-.593 4.599-.593 6.949V45l-1.5-1.5h31.83l-1.5 1.5V19.192c0-1.884.135-3.869-.138-5.739C11.388 7.527 6.873 2.824 1.101 1.446-.776.999.019-1.895 1.899-1.446c5.357 1.278 9.898 5.033 12.07 10.107 1.226 2.864 1.421 5.795 1.421 8.848V45c0 .811-.687 1.5-1.5 1.5h-31.83c-.811 0-1.5-.687-1.5-1.5V18.374c0-2.616-.05-5.199.7-7.746C-16.975 4.633-12.015.002-5.949-1.437L-7.05.01v-23.35l1.5 1.5c-2.61 0-4.995-.492-7.089-2.145-2.383-1.881-3.67-4.693-3.741-7.705-.019-.811.703-1.5 1.5-1.5h25.71c.799 0 1.516.687 1.5 1.5-.059 2.93-1.304 5.744-3.603 7.604C6.599-22.364 4.178-21.84 1.5-21.84l1.5-1.5V0c0 1.93-3 1.934-3 0" clip-path="url(#I)" style="fill:#000;fill-opacity:1;fill-rule:nonzero;stroke:none" transform="matrix(1.33333 0 0 -1.33333 550.79 662.508)"/><path d="M0 0c-4.087-27.155-20.569-47.187-36.814-44.742S-62.916-18.302-58.83 8.853c4.087 27.156 20.569 47.187 36.815 44.742C-5.77 51.151 4.087 27.155 0 0" clip-path="url(#J)" style="fill:#f6efdf;fill-opacity:1;fill-rule:nonzero;stroke:none" transform="matrix(1.33333 0 0 -1.33333 725.417 462.81)"/><path d="M0 0c-1.437-9.385-4.347-18.635-9.261-26.799-3.781-6.281-8.942-12.284-15.754-15.345-5.665-2.547-12.027-2.158-17.224 1.28-5.971 3.949-9.583 10.825-11.701 17.472-2.825 8.865-3.383 18.366-2.474 27.588.95 9.63 3.584 19.258 8.134 27.822 5.866 11.041 18.712 25.097 32.559 18.081 6.209-3.146 10.264-9.438 12.708-15.76C.256 25.881 1.231 16.645.762 7.635A81 81 0 0 0 0 0c-.279-1.889 2.611-2.704 2.893-.797 1.488 10.063 1.39 20.466-1.214 30.346-2.001 7.591-5.619 15.429-11.847 20.47-5.358 4.337-12.249 5.978-18.926 4.032-7.5-2.186-13.457-7.945-17.877-14.171-5.711-8.043-9.296-17.603-11.2-27.237-1.987-10.056-2.276-20.535-.26-30.611 1.605-8.022 4.803-16.25 10.642-22.161 4.936-4.997 11.678-7.582 18.677-6.39 7.378 1.256 13.635 6.41 18.188 12.102 5.983 7.482 9.915 16.492 12.242 25.742A85 85 0 0 1 2.893-.797C3.182 1.091.292 1.905 0 0" clip-path="url(#K)" style="fill:#000;fill-opacity:1;fill-rule:nonzero;stroke:none" transform="matrix(1.33333 0 0 -1.33333 723.488 462.278)"/><path d="M0 0c-1.451-9.642-7.304-16.755-13.072-15.887-5.769.868-9.269 9.388-7.818 19.031s7.304 16.755 13.073 15.887C-2.049 18.163 1.451 9.642 0 0" clip-path="url(#L)" style="fill:#000;fill-opacity:1;fill-rule:nonzero;stroke:none" transform="matrix(1.33333 0 0 -1.33333 674.35 455.125)"/><path d="M0 0c-4.087-27.155-20.569-47.187-36.814-44.742S-62.917-18.302-58.83 8.853c4.087 27.156 20.569 47.187 36.815 44.742C-5.77 51.151 4.087 27.155 0 0" clip-path="url(#M)" style="fill:#f6efdf;fill-opacity:1;fill-rule:nonzero;stroke:none" transform="matrix(1.33333 0 0 -1.33333 792.083 462.81)"/><path d="M0 0c-1.437-9.385-4.347-18.635-9.261-26.799-3.781-6.281-8.942-12.284-15.754-15.345-5.665-2.547-12.027-2.158-17.224 1.28-5.971 3.949-9.583 10.825-11.701 17.472-2.825 8.865-3.383 18.366-2.474 27.588.95 9.63 3.584 19.258 8.134 27.822 5.866 11.041 18.712 25.097 32.559 18.081 6.209-3.146 10.264-9.438 12.708-15.76C.256 25.881 1.231 16.645.762 7.635A81 81 0 0 0 0 0c-.279-1.889 2.611-2.704 2.893-.797 1.488 10.063 1.39 20.466-1.214 30.346-2.001 7.591-5.619 15.429-11.847 20.47-5.358 4.337-12.249 5.978-18.926 4.032-7.5-2.186-13.457-7.945-17.877-14.171-5.711-8.043-9.296-17.603-11.2-27.237-1.987-10.056-2.276-20.535-.26-30.611 1.605-8.022 4.803-16.25 10.642-22.161 4.936-4.997 11.678-7.582 18.677-6.39 7.378 1.256 13.635 6.41 18.188 12.102 5.983 7.482 9.915 16.492 12.242 25.742A85 85 0 0 1 2.893-.797C3.182 1.091.292 1.905 0 0" clip-path="url(#N)" style="fill:#000;fill-opacity:1;fill-rule:nonzero;stroke:none" transform="matrix(1.33333 0 0 -1.33333 790.155 462.278)"/><path d="M0 0c-1.451-9.642-7.304-16.755-13.072-15.887-5.769.868-9.269 9.388-7.818 19.031s7.304 16.755 13.073 15.887C-2.049 18.163 1.451 9.642 0 0" clip-path="url(#O)" style="fill:#000;fill-opacity:1;fill-rule:nonzero;stroke:none" transform="matrix(1.33333 0 0 -1.33333 741.016 455.125)"/><path d="m0 0-66.794-22.367S-32.528-87.364 0 0" clip-path="url(#P)" style="fill:#000;fill-opacity:1;fill-rule:nonzero;stroke:none" transform="matrix(1.33333 0 0 -1.33333 762.46 544.876)"/><path d="M0 0c-5.732-24.186-30.365-48.345-56.459-45.7-13.1 1.328-25.333 9.818-31.469 21.425-6.359 12.027-5.726 32.02 11.068 34.264 9.434 1.261 18.069-5.861 24.822-11.557 13.866-11.697 16.199 6.466 22.822 14.825 5.233 6.605 14.988 9.209 22.554 5.054C.719 14.256 1.72 7.26 0 0" clip-path="url(#Q)" style="fill:#ff5b35;fill-opacity:1;fill-rule:nonzero;stroke:none" transform="matrix(1.33333 0 0 -1.33333 773.884 527.82)"/><path d="M0 0c-2.223-9.237-6.901-17.844-13.056-25.053-6.197-7.26-14.024-13.414-22.991-16.847-8.888-3.402-18.611-3.927-27.622-.67-9.101 3.288-17.004 10.087-21.517 18.653-3.161 5.997-4.474 13.517-2.88 20.161.761 3.17 2.248 6.137 4.694 8.338 2.77 2.491 6.647 3.687 10.332 3.654 5.237-.048 10.058-2.681 14.24-5.612 2.128-1.491 4.144-3.131 6.135-4.8 1.712-1.434 3.43-2.902 5.449-3.893 2.781-1.364 5.936-1.732 8.664-.034 2.534 1.576 4.218 4.259 5.633 6.811 1.611 2.906 2.953 5.958 4.674 8.803 2.135 3.53 5.175 6.361 9.093 7.804 4.282 1.578 9.127 1.52 13.18-.698C-2.05 14.469.396 10.841.645 6.35.764 4.204.482 2.087 0 0c-.434-1.879 2.458-2.681 2.893-.798 1.04 4.501 1.237 9.328-.882 13.559-2.184 4.36-6.794 7.366-11.507 8.288-4.775.934-9.814-.019-13.986-2.505-3.653-2.177-6.215-5.387-8.24-9.06-1.693-3.071-3.085-6.316-4.977-9.275-1.345-2.102-3.232-4.483-5.91-4.491-4.165-.012-7.676 4.084-10.658 6.464-4.312 3.442-8.991 6.737-14.366 8.254-8.225 2.321-17.515-.748-21.534-8.546-3.45-6.696-3.108-15.022-.832-22.032 2.976-9.164 9.891-16.912 18.092-21.807 8.809-5.258 19.146-6.991 29.197-5.006C-22.764-43.015-6.258-26.118.805-7.556A56 56 0 0 1 2.893-.798C3.344 1.079.452 1.879 0 0" clip-path="url(#R)" style="fill:#000;fill-opacity:1;fill-rule:nonzero;stroke:none" transform="matrix(1.33333 0 0 -1.33333 771.955 527.289)"/><path d="M0 0c2.13 3.954 1.684 9.043-1.226 12.49-2.82 3.342-7.691 3.842-11.42 1.781-2.013-1.112-3.605-3.014-4.099-5.284-.172-.791.237-1.623 1.047-1.845.75-.206 1.672.252 1.846 1.047.61 2.801 3.485 4.435 6.31 4.33a5.6 5.6 0 0 0 3.707-1.621c1.144-1.13 1.788-2.59 2.076-4.199.301-1.688.01-3.623-.831-5.185C-3.506-.186-.917-1.702 0 0" clip-path="url(#S)" style="fill:#000;fill-opacity:1;fill-rule:nonzero;stroke:none" transform="matrix(1.33333 0 0 -1.33333 762.669 537.863)"/><path d="M0 0a86.7 86.7 0 0 0-8.148-14.386c-3.042-4.336-6.479-8.58-10.498-12.053-4.081-3.525-8.928-5.59-14.366-5.494-5.334.094-10.442 2.019-14.903 4.86-5.061 3.222-9.292 7.563-13.264 12.015-1.288 1.443-3.404-.684-2.122-2.122 7.509-8.414 16.468-16.417 28.168-17.625 5.633-.581 11.221.83 15.855 4.09 4.623 3.252 8.367 7.671 11.767 12.141A86.7 86.7 0 0 1 2.59-1.514C3.373.233.789 1.761 0 0" clip-path="url(#T)" style="fill:#000;fill-opacity:1;fill-rule:nonzero;stroke:none" transform="matrix(1.33333 0 0 -1.33333 755.68 521.608)"/><path d="M0 0c-3.702 2.289-8.749 2.26-12.159-.566-3.109-2.578-4.134-7.229-2.323-10.833.364-.724 1.385-.929 2.052-.538.737.431.904 1.326.539 2.052-.562 1.117-.642 2.518-.33 3.752.341 1.352 1.035 2.538 2.184 3.445C-7.7-.84-4.098-.992-1.514-2.59.133-3.609 1.641-1.015 0 0" clip-path="url(#U)" style="fill:#000;fill-opacity:1;fill-rule:nonzero;stroke:none" transform="matrix(1.33333 0 0 -1.33333 683.176 542.274)"/><path d="M0 0a8.61 8.61 0 0 0-8.609 8.609v133.146a8.61 8.61 0 0 0 17.218 0V8.609A8.61 8.61 0 0 0 0 0" clip-path="url(#V)" style="fill:#f6efdf;fill-opacity:1;fill-rule:nonzero;stroke:none" transform="matrix(1.33333 0 0 -1.33333 916.461 820.883)"/><path d="M0 0c-3.951 0-7.046 3.249-7.109 7.139-.007.47 0 .941 0 1.411v128.818c0 2.538-.207 5.04 1.46 7.213 2.835 3.697 8.612 3.652 11.377-.104 1.031-1.4 1.377-3.023 1.381-4.718.004-2.247 0-4.494 0-6.74V23.644c0-5.502.091-11.012 0-16.513C7.043 3.187 3.944.078 0 0c-1.928-.038-1.934-3.038 0-3 5.142.102 9.498 3.92 10.048 9.081.073.681.061 1.36.061 2.043v129.991c0 .654.004 1.308 0 1.962-.021 3.135-1.333 6.103-3.809 8.07-3.937 3.127-9.705 2.864-13.333-.631-2.045-1.97-3.06-4.674-3.076-7.483-.011-2.081 0-4.163 0-6.244V11.028c0-1.967-.167-4.072.221-6.012C-8.967.401-4.673-3 0-3c1.93 0 1.934 3 0 3" clip-path="url(#W)" style="fill:#000;fill-opacity:1;fill-rule:nonzero;stroke:none" transform="matrix(1.33333 0 0 -1.33333 916.461 818.883)"/><path d="M0 0a8.609 8.609 0 1 0 8.609 8.609A8.61 8.61 0 0 0 0 0" clip-path="url(#X)" style="fill:#f6efdf;fill-opacity:1;fill-rule:nonzero;stroke:none" transform="matrix(1.33333 0 0 -1.33333 916.461 856.688)"/><path d="M0 0c-2.889 0-5.593 1.817-6.633 4.527-1.079 2.813-.255 6.022 2.015 7.991 2.212 1.92 5.529 2.236 8.075.804 2.57-1.446 4.06-4.419 3.568-7.349C6.447 2.532 3.465.048 0 0c-1.929-.026-1.934-3.027 0-3 4.315.059 8.122 2.764 9.563 6.838 1.381 3.902.06 8.505-3.168 11.089-3.307 2.647-8.014 3.055-11.658.813-3.629-2.234-5.442-6.517-4.634-10.679C-8.998.424-4.688-3 0-3c1.93 0 1.934 3 0 3" clip-path="url(#Y)" style="fill:#000;fill-opacity:1;fill-rule:nonzero;stroke:none" transform="matrix(1.33333 0 0 -1.33333 916.461 854.688)"/></svg>