<svg xmlns="http://www.w3.org/2000/svg" width="1440" height="1440" viewBox="0 0 1440 1440"><defs><clipPath id="a" clipPathUnits="userSpaceOnUse"><path d="M-223.48 829.65h1080v-1080h-1080Z"/></clipPath><clipPath id="b" clipPathUnits="userSpaceOnUse"><path d="M-223.48 828.15h1080v-1080h-1080Z"/></clipPath><clipPath id="c" clipPathUnits="userSpaceOnUse"><path d="M-856.52 808.65h1080v-1080h-1080Z"/></clipPath><clipPath id="d" clipPathUnits="userSpaceOnUse"><path d="M-856.52 807.15h1080v-1080h-1080Z"/></clipPath><clipPath id="e" clipPathUnits="userSpaceOnUse"><path d="M-364.915 879.04h1080v-1080h-1080Z"/></clipPath><clipPath id="f" clipPathUnits="userSpaceOnUse"><path d="M-364.915 877.54h1080v-1080h-1080Z"/></clipPath><clipPath id="g" clipPathUnits="userSpaceOnUse"><path d="M-715.085 862.219h1080v-1080h-1080Z"/></clipPath><clipPath id="h" clipPathUnits="userSpaceOnUse"><path d="M-715.085 860.719h1080v-1080h-1080Z"/></clipPath><clipPath id="i" clipPathUnits="userSpaceOnUse"><path d="M-363.204 567.714h1080v-1080h-1080Z"/></clipPath><clipPath id="j" clipPathUnits="userSpaceOnUse"><path d="M-361.704 567.714h1080v-1080h-1080Z"/></clipPath><clipPath id="k" clipPathUnits="userSpaceOnUse"><path d="M-348.482 567.714h1080v-1080h-1080Z"/></clipPath><clipPath id="l" clipPathUnits="userSpaceOnUse"><path d="M-346.982 567.714h1080v-1080h-1080Z"/></clipPath><clipPath id="m" clipPathUnits="userSpaceOnUse"><path d="M-818.204 567.714h1080v-1080h-1080Z"/></clipPath><clipPath id="n" clipPathUnits="userSpaceOnUse"><path d="M-816.704 567.714h1080v-1080h-1080Z"/></clipPath><clipPath id="o" clipPathUnits="userSpaceOnUse"><path d="M-803.482 567.714h1080v-1080h-1080Z"/></clipPath><clipPath id="p" clipPathUnits="userSpaceOnUse"><path d="M-801.982 567.714h1080v-1080h-1080Z"/></clipPath><clipPath id="q" clipPathUnits="userSpaceOnUse"><path d="M-355.186 439.092h1080v-1080h-1080Z"/></clipPath><clipPath id="r" clipPathUnits="userSpaceOnUse"><path d="M-386.014 397.88h1080v-1080h-1080Z"/></clipPath><clipPath id="s" clipPathUnits="userSpaceOnUse"><path d="M-427.043 364.618h1080v-1080h-1080Z"/></clipPath><clipPath id="t" clipPathUnits="userSpaceOnUse"><path d="M-459.225 348.383h1080v-1080h-1080Z"/></clipPath><clipPath id="u" clipPathUnits="userSpaceOnUse"><path d="M-528.108 331.977h1080v-1080h-1080Z"/></clipPath><clipPath id="v" clipPathUnits="userSpaceOnUse"><path d="M-553.82 332.661h1080v-1080h-1080Z"/></clipPath><clipPath id="w" clipPathUnits="userSpaceOnUse"><path d="M-594.625 338.738h1080v-1080h-1080Z"/></clipPath><clipPath id="x" clipPathUnits="userSpaceOnUse"><path d="M-656.323 364.326h1080v-1080h-1080Z"/></clipPath><clipPath id="y" clipPathUnits="userSpaceOnUse"><path d="M-685.845 386.271h1080v-1080h-1080Z"/></clipPath><clipPath id="z" clipPathUnits="userSpaceOnUse"><path d="M-726.046 433.316h1080v-1080h-1080Z"/></clipPath><clipPath id="A" clipPathUnits="userSpaceOnUse"><path d="M-438.612 844.547h1080v-1080h-1080Z"/></clipPath><clipPath id="B" clipPathUnits="userSpaceOnUse"><path d="M-480.077 844.547h1080v-1080h-1080Z"/></clipPath><clipPath id="C" clipPathUnits="userSpaceOnUse"><path d="M-551.971 844.547h1080v-1080h-1080Z"/></clipPath><clipPath id="D" clipPathUnits="userSpaceOnUse"><path d="M-615.667 844.547h1080v-1080h-1080Z"/></clipPath><clipPath id="E" clipPathUnits="userSpaceOnUse"><path d="M-644.94 844.547h1080v-1080h-1080Z"/></clipPath><clipPath id="F" clipPathUnits="userSpaceOnUse"><path d="M-293.498 587.29h1080v-1080h-1080Z"/></clipPath><clipPath id="G" clipPathUnits="userSpaceOnUse"><path d="M-308.25 587.29h1080v-1080h-1080Z"/></clipPath><clipPath id="H" clipPathUnits="userSpaceOnUse"><path d="M-334.3 587.29h1080v-1080h-1080Z"/></clipPath><clipPath id="I" clipPathUnits="userSpaceOnUse"><path d="M-723.972 583.898h1080v-1080h-1080Z"/></clipPath><clipPath id="J" clipPathUnits="userSpaceOnUse"><path d="M-736.148 552.806h1080v-1080h-1080Z"/></clipPath><clipPath id="K" clipPathUnits="userSpaceOnUse"><path d="M-763.135 552.806h1080v-1080h-1080Z"/></clipPath><clipPath id="L" clipPathUnits="userSpaceOnUse"><path d="M-802.438 583.898h1080v-1080h-1080Z"/></clipPath><clipPath id="M" clipPathUnits="userSpaceOnUse"><path d="M-589.132 406.217h1080v-1080h-1080Z"/></clipPath><clipPath id="N" clipPathUnits="userSpaceOnUse"><path d="M-633.533 426.96h1080v-1080h-1080Z"/></clipPath><clipPath id="O" clipPathUnits="userSpaceOnUse"><path d="M-589.132 404.717h1080v-1080h-1080Z"/></clipPath><clipPath id="P" clipPathUnits="userSpaceOnUse"><path d="M-573.49 527.083h1080v-1080h-1080Z"/></clipPath><clipPath id="Q" clipPathUnits="userSpaceOnUse"><path d="M-573.49 525.583h1080v-1080h-1080Z"/></clipPath><clipPath id="R" clipPathUnits="userSpaceOnUse"><path d="M-492.056 551.235h1080v-1080h-1080Z"/></clipPath><clipPath id="S" clipPathUnits="userSpaceOnUse"><path d="M-492.455 549.788h1080v-1080h-1080Z"/></clipPath><clipPath id="T" clipPathUnits="userSpaceOnUse"><path d="M-548.435 481.017h1080v-1080h-1080Z"/></clipPath><clipPath id="U" clipPathUnits="userSpaceOnUse"><path d="M-549.882 481.415h1080v-1080h-1080Z"/></clipPath><clipPath id="V" clipPathUnits="userSpaceOnUse"><path d="M-383.47 496.733h1080v-1080h-1080Z"/></clipPath><clipPath id="W" clipPathUnits="userSpaceOnUse"><path d="M-382.024 497.132h1080v-1080h-1080Z"/></clipPath><clipPath id="X" clipPathUnits="userSpaceOnUse"><path d="M-658.322 492.153h1080v-1080h-1080Z"/></clipPath><clipPath id="Y" clipPathUnits="userSpaceOnUse"><path d="M-669.013 505.164h1080v-1080h-1080Z"/></clipPath><clipPath id="Z" clipPathUnits="userSpaceOnUse"><path d="M-669.013 503.664h1080v-1080h-1080Z"/></clipPath><clipPath id="aa" clipPathUnits="userSpaceOnUse"><path d="M-621.572 650.12h1080v-1080h-1080Z"/></clipPath><clipPath id="ab" clipPathUnits="userSpaceOnUse"><path d="M-497.258 685.677h1080v-1080h-1080Z"/></clipPath><clipPath id="ac" clipPathUnits="userSpaceOnUse"><path d="M-495.963 686.434h1080v-1080h-1080Z"/></clipPath><clipPath id="ad" clipPathUnits="userSpaceOnUse"><path d="M-486.263 692.025h1080v-1080h-1080Z"/></clipPath><clipPath id="ae" clipPathUnits="userSpaceOnUse"><path d="M-484.968 692.782h1080v-1080h-1080Z"/></clipPath><clipPath id="af" clipPathUnits="userSpaceOnUse"><path d="M-607.073 685.677h1080v-1080h-1080Z"/></clipPath><clipPath id="ag" clipPathUnits="userSpaceOnUse"><path d="M-605.777 686.434h1080v-1080h-1080Z"/></clipPath><clipPath id="ah" clipPathUnits="userSpaceOnUse"><path d="M-596.078 692.025h1080v-1080h-1080Z"/></clipPath><clipPath id="ai" clipPathUnits="userSpaceOnUse"><path d="M-594.783 692.782h1080v-1080h-1080Z"/></clipPath><clipPath id="aj" clipPathUnits="userSpaceOnUse"><path d="M-422.775 505.563h1080v-1080h-1080Z"/></clipPath><clipPath id="ak" clipPathUnits="userSpaceOnUse"><path d="M-457.453 505.563h1080v-1080h-1080Z"/></clipPath><clipPath id="al" clipPathUnits="userSpaceOnUse"><path d="M-486.352 505.563h1080v-1080h-1080Z"/></clipPath><clipPath id="am" clipPathUnits="userSpaceOnUse"><path d="M-617.853 504.765h1080v-1080h-1080Z"/></clipPath><clipPath id="an" clipPathUnits="userSpaceOnUse"><path d="M-588.955 504.765h1080v-1080h-1080Z"/></clipPath><clipPath id="ao" clipPathUnits="userSpaceOnUse"><path d="M-536.33 505.164h1080v-1080h-1080Z"/></clipPath><clipPath id="ap" clipPathUnits="userSpaceOnUse"><path d="M-393.38 536.316h1080v-1080h-1080Z"/></clipPath><clipPath id="aq" clipPathUnits="userSpaceOnUse"><path d="M-400.898 565.214h1080v-1080h-1080Z"/></clipPath><clipPath id="ar" clipPathUnits="userSpaceOnUse"><path d="M-407.86 591.973h1080v-1080h-1080Z"/></clipPath><clipPath id="as" clipPathUnits="userSpaceOnUse"><path d="M-415.85 622.68h1080v-1080h-1080Z"/></clipPath><clipPath id="at" clipPathUnits="userSpaceOnUse"><path d="M-745.599 438.15h1080v-1080h-1080Z"/></clipPath><clipPath id="au" clipPathUnits="userSpaceOnUse"><path d="M-745.599 436.65h1080v-1080h-1080Z"/></clipPath><clipPath id="av" clipPathUnits="userSpaceOnUse"><path d="M-694.494 418.248h1080v-1080h-1080Z"/></clipPath><clipPath id="aw" clipPathUnits="userSpaceOnUse"><path d="M-700.274 418.248h1080v-1080h-1080Z"/></clipPath><clipPath id="ax" clipPathUnits="userSpaceOnUse"><path d="M-527.497 561.741h1080v-1080h-1080Z"/></clipPath><clipPath id="ay" clipPathUnits="userSpaceOnUse"><path d="M-526.05 561.342h1080v-1080h-1080Z"/></clipPath><clipPath id="az" clipPathUnits="userSpaceOnUse"><path d="M-499.938 557.594h1080v-1080h-1080Z"/></clipPath><clipPath id="aA" clipPathUnits="userSpaceOnUse"><path d="M-562.175 561.741h1080v-1080h-1080Z"/></clipPath><clipPath id="aB" clipPathUnits="userSpaceOnUse"><path d="M-560.729 561.342h1080v-1080h-1080Z"/></clipPath><clipPath id="aC" clipPathUnits="userSpaceOnUse"><path d="M-534.616 557.594h1080v-1080h-1080Z"/></clipPath><clipPath id="aD" clipPathUnits="userSpaceOnUse"><path d="M-516.381 601.613h1080v-1080h-1080Z"/></clipPath><clipPath id="aE" clipPathUnits="userSpaceOnUse"><path d="M-494.482 611.929h1080v-1080h-1080Z"/></clipPath><clipPath id="aF" clipPathUnits="userSpaceOnUse"><path d="M-495.928 612.327h1080v-1080h-1080Z"/></clipPath><clipPath id="aG" clipPathUnits="userSpaceOnUse"><path d="M-498.443 606.792h1080v-1080h-1080Z"/></clipPath><clipPath id="aH" clipPathUnits="userSpaceOnUse"><path d="M-503.237 613.967h1080v-1080h-1080Z"/></clipPath><clipPath id="aI" clipPathUnits="userSpaceOnUse"><path d="M-532.74 602.85h1080v-1080h-1080Z"/></clipPath><clipPath id="aJ" clipPathUnits="userSpaceOnUse"><path d="M-513.876 509.89h1080v-1080h-1080Z"/></clipPath><clipPath id="aK" clipPathUnits="userSpaceOnUse"><path d="M-515.323 509.491h1080v-1080h-1080Z"/></clipPath><clipPath id="aL" clipPathUnits="userSpaceOnUse"><path d="M-532.284 507.427h1080v-1080h-1080Z"/></clipPath><clipPath id="aM" clipPathUnits="userSpaceOnUse"><path d="M-533.73 507.825h1080v-1080h-1080Z"/></clipPath></defs><path d="M0 0h1080v1080H0Z" style="fill:#fff;fill-opacity:1;fill-rule:nonzero;stroke:none" transform="matrix(1.33333 0 0 -1.33333 0 1440)"/><path d="M0 0c-11.598 0-21 9.402-21 21 0 51.346 10.051 100.918 29.875 147.34C21.526 197.966 37.7 225.294 57.173 250H0c-11.598 0-21 9.402-21 21 0 95.3 34.948 184.958 98.406 252.46 30.971 32.945 67.07 58.826 107.294 76.923 41.749 18.784 86.1 28.307 131.82 28.307s90.071-9.523 131.82-28.307c40.224-18.097 76.324-43.978 107.294-76.923 63.458-67.502 98.407-157.16 98.407-252.46 0-11.598-9.403-21-21-21h-57.174c19.473-24.706 35.647-52.033 48.299-81.66 19.823-46.422 29.875-95.994 29.875-147.34 0-11.598-9.403-21-21-21z" clip-path="url(#a)" style="fill:#fdab23;fill-opacity:1;fill-rule:nonzero;stroke:none" transform="matrix(1.33333 0 0 -1.33333 297.973 1106.2)"/><path d="M0 0c-7.631.167-14.602 4.445-17.787 11.477-1.532 3.382-1.729 6.871-1.705 10.526q.044 6.862.329 13.716c.778 18.762 2.94 37.459 6.517 55.894 7.037 36.271 19.544 71.469 37.013 104.028a357.6 357.6 0 0 0 33.867 51.798c.763.972.35 2.561-1.061 2.561-18.996 0-38.015-.29-57.009 0-9.116.139-17.269 6.264-19.22 15.335-1.094 5.086-.422 10.751-.266 15.907a385 385 0 0 0 .905 17.215 375 375 0 0 0 11.361 67.665c11.469 43.403 30.923 84.594 57.386 120.872 27.751 38.045 63.106 70.629 103.781 94.431 43.718 25.583 93.185 40.84 143.785 43.735 51.659 2.955 103.602-6.655 150.727-28.042 43.28-19.643 81.821-48.693 113.284-84.261 29.887-33.786 53.19-73.282 68.509-115.7 7.637-21.149 13.32-42.999 17.011-65.179a376 376 0 0 0 4.112-34.627q.601-8.324.841-16.666c.151-5.248.867-11.089-.497-16.225-2.31-8.698-10.257-14.336-19.097-14.46-3.588-.05-7.181 0-10.769 0h-46.15c-1.417 0-1.824-1.589-1.061-2.561 40.607-51.697 66.426-114.507 74.712-179.677 2.022-15.908 3.394-32.211 3.023-48.262C652.29 8.669 643.809.192 632.963 0c-2.399-.042-4.802 0-7.201 0zc-1.93 0-1.934-3 0-3h621.347c3.555 0 7.11-.012 10.665 0 2.615.009 5.209.224 7.725 1.014a22.77 22.77 0 0 1 12.429 9.63c3.271 5.243 3.418 10.875 3.343 16.86-.828 65.706-18.79 130.879-52.561 187.318-7.855 13.128-16.572 25.709-26.021 37.739l-1.06-2.561h28.922c9.695 0 19.499-.433 29.187.02 8.779.412 16.653 5.952 19.946 14.111 1.824 4.519 1.647 9.187 1.578 13.968a385 385 0 0 1-.667 17.822c-1.417 23.343-4.948 46.569-10.625 69.258-11.174 44.661-30.72 87.213-57.639 124.58-28.032 38.911-63.796 72.292-105.146 96.68-44.239 26.093-94.365 41.652-145.661 44.684-52.406 3.099-105.064-6.714-152.859-28.415-44.477-20.194-84.044-50.331-116.04-87.181-30.045-34.604-53.281-74.887-68.398-118.139-7.667-21.937-13.24-44.596-16.688-67.575a386 386 0 0 1-3.635-35.002 387 387 0 0 1-.616-17.831c-.053-4.576-.061-8.909 1.744-13.207C-17.214 252.399-8.989 247.173 0 247c2.975-.057 5.958 0 8.933 0h48.24l-1.06 2.561C7.734 187.969-19.507 111.415-22.259 33.232c-.299-8.503-1.599-18.001 3.133-25.588C-14.974.987-7.773-2.83 0-3c1.931-.042 1.931 2.958 0 3" clip-path="url(#b)" style="fill:#000;fill-opacity:1;fill-rule:nonzero;stroke:none" transform="matrix(1.33333 0 0 -1.33333 297.973 1104.2)"/><path d="M0 0h-633.04c0 99.2 40.33 188.38 104.51 250h-104.51c0 185.95 141.71 336.69 316.52 336.69S0 435.95 0 250h-104.51C-40.33 188.38 0 99.2 0 0" clip-path="url(#c)" style="fill:#ff99f1;fill-opacity:1;fill-rule:nonzero;stroke:none" transform="matrix(1.33333 0 0 -1.33333 1142.026 1078.2)"/><path d="M0 0h-623.498c-2.761 0-5.717.3-8.466 0-.349-.038-.723 0-1.076 0l1.5-1.5c.054 37.263 5.765 74.416 17.309 109.862 10.998 33.769 27.224 65.811 48.049 94.584 11.546 15.953 24.529 30.835 38.713 44.493.942.908.222 2.561-1.061 2.561h-104.51l1.5-1.5c.044 35.043 5.093 69.997 15.313 103.53 9.753 32.002 24.152 62.558 42.725 90.39 18.072 27.079 40.108 51.51 65.317 72.122 25.057 20.488 53.317 37.152 83.498 48.874 30.658 11.908 63.221 18.721 96.086 20.033 33.062 1.32 66.259-2.835 97.949-12.362 30.933-9.3 60.255-23.661 86.737-42.139 26.586-18.551 50.247-41.238 70.16-66.807 20.473-26.287 36.98-55.693 48.923-86.791 12.39-32.264 19.922-66.35 22.4-100.818.622-8.664.921-17.346.932-26.032L0 250h-104.51c-1.281 0-2.004-1.652-1.061-2.561 25.166-24.232 46.398-52.366 62.904-83.154C-25.589 132.428-13.657 97.891-7.2 62.334-3.376 41.276-1.531 19.899-1.5-1.5c.003-1.93 3.003-1.934 3 0-.055 37.679-5.847 75.309-17.572 111.135-11.123 33.987-27.466 66.27-48.479 95.216a336.6 336.6 0 0 1-38.898 44.71L-104.51 247H0c.81 0 1.501.687 1.5 1.5-.045 35.438-5.17 70.844-15.547 104.743-9.864 32.22-24.39 63.032-43.134 91.04-18.324 27.379-40.625 52.107-66.191 72.901-25.114 20.427-53.261 37.019-83.414 48.825-30.993 12.135-63.969 19.048-97.224 20.422-33.586 1.389-67.392-2.847-99.573-12.571-31.155-9.414-60.732-23.905-87.393-42.557-26.901-18.82-50.825-41.766-70.943-67.7-20.413-26.314-36.857-55.597-48.872-86.652-12.617-32.613-20.234-67.099-22.784-101.967a369 369 0 0 1-.965-26.484 1.52 1.52 0 0 1 1.5-1.5h104.51l-1.061 2.561c-25.453-24.51-46.952-53.029-63.603-84.193-17.154-32.109-29.178-66.918-35.63-102.74-3.811-21.158-5.685-42.632-5.716-64.128a1.52 1.52 0 0 1 1.5-1.5h607.343c8.203 0 16.418-.132 24.621 0 .358.006.717 0 1.076 0 1.93 0 1.934 3 0 3" clip-path="url(#d)" style="fill:#000;fill-opacity:1;fill-rule:nonzero;stroke:none" transform="matrix(1.33333 0 0 -1.33333 1142.026 1076.2)"/><path d="M0 0c-38.813 0-70.389 31.576-70.389 70.39S-38.813 140.779 0 140.779h350.169c38.814 0 70.39-31.576 70.39-70.389 0-38.814-31.576-70.39-70.39-70.39Z" clip-path="url(#e)" style="fill:#fdab23;fill-opacity:1;fill-rule:nonzero;stroke:none" transform="matrix(1.33333 0 0 -1.33333 486.554 1172.053)"/><path d="M0 0c-30.868.149-58.661 21.299-66.597 51.237-8.01 30.213 5.976 62.767 33.262 77.926 10.285 5.713 21.836 8.58 33.582 8.616 1.987.006 3.973 0 5.96 0h320.515c7.49 0 14.979.003 22.469 0 23.571-.01 45.824-11.505 58.749-31.395 17.063-26.259 13.926-61.732-7.514-84.565-10.283-10.95-23.976-18.346-38.79-20.871C357.055.167 352.444 0 347.814 0zc-1.93 0-1.934-3 0-3h341.398c11.431 0 22.542.344 33.501 4.388 28.428 10.493 47.746 38.546 47.146 68.885-.6 30.385-21.019 57.767-49.94 67.083-10.346 3.332-20.73 3.423-31.39 3.423H15.1c-5.943 0-11.919.179-17.86-.053-30.332-1.188-57.338-22.088-66.099-51.16-8.879-29.464 2.61-61.942 27.711-79.59C-29.126 1.523-14.672-2.929 0-3c1.931-.009 1.933 2.991 0 3" clip-path="url(#f)" style="fill:#000;fill-opacity:1;fill-rule:nonzero;stroke:none" transform="matrix(1.33333 0 0 -1.33333 486.554 1170.053)"/><path d="M0 0h-350.169c-29.585 0-53.569 23.983-53.569 53.568s23.984 53.569 53.569 53.569H0c29.585 0 53.568-23.984 53.568-53.569S29.585 0 0 0" clip-path="url(#g)" style="fill:#4ccfe5;fill-opacity:1;fill-rule:nonzero;stroke:none" transform="matrix(1.33333 0 0 -1.33333 953.446 1149.625)"/><path d="M0 0h-348.634c-5.719 0-11.352.605-16.847 2.288-13.585 4.161-25.033 13.969-31.364 26.671-6.411 12.861-7.082 28.165-2.024 41.592 4.954 13.15 15.411 23.961 28.327 29.462 6.793 2.894 14.029 4.124 21.382 4.124H-4.622c1.519 0 3.039.006 4.558 0 12.55-.056 24.803-4.52 34.271-12.807 10.754-9.414 17.33-23.037 17.827-37.34.494-14.193-4.859-28.155-14.797-38.316C27.442 5.661 13.98.082 0 0c-1.93-.011-1.934-3.011 0-3 14.245.084 28.046 5.575 38.301 15.503 10.105 9.782 16.142 23.276 16.72 37.326 1.191 28.933-21.151 54.359-49.936 57.069-5.933.559-12.033.239-17.981.239H-328.51c-6.92 0-13.839.003-20.758 0-21.996-.012-42.403-12.569-51.316-32.905-5.706-13.02-6.197-28.121-1.178-41.444 4.871-12.93 14.587-23.814 26.969-29.986 7.867-3.921 16.467-5.793 25.237-5.802q3.297-.002 6.594 0H0c1.93 0 1.934 3 0 3" clip-path="url(#h)" style="fill:#000;fill-opacity:1;fill-rule:nonzero;stroke:none" transform="matrix(1.33333 0 0 -1.33333 953.446 1147.625)"/><path d="M0 0c0-32.157-26.068-58.225-58.225-58.225S-116.45-32.157-116.45 0s26.068 58.225 58.225 58.225S0 32.157 0 0" clip-path="url(#i)" style="fill:#fdab23;fill-opacity:1;fill-rule:nonzero;stroke:none" transform="matrix(1.33333 0 0 -1.33333 484.272 756.952)"/><path d="M0 0c-.035-11.783-3.686-23.297-10.511-32.911-6.566-9.249-16.003-16.472-26.662-20.359-11.222-4.093-23.625-4.562-35.118-1.292-11.01 3.132-20.877 9.646-28.185 18.444-7.374 8.878-11.909 20.062-12.798 31.568-.914 11.822 1.849 23.736 7.99 33.888 5.926 9.795 14.793 17.638 25.208 22.382 10.746 4.894 23.083 6.241 34.645 3.884 11.265-2.297 21.651-8.026 29.619-16.312C-7.781 30.941-2.476 20.215-.665 8.775-.206 5.874-.009 2.936 0 0c.006-1.93 3.006-1.934 3 0C2.963 12.327-.841 24.513-8.015 34.559c-7.014 9.82-16.874 17.378-28.203 21.547-11.732 4.317-24.852 4.772-36.871 1.349-11.577-3.296-22.077-10.165-29.717-19.469-7.756-9.446-12.476-21.075-13.455-33.263-.993-12.369 1.965-24.955 8.387-35.575 6.2-10.252 15.513-18.587 26.435-23.527C-70-59.551-57.11-61.002-44.8-58.53c11.851 2.38 22.874 8.502 31.223 17.235C-5.197-32.529.453-21.234 2.28-9.234 2.746-6.175 2.991-3.094 3 0 3.006 1.931.006 1.933 0 0" clip-path="url(#j)" style="fill:#000;fill-opacity:1;fill-rule:nonzero;stroke:none" transform="matrix(1.33333 0 0 -1.33333 482.272 756.952)"/><path d="M0 0c0-24.026-19.477-43.503-43.503-43.503S-87.006-24.026-87.006 0s19.477 43.503 43.503 43.503S0 24.026 0 0" clip-path="url(#k)" style="fill:#d2d11f;fill-opacity:1;fill-rule:nonzero;stroke:none" transform="matrix(1.33333 0 0 -1.33333 464.643 756.952)"/><path d="M0 0c-.069-17.445-11.157-33.543-27.64-39.488-16.579-5.979-35.434-.825-46.714 12.688-11.328 13.57-12.727 33.479-3.58 48.566 9.088 14.988 27.103 22.925 44.3 19.406 17.035-3.486 30.397-17.489 33.14-34.65C-.149 4.366-.009 2.182 0 0c.008-1.93 3.008-1.934 3 0-.074 18.739-11.944 35.762-29.529 42.266-17.653 6.53-38.215.928-50.156-13.597-12.002-14.599-13.667-35.74-3.839-51.949 9.78-16.131 29.037-24.533 47.52-20.819C-14.869-40.455-.32-25.29 2.452-6.981 2.802-4.667 2.991-2.341 3 0 3.008 1.931.008 1.933 0 0" clip-path="url(#l)" style="fill:#000;fill-opacity:1;fill-rule:nonzero;stroke:none" transform="matrix(1.33333 0 0 -1.33333 462.643 756.952)"/><path d="M0 0c0-32.157-26.068-58.225-58.225-58.225S-116.45-32.157-116.45 0s26.068 58.225 58.225 58.225S0 32.157 0 0" clip-path="url(#m)" style="fill:#fdab23;fill-opacity:1;fill-rule:nonzero;stroke:none" transform="matrix(1.33333 0 0 -1.33333 1090.938 756.952)"/><path d="M0 0c-.035-11.783-3.686-23.297-10.511-32.911-6.566-9.249-16.003-16.472-26.662-20.359-11.222-4.093-23.625-4.562-35.118-1.292-11.01 3.132-20.877 9.646-28.185 18.444-7.374 8.878-11.909 20.062-12.798 31.568-.914 11.822 1.849 23.736 7.99 33.888 5.926 9.795 14.793 17.638 25.208 22.382 10.746 4.894 23.083 6.241 34.645 3.884 11.265-2.297 21.651-8.026 29.619-16.312C-7.781 30.941-2.476 20.215-.665 8.775-.206 5.874-.009 2.936 0 0c.006-1.93 3.006-1.934 3 0C2.963 12.327-.841 24.513-8.015 34.559c-7.014 9.82-16.874 17.378-28.203 21.547-11.732 4.317-24.852 4.772-36.871 1.349-11.577-3.296-22.077-10.165-29.717-19.469-7.756-9.446-12.476-21.075-13.455-33.263-.993-12.369 1.965-24.955 8.387-35.575 6.2-10.252 15.513-18.587 26.435-23.527C-70-59.551-57.11-61.002-44.8-58.53c11.851 2.38 22.874 8.502 31.223 17.235C-5.197-32.529.453-21.234 2.28-9.234 2.746-6.175 2.991-3.094 3 0 3.006 1.931.006 1.933 0 0" clip-path="url(#n)" style="fill:#000;fill-opacity:1;fill-rule:nonzero;stroke:none" transform="matrix(1.33333 0 0 -1.33333 1088.938 756.952)"/><path d="M0 0c0-24.026-19.477-43.503-43.503-43.503S-87.006-24.026-87.006 0s19.477 43.503 43.503 43.503S0 24.026 0 0" clip-path="url(#o)" style="fill:#d2d11f;fill-opacity:1;fill-rule:nonzero;stroke:none" transform="matrix(1.33333 0 0 -1.33333 1071.31 756.952)"/><path d="M0 0c-.069-17.445-11.157-33.543-27.64-39.488-16.579-5.979-35.434-.825-46.714 12.688-11.328 13.57-12.727 33.479-3.58 48.566 9.088 14.988 27.103 22.925 44.3 19.406 17.035-3.486 30.397-17.489 33.14-34.65C-.149 4.366-.009 2.182 0 0c.008-1.93 3.008-1.934 3 0-.074 18.739-11.944 35.762-29.529 42.266-17.653 6.53-38.215.928-50.156-13.597-12.002-14.599-13.667-35.74-3.839-51.949 9.78-16.131 29.037-24.533 47.52-20.819C-14.869-40.455-.32-25.29 2.452-6.981 2.802-4.667 2.991-2.341 3 0 3.008 1.931.008 1.933 0 0" clip-path="url(#p)" style="fill:#000;fill-opacity:1;fill-rule:nonzero;stroke:none" transform="matrix(1.33333 0 0 -1.33333 1069.31 756.952)"/><path d="M5.921.003q-1.295-.001-1.29-1.28l-.005-9.673q.005-.661.08-1.075.066-.419.59-.665l13.479-6.178-.004-9.164-13.26-8.224q-.885-.502-.884-1.536v-18.866q.003-.833.096-1.22.1-.39.786-.846l13.524-9.158q.503-.295.937-.467.437-.184 1.105-.186l13.89-.003q1.29.004 1.29 1.28l.002 8.743q-.003 1.133-.77 1.545l-13.489 5.55v9.515l13.489 7.715q.771.357.77 1.634l.005 22.367q-.003.421-.138.882a1.03 1.03 0 0 1-.542.677L19.438-.62q-.31.155-.743.388-.434.235-.844.231zm0 0" aria-label="S" style="fill:#f6efdf;fill-opacity:1;fill-rule:nonzero;stroke:none" transform="matrix(.67747 -1.1484 1.258 .74213 461.493 605.946)"/><path d="M0 0q.21.354.213.859.005.506.015.858l.635 18.371q.016.469-.355.837a4 4 0 0 1-.76.597l-21.103 12.451q-1.214.714-1.946.252l-14.122-7.312-8.975 5.295 1.605 14.694q.005.894-1.064 1.524l-8.247 4.865q-1.213.715-1.866-.392l-7.055-11.958q-.339-.575-.391-1.052a7 7 0 0 1-.023-1.091l1.764-16.742q.097-.834.409-1.136.311-.304 1.088-.762l17.805-10.504q.97-.574 1.9-.105l14.503 6.847 8.636-5.095-1.024-15.037q-.018-.588.33-.882a7.4 7.4 0 0 1 .98-.668l9.12-5.38q1.214-.716 1.866.391z" clip-path="url(#q)" style="fill:none;stroke:#000;stroke-width:3;stroke-linecap:butt;stroke-linejoin:miter;stroke-miterlimit:10;stroke-dasharray:none;stroke-opacity:1" transform="matrix(1.33333 0 0 -1.33333 473.58 585.456)"/><path d="M17.74.002Q16.443 0 16.444-1.28l-.002-53.585-8.995-.007q-1.269.009-1.262-1.28l-.008-11.105q0-1.28 1.269-1.288l35.124.01q1.286-.004 1.288 1.275l.008 11.105q-.008 1.29-1.295 1.294h-9.003l.003 53.585q-.002 1.28-1.277 1.28zm0 0" aria-label="T" style="fill:#f6efdf;fill-opacity:1;fill-rule:nonzero;stroke:none" transform="rotate(-48.008 874.53 -264.3)scale(1.33333 1.46058)"/><path d="M0 0q.861.956-.187 1.897L-43.81 41.166l6.021 6.688q.86.954-.187 1.897l-9.043 8.141q-1.045.941-1.906-.014l-23.497-26.103q-.86-.955.187-1.897l9.042-8.14q1.048-.943 1.907.013l6.021 6.688 43.623-39.268q1.047-.942 1.907.014z" clip-path="url(#r)" style="fill:none;stroke:#000;stroke-width:3;stroke-linecap:butt;stroke-linejoin:miter;stroke-miterlimit:10;stroke-dasharray:none;stroke-opacity:1" transform="matrix(1.33333 0 0 -1.33333 514.686 530.507)"/><path d="M19.382.005Q18.191 0 17.342-.873L7.042-11.16q-.867-.828-.87-2.053l.004-42.172q-.005-1.182.865-2.054l10.29-10.275a2.86 2.86 0 0 1 2.057-.825l20.216-.003q1.229-.005 2.038.825l10.29 10.28q.864.87.87 2.052l-.004 42.172q0 1.224-.865 2.054L41.653-.876q-.828.87-2.055.877zm6.068-13.732 8.08-.002q2.158.005 2.156-2.88l-.001-35.332q.005-2.928-2.154-2.936l-8.08.002q-2.106.003-2.112 2.933l.001 35.332q.002 2.884 2.11 2.883m0 0" aria-label="O" style="fill:#f6efdf;fill-opacity:1;fill-rule:nonzero;stroke:none" transform="matrix(1.0985 -.7557 .82782 1.20333 525.895 516.078)"/><path d="M0 0q1.017.699 1.151 1.955l2.087 15.11q.21 1.238-.555 2.352l-26.18 38.054a3.23 3.23 0 0 1-1.997 1.36l-14.858 3.453q-1.188.276-2.205-.424l-16.65-11.453q-.973-.67-1.184-1.908l-2.087-15.11a3.24 3.24 0 0 1 .557-2.352l26.179-38.054q.766-1.114 1.997-1.361l14.858-3.452q1.264-.294 2.237.377zm-23.7 5.78-21.931 31.882q-1.822 2.645-.083 3.84l6.65 4.576q1.78 1.224 3.599-1.422l21.933-31.882q1.788-2.598.009-3.822l-6.652-4.576Q-21.911 3.181-23.7 5.78Z" clip-path="url(#s)" style="fill:none;stroke:#000;stroke-width:3;stroke-linecap:butt;stroke-linejoin:miter;stroke-miterlimit:10;stroke-dasharray:none;stroke-opacity:1" transform="matrix(1.33333 0 0 -1.33333 569.39 486.158)"/><path d="M7.449.001Q6.177.006 6.176-1.277l.003-65.978q.007-1.278 1.276-1.285l27.889-.003q1.227.004 2.043.664l11.822 11.732q.576.51.701.873.135.369.131 1.19l.004 14.093q-.004.663-.52 1.158l-5.658 5.509-4.778 4.12 5.644 7.513L50.54-9.245q.223.456.345.887.129.435.126 1.05l-.003 6.02q0 1.285-1.287 1.282l-13.568.001Q35.01 0 34.613-1.032L26.326-25.09l-3.861-.003.001 23.81Q22.47.002 21.191.004zm20.68-37.684q4.26.004 5.805-1.772 1.546-1.785 1.55-6.661.002-4.945-1.55-6.72-1.545-1.773-5.804-1.777-4.226-.002-5.82 1.778-1.591 1.772-1.596 6.714-.002 4.877 1.59 6.653 1.598 1.784 5.826 1.785m0 0" aria-label="R" style="fill:#f6efdf;fill-opacity:1;fill-rule:nonzero;stroke:none" transform="matrix(1.2461 -.47438 .51965 1.36501 585.901 474.56)"/><path d="M0 0q1.202.458.7 1.774l-9.277 24.373 3.602 1.373L12.142 5.828q.785-.905 1.843-.504l12.687 4.83q1.201.457.7 1.774l-2.345 6.159a4.6 4.6 0 0 1-.531 1.033 9 9 0 0 1-.663.803l-10.28 10.672-8.212 5.674 2.866 5.912 3.142 7.645q.28.71.02 1.394L5.877 65.644q-.32.84-.581 1.165-.261.321-.989.648l-15.622 7.794q-1.03.391-2.183-.047l-26.047-9.916q-1.201-.458-.701-1.773l25.713-67.54q.5-1.316 1.703-.859zm-14.324 40.807q-2.18 1.248-4.085 6.25-1.923 5.053-1.125 7.436.797 2.384 4.739 3.884 3.988 1.518 6.122.251 2.132-1.267 4.056-6.321 1.905-5 1.155-7.366-.752-2.366-4.739-3.883-3.941-1.502-6.123-.251z" clip-path="url(#t)" style="fill:none;stroke:#000;stroke-width:3;stroke-linecap:butt;stroke-linejoin:miter;stroke-miterlimit:10;stroke-dasharray:none;stroke-opacity:1" transform="matrix(1.33333 0 0 -1.33333 612.3 464.51)"/><path d="M7.447-.005q-1.27.009-1.266-1.28v-65.973q0-1.273 1.267-1.281h35.85q1.277.007 1.278 1.281v11.11q0 1.277-1.278 1.27l-19.998.009.004 14.613H41.56q1.278-.002 1.278 1.282l-.003 9.402q-.002 1.29-1.281 1.291H23.297v14.558l20-.008q1.274.006 1.275 1.292l.005 11.154c-.002.86-.428 1.284-1.28 1.28zm0 0" aria-label="E" style="fill:#f6efdf;fill-opacity:1;fill-rule:nonzero;stroke:none" transform="rotate(-8.194 3470.747 -4290.97)scale(1.33333 1.46058)"/><path d="M0 0q1.273.183 1.072 1.576L-.67 13.675q-.201 1.394-1.473 1.211l-19.799-2.851-2.272 15.777 18.068 2.603q1.273.182 1.072 1.577l-1.469 10.202q-.202 1.394-1.474 1.211l-18.067-2.602-2.281 15.834 19.799 2.851q1.271.184 1.071 1.576l-1.734 12.043q-.2 1.395-1.473 1.211l-35.473-5.108q-1.274-.183-1.073-1.577l10.3-71.53q.2-1.394 1.474-1.211z" clip-path="url(#u)" style="fill:none;stroke:#000;stroke-width:3;stroke-linecap:butt;stroke-linejoin:miter;stroke-miterlimit:10;stroke-dasharray:none;stroke-opacity:1" transform="matrix(1.33333 0 0 -1.33333 704.144 442.635)"/><path d="M7.456.002q-1.282-.004-1.284-1.29l.008-65.968q-.005-1.285 1.276-1.282l35.222-.004q1.29.003 1.296 1.288l-.008 11.104q.002 1.287-1.288 1.283H23.294v17.18l16.825.005q1.266.005 1.271 1.279l-.008 11.104q.004 1.286-1.264 1.282l-16.825-.004L23.29-1.29q.002 1.287-1.287 1.294zm0 0" aria-label="F" style="fill:#f6efdf;fill-opacity:1;fill-rule:nonzero;stroke:none" transform="rotate(3.498 -6878.22 11831.397)scale(1.33333 1.46058)"/><path d="M0 0q1.281-.078 1.369 1.327l1.519 24.851 16.783-1.027q1.283-.078 1.37 1.328l.742 12.144q.084 1.406-1.198 1.484L3.802 41.133 4.95 59.911l19.35-1.182q1.283-.079 1.368 1.327l.743 12.144q.085 1.406-1.197 1.484l-35.157 2.149q-1.283.079-1.37-1.326l-4.41-72.135Q-15.808.966-14.526.889z" clip-path="url(#v)" style="fill:none;stroke:#000;stroke-width:3;stroke-linecap:butt;stroke-linejoin:miter;stroke-miterlimit:10;stroke-dasharray:none;stroke-opacity:1" transform="matrix(1.33333 0 0 -1.33333 738.426 443.548)"/><path d="M7.458-.008Q6.17.001 6.177-1.285v-65.97q-.01-1.282 1.277-1.295l27.88.006q1.228.005 2.046.665l11.827 11.724q.58.521.7.88.13.355.125 1.188l.007 14.081q-.008.669-.509 1.18l-5.667 5.505-4.784 4.109 5.66 7.516L50.552-9.25a8 8 0 0 1 .328.894q.13.433.13 1.044l.003 6.02Q51.004-.004 49.72-.004H36.15Q35.01 0 34.607-1.03L26.34-25.095l-3.863-.002V-1.29q-.006 1.287-1.291 1.287zm20.666-37.686q4.264.004 5.812-1.77 1.545-1.78 1.543-6.66.005-4.936-1.546-6.713-1.55-1.776-5.815-1.777-4.22-.001-5.809 1.78-1.582 1.782-1.587 6.716.002 4.882 1.59 6.657 1.593 1.766 5.812 1.767m0 0" aria-label="R" style="fill:#f6efdf;fill-opacity:1;fill-rule:nonzero;stroke:none" transform="rotate(15.269 -1274.24 3077.938)scale(1.33333 1.46058)"/><path d="M0 0q1.24-.34 1.611 1.02L8.48 26.179l3.72-1.016 1.045-27.611q.1-1.195 1.191-1.492l13.096-3.576q1.24-.338 1.612 1.02l1.734 6.357q.178.653.18 1.149.001.496-.062 1.039l-2.017 14.68-3.29 9.423 5.8 3.088 7.044 4.324q.643.408.837 1.116l4.066 14.888q.236.87.215 1.284-.02.412-.417 1.107l-8.027 15.504q-.601.922-1.792 1.247L6.53 76.05q-1.241.338-1.612-1.02L-14.113 5.312q-.371-1.359.869-1.697zm12.477 41.407q-1.027 2.295.383 7.457 1.424 5.217 3.473 6.672t6.118.345q4.118-1.125 5.093-3.405.977-2.282-.447-7.498-1.409-5.163-3.41-6.631-2-1.468-6.116-.344-4.068 1.11-5.094 3.404z" clip-path="url(#w)" style="fill:none;stroke:#000;stroke-width:3;stroke-linecap:butt;stroke-linejoin:miter;stroke-miterlimit:10;stroke-dasharray:none;stroke-opacity:1" transform="matrix(1.33333 0 0 -1.33333 792.833 451.651)"/><path d="M19.385 0q-1.192 0-2.047-.889L7.035-11.159q-.86-.823-.855-2.06l-.007-42.168q0-1.172.866-2.048l10.298-10.294a2.9 2.9 0 0 1 2.052-.812l20.214-.001q1.233.004 2.044.816l10.288 10.29q.866.884.866 2.056l.006 42.167q-.006 1.235-.875 2.053L41.648-.886q-.818.888-2.049.884zm6.074-13.728 8.066-.001q2.154.003 2.157-2.88l-.003-35.33q0-2.928-2.157-2.933h-8.067q-2.114.002-2.112 2.931l.002 35.33q-.001 2.885 2.114 2.883m0 0" aria-label="O" style="fill:#f6efdf;fill-opacity:1;fill-rule:nonzero;stroke:none" transform="matrix(1.16794 .6432 -.70458 1.2794 828.855 460.302)"/><path d="M0 0q1.082-.595 2.264-.154l14.444 4.907q1.199.368 1.851 1.552l22.283 40.46a3.24 3.24 0 0 1 .32 2.395l-3.574 14.829q-.286 1.186-1.366 1.782L18.52 75.52q-1.036.569-2.236.202L1.84 70.814a3.23 3.23 0 0 1-1.852-1.551l-22.281-40.459q-.653-1.185-.322-2.396l3.573-14.829q.304-1.26 1.341-1.831zm-5.456 23.775 18.668 33.897q1.548 2.813 3.395 1.796l7.072-3.895q1.891-1.042.342-3.854L5.354 17.822q-1.522-2.764-3.414-1.721l-7.071 3.894q-1.848 1.017-.325 3.78z" clip-path="url(#x)" style="fill:none;stroke:#000;stroke-width:3;stroke-linecap:butt;stroke-linejoin:miter;stroke-miterlimit:10;stroke-dasharray:none;stroke-opacity:1" transform="matrix(1.33333 0 0 -1.33333 875.098 485.768)"/><path d="M7.453.004Q6.165 0 6.171-1.289l.001-65.97c-.002-.852.421-1.276 1.28-1.274l29.213.004q1.227-.001 2.056.812l10.285 10.289q.87.872.87 2.036l.003 54.1q-.005 1.287-1.28 1.29L34.038 0q-1.288-.005-1.282-1.293V-54.87l-9.461.003v53.579Q23.288-.002 22.014 0zm0 0" aria-label="N" style="fill:#f6efdf;fill-opacity:1;fill-rule:nonzero;stroke:none" transform="matrix(.9773 .907 -.99356 1.07057 892.95 495.068)"/><path d="M0 0q.942-.875 1.9.158l39.926 43.021 6.935-6.437L8.835-6.279q-.959-1.032-.016-1.907l10.667-9.899q.941-.873 1.9.158l40.309 43.435q.881.948.892 2.246l.126 15.252q.01 1.221-.895 2.06L40.41 64.935q-.943.874-1.9-.158l-49.161-52.972q-.958-1.032-.016-1.907z" clip-path="url(#y)" style="fill:none;stroke:#000;stroke-width:3;stroke-linecap:butt;stroke-linejoin:miter;stroke-miterlimit:10;stroke-dasharray:none;stroke-opacity:1" transform="matrix(1.33333 0 0 -1.33333 914.46 515.029)"/><path d="M17.742-.004q-1.292.003-1.289-1.276l.003-53.587-9.004-.002q-1.273.001-1.282-1.285l.01-11.109q-.007-1.284 1.266-1.284l35.126.002q1.29-.001 1.3 1.282l-.012 11.109q.006 1.284-1.282 1.287l-9.003-.002-.002 53.587c-.003.851-.428 1.28-1.276 1.278zm0 0" aria-label="T" style="fill:#f6efdf;fill-opacity:1;fill-rule:nonzero;stroke:none" transform="rotate(55.86 -39.342 1161.283)scale(1.33333 1.46058)"/><path d="M0 0q.721-1.064 1.888-.274l48.579 32.94 5.05-7.448q.721-1.064 1.887-.274l10.07 6.828q1.165.791.444 1.855l-19.71 29.067q-.72 1.065-1.886.275l-10.071-6.828q-1.166-.792-.443-1.855l5.049-7.448-48.579-32.94q-1.165-.789-.444-1.854Z" clip-path="url(#z)" style="fill:none;stroke:#000;stroke-width:3;stroke-linecap:butt;stroke-linejoin:miter;stroke-miterlimit:10;stroke-dasharray:none;stroke-opacity:1" transform="matrix(1.33333 0 0 -1.33333 968.061 577.755)"/><path d="M19.816 0q-1.209 0-2.11-.89L7.196-11.403q-.891-.844-.89-2.11v-43.09q-.001-1.204.89-2.097l10.512-10.512q.9-.843 2.109-.844h20.648q1.264 0 2.098.844L53.075-58.7q.901.893.902 2.097v43.09q-.001 1.266-.902 2.11L42.562-.891q-.834.892-2.098.891zm6.2-14.027h8.25q2.201.001 2.202-2.942v-36.105q0-2.998-2.203-3h-8.25q-2.157.002-2.156 3v36.105q0 2.943 2.156 2.942M67.845 0q-1.314 0-1.313-1.313v-67.43q-.001-1.31 1.312-1.312h28.489q1.252.002 2.097.68l12.094 11.988q.57.529.703.903.128.364.129 1.195v14.402q0 .68-.516 1.207l-5.789 5.625-4.886 4.207 5.789 7.676 5.93 12.715q.208.47.34.914.14.447.14 1.078v6.152Q112.363.001 111.052 0H97.177q-1.16 0-1.582-1.055l-8.46-24.586h-3.938v24.328Q83.195.001 81.884 0zm21.128-38.52q4.358.002 5.93-1.816 1.582-1.815 1.582-6.809 0-5.036-1.582-6.855-1.572-1.816-5.93-1.816-4.315 0-5.941 1.816-1.63 1.82-1.63 6.855 0 4.995 1.63 6.809 1.626 1.818 5.941 1.816M121.72 0q-1.313 0-1.312-1.313v-67.43q-.001-1.31 1.312-1.312h32.051q1.266 0 2.11.844l10.511 10.512q.889.893.89 2.097v43.09q-.001 1.266-.89 2.11L155.88-.891q-.843.892-2.109.891zm16.242-14.027h9.61q2.214.001 2.215-2.942v-36.105q0-2.998-2.215-3h-9.61zM180.837 0q-1.313 0-1.312-1.313v-67.43q-.001-1.31 1.312-1.312h36.633q1.311.002 1.313 1.313v11.355q-.002 1.313-1.313 1.313h-20.449v14.93h18.656q1.324.001 1.324 1.312v9.61q0 1.325-1.324 1.324h-18.656v14.87h20.45q1.31.002 1.312 1.313v11.402Q218.78.001 217.47 0zm51.82 0q-1.312 0-1.312-1.313v-67.43q0-1.31 1.313-1.312h28.488q1.253.002 2.098.68l12.093 11.988q.572.529.704.903.128.364.128 1.195v14.402q0 .68-.515 1.207l-5.79 5.625-4.886 4.207 5.79 7.676 5.929 12.715q.209.47.34.914.14.447.14 1.078v6.152Q277.175.001 275.865 0H261.99q-1.16 0-1.582-1.055l-8.461-24.586h-3.938v24.328Q248.007.001 246.697 0zm21.13-38.52q4.357.002 5.93-1.816 1.581-1.815 1.581-6.809 0-5.036-1.582-6.855-1.57-1.816-5.93-1.816-4.315 0-5.94 1.816-1.631 1.82-1.63 6.855-.001 4.995 1.63 6.809 1.625 1.818 5.94 1.816m0 0" aria-label="ORDER" style="fill:#d2d11f;fill-opacity:1;fill-rule:nonzero;stroke:none" transform="translate(530.86 1126.063)scale(1.33333)"/><path d="M0 0q1.262 0 2.102.894l10.511 10.51q.893.841.894 2.103v43.095q0 1.207-.894 2.102L2.102 69.215q-.84.84-2.102.841h-20.654a2.97 2.97 0 0 1-2.102-.841l-10.511-10.511q-.894-.895-.894-2.102V13.507q0-1.261.894-2.103L-22.756.894q.893-.895 2.102-.894Zm-16.607 16.976V53.08q0 2.996 2.154 2.996h8.251q2.208 0 2.208-2.996V16.976q0-2.944-2.208-2.944h-8.251q-2.155 0-2.154 2.944z" clip-path="url(#A)" style="fill:none;stroke:#000;stroke-width:3;stroke-linecap:butt;stroke-linejoin:miter;stroke-miterlimit:10;stroke-dasharray:none;stroke-opacity:1" transform="matrix(1.33333 0 0 -1.33333 584.816 1126.063)"/><path d="M0 0q1.313 0 1.313 1.313v24.333h3.942l8.462-24.595Q14.137 0 15.293 0h13.875q1.313 0 1.314 1.313v6.15q0 .63-.132 1.077a7.5 7.5 0 0 1-.341.92L24.07 22.178l-5.781 7.674 4.888 4.204 5.781 5.623q.525.525.525 1.209v14.4q0 .84-.131 1.209-.132.366-.71.893L16.555 69.373q-.842.682-2.102.683h-28.485q-1.315 0-1.314-1.314V1.313Q-15.346 0-14.032 0Zm1.156 40.336q-1.629 1.813-1.629 6.806 0 5.044 1.629 6.858 1.63 1.813 5.939 1.813 4.36 0 5.939-1.813 1.576-1.814 1.576-6.858 0-4.993-1.576-6.806-1.578-1.814-5.939-1.814-4.31 0-5.939 1.814z" clip-path="url(#B)" style="fill:none;stroke:#000;stroke-width:3;stroke-linecap:butt;stroke-linejoin:miter;stroke-miterlimit:10;stroke-dasharray:none;stroke-opacity:1" transform="matrix(1.33333 0 0 -1.33333 640.103 1126.063)"/><path d="M0 0q1.261 0 2.103.894l10.51 10.51q.893.841.894 2.103v43.095q0 1.207-.894 2.102L2.103 69.215q-.841.84-2.103.841h-32.059q-1.314 0-1.314-1.314V1.313Q-33.373 0-32.059 0Zm-15.819 56.076h9.618q2.207 0 2.207-2.996V16.976q0-2.944-2.207-2.944h-9.618z" clip-path="url(#C)" style="fill:none;stroke:#000;stroke-width:3;stroke-linecap:butt;stroke-linejoin:miter;stroke-miterlimit:10;stroke-dasharray:none;stroke-opacity:1" transform="matrix(1.33333 0 0 -1.33333 735.962 1126.063)"/><path d="M0 0q1.313 0 1.313 1.313v11.406q0 1.313-1.313 1.313h-20.444v14.873h18.657q1.313 0 1.314 1.314v9.618q0 1.313-1.314 1.313h-18.657v14.926H0q1.313 0 1.313 1.314v11.352q0 1.313-1.313 1.314h-36.631q-1.314 0-1.314-1.314V1.313Q-37.945 0-36.631 0Z" clip-path="url(#D)" style="fill:none;stroke:#000;stroke-width:3;stroke-linecap:butt;stroke-linejoin:miter;stroke-miterlimit:10;stroke-dasharray:none;stroke-opacity:1" transform="matrix(1.33333 0 0 -1.33333 820.89 1126.063)"/><path d="M0 0q1.313 0 1.313 1.313v24.333h3.942l8.462-24.595Q14.137 0 15.293 0h13.875q1.313 0 1.313 1.313v6.15q0 .63-.13 1.077a8 8 0 0 1-.342.92L24.07 22.178l-5.781 7.674 4.888 4.204 5.781 5.623q.525.525.525 1.209v14.4q-.001.84-.131 1.209-.133.366-.709.893L16.555 69.373q-.841.682-2.103.683h-28.484q-1.315 0-1.314-1.314V1.313Q-15.346 0-14.032 0Zm1.156 40.336q-1.63 1.813-1.63 6.806 0 5.044 1.63 6.858 1.628 1.813 5.939 1.813 4.362 0 5.938-1.813 1.577-1.814 1.577-6.858 0-4.993-1.577-6.806-1.576-1.814-5.938-1.814-4.31 0-5.939 1.814z" clip-path="url(#E)" style="fill:none;stroke:#000;stroke-width:3;stroke-linecap:butt;stroke-linejoin:miter;stroke-miterlimit:10;stroke-dasharray:none;stroke-opacity:1" transform="matrix(1.33333 0 0 -1.33333 859.92 1126.063)"/><path d="M4.208-.001q-.729.002-.727-.727V-37.98q-.002-.726.727-.727h20.238q.725 0 .726.727v6.269q0 .728-.726.727H13.16v8.25h10.3q.726 0 .727.726v5.309q0 .727-.727.726h-10.3v8.215h11.285q.725 0 .726.727v6.304q0 .729-.726.727zm27.732 0q-.716.002-.715-.727v-4.699q0-.667.434-.879l5.918-3.515v-3.012l-5.918-3.2q-.434-.255-.434-.902v-9.257q-.001-.315.094-.516.104-.21.305-.352l6.187-4.535c.211-.155.38-.252.516-.293q.209-.058.41-.058h7.055q.725 0 .726.726v4.559q0 .492-.07.668t-.305.293l-5.484 2.965v3.363l5.86 2.906q.501.201.503.867v8.918q-.002.73-.504 1.16L40.342-.376q-.47.377-1.16.375zm27.823 0q-.668 0-1.16-.492L53.751-5.31a1.7 1.7 0 0 1-.457-1.171v-18.692h-1.218q-.729.002-.727-.726v-5.32q-.002-.727.727-.727h1.218v-3.633q-.002-.714.727-.715h7.723q.725.001.726.715v3.633h2.813q.725 0 .726.726v5.32q0 .729-.726.727H62.47v15.504q-.001.553.34.902l2.848 2.871q.291.26.293.868v4.3q0 .729-.727.727zm0 0" aria-label="Est" style="fill:#f6efdf;fill-opacity:1;fill-rule:nonzero;stroke:none" transform="translate(358.726 783.052)scale(1.33333)"/><path d="M0 0q.725 0 .726.726v6.302q0 .726-.726.726h-11.297v8.219H-.988q.726 0 .726.726v5.315q0 .725-.726.725h-10.309v8.248H0q.725 0 .726.726v6.273q0 .726-.726.726h-20.242q-.726 0-.726-.726V.726q0-.726.726-.726Z" clip-path="url(#F)" style="fill:none;stroke:#000;stroke-width:3;stroke-linecap:butt;stroke-linejoin:miter;stroke-miterlimit:10;stroke-dasharray:none;stroke-opacity:1" transform="matrix(1.33333 0 0 -1.33333 391.33 783.052)"/><path d="M0 0q.697 0 1.162.378l6.186 5.14q.493.436.493 1.162v8.916q0 .666-.493.871l-5.867 2.904v3.368l5.489 2.963q.233.116.305.29.073.174.073.668v4.56q0 .725-.726.725H-.436q-.203 0-.406-.057-.204-.058-.523-.291l-6.186-4.531a.9.9 0 0 1-.304-.348 1.15 1.15 0 0 1-.103-.523v-9.263q0-.64.437-.901l5.924-3.195v-3.02l-5.924-3.514q-.437-.204-.437-.871V.726q0-.726.727-.726Z" clip-path="url(#G)" style="fill:none;stroke:#000;stroke-width:3;stroke-linecap:butt;stroke-linejoin:miter;stroke-miterlimit:10;stroke-dasharray:none;stroke-opacity:1" transform="matrix(1.33333 0 0 -1.33333 411 783.052)"/><path d="M0 0q.725 0 .726.726v4.298q0 .61-.29.872l-2.847 2.875q-.348.348-.348.9v15.508H.058q.726 0 .726.726v5.315q0 .725-.726.725h-2.817v3.631q0 .726-.726.726h-7.725q-.726 0-.726-.726v-3.631h-1.22q-.726 0-.726-.725v-5.315q0-.726.726-.726h1.22V6.477q0-.67.464-1.163l4.85-4.82Q-6.128 0-5.46 0Z" clip-path="url(#H)" style="fill:none;stroke:#000;stroke-width:3;stroke-linecap:butt;stroke-linejoin:miter;stroke-miterlimit:10;stroke-dasharray:none;stroke-opacity:1" transform="matrix(1.33333 0 0 -1.33333 445.734 783.052)"/><path d="M4.946 0Q4.36.002 4.36-.586v-24.422l-3.129.117q-.574.002-.574-.586v-5.039c0-.38.19-.574.574-.574h10.313q.585.002.586.574v29.93q0 .588-.586.586zm28.18-31.09q.55.001.927.399l4.664 4.664q.396.363.398.925v17.45a.87.87 0 0 1-.351.703L30.256-.234q-.26.236-.703.234h-5.836q-.575.002-.574-.586v-2.941q0-.41.351-.692l7.758-5.765v-1.278h-8.297a1.23 1.23 0 0 1-.937-.398l-3.891-3.879a1.26 1.26 0 0 1-.399-.926v-8.637q0-.561.399-.925l4.664-4.664q.397-.397.926-.399zm-4.698 5.988q-2.052 0-2.778.903-.715.893-.714 3.433 0 2.544.714 3.457.726.915 2.778.915 2.038 0 2.765-.915.74-.913.739-3.457 0-2.54-.739-3.433-.728-.901-2.765-.903m31.664-5.988q.548.001.926.399l4.664 4.664q.396.363.398.925v17.45a.87.87 0 0 1-.352.703L57.221-.234q-.26.236-.703.234h-5.836q-.575.002-.575-.586v-2.941q0-.41.352-.692l7.758-5.765v-1.278H49.92a1.23 1.23 0 0 1-.938-.398l-3.89-3.879a1.26 1.26 0 0 1-.399-.926v-8.637q0-.561.399-.925l4.664-4.664q.397-.397.926-.399zm-4.7 5.988q-2.052 0-2.777.903-.715.893-.715 3.433 0 2.544.715 3.457.726.915 2.778.915 2.037 0 2.765-.915.738-.913.738-3.457 0-2.54-.738-3.433-.728-.901-2.765-.903M73.944 0q-1.336.001-1.816-.55-.47-.55-.469-1.594v-26.778q-.001-1.053.469-1.594.48-.55 1.816-.55l16.02-.07q1.359 0 1.816.55.467.539.469 1.594v26.848q-.001 1.045-.469 1.593-.457.553-1.816.551Zm5.485-5.836h5.062v-19.476h-5.062zm0 0" aria-label="1990" style="fill:#f6efdf;fill-opacity:1;fill-rule:nonzero;stroke:none" transform="translate(949.901 778.531)scale(1.33333)"/><path d="M0 0q.583 0 .583.583V30.51q0 .582-.583.583h-10.31q-.582 0-.583-.583v-5.039q0-.582.583-.583l3.126.117V.583q0-.583.583-.583Z" clip-path="url(#I)" style="fill:none;stroke:#000;stroke-width:3;stroke-linecap:butt;stroke-linejoin:miter;stroke-miterlimit:10;stroke-dasharray:none;stroke-opacity:1" transform="matrix(1.33333 0 0 -1.33333 965.296 778.531)"/><path d="M0 0a1.28 1.28 0 0 1-.934-.396l-4.665-4.666a1.23 1.23 0 0 1-.396-.933v-8.63q0-.537.396-.933l3.896-3.872q.373-.397.933-.397h8.304v-1.282l-7.767-5.762a.86.86 0 0 1-.35-.7v-2.939q0-.583.583-.583h5.831q.442 0 .7.234l8.514 6.717q.35.28.35.7v17.447q0 .56-.397.933L10.333-.396A1.23 1.23 0 0 1 9.399 0Zm7.476-6.893q.734-.899.734-3.44 0-2.543-.734-3.452-.736-.91-2.764-.91-2.053 0-2.776.91-.724.91-.723 3.452 0 2.541.723 3.44.723.898 2.776.898 2.028 0 2.764-.898z" clip-path="url(#J)" style="fill:none;stroke:#000;stroke-width:3;stroke-linecap:butt;stroke-linejoin:miter;stroke-miterlimit:10;stroke-dasharray:none;stroke-opacity:1" transform="matrix(1.33333 0 0 -1.33333 981.53 737.074)"/><path d="M0 0a1.28 1.28 0 0 1-.934-.396l-4.665-4.666a1.23 1.23 0 0 1-.396-.933v-8.63q0-.537.396-.933l3.896-3.872q.373-.397.933-.397h8.304v-1.282l-7.767-5.762a.86.86 0 0 1-.35-.7v-2.939q0-.583.583-.583h5.831q.442 0 .7.234l8.514 6.717q.35.28.35.7v17.447q0 .56-.397.933L10.333-.396A1.23 1.23 0 0 1 9.399 0Zm7.476-6.893q.734-.899.734-3.44 0-2.543-.734-3.452-.736-.91-2.764-.91-2.053 0-2.776.91-.724.91-.723 3.452 0 2.541.723 3.44.723.898 2.776.898 2.028 0 2.764-.898z" clip-path="url(#K)" style="fill:none;stroke:#000;stroke-width:3;stroke-linecap:butt;stroke-linejoin:miter;stroke-miterlimit:10;stroke-dasharray:none;stroke-opacity:1" transform="matrix(1.33333 0 0 -1.33333 1017.513 737.074)"/><path d="M0 0q1.352 0 1.819.548t.467 1.598v26.848q0 1.049-.467 1.597-.467.549-1.819.548l-16.024-.07q-1.33 0-1.808-.548-.479-.548-.479-1.598V2.146q0-1.05.479-1.598Q-17.355 0-16.024 0Zm-10.543 25.308h5.062V5.831h-5.062z" clip-path="url(#L)" style="fill:none;stroke:#000;stroke-width:3;stroke-linecap:butt;stroke-linejoin:miter;stroke-miterlimit:10;stroke-dasharray:none;stroke-opacity:1" transform="matrix(1.33333 0 0 -1.33333 1069.917 778.531)"/><path d="M0 0c-11.456 0-20.744-9.287-20.744-20.744S-11.456-41.487 0-41.487 20.744-32.2 20.744-20.744C20.744-9.287 11.456 0 0 0m45.901-20.744c0-25.35-20.551-45.9-45.901-45.9s-45.901 20.55-45.901 45.9C-45.901 4.607-25.35 25.157 0 25.157s45.901-20.55 45.901-45.901" clip-path="url(#M)" style="fill:#ff5b35;fill-opacity:1;fill-rule:nonzero;stroke:none" transform="matrix(1.33333 0 0 -1.33333 785.51 541.622)"/><path d="M0 0c-.069-18.394-11.738-35.378-29.095-41.698-17.578-6.399-37.617-.932-49.56 13.436-11.914 14.333-13.381 35.319-3.748 51.236 9.599 15.863 28.662 24.277 46.854 20.548C-17.533 39.828-3.387 25.007-.515 6.844-.157 4.582-.009 2.29 0 0c.007-1.93 3.007-1.934 3 0-.074 19.8-12.676 37.811-31.298 44.59-18.591 6.769-40.156.834-52.686-14.458-12.589-15.365-14.323-37.578-4.01-54.62 10.298-17.016 30.592-25.872 50.076-21.96C-15.798-42.609-.475-26.604 2.43-7.305 2.795-4.883 2.991-2.449 3 0 3.007 1.931.007 1.933 0 0" clip-path="url(#N)" style="fill:#000;fill-opacity:1;fill-rule:nonzero;stroke:none" transform="matrix(1.33333 0 0 -1.33333 844.71 569.28)"/><path d="M0 0c-9.267-.077-17.598-5.856-20.866-14.538-3.28-8.712-.491-18.966 6.705-24.85 7.214-5.898 17.606-6.76 25.622-1.922 8.029 4.846 12.163 14.386 10.324 23.563C19.727-7.474 10.384-.086 0 0c-1.931.016-1.933-2.984 0-3 7.974-.066 15.375-5.073 18.088-12.646 2.75-7.678.357-16.327-5.922-21.518-6.192-5.117-15.265-5.693-22.112-1.556-6.822 4.122-10.523 12.332-8.946 20.176C-17.087-9.564-9.135-3.076 0-3c1.93.016 1.934 3.016 0 3" clip-path="url(#O)" style="fill:#000;fill-opacity:1;fill-rule:nonzero;stroke:none" transform="matrix(1.33333 0 0 -1.33333 785.51 539.622)"/><path d="m0 0-83.893-8.655-17.292 167.608 83.893 8.655z" clip-path="url(#P)" style="fill:#fdab23;fill-opacity:1;fill-rule:nonzero;stroke:none" transform="matrix(1.33333 0 0 -1.33333 764.653 702.778)"/><path d="m0 0-28.391-2.929-45.199-4.663-10.303-1.063 1.5-1.5-1.729 16.768-4.127 39.995-4.987 48.342-4.331 41.978-1.412 13.686c-.22 2.135-.213 4.461-.677 6.56-.019.09-.019.188-.029.279l-1.5-1.5 28.392 2.929 45.198 4.663 10.303 1.063-1.5 1.5 1.73-16.768 4.126-39.995 4.988-48.341 4.33-41.978c.697-6.749 1.343-13.504 2.089-20.247L-1.5-1.5c.196-1.902 3.198-1.922 3 0L-.23 15.268l-4.126 39.995-4.988 48.342-4.33 41.978c-.697 6.748-1.343 13.504-2.089 20.247l-.029.278c-.076.741-.628 1.59-1.5 1.5l-28.391-2.929-45.199-4.663-10.303-1.063c-.74-.076-1.589-.628-1.5-1.5l1.73-16.768 4.127-39.995 4.987-48.342 4.331-41.978c.696-6.748 1.343-13.503 2.089-20.246l.028-.279c.077-.741.628-1.59 1.5-1.5l28.392 2.929 45.198 4.663L0-3c1.902.196 1.922 3.198 0 3" clip-path="url(#Q)" style="fill:#000;fill-opacity:1;fill-rule:nonzero;stroke:none" transform="matrix(1.33333 0 0 -1.33333 764.653 700.778)"/><path d="m0 0-93.55 30.896 37.943 114.885 93.55-30.897z" clip-path="url(#R)" style="fill:#d3d2f4;fill-opacity:1;fill-rule:nonzero;stroke:none" transform="matrix(1.33333 0 0 -1.33333 656.074 734.98)"/><path d="m0 0-9.293 3.069-22.322 7.373-27.014 8.921-23.368 7.718-7.738 2.556c-1.176.388-2.427.978-3.649 1.205-.055.01-.112.037-.166.054l1.048-1.845 3.787 11.466 9.052 27.408 10.946 33.142 9.495 28.751 3.126 9.463c.476 1.444 1.178 2.962 1.472 4.458.013.066.044.132.065.197l-1.845-1.048 9.293-3.069 22.322-7.372 27.014-8.922 23.368-7.718 7.738-2.556c1.176-.388 2.427-.978 3.648-1.205.056-.01.112-.037.166-.054l-1.047 1.845-3.787-11.466-9.052-27.408-10.946-33.142L2.817 13.07C1.293 8.455-.51 3.843-1.78-.85c-.018-.067-.044-.132-.065-.198-.607-1.837 2.289-2.625 2.893-.797L4.834 9.621l9.052 27.407 10.946 33.143 9.496 28.751c1.524 4.615 3.328 9.227 4.597 13.92.018.067.044.132.065.197.264.798-.309 1.602-1.047 1.845l-9.294 3.07-22.321 7.372-27.014 8.922-23.369 7.718c-3.77 1.245-7.545 2.742-11.386 3.76-.056.015-.111.037-.166.055-.797.263-1.601-.309-1.845-1.048l-3.787-11.466-9.052-27.407-10.946-33.142-9.495-28.752c-1.524-4.614-3.328-9.226-4.598-13.92-.018-.066-.043-.132-.065-.197-.263-.798.309-1.601 1.048-1.845l9.293-3.07 22.322-7.372 27.014-8.922L-12.35.922C-8.579-.323-4.804-1.82-.963-2.838c.056-.015.11-.037.165-.055C1.04-3.5 1.828-.604 0 0" clip-path="url(#S)" style="fill:#000;fill-opacity:1;fill-rule:nonzero;stroke:none" transform="matrix(1.33333 0 0 -1.33333 656.606 733.051)"/><path d="m0 0 12.782 76.033 13.595-54.832 40.996 47.014-14.351-57.37 40.977 20.676L75.701 1.332l25.763 1.053-28.05-29.016Z" clip-path="url(#T)" style="fill:#ff99f1;fill-opacity:1;fill-rule:nonzero;stroke:none" transform="matrix(1.33333 0 0 -1.33333 731.247 641.356)"/><path d="m0 0 4.333 25.774 6.862 40.814 1.587 9.445H9.89l4.578-18.466 7.335-29.585 1.681-6.781c.26-1.049 1.764-1.514 2.507-.662l13.882 15.92 22.035 25.269 5.08 5.825-2.508 1.459-4.848-19.383-7.729-30.895-1.774-7.092c-.329-1.317 1.044-2.279 2.204-1.694l13.807 6.967 27.17 13.71-2.052 2.052L75.259 6.282 72.96 2.488c-.575-.948.158-2.303 1.295-2.257l22.588.923 3.175.13-1.061 2.56-24.629-25.477-3.421-3.539 1.46.386-24.81 9L8.02-1.444l-9.068 3.289c-1.818.66-2.601-2.238-.797-2.893l24.809-8.999L62.502-24.39l9.067-3.289c.486-.176 1.112.026 1.46.386L97.657-1.816l3.421 3.539c.869.899.275 2.615-1.06 2.561L77.43 3.361l-3.175-.13L75.55.974 91.549 27.37l2.299 3.793c.817 1.348-.768 2.7-2.052 2.052l-13.807-6.966-22.05-11.127-5.12-2.583 2.203-1.694 4.849 19.383 7.728 30.895 1.774 7.092c.344 1.373-1.478 2.639-2.507 1.459L50.984 53.755 28.95 28.486l-5.08-5.825 2.507-.662-4.578 18.466-7.335 29.585-1.682 6.78c-.338 1.365-2.641 1.494-2.892 0L5.557 51.056l-6.862-40.814L-2.893.798C-3.21-1.091-.32-1.903 0 0" clip-path="url(#U)" style="fill:#000;fill-opacity:1;fill-rule:nonzero;stroke:none" transform="matrix(1.33333 0 0 -1.33333 733.175 641.887)"/><path d="m0 0 40.013-153.785h199.535L273.405 4.979Z" clip-path="url(#V)" style="fill:#f6efdf;fill-opacity:1;fill-rule:nonzero;stroke:none" transform="matrix(1.33333 0 0 -1.33333 511.294 662.31)"/><path d="m0 0 3.991-15.339 9.58-36.82 11.547-44.378 9.977-38.346c1.612-6.197 3.004-12.506 4.849-18.639.026-.087.046-.176.069-.263.165-.637.794-1.101 1.446-1.101h191.419c2.591 0 5.194-.076 7.784 0 .111.003.222 0 .332 0 .627 0 1.311.462 1.447 1.101l3.369 15.799 8.091 37.939 9.786 45.89 8.456 39.651c1.365 6.404 2.861 12.795 4.099 19.224q.026.13.056.261c.198.929-.424 1.917-1.447 1.899l-7.353-.134-19.833-.362-29.521-.537-35.77-.652-39.445-.718-39.546-.72-37.126-.676-31.163-.567-22.563-.411c-3.539-.065-7.084-.071-10.62-.194-.155-.005-.31-.005-.465-.008-1.928-.035-1.934-3.035 0-3L8.8-.967l19.833.361 29.521.537 35.769.652 39.445.718 39.547.72 37.126.676 31.163.568 22.563.411c3.511.064 7.119-.106 10.62.193.153.013.31.006.464.009l-1.446 1.898-3.369-15.799-8.091-37.939-9.786-45.89-8.456-39.651-2.783-13.052c-.426-1.998-1.147-4.132-1.316-6.172-.008-.086-.038-.176-.056-.261l1.446 1.102H49.575c-2.547 0-5.246.257-7.784 0-.108-.011-.223 0-.332 0l1.446-1.102-3.991 15.339-9.58 36.82L17.788-56.45 7.811-18.105C6.199-11.908 4.806-5.599 2.961.534c-.026.087-.045.176-.068.264C2.407 2.664-.487 1.873 0 0" clip-path="url(#W)" style="fill:#000;fill-opacity:1;fill-rule:nonzero;stroke:none" transform="matrix(1.33333 0 0 -1.33333 509.366 662.842)"/><path d="m0 0 5.063 21.918 8.073 34.951 1.858 8.043-1.446-1.102h59.707c1.93 0 1.933 3 0 3H13.548c-.636 0-1.299-.463-1.447-1.101L7.038 43.791-1.035 8.84-2.893.798C-3.327-1.081-.435-1.883 0 0" clip-path="url(#X)" style="fill:#000;fill-opacity:1;fill-rule:nonzero;stroke:none" transform="matrix(1.33333 0 0 -1.33333 877.763 656.204)"/><path d="M0 0h-299.825v2.718c0 13.311 10.791 24.102 24.103 24.102h251.62C-10.791 26.82 0 16.029 0 2.718Z" clip-path="url(#Y)" style="fill:#ff5b35;fill-opacity:1;fill-rule:nonzero;stroke:none" transform="matrix(1.33333 0 0 -1.33333 892.017 673.552)"/><path d="M0 0h-287.654c-3.853 0-7.815.268-11.661 0-.168-.012-.341 0-.51 0l1.5-1.5c0 3.946.182 7.722 1.727 11.427 1.81 4.34 5.018 8.076 9.02 10.538 3.839 2.362 8.132 3.355 12.601 3.355h248.303c.855 0 1.712.006 2.568 0 9.154-.067 17.654-5.68 21.026-14.261C-1.663 5.953-1.5 2.314-1.5-1.5c0-1.93 3-1.934 3 0 0 4-.179 7.878-1.617 11.671a25.85 25.85 0 0 1-8.372 11.322c-4.626 3.569-10.232 5.318-16.049 5.327-4.314.007-8.627 0-12.941 0H-273.72c-1.639 0-3.267.02-4.901-.173-9.653-1.139-17.92-7.705-21.225-16.849-1.33-3.679-1.479-7.437-1.479-11.298 0-.811.688-1.5 1.5-1.5h287.654C-8.286-3-4.394-3.074-.51-3c.17.003.34 0 .51 0 1.93 0 1.934 3 0 3" clip-path="url(#Z)" style="fill:#000;fill-opacity:1;fill-rule:nonzero;stroke:none" transform="matrix(1.33333 0 0 -1.33333 892.017 671.552)"/><path d="m0 0-5.336-29.643-.77-4.281 1.446 1.101h-133.834c-6.177 0-12.392.203-18.566 0-.086-.003-.173 0-.26 0-1.93 0-1.934-3 0-3h133.834c6.177 0 12.392-.202 18.566 0 .087.003.173 0 .26 0 .608 0 1.331.462 1.446 1.102L2.122-5.079l.771 4.281C3.233 1.09.342 1.9 0 0" clip-path="url(#aa)" style="fill:#000;fill-opacity:1;fill-rule:nonzero;stroke:none" transform="matrix(1.33333 0 0 -1.33333 828.763 866.826)"/><path d="M0 0c6.732-11.66 3.639-26.049-6.907-32.138-10.547-6.089-24.554-1.573-31.286 10.087s-3.64 26.049 6.907 32.138S-6.732 11.66 0 0" clip-path="url(#ab)" style="fill:#ff5b35;fill-opacity:1;fill-rule:nonzero;stroke:none" transform="matrix(1.33333 0 0 -1.33333 663.01 914.236)"/><path d="M0 0c4.48-7.883 4.764-18.398-1.176-25.659-5.623-6.874-15.189-8.651-23.189-5.103-8.537 3.786-14.376 12.643-14.588 21.969-.202 8.872 4.942 17.451 13.688 20.053C-15.313 14.221-5.041 8.599 0 0c.976-1.665 3.57-.157 2.59 1.514-5.129 8.75-14.986 14.701-25.295 13.337-10.298-1.362-17.793-9.826-19.055-19.949-1.303-10.454 4.05-21.171 12.959-26.7 8.55-5.307 19.791-5.093 27.486 1.679C7.701-22.185 8.276-8.49 2.59 1.514 1.637 3.193-.956 1.683 0 0" clip-path="url(#ac)" style="fill:#000;fill-opacity:1;fill-rule:nonzero;stroke:none" transform="matrix(1.33333 0 0 -1.33333 661.284 915.245)"/><path d="M0 0c2.856-4.947 1.544-11.051-2.931-13.635s-10.417-.667-13.273 4.28-1.544 11.051 2.931 13.634S-2.856 4.947 0 0" clip-path="url(#ad)" style="fill:#ff99f1;fill-opacity:1;fill-rule:nonzero;stroke:none" transform="matrix(1.33333 0 0 -1.33333 648.35 922.7)"/><path d="M0 0c1.701-3.026 1.875-7.025-.369-9.846-2.122-2.667-5.783-3.328-8.845-1.996-3.335 1.451-5.627 4.941-5.703 8.566-.071 3.365 1.824 6.652 5.158 7.651C-5.889 5.534-1.967 3.32 0 0c.983-1.66 3.578-.152 2.59 1.514-2.357 3.978-6.815 6.68-11.518 6.08-4.785-.61-8.287-4.48-8.889-9.19-.613-4.794 1.839-9.697 5.936-12.222 3.962-2.442 9.114-2.253 12.66.848C4.924-9.345 5.167-3.068 2.59 1.514 1.644 3.197-.948 1.687 0 0" clip-path="url(#ae)" style="fill:#000;fill-opacity:1;fill-rule:nonzero;stroke:none" transform="matrix(1.33333 0 0 -1.33333 646.624 923.709)"/><path d="M0 0c6.732-11.66 3.639-26.049-6.907-32.138-10.547-6.089-24.554-1.573-31.286 10.087s-3.64 26.049 6.907 32.138S-6.732 11.66 0 0" clip-path="url(#af)" style="fill:#ff5b35;fill-opacity:1;fill-rule:nonzero;stroke:none" transform="matrix(1.33333 0 0 -1.33333 809.43 914.236)"/><path d="M0 0c4.48-7.883 4.764-18.398-1.176-25.659-5.623-6.874-15.189-8.651-23.189-5.103-8.537 3.786-14.376 12.643-14.588 21.969-.202 8.872 4.942 17.451 13.688 20.053C-15.313 14.221-5.041 8.599 0 0c.976-1.665 3.57-.157 2.59 1.514-5.129 8.75-14.986 14.701-25.295 13.337-10.298-1.362-17.793-9.826-19.055-19.949-1.303-10.454 4.05-21.171 12.959-26.7 8.55-5.307 19.791-5.093 27.486 1.679C7.701-22.185 8.276-8.49 2.59 1.514 1.637 3.193-.956 1.683 0 0" clip-path="url(#ag)" style="fill:#000;fill-opacity:1;fill-rule:nonzero;stroke:none" transform="matrix(1.33333 0 0 -1.33333 807.703 915.245)"/><path d="M0 0c2.856-4.947 1.544-11.051-2.93-13.635s-10.418-.667-13.274 4.28-1.544 11.051 2.931 13.634S-2.856 4.947 0 0" clip-path="url(#ah)" style="fill:#ff99f1;fill-opacity:1;fill-rule:nonzero;stroke:none" transform="matrix(1.33333 0 0 -1.33333 794.77 922.7)"/><path d="M0 0c1.701-3.026 1.875-7.025-.369-9.846-2.122-2.667-5.783-3.328-8.845-1.996-3.335 1.451-5.627 4.941-5.703 8.566-.071 3.365 1.824 6.652 5.158 7.651C-5.889 5.534-1.967 3.32 0 0c.983-1.66 3.578-.152 2.59 1.514-2.357 3.978-6.815 6.68-11.518 6.08-4.785-.61-8.287-4.48-8.889-9.19-.613-4.794 1.839-9.697 5.936-12.222 3.962-2.442 9.114-2.253 12.66.848C4.924-9.345 5.167-3.068 2.59 1.514 1.644 3.197-.948 1.687 0 0" clip-path="url(#ai)" style="fill:#000;fill-opacity:1;fill-rule:nonzero;stroke:none" transform="matrix(1.33333 0 0 -1.33333 793.044 923.709)"/><path d="m0 0 2.786-14.555L9.423-49.24l8.022-41.915 6.954-36.334 2.285-11.938c.361-1.885.625-3.823 1.088-5.687.02-.079.031-.16.046-.24.363-1.894 3.255-1.092 2.893.798l-2.786 14.555-6.638 34.684-8.021 41.916-6.954 36.333L4.027-5.13C3.666-3.244 3.401-1.307 2.939.557c-.02.079-.031.161-.046.24C2.53 2.692-.362 1.89 0 0" clip-path="url(#aj)" style="fill:#000;fill-opacity:1;fill-rule:nonzero;stroke:none" transform="matrix(1.33333 0 0 -1.33333 563.7 674.084)"/><path d="m0 0 2.786-14.555L9.423-49.24l8.022-41.915 6.954-36.334 2.285-11.938c.361-1.885.625-3.823 1.088-5.687.02-.079.031-.16.046-.24.363-1.894 3.255-1.092 2.893.798l-2.786 14.555-6.638 34.684-8.021 41.916-6.954 36.333L4.027-5.13C3.666-3.244 3.401-1.307 2.939.557c-.02.079-.031.161-.046.24C2.53 2.692-.362 1.89 0 0" clip-path="url(#ak)" style="fill:#000;fill-opacity:1;fill-rule:nonzero;stroke:none" transform="matrix(1.33333 0 0 -1.33333 609.938 674.084)"/><path d="m0 0 2.786-14.555L9.424-49.24l8.021-41.915 6.954-36.334 2.285-11.938c.361-1.885.625-3.823 1.088-5.687.02-.079.031-.16.046-.24.363-1.894 3.255-1.092 2.893.798l-2.786 14.555-6.638 34.684-8.021 41.916-6.954 36.333L4.027-5.13C3.666-3.244 3.401-1.307 2.939.557c-.02.079-.031.161-.046.24C2.53 2.692-.362 1.89 0 0" clip-path="url(#al)" style="fill:#000;fill-opacity:1;fill-rule:nonzero;stroke:none" transform="matrix(1.33333 0 0 -1.33333 648.47 674.084)"/><path d="m0 0-2.541-14.461-6.103-34.727-7.382-42.008-6.38-36.303c-1.032-5.87-2.125-11.733-3.095-17.614l-.043-.241c-.332-1.888 2.559-2.699 2.893-.797l2.541 14.461 6.103 34.727 7.382 42.007 6.38 36.304C.787-12.782 1.88-6.919 2.85-1.039l.043.242C3.225 1.091.334 1.901 0 0" clip-path="url(#am)" style="fill:#000;fill-opacity:1;fill-rule:nonzero;stroke:none" transform="matrix(1.33333 0 0 -1.33333 823.804 673.02)"/><path d="m0 0-2.541-14.461-6.103-34.727-7.382-42.008-6.38-36.303c-1.032-5.87-2.125-11.733-3.095-17.614l-.043-.241c-.332-1.888 2.559-2.699 2.893-.797l2.541 14.461 6.103 34.727 7.382 42.007 6.38 36.304C.787-12.782 1.88-6.919 2.85-1.039l.043.242C3.225 1.091.334 1.901 0 0" clip-path="url(#an)" style="fill:#000;fill-opacity:1;fill-rule:nonzero;stroke:none" transform="matrix(1.33333 0 0 -1.33333 785.273 673.02)"/><path d="m0 0 .407-14.546.971-34.661 1.174-41.896 1.02-36.422c.164-5.853.169-11.734.492-17.581q.006-.123.007-.248c.054-1.926 3.054-1.934 3 0l-.407 14.546-.971 34.661-1.174 41.896-1.02 36.422C3.335-11.976 3.33-6.094 3.007-.248Q3.001-.125 3 0C2.946 1.927-.054 1.934 0 0" clip-path="url(#ao)" style="fill:#000;fill-opacity:1;fill-rule:nonzero;stroke:none" transform="matrix(1.33333 0 0 -1.33333 715.107 673.552)"/><path d="m0 0 6.847.033 18.467.088 27.487.131 33.306.159 36.728.176 36.823.176 34.568.165 29.017.139 21.009.1c3.294.016 6.595-.029 9.889.047.143.004.288.002.432.002 1.93.01 1.934 3.01 0 3l-6.847-.032-18.467-.089-27.487-.131-33.306-.159-36.728-.176-36.823-.176L31.33 3.15l-21.009-.101c-3.294-.015-6.595.029-9.889-.047C.288 2.999.144 3.001 0 3c-1.93-.009-1.934-3.009 0-3" clip-path="url(#ap)" style="fill:#000;fill-opacity:1;fill-rule:nonzero;stroke:none" transform="matrix(1.33333 0 0 -1.33333 524.506 715.087)"/><path d="m0 0 6.43.032 17.5.089 25.886.131 31.706.16 34.611.175 34.934.176 32.574.165 27.529.139 19.8.1c3.13.016 6.268-.032 9.398.047.131.004.262.002.393.002 1.93.01 1.934 3.01 0 3l-6.429-.032-17.5-.088-25.886-.131-31.707-.16-34.61-.175-34.935-.177-32.574-.164-27.528-.139-19.8-.101c-3.131-.015-6.269.033-9.398-.047L0 3c-1.93-.01-1.934-3.01 0-3" clip-path="url(#aq)" style="fill:#000;fill-opacity:1;fill-rule:nonzero;stroke:none" transform="matrix(1.33333 0 0 -1.33333 534.53 753.619)"/><path d="M0 0h218.707c2.956 0 5.92-.065 8.876 0 .126.003.253 0 .38 0 1.93 0 1.933 3 0 3H9.255C6.299 3 3.335 3.065.38 3 .253 2.997.127 3 0 3c-1.93 0-1.934-3 0-3" clip-path="url(#ar)" style="fill:#000;fill-opacity:1;fill-rule:nonzero;stroke:none" transform="matrix(1.33333 0 0 -1.33333 543.814 789.298)"/><path d="m0 0 5.736.045 15.53.122 23.055.18 28.015.219 30.682.241 31.097.243 28.993.227 24.401.191 17.56.138c2.783.021 5.574-.017 8.356.065q.178.003.357.003c1.929.015 1.934 3.015 0 3l-5.737-.045-15.529-.122-23.055-.18-28.015-.22-30.682-.24-31.097-.243-28.993-.227-24.401-.191-17.56-.138c-2.783-.022-5.574.017-8.356-.065C.238 2.999.119 3.001 0 3c-1.93-.015-1.934-3.015 0-3" clip-path="url(#as)" style="fill:#000;fill-opacity:1;fill-rule:nonzero;stroke:none" transform="matrix(1.33333 0 0 -1.33333 554.467 830.24)"/><path d="M0 0h-60.612v19.902H0c5.496 0 9.951-4.455 9.951-9.951S5.496 0 0 0" clip-path="url(#at)" style="fill:#b5bc31;fill-opacity:1;fill-rule:nonzero;stroke:none" transform="matrix(1.33333 0 0 -1.33333 994.132 584.201)"/><path d="M0 0h-60.612l1.5-1.5v19.902l-1.5-1.5h28.559c10.584 0 21.169.041 31.753 0 3.86-.014 7.369-2.336 8.434-6.15C9.638 5.369 5.518.095 0 0c-1.928-.033-1.934-3.033 0-3 5.292.091 10.078 3.746 11.187 9.006 1.071 5.081-1.448 10.488-6.181 12.741-3.587 1.709-8.121 1.155-11.995 1.155h-53.623c-.811 0-1.5-.687-1.5-1.5V-1.5c0-.811.688-1.5 1.5-1.5H0c1.93 0 1.934 3 0 3" clip-path="url(#au)" style="fill:#000;fill-opacity:1;fill-rule:nonzero;stroke:none" transform="matrix(1.33333 0 0 -1.33333 994.132 582.201)"/><path d="M0 0v-19.902c0-1.931 3-1.934 3 0V0c0 1.93-3 1.934-3 0" clip-path="url(#av)" style="fill:#000;fill-opacity:1;fill-rule:nonzero;stroke:none" transform="matrix(1.33333 0 0 -1.33333 925.992 557.665)"/><path d="M0 0v-19.902c0-1.931 3-1.934 3 0V0c0 1.93-3 1.934-3 0" clip-path="url(#aw)" style="fill:#000;fill-opacity:1;fill-rule:nonzero;stroke:none" transform="matrix(1.33333 0 0 -1.33333 933.698 557.665)"/><path d="M0 0c-2.94-19.539-14.8-33.953-26.49-32.194S-45.271-13.169-42.331 6.37c2.941 19.54 14.8 33.954 26.49 32.195S2.941 19.539 0 0" clip-path="url(#ax)" style="fill:#f6efdf;fill-opacity:1;fill-rule:nonzero;stroke:none" transform="matrix(1.33333 0 0 -1.33333 703.329 748.988)"/><path d="M0 0c-1.031-6.693-3.084-13.278-6.577-19.108-2.662-4.443-6.272-8.67-11.055-10.885-3.978-1.842-8.458-1.59-12.127.83-4.244 2.799-6.791 7.726-8.278 12.446-3.989 12.655-2.143 27.692 4.025 39.353 4.085 7.725 13.114 17.872 22.874 12.947 4.412-2.227 7.291-6.708 9.01-11.204C.163 18.389.858 11.882.539 5.506A58 58 0 0 0 0 0c-.277-1.889 2.613-2.704 2.893-.798 1.074 7.315 1.02 14.849-.866 22.033C.577 26.756-2.062 32.474-6.58 36.15c-3.968 3.228-9.067 4.48-14.03 3.045-5.458-1.578-9.789-5.726-13.03-10.236-4.158-5.787-6.775-12.704-8.176-19.656-1.489-7.391-1.707-15.093-.218-22.503 2.068-10.298 9.149-22.794 21.448-20.816 5.388.866 9.998 4.589 13.337 8.728C-2.867-19.857.024-13.311 1.732-6.575A62 62 0 0 1 2.893-.798C3.184 1.091.294 1.905 0 0" clip-path="url(#ay)" style="fill:#000;fill-opacity:1;fill-rule:nonzero;stroke:none" transform="matrix(1.33333 0 0 -1.33333 701.4 748.457)"/><path d="M0 0c-1.044-6.938-5.255-12.056-9.406-11.432-4.151.625-6.669 6.756-5.625 13.694s5.255 12.056 9.406 11.432C-1.474 13.069 1.044 6.938 0 0" clip-path="url(#az)" style="fill:#000;fill-opacity:1;fill-rule:nonzero;stroke:none" transform="matrix(1.33333 0 0 -1.33333 666.584 743.459)"/><path d="M0 0c-2.941-19.539-14.8-33.953-26.49-32.194S-45.271-13.169-42.331 6.37c2.941 19.54 14.8 33.954 26.49 32.195S2.94 19.539 0 0" clip-path="url(#aA)" style="fill:#f6efdf;fill-opacity:1;fill-rule:nonzero;stroke:none" transform="matrix(1.33333 0 0 -1.33333 749.567 748.988)"/><path d="M0 0c-1.031-6.693-3.084-13.278-6.577-19.108-2.662-4.443-6.272-8.67-11.055-10.885-3.978-1.842-8.458-1.59-12.127.83-4.244 2.799-6.791 7.726-8.278 12.446-3.989 12.655-2.143 27.692 4.025 39.353 4.085 7.725 13.114 17.872 22.874 12.947 4.412-2.227 7.291-6.708 9.01-11.204C.163 18.389.858 11.882.539 5.506A58 58 0 0 0 0 0c-.277-1.889 2.613-2.704 2.893-.798 1.074 7.315 1.02 14.849-.866 22.033C.577 26.756-2.062 32.474-6.58 36.15c-3.968 3.228-9.067 4.48-14.03 3.045-5.458-1.578-9.789-5.726-13.03-10.236-4.158-5.787-6.775-12.704-8.176-19.656-1.489-7.391-1.707-15.093-.218-22.503 2.068-10.298 9.149-22.794 21.448-20.816 5.388.866 9.998 4.589 13.337 8.728C-2.867-19.857.024-13.311 1.732-6.575A62 62 0 0 1 2.893-.798C3.184 1.091.294 1.905 0 0" clip-path="url(#aB)" style="fill:#000;fill-opacity:1;fill-rule:nonzero;stroke:none" transform="matrix(1.33333 0 0 -1.33333 747.638 748.457)"/><path d="M0 0c-1.044-6.938-5.255-12.056-9.406-11.432-4.151.625-6.669 6.756-5.625 13.694s5.255 12.056 9.406 11.432C-1.474 13.069 1.044 6.938 0 0" clip-path="url(#aC)" style="fill:#000;fill-opacity:1;fill-rule:nonzero;stroke:none" transform="matrix(1.33333 0 0 -1.33333 712.821 743.459)"/><path d="M0 0c2.638 2.455 5.343 4.912 8.544 6.569s7.001 2.451 10.45 1.403c2.962-.9 5.389-3.059 7.343-5.461 2.466-3.03 4.385-6.721 4.354-10.628s-2.44-7.954-6.213-8.966c-3.643-.977-7.371.939-10.657 2.79l-6.277 3.537c-.523.295-1.06.595-1.651.703-2.642.486-4.245-2.665-5.871-4.803-2.857-3.753-8.373-5.202-12.705-3.335z" clip-path="url(#aD)" style="fill:#000;fill-opacity:1;fill-rule:nonzero;stroke:none" transform="matrix(1.33333 0 0 -1.33333 688.508 802.151)"/><path d="M0 0c2.11 14.21 15.107 29.335 30.264 29.096 7.609-.12 15.072-4.407 19.177-10.789C53.694 11.693 54.314.149 44.753-1.97 39.382-3.16 34.059.516 29.89 3.464c-8.561 6.054-9.01-4.521-12.413-9.661-2.689-4.061-8.178-6.04-12.739-4.02C.288-8.245-.633-4.266 0 0" clip-path="url(#aE)" style="fill:#ff99f1;fill-opacity:1;fill-rule:nonzero;stroke:none" transform="matrix(1.33333 0 0 -1.33333 659.31 815.905)"/><path d="M0 0c1.578 10.22 8.163 20.006 17.272 24.998 4.515 2.474 9.819 3.644 14.925 2.652 5.589-1.085 10.828-4.368 14.081-9.07 2.264-3.273 3.56-7.437 3.084-11.432-.496-4.169-3.561-7.306-7.864-7.442-3.119-.098-6.034 1.371-8.619 2.971-2.244 1.389-4.299 3.28-6.827 4.145-3.756 1.286-6.408-1.276-7.922-4.455-2.017-4.232-3.021-9.203-7.999-10.953-2.737-.962-5.98-.626-8.191 1.372C-.08-5.388-.355-2.558 0 0c.112.809-.197 1.601-1.048 1.845-.699.201-1.734-.246-1.845-1.047-.382-2.752-.343-5.625 1.085-8.1 1.43-2.477 4.135-4.152 6.925-4.628 5.718-.975 10.961 2.347 13.342 7.458.848 1.821 1.481 3.737 2.365 5.541.587 1.197 1.459 2.902 2.838 3.098 2.268.322 4.609-2.047 6.313-3.184 2.824-1.884 5.924-3.626 9.328-4.128 5.221-.771 10.359 1.854 12.28 6.838 1.653 4.291.812 9.315-1.019 13.402C45.59 28.196 31.846 33.47 20.567 29.696 8.366 25.614-.955 13.348-2.893.798-3.184-1.091-.294-1.905 0 0" clip-path="url(#aF)" style="fill:#000;fill-opacity:1;fill-rule:nonzero;stroke:none" transform="matrix(1.33333 0 0 -1.33333 661.238 816.436)"/><path d="M0 0c-1.137-2.629-.747-5.833 1.327-7.911 1.972-1.976 5.163-2.201 7.46-.634 1.4.955 2.238 2.29 2.458 3.967.102.782-.763 1.534-1.5 1.5-.9-.04-1.391-.662-1.5-1.5.032.243.026.179-.018-.004a4 4 0 0 0-.101-.338c-.007-.022-.034-.131-.053-.141-.026-.014.162.27.049.131-.079-.099-.126-.24-.194-.348-.03-.046-.211-.318-.084-.134.127.185-.105-.115-.142-.154a4 4 0 0 0-.215-.213c-.051-.047-.333-.259-.16-.143.192.128-.133-.086-.182-.117a5 5 0 0 0-.265-.157c-.105-.057-.217-.103-.322-.161-.153-.084.127.058.121.05-.023-.033-.155-.058-.194-.072a7 7 0 0 0-.647-.176c-.013-.003-.147-.036-.153-.028-.008.013.321.021.144.019-.137-.002-.274-.024-.411-.027a5 5 0 0 0-.307.004l-.154.011c-.243.009.102-.004.094-.017-.034-.053-.578.14-.645.16-.351.107.159-.099-.071.025-.097.052-.196.1-.291.156s-.184.117-.277.176c-.221.141.005-.008.043-.04q-.083.069-.165.141c-.176.155-.315.352-.489.506-.117.103.056-.075.067-.091l-.095.132c-.08.122-.16.242-.233.369a5 5 0 0 0-.155.289c-.026.052-.151.362-.083.171.073-.204-.06.178-.078.233q-.06.184-.108.372c-.036.144-.064.288-.093.434-.009.049-.028.113-.026.164-.003-.096.025-.266.014-.068-.014.278-.029.553-.014.832q.004.082.011.166c.005.055.068.358.012.131-.051-.208.038.17.053.236q.05.215.117.426c.029.093.198.512.045.159.311.718.237 1.643-.538 2.052C1.406.88.333.769 0 0" clip-path="url(#aG)" style="fill:#000;fill-opacity:1;fill-rule:nonzero;stroke:none" transform="matrix(1.33333 0 0 -1.33333 664.59 809.057)"/><path d="M0 0a48.7 48.7 0 0 0 5.242 10.607c1.984 3.021 4.339 6.289 7.71 7.857 7.485 3.479 15.19-2.266 20.373-7.153 1.404-1.323 3.53.794 2.121 2.122-6.068 5.721-14.582 11.541-23.257 7.951-3.951-1.634-6.706-5.096-9.051-8.536C.596 9.12-1.399 5.052-2.893.798-3.534-1.028-.636-1.813 0 0" clip-path="url(#aH)" style="fill:#000;fill-opacity:1;fill-rule:nonzero;stroke:none" transform="matrix(1.33333 0 0 -1.33333 670.983 818.622)"/><path d="M0 0c1.978-1.003 4.271-1.072 6.278-.111C8.187.802 9.32 2.741 9.514 4.8a5.37 5.37 0 0 1-.764 3.247c-.411.668-1.361.984-2.052.538-.67-.432-.978-1.338-.538-2.053.064-.104.119-.213.18-.319q.102-.218-.039.109.034-.084.064-.17c.071-.201.115-.406.16-.614q.04-.244-.016.128a4 4 0 0 0 .024-.455c0-.122-.01-.243-.015-.366-.012-.313.064.321.008.035a5.5 5.5 0 0 0-.178-.715c-.029-.087-.07-.173-.096-.26.125.42.014.047-.042-.061a4 4 0 0 0-.185-.319c-.03-.048-.161-.187-.155-.229q.215.27.065.085a4 4 0 0 0-.346-.369c-.034-.032-.208-.225-.249-.217q.26.198.065.056a4 4 0 0 0-.165-.109c-.094-.059-.53-.37-.61-.325q.31.129.083.04-.092-.034-.186-.065a6 6 0 0 0-.285-.083c-.129-.034-.259-.057-.388-.086-.302-.069.347.03-.045-.008a6 6 0 0 0-.748-.022c-.1.004-.199.015-.299.02q-.25.027.1-.018-.1.015-.197.033-.345.063-.68.17c-.068.022-.339.074-.376.135q.308-.132.084-.031-.09.042-.179.088c-.699.355-1.658.207-2.052-.538C-.899 1.369-.747.379 0 0" clip-path="url(#aI)" style="fill:#000;fill-opacity:1;fill-rule:nonzero;stroke:none" transform="matrix(1.33333 0 0 -1.33333 710.321 803.8)"/><path d="m0 0-1.577 5.962c-.642 2.426-3.15 3.859-5.561 3.162-5.692-1.643-15.519-5.914-21.59-16.581-2.246-3.946 2.229-8.315 6.161-6.044 5.428 3.135 12.317 6.453 19.21 7.986A4.475 4.475 0 0 1 0 0" clip-path="url(#aJ)" style="fill:#b5bc31;fill-opacity:1;fill-rule:nonzero;stroke:none" transform="matrix(1.33333 0 0 -1.33333 685.168 679.853)"/><path d="M0 0c-.932 3.524-1.313 8.451-5.187 9.984-2.434.962-4.975-.093-7.264-.992-2.44-.958-4.798-2.117-7.008-3.53-2.612-1.668-5.041-3.657-7.148-5.931a37 37 0 0 1-3.233-4.04c-.937-1.352-2.044-2.857-2.335-4.511-.514-2.918 1.314-5.789 4.104-6.714 3.39-1.123 6.487 1.547 9.335 2.995 4.145 2.107 8.47 3.906 12.983 5.057 1.922.49 3.609.968 4.825 2.659C.137-3.541.395-1.76 0 0c-.423 1.883-3.316 1.086-2.893-.797.247-1.098-.058-2.255-.931-3-1.157-.987-3.11-1.069-4.52-1.487-3.248-.963-6.404-2.236-9.47-3.674a88 88 0 0 1-4.382-2.21c-1.136-.611-2.386-1.658-3.692-1.839-2.139-.295-3.94 1.935-3.203 3.948.458 1.248 1.409 2.445 2.184 3.522a31 31 0 0 0 2.927 3.48A33.3 33.3 0 0 0-18.213 2.7a37.5 37.5 0 0 0 5.711 3.054c1.501.64 3.629 1.73 5.292 1.646 2.198-.112 2.682-2.017 3.14-3.748l1.177-4.449C-2.4-2.662.495-1.871 0 0" clip-path="url(#aK)" style="fill:#000;fill-opacity:1;fill-rule:nonzero;stroke:none" transform="matrix(1.33333 0 0 -1.33333 687.097 679.322)"/><path d="m0 0 1.577 5.962c.642 2.426 3.15 3.859 5.561 3.162C12.83 7.481 22.657 3.21 28.728-7.457c2.246-3.946-2.23-8.315-6.161-6.044-5.428 3.135-12.317 6.453-19.21 7.986A4.475 4.475 0 0 0 0 0" clip-path="url(#aL)" style="fill:#b5bc31;fill-opacity:1;fill-rule:nonzero;stroke:none" transform="matrix(1.33333 0 0 -1.33333 709.712 676.569)"/><path d="m0 0 1.034 3.908c.361 1.365.539 2.998 1.828 3.825 1.639 1.051 3.803-.04 5.43-.655a36.5 36.5 0 0 0 5.561-2.675C18.399 1.736 22.31-1.941 25.136-6.4c.641-1.011 1.432-2.069 1.209-3.334-.173-.972-.885-1.827-1.778-2.232-1.094-.497-2.061-.188-3.045.363-1.508.845-3.019 1.678-4.564 2.453-3.351 1.683-6.818 3.175-10.392 4.319C4.107-4.044-.857-3.815 0 0c.422 1.88-2.469 2.683-2.893.797-.705-3.14.939-6.297 4.072-7.272 1.963-.611 3.972-1.016 5.922-1.694a65 65 0 0 0 5.891-2.389 88 88 0 0 0 5.364-2.711c1.493-.817 2.894-1.805 4.639-1.94 2.859-.221 5.619 1.898 6.242 4.678.747 3.33-1.877 6.421-3.806 8.854-2.01 2.537-4.379 4.747-6.99 6.655a37.6 37.6 0 0 1-7.071 4.056c-2.032.893-4.458 2.069-6.712 2.161-3.11.127-5.363-2.129-6.114-4.968L-2.893.797C-3.387-1.071-.494-1.868 0 0" clip-path="url(#aM)" style="fill:#000;fill-opacity:1;fill-rule:nonzero;stroke:none" transform="matrix(1.33333 0 0 -1.33333 711.64 677.1)"/></svg>