<svg xmlns="http://www.w3.org/2000/svg" width="1440" height="1440" viewBox="0 0 1440 1440"><defs><clipPath id="a" clipPathUnits="userSpaceOnUse"><path d="M-534.063 892.928h1080v-1080h-1080Z"/></clipPath><clipPath id="b" clipPathUnits="userSpaceOnUse"><path d="M-534.063 891.428h1080v-1080h-1080Z"/></clipPath><clipPath id="c" clipPathUnits="userSpaceOnUse"><path d="M-751.441 286.974h1080v-1080h-1080Z"/></clipPath><clipPath id="d" clipPathUnits="userSpaceOnUse"><path d="M-749.941 286.974h1080v-1080h-1080Z"/></clipPath><clipPath id="e" clipPathUnits="userSpaceOnUse"><path d="M-400.602 543.606h1080v-1080h-1080Z"/></clipPath><clipPath id="f" clipPathUnits="userSpaceOnUse"><path d="M-399.102 543.606h1080v-1080h-1080Z"/></clipPath><clipPath id="g" clipPathUnits="userSpaceOnUse"><path d="M-383.549 543.606h1080v-1080h-1080Z"/></clipPath><clipPath id="h" clipPathUnits="userSpaceOnUse"><path d="M-382.049 543.606h1080v-1080h-1080Z"/></clipPath><clipPath id="i" clipPathUnits="userSpaceOnUse"><path d="M-844.602 543.606h1080v-1080h-1080Z"/></clipPath><clipPath id="j" clipPathUnits="userSpaceOnUse"><path d="M-843.102 543.606h1080v-1080h-1080Z"/></clipPath><clipPath id="k" clipPathUnits="userSpaceOnUse"><path d="M-827.549 543.606h1080v-1080h-1080Z"/></clipPath><clipPath id="l" clipPathUnits="userSpaceOnUse"><path d="M-826.049 543.606h1080v-1080h-1080Z"/></clipPath><clipPath id="m" clipPathUnits="userSpaceOnUse"><path d="M-380.217 807.517h1080v-1080h-1080Z"/></clipPath><clipPath id="n" clipPathUnits="userSpaceOnUse"><path d="M-379.46 806.221h1080v-1080h-1080Z"/></clipPath><clipPath id="o" clipPathUnits="userSpaceOnUse"><path d="M-380.217 271.517h1080v-1080h-1080Z"/></clipPath><clipPath id="p" clipPathUnits="userSpaceOnUse"><path d="M-379.46 270.221h1080v-1080h-1080Z"/></clipPath><clipPath id="q" clipPathUnits="userSpaceOnUse"><path d="M-350.385 271.517h1080v-1080h-1080Z"/></clipPath><clipPath id="r" clipPathUnits="userSpaceOnUse"><path d="M-349.628 270.221h1080v-1080h-1080Z"/></clipPath><clipPath id="s" clipPathUnits="userSpaceOnUse"><path d="M-350.385 808.517h1080v-1080h-1080Z"/></clipPath><clipPath id="t" clipPathUnits="userSpaceOnUse"><path d="M-349.628 807.221h1080v-1080h-1080Z"/></clipPath><clipPath id="u" clipPathUnits="userSpaceOnUse"><path d="M-798.217 804.517h1080v-1080h-1080Z"/></clipPath><clipPath id="v" clipPathUnits="userSpaceOnUse"><path d="M-797.46 803.221h1080v-1080h-1080Z"/></clipPath><clipPath id="w" clipPathUnits="userSpaceOnUse"><path d="M-798.217 276.517h1080v-1080h-1080Z"/></clipPath><clipPath id="x" clipPathUnits="userSpaceOnUse"><path d="M-797.46 275.221h1080v-1080h-1080Z"/></clipPath><clipPath id="y" clipPathUnits="userSpaceOnUse"><path d="M-768.385 806.517h1080v-1080h-1080Z"/></clipPath><clipPath id="z" clipPathUnits="userSpaceOnUse"><path d="M-767.628 805.221h1080v-1080h-1080Z"/></clipPath><clipPath id="A" clipPathUnits="userSpaceOnUse"><path d="M-768.385 276.517h1080v-1080h-1080Z"/></clipPath><clipPath id="B" clipPathUnits="userSpaceOnUse"><path d="M-767.628 275.221h1080v-1080h-1080Z"/></clipPath><clipPath id="C" clipPathUnits="userSpaceOnUse"><path d="M-301.71 571.377h1080v-1080h-1080Z"/></clipPath><clipPath id="D" clipPathUnits="userSpaceOnUse"><path d="M-322.64 571.377h1080v-1080h-1080Z"/></clipPath><clipPath id="E" clipPathUnits="userSpaceOnUse"><path d="M-359.597 571.377h1080v-1080h-1080Z"/></clipPath><clipPath id="F" clipPathUnits="userSpaceOnUse"><path d="M-706.113 568.77h1080v-1080h-1080Z"/></clipPath><clipPath id="G" clipPathUnits="userSpaceOnUse"><path d="M-725.286 519.806h1080v-1080h-1080Z"/></clipPath><clipPath id="H" clipPathUnits="userSpaceOnUse"><path d="M-767.784 519.806h1080v-1080h-1080Z"/></clipPath><clipPath id="I" clipPathUnits="userSpaceOnUse"><path d="M-829.677 568.77h1080v-1080h-1080Z"/></clipPath><clipPath id="J" clipPathUnits="userSpaceOnUse"><path d="M-398.52 339.731h1080v-1080h-1080Z"/></clipPath><clipPath id="K" clipPathUnits="userSpaceOnUse"><path d="M-398.52 339.731h1080v-1080h-1080Z"/></clipPath><clipPath id="L" clipPathUnits="userSpaceOnUse"><path d="M-424.332 326.343h1080v-1080h-1080Z"/></clipPath><clipPath id="M" clipPathUnits="userSpaceOnUse"><path d="M-454.324 306.433h1080v-1080h-1080Z"/></clipPath><clipPath id="N" clipPathUnits="userSpaceOnUse"><path d="M-488.678 292.08h1080v-1080h-1080Z"/></clipPath><clipPath id="O" clipPathUnits="userSpaceOnUse"><path d="M-516.365 285.968h1080v-1080h-1080Z"/></clipPath><clipPath id="P" clipPathUnits="userSpaceOnUse"><path d="M-547.522 284.37h1080v-1080h-1080Z"/></clipPath><clipPath id="Q" clipPathUnits="userSpaceOnUse"><path d="M-584.592 289.63h1080v-1080h-1080Z"/></clipPath><clipPath id="R" clipPathUnits="userSpaceOnUse"><path d="M-611.514 298.63h1080v-1080h-1080Z"/></clipPath><clipPath id="S" clipPathUnits="userSpaceOnUse"><path d="M-636.663 311.526h1080v-1080h-1080Z"/></clipPath><clipPath id="T" clipPathUnits="userSpaceOnUse"><path d="M-693.441 325.362h1080v-1080h-1080Z"/></clipPath><clipPath id="U" clipPathUnits="userSpaceOnUse"><path d="M-693.441 325.362h1080v-1080h-1080Z"/></clipPath><clipPath id="V" clipPathUnits="userSpaceOnUse"><path d="M-660.03 780.246h1080v-1080h-1080Z"/></clipPath><clipPath id="W" clipPathUnits="userSpaceOnUse"><path d="M-542.636 399.013h1080v-1080h-1080Z"/></clipPath><clipPath id="X" clipPathUnits="userSpaceOnUse"><path d="M-660.03 440.382h1080v-1080h-1080Z"/></clipPath><clipPath id="Y" clipPathUnits="userSpaceOnUse"><path d="M-542.636 397.513h1080v-1080h-1080Z"/></clipPath><clipPath id="Z" clipPathUnits="userSpaceOnUse"><path d="M-545.884 433.435h1080v-1080h-1080Z"/></clipPath><clipPath id="aa" clipPathUnits="userSpaceOnUse"><path d="M-547.18 432.678h1080v-1080h-1080Z"/></clipPath><clipPath id="ab" clipPathUnits="userSpaceOnUse"><path d="M0 1080h1080V0H0Z"/></clipPath><clipPath id="ac" clipPathUnits="userSpaceOnUse"><path d="M-514.159 780.246h1080v-1080h-1080Z"/></clipPath><clipPath id="ad" clipPathUnits="userSpaceOnUse"><path d="M0 1080h1080V0H0Z"/></clipPath><clipPath id="ae" clipPathUnits="userSpaceOnUse"><path d="M-618.5 780.246h1080v-1080h-1080Z"/></clipPath><clipPath id="af" clipPathUnits="userSpaceOnUse"><path d="M-631.266 614.371h1080v-1080h-1080Z"/></clipPath><clipPath id="ag" clipPathUnits="userSpaceOnUse"><path d="M-629.766 614.371h1080v-1080h-1080Z"/></clipPath><clipPath id="ah" clipPathUnits="userSpaceOnUse"><path d="M-544.778 615.814h1080v-1080h-1080Z"/></clipPath><clipPath id="ai" clipPathUnits="userSpaceOnUse"><path d="M-546.278 615.814h1080v-1080h-1080Z"/></clipPath><clipPath id="aj" clipPathUnits="userSpaceOnUse"><path d="M-61.093-30.265h72.019c0 16.61-16.122 30.074-36.01 30.074s-36.01-13.465-36.01-30.074"/></clipPath><clipPath id="ak" clipPathUnits="userSpaceOnUse"><path d="M-606.961 615.814h1080v-1080h-1080Z"/></clipPath><clipPath id="al" clipPathUnits="userSpaceOnUse"><path d="M-608.461 615.814h1080v-1080h-1080Z"/></clipPath><clipPath id="am" clipPathUnits="userSpaceOnUse"><path d="M-61.093-30.265h72.02c0 16.61-16.123 30.074-36.01 30.074-19.888 0-36.01-13.465-36.01-30.074"/></clipPath><clipPath id="an" clipPathUnits="userSpaceOnUse"><path d="M-574.255 550.056h1080v-1080h-1080Z"/></clipPath><clipPath id="ao" clipPathUnits="userSpaceOnUse"><path d="M-539.616 519.399h1080v-1080h-1080Z"/></clipPath><clipPath id="ap" clipPathUnits="userSpaceOnUse"><path d="M-528.59 519.275h1080v-1080h-1080Z"/></clipPath><clipPath id="aq" clipPathUnits="userSpaceOnUse"><path d="M-564.644 498.66h1080v-1080h-1080Z"/></clipPath><clipPath id="ar" clipPathUnits="userSpaceOnUse"><path d="M-586.78 550.18h1080v-1080h-1080Z"/></clipPath><clipPath id="as" clipPathUnits="userSpaceOnUse"><path d="M-575.755 550.056h1080v-1080h-1080Z"/></clipPath><clipPath id="at" clipPathUnits="userSpaceOnUse"><path d="M-557.903 619.25h1080v-1080h-1080Z"/></clipPath><clipPath id="au" clipPathUnits="userSpaceOnUse"><path d="M-556.403 619.25h1080v-1080h-1080Z"/></clipPath><clipPath id="av" clipPathUnits="userSpaceOnUse"><path d="M-539.837 616.402h1080v-1080h-1080Z"/></clipPath><clipPath id="aw" clipPathUnits="userSpaceOnUse"><path d="M-538.337 616.402h1080v-1080h-1080Z"/></clipPath><clipPath id="ax" clipPathUnits="userSpaceOnUse"><path d="M-523.797 662.112h1080v-1080h-1080Z"/></clipPath><clipPath id="ay" clipPathUnits="userSpaceOnUse"><path d="M-560.222 657.156h1080v-1080h-1080Z"/></clipPath><clipPath id="az" clipPathUnits="userSpaceOnUse"><path d="M-558.776 657.555h1080v-1080h-1080Z"/></clipPath><clipPath id="aA" clipPathUnits="userSpaceOnUse"><path d="M-501.53 639.323h1080v-1080h-1080Z"/></clipPath><clipPath id="aB" clipPathUnits="userSpaceOnUse"><path d="M-491.574 636.197h1080v-1080h-1080Z"/></clipPath><clipPath id="aC" clipPathUnits="userSpaceOnUse"><path d="M-565.874 635.066h1080v-1080h-1080Z"/></clipPath><clipPath id="aD" clipPathUnits="userSpaceOnUse"><path d="M-543.205 664.834h1080v-1080h-1080Z"/></clipPath><clipPath id="aE" clipPathUnits="userSpaceOnUse"><path d="M-476.863 584.684h1080v-1080h-1080Z"/></clipPath><clipPath id="aF" clipPathUnits="userSpaceOnUse"><path d="M-602.649 582.563h1080v-1080h-1080Z"/></clipPath></defs><path d="M0 0h1080v1080H0Z" style="fill:#fff;fill-opacity:1;fill-rule:nonzero;stroke:none" transform="matrix(1.33333 0 0 -1.33333 0 1440)"/><path d="M0 0c-59.701 0-117.871 22.67-163.794 63.833a56.07 56.07 0 0 1-37.475 14.326h-22v549.537h22a56.07 56.07 0 0 1 37.476 14.327C-117.871 683.186-59.701 705.855 0 705.855h9.774c59.697 0 117.86-22.669 163.776-63.834a56.05 56.05 0 0 1 37.469-14.325c1.586 0 3.07.06 4.536.182l23.823 1.981V75.996l-23.823 1.982c-1.466.122-2.95.181-4.536.181a56.05 56.05 0 0 1-37.469-14.325C127.634 22.67 69.471 0 9.774 0Z" clip-path="url(#a)" style="fill:#ff99f1;fill-opacity:1;fill-rule:nonzero;stroke:none" transform="matrix(1.33333 0 0 -1.33333 712.084 1190.57)"/><path d="M0 0c-36.264.089-72.225 8.494-104.823 24.381a251.6 251.6 0 0 0-46.103 29.048c-6.937 5.505-13.217 12.076-20.854 16.626-7.233 4.309-15.379 6.965-23.753 7.812-9.139.925-18.562.292-27.736.292l1.5-1.5v541.23c0 2.331.4 5.071 0 7.375-.05.292 0 .633 0 .932l-1.5-1.5c8.454 0 17.011-.411 25.452.106 8.596.526 17.031 2.965 24.562 7.146 8.296 4.607 14.944 11.615 22.329 17.479 30.101 23.898 65.68 40.804 103.344 48.572 16.976 3.501 34.12 4.856 51.429 4.856 16.472 0 32.775-.948 49-3.972 37.521-6.992 73.069-23.043 103.47-46.07 8.647-6.55 16.31-14.835 25.705-20.304 8.431-4.908 18.093-7.6 27.843-7.801 9.792-.202 19.767 1.341 29.513 2.151l-1.5 1.5V82.826c0-2.342-.4-5.091 0-7.406.05-.289 0-.628 0-.924l1.5 1.5c-8.303.691-16.611 1.56-24.927 2.061-9.382.566-18.84-1.226-27.391-5.11-9.119-4.142-15.958-11.039-23.608-17.288C131.869 29.861 94.056 11.861 53.975 4.186 36.085.759 18.157 0 0 0c-1.93 0-1.934-3 0-3 14.946 0 29.764.395 44.586 2.571 19.715 2.895 39.05 8.274 57.457 15.899a252.3 252.3 0 0 1 52.003 29.171c8.089 5.893 15.365 12.674 23.202 18.855 8.323 6.564 18.613 10.605 29.175 11.476 10.831.893 22.166-1.079 32.955-1.976.809-.067 1.5.742 1.5 1.5v531.36c0 7.171.291 14.412 0 21.579-.013.307 0 .617 0 .924 0 .762-.689 1.568-1.5 1.5-7.931-.659-15.86-1.389-23.796-1.979-9.24-.686-18.545.792-27.008 4.619-9.226 4.173-16.159 11.285-23.92 17.566-29.108 23.554-63.306 40.719-99.78 49.339-31.459 7.434-65.38 8.607-97.414 4.203-37.174-5.11-72.943-19.05-104.047-39.996a260 260 0 0 1-25.587-19.658c-8.351-7.28-17.126-12.886-28.124-15.153-10.617-2.188-22.188-1.104-32.971-1.104-.81 0-1.5-.687-1.5-1.5V99.052c0-7.132-.289-14.333 0-21.461.013-.309 0-.622 0-.932 0-.811.688-1.5 1.5-1.5 7.333 0 14.668.065 22 0 9.272-.081 18.377-2.332 26.499-6.842 8.067-4.479 14.536-11.304 21.722-17.009 27.804-22.075 60.135-38.384 94.597-47.04C-39.346-.531-19.695-2.952 0-3c1.931-.005 1.933 2.995 0 3" clip-path="url(#b)" style="fill:#000;fill-opacity:1;fill-rule:nonzero;stroke:none" transform="matrix(1.33333 0 0 -1.33333 712.084 1188.57)"/><path d="M0 0v-506.052a76 76 0 0 1-6.36.258c-20.041 0-38.321-7.543-52.154-19.945-41.133-36.876-93.848-58.214-149.09-58.214h-9.774c-55.249 0-107.969 21.338-149.109 58.214-13.836 12.402-32.118 19.945-52.16 19.945V-.258c20.042 0 38.324 7.543 52.16 19.945 41.14 36.877 93.86 58.215 149.109 58.215h9.774c55.242 0 107.957-21.338 149.09-58.215C-44.681 7.285-26.401-.258-6.36-.258c2.144 0 4.257.083 6.36.258" clip-path="url(#c)" style="fill:#ff5b35;fill-opacity:1;fill-rule:nonzero;stroke:none" transform="matrix(1.33333 0 0 -1.33333 1001.921 382.632)"/><path d="M0 0v-498.396c0-2.131-.392-4.694 0-6.797.05-.266 0-.585 0-.859l1.5 1.5c-15.241 1.135-30.572-1.965-44.055-9.209-6.295-3.382-11.815-7.671-17.161-12.374a231 231 0 0 0-19.397-15.321c-25.213-17.792-53.935-30.477-84.189-36.667-25.302-5.176-52.489-5.877-78.153-2.801-31.032 3.719-61.1 14.382-87.812 30.553a230 230 0 0 0-22.065 15.169c-6.592 5.126-12.565 11.054-19.332 15.942-13.518 9.765-29.847 14.85-46.483 14.966l1.5-1.5V-7.829c0 2.121.365 4.615 0 6.712-.047.269 0 .584 0 .859l-1.5-1.5c14.89.104 29.543 4.157 42.189 12.076 6.126 3.836 11.315 8.709 16.827 13.337a230 230 0 0 0 19.722 14.831c25.619 17.193 54.639 29.169 85.032 34.602 13.507 2.415 27.112 3.314 40.817 3.314 12.762 0 25.434-.444 38.077-2.347 30.698-4.622 60.202-15.909 86.355-32.597a230 230 0 0 0 21.731-15.711c6.41-5.234 12.308-11.018 19.352-15.429C-32.585 1.262-15.482-2.765 1.5-1.5c1.914.143 1.929 3.144 0 3C-14.643.298-30.784 3.935-44.648 12.363c-6.576 3.998-12.055 9.22-17.94 14.115a238 238 0 0 1-18.586 13.991c-25.125 17.036-53.631 29.125-83.45 34.918-24.928 4.842-51.597 5.51-76.831 2.485-30.137-3.612-59.353-13.532-85.6-28.755a231 231 0 0 1-21.754-14.313c-6.81-5.051-13.065-10.68-19.586-16.077-13.699-11.339-31.021-17.361-48.752-17.485-.811-.005-1.5-.682-1.5-1.5v-485.028c0-6.528-.275-13.124 0-19.648.012-.286 0-.574 0-.86 0-.815.688-1.494 1.5-1.5 15.797-.11 31.177-4.86 44.127-13.956 6.306-4.431 11.813-9.937 17.849-14.725a237 237 0 0 1 18.875-13.54c25.517-16.44 54.3-27.841 84.253-32.888 24.793-4.177 51.308-4.402 76.214-.908 30.254 4.245 59.496 14.977 85.539 30.913a234 234 0 0 1 20.882 14.406c6.958 5.376 13.235 11.69 20.426 16.742 14.73 10.349 32.568 15.032 50.482 13.698.809-.06 1.5.737 1.5 1.5v485.416c0 6.57.286 13.212 0 19.777C2.988-.574 3-.286 3 0c0 1.93-3 1.934-3 0" clip-path="url(#d)" style="fill:#000;fill-opacity:1;fill-rule:nonzero;stroke:none" transform="matrix(1.33333 0 0 -1.33333 999.921 382.632)"/><path d="M0 0c0-45.62-36.982-82.602-82.602-82.602S-165.204-45.62-165.204 0s36.982 82.602 82.602 82.602S0 45.62 0 0" clip-path="url(#e)" style="fill:#ff99f1;fill-opacity:1;fill-rule:nonzero;stroke:none" transform="matrix(1.33333 0 0 -1.33333 534.136 724.808)"/><path d="M0 0c-.035-16.828-5.269-33.32-15.023-47.043-9.42-13.254-22.914-23.574-38.194-29.143-16.036-5.845-33.786-6.492-50.201-1.807-15.749 4.494-29.881 13.835-40.311 26.448-10.544 12.751-16.997 28.756-18.239 45.254-1.268 16.834 2.704 33.812 11.454 48.261 8.444 13.943 21.068 25.141 35.893 31.912 15.446 7.054 33.141 8.997 49.767 5.595 16.116-3.298 30.982-11.537 42.357-23.414C-11.046 44.105-3.474 28.749-.931 12.392-.294 8.294-.009 4.146 0 0c.004-1.93 3.004-1.934 3 0-.036 17.372-5.425 34.537-15.528 48.691-9.865 13.822-23.784 24.484-39.735 30.331-16.549 6.066-35.007 6.7-51.952 1.864-16.263-4.641-30.988-14.292-41.739-27.346-10.988-13.34-17.667-29.841-19.001-47.077-1.345-17.38 2.819-35.032 11.85-49.947 8.749-14.446 21.873-26.168 37.271-33.125 16.101-7.275 34.294-9.305 51.612-5.795 16.702 3.385 32.202 12.012 43.96 24.338C-8.502-45.737-.596-29.875 1.988-13.021A87 87 0 0 1 3 0C3.004 1.93.004 1.933 0 0" clip-path="url(#f)" style="fill:#000;fill-opacity:1;fill-rule:nonzero;stroke:none" transform="matrix(1.33333 0 0 -1.33333 532.136 724.808)"/><path d="M0 0c0-36.202-29.347-65.549-65.549-65.549-36.201 0-65.548 29.347-65.548 65.549s29.347 65.549 65.548 65.549S0 36.202 0 0" clip-path="url(#g)" style="fill:#d2d11f;fill-opacity:1;fill-rule:nonzero;stroke:none" transform="matrix(1.33333 0 0 -1.33333 511.398 724.808)"/><path d="M0 0c-.035-13.277-4.148-26.267-11.829-37.105-7.432-10.485-18.117-18.668-30.198-23.063-12.653-4.602-26.634-5.125-39.588-1.442-12.468 3.546-23.645 10.933-31.902 20.913-8.302 10.034-13.395 22.648-14.387 35.632-1.018 13.322 2.105 26.754 9.028 38.192 6.681 11.039 16.667 19.885 28.402 25.242 12.171 5.556 26.138 7.082 39.237 4.401 12.7-2.598 24.411-9.07 33.393-18.414C-8.797 34.943-2.808 22.855-.761 9.964-.238 6.67-.009 3.334 0 0c.005-1.93 3.005-1.934 3 0-.037 13.876-4.338 27.591-12.429 38.886-7.843 10.949-18.851 19.387-31.488 24.06-13.204 4.882-27.96 5.403-41.495 1.557-12.982-3.689-24.753-11.391-33.33-21.811-8.744-10.622-14.067-23.734-15.149-37.454-1.094-13.869 2.219-27.974 9.424-39.879 6.956-11.493 17.386-20.838 29.629-26.387 12.868-5.833 27.382-7.463 41.232-4.669 13.286 2.68 25.633 9.548 34.996 19.338C-6.213-36.533.121-23.874 2.185-10.423 2.714-6.971 2.991-3.492 3 0 3.005 1.931.005 1.933 0 0" clip-path="url(#h)" style="fill:#000;fill-opacity:1;fill-rule:nonzero;stroke:none" transform="matrix(1.33333 0 0 -1.33333 509.398 724.808)"/><path d="M0 0c0-45.62-36.982-82.602-82.602-82.602S-165.204-45.62-165.204 0s36.982 82.602 82.602 82.602S0 45.62 0 0" clip-path="url(#i)" style="fill:#ff99f1;fill-opacity:1;fill-rule:nonzero;stroke:none" transform="matrix(1.33333 0 0 -1.33333 1126.136 724.808)"/><path d="M0 0c-.035-16.828-5.269-33.32-15.023-47.043-9.42-13.254-22.914-23.574-38.194-29.143-16.036-5.845-33.786-6.492-50.201-1.807-15.749 4.494-29.881 13.835-40.311 26.448-10.544 12.751-16.997 28.756-18.239 45.254-1.268 16.834 2.704 33.812 11.454 48.261 8.444 13.943 21.068 25.141 35.893 31.912 15.446 7.054 33.141 8.997 49.767 5.595 16.116-3.298 30.982-11.537 42.357-23.414C-11.046 44.105-3.474 28.749-.931 12.392-.294 8.294-.009 4.146 0 0c.004-1.93 3.004-1.934 3 0-.036 17.372-5.425 34.537-15.528 48.691-9.865 13.822-23.784 24.484-39.735 30.331-16.55 6.066-35.007 6.7-51.952 1.864-16.263-4.641-30.988-14.292-41.739-27.346-10.988-13.34-17.667-29.841-19.001-47.077-1.345-17.38 2.819-35.032 11.85-49.947 8.749-14.446 21.873-26.168 37.271-33.125 16.101-7.275 34.293-9.305 51.612-5.795 16.702 3.385 32.202 12.012 43.96 24.338C-8.502-45.737-.596-29.875 1.988-13.021A87 87 0 0 1 3 0C3.004 1.93.004 1.933 0 0" clip-path="url(#j)" style="fill:#000;fill-opacity:1;fill-rule:nonzero;stroke:none" transform="matrix(1.33333 0 0 -1.33333 1124.136 724.808)"/><path d="M0 0c0-36.202-29.347-65.549-65.549-65.549-36.201 0-65.548 29.347-65.548 65.549s29.347 65.549 65.548 65.549S0 36.202 0 0" clip-path="url(#k)" style="fill:#d2d11f;fill-opacity:1;fill-rule:nonzero;stroke:none" transform="matrix(1.33333 0 0 -1.33333 1103.398 724.808)"/><path d="M0 0c-.035-13.277-4.148-26.267-11.829-37.105-7.432-10.485-18.117-18.668-30.198-23.063-12.653-4.602-26.634-5.125-39.588-1.442-12.468 3.546-23.645 10.933-31.902 20.913-8.302 10.034-13.395 22.648-14.387 35.632-1.018 13.322 2.105 26.754 9.028 38.192 6.681 11.039 16.667 19.885 28.402 25.242 12.171 5.556 26.138 7.082 39.237 4.401 12.7-2.598 24.411-9.07 33.393-18.414C-8.797 34.943-2.808 22.855-.761 9.964-.238 6.67-.009 3.334 0 0c.005-1.93 3.005-1.934 3 0-.036 13.876-4.338 27.591-12.429 38.886-7.843 10.949-18.851 19.387-31.488 24.06-13.204 4.882-27.96 5.403-41.495 1.557-12.982-3.689-24.753-11.391-33.33-21.811-8.744-10.622-14.067-23.734-15.149-37.454-1.094-13.869 2.219-27.974 9.424-39.879 6.956-11.493 17.386-20.838 29.629-26.387 12.868-5.833 27.382-7.463 41.232-4.669 13.286 2.68 25.634 9.548 34.996 19.338C-6.213-36.533.121-23.874 2.185-10.423 2.714-6.971 2.991-3.492 3 0 3.005 1.931.005 1.933 0 0" clip-path="url(#l)" style="fill:#000;fill-opacity:1;fill-rule:nonzero;stroke:none" transform="matrix(1.33333 0 0 -1.33333 1101.398 724.808)"/><path d="M0 0c-24.065-12.9-34.523-23.358-47.423-47.423C-60.323-23.358-70.781-12.9-94.846 0c24.065 12.9 34.523 23.358 47.423 47.423C-34.523 23.358-24.065 12.9 0 0" clip-path="url(#m)" style="fill:#d3d2f4;fill-opacity:1;fill-rule:nonzero;stroke:none" transform="matrix(1.33333 0 0 -1.33333 506.956 1076.689)"/><path d="M0 0c-8.154-4.379-16.13-9.183-23.215-15.175-6.3-5.329-11.653-11.621-16.25-18.46-3.099-4.611-5.869-9.434-8.496-14.326h2.59c-4.378 8.153-9.183 16.13-15.175 23.214-5.329 6.301-11.621 11.654-18.46 16.251C-83.617-5.397-88.44-2.627-93.332 0v-2.59c8.154 4.378 16.131 9.183 23.215 15.175 6.3 5.328 11.654 11.621 16.25 18.46 3.099 4.611 5.869 9.434 8.496 14.326h-2.59c4.379-8.154 9.183-16.131 15.175-23.215 5.329-6.3 11.621-11.654 18.46-16.25C-9.715 2.807-4.892.037 0-2.59 1.701-3.504 3.218-.915 1.514 0c-7.919 4.253-15.725 8.885-22.607 14.706-6.194 5.239-11.465 11.391-15.966 18.128-3.024 4.528-5.737 9.256-8.312 14.051-.524.976-2.066.976-2.59 0-4.253-7.919-8.885-15.725-14.706-22.608-5.239-6.194-11.391-11.465-18.128-15.965C-85.323 5.287-90.051 2.575-94.846 0c-.976-.524-.976-2.066 0-2.59 7.919-4.253 15.725-8.886 22.607-14.706 6.194-5.239 11.466-11.392 15.966-18.129 3.025-4.527 5.737-9.255 8.312-14.05.524-.977 2.066-.977 2.59 0 4.253 7.919 8.886 15.725 14.706 22.607 5.239 6.194 11.392 11.465 18.129 15.966 4.527 3.024 9.255 5.737 14.05 8.312C3.216-1.677 1.702.914 0 0" clip-path="url(#n)" style="fill:#000;fill-opacity:1;fill-rule:nonzero;stroke:none" transform="matrix(1.33333 0 0 -1.33333 505.947 1074.962)"/><path d="M0 0c-24.065-12.9-34.523-23.358-47.423-47.423C-60.323-23.358-70.781-12.9-94.846 0c24.065 12.9 34.523 23.358 47.423 47.423C-34.523 23.358-24.065 12.9 0 0" clip-path="url(#o)" style="fill:#d3d2f4;fill-opacity:1;fill-rule:nonzero;stroke:none" transform="matrix(1.33333 0 0 -1.33333 506.956 362.022)"/><path d="M0 0c-8.154-4.379-16.13-9.183-23.215-15.175-6.3-5.329-11.653-11.621-16.25-18.46-3.099-4.611-5.869-9.434-8.496-14.326h2.59c-4.378 8.153-9.183 16.13-15.175 23.214-5.329 6.301-11.621 11.654-18.46 16.251C-83.617-5.397-88.44-2.627-93.332 0v-2.59c8.154 4.378 16.131 9.183 23.215 15.175 6.3 5.328 11.654 11.621 16.25 18.46 3.099 4.611 5.869 9.434 8.496 14.326h-2.59c4.379-8.154 9.183-16.131 15.175-23.215 5.329-6.3 11.621-11.654 18.46-16.25C-9.715 2.807-4.892.037 0-2.59 1.701-3.504 3.218-.915 1.514 0c-7.919 4.253-15.725 8.885-22.607 14.706-6.194 5.239-11.465 11.391-15.966 18.128-3.024 4.528-5.737 9.256-8.312 14.051-.524.976-2.066.976-2.59 0-4.253-7.919-8.885-15.725-14.706-22.608-5.239-6.194-11.391-11.465-18.128-15.965C-85.323 5.287-90.051 2.575-94.846 0c-.976-.524-.976-2.066 0-2.59 7.919-4.253 15.725-8.886 22.607-14.706 6.194-5.239 11.466-11.392 15.966-18.129 3.025-4.527 5.737-9.255 8.312-14.05.524-.977 2.066-.977 2.59 0 4.253 7.919 8.886 15.725 14.706 22.607 5.239 6.194 11.392 11.465 18.129 15.966 4.527 3.024 9.255 5.737 14.05 8.312C3.216-1.677 1.702.914 0 0" clip-path="url(#p)" style="fill:#000;fill-opacity:1;fill-rule:nonzero;stroke:none" transform="matrix(1.33333 0 0 -1.33333 505.947 360.295)"/><path d="M0 0c-8.927-4.785-12.806-8.664-17.591-17.591C-22.376-8.664-26.255-4.785-35.182 0c8.927 4.785 12.806 8.664 17.591 17.591C-12.806 8.664-8.927 4.785 0 0" clip-path="url(#q)" style="fill:#ff99f1;fill-opacity:1;fill-rule:nonzero;stroke:none" transform="matrix(1.33333 0 0 -1.33333 467.18 362.022)"/><path d="M0 0c-3.826-2.061-7.563-4.387-10.652-7.477-3.09-3.09-5.416-6.826-7.477-10.652h2.59c-2.061 3.826-4.387 7.562-7.477 10.652-3.089 3.09-6.826 5.416-10.652 7.477v-2.59c3.826 2.061 7.563 4.387 10.652 7.477 3.09 3.089 5.416 6.826 7.477 10.652h-2.59c2.061-3.826 4.387-7.563 7.477-10.652C-7.563 1.797-3.826-.529 0-2.59 1.7-3.506 3.216-.917 1.514 0c-3.608 1.944-7.13 4.093-10.045 7.008s-5.064 6.436-7.008 10.045c-.526.976-2.064.976-2.59 0-1.944-3.609-4.094-7.131-7.008-10.045C-28.051 4.093-31.574 1.944-35.182 0c-.976-.526-.976-2.065 0-2.59 3.608-1.944 7.131-4.094 10.045-7.008 2.914-2.915 5.064-6.437 7.008-10.045.526-.977 2.064-.977 2.59 0 1.944 3.608 4.094 7.13 7.008 10.045C-5.616-6.684-2.094-4.534 1.514-2.59 3.214-1.674 1.701.917 0 0" clip-path="url(#r)" style="fill:#000;fill-opacity:1;fill-rule:nonzero;stroke:none" transform="matrix(1.33333 0 0 -1.33333 466.17 360.295)"/><path d="M0 0c-8.927-4.785-12.806-8.664-17.591-17.591C-22.376-8.664-26.255-4.785-35.182 0c8.927 4.785 12.806 8.664 17.591 17.591C-12.806 8.664-8.927 4.785 0 0" clip-path="url(#s)" style="fill:#ff99f1;fill-opacity:1;fill-rule:nonzero;stroke:none" transform="matrix(1.33333 0 0 -1.33333 467.18 1078.022)"/><path d="M0 0c-3.826-2.061-7.563-4.387-10.652-7.477-3.09-3.09-5.416-6.826-7.477-10.652h2.59c-2.061 3.826-4.387 7.562-7.477 10.652-3.089 3.09-6.826 5.416-10.652 7.477v-2.59c3.826 2.061 7.563 4.387 10.652 7.477 3.09 3.089 5.416 6.826 7.477 10.652h-2.59c2.061-3.826 4.387-7.563 7.477-10.652C-7.563 1.797-3.826-.529 0-2.59 1.7-3.506 3.216-.917 1.514 0c-3.608 1.944-7.13 4.093-10.045 7.008s-5.064 6.436-7.008 10.045c-.526.976-2.064.976-2.59 0-1.944-3.609-4.094-7.131-7.008-10.045C-28.051 4.093-31.574 1.944-35.182 0c-.976-.526-.976-2.064 0-2.59 3.608-1.944 7.131-4.094 10.045-7.008 2.914-2.915 5.064-6.437 7.008-10.045.526-.977 2.064-.977 2.59 0 1.944 3.608 4.094 7.13 7.008 10.045C-5.616-6.684-2.094-4.534 1.514-2.59 3.214-1.674 1.701.917 0 0" clip-path="url(#t)" style="fill:#000;fill-opacity:1;fill-rule:nonzero;stroke:none" transform="matrix(1.33333 0 0 -1.33333 466.17 1076.295)"/><path d="M0 0c-24.065-12.9-34.523-23.358-47.423-47.423C-60.323-23.358-70.781-12.9-94.846 0c24.065 12.9 34.523 23.358 47.423 47.423C-34.523 23.358-24.065 12.9 0 0" clip-path="url(#u)" style="fill:#d3d2f4;fill-opacity:1;fill-rule:nonzero;stroke:none" transform="matrix(1.33333 0 0 -1.33333 1064.29 1072.689)"/><path d="M0 0c-8.154-4.379-16.13-9.183-23.215-15.175-6.3-5.329-11.653-11.621-16.25-18.46-3.099-4.611-5.869-9.434-8.496-14.326h2.59c-4.378 8.153-9.183 16.13-15.175 23.214-5.329 6.301-11.621 11.654-18.46 16.251C-83.617-5.397-88.44-2.627-93.332 0v-2.59c8.154 4.378 16.131 9.183 23.215 15.175 6.3 5.328 11.654 11.621 16.25 18.46 3.099 4.611 5.869 9.434 8.496 14.326h-2.59c4.379-8.154 9.183-16.131 15.175-23.215 5.329-6.3 11.621-11.654 18.46-16.25C-9.715 2.807-4.892.037 0-2.59 1.701-3.504 3.218-.915 1.514 0c-7.919 4.253-15.725 8.885-22.607 14.706-6.194 5.239-11.465 11.391-15.966 18.128-3.024 4.528-5.737 9.256-8.312 14.051-.524.976-2.066.976-2.59 0-4.253-7.919-8.885-15.725-14.706-22.608-5.239-6.194-11.391-11.465-18.128-15.965C-85.323 5.287-90.051 2.575-94.846 0c-.976-.524-.976-2.066 0-2.59 7.919-4.253 15.725-8.886 22.607-14.706 6.194-5.239 11.466-11.392 15.966-18.129 3.025-4.527 5.737-9.255 8.312-14.05.524-.977 2.066-.977 2.59 0 4.253 7.919 8.886 15.725 14.706 22.607 5.239 6.194 11.392 11.465 18.129 15.966 4.527 3.024 9.255 5.737 14.05 8.312C3.216-1.677 1.702.914 0 0" clip-path="url(#v)" style="fill:#000;fill-opacity:1;fill-rule:nonzero;stroke:none" transform="matrix(1.33333 0 0 -1.33333 1063.28 1070.962)"/><path d="M0 0c-24.065-12.9-34.523-23.358-47.423-47.423C-60.323-23.358-70.781-12.9-94.846 0c24.065 12.9 34.523 23.358 47.423 47.423C-34.523 23.358-24.065 12.9 0 0" clip-path="url(#w)" style="fill:#d3d2f4;fill-opacity:1;fill-rule:nonzero;stroke:none" transform="matrix(1.33333 0 0 -1.33333 1064.29 368.689)"/><path d="M0 0c-8.154-4.379-16.13-9.183-23.215-15.175-6.3-5.329-11.653-11.621-16.25-18.46-3.099-4.611-5.869-9.434-8.496-14.326h2.59c-4.378 8.153-9.183 16.13-15.175 23.214-5.329 6.301-11.621 11.654-18.46 16.251C-83.617-5.397-88.44-2.627-93.332 0v-2.59c8.154 4.378 16.131 9.183 23.215 15.175 6.3 5.328 11.654 11.621 16.25 18.46 3.099 4.611 5.869 9.434 8.496 14.326h-2.59c4.379-8.154 9.183-16.131 15.175-23.215 5.329-6.3 11.621-11.654 18.46-16.25C-9.715 2.807-4.892.037 0-2.59 1.701-3.504 3.218-.915 1.514 0c-7.919 4.253-15.725 8.885-22.607 14.706-6.194 5.239-11.465 11.391-15.966 18.128-3.024 4.528-5.737 9.256-8.312 14.051-.524.976-2.066.976-2.59 0-4.253-7.919-8.885-15.725-14.706-22.608-5.239-6.194-11.391-11.465-18.128-15.965C-85.323 5.287-90.051 2.575-94.846 0c-.976-.524-.976-2.066 0-2.59 7.919-4.253 15.725-8.886 22.607-14.706 6.194-5.239 11.466-11.392 15.966-18.129 3.025-4.527 5.737-9.255 8.312-14.05.524-.977 2.066-.977 2.59 0 4.253 7.919 8.886 15.725 14.706 22.607 5.239 6.194 11.392 11.465 18.129 15.966 4.527 3.024 9.255 5.737 14.05 8.312C3.216-1.677 1.702.914 0 0" clip-path="url(#x)" style="fill:#000;fill-opacity:1;fill-rule:nonzero;stroke:none" transform="matrix(1.33333 0 0 -1.33333 1063.28 366.962)"/><path d="M0 0c-8.927-4.785-12.806-8.664-17.591-17.591C-22.376-8.664-26.255-4.785-35.182 0c8.927 4.785 12.806 8.664 17.591 17.591C-12.806 8.664-8.927 4.785 0 0" clip-path="url(#y)" style="fill:#ff99f1;fill-opacity:1;fill-rule:nonzero;stroke:none" transform="matrix(1.33333 0 0 -1.33333 1024.514 1075.355)"/><path d="M0 0c-3.826-2.061-7.563-4.387-10.652-7.477-3.09-3.09-5.416-6.826-7.477-10.652h2.59c-2.061 3.826-4.387 7.562-7.477 10.652-3.089 3.09-6.826 5.416-10.652 7.477v-2.59c3.826 2.061 7.563 4.387 10.652 7.477 3.09 3.089 5.416 6.826 7.477 10.652h-2.59c2.061-3.826 4.387-7.563 7.477-10.652C-7.563 1.797-3.826-.529 0-2.59 1.7-3.506 3.216-.917 1.514 0-2.094 1.944-5.617 4.093-8.531 7.008s-5.064 6.436-7.008 10.045c-.526.976-2.064.976-2.59 0-1.944-3.609-4.094-7.131-7.008-10.045C-28.051 4.093-31.574 1.944-35.182 0c-.976-.526-.976-2.064 0-2.59 3.608-1.944 7.131-4.094 10.045-7.008 2.914-2.915 5.064-6.437 7.008-10.045.526-.977 2.064-.977 2.59 0 1.944 3.608 4.094 7.13 7.008 10.045C-5.616-6.684-2.094-4.534 1.514-2.59 3.214-1.674 1.701.917 0 0" clip-path="url(#z)" style="fill:#000;fill-opacity:1;fill-rule:nonzero;stroke:none" transform="matrix(1.33333 0 0 -1.33333 1023.504 1073.629)"/><path d="M0 0c-8.927-4.785-12.806-8.664-17.591-17.591C-22.376-8.664-26.255-4.785-35.182 0c8.927 4.785 12.806 8.664 17.591 17.591C-12.806 8.664-8.927 4.785 0 0" clip-path="url(#A)" style="fill:#ff99f1;fill-opacity:1;fill-rule:nonzero;stroke:none" transform="matrix(1.33333 0 0 -1.33333 1024.514 368.689)"/><path d="M0 0c-3.826-2.061-7.563-4.387-10.652-7.477-3.09-3.09-5.416-6.826-7.477-10.652h2.59c-2.061 3.826-4.387 7.562-7.477 10.652-3.089 3.09-6.826 5.416-10.652 7.477v-2.59c3.826 2.061 7.563 4.387 10.652 7.477 3.09 3.089 5.416 6.826 7.477 10.652h-2.59c2.061-3.826 4.387-7.563 7.477-10.652C-7.563 1.797-3.826-.529 0-2.59 1.7-3.506 3.216-.917 1.514 0-2.094 1.944-5.617 4.093-8.531 7.008s-5.064 6.436-7.008 10.045c-.526.976-2.064.976-2.59 0-1.944-3.609-4.094-7.131-7.008-10.045C-28.051 4.093-31.574 1.944-35.182 0c-.976-.526-.976-2.065 0-2.59 3.608-1.944 7.131-4.094 10.045-7.008 2.914-2.915 5.064-6.437 7.008-10.045.526-.977 2.064-.977 2.59 0 1.944 3.608 4.094 7.13 7.008 10.045C-5.616-6.684-2.094-4.534 1.514-2.59 3.214-1.674 1.701.917 0 0" clip-path="url(#B)" style="fill:#000;fill-opacity:1;fill-rule:nonzero;stroke:none" transform="matrix(1.33333 0 0 -1.33333 1023.504 366.962)"/><path d="M5.977 0Q4.946 0 4.946-1.031v-52.864q0-1.029 1.031-1.03h28.711q1.03.001 1.031 1.03v8.907q-.001 1.02-1.031 1.02h-16.02v11.706h14.625q1.03.002 1.032 1.031v7.536q-.001 1.031-1.032 1.03H18.668v11.661h16.02q1.03.002 1.031 1.031v8.942Q35.718 0 34.688 0zm39.346 0q-1.032 0-1.031-1.031V-7.7q-.001-.949.62-1.242l8.403-4.98v-4.29l-8.402-4.535q-.623-.362-.621-1.277V-37.16q0-.457.14-.738.151-.293.434-.504l8.777-6.422q.457-.338.738-.422.291-.08.586-.082h10.008q1.03.002 1.031 1.031v6.469q0 .703-.105.949-.107.247-.434.41l-7.78 4.207v4.781l8.32 4.114q.702.294.702 1.242v12.644q0 1.034-.703 1.653L57.23-.54q-.66.54-1.652.539Zm39.474 0q-.948 0-1.652-.703l-6.879-6.832a2.34 2.34 0 0 1-.656-1.653v-26.53h-1.734q-1.033 0-1.032-1.032v-7.547q0-1.03 1.032-1.031h1.734v-5.145q0-1.03 1.02-1.031h10.968q1.03.002 1.031 1.031v5.145h3.997q1.029.002 1.03 1.031v7.547q-.001 1.032-1.03 1.031h-3.997v21.996q0 .787.493 1.278l4.03 4.078q.423.377.423 1.242v6.094Q93.573 0 92.543 0zm0 0" aria-label="Est" style="fill:#f6efdf;fill-opacity:1;fill-rule:nonzero;stroke:none" transform="translate(356.027 761.836)scale(1.33333)"/><path d="M0 0q1.03 0 1.03 1.03v8.941Q1.03 11 0 11.001h-16.027V22.66h14.626q1.03 0 1.03 1.03v7.539q0 1.03-1.03 1.031h-14.626v11.701H0q1.03 0 1.03 1.03v8.899q0 1.03-1.03 1.03h-28.717q-1.03 0-1.03-1.03V1.03q0-1.03 1.03-1.03z" clip-path="url(#C)" style="fill:none;stroke:#000;stroke-width:3;stroke-linecap:butt;stroke-linejoin:miter;stroke-miterlimit:10;stroke-dasharray:none;stroke-opacity:1" transform="matrix(1.33333 0 0 -1.33333 402.281 761.836)"/><path d="M0 0q.988 0 1.648.535l8.776 7.293q.7.617.7 1.649v12.648q0 .947-.7 1.235l-8.322 4.12v4.78l7.786 4.202q.33.165.433.412t.103.948v6.468q0 1.03-1.03 1.03H-.618q-.29 0-.577-.082-.288-.082-.741-.412l-8.776-6.428a1.35 1.35 0 0 1-.433-.494q-.144-.288-.144-.741V24.02q0-.907.618-1.278l8.405-4.531v-4.285l-8.405-4.986q-.618-.288-.618-1.236V1.03q0-1.03 1.03-1.03z" clip-path="url(#D)" style="fill:none;stroke:#000;stroke-width:3;stroke-linecap:butt;stroke-linejoin:miter;stroke-miterlimit:10;stroke-dasharray:none;stroke-opacity:1" transform="matrix(1.33333 0 0 -1.33333 430.187 761.836)"/><path d="M0 0q1.03 0 1.03 1.03v6.098q0 .864-.412 1.235l-4.038 4.079q-.494.494-.494 1.278v22.001H.082q1.03-.001 1.03 1.03v7.539q0 1.03-1.03 1.03h-3.996v5.151q0 1.028-1.03 1.029h-10.959q-1.03 0-1.031-1.029V45.32h-1.73q-1.03 0-1.03-1.03v-7.539q0-1.031 1.03-1.03h1.73V9.188q0-.948.66-1.648L-9.394.7q.7-.7 1.648-.7Z" clip-path="url(#E)" style="fill:none;stroke:#000;stroke-width:3;stroke-linecap:butt;stroke-linejoin:miter;stroke-miterlimit:10;stroke-dasharray:none;stroke-opacity:1" transform="matrix(1.33333 0 0 -1.33333 479.462 761.836)"/><path d="M7.794 0q-.927 0-.926-.914v-38.461l-4.922.176q-.914 0-.914-.914v-7.934q0-.914.914-.914h16.242q.915 0 .915.914V-.914q0 .915-.915.914zM52.16-48.96q.877 0 1.465.62l7.348 7.348q.62.587.62 1.465v27.48q0 .659-.55 1.102L47.638-.363q-.4.364-1.102.363H37.36q-.926 0-.925-.914v-4.629q-.002-.667.55-1.101l12.235-9.083v-2.015H36.142q-.88.002-1.465-.621l-6.14-6.106a2 2 0 0 1-.622-1.465v-13.593q-.002-.878.621-1.465l7.348-7.348q.633-.62 1.476-.62zm-7.383 9.433q-3.236.001-4.37 1.418-1.139 1.418-1.138 5.414 0 4.008 1.137 5.437 1.136 1.431 4.371 1.43 3.198.001 4.348-1.43 1.16-1.428 1.16-5.437 0-3.995-1.16-5.414-1.15-1.417-4.348-1.418m49.846-9.434q.877 0 1.465.621l7.347 7.348q.621.587.622 1.465v27.48q-.001.659-.551 1.102L90.1-.363Q89.7 0 88.999 0h-9.176q-.926 0-.926-.914v-4.629q-.001-.667.551-1.101l12.235-9.083v-2.015H78.604q-.879.002-1.464-.621l-6.141-6.106a2 2 0 0 1-.621-1.465v-13.593q-.002-.878.621-1.465l7.348-7.348q.633-.62 1.476-.62zm-7.383 9.434q-3.236.001-4.37 1.418-1.139 1.418-1.138 5.414 0 4.008 1.137 5.437 1.136 1.431 4.371 1.43 3.198.001 4.348-1.43 1.16-1.428 1.16-5.437 0-3.995-1.16-5.414-1.15-1.417-4.348-1.418M116.438 0q-2.087 0-2.847-.855-.75-.867-.75-2.52v-42.176q0-1.65.75-2.508.76-.866 2.847-.867l25.243-.117q2.13 0 2.859.867.738.868.738 2.52v42.281q0 1.653-.738 2.52-.728.855-2.86.855zm8.637-9.187h7.969v-30.668h-7.969zm0 0" aria-label="1990" style="fill:#f6efdf;fill-opacity:1;fill-rule:nonzero;stroke:none" transform="translate(917.24 758.36)scale(1.33333)"/><path d="M0 0q.917 0 .918.918v47.128q0 .917-.918.918h-16.235q-.92 0-.919-.918v-7.935q-.001-.918.919-.918l4.922.184V.918q0-.918.917-.918Z" clip-path="url(#F)" style="fill:none;stroke:#000;stroke-width:3;stroke-linecap:butt;stroke-linejoin:miter;stroke-miterlimit:10;stroke-dasharray:none;stroke-opacity:1" transform="matrix(1.33333 0 0 -1.33333 941.484 758.36)"/><path d="M0 0q-.845 0-1.469-.624l-7.346-7.347q-.625-.588-.624-1.469v-13.591q0-.846.624-1.469l6.134-6.098q.587-.625 1.469-.625h13.077v-2.019L-.367-42.315q-.55-.441-.551-1.102v-4.629q0-.918.918-.918h9.184q.697 0 1.101.367l13.407 10.579q.551.441.551 1.102V-9.44q0 .88-.624 1.469L16.272-.624Q15.686 0 14.804 0Zm11.773-10.854q1.157-1.415 1.157-5.418t-1.157-5.437q-1.157-1.433-4.353-1.433-3.232 0-4.371 1.433T1.91-16.272q0 4.003 1.139 5.418Q4.187-9.441 7.42-9.44q3.196 0 4.353-1.414z" clip-path="url(#G)" style="fill:none;stroke:#000;stroke-width:3;stroke-linecap:butt;stroke-linejoin:miter;stroke-miterlimit:10;stroke-dasharray:none;stroke-opacity:1" transform="matrix(1.33333 0 0 -1.33333 967.048 693.074)"/><path d="M0 0q-.845 0-1.469-.624l-7.346-7.347q-.625-.588-.624-1.469v-13.591q0-.846.624-1.469l6.134-6.098q.587-.625 1.469-.625h13.077v-2.019L-.367-42.315q-.55-.441-.551-1.102v-4.629q0-.918.918-.918h9.184q.697 0 1.101.367l13.407 10.579q.551.441.551 1.102V-9.44q0 .88-.624 1.469L16.272-.624Q15.686 0 14.804 0Zm11.773-10.854q1.157-1.415 1.157-5.418t-1.157-5.437q-1.157-1.433-4.353-1.433-3.232 0-4.371 1.433T1.91-16.272q0 4.003 1.139 5.418Q4.187-9.441 7.42-9.44q3.196 0 4.353-1.414z" clip-path="url(#H)" style="fill:none;stroke:#000;stroke-width:3;stroke-linecap:butt;stroke-linejoin:miter;stroke-miterlimit:10;stroke-dasharray:none;stroke-opacity:1" transform="matrix(1.33333 0 0 -1.33333 1023.712 693.074)"/><path d="M0 0q2.13 0 2.865.863t.736 2.516v42.279q0 1.653-.736 2.516-.735.863-2.865.863l-25.234-.11q-2.096 0-2.847-.863-.754-.864-.753-2.516V3.379q0-1.653.753-2.516Q-27.329 0-25.234 0Zm-16.603 39.854h7.971V9.182h-7.971z" clip-path="url(#I)" style="fill:none;stroke:#000;stroke-width:3;stroke-linecap:butt;stroke-linejoin:miter;stroke-miterlimit:10;stroke-dasharray:none;stroke-opacity:1" transform="matrix(1.33333 0 0 -1.33333 1106.236 758.36)"/><path d="M0 0c1.589 1.667 2.464 3.076 2.614 4.278S2.228 6.925.994 8.612c-1.247 1.705-2.4 2.556-3.462 2.538s-2.44-.882-4.102-2.626C-8.213 6.8-9.094 5.295-9.227 4.059s.467-2.666 1.788-4.293c1.307-1.611 2.486-2.382 3.531-2.331S-1.57-1.648 0 0m-11.752 15.247c1.721 1.805 2.686 3.304 2.885 4.556.198 1.25-.313 2.72-1.547 4.407s-2.404 2.504-3.515 2.437-2.579-1.022-4.372-2.904c-1.772-1.859-2.741-3.46-2.921-4.747-.181-1.288.389-2.736 1.696-4.346 1.308-1.61 2.51-2.354 3.602-2.251s2.472 1.064 4.172 2.848m5.641-33.444q-.658-.799-1.219-.177l-28.796 32.001c-.374.415-.299.946.228 1.584a247 247 0 0 0 19.822 21.548q.786.764 1.685.878c4.317.398 6.457.53 10.695.668q.865-.002 1.296-.665l3.938-6.047a.93.93 0 0 0 .168-.578 5 5 0 0 0-.132-.755A247 247 0 0 1-.82 21.62c.098-.597.148-.894.248-1.49.401-.122.601-.184 1-.309 3.07.294 4.594.405 7.621.555q.402-.006.63-.053t.435-.363l3.863-5.932q.449-.691.266-1.582c-.909-4.453-1.316-6.677-2.035-11.114a2.75 2.75 0 0 0-.807-1.579C3.545-6.926.231-10.516-6.111-18.197" clip-path="url(#J)" style="fill:#f6efdf;fill-opacity:1;fill-rule:nonzero;stroke:none" transform="matrix(1.33333 0 0 -1.33333 531.359 452.975)"/><path d="M0 0c1.589 1.667 2.464 3.076 2.614 4.278S2.228 6.925.994 8.612c-1.247 1.705-2.4 2.556-3.462 2.538s-2.44-.882-4.102-2.626C-8.213 6.8-9.094 5.295-9.227 4.059s.467-2.666 1.788-4.293c1.307-1.611 2.486-2.382 3.531-2.331S-1.57-1.648 0 0Zm-11.752 15.247c1.721 1.805 2.686 3.304 2.885 4.556.198 1.25-.313 2.72-1.547 4.407s-2.404 2.504-3.515 2.437-2.579-1.022-4.372-2.904c-1.772-1.859-2.741-3.46-2.921-4.747-.181-1.288.389-2.736 1.696-4.346 1.308-1.61 2.51-2.354 3.602-2.251s2.472 1.064 4.172 2.848zm5.641-33.444q-.658-.799-1.219-.177l-28.796 32.001c-.374.415-.299.946.228 1.584a247 247 0 0 0 19.822 21.548q.786.764 1.685.878c4.317.398 6.457.53 10.695.668q.865-.002 1.296-.665l3.938-6.047a.93.93 0 0 0 .168-.578 5 5 0 0 0-.132-.755A247 247 0 0 1-.82 21.62c.098-.597.148-.894.248-1.49.401-.122.601-.184 1-.309 3.07.294 4.594.405 7.621.555q.402-.006.63-.053t.435-.363l3.863-5.932q.449-.691.266-1.582c-.909-4.453-1.316-6.677-2.035-11.114a2.75 2.75 0 0 0-.807-1.579C3.545-6.926.231-10.516-6.111-18.197Z" clip-path="url(#K)" style="fill:none;stroke:#000;stroke-width:3;stroke-linecap:butt;stroke-linejoin:miter;stroke-miterlimit:10;stroke-dasharray:none;stroke-opacity:1" transform="matrix(1.33333 0 0 -1.33333 531.359 452.975)"/><path d="M0 0q-.751-.603-1.193.138l-22.656 38.13c-.295.495-.142.988.459 1.47A221 221 0 0 0 2.568 57.895q.957.577 1.313-.227l3.062-6.946q.354-.803-.572-1.361c-5.758-3.484-8.599-5.347-14.185-9.316l4.582-8.77c4.911 3.489 7.404 5.136 12.453 8.236q.889.545 1.248-.259l2.624-5.866q.358-.801-.503-1.328C7.699 29.056 5.284 27.46.528 24.081l4.566-8.739c5.006 3.557 7.553 5.227 12.714 8.35q.83.5 1.185-.304l3.076-6.977q.353-.803-.445-1.285C12.733 9.747 8.39 6.721 0 0" clip-path="url(#L)" style="fill:#f6efdf;fill-opacity:1;fill-rule:nonzero;stroke:#000;stroke-width:3;stroke-linecap:butt;stroke-linejoin:miter;stroke-miterlimit:10;stroke-dasharray:none;stroke-opacity:1" transform="matrix(1.33333 0 0 -1.33333 565.776 435.124)"/><path d="M0 0q-.811-.439-1.139.379l-2.474 6.154q-.171.425-.227.714-.055.29.216.636c2.896 3.484 4.391 5.195 7.468 8.544l-2.102 5.951c-4.436.378-6.681.499-11.221.593q-.74-.003-1.004.651l-4.83 12.015q-.21.523-.234.81-.023.288.353.85c3.068 4.498 4.665 6.717 7.982 11.083q.323.388.62.665.295.277.811.519C-1.498 51.569.66 52.51 5.003 54.273q1.006.406 1.26-.449l1.718-5.809q.222-.752-.283-1.261c-3.658-3.129-5.446-4.738-8.937-8.038l2.128-6.212c4.58-.21 6.845-.387 11.321-.876q.624-.018.877-.872l4.397-14.866q.08-.274.085-.615a.8.8 0 0 0-.229-.589c-3.682-3.872-5.458-5.86-8.875-9.921q-.164-.194-.39-.479a1.44 1.44 0 0 0-.491-.412A159 159 0 0 1 0 0" clip-path="url(#M)" style="fill:#f6efdf;fill-opacity:1;fill-rule:nonzero;stroke:#000;stroke-width:3;stroke-linecap:butt;stroke-linejoin:miter;stroke-miterlimit:10;stroke-dasharray:none;stroke-opacity:1" transform="matrix(1.33333 0 0 -1.33333 605.765 408.577)"/><path d="M0 0q-.92-.281-1.12.59l-8.348 36.386a174 174 0 0 1-6.993-2.301q-.983-.343-1.208.519l-1.954 7.468q-.227.866.79 1.222a200 200 0 0 0 29.865 8.093c.748.146 1.165-.082 1.249-.676l1.088-7.702c.084-.595-.237-.959-.959-1.101a175 175 0 0 1-7.577-1.631l6.418-36.911q.153-.884-.776-1.106C6.265 1.838 4.169 1.268 0 0" clip-path="url(#N)" style="fill:#f6efdf;fill-opacity:1;fill-rule:nonzero;stroke:#000;stroke-width:3;stroke-linecap:butt;stroke-linejoin:miter;stroke-miterlimit:10;stroke-dasharray:none;stroke-opacity:1" transform="matrix(1.33333 0 0 -1.33333 651.571 389.44)"/><path d="M0 0q-.94-.131-1.036.763l-.724 6.741q-.05.466-.023.761.028.296.398.531c3.905 2.302 5.899 3.402 9.962 5.49l-.408 6.416c-4.361 1.945-6.586 2.857-11.119 4.547q-.744.257-.821.974l-1.415 13.16q-.062.575-.003.856.06.282.597.686c4.368 3.209 6.61 4.757 11.208 7.727q.437.254.816.411.377.158.967.204c4.895.373 7.347.489 12.25.582q1.135.019 1.145-.886l.062-6.142q.007-.795-.651-1.094c-4.605-1.639-6.875-2.522-11.344-4.41l.358-6.673c4.56-1.842 6.798-2.83 11.185-4.925q.627-.244.636-1.147l.158-15.719a2.2 2.2 0 0 0-.091-.615.74.74 0 0 0-.402-.476c-4.844-2.335-7.21-3.584-11.821-6.228q-.22-.126-.531-.316a1.4 1.4 0 0 0-.613-.217C5.239.687 3.49.487 0 0" clip-path="url(#O)" style="fill:#f6efdf;fill-opacity:1;fill-rule:nonzero;stroke:#000;stroke-width:3;stroke-linecap:butt;stroke-linejoin:miter;stroke-miterlimit:10;stroke-dasharray:none;stroke-opacity:1" transform="matrix(1.33333 0 0 -1.33333 688.486 381.291)"/><path d="M0 0q-.945.033-.924.935L.14 47.283c.014.601.4.893 1.156.865a197 197 0 0 0 31.514-3.486c.749-.139 1.082-.51.998-1.104l-1.092-7.701q-.128-.89-1.214-.686c-6.759 1.257-10.157 1.744-16.966 2.438l-.772-10.224c5.985-.61 8.972-1.028 14.919-2.089q1.046-.189.924-1.083l-.89-6.532q-.123-.891-1.136-.708c-5.76 1.028-8.654 1.433-14.451 2.024l-.77-10.189c6.103-.621 9.148-1.058 15.208-2.185q.973-.183.847-1.075L27.317-2.19q-.127-.889-1.063-.714C15.816-.963 10.542-.382 0 0" clip-path="url(#P)" style="fill:#f6efdf;fill-opacity:1;fill-rule:nonzero;stroke:#000;stroke-width:3;stroke-linecap:butt;stroke-linejoin:miter;stroke-miterlimit:10;stroke-dasharray:none;stroke-opacity:1" transform="matrix(1.33333 0 0 -1.33333 730.03 379.16)"/><path d="M0 0q-.928.231-.768 1.113l8.217 45.372c.107.589.532.795 1.275.609 5.046-1.262 7.559-1.97 12.554-3.541.735-.231.981-.624.844-1.204L13.536 6.076c3.572-1.143 5.351-1.76 8.886-3.086q.876-.33.635-1.189L20.96-5.653q-.242-.857-1.083-.54C12.323-3.362 8.319-2.08 0 0" clip-path="url(#Q)" style="fill:#f6efdf;fill-opacity:1;fill-rule:nonzero;stroke:#000;stroke-width:3;stroke-linecap:butt;stroke-linejoin:miter;stroke-miterlimit:10;stroke-dasharray:none;stroke-opacity:1" transform="matrix(1.33333 0 0 -1.33333 779.456 386.174)"/><path d="M0 0q-.835.352-.573 1.2l13.428 43.659q.262.852 1.264.431c4.537-1.915 6.79-2.938 11.258-5.118.657-.321.884-.763.683-1.317L13.438 4.216c3.442-1.7 5.151-2.596 8.54-4.479q.84-.468.502-1.282l-2.925-7.066q-.337-.812-1.144-.362C11.171-4.951 7.479-3.156 0 0" clip-path="url(#R)" style="fill:#f6efdf;fill-opacity:1;fill-rule:nonzero;stroke:#000;stroke-width:3;stroke-linecap:butt;stroke-linejoin:miter;stroke-miterlimit:10;stroke-dasharray:none;stroke-opacity:1" transform="matrix(1.33333 0 0 -1.33333 815.352 398.173)"/><path d="M0 0q-.796.484-.441 1.285 9.145 20.599 18.287 41.197.356.804 1.313.224a221 221 0 0 0 25.923-18.249c.6-.485.753-.979.457-1.473l-3.829-6.406c-.296-.495-.734-.503-1.315-.035-5.425 4.372-8.19 6.437-13.806 10.325l-4.495-8.829c4.937-3.418 7.37-5.224 12.155-9.031q.841-.67.401-1.417L31.433 2.14c-.293-.497-.71-.525-1.254-.093-4.634 3.687-6.992 5.437-11.774 8.747l-4.48-8.798C18.959-1.489 21.437-3.341 26.3-7.26q.781-.632.338-1.374L22.79-15.07q-.444-.74-1.194-.133C13.219-8.451 8.881-5.411 0 0" clip-path="url(#S)" style="fill:#f6efdf;fill-opacity:1;fill-rule:nonzero;stroke:#000;stroke-width:3;stroke-linecap:butt;stroke-linejoin:miter;stroke-miterlimit:10;stroke-dasharray:none;stroke-opacity:1" transform="matrix(1.33333 0 0 -1.33333 848.884 415.368)"/><path d="M0 0c1.711-1.781 3.1-2.718 4.199-2.773 1.097-.055 2.321.743 3.666 2.412 1.358 1.687 1.969 3.178 1.82 4.475S8.576 7.017 6.788 8.878c-1.765 1.838-3.235 2.759-4.37 2.8-1.137.042-2.344-.829-3.626-2.596-1.268-1.748-1.802-3.264-1.615-4.546C-2.636 3.256-1.69 1.759 0 0m-26.594-8.681q-.73.654-.26 1.372l24.121 36.887q.47.72 1.346-.064c7.594-6.824 11.286-10.48 18.408-18.278q.789-.864 1.033-1.786c1.052-5.721 1.512-8.579 2.302-14.278q.114-.659.034-.927-.08-.269-.438-.668l-6.129-6.859q-.292-.325-.807-.222c-2.247.488-3.367.712-5.596 1.118-1.793.451-2.687.663-4.47 1.06.038-2.976.039-4.458.006-7.41a283 283 0 0 0-2.24-9.846 5 5 0 0 0-.217-.65 2.1 2.1 0 0 0-.393-.593l-2.626-2.919q-.561-.621-1.218.176c-2.782 3.369-4.199 5.005-7.083 8.181q-.602.661-.398 1.427c2.19 6.876 3.214 10.365 5.116 17.433-.901.926-1.354 1.385-2.263 2.294l-9.34-12.713q-.503-.684-1.211.017c-3.024 2.998-4.56 4.447-7.677 7.248" clip-path="url(#T)" style="fill:#f6efdf;fill-opacity:1;fill-rule:nonzero;stroke:none" transform="matrix(1.33333 0 0 -1.33333 924.588 433.816)"/><path d="M0 0c1.711-1.781 3.1-2.718 4.199-2.773 1.097-.055 2.321.743 3.666 2.412 1.358 1.687 1.969 3.178 1.82 4.475S8.576 7.017 6.788 8.878c-1.765 1.838-3.235 2.759-4.37 2.8-1.137.042-2.344-.829-3.626-2.596-1.268-1.748-1.802-3.264-1.615-4.546C-2.636 3.256-1.69 1.759 0 0Zm-26.594-8.681q-.73.654-.26 1.372l24.121 36.887q.47.72 1.346-.064c7.594-6.824 11.286-10.48 18.408-18.278q.789-.864 1.033-1.786c1.052-5.721 1.512-8.579 2.302-14.278q.114-.659.034-.927-.08-.269-.438-.668l-6.129-6.859q-.292-.325-.807-.222c-2.247.488-3.367.712-5.596 1.118-1.793.451-2.687.663-4.47 1.06.038-2.976.039-4.458.006-7.41a283 283 0 0 0-2.24-9.846 5 5 0 0 0-.217-.65 2.1 2.1 0 0 0-.393-.593l-2.626-2.919q-.561-.621-1.218.176c-2.782 3.369-4.199 5.005-7.083 8.181q-.602.661-.398 1.427c2.19 6.876 3.214 10.365 5.116 17.433-.901.926-1.354 1.385-2.263 2.294l-9.34-12.713q-.503-.684-1.211.017c-3.024 2.998-4.56 4.447-7.677 7.248z" clip-path="url(#U)" style="fill:none;stroke:#000;stroke-width:3;stroke-linecap:butt;stroke-linejoin:miter;stroke-miterlimit:10;stroke-dasharray:none;stroke-opacity:1" transform="matrix(1.33333 0 0 -1.33333 924.588 433.816)"/><path d="M660.03 298.254H424.24v339.864h235.79z" style="fill:#4ccfe5;fill-opacity:1;fill-rule:nonzero;stroke:none" transform="matrix(1.33333 0 0 -1.33333 0 1440)"/><path d="M0 0h-226.19c-2.984 0-6.23.364-9.198 0-.13-.016-.27 0-.402 0l1.5-1.5v326.086c0 4.354.33 8.855 0 13.201-.014.19 0 .386 0 .577l-1.5-1.5H-9.599c2.983 0 6.229-.364 9.198 0 .129.016.27 0 .401 0l-1.5 1.5V12.279c0-4.398-.083-8.805 0-13.202.004-.192 0-.385 0-.577 0-1.93 3-1.934 3 0v326.086c0 4.397.083 8.804 0 13.201-.004.192 0 .385 0 .577 0 .811-.687 1.5-1.5 1.5h-226.19c-3.061 0-6.138.09-9.198 0-.134-.004-.268 0-.402 0-.811 0-1.5-.687-1.5-1.5V12.279c0-4.398-.083-8.805 0-13.202.004-.192 0-.385 0-.577 0-.811.688-1.5 1.5-1.5H-9.599c3.061 0 6.137-.09 9.198 0 .133.004.267 0 .401 0 1.93 0 1.934 3 0 3" clip-path="url(#V)" style="fill:#000;fill-opacity:1;fill-rule:nonzero;stroke:none" transform="matrix(1.33333 0 0 -1.33333 880.04 1040.328)"/><path d="M0 0c-9.942 0-18.002-8.06-18.002-18.002S-9.942-36.004 0-36.004s18.002 8.06 18.002 18.002S9.942 0 0 0m117.394-42.869h-235.79L-82.374 7H81.372Z" clip-path="url(#W)" style="fill:#fdab23;fill-opacity:1;fill-rule:nonzero;stroke:none" transform="matrix(1.33333 0 0 -1.33333 723.515 532.017)"/><path d="M0 0h-226.185c-3.047 0-6.173.203-9.214 0-.129-.009-.261 0-.391 0l1.295-2.257 12.191 16.877 19.408 26.868 4.423 6.124-1.295-.743H-42.64c2.075 0 4.274-.209 6.342 0 .09.009.186 0 .276 0l-1.295.743 12.191-16.878L-1.295-2.257c1.12-1.551 3.724-.055 2.59 1.514l-15.68 21.708-19.58 27.106c-.561.777-1.031 1.689-2.078 1.798-.378.039-.78 0-1.159 0h-158.741c-1.245 0-2.572.132-3.812 0-1.058-.113-1.548-1.075-2.117-1.863l-3.079-4.262-10.495-14.529-20.41-28.257-1.229-1.701c-.686-.95.242-2.257 1.295-2.257H-9.605c3.069 0 6.146-.063 9.215 0 .13.003.26 0 .39 0 1.93 0 1.934 3 0 3" clip-path="url(#X)" style="fill:#000;fill-opacity:1;fill-rule:nonzero;stroke:none" transform="matrix(1.33333 0 0 -1.33333 880.04 587.176)"/><path d="M0 0c-8.146-.078-15.447-5.149-18.309-12.787-2.845-7.593-.422-16.569 5.845-21.705 6.331-5.189 15.44-5.986 22.495-1.738 7.019 4.227 10.636 12.525 9.093 20.548C17.378-6.61 9.142-.087 0 0c-1.931.018-1.933-2.982 0-3 6.856-.065 13.221-4.367 15.53-10.896 2.319-6.557.288-13.93-5.062-18.371-5.312-4.409-13.094-4.92-18.984-1.372-5.865 3.531-9.043 10.592-7.681 17.325C-14.64-8.612-7.83-3.075 0-3c1.929.018 1.934 3.018 0 3" clip-path="url(#Y)" style="fill:#000;fill-opacity:1;fill-rule:nonzero;stroke:none" transform="matrix(1.33333 0 0 -1.33333 723.515 530.017)"/><path d="M0 0c-8.663 17.626-17.353 35.577-20.765 54.918-3.413 19.342-.92 40.589 11.064 56.149 2.857 3.709 6.238 7.066 10.238 9.5 11.72 7.134 27.778 5.029 38.475-3.563s16.177-22.672 16.05-36.393c-.128-13.72-5.4-27.037-13.063-38.418l-16.316-.771s32.613 29.483 14.62 59.949c-6.916 11.711-21.618 16.717-33.772 10.612-6.955-3.493-13.581-10.757-16.976-25.06 0 0-9.179-33.821 20.403-82.732A8.55 8.55 0 0 0 .5-.115Z" clip-path="url(#Z)" style="fill:#f6efdf;fill-opacity:1;fill-rule:nonzero;stroke:none" transform="matrix(1.33333 0 0 -1.33333 727.845 577.914)"/><path d="M0 0c-7.976 16.231-15.984 32.711-19.818 50.5-3.338 15.485-3.178 32.329 3.123 47.074 3.121 7.302 7.826 14.452 14.231 19.273 5.973 4.496 13.37 6.283 20.769 5.632 7.342-.647 14.481-3.732 19.959-8.661 5.624-5.06 9.588-11.745 11.812-18.946 4.951-16.036.85-33.112-7.336-47.338a92 92 0 0 0-3.332-5.341l1.296.743-16.316-.771 1.06-2.561c2.483 2.249 4.702 4.843 6.776 7.464 4.6 5.812 8.477 12.223 10.979 19.222 2.928 8.191 3.659 17.157 1.233 25.574-2.737 9.499-8.855 17.805-18.202 21.551-8.373 3.355-18.108 2.209-25.403-3.122-7.589-5.546-11.714-14.363-13.91-23.284-1.705-6.926-1.768-14.311-1.261-21.382 1.372-19.159 7.894-37.71 16.919-54.552a190 190 0 0 1 4.789-8.398v1.514C5.723 1.11 2.398-.068-.896.689c-1.88.433-2.682-2.459-.798-2.892 2.233-.514 4.447-.515 6.594.364A10.3 10.3 0 0 1 7.942.081c.792.722 1.91 1.874 2.167 2.954.302 1.269-1.308 3.087-1.914 4.132a184 184 0 0 0-2.356 4.183 174 174 0 0 0-4.351 8.516c-4.5 9.453-8.086 19.367-10.39 29.587-1.6 7.095-2.571 14.337-2.675 21.614a81 81 0 0 0 .231 7.561q.111 1.413.283 2.821c.012.099.082.635.057.45-.026-.194.045.315.058.404q.074.512.159 1.022c2.116 12.65 9.405 26.199 23.059 28.676 9.307 1.689 19.05-2.788 24.378-10.482 5.362-7.744 7.335-17.53 5.712-26.768-2.169-12.346-9.563-23.929-18.523-32.545a23 23 0 0 0-.51-.481c-.947-.858-.219-2.621 1.061-2.56l13.337.63c.866.041 1.733.07 2.599.123.125.007.255.001.38.018 1.344.177 1.94 1.699 2.601 2.739a84.6 84.6 0 0 1 7.128 13.855c3.753 9.339 5.663 19.623 4.493 29.676-1.069 9.196-4.471 18.09-10.336 25.304-5.792 7.126-14.026 12.042-23.104 13.56-9.049 1.514-18.436-.273-25.803-5.89-7.749-5.908-13.145-14.702-16.432-23.769-3.281-9.05-4.489-18.831-4.163-28.426.731-21.602 9.418-41.861 18.68-61.041A1167 1167 0 0 1-2.59-1.514C-1.739-3.247.849-1.728 0 0" clip-path="url(#aa)" style="fill:#000;fill-opacity:1;fill-rule:nonzero;stroke:none" transform="matrix(1.33333 0 0 -1.33333 729.572 576.904)"/><path d="M514.159 298.254h-41.2v341.128h41.2z" clip-path="url(#ab)" style="fill:#d3d2f4;fill-opacity:1;fill-rule:nonzero;stroke:none" transform="matrix(1.33333 0 0 -1.33333 0 1440)"/><path d="M0 0h-41.2l1.5-1.5v327.281c0 4.376.333 8.9 0 13.267-.015.191 0 .388 0 .58l-1.5-1.5H0l-1.5 1.5V12.347c0-4.419-.084-8.848 0-13.267.004-.193 0-.387 0-.58 0-1.93 3-1.934 3 0v327.281c0 4.419.084 8.848 0 13.267-.004.193 0 .387 0 .58 0 .811-.687 1.5-1.5 1.5h-41.2c-.811 0-1.5-.687-1.5-1.5V12.347c0-4.419-.084-8.848 0-13.267.003-.193 0-.387 0-.58 0-.811.687-1.5 1.5-1.5H0c1.93 0 1.934 3 0 3" clip-path="url(#ac)" style="fill:#000;fill-opacity:1;fill-rule:nonzero;stroke:none" transform="matrix(1.33333 0 0 -1.33333 685.545 1040.328)"/><path d="M618.5 298.254h-41.2v341.128h41.2z" clip-path="url(#ad)" style="fill:#d3d2f4;fill-opacity:1;fill-rule:nonzero;stroke:none" transform="matrix(1.33333 0 0 -1.33333 0 1440)"/><path d="M0 0h-41.2l1.5-1.5v327.281c0 4.376.333 8.9 0 13.267-.015.191 0 .388 0 .58l-1.5-1.5H0l-1.5 1.5V12.347c0-4.419-.084-8.848 0-13.267.004-.193 0-.387 0-.58 0-1.93 3-1.934 3 0v327.281c0 4.419.084 8.848 0 13.267-.004.193 0 .387 0 .58 0 .811-.687 1.5-1.5 1.5h-41.2c-.811 0-1.5-.687-1.5-1.5V12.347c0-4.419-.084-8.848 0-13.267.003-.193 0-.387 0-.58 0-.811.687-1.5 1.5-1.5H0c1.93 0 1.934 3 0 3" clip-path="url(#ae)" style="fill:#000;fill-opacity:1;fill-rule:nonzero;stroke:none" transform="matrix(1.33333 0 0 -1.33333 824.667 1040.328)"/><path d="M0 0c0-80.768-39.681-146.243-88.63-146.243S-177.259-80.768-177.259 0c0 80.767 39.68 146.243 88.629 146.243S0 80.767 0 0" clip-path="url(#af)" style="fill:#ff99f1;fill-opacity:1;fill-rule:nonzero;stroke:none" transform="matrix(1.33333 0 0 -1.33333 841.688 819.162)"/><path d="M0 0c-.029-28.493-4.782-57.451-16.073-83.729-8.756-20.377-21.898-40.551-41.231-52.278-8.031-4.872-17.097-8.064-26.51-8.635-9.347-.567-18.692 1.378-27.138 5.392-19.797 9.409-33.842 28.041-43.396 47.229-12.445 24.992-18.391 53.112-19.658 80.884-1.33 29.137 2.36 58.827 12.419 86.284 7.858 21.45 20.095 42.952 38.695 56.848 7.634 5.704 16.329 9.979 25.72 11.797 9.203 1.782 18.752 1.007 27.612-2.003 20.131-6.84 35.161-24.012 45.47-41.957C-10.529 76.226-3.47 49.023-1.001 22.047A244 244 0 0 0 0 0c.002-1.93 3.002-1.934 3 0-.03 29.195-5.017 58.738-16.646 85.622-9.016 20.844-22.682 41.35-42.547 53.218-8.392 5.015-17.837 8.208-27.621 8.802-9.731.591-19.427-1.496-28.237-5.605-20.244-9.445-34.806-28.448-44.62-47.966-12.84-25.539-18.997-54.254-20.324-82.689-1.387-29.728 2.413-60.15 12.809-88.122 8.166-21.973 20.72-43.606 39.78-57.846 7.894-5.897 17.009-10.327 26.73-12.155a57.2 57.2 0 0 1 28.628 1.963c20.782 6.943 36.415 24.291 47.161 42.762C-7.912-77.993-.675-50.286 1.932-22.765A244 244 0 0 1 3 0C3.002 1.93.002 1.933 0 0" clip-path="url(#ag)" style="fill:#000;fill-opacity:1;fill-rule:nonzero;stroke:none" transform="matrix(1.33333 0 0 -1.33333 839.688 819.162)"/><path d="M0 0c0 16.61-16.122 30.074-36.01 30.074S-72.019 16.61-72.019 0Z" clip-path="url(#ah)" style="fill:#f6efdf;fill-opacity:1;fill-rule:nonzero;stroke:none" transform="matrix(1.33333 0 0 -1.33333 726.37 821.085)"/><path d="M0 0c-.09 14.432-11.427 25.58-24.603 29.656-14.21 4.397-31.205 1.264-41.81-9.522C-71.714 14.742-74.972 7.605-75.019 0c-.005-.811.691-1.5 1.5-1.5H-1.5c1.93 0 1.934 3 0 3h-72.019l1.5-1.5c.081 13.137 10.606 23.172 22.569 26.816 13.074 3.983 28.641 1.25 38.496-8.576C-6.075 13.376-3.043 6.937-3 0c.012-1.93 3.012-1.934 3 0" clip-path="url(#ai)" style="fill:#000;fill-opacity:1;fill-rule:nonzero;stroke:none" transform="matrix(1.33333 0 0 -1.33333 728.37 821.085)"/><path d="M0 0c0-13.501-10.945-24.446-24.446-24.446S-48.893-13.501-48.893 0s10.945 24.446 24.447 24.446S0 13.501 0 0" clip-path="url(#aj)" style="fill:#000;fill-opacity:1;fill-rule:nonzero;stroke:none" transform="matrix(1.33333 0 0 -1.33333 711.801 780.732)"/><path d="M0 0c0 16.61-16.122 30.074-36.01 30.074S-72.019 16.61-72.019 0Z" clip-path="url(#ak)" style="fill:#f6efdf;fill-opacity:1;fill-rule:nonzero;stroke:none" transform="matrix(1.33333 0 0 -1.33333 809.282 821.085)"/><path d="M0 0c-.09 14.432-11.427 25.58-24.603 29.656-14.21 4.397-31.205 1.264-41.81-9.522C-71.714 14.742-74.972 7.605-75.019 0c-.005-.811.691-1.5 1.5-1.5H-1.5c1.93 0 1.934 3 0 3h-72.019l1.5-1.5c.081 13.137 10.606 23.172 22.569 26.816 13.075 3.983 28.641 1.25 38.496-8.576C-6.075 13.376-3.043 6.937-3 0c.012-1.93 3.012-1.934 3 0" clip-path="url(#al)" style="fill:#000;fill-opacity:1;fill-rule:nonzero;stroke:none" transform="matrix(1.33333 0 0 -1.33333 811.282 821.085)"/><path d="M0 0c0-13.501-10.945-24.446-24.446-24.446S-48.893-13.501-48.893 0s10.945 24.446 24.447 24.446S0 13.501 0 0" clip-path="url(#am)" style="fill:#000;fill-opacity:1;fill-rule:nonzero;stroke:none" transform="matrix(1.33333 0 0 -1.33333 794.713 780.732)"/><path d="M0 0q0 .992-.341 2.141a7.2 7.2 0 0 1-1.086 2.172A6.3 6.3 0 0 1-3.32 6.02q-1.149.681-2.762.682-1.614 0-2.792-.682a6.15 6.15 0 0 1-1.924-1.707 7.7 7.7 0 0 1-1.117-2.172Q-12.288.991-12.288 0q0-.993.373-2.141a7.7 7.7 0 0 1 1.117-2.172A6.1 6.1 0 0 1-8.874-6.02q1.178-.682 2.792-.682t2.762.682a6.3 6.3 0 0 1 1.893 1.707A7.1 7.1 0 0 1-.341-2.141Q-.001-.993 0 0m14.025-.124q0-3.29-1.365-6.485-1.365-3.197-3.972-5.709-2.607-2.514-6.298-4.096-3.693-1.583-8.347-1.583-4.594 0-8.285 1.583-3.693 1.582-6.268 4.096-2.576 2.512-3.941 5.709-1.365 3.195-1.365 6.485 0 3.226 1.365 6.454a17.5 17.5 0 0 0 3.941 5.74q2.575 2.514 6.268 4.096 3.691 1.583 8.285 1.583 4.653 0 8.347-1.583 3.691-1.582 6.298-4.096t3.972-5.74q1.365-3.228 1.365-6.454M-8.316 50.639a566 566 0 0 1-14.738-35.218 762 762 0 0 1-12.691-36.148l-12.909 4.716q3.662 8.998 7.292 17.966a901 901 0 0 0 7.448 17.841 583 583 0 0 0 7.912 17.594 313 313 0 0 0 8.75 17.221zm-38.848-19.858q-.001.992-.341 2.141a7.2 7.2 0 0 1-1.086 2.172 6.3 6.3 0 0 1-1.893 1.707q-1.148.681-2.762.682-1.614 0-2.792-.682a6.15 6.15 0 0 1-1.924-1.707 7.7 7.7 0 0 1-1.117-2.172q-.373-1.15-.373-2.141 0-.993.373-2.141a7.7 7.7 0 0 1 1.117-2.172 6.1 6.1 0 0 1 1.924-1.707q1.178-.684 2.792-.683 1.614 0 2.762.683a6.3 6.3 0 0 1 1.893 1.707 7.1 7.1 0 0 1 1.086 2.172q.34 1.148.341 2.141m14.025-.124q0-3.29-1.365-6.485-1.366-3.197-3.972-5.71-2.607-2.514-6.299-4.095-3.693-1.583-8.347-1.583-4.593 0-8.284 1.583-3.693 1.581-6.268 4.095-2.577 2.513-3.941 5.71-1.366 3.195-1.365 6.485 0 3.226 1.365 6.454a17.5 17.5 0 0 0 3.941 5.74q2.575 2.514 6.268 4.096 3.691 1.582 8.284 1.582 4.654 0 8.347-1.582t6.299-4.096 3.972-5.74q1.364-3.229 1.365-6.454" clip-path="url(#an)" style="fill:#f6efdf;fill-opacity:1;fill-rule:nonzero;stroke:none" transform="matrix(1.33333 0 0 -1.33333 765.673 733.408)"/><path d="M0 0c-.102-7.38-5.534-13.45-12.441-15.536-6.828-2.063-14.781-.451-19.833 4.7-5.274 5.378-5.989 13.589-1.623 19.749 4.221 5.954 11.993 8.353 19.009 7.193C-6.947 14.793-.117 8.31 0 0c.027-1.929 3.027-1.934 3 0-.122 8.661-6.356 15.828-14.448 18.368-7.922 2.486-17.293.49-23.092-5.563-6.031-6.294-7.032-16.054-1.947-23.24 4.958-7.007 13.667-9.886 21.972-8.631C-5.075-17.64 2.865-9.757 3 0 3.027 1.931.027 1.932 0 0" clip-path="url(#ao)" style="fill:#000;fill-opacity:1;fill-rule:nonzero;stroke:none" transform="matrix(1.33333 0 0 -1.33333 719.488 692.532)"/><path d="M0 0c-.063 3.3-1.934 6.613-5.116 7.8-3.104 1.159-6.585-.107-8.477-2.73-1.965-2.725-2.177-6.232-.6-9.184 1.602-3 4.756-4.547 8.103-3.948C-2.366-7.396-.068-3.569 0 0c.037 1.931-2.963 1.931-3 0-.037-1.963-1.087-4.183-3.006-4.941-1.851-.731-3.997-.028-5.129 1.572-1.24 1.752-1.511 3.938-.519 5.869.947 1.842 2.653 2.961 4.766 2.669C-4.463 4.832-3.043 2.266-3 0c.037-1.928 3.037-1.934 3 0" clip-path="url(#ap)" style="fill:#000;fill-opacity:1;fill-rule:nonzero;stroke:none" transform="matrix(1.33333 0 0 -1.33333 704.788 692.367)"/><path d="M0 0c-8.293-18.095-15.565-36.625-22.109-55.42a772 772 0 0 1-5.472-16.305l1.845 1.048-12.908 4.716 1.048-1.845c7.54 18.533 14.88 37.166 23.533 55.219A318 318 0 0 0-6.346 2.458l-2.052-.538L.538-2.052C2.287-2.83 3.815-.245 2.052.538L-6.884 4.51c-.724.322-1.63.235-2.052-.538-9.643-17.647-17.465-36.235-25.006-54.855q-3.267-8.065-6.547-16.126c-.323-.793.361-1.594 1.048-1.845l12.908-4.716c.785-.287 1.612.327 1.845 1.048 6.097 18.85 12.834 37.525 20.559 55.773A572 572 0 0 0 2.59-1.514C3.389.229.804 1.755 0 0" clip-path="url(#aq)" style="fill:#000;fill-opacity:1;fill-rule:nonzero;stroke:none" transform="matrix(1.33333 0 0 -1.33333 752.859 664.88)"/><path d="M0 0c-.102-7.379-5.533-13.45-12.441-15.536-6.828-2.062-14.78-.451-19.832 4.7-5.275 5.378-5.99 13.589-1.623 19.749 4.22 5.954 11.992 8.353 19.009 7.193C-6.947 14.793-.117 8.31 0 0c.027-1.929 3.027-1.934 3 0-.122 8.661-6.355 15.828-14.448 18.368-7.922 2.486-17.293.49-23.092-5.563-6.03-6.294-7.032-16.054-1.947-23.24 4.959-7.007 13.667-9.885 21.973-8.631C-5.074-17.64 2.865-9.756 3 0 3.027 1.931.027 1.932 0 0" clip-path="url(#ar)" style="fill:#000;fill-opacity:1;fill-rule:nonzero;stroke:none" transform="matrix(1.33333 0 0 -1.33333 782.374 733.573)"/><path d="M0 0c-.063 3.301-1.934 6.612-5.116 7.8-3.104 1.16-6.585-.107-8.477-2.73-1.965-2.724-2.177-6.232-.6-9.184 1.603-3 4.755-4.547 8.103-3.948C-2.366-7.395-.068-3.569 0 0c.037 1.931-2.963 1.931-3 0-.037-1.963-1.087-4.183-3.006-4.941-1.851-.731-3.997-.028-5.129 1.572-1.239 1.752-1.511 3.939-.519 5.87.947 1.84 2.654 2.961 4.767 2.668C-4.463 4.832-3.043 2.267-3 0c.037-1.928 3.037-1.934 3 0" clip-path="url(#as)" style="fill:#000;fill-opacity:1;fill-rule:nonzero;stroke:none" transform="matrix(1.33333 0 0 -1.33333 767.673 733.408)"/><path d="M0 0c0-7.275-8.326-13.172-18.595-13.172-10.27 0-18.596 5.897-18.596 13.172s8.326 13.172 18.596 13.172S0 7.275 0 0" clip-path="url(#at)" style="fill:#ff5b35;fill-opacity:1;fill-rule:nonzero;stroke:none" transform="matrix(1.33333 0 0 -1.33333 743.87 825.668)"/><path d="M0 0c-.089-5.944-5.992-9.611-11.146-10.937-6.26-1.611-13.941-.761-19.057 3.466-1.995 1.648-3.639 3.902-3.942 6.535-.293 2.54.703 5.023 2.381 6.904 4.354 4.882 11.78 6.35 18.024 5.487C-7.808 10.635-.104 6.923 0 0c.029-1.929 3.029-1.934 3 0-.109 7.257-6.722 12.075-13.168 13.784-7.481 1.982-16.424.786-22.397-4.396-2.442-2.119-4.198-5.01-4.558-8.251-.356-3.211.83-6.306 2.847-8.769 4.922-6.009 13.785-7.785 21.135-6.746C-5.711-13.327 2.873-8.417 3 0 3.029 1.931.029 1.932 0 0" clip-path="url(#au)" style="fill:#000;fill-opacity:1;fill-rule:nonzero;stroke:none" transform="matrix(1.33333 0 0 -1.33333 741.87 825.668)"/><path d="M0 0c0-2.303-2.636-4.17-5.887-4.17-3.252 0-5.888 1.867-5.888 4.17s2.636 4.17 5.888 4.17S0 2.303 0 0" clip-path="url(#av)" style="fill:#f6efdf;fill-opacity:1;fill-rule:nonzero;stroke:none" transform="matrix(1.33333 0 0 -1.33333 719.782 821.869)"/><path d="M0 0a5 5 0 0 0-.012-.269c.024.307.001.023-.024-.06l-.076-.255c-.063-.22.103.192-.001-.013a4 4 0 0 0-.315-.529c.042.059.168.177-.029-.026-.101-.104-.197-.212-.303-.311a4 4 0 0 0-.224-.195c.054.043.188.131-.061-.04a6 6 0 0 0-.537-.327c-.417-.225-.682-.319-1.206-.453-.89-.226-1.979-.26-2.853-.079a9 9 0 0 0-1.113.317 5 5 0 0 0-.578.292 8 8 0 0 0-.334.207c-.058.038-.28.207-.125.083a5 5 0 0 0-.478.453c-.025.026-.212.255-.11.12.102-.133-.064.1-.083.132q-.086.147-.17.295c-.032.056-.095.259-.009.011q-.045.125-.081.253c-.021.078-.066.456-.041.125q-.021.269 0 .538c-.024-.31.055.149.078.252.059.254.027.088-.006.016q.07.154.157.3.072.118.148.231c.081.125-.113-.102.068.084.579.594 1.194.985 1.996 1.232a6.5 6.5 0 0 0 2.871.234c.362-.05 1.03-.22 1.481-.401-.157.063.091-.042.099-.045a7 7 0 0 0 .697-.388c.001-.001.376-.275.19-.126.192-.154.357-.331.527-.506.033-.034.171-.224.029-.026q.12-.168.221-.348A1.5 1.5 0 0 0 0 0c.043-1.928 3.043-1.934 3 0C2.938 2.791.547 4.725-1.991 5.37c-2.731.695-5.88.201-8.035-1.687-2.044-1.791-2.271-4.712-.55-6.793 1.818-2.198 5.008-2.83 7.706-2.431C-.018-5.12 2.93-3.136 3 0 3.043 1.931.043 1.931 0 0" clip-path="url(#aw)" style="fill:#000;fill-opacity:1;fill-rule:nonzero;stroke:none" transform="matrix(1.33333 0 0 -1.33333 717.782 821.869)"/><path d="M0 0c-.681-5.134-.83-11.69.419-16.716 2.469-9.941 6.764-19.595 13.642-27.185 5.336-5.889 12.337-10.441 19.986-12.408 3.03-.78 5.73 2.052 4.812 5.043a230.5 230.5 0 0 0-8.016 36.454L19.803-4.346l-7.527 2.127z" clip-path="url(#ax)" style="fill:#000;fill-opacity:1;fill-rule:nonzero;stroke:none" transform="matrix(1.33333 0 0 -1.33333 698.395 882.816)"/><path d="M0 0c2.066-6.905 6.149-12.994 9.979-19.1 3.829-6.105 7.527-12.526 8.666-19.643 1.139-7.116-.78-15.143-6.485-19.547-5.756-4.443-14.203-4.189-20.621-.77s-11.047 9.489-14.409 15.937c-5.753 11.031-8.33 23.696-7.345 36.099 0 0 13.58-.99 20.064 2.012z" clip-path="url(#ay)" style="fill:#ff5b35;fill-opacity:1;fill-rule:nonzero;stroke:none" transform="matrix(1.33333 0 0 -1.33333 746.963 876.208)"/><path d="M0 0c2.915-9.529 9.286-17.291 13.967-25.943 4.11-7.597 7.036-16.984 3.052-25.269-1.774-3.689-4.794-6.538-8.735-7.764-3.962-1.232-8.275-.884-12.141.531-8.49 3.11-14.01 11.417-17.644 19.268-4.687 10.131-6.612 21.438-5.767 32.552l-1.5-1.5c4.391-.316 8.883-.251 13.25.3 2.631.332 5.259.827 7.672 1.966 1.671.79 3.317 1.638 4.974 2.457L2.203-.896c1.732.854.213 3.443-1.514 2.59l-9.61-4.745c-4.439-2.192-9.965-2.236-14.813-2.231-1.678.002-3.361.036-5.034.157-.852.061-1.443-.74-1.5-1.5-.807-10.618.884-21.422 4.956-31.266 3.627-8.768 9.146-17.788 17.874-22.239 7.87-4.014 18.563-3.647 24.533 3.526 6.033 7.248 5.721 17.466 2.435 25.83C15.156-19.641 6.413-10.709 2.893.798 2.33 2.638-.567 1.853 0 0" clip-path="url(#az)" style="fill:#000;fill-opacity:1;fill-rule:nonzero;stroke:none" transform="matrix(1.33333 0 0 -1.33333 745.035 876.74)"/><path d="M0 0c2.157-12.724 13.942-22.113 25.889-25.232 11.96-3.123 24.621-.345 34.425 7.105 5.448 4.14 9.921 9.483 12.945 15.629.849 1.727-1.738 3.249-2.591 1.514-4.921-10.004-13.896-17.945-24.646-21.109-10.896-3.207-23.149-.942-32.183 5.957C8.401-11.982 4.052-6.039 2.893.798 2.571 2.697-.321 1.891 0 0" clip-path="url(#aA)" style="fill:#000;fill-opacity:1;fill-rule:nonzero;stroke:none" transform="matrix(1.33333 0 0 -1.33333 668.708 852.43)"/><path d="M0 0c2.485-3.134 6.739-4.186 10.567-3.633 4.401.637 8.137 3.424 11.319 6.361 1.422 1.312-.703 3.43-2.121 2.121C17.082 2.374 14.008.023 10.33-.65c-3.012-.552-6.272.33-8.209 2.771-.507.64-1.589.521-2.121 0C-.634 1.501-.501.631 0 0" clip-path="url(#aB)" style="fill:#000;fill-opacity:1;fill-rule:nonzero;stroke:none" transform="matrix(1.33333 0 0 -1.33333 655.432 848.263)"/><path d="M0 0c1.735-3.682 5.364-6.528 9.402-7.19 4.324-.71 8.812.802 11.777 4.046 1.3 1.423-.815 3.551-2.121 2.122-2.266-2.479-5.773-3.867-9.129-3.227-3.254.62-5.934 2.783-7.339 5.763C1.768 3.259-.819 1.738 0 0" clip-path="url(#aC)" style="fill:#000;fill-opacity:1;fill-rule:nonzero;stroke:none" transform="matrix(1.33333 0 0 -1.33333 754.499 846.754)"/><path d="M0 0a217 217 0 0 0 22.454-39.29 213 213 0 0 0 4.881-12.131c.662-1.796 3.562-1.02 2.893.798C24.935-36.246 18.17-22.421 9.995-9.462A218 218 0 0 1 2.59 1.514C1.474 3.068-1.13 1.572 0 0" clip-path="url(#aD)" style="fill:#000;fill-opacity:1;fill-rule:nonzero;stroke:none" transform="matrix(1.33333 0 0 -1.33333 724.273 886.445)"/><path d="M0 0c10.514 10.548 26.805 13.023 40.823 9.351 1.869-.49 2.666 2.403.797 2.893C26.576 16.185 9.147 13.426-2.121 2.121-3.486.752-1.365-1.37 0 0" clip-path="url(#aE)" style="fill:#000;fill-opacity:1;fill-rule:nonzero;stroke:none" transform="matrix(1.33333 0 0 -1.33333 635.817 779.579)"/><path d="M0 0c-11.268 11.305-28.697 14.064-43.741 10.123-1.866-.489-1.075-3.384.797-2.893 14.017 3.672 30.309 1.197 40.823-9.351C-.757-3.491 1.365-1.37 0 0" clip-path="url(#aF)" style="fill:#000;fill-opacity:1;fill-rule:nonzero;stroke:none" transform="matrix(1.33333 0 0 -1.33333 803.532 776.75)"/></svg>