<svg xmlns="http://www.w3.org/2000/svg" width="1440" height="1440" viewBox="0 0 1440 1440"><defs><clipPath id="a" clipPathUnits="userSpaceOnUse"><path d="M-394.572 796.312h1080v-1080h-1080Z"/></clipPath><clipPath id="b" clipPathUnits="userSpaceOnUse"><path d="M-394.572 794.812h1080v-1080h-1080Z"/></clipPath><clipPath id="c" clipPathUnits="userSpaceOnUse"><path d="M-745.934 580.303h1080v-1080h-1080Z"/></clipPath><clipPath id="d" clipPathUnits="userSpaceOnUse"><path d="M-745.934 578.803h1080v-1080h-1080Z"/></clipPath><clipPath id="e" clipPathUnits="userSpaceOnUse"><path d="M-711.224 713.701h1080v-1080h-1080Z"/></clipPath><clipPath id="f" clipPathUnits="userSpaceOnUse"><path d="M-709.724 713.701h1080v-1080h-1080Z"/></clipPath><clipPath id="g" clipPathUnits="userSpaceOnUse"><path d="M-364.863 649.409h1080v-1080h-1080Z"/></clipPath><clipPath id="h" clipPathUnits="userSpaceOnUse"><path d="M-413.437 649.409h1080v-1080h-1080Z"/></clipPath><clipPath id="i" clipPathUnits="userSpaceOnUse"><path d="M-460.21 649.409h1080v-1080h-1080Z"/></clipPath><clipPath id="j" clipPathUnits="userSpaceOnUse"><path d="M-517.55 649.409h1080v-1080h-1080Z"/></clipPath><clipPath id="k" clipPathUnits="userSpaceOnUse"><path d="M-572.904 649.409h1080v-1080h-1080Z"/></clipPath><clipPath id="l" clipPathUnits="userSpaceOnUse"><path d="M-637.715 649.409h1080v-1080h-1080Z"/></clipPath><clipPath id="m" clipPathUnits="userSpaceOnUse"><path d="M-676.37 649.409h1080v-1080h-1080Z"/></clipPath><clipPath id="n" clipPathUnits="userSpaceOnUse"><path d="M-704.001 649.409h1080v-1080h-1080Z"/></clipPath><clipPath id="o" clipPathUnits="userSpaceOnUse"><path d="M-442.684 731.005h1080v-1080h-1080Z"/></clipPath><clipPath id="p" clipPathUnits="userSpaceOnUse"><path d="M-458.664 731.005h1080v-1080h-1080Z"/></clipPath><clipPath id="q" clipPathUnits="userSpaceOnUse"><path d="M-485.179 731.005h1080v-1080h-1080Z"/></clipPath><clipPath id="r" clipPathUnits="userSpaceOnUse"><path d="M-503.922 731.005h1080v-1080h-1080Z"/></clipPath><clipPath id="s" clipPathUnits="userSpaceOnUse"><path d="M-531.737 730.788h1080v-1080h-1080Z"/></clipPath><clipPath id="t" clipPathUnits="userSpaceOnUse"><path d="M-561.042 731.005h1080v-1080h-1080Z"/></clipPath><clipPath id="u" clipPathUnits="userSpaceOnUse"><path d="M-577.401 694.901h1080v-1080h-1080Z"/></clipPath><clipPath id="v" clipPathUnits="userSpaceOnUse"><path d="M-610.958 694.901h1080v-1080h-1080Z"/></clipPath><clipPath id="w" clipPathUnits="userSpaceOnUse"><path d="M-658.815 731.005h1080v-1080h-1080Z"/></clipPath><clipPath id="x" clipPathUnits="userSpaceOnUse"><path d="M-678.705 410.213h1080v-1080h-1080Z"/></clipPath><clipPath id="y" clipPathUnits="userSpaceOnUse"><path d="M-680.051 409.427h1080v-1080h-1080Z"/></clipPath><clipPath id="z" clipPathUnits="userSpaceOnUse"><path d="M-507.627 405.592h1080v-1080h-1080Z"/></clipPath><clipPath id="A" clipPathUnits="userSpaceOnUse"><path d="M-506.068 405.592h1080v-1080h-1080Z"/></clipPath><clipPath id="B" clipPathUnits="userSpaceOnUse"><path d="M-492.07 405.628h1080v-1080h-1080Z"/></clipPath><clipPath id="C" clipPathUnits="userSpaceOnUse"><path d="M-490.511 405.628h1080v-1080h-1080Z"/></clipPath><clipPath id="D" clipPathUnits="userSpaceOnUse"><path d="M-375.57 393.443h1080v-1080h-1080Z"/></clipPath><clipPath id="E" clipPathUnits="userSpaceOnUse"><path d="M-733.42 550.668h1080v-1080h-1080Z"/></clipPath><clipPath id="F" clipPathUnits="userSpaceOnUse"><path d="M-733.005 552.171h1080v-1080h-1080Z"/></clipPath><clipPath id="G" clipPathUnits="userSpaceOnUse"><path d="M-631.378 381.626h1080v-1080h-1080Z"/></clipPath><clipPath id="H" clipPathUnits="userSpaceOnUse"><path d="M-632.724 382.412h1080v-1080h-1080Z"/></clipPath><clipPath id="I" clipPathUnits="userSpaceOnUse"><path d="M-674.048 473.16h1080v-1080h-1080Z"/></clipPath><clipPath id="J" clipPathUnits="userSpaceOnUse"><path d="M-673.634 471.658h1080v-1080h-1080Z"/></clipPath><clipPath id="K" clipPathUnits="userSpaceOnUse"><path d="M-669.93 463.333h1080v-1080h-1080Z"/></clipPath><clipPath id="L" clipPathUnits="userSpaceOnUse"><path d="M-669.515 461.83h1080v-1080h-1080Z"/></clipPath><clipPath id="M" clipPathUnits="userSpaceOnUse"><path d="M-647.213 386.915h1080v-1080h-1080Z"/></clipPath><clipPath id="N" clipPathUnits="userSpaceOnUse"><path d="M-722.263 564.25h1080v-1080h-1080Z"/></clipPath><clipPath id="O" clipPathUnits="userSpaceOnUse"><path d="M-722.263 565.81h1080v-1080h-1080Z"/></clipPath><clipPath id="P" clipPathUnits="userSpaceOnUse"><path d="M-305.35 498.155h1080v-1080h-1080Z"/></clipPath><clipPath id="Q" clipPathUnits="userSpaceOnUse"><path d="M-314.67 467.882h1080v-1080h-1080Z"/></clipPath><clipPath id="R" clipPathUnits="userSpaceOnUse"><path d="M-341.94 425.627h1080v-1080h-1080Z"/></clipPath><clipPath id="S" clipPathUnits="userSpaceOnUse"><path d="M-375.374 398.063h1080v-1080h-1080Z"/></clipPath><clipPath id="T" clipPathUnits="userSpaceOnUse"><path d="M-411.787 363.97h1080v-1080h-1080Z"/></clipPath><clipPath id="U" clipPathUnits="userSpaceOnUse"><path d="M-438.26 364.76h1080v-1080h-1080Z"/></clipPath><clipPath id="V" clipPathUnits="userSpaceOnUse"><path d="M-468.585 341.457h1080v-1080h-1080Z"/></clipPath><clipPath id="W" clipPathUnits="userSpaceOnUse"><path d="M-504.035 334.54h1080v-1080h-1080Z"/></clipPath><clipPath id="X" clipPathUnits="userSpaceOnUse"><path d="M-538.63 334.06h1080v-1080h-1080Z"/></clipPath><clipPath id="Y" clipPathUnits="userSpaceOnUse"><path d="M-584.747 336.886h1080v-1080h-1080Z"/></clipPath><clipPath id="Z" clipPathUnits="userSpaceOnUse"><path d="M-612.475 342.968h1080v-1080h-1080Z"/></clipPath><clipPath id="aa" clipPathUnits="userSpaceOnUse"><path d="M-718.204 403.26h1080v-1080h-1080Z"/></clipPath><clipPath id="ab" clipPathUnits="userSpaceOnUse"><path d="M-719.588 450.29h1080v-1080h-1080Z"/></clipPath><clipPath id="ac" clipPathUnits="userSpaceOnUse"><path d="M-734.742 477.712h1080v-1080h-1080Z"/></clipPath><clipPath id="ad" clipPathUnits="userSpaceOnUse"><path d="M-747.095 507.313h1080v-1080h-1080Z"/></clipPath><clipPath id="ae" clipPathUnits="userSpaceOnUse"><path d="M-752.764 537.988h1080v-1080h-1080Z"/></clipPath><clipPath id="af" clipPathUnits="userSpaceOnUse"><path d="M-499.515 475.122h1080v-1080h-1080Z"/></clipPath><clipPath id="ag" clipPathUnits="userSpaceOnUse"><path d="M-499.515 473.563h1080v-1080h-1080Z"/></clipPath><clipPath id="ah" clipPathUnits="userSpaceOnUse"><path d="M-504.916 461.775h1080v-1080h-1080Z"/></clipPath><clipPath id="ai" clipPathUnits="userSpaceOnUse"><path d="M-504.816 410.914h1080v-1080h-1080Z"/></clipPath><clipPath id="aj" clipPathUnits="userSpaceOnUse"><path d="M-550.434 475.005h1080v-1080h-1080Z"/></clipPath><clipPath id="ak" clipPathUnits="userSpaceOnUse"><path d="M-550.434 473.446h1080v-1080h-1080Z"/></clipPath><clipPath id="al" clipPathUnits="userSpaceOnUse"><path d="M-555.835 461.658h1080v-1080h-1080Z"/></clipPath><clipPath id="am" clipPathUnits="userSpaceOnUse"><path d="M-555.736 410.796h1080v-1080h-1080Z"/></clipPath><clipPath id="an" clipPathUnits="userSpaceOnUse"><path d="M-498.77 473.642h1080v-1080h-1080Z"/></clipPath><clipPath id="ao" clipPathUnits="userSpaceOnUse"><path d="M-462.823 447.82h1080v-1080h-1080Z"/></clipPath><clipPath id="ap" clipPathUnits="userSpaceOnUse"><path d="M-580.452 447.547h1080v-1080h-1080Z"/></clipPath><clipPath id="aq" clipPathUnits="userSpaceOnUse"><path d="M-555.132 483.866h1080v-1080h-1080Z"/></clipPath><clipPath id="ar" clipPathUnits="userSpaceOnUse"><path d="M-335.016 530.076h1080v-1080h-1080Z"/></clipPath><clipPath id="as" clipPathUnits="userSpaceOnUse"><path d="M-667.27 428.422h1080v-1080h-1080Z"/></clipPath><clipPath id="at" clipPathUnits="userSpaceOnUse"><path d="M-529.024 490.731h1080v-1080h-1080Z"/></clipPath><clipPath id="au" clipPathUnits="userSpaceOnUse"><path d="M-529.426 492.188h1080v-1080h-1080Z"/></clipPath><clipPath id="av" clipPathUnits="userSpaceOnUse"><path d="M-506.084 509.555h1080v-1080h-1080Z"/></clipPath><clipPath id="aw" clipPathUnits="userSpaceOnUse"><path d="M-531.75 497.631h1080v-1080h-1080Z"/></clipPath><clipPath id="ax" clipPathUnits="userSpaceOnUse"><path d="M-530.784 506.655h1080v-1080h-1080Z"/></clipPath><clipPath id="ay" clipPathUnits="userSpaceOnUse"><path d="M-577.79 478.057h1080v-1080h-1080Z"/></clipPath><clipPath id="az" clipPathUnits="userSpaceOnUse"><path d="M-579.12 488.581h1080v-1080h-1080Z"/></clipPath><clipPath id="aA" clipPathUnits="userSpaceOnUse"><path d="M-580.221 489.684h1080v-1080h-1080Z"/></clipPath><clipPath id="aB" clipPathUnits="userSpaceOnUse"><path d="M-563.446 504.743h1080v-1080h-1080Z"/></clipPath><clipPath id="aC" clipPathUnits="userSpaceOnUse"><path d="M-371.43 506.777h1080v-1080h-1080Z"/></clipPath><clipPath id="aD" clipPathUnits="userSpaceOnUse"><path d="M-369.872 506.777h1080v-1080h-1080Z"/></clipPath><clipPath id="aE" clipPathUnits="userSpaceOnUse"><path d="M-460.804 500.151h1080v-1080h-1080Z"/></clipPath><clipPath id="aF" clipPathUnits="userSpaceOnUse"><path d="M-459.245 500.151h1080v-1080h-1080Z"/></clipPath><clipPath id="aG" clipPathUnits="userSpaceOnUse"><path d="M-417.86 455.803h1080v-1080h-1080Z"/></clipPath><clipPath id="aH" clipPathUnits="userSpaceOnUse"><path d="M-416.3 455.803h1080v-1080h-1080Z"/></clipPath><clipPath id="aI" clipPathUnits="userSpaceOnUse"><path d="M-670.53 529.275h1080v-1080h-1080Z"/></clipPath><clipPath id="aJ" clipPathUnits="userSpaceOnUse"><path d="M-668.97 529.275h1080v-1080h-1080Z"/></clipPath><clipPath id="aK" clipPathUnits="userSpaceOnUse"><path d="M-640.702 444.4h1080v-1080h-1080Z"/></clipPath><clipPath id="aL" clipPathUnits="userSpaceOnUse"><path d="M-639.143 444.4h1080v-1080h-1080Z"/></clipPath><clipPath id="aM" clipPathUnits="userSpaceOnUse"><path d="M-703.522 487.714h1080v-1080h-1080Z"/></clipPath><clipPath id="aN" clipPathUnits="userSpaceOnUse"><path d="M-701.964 487.714h1080v-1080h-1080Z"/></clipPath><clipPath id="aO" clipPathUnits="userSpaceOnUse"><path d="M-417.576 540.722h1080v-1080h-1080Z"/></clipPath><clipPath id="aP" clipPathUnits="userSpaceOnUse"><path d="M-416.017 540.722h1080v-1080h-1080Z"/></clipPath><clipPath id="aQ" clipPathUnits="userSpaceOnUse"><path d="M-535.338 541.77h1080v-1080h-1080Z"/></clipPath><clipPath id="aR" clipPathUnits="userSpaceOnUse"><path d="M-554.293 377.76h1080v-1080h-1080Z"/></clipPath><clipPath id="aS" clipPathUnits="userSpaceOnUse"><path d="M-491.353 375.9h1080v-1080h-1080Z"/></clipPath></defs><path d="M0 0h1080v1080H0Z" style="fill:#fff;fill-opacity:1;fill-rule:nonzero;stroke:none" transform="matrix(1.33333 0 0 -1.33333 0 1440)"/><path d="M0 0c-44.327 0-80.391 36.063-80.391 80.39v119.245c-18.466 4.174-34.843 14.758-46.484 30.423-15.345 20.651-19.885 46.638-12.454 71.297 18.031 59.838 55.603 113.631 105.796 151.469 51.894 39.122 113.779 59.801 178.965 59.801 65.185 0 127.07-20.679 178.963-59.801 50.19-37.839 87.76-91.632 105.791-151.47 7.429-24.659 2.89-50.646-12.456-71.296-11.64-15.665-28.017-26.249-46.484-30.423l-.001-119.245c0-44.327-36.062-80.39-80.39-80.39Z" clip-path="url(#a)" style="fill:#86cef7;fill-opacity:1;fill-rule:nonzero;stroke:none" transform="matrix(1.33333 0 0 -1.33333 526.096 1061.75)"/><path d="M0 0c-24.177.118-47.247 11.306-62.176 30.367-11.479 14.657-16.715 32.368-16.715 50.826v116.942c0 .636-.463 1.299-1.101 1.447-32.519 7.538-57.715 35.702-60.959 69.086-1.632 16.801 3.082 32.468 8.866 48.037 5.662 15.238 12.624 29.988 20.727 44.079 16.085 27.972 36.694 53.305 60.84 74.713 25.045 22.205 53.952 40.182 84.991 52.724 31.272 12.635 64.661 19.758 98.354 21.145 33.884 1.395 67.946-2.867 100.357-12.887 32.267-9.975 62.654-25.628 89.678-45.868 25.992-19.466 48.699-43.344 67.005-70.154a299.5 299.5 0 0 0 23.713-41.465c6.859-14.593 13.432-30.218 16.835-46.036 7.122-33.107-8.546-68.021-37.868-84.92-6.776-3.905-14.088-6.69-21.7-8.454-.637-.148-1.101-.808-1.101-1.447v-39.536l-.001-63.666c0-5.179.007-10.358 0-15.537-.018-13.055-3.045-25.917-9.201-37.458C346.854 16.27 319.75.098 290.708 0c-7.469-.025-14.939 0-22.408 0zc-1.93 0-1.934-3 0-3h289.333c23.264 0 45.528 9.002 61.466 26.155 10.268 11.05 17.45 24.912 20.371 39.723 1.401 7.104 1.575 14.223 1.575 21.42l.001 57.337v56.5l-1.101-1.446c32.232 7.472 57.646 34.624 62.597 67.443a82.2 82.2 0 0 1 .069 24.023c-1.22 8.457-3.946 16.605-6.775 24.64a297.5 297.5 0 0 1-20.269 45.139c-16.021 28.971-36.851 55.319-61.384 77.549-25.417 23.03-54.806 41.632-86.501 54.734-31.998 13.227-66.28 20.649-100.863 22.128-34.919 1.494-70.111-2.996-103.447-13.538-33.02-10.443-64.089-26.758-91.547-47.851-26.281-20.188-49.103-44.771-67.414-72.387a299 299 0 0 1-23.887-43.44 297 297 0 0 1-9.055-22.762c-2.82-8.051-5.513-16.201-6.688-24.678-4.569-32.96 12.046-66.374 41.077-82.678 6.775-3.805 14.088-6.569 21.653-8.322l-1.102 1.446V81.929c0-17.609 4.207-34.514 14.269-49.174C-52.374 10.538-26.922-2.868 0-3c1.931-.009 1.933 2.991 0 3" clip-path="url(#b)" style="fill:#000;fill-opacity:1;fill-rule:nonzero;stroke:none" transform="matrix(1.33333 0 0 -1.33333 526.096 1059.75)"/><path d="M0 0h-.001v-134.024c0-34.145-27.68-61.825-61.824-61.825h-288.218c-34.145 0-61.824 27.68-61.824 61.825V0c-41.501 0-71.137 40.055-59.163 79.791 34.286 113.779 140.002 196.663 265.1 196.663S24.879 193.57 59.163 79.79C71.136 40.054 41.5 0 0 0" clip-path="url(#c)" style="fill:#f05924;fill-opacity:1;fill-rule:nonzero;stroke:none" transform="matrix(1.33333 0 0 -1.33333 994.578 773.737)"/><path d="M0 0h-.001c-.811 0-1.5-.687-1.5-1.5v-132.842c0-17.281-6.646-33.708-19.416-45.519-11.456-10.596-26.39-15.977-41.903-15.988-15.079-.01-30.158 0-45.237 0h-235.82c-6.825 0-13.522.039-20.242 1.651-21.096 5.06-38.265 21.609-44.062 42.523-2.483 8.959-2.186 18.011-2.186 27.181V-1.5c0 .811-.687 1.5-1.5 1.5-30.02 0-56.176 23.014-59.89 52.852-1.912 15.353 3.232 29.848 8.643 43.976a273 273 0 0 0 19.74 40.909c15.253 25.89 34.753 49.209 57.489 68.855 22.828 19.724 48.94 35.704 76.931 46.972 28.928 11.646 59.79 18.295 90.943 19.631 31.556 1.353 63.271-2.64 93.459-11.951 28.89-8.91 56.224-22.652 80.669-40.436a276.5 276.5 0 0 0 63.145-64.1 276 276 0 0 0 22.784-38.635c6.604-13.622 12.604-28.035 16.38-42.726 7.498-29.178-8.522-60.618-36.764-71.38C14.728 1.325 7.412.044 0 0c-1.93-.011-1.934-3.011 0-3 30.096.177 56.704 21.92 62.252 51.66a63.6 63.6 0 0 1 .214 22.041c-1.287 7.785-4.078 15.378-6.773 22.77a277.6 277.6 0 0 1-19.58 42.304 279.6 279.6 0 0 1-58.326 71.507 279.5 279.5 0 0 1-78.528 48.62c-29.685 12.136-61.458 18.98-93.495 20.31-32.418 1.345-65.066-2.929-96-12.741-29.734-9.432-57.831-23.925-82.765-42.668a280.7 280.7 0 0 1-63.408-66.469 276 276 0 0 1-22.904-40.725 280 280 0 0 1-8.75-21.529c-2.659-7.418-5.374-14.997-6.491-22.826-4.206-29.457 13.501-58.716 41.55-68.666C-426.242-1.811-419.04-3-411.867-3l-1.5 1.5v-62.782c0-23.517-.028-47.033 0-70.549.021-17.829 7.147-34.991 20.295-47.151 11.92-11.026 27.524-16.846 43.703-16.867 14.787-.019 29.573 0 44.36 0h237.832c7.658 0 15.183.277 22.643 2.391 20.087 5.693 36.417 21.433 42.917 41.263 3.179 9.699 3.116 19.482 3.116 29.501V-1.5L-.001-3H0c1.93 0 1.934 3 0 3" clip-path="url(#d)" style="fill:#000;fill-opacity:1;fill-rule:nonzero;stroke:none" transform="matrix(1.33333 0 0 -1.33333 994.578 771.737)"/><path d="M0 0c0-24.804-77.238-44.911-172.515-44.911S-345.03-24.804-345.03 0s77.238 44.911 172.515 44.911S0 24.804 0 0" clip-path="url(#e)" style="fill:#fff19c;fill-opacity:1;fill-rule:nonzero;stroke:none" transform="matrix(1.33333 0 0 -1.33333 948.299 951.602)"/><path d="M0 0c-.039-5.393-4.201-9.92-8.396-13.166-6.898-5.339-15.235-8.849-23.387-11.768-11.554-4.138-23.533-7.07-35.563-9.442-15.016-2.961-30.209-4.991-45.444-6.413-34.859-3.253-70.091-3.508-105.004-.951-28.58 2.093-57.577 5.817-85.029 14.333-9.174 2.846-18.379 6.249-26.575 11.334-4.875 3.024-10.406 7.186-12.137 12.865-1.488 4.882.772 9.54 4.335 13.206 5.414 5.571 12.797 9.213 19.867 12.192 10.63 4.48 21.84 7.592 33.069 10.153 14.108 3.217 28.428 5.489 42.797 7.164 34.63 4.039 69.707 4.843 104.512 3.029 30.031-1.566 60.372-4.917 89.477-12.741 10.069-2.707 20.138-5.947 29.45-10.696 5.939-3.029 12.487-6.876 16.067-12.721C-.743 4.391-.016 2.233 0 0c.014-1.93 3.014-1.934 3 0-.044 6.021-4.042 11.01-8.492 14.661-6.878 5.645-15.244 9.355-23.518 12.444-11.684 4.362-23.853 7.408-36.065 9.87-15.172 3.059-30.539 5.158-45.941 6.645-35.841 3.462-72.097 3.733-107.999 1.03-29.088-2.191-58.707-6.007-86.571-14.971-9.203-2.961-18.511-6.512-26.63-11.847-5.146-3.382-10.542-7.915-12.287-14.082-4.004-14.153 14.135-23.503 24.401-27.991 10.654-4.658 21.892-7.914 33.194-10.567 14.406-3.382 29.046-5.733 43.732-7.497 35.494-4.263 71.48-5.095 107.164-3.181 30.545 1.639 61.484 5.089 91.037 13.263 10.228 2.829 20.466 6.25 29.854 11.261C-9.055-17.725-2.562-13.529.925-7.394 2.21-5.132 2.981-2.611 3 0 3.014 1.931.014 1.933 0 0" clip-path="url(#f)" style="fill:#000;fill-opacity:1;fill-rule:nonzero;stroke:none" transform="matrix(1.33333 0 0 -1.33333 946.299 951.602)"/><path d="M5.308 0q-1.16.002-1.16-1.148V-9.82q0-.608.07-.972.07-.375.527-.598l12.094-5.543v-8.203L4.933-32.52q-.786-.467-.785-1.383v-16.933q-.001-.737.093-1.079.093-.35.692-.761l12.14-8.215q.457-.28.844-.434.398-.163.996-.164H31.37q1.148 0 1.149 1.149v7.84q-.001 1.021-.692 1.382l-12.082 4.992v8.532l12.082 6.914q.691.33.692 1.476v20.075q-.001.363-.118.785a.88.88 0 0 1-.48.597L17.437-.55q-.283.14-.68.351-.389.201-.75.2zm52.174 0q-1.068.001-1.851-.785l-9.223-9.222q-.785-.738-.785-1.852v-27.023q-.001-1.113.785-1.852l9.223-9.223q.783-.783 1.851-.785h24.68q1.148 0 1.149 1.149v48.445C83.31-.38 82.927 0 82.162 0h-9.598q-.598 0-.902-.222a10 10 0 0 1-.668-.563l-2.308-2.308-2.309 2.308q-.74.786-1.84.785Zm5.391-10.746h3.234q1.476 0 2.028-.597.55-.609.55-2.121v-26.532h-5.812q-1.525 0-2.074.598c-.37.398-.55 1.107-.55 2.121v23.813c0 1.007.18 1.716.55 2.12q.549.599 2.074.598M98.95 0q-1.16.002-1.16-1.148v-48.445q0-1.148 1.16-1.149h24.68q1.054.002 1.84.785l9.234 9.223q.774.738.774 1.852v37.734c0 .768-.384 1.148-1.149 1.148h-12.316c-.768 0-1.149-.38-1.149-1.148v-35.894q0-2.168-2.168-2.168h-6.28v38.062c0 .768-.385 1.148-1.15 1.148zm62.602 0q-1.069.001-1.852-.785l-9.222-9.222q-.787-.738-.786-1.852v-27.023q0-1.113.786-1.852l9.222-9.223q.784-.783 1.852-.785h7.055q1.1.002 1.84.785l2.308 2.309v-12.691q-.002-1.148 1.148-1.149h12.329q1.147 0 1.148 1.149v59.191c0 .768-.384 1.148-1.148 1.148h-9.598q-.599 0-.902-.222a10 10 0 0 1-.668-.563l-2.309-2.308-2.309 2.308q-.74.786-1.84.785zm5.39-10.746h3.235q1.475 0 2.027-.597.55-.609.55-2.121v-26.532h-5.812q-1.524 0-2.074.598-.552.599-.55 2.121v23.813q-.002 1.512.55 2.12.55.599 2.074.598M213.401 0q-1.069.001-1.852-.785l-9.223-9.222q-.786-.738-.785-1.852v-37.734c0-.765.38-1.149 1.149-1.149h12.316q1.16 0 1.16 1.149v38.062h7.7v-38.062c0-.765.38-1.149 1.148-1.149h12.281q1.148 0 1.148 1.149v38.062h7.7v-38.062q0-1.148 1.16-1.149h12.316q1.148 0 1.149 1.149v37.734q-.002 1.115-.786 1.852L250.76-.785q-.786.786-1.84.785h-10.523q-1.103.001-1.84-.785l-6.235-6.222h1.664l-6.234 6.222q-.74.786-1.84.785zm63.055 0q-1.16.002-1.16-1.148v-48.445q0-1.148 1.16-1.149h12.27q1.147 0 1.148 1.149v48.445c0 .768-.384 1.148-1.148 1.148zm-.234-54.574q-.927.001-.926-.926v-5.859q0-.915.926-.914h12.82q.832 0 .832.914v5.86q0 .926-.832.925zM319.356 0q-.929 0-1.852-.597l-7.512-5.074-5.168-8.309q-.33-.596-.562-.797-.224-.21-.223-.902v-19.383q0-.69.176-.914.186-.234.61-.832l4.698-7.852 7.98-5.484q.422-.28.833-.434.421-.163 1.02-.164h7.98q1.148 0 1.148 1.149v8.625c0 .252-.023.515-.07.797a.89.89 0 0 1-.433.632l-5.262 2.637-4.055 5.309v12.316l4.29 4.887 5.027 3.176q.454.282.48.68c.015.257.023.51.023.75v8.636c0 .768-.383 1.148-1.148 1.148zm23.25 0q-1.16.002-1.16-1.148v-59.191q0-1.148 1.16-1.149h12.316q1.148 0 1.148 1.149v9.597h11.215q1.054.002 1.84.785l9.234 9.223q.774.739.774 1.852v37.734c0 .768-.384 1.148-1.149 1.148h-12.316c-.768 0-1.148-.38-1.148-1.148v-36.129q-.001-1.933-1.946-1.933h-6.504v38.062c0 .768-.383 1.148-1.148 1.148zm0 0" aria-label="Sandwich" style="fill:#fffbe9;fill-opacity:1;fill-rule:nonzero;stroke:none" transform="translate(465.142 865.878)scale(1.33333)"/><path d="M0 0q.368 0 .761.208.391.207.669.346L15.915 7.75a.91.91 0 0 1 .484.6q.116.414.116.784V29.2q0 1.152-.693 1.476L3.736 37.595v8.534l12.086 4.982q.692.369.693 1.384v7.842q-.001 1.152-1.154 1.153H2.906q-.6 0-.992-.161a6.5 6.5 0 0 1-.853-.438l-12.132-8.211q-.6-.416-.692-.762-.092-.345-.092-1.084V33.905q-.001-.923.784-1.384L.83 25.141v-8.212l-12.086-5.535q-.46-.231-.53-.6a5.5 5.5 0 0 1-.069-.968V1.153Q-11.855 0-10.702 0Z" clip-path="url(#g)" style="fill:none;stroke:#000;stroke-width:3;stroke-linecap:butt;stroke-linejoin:miter;stroke-miterlimit:10;stroke-dasharray:none;stroke-opacity:1" transform="matrix(1.33333 0 0 -1.33333 486.484 865.878)"/><path d="M0 0q1.106 0 1.845.784l2.306 2.307L6.458.784q.367-.323.669-.554.299-.23.899-.23h9.595q1.153 0 1.153 1.153v48.436q0 1.153-1.153 1.153h-24.68q-1.06 0-1.844-.784l-9.226-9.226q-.784-.738-.784-1.845V11.855q0-1.108.784-1.845L-8.903.784Q-8.12 0-7.059 0Zm-3.737 11.348q-.553.599-.553 2.122v23.802q0 1.522.553 2.123.553.598 2.076.599h5.812V13.47q0-1.523-.553-2.122-.554-.6-2.03-.6h-3.229q-1.523 0-2.076.6z" clip-path="url(#h)" style="fill:none;stroke:#000;stroke-width:3;stroke-linecap:butt;stroke-linejoin:miter;stroke-miterlimit:10;stroke-dasharray:none;stroke-opacity:1" transform="matrix(1.33333 0 0 -1.33333 551.249 865.878)"/><path d="M0 0q1.153 0 1.153 1.153V39.21h6.274q2.168 0 2.169-2.168V1.153Q9.596 0 10.748 0h12.317q1.153 0 1.153 1.153v37.734q0 1.107-.784 1.845l-9.226 9.226q-.784.784-1.845.784h-24.679q-1.154 0-1.154-1.153V1.153Q-13.47 0-12.316 0Z" clip-path="url(#i)" style="fill:none;stroke:#000;stroke-width:3;stroke-linecap:butt;stroke-linejoin:miter;stroke-miterlimit:10;stroke-dasharray:none;stroke-opacity:1" transform="matrix(1.33333 0 0 -1.33333 613.615 865.878)"/><path d="M0 0q1.106 0 1.845.784l2.306 2.307L6.458.784q.367-.323.669-.554.299-.23.899-.23h9.595q1.153 0 1.153 1.153v59.184q0 1.152-1.153 1.153H5.305q-1.154 0-1.154-1.153V47.651l-2.306 2.307q-.739.784-1.845.784h-7.059q-1.06 0-1.844-.784l-9.226-9.226q-.784-.738-.784-1.845V11.855q0-1.108.784-1.845L-8.903.784Q-8.12 0-7.059 0Zm-3.737 11.348q-.553.599-.553 2.122v23.802q0 1.522.553 2.123.553.598 2.076.599h5.812V13.47q0-1.523-.553-2.122-.554-.6-2.03-.6h-3.229q-1.523 0-2.076.6z" clip-path="url(#j)" style="fill:none;stroke:#000;stroke-width:3;stroke-linecap:butt;stroke-linejoin:miter;stroke-miterlimit:10;stroke-dasharray:none;stroke-opacity:1" transform="matrix(1.33333 0 0 -1.33333 690.066 865.878)"/><path d="M0 0q1.108 0 1.846.784l6.227 6.228H6.412L12.64.784Q13.377 0 14.485 0h10.517q1.06 0 1.846.784l9.225 9.226q.784.737.784 1.845v37.734q0 1.152-1.153 1.153H23.388q-1.154 0-1.154-1.153V11.532h-7.703v38.057q0 1.152-1.153 1.153H1.107q-1.153 0-1.153-1.153V11.532h-7.703v38.057q-.001 1.152-1.153 1.153h-12.317q-1.153 0-1.153-1.153V11.855q0-1.108.784-1.845l9.226-9.226Q-11.579 0-10.518 0Z" clip-path="url(#k)" style="fill:none;stroke:#000;stroke-width:3;stroke-linecap:butt;stroke-linejoin:miter;stroke-miterlimit:10;stroke-dasharray:none;stroke-opacity:1" transform="matrix(1.33333 0 0 -1.33333 763.872 865.878)"/><path d="M0 0q1.153 0 1.153 1.153v48.436q0 1.153-1.153 1.153h-12.271q-1.153 0-1.153-1.153V1.153Q-13.424 0-12.271 0Zm.323 54.571q.83 0 .83.923v5.858q0 .922-.83.922h-12.824q-.923 0-.923-.922v-5.858q0-.923.923-.923z" clip-path="url(#l)" style="fill:none;stroke:#000;stroke-width:3;stroke-linecap:butt;stroke-linejoin:miter;stroke-miterlimit:10;stroke-dasharray:none;stroke-opacity:1" transform="matrix(1.33333 0 0 -1.33333 850.286 865.878)"/><path d="M0 0q1.153 0 1.153 1.153v8.626q0 .369-.023.762-.024.391-.484.668l-5.028 3.183-4.29 4.89v12.317l4.059 5.304 5.259 2.63a.9.9 0 0 1 .438.646q.069.414.069.784v8.626q0 1.153-1.153 1.153h-7.98q-.6 0-1.015-.161a4.4 4.4 0 0 1-.83-.438l-7.981-5.49-4.705-7.842a18 18 0 0 0-.599-.83q-.185-.23-.185-.923V15.684q0-.692.231-.9.23-.208.553-.807l5.166-8.303L-9.825.6Q-8.904 0-7.98 0Z" clip-path="url(#m)" style="fill:none;stroke:#000;stroke-width:3;stroke-linecap:butt;stroke-linejoin:miter;stroke-miterlimit:10;stroke-dasharray:none;stroke-opacity:1" transform="matrix(1.33333 0 0 -1.33333 901.827 865.878)"/><path d="M0 0q1.153 0 1.153 1.153V39.21h6.505q1.937 0 1.938-1.938V1.153Q9.596 0 10.748 0h12.317q1.153 0 1.153 1.153v37.734q0 1.107-.784 1.845l-9.226 9.226q-.784.784-1.845.784H1.153v9.595q0 1.152-1.153 1.153h-12.316q-1.154 0-1.154-1.153V1.153Q-13.47 0-12.316 0Z" clip-path="url(#n)" style="fill:none;stroke:#000;stroke-width:3;stroke-linecap:butt;stroke-linejoin:miter;stroke-miterlimit:10;stroke-dasharray:none;stroke-opacity:1" transform="matrix(1.33333 0 0 -1.33333 938.668 865.878)"/><path d="M3.927-.001q-.68 0-.68-.68v-34.746c0-.45.226-.68.68-.68h18.879c.45 0 .68.23.68.68v5.848c0 .454-.23.68-.68.68H12.27v7.687h9.609q.678.002.68.68v4.957q-.002.68-.68.68h-9.61v7.664h10.536c.45 0 .68.228.68.68v5.87c0 .454-.23.68-.68.68zm28.08 0q-.667 0-.667-.68v-4.382q0-.62.398-.81l5.532-3.28v-2.813l-5.532-2.988q-.398-.234-.398-.832v-8.649q-.001-.29.094-.48a.9.9 0 0 1 .28-.328l5.766-4.219q.304-.22.493-.27.185-.058.375-.058h6.586c.45 0 .68.228.68.68v4.242q0 .47-.071.633a.55.55 0 0 1-.281.27l-5.121 2.753v3.152l5.472 2.707q.457.19.457.809v8.309q0 .68-.457 1.09L39.836-.354Q39.4 0 38.758 0zm28.176 0q-.624 0-1.09-.457l-4.524-4.5a1.5 1.5 0 0 1-.433-1.078v-17.45h-1.137q-.668 0-.668-.667v-4.957q0-.679.668-.68h1.137v-3.387c0-.45.225-.68.68-.68h7.206c.452 0 .68.23.68.68v3.387h2.625q.678.001.68.68v4.957q-.002.668-.68.668h-2.625v14.46q0 .52.328.844l2.649 2.684q.269.246.27.809v4.007c0 .454-.23.68-.68.68zm19.687 0q-.622 0-1.078-.457l-5.426-5.414a1.43 1.43 0 0 1-.457-1.09v-15.867q0-.655.457-1.09l5.426-5.414a1.47 1.47 0 0 1 1.078-.457h4.149q.642 0 1.078.457l1.36 1.36v-7.454c0-.45.222-.68.667-.68h7.23c.452 0 .68.23.68.68V-.68q-.001.68-.68.68H88.73q-.351.002-.527-.129a14 14 0 0 1-.398-.328l-1.348-1.36-1.36 1.36A1.43 1.43 0 0 1 84.02 0zm3.164-6.305h1.899q.865 0 1.195-.351.327-.362.328-1.254v-15.574h-3.422q-.893 0-1.219.351-.315.353-.316 1.254v13.97q0 .893.316 1.254.326.351 1.22.351m20.107 6.094q-.68 0-.68-.738v-8.613q0-.727.68-.727h8.66q.678 0 .68.727V-.95q-.002.738-.68.738zM133.445 0q-.68 0-.68-.68v-28.347l-3.632.129q-.668 0-.668-.68v-5.848c0-.45.223-.68.668-.68h11.976c.452 0 .68.23.68.68V-.68q-.001.68-.68.68zm34.943-36.105q.642.002 1.078.468l5.414 5.414q.467.435.469 1.078v20.262q-.001.492-.41.809L165.048-.27q-.294.272-.809.27h-6.773q-.68 0-.68-.68v-3.41q-.001-.492.41-.808l9.024-6.692v-1.488h-9.645q-.645.001-1.078-.469l-4.523-4.488a1.47 1.47 0 0 1-.47-1.09v-10.02q0-.642.47-1.078l5.414-5.414q.455-.467 1.078-.468zm-5.45 6.96q-2.38.002-3.222 1.043-.844 1.045-.844 3.997t.844 4.007q.842 1.055 3.222 1.055 2.355 0 3.211-1.055t.856-4.007-.856-3.997-3.21-1.043m38.98-6.96q.642.002 1.078.468l5.414 5.414q.467.435.469 1.078v20.262q-.001.492-.41.809L198.58-.27q-.296.272-.81.27h-6.773q-.68 0-.68-.68v-3.41q-.001-.492.41-.808l9.024-6.692v-1.488h-9.645q-.645.001-1.078-.469l-4.523-4.488a1.47 1.47 0 0 1-.469-1.09v-10.02q-.001-.642.469-1.078l5.414-5.414q.456-.467 1.078-.468zm-5.45 6.96q-2.38.002-3.222 1.043-.844 1.045-.844 3.997t.844 4.007q.843 1.055 3.223 1.055 2.355 0 3.21-1.055t.856-4.007q-.002-2.953-.855-3.997-.856-1.042-3.211-1.043M220.227 0q-1.548 0-2.11-.633-.552-.642-.55-1.863v-31.09q-.002-1.218.55-1.851.562-.633 2.11-.633l18.597-.082q1.57 0 2.11.632.55.633.55 1.852v31.172q0 1.221-.55 1.863-.54.633-2.11.633zm6.363-6.773h5.871V-29.38h-5.871zm0 0" aria-label="Estd. 1990" style="fill:#23a155;fill-opacity:1;fill-rule:nonzero;stroke:none" transform="translate(559.839 974.673)scale(1.33333)"/><path d="M0 0q.677 0 .678.677v5.877q0 .677-.678.677h-10.535v7.665h9.614q.677 0 .678.678v4.956q0 .677-.678.677h-9.614v7.692H0q.677 0 .678.677v5.85q0 .677-.678.678h-18.878q-.677 0-.677-.678V.677q0-.677.677-.677Z" clip-path="url(#o)" style="fill:none;stroke:#000;stroke-width:2;stroke-linecap:butt;stroke-linejoin:miter;stroke-miterlimit:10;stroke-dasharray:none;stroke-opacity:1" transform="matrix(1.33333 0 0 -1.33333 590.245 974.673)"/><path d="M0 0q.65 0 1.083.352l5.769 4.794q.46.406.46 1.083v8.315q0 .622-.46.813l-5.471 2.708v3.142L6.5 23.97q.217.108.284.271.068.162.068.622v4.253q0 .677-.677.677H-.406q-.19 0-.38-.054-.19-.055-.487-.271l-5.769-4.225a.9.9 0 0 1-.285-.326 1.1 1.1 0 0 1-.095-.487v-8.64q0-.596.406-.839l5.526-2.98V9.154l-5.526-3.277q-.405-.19-.406-.812V.677q0-.677.678-.677Z" clip-path="url(#p)" style="fill:none;stroke:#000;stroke-width:2;stroke-linecap:butt;stroke-linejoin:miter;stroke-miterlimit:10;stroke-dasharray:none;stroke-opacity:1" transform="matrix(1.33333 0 0 -1.33333 611.552 974.673)"/><path d="M0 0q.677 0 .677.677v4.009q0 .568-.271.812L-2.248 8.18q-.325.324-.325.839v14.463H.055q.676 0 .676.677v4.957q0 .677-.676.677h-2.628v3.385q0 .677-.677.677h-7.204q-.678 0-.678-.677v-3.385h-1.138q-.676 0-.676-.677v-4.957q0-.677.676-.677h1.138V6.04q0-.624.434-1.083L-6.175.46A1.48 1.48 0 0 1-5.092 0Z" clip-path="url(#q)" style="fill:none;stroke:#000;stroke-width:2;stroke-linecap:butt;stroke-linejoin:miter;stroke-miterlimit:10;stroke-dasharray:none;stroke-opacity:1" transform="matrix(1.33333 0 0 -1.33333 646.905 974.673)"/><path d="M0 0q.65 0 1.083.46l1.355 1.354L3.792.46q.217-.189.393-.325Q4.361 0 4.713 0h5.634q.676 0 .676.677v34.749q0 .677-.676.678H3.115q-.678 0-.677-.678v-7.448l-1.355 1.355q-.433.46-1.083.46h-4.144q-.623 0-1.084-.46l-5.417-5.417a1.43 1.43 0 0 1-.459-1.084V6.96q0-.65.459-1.083L-5.228.46Q-4.767 0-4.144 0Zm-2.193 6.663q-.326.351-.326 1.246v13.975q0 .894.326 1.246.323.352 1.218.352h3.413V7.909q0-.895-.326-1.246-.324-.352-1.191-.352H-.975q-.895 0-1.218.352z" clip-path="url(#r)" style="fill:none;stroke:#000;stroke-width:2;stroke-linecap:butt;stroke-linejoin:miter;stroke-miterlimit:10;stroke-dasharray:none;stroke-opacity:1" transform="matrix(1.33333 0 0 -1.33333 671.896 974.673)"/><path d="M0 0q.677 0 .677.731v8.613q0 .731-.677.731h-8.667q-.677 0-.677-.731V.731q0-.73.677-.731Z" clip-path="url(#s)" style="fill:none;stroke:#000;stroke-width:2;stroke-linecap:butt;stroke-linejoin:miter;stroke-miterlimit:10;stroke-dasharray:none;stroke-opacity:1" transform="matrix(1.33333 0 0 -1.33333 708.983 974.384)"/><path d="M0 0q.676 0 .677.677v34.749q-.001.677-.677.678h-11.972q-.676 0-.676-.678v-5.85q0-.677.676-.677l3.629.136V.677q0-.677.678-.677Z" clip-path="url(#t)" style="fill:none;stroke:#000;stroke-width:2;stroke-linecap:butt;stroke-linejoin:miter;stroke-miterlimit:10;stroke-dasharray:none;stroke-opacity:1" transform="matrix(1.33333 0 0 -1.33333 748.056 974.673)"/><path d="M0 0q-.623 0-1.084-.46L-6.5-5.877a1.43 1.43 0 0 1-.461-1.084v-10.021q0-.623.461-1.083l4.522-4.497q.435-.46 1.084-.46h9.642v-1.489l-9.019-6.69q-.406-.325-.406-.813v-3.412q0-.678.677-.678h6.771q.514 0 .813.271l9.886 7.801q.406.324.406.812v20.259q0 .65-.461 1.084L11.998-.46q-.433.46-1.083.46Zm8.681-8.003q.852-1.044.852-3.996t-.852-4.008q-.854-1.056-3.21-1.056-2.383 0-3.223 1.056t-.84 4.008.84 3.996q.84 1.041 3.223 1.042 2.356 0 3.21-1.042z" clip-path="url(#u)" style="fill:none;stroke:#000;stroke-width:2;stroke-linecap:butt;stroke-linejoin:miter;stroke-miterlimit:10;stroke-dasharray:none;stroke-opacity:1" transform="matrix(1.33333 0 0 -1.33333 769.869 926.535)"/><path d="M0 0q-.623 0-1.084-.46L-6.5-5.877a1.43 1.43 0 0 1-.461-1.084v-10.021q0-.623.461-1.083l4.522-4.497q.435-.46 1.084-.46h9.642v-1.489l-9.019-6.69q-.406-.325-.406-.813v-3.412q0-.678.677-.678h6.771q.514 0 .813.271l9.886 7.801q.406.324.406.812v20.259q0 .65-.461 1.084L11.998-.46q-.433.46-1.083.46Zm8.681-8.003q.852-1.044.852-3.996t-.852-4.008q-.854-1.056-3.21-1.056-2.383 0-3.223 1.056t-.84 4.008.84 3.996q.84 1.041 3.223 1.042 2.356 0 3.21-1.042z" clip-path="url(#v)" style="fill:none;stroke:#000;stroke-width:2;stroke-linecap:butt;stroke-linejoin:miter;stroke-miterlimit:10;stroke-dasharray:none;stroke-opacity:1" transform="matrix(1.33333 0 0 -1.33333 814.61 926.535)"/><path d="M0 0q1.57 0 2.112.637.543.636.542 1.855v31.174q0 1.22-.542 1.855-.542.637-2.112.637l-18.607-.082q-1.545 0-2.099-.636-.556-.636-.556-1.856V2.492q0-1.22.556-1.855Q-20.152 0-18.607 0Zm-12.242 29.387h5.877V6.771h-5.877z" clip-path="url(#w)" style="fill:none;stroke:#000;stroke-width:2;stroke-linecap:butt;stroke-linejoin:miter;stroke-miterlimit:10;stroke-dasharray:none;stroke-opacity:1" transform="matrix(1.33333 0 0 -1.33333 878.42 974.673)"/><path d="M0 0a765 765 0 0 1-56.755 98.202c-5.384 7.899-11.762 16.285-21.094 18.361-7.552 1.679-15.298-1.214-22.435-4.198A579 579 0 0 1-205.6 54.851Z" clip-path="url(#x)" style="fill:#e8cd0e;fill-opacity:1;fill-rule:nonzero;stroke:none" transform="matrix(1.33333 0 0 -1.33333 904.94 546.951)"/><path d="M0 0a768 768 0 0 1-27.26 51.372c-9.632 16.595-19.783 32.983-30.789 48.707-4.414 6.305-9.562 12.795-16.824 15.911-8.908 3.823-18.278.788-26.743-2.73a575 575 0 0 1-51.51-24.493 579 579 0 0 1-54.607-33.357c-1.064-.733-.995-2.484.373-2.849l5.524-1.473 14.954-3.99 22.098-5.895 27.07-7.222 29.532-7.879 29.807-7.952 27.796-7.416 23.5-6.269 16.967-4.527c2.666-.711 5.324-1.486 8.005-2.135q.174-.045.347-.093C.18-2.807 1.008.199-.932.716L-6.456 2.19-21.41 6.18l-22.098 5.895-27.07 7.222-29.532 7.879-29.807 7.952-27.796 7.416a204079 204079 0 0 0-40.467 10.795c-2.639.705-5.317 1.639-8.005 2.136-.117.022-.232.062-.347.093l.373-2.849a581 581 0 0 0 47.533 29.491 579 579 0 0 0 50.157 24.77c4.34 1.888 8.685 3.832 13.152 5.404 4.421 1.555 9.132 2.739 13.852 2.204 7.927-.898 13.892-6.91 18.468-12.969 5.411-7.166 10.221-14.848 15.071-22.399A765 765 0 0 0-2.692-1.573C-1.819-3.379.87-1.8 0 0" clip-path="url(#y)" style="fill:#000;fill-opacity:1;fill-rule:nonzero;stroke:none" transform="matrix(1.33333 0 0 -1.33333 906.735 545.902)"/><path d="M0 0c.106-46.027-37.12-83.425-83.147-83.531-46.026-.106-83.424 37.12-83.53 83.147s37.12 83.424 83.146 83.531S-.106 46.027 0 0" clip-path="url(#z)" style="fill:#f05924;fill-opacity:1;fill-rule:nonzero;stroke:none" transform="matrix(1.33333 0 0 -1.33333 676.835 540.79)"/><path d="M0 0c.004-16.952-5.223-33.577-15.007-47.43-9.478-13.418-23.089-23.884-38.519-29.536-16.09-5.894-33.902-6.602-50.404-1.971-15.94 4.473-30.26 13.86-40.842 26.578-10.693 12.851-17.255 29.009-18.539 45.677-1.306 16.955 2.656 34.063 11.435 48.639 8.501 14.114 21.241 25.455 36.218 32.314 15.546 7.12 33.364 9.106 50.113 5.71 16.239-3.293 31.231-11.557 42.719-23.494C-11.262 44.471-3.593 29.029-.979 12.56-.32 8.408-.018 4.203 0 0c.009-2.006 3.126-2.01 3.117 0-.076 17.515-5.541 34.811-15.75 49.066-9.973 13.926-24.019 24.654-40.111 30.539-16.689 6.103-35.303 6.728-52.384 1.849-16.45-4.698-31.342-14.474-42.197-27.697-11.059-13.47-17.775-30.113-19.106-47.496-1.347-17.581 2.893-35.437 12.062-50.504 8.852-14.545 22.103-26.34 37.638-33.332 16.252-7.313 34.592-9.337 52.058-5.787 16.838 3.423 32.465 12.135 44.317 24.564C-8.464-46.327-.477-30.275 2.113-13.225A88 88 0 0 1 3.117 0C3.117 2.006 0 2.009 0 0" clip-path="url(#A)" style="fill:#000;fill-opacity:1;fill-rule:nonzero;stroke:none" transform="matrix(1.33333 0 0 -1.33333 674.757 540.79)"/><path d="M0 0c.086-37.435-30.191-67.852-67.626-67.938-37.435-.087-67.852 30.191-67.938 67.626s30.191 67.852 67.626 67.938S-.086 37.435 0 0" clip-path="url(#B)" style="fill:#f05924;fill-opacity:1;fill-rule:nonzero;stroke:none" transform="matrix(1.33333 0 0 -1.33333 656.093 540.837)"/><path d="M0 0c-.003-13.739-4.232-27.192-12.161-38.422-7.67-10.863-18.708-19.344-31.201-23.911-13.031-4.764-27.441-5.338-40.802-1.588-12.918 3.626-24.506 11.232-33.083 21.536-8.62 10.356-13.928 23.395-14.987 36.825-1.088 13.785 2.114 27.691 9.253 39.543 6.89 11.437 17.212 20.613 29.347 26.172 12.532 5.74 26.914 7.352 40.42 4.639 13.211-2.655 25.397-9.356 34.74-19.063 9.33-9.695 15.519-22.143 17.661-35.423C-.263 6.901-.017 3.45 0 0c.01-2.005 3.127-2.01 3.117 0-.069 14.301-4.519 28.433-12.862 40.071-8.156 11.377-19.615 20.138-32.768 24.949-13.627 4.984-28.833 5.493-42.78 1.509-13.431-3.836-25.602-11.82-34.462-22.62-9.034-11.012-14.517-24.593-15.608-38.8-1.102-14.355 2.365-28.945 9.852-41.245 7.228-11.874 18.052-21.519 30.739-27.22 13.284-5.97 28.251-7.63 42.527-4.728 13.747 2.795 26.517 9.911 36.191 20.062C-6.348-37.837.19-24.726 2.295-10.802c.541 3.578.822 7.183.822 10.802C3.118 2.006 0 2.009 0 0" clip-path="url(#C)" style="fill:#000;fill-opacity:1;fill-rule:nonzero;stroke:none" transform="matrix(1.33333 0 0 -1.33333 654.015 540.837)"/><path d="M0 0c-2.078 3.868-1.62 9.046 1.382 12.331 2.965 3.243 7.704 4.296 11.808 2.853 1.487-.522 2.609 1.568 1.516 2.606-3.397 3.226-4.081 8.916-1.267 12.749 2.786 3.795 8.489 4.807 12.514 2.522 1.111-.63 2.221.198 2.346 1.346.535 4.942 4.136 9.527 8.858 11.128 4.933 1.671 10.534.172 14.097-3.579.622-.656 1.564-.52 2.204 0 3.251 2.641 7.87 3.394 11.794 1.942 3.733-1.382 6.51-4.728 7.46-8.548.483-1.946 3.491-1.121 3.006.829-1.224 4.918-4.883 8.979-9.638 10.725-5.03 1.846-10.736.579-14.826-2.744h2.204c-4.355 4.586-11.476 6.473-17.471 4.26-5.974-2.205-10.124-7.721-10.806-14.013l2.346 1.346c-5.436 3.085-12.807 1.658-16.579-3.369-3.742-4.986-2.92-12.55 1.554-16.799l1.516 2.606c-5.192 1.825-11.469.281-15.081-3.928-3.75-4.37-4.338-10.794-1.629-15.836C-1.742-3.341.95-1.769 0 0" clip-path="url(#D)" style="fill:#000;fill-opacity:1;fill-rule:nonzero;stroke:none" transform="matrix(1.33333 0 0 -1.33333 500.76 524.59)"/><path d="M0 0c8.226-3.411 16.654-6.869 25.547-7.326S44.044-4.664 49.051 2.7c6.464 9.506 3.468 22.276.236 33.308L38.739 72.013c-3.167 10.811-6.457 21.874-13.171 30.92-8.18 11.02-20.759 18.107-29.111 28.996-8.946 11.662-12.46 26.926-22.11 38.013-10.861 12.48-27.644 17.692-43.522 22.341-11.386 3.334-23.576 6.673-34.909 3.164-12.4-3.839-21.546-16.371-21.419-29.351z" clip-path="url(#E)" style="fill:#809e25;fill-opacity:1;fill-rule:nonzero;stroke:none" transform="matrix(1.33333 0 0 -1.33333 977.892 734.224)"/><path d="M0 0c13.341-5.53 28.771-11.24 42.602-3.866 5.954 3.174 10.173 8.708 11.585 15.318 1.483 6.947.259 14.183-1.462 20.969-2.044 8.057-4.596 16.004-6.933 23.98-2.363 8.067-4.636 16.166-7.128 24.194-2.237 7.208-4.842 14.409-8.803 20.871-3.833 6.252-9.016 11.385-14.489 16.201-5.356 4.711-10.95 9.218-15.604 14.655-4.676 5.464-7.921 11.929-11.021 18.368-3.092 6.422-6.095 12.968-10.368 18.715-4.119 5.539-9.338 10.044-15.246 13.592-5.991 3.597-12.527 6.229-19.129 8.467-7.012 2.377-14.166 4.536-21.356 6.304-7.835 1.926-16.082 3.115-24.068 1.384-6.457-1.4-12.32-4.915-16.721-9.829-4.202-4.692-7.182-10.584-8.131-16.833-.237-1.559-.535-3.309-.376-4.891.03-.297.098-.566.242-.825.079-.141.206-.272.303-.401l4.22-5.584 8.356-11.059 11.588-15.336 13.913-18.414 15.409-20.392 15.849-20.975 15.454-20.453 14.155-18.733 11.948-15.812 8.837-11.696 4.833-6.396.609-.807C.263-.864 2.971.687 1.76 2.29L-.679 5.517l-6.746 8.929-10.255 13.572-12.808 16.951-14.546 19.251-15.43 20.42-15.459 20.459-14.633 19.366-13.009 17.217-10.402 13.767-7.007 9.273c-.917 1.213-1.886 2.402-2.757 3.649-.063.089.092-.167.094-.198.038-.557.118.53.124.687q.022.629.073 1.255c.125 1.531.401 3.045.788 4.53.783 3.01 2.046 5.858 3.707 8.485 3.252 5.142 8.123 9.44 13.822 11.664 7.36 2.871 15.457 2.396 23.059.845 7.315-1.492 14.522-3.739 21.633-5.999 12.878-4.092 26.057-9.523 34.874-20.222 8.94-10.848 12.324-25.073 20.716-36.289 8.483-11.337 21.4-18.389 29.734-29.828 4.438-6.093 7.35-13.097 9.703-20.215 2.512-7.597 4.622-15.335 6.872-23.013 2.375-8.11 4.797-16.208 7.124-24.332 1.907-6.661 3.632-13.629 3.018-20.611-.584-6.64-3.99-12.49-9.79-15.864-5.725-3.33-12.616-4.114-19.098-3.233C15.094-2.93 7.888.08.829 3.006c-.784.325-1.706-.352-1.918-1.089C-1.345 1.025-.774.321 0 0" clip-path="url(#F)" style="fill:#000;fill-opacity:1;fill-rule:nonzero;stroke:none" transform="matrix(1.33333 0 0 -1.33333 977.34 736.228)"/><path d="M0 0c8.022 11.033 2.63 27.69-8.112 36.097S-33.136 46.602-46.74 47.6c-13.178.966-26.398 1.175-39.609 1.384l-41.345.654c-11.398.18-23.761.058-32.809-6.875-9.11-6.981-13.923-20.21-25.127-22.697-9.824-2.18-20.336 5.307-29.746 1.743-10.603-4.015-12.173-18.707-20.634-26.254-6.901-6.156-17.063-6.503-25.662-9.906-13.242-5.242-22.197-17.468-30.417-29.098-9.379-13.27-18.883-26.783-24.074-42.181-3.013-8.939-4.616-18.587-9.962-26.359-6.239-9.07-17.76-16.741-16.086-27.622 1.163-7.551 8.949-12.65 16.558-13.34 7.608-.69 15.074 1.988 22.246 4.623z" clip-path="url(#G)" style="fill:#23a155;fill-opacity:1;fill-rule:nonzero;stroke:none" transform="matrix(1.33333 0 0 -1.33333 841.838 508.834)"/><path d="M0 0c5.544 7.82 4.869 18.05.865 26.384-4.569 9.509-13.301 15.603-23.067 19.005-11.042 3.847-23.019 4.505-34.6 5.093-13.561.688-27.147.788-40.721 1.003-13.049.206-26.164.814-39.212.502-10.592-.253-21.306-2.182-29.126-9.888-3.322-3.274-6.029-7.093-9.016-10.657-2.859-3.411-6.114-6.873-10.382-8.46-10.192-3.791-20.546 4.522-30.883 1.452-8.732-2.593-12.215-11.638-16.268-18.873-2.289-4.085-4.961-7.863-9.064-10.294-4.553-2.699-9.848-3.765-14.906-5.108-5.136-1.363-10.048-3.16-14.528-6.067-4.545-2.949-8.547-6.671-12.143-10.706-7.617-8.546-14.1-18.305-20.424-27.824-6.676-10.049-12.641-20.627-16.25-32.193-1.76-5.642-3.092-11.446-5.388-16.908-2.107-5.013-5.249-9.146-8.841-13.173-5.892-6.608-13.684-14.659-10.681-24.362 3.16-10.211 15.017-13.714 24.566-12.435 6.878.921 13.419 3.31 19.614 6.339l13.815 6.753 22.33 10.917 29.053 14.203 33.567 16.41 36.381 17.786 36.927 18.053 35.8 17.501 32.409 15.844 27.308 13.351 20.081 9.816 10.842 5.301 1.383.676c1.802.881.224 3.57-1.574 2.692L-7.695-.586l-15.343-7.501-23.26-11.372-29.312-14.33-33.499-16.376-35.974-17.587-36.274-17.733-34.858-17.041-31.7-15.498-26.404-12.908-19.385-9.477-10.499-5.133a27 27 0 0 0-2.763-1.154c-10.079-3.652-23.233-7.334-31.745 1.617-3.336 3.507-4.233 8.32-2.643 12.854 1.544 4.402 4.894 8.038 7.946 11.455 3.295 3.69 6.687 7.354 9.088 11.716 2.76 5.014 4.381 10.549 5.956 16.021 1.643 5.703 3.433 11.305 5.925 16.704 2.508 5.434 5.475 10.643 8.665 15.703 3.26 5.171 6.755 10.19 10.278 15.184 3.174 4.502 6.335 9.025 9.818 13.296 6.885 8.445 14.937 15.488 25.567 18.591 4.953 1.446 10.056 2.408 14.822 4.44 4.353 1.856 7.895 4.667 10.675 8.488 2.584 3.552 4.415 7.571 6.536 11.398 1.953 3.521 4.211 7.15 7.729 9.297 4.484 2.736 9.724 2.039 14.607.97 5.046-1.105 10.2-2.643 15.416-1.983 9.44 1.196 14.926 9.388 20.489 16.172 3.042 3.709 6.321 7.159 10.608 9.426 4.849 2.563 10.381 3.586 15.803 3.993 5.697.428 11.424.235 17.13.145l19.995-.317c13.372-.211 26.751-.31 40.116-.792 11.918-.43 24.183-.763 35.8-3.702 10.195-2.579 20.057-7.66 25.444-17.053 4.459-7.773 5.65-17.736.249-25.354C-3.854-.066-1.152-1.625 0 0" clip-path="url(#H)" style="fill:#000;fill-opacity:1;fill-rule:nonzero;stroke:none" transform="matrix(1.33333 0 0 -1.33333 843.632 509.883)"/><path d="M0 0c-29.077-12.185-62.527 1.509-74.712 30.586s1.509 62.526 30.586 74.712 62.527-1.509 74.712-30.586S29.077 12.185 0 0" clip-path="url(#I)" style="fill:#f05924;fill-opacity:1;fill-rule:nonzero;stroke:none" transform="matrix(1.33333 0 0 -1.33333 898.73 630.881)"/><path d="M0 0c-10.608-4.407-22.354-5.588-33.588-3.088-10.93 2.433-20.982 8.136-28.64 16.309-7.966 8.502-13.187 19.628-14.565 31.206-1.325 11.134.744 22.555 5.957 32.488a55.74 55.74 0 0 0 23.759 23.598c10.217 5.267 22.085 7.308 33.466 5.594 11.098-1.672 21.599-6.659 29.816-14.318 8.536-7.956 14.375-18.53 16.652-29.969 2.185-10.974.901-22.636-3.602-32.88C24.702 18.584 17.07 9.728 7.41 3.821A59 59 0 0 0-.372-.157c-.782-.33-.937-1.469-.56-2.133.46-.808 1.362-.885 2.133-.559C12.323 1.852 21.817 9.958 28.184 20.222c6.198 9.991 9.315 21.86 8.763 33.609-.581 12.359-5.137 24.325-12.836 33.998-7.346 9.23-17.562 16.055-28.841 19.468-11.45 3.465-23.916 3.32-35.271-.452A59.13 59.13 0 0 1-68.98 85.769C-75.936 76.3-79.892 64.716-80.276 52.98c-.402-12.268 3.197-24.628 10.101-34.776C-63.473 8.353-53.868.768-42.772-3.553c11.077-4.314 23.426-5.105 34.973-2.294A58.6 58.6 0 0 1 .829-3.006c.783.325 1.322 1.03 1.088 1.917C1.723-.352.777.323 0 0" clip-path="url(#J)" style="fill:#000;fill-opacity:1;fill-rule:nonzero;stroke:none" transform="matrix(1.33333 0 0 -1.33333 898.178 628.877)"/><path d="M0 0c-23.649-9.911-50.855 1.227-60.766 24.876-9.91 23.65 1.227 50.856 24.877 60.766 23.649 9.911 50.855-1.227 60.765-24.876S23.649 9.911 0 0" clip-path="url(#K)" style="fill:#f05924;fill-opacity:1;fill-rule:nonzero;stroke:none" transform="matrix(1.33333 0 0 -1.33333 893.24 617.777)"/><path d="M0 0c-8.644-3.584-18.199-4.545-27.346-2.471-8.79 1.994-16.855 6.598-23.013 13.182-12.866 13.754-15.668 34.773-6.92 51.43 8.743 16.648 27.662 26.44 46.325 23.58 18.659-2.859 33.808-17.287 37.48-35.825 3.598-18.168-4.873-37.283-20.685-46.888A48 48 0 0 0-.372-.157c-.782-.331-.937-1.469-.56-2.133.46-.807 1.362-.885 2.133-.559 18.283 7.742 30.184 26.601 29.213 46.456-.985 20.114-14.856 37.842-34.119 43.665-19.321 5.841-40.705-1.444-52.607-17.692-11.816-16.132-12.183-38.698-.923-55.223C-46.075-2.023-25.389-10.023-6.118-5.3A48 48 0 0 1 .829-3.006c.783.325 1.322 1.03 1.088 1.917C1.723-.352.777.322 0 0" clip-path="url(#L)" style="fill:#000;fill-opacity:1;fill-rule:nonzero;stroke:none" transform="matrix(1.33333 0 0 -1.33333 892.687 615.773)"/><path d="M0 0c1.805 2.189 4.726 3.274 7.499 2.446 2.691-.804 4.65-3.423 4.826-6.197.115-1.814 2.425-2.041 3.062-.414C16.429-1.502 19.651.222 22.441-.47c3.064-.76 4.892-3.889 4.548-6.922-.116-1.019 1.087-1.758 1.973-1.503 3.119.898 6.606.053 8.858-2.33 2.279-2.412 2.917-6.263 1.596-9.301-.328-.754-.249-1.691.559-2.133 4.873-2.661 5.722-9.6 1.143-13.05-1.582-1.193-.03-3.901 1.574-2.692 3.006 2.265 4.936 5.884 4.583 9.717a11.11 11.11 0 0 1-5.726 8.717l.559-2.132c1.854 4.265 1.271 9.265-1.838 12.809-2.955 3.368-7.883 4.626-12.137 3.401l1.973-1.503c.506 4.457-2.711 9.115-7.165 10.001-4.483.892-8.923-1.761-10.56-5.945l3.061-.415c-.258 4.087-2.88 7.732-6.779 9.094C4.858 6.673.335 5.284-2.204 2.204-3.471.668-1.278-1.55 0 0" clip-path="url(#M)" style="fill:#000;fill-opacity:1;fill-rule:nonzero;stroke:none" transform="matrix(1.33333 0 0 -1.33333 862.95 515.886)"/><path d="M0 0c18.698.043 32.432 19.102 28.253 39.057C8.463 133.562-81.108 204.778-188.444 204.53c-107.335-.247-196.577-71.874-215.932-166.469-4.086-19.975 9.734-38.97 28.433-38.927z" clip-path="url(#N)" style="fill:#ff9f00;fill-opacity:1;fill-rule:nonzero;stroke:none" transform="matrix(1.33333 0 0 -1.33333 963.017 752.334)"/><path d="M0 0c11.681.152 21.925 7.319 26.969 17.732a35.94 35.94 0 0 1 3.559 17.252c-.274 5.957-2.004 11.919-3.58 17.642-6.227 22.615-16.603 44.046-30.284 63.088-13.828 19.245-30.9 36.031-50.209 49.754-19.866 14.119-42.073 24.907-65.382 32.004-24.546 7.474-50.333 10.821-75.974 10.075-25.347-.737-50.591-5.488-74.397-14.246-22.648-8.332-43.922-20.204-62.812-35.229-18.477-14.696-34.558-32.427-47.185-52.387-12.534-19.813-21.6-41.84-26.406-64.796-2.444-11.673.314-24.112 8.799-32.776 5.619-5.737 13.171-8.948 21.196-8.979 4.027-.015 8.055.019 12.082.028l27.669.064 39.514.091 47.621.11 52.202.12 52.607.121 92.086.212 31.999.074 17.649.041zc2.006.005 2.009 3.122 0 3.117l-9.038-.02-24.609-.057-36.838-.085-45.233-.104-50.244-.116-51.951-.12-49.898-.115-44.118-.101-35.036-.081-22.5-.052c-5.823-.013-11.482-.285-16.983 2.224-11.022 5.026-17.359 17.008-17.079 28.875.14 5.961 1.922 11.98 3.478 17.704a193 193 0 0 0 5.286 16.479c8.024 21.631 19.999 41.78 34.92 59.361 15.193 17.902 33.372 33.184 53.501 45.257 20.781 12.464 43.554 21.468 67.197 26.753 24.969 5.582 50.856 6.981 76.296 4.302 24.584-2.589 48.811-9.132 71.292-19.427 21.589-9.886 41.614-23.175 58.937-39.427 16.863-15.822 31.116-34.384 41.776-54.916A193 193 0 0 0 22.319 57.36c3.527-11.448 7.411-23.75 3.051-35.497C21.399 11.164 11.584 3.268 0 3.117-2.004 3.091-2.01-.026 0 0" clip-path="url(#O)" style="fill:#000;fill-opacity:1;fill-rule:nonzero;stroke:none" transform="matrix(1.33333 0 0 -1.33333 963.017 754.413)"/><path d="m0 0 17.929-6.24c1.898-.661 2.714 2.35.828 3.006L.829 3.006C-1.07 3.667-1.886.656 0 0" clip-path="url(#P)" style="fill:#000;fill-opacity:1;fill-rule:nonzero;stroke:none" transform="matrix(1.33333 0 0 -1.33333 407.133 664.207)"/><path d="m0 0 19.538-11.378c1.738-1.011 3.309 1.682 1.574 2.692L1.573 2.692C-.164 3.703-1.735 1.01 0 0" clip-path="url(#Q)" style="fill:#000;fill-opacity:1;fill-rule:nonzero;stroke:none" transform="matrix(1.33333 0 0 -1.33333 419.56 623.843)"/><path d="m0 0 17.116-12.487c.681-.496 1.738-.115 2.133.56.462.789.123 1.635-.559 2.132L1.573 2.692c-.68.496-1.738.115-2.132-.559C-1.021 1.344-.682.498 0 0" clip-path="url(#R)" style="fill:#000;fill-opacity:1;fill-rule:nonzero;stroke:none" transform="matrix(1.33333 0 0 -1.33333 455.92 567.503)"/><path d="m0 0 11.336-13.141c.55-.638 1.64-.565 2.205 0 .632.632.551 1.565 0 2.204L2.204 2.204c-.55.638-1.64.565-2.204 0C-.632 1.572-.552.639 0 0" clip-path="url(#S)" style="fill:#000;fill-opacity:1;fill-rule:nonzero;stroke:none" transform="matrix(1.33333 0 0 -1.33333 500.5 530.751)"/><path d="m0 0 11.899-20.716c.999-1.739 3.693-.171 2.692 1.574L2.692 1.573C1.693 3.313-1.002 1.744 0 0" clip-path="url(#T)" style="fill:#000;fill-opacity:1;fill-rule:nonzero;stroke:none" transform="matrix(1.33333 0 0 -1.33333 549.05 485.293)"/><path d="m0 0 6.676-11.847c.985-1.748 3.679-.179 2.692 1.573L2.692 1.573C1.707 3.321-.987 1.752 0 0" clip-path="url(#U)" style="fill:#000;fill-opacity:1;fill-rule:nonzero;stroke:none" transform="matrix(1.33333 0 0 -1.33333 584.347 486.348)"/><path d="m0 0 5.838-22.799c.497-1.942 3.504-1.119 3.006.829L3.006.829C2.509 2.771-.499 1.948 0 0" clip-path="url(#V)" style="fill:#000;fill-opacity:1;fill-rule:nonzero;stroke:none" transform="matrix(1.33333 0 0 -1.33333 624.78 455.275)"/><path d="m0 0 5.159-25.933c.391-1.966 3.396-1.134 3.006.829L3.006.829C2.615 2.795-.39 1.963 0 0" clip-path="url(#W)" style="fill:#000;fill-opacity:1;fill-rule:nonzero;stroke:none" transform="matrix(1.33333 0 0 -1.33333 672.046 446.052)"/><path d="m0 0 3.049-25.177c.238-1.966 3.358-1.99 3.117 0L3.117 0C2.879 1.967-.241 1.991 0 0" clip-path="url(#X)" style="fill:#000;fill-opacity:1;fill-rule:nonzero;stroke:none" transform="matrix(1.33333 0 0 -1.33333 718.174 445.412)"/><path d="m0 0-.789-25.185c-.062-2.007 3.055-2.005 3.118 0L3.117 0C3.18 2.007.063 2.005 0 0" clip-path="url(#Y)" style="fill:#000;fill-opacity:1;fill-rule:nonzero;stroke:none" transform="matrix(1.33333 0 0 -1.33333 779.662 449.181)"/><path d="m0 0-5.062-25.952c-.382-1.96 2.622-2.799 3.007-.829L3.006-.829C3.388 1.131.384 1.97 0 0" clip-path="url(#Z)" style="fill:#000;fill-opacity:1;fill-rule:nonzero;stroke:none" transform="matrix(1.33333 0 0 -1.33333 816.634 457.291)"/><path d="M0 0c1.173-13.188 5.089-26.014 11.32-37.69 6.206-11.628 14.691-22.105 24.855-30.505 5.736-4.741 11.978-8.837 18.65-12.136 1.793-.886 3.374 1.801 1.574 2.692-11.507 5.69-21.7 13.744-30.062 23.472-8.293 9.647-14.743 20.938-18.77 33.008C5.279-14.304 3.758-7.199 3.117 0 2.941 1.983-.178 2.001 0 0" clip-path="url(#aa)" style="fill:#000;fill-opacity:1;fill-rule:nonzero;stroke:none" transform="matrix(1.33333 0 0 -1.33333 957.605 537.68)"/><path d="m0 0 9.607 9.653c.576.579.622 1.634 0 2.205-.621.57-1.59.617-2.204 0l-9.607-9.654C-2.78 1.626-2.826.57-2.204 0-1.583-.57-.615-.618 0 0" clip-path="url(#ab)" style="fill:#000;fill-opacity:1;fill-rule:nonzero;stroke:none" transform="matrix(1.33333 0 0 -1.33333 959.45 600.386)"/><path d="m0 0 13.413 10.267c.668.511 1.022 1.342.559 2.133-.384.657-1.46 1.074-2.132.559L-1.573 2.692c-.668-.511-1.022-1.342-.56-2.133C-1.748-.098-.673-.515 0 0" clip-path="url(#ac)" style="fill:#000;fill-opacity:1;fill-rule:nonzero;stroke:none" transform="matrix(1.33333 0 0 -1.33333 979.656 636.949)"/><path d="m0 0 28.854 6.824c1.951.462 1.125 3.469-.829 3.006L-.829 3.006C-2.78 2.545-1.954-.462 0 0" clip-path="url(#ad)" style="fill:#000;fill-opacity:1;fill-rule:nonzero;stroke:none" transform="matrix(1.33333 0 0 -1.33333 996.127 676.418)"/><path d="m0 0 31.12-1.336c2.006-.086 2.002 3.031 0 3.117L0 3.117C-2.006 3.204-2.002.086 0 0" clip-path="url(#ae)" style="fill:#000;fill-opacity:1;fill-rule:nonzero;stroke:none" transform="matrix(1.33333 0 0 -1.33333 1003.685 717.318)"/><path d="M0 0c-16.229-.037-29.415 13.088-29.452 29.317l-.059 25.68C-29.549 71.226-16.423 84.412-.195 84.45c16.229.037 29.415-13.088 29.453-29.317l.059-25.681C29.354 13.224 16.229.037 0 0" clip-path="url(#af)" style="fill:#fffbe9;fill-opacity:1;fill-rule:nonzero;stroke:none" transform="matrix(1.33333 0 0 -1.33333 666.02 633.496)"/><path d="M0 0c-8.977-.021-17.661 4.417-22.817 11.79-2.589 3.701-4.302 8.003-4.865 12.493-.256 2.039-.213 4.096-.218 6.146l-.042 18.375c-.004 1.544-.015 3.088-.011 4.632.012 4.484 1.042 8.923 3.127 12.903 4.189 7.994 12.174 13.656 21.156 14.782 9.059 1.135 18.199-2.294 24.297-9.076 4.963-5.518 7.058-12.447 7.075-19.757l.041-17.663c.013-5.685.254-11.235-1.783-16.679C22.81 9.526 15.439 3.032 6.743.839 4.529.281 2.282.019 0 0c-2.005-.016-2.01-3.134 0-3.117a31.3 31.3 0 0 1 25.072 12.91 30.4 30.4 0 0 1 5.416 13.189c.376 2.476.388 4.934.382 7.425l-.044 19.108c-.005 1.932.053 3.881-.065 5.811-.298 4.871-1.725 9.647-4.203 13.857-4.962 8.426-13.749 14.027-23.448 15.09-9.658 1.058-19.528-2.704-26.067-9.881-5.559-6.103-8.13-13.841-8.111-22.016l.043-18.433c.004-2.024.001-4.048.014-6.072.026-4.311.893-8.531 2.614-12.485C-24.533 6.509-16.374-.247-6.918-2.355A31.5 31.5 0 0 1 0-3.117C2.006-3.113 2.009.005 0 0" clip-path="url(#ag)" style="fill:#000;fill-opacity:1;fill-rule:nonzero;stroke:none" transform="matrix(1.33333 0 0 -1.33333 666.02 631.418)"/><path d="M0 0a8.15 8.15 0 0 0-8.167 8.13l-.081 35.064a8.15 8.15 0 0 0 8.13 8.167 8.15 8.15 0 0 0 8.167-8.13L8.13 8.167A8.15 8.15 0 0 0 0 0" clip-path="url(#ah)" style="fill:#000;fill-opacity:1;fill-rule:nonzero;stroke:none" transform="matrix(1.33333 0 0 -1.33333 673.222 615.7)"/><path d="M0 0h-.018a7.6 7.6 0 0 1-5.403-2.252 7.6 7.6 0 0 1-2.227-5.415l.081-35.063a7.6 7.6 0 0 1 2.252-5.403A7.6 7.6 0 0 1 .08-50.361h.019a7.6 7.6 0 0 1 5.403 2.253 7.6 7.6 0 0 1 2.227 5.413l-.08 35.064C7.64-3.419 4.21 0 0 0m.08-51.361a8.6 8.6 0 0 0-6.101 2.519 8.6 8.6 0 0 0-2.546 6.11l-.081 35.064a8.6 8.6 0 0 0 2.519 6.121A8.6 8.6 0 0 0-.02 1H0c4.761 0 8.638-3.866 8.649-8.629l.08-35.064a8.6 8.6 0 0 0-2.518-6.121 8.6 8.6 0 0 0-6.11-2.547z" clip-path="url(#ai)" style="fill:#000;fill-opacity:1;fill-rule:nonzero;stroke:none" transform="matrix(1.33333 0 0 -1.33333 673.089 547.885)"/><path d="M0 0c-16.229-.037-29.415 13.088-29.452 29.317l-.06 25.68C-29.549 71.226-16.423 84.412-.195 84.45c16.229.037 29.415-13.088 29.453-29.317l.059-25.681C29.354 13.224 16.229.037 0 0" clip-path="url(#aj)" style="fill:#fffbe9;fill-opacity:1;fill-rule:nonzero;stroke:none" transform="matrix(1.33333 0 0 -1.33333 733.911 633.34)"/><path d="M0 0c-8.977-.021-17.661 4.417-22.817 11.79-2.589 3.701-4.303 8.003-4.865 12.493-.256 2.039-.213 4.096-.218 6.146l-.042 18.375c-.004 1.544-.015 3.088-.011 4.632.012 4.484 1.042 8.923 3.127 12.903 4.189 7.994 12.174 13.656 21.156 14.782 9.059 1.135 18.199-2.294 24.297-9.076 4.963-5.518 7.058-12.447 7.075-19.757l.041-17.663c.013-5.685.254-11.235-1.783-16.679C22.81 9.526 15.439 3.032 6.743.839 4.529.281 2.282.019 0 0c-2.005-.016-2.01-3.134 0-3.117a31.3 31.3 0 0 1 25.072 12.91 30.4 30.4 0 0 1 5.416 13.189c.376 2.476.387 4.934.382 7.425l-.044 19.108c-.005 1.932.053 3.881-.065 5.811-.298 4.871-1.725 9.647-4.203 13.857-4.962 8.426-13.749 14.027-23.448 15.09-9.658 1.059-19.528-2.704-26.067-9.881-5.559-6.103-8.13-13.841-8.111-22.016l.043-18.433c.004-2.024.001-4.048.014-6.072.026-4.311.893-8.531 2.614-12.485C-24.533 6.509-16.374-.247-6.918-2.355A31.5 31.5 0 0 1 0-3.117C2.006-3.113 2.009.005 0 0" clip-path="url(#ak)" style="fill:#000;fill-opacity:1;fill-rule:nonzero;stroke:none" transform="matrix(1.33333 0 0 -1.33333 733.911 631.261)"/><path d="M0 0a8.15 8.15 0 0 0-8.167 8.13l-.081 35.064a8.15 8.15 0 0 0 8.13 8.167 8.15 8.15 0 0 0 8.167-8.13L8.13 8.167A8.15 8.15 0 0 0 0 0" clip-path="url(#al)" style="fill:#000;fill-opacity:1;fill-rule:nonzero;stroke:none" transform="matrix(1.33333 0 0 -1.33333 741.113 615.544)"/><path d="M0 0h-.019c-4.217-.01-7.64-3.449-7.63-7.667l.081-35.063a7.6 7.6 0 0 1 2.252-5.404 7.6 7.6 0 0 1 5.395-2.227h.019a7.6 7.6 0 0 1 5.403 2.252 7.6 7.6 0 0 1 2.228 5.414L7.647-7.631a7.6 7.6 0 0 1-2.251 5.403A7.6 7.6 0 0 1 0 0m.078-51.361a8.6 8.6 0 0 0-6.099 2.519 8.6 8.6 0 0 0-2.547 6.11l-.081 35.064C-8.661-2.9-4.79.989-.021 1H0a8.6 8.6 0 0 0 6.101-2.519 8.6 8.6 0 0 0 2.546-6.11l.082-35.064a8.6 8.6 0 0 0-2.519-6.121A8.6 8.6 0 0 0 .1-51.361z" clip-path="url(#am)" style="fill:#000;fill-opacity:1;fill-rule:nonzero;stroke:none" transform="matrix(1.33333 0 0 -1.33333 740.982 547.729)"/><path d="M0 0c.036-15.683-12.648-28.426-28.331-28.462S-56.758-15.814-56.794-.131s12.649 28.426 28.332 28.462S-.036 15.683 0 0" clip-path="url(#an)" style="fill:#ff9f00;fill-opacity:1;fill-rule:nonzero;stroke:none" transform="matrix(1.33333 0 0 -1.33333 665.027 631.523)"/><path d="M0 0c7.851 2.793 16.257 1.418 22.841-3.7 6.258-4.865 10.531-12.491 11.241-20.404.418-4.651-.357-9.328-2.415-13.532-.879-1.795 1.809-3.377 2.692-1.573 4.083 8.339 3.712 17.956-.246 26.271-3.761 7.9-10.842 14.47-19.402 16.712C9.574 5.119 4.16 4.781-.829 3.006-2.706 2.339-1.897-.675 0 0" clip-path="url(#ao)" style="fill:#000;fill-opacity:1;fill-rule:nonzero;stroke:none" transform="matrix(1.33333 0 0 -1.33333 617.097 597.093)"/><path d="M0 0c15.681.252 28.597-12.257 28.849-27.938S16.592-56.535.911-56.786c-15.681-.252-28.597 12.256-28.849 27.937S-15.681-.251 0 0" clip-path="url(#ap)" style="fill:#ff9f00;fill-opacity:1;fill-rule:nonzero;stroke:none" transform="matrix(1.33333 0 0 -1.33333 773.937 596.729)"/><path d="M0 0c-2.929 7.89-1.619 16.347 3.48 23.04 4.794 6.293 12.405 10.637 20.295 11.407 4.587.448 9.221-.26 13.398-2.235 1.804-.852 3.388 1.835 1.574 2.692-8.418 3.978-18.063 3.485-26.34-.622C4.549 30.383-1.943 23.17-4.015 14.537-5.242 9.427-4.831 4.086-3.006-.829-2.314-2.693.7-1.887 0 0" clip-path="url(#aq)" style="fill:#000;fill-opacity:1;fill-rule:nonzero;stroke:none" transform="matrix(1.33333 0 0 -1.33333 740.176 645.154)"/><path d="M0 0c.019.199.044.397.067.596.012.105.028.21.04.315.048.406-.072-.488.005.032q.073.514.151 1.026a97 97 0 0 0 1.25 6.475c1.766 7.827 4.279 15.487 7.305 22.914C13.296 42.35 19.041 52.905 25.69 62.762 34.351 75.6 44.665 87.285 56.141 97.675c14.505 13.134 30.854 24.127 48.181 33.181a281 281 0 0 0 7.193 3.622c1.804.876.226 3.566-1.573 2.691-18.275-8.883-35.582-19.791-51.076-32.965-12.31-10.466-23.396-22.357-32.82-35.489-7.305-10.18-13.584-21.108-18.581-32.602C3.99 28.12 1.077 19.867-.994 11.396a108 108 0 0 1-1.561-7.443c-.211-1.238-.515-2.548-.547-3.806C-3.104.098-3.113.049-3.117 0-3.305-1.997-.186-1.984 0 0" clip-path="url(#ar)" style="fill:#000;fill-opacity:1;fill-rule:nonzero;stroke:none" transform="matrix(1.33333 0 0 -1.33333 446.688 706.768)"/><path d="M0 0c.446-.276.879-.575 1.31-.874a69 69 0 0 0 2.507-1.822l.51-.389c.287-.219-.166.13.054-.041l.297-.231c4.414-3.458 8.563-7.251 12.495-11.246 6.004-6.103 11.504-12.699 16.494-19.653 6.594-9.191 12.33-18.99 17.226-29.185 6.068-12.636 10.811-25.889 14.384-39.438q.744-2.828 1.424-5.671c.467-1.95 3.474-1.125 3.006.829-3.382 14.127-7.991 27.949-13.957 41.198-4.847 10.763-10.602 21.126-17.293 30.854-5.151 7.488-10.843 14.621-17.098 21.218-4.168 4.396-8.588 8.57-13.308 12.37C6.037-.459 3.937 1.38 1.657 2.639l-.084.053C-.136 3.752-1.704 1.056 0 0" clip-path="url(#as)" style="fill:#000;fill-opacity:1;fill-rule:nonzero;stroke:none" transform="matrix(1.33333 0 0 -1.33333 889.694 571.23)"/><path d="M0 0c7.438 1.386 21.607-2.751 27.808 2.654 5.549 4.835 6.676 14.234 12.303 19.042 7.279 6.218 15.741 5.66 23.918.577S76.563 7.576 75.967-1.641c-.595-9.218-5.726-17.894-12.963-24.155S46.563-36.051 37.054-38.37c-18.219-4.443-42.443-.443-47.763 20.903C-12.82-8.993-8.514-1.587 0 0" clip-path="url(#at)" style="fill:#ffa1db;fill-opacity:1;fill-rule:nonzero;stroke:none" transform="matrix(1.33333 0 0 -1.33333 705.365 654.308)"/><path d="M0 0c3.314.585 6.827.165 10.159-.038 3.727-.227 7.484-.439 11.194.108 3.47.511 6.488 1.92 8.749 4.654 2.485 3.004 3.958 6.619 5.655 10.088 1.806 3.693 3.902 6.889 7.497 9.055 3.725 2.243 8.057 2.822 12.267 1.777 8.449-2.099 15.135-8.69 17.556-17.004 2.431-8.347.203-17.049-4.571-24.128-5.118-7.588-12.965-12.974-21.332-16.439-12.86-5.326-28.668-7.597-41.737-1.594-5.89 2.706-10.701 7.128-13.425 13.057-2.83 6.159-3.453 14.389 2.982 18.537C-3.471-.938-1.785-.352 0 0c1.907.376 1.1 3.29-.804 2.915C-4.665 2.154-8.151.156-10.47-3.06c-2.172-3.012-2.978-6.887-2.584-10.545.788-7.325 4.95-14.257 10.726-18.741 11.513-8.937 27.93-9.159 41.444-5.493 9.526 2.584 18.841 6.929 26.052 13.789C71.933-17.613 76.841-8.749 77.119.727c.258 8.768-3.725 17.555-10.711 22.904-3.788 2.901-8.409 4.954-13.172 5.459-4.657.494-9.336-.897-13.085-3.673-3.522-2.608-5.61-6.148-7.469-10.043-1.696-3.553-3.285-7.738-6.448-10.281C23.505 2.899 19.54 2.744 16.2 2.746c-4 .002-7.981.473-11.979.522-1.686.021-3.363-.059-5.025-.353C-2.716 2.578-1.906-.336 0 0" clip-path="url(#au)" style="fill:#000;fill-opacity:1;fill-rule:nonzero;stroke:none" transform="matrix(1.33333 0 0 -1.33333 705.9 656.251)"/><path d="M0 0c-1.028 5.461.239 11.214 3.449 15.748 2.999 4.237 7.657 7.097 12.703 8.155 1.963.412 1.132 3.417-.828 3.006C9.457 25.679 4.217 22.21.757 17.322-2.947 12.09-4.183 5.426-3.006-.829-2.636-2.798.37-1.964 0 0" clip-path="url(#av)" style="fill:#000;fill-opacity:1;fill-rule:nonzero;stroke:none" transform="matrix(1.33333 0 0 -1.33333 674.78 679.406)"/><path d="M0 0c-3.374-4.313-4.53-10.126-2.759-15.358.269-.797 1.072-1.321 1.917-1.088.777.213 1.36 1.116 1.089 1.917-1.387 4.098-.738 8.88 1.957 12.325.519.662.646 1.558 0 2.204C1.665.539.522.667 0 0" clip-path="url(#aw)" style="fill:#000;fill-opacity:1;fill-rule:nonzero;stroke:none" transform="matrix(1.33333 0 0 -1.33333 709 663.509)"/><path d="M0 0c8.948-2.98 18.884-2.899 27.78.248 8.112 2.869 15.104 8.224 20.168 15.161 2.836 3.885 4.977 8.253 6.359 12.857.578 1.926-2.43 2.748-3.006.829C46.53 13.203 31.983 1.744 15.386.979A40.1 40.1 0 0 0 .829 3.006C-1.079 3.642-1.897.632 0 0" clip-path="url(#ax)" style="fill:#000;fill-opacity:1;fill-rule:nonzero;stroke:none" transform="matrix(1.33333 0 0 -1.33333 707.712 675.54)"/><path d="M0 0c4.393.326 8.949-1.576 11.605-5.194.497-.678 1.352-1.016 2.133-.56.668.391 1.06 1.451.559 2.133C11.017.847 5.573 3.532 0 3.117c-.84-.062-1.559-.671-1.559-1.558C-1.559.764-.844-.063 0 0" clip-path="url(#ay)" style="fill:#000;fill-opacity:1;fill-rule:nonzero;stroke:none" transform="matrix(1.33333 0 0 -1.33333 770.388 637.41)"/><path d="M0 0c1.874 2.03 19.255-17.018 20.754-18.97 9.239-12.034 20.797-31.021 11.854-46.176-3.526-5.974-9.644-9.935-16.462-10.958-34.741-5.209-45.961 29.879-48.145 57.184l-.009.104c.022-.267 10.527 2.246 11.556 2.593 4.161 1.403 8.122 3.435 11.413 6.374C-5.732-6.895-3.002-3.253 0 0" clip-path="url(#az)" style="fill:#f05924;fill-opacity:1;fill-rule:nonzero;stroke:none" transform="matrix(1.33333 0 0 -1.33333 772.159 651.442)"/><path d="M0 0c-.241-.232-.352-.207-.756-.307.306.076-.23-.03-.1.025.052.021.246-.06.291-.087.174-.105-.241.136.109-.06a16 16 0 0 0 1.833-1.213c1.674-1.288 3.348-2.865 4.915-4.37 3.489-3.351 6.834-6.861 10.075-10.452 3.451-3.823 6.386-8.096 9.047-12.518 3.935-6.54 7.374-13.93 7.724-21.674.342-7.573-2.877-14.983-9.262-19.275-5.77-3.879-13.238-4.597-20.009-3.771-5.461.667-10.7 2.794-15.053 6.163-4.316 3.34-7.701 7.738-10.357 12.473-5.679 10.126-8.371 21.883-9.629 33.34a135 135 0 0 0-.379 4.012l-2.661-1.102c.844-1.047 3.212-.158 4.257.068 2.112.456 4.215.952 6.312 1.469 5.431 1.339 10.595 3.806 14.768 7.579C-5.617-6.755-2.959-3.229 0 0c1.353 1.477-.845 3.687-2.204 2.204-3.008-3.281-5.704-6.88-9.04-9.849-3.062-2.725-6.9-4.788-10.812-6-1.9-.589-3.878-.99-5.813-1.44a161 161 0 0 0-3.548-.792c-.43-.089-.861-.17-1.292-.254-.428-.084-.208-.14-.143-.031l-.139-.012q-.636 0 .983-.437c-.832 1.033-2.764.193-2.661-1.103.994-12.425 3.474-25.064 9.05-36.301 5.335-10.752 14.193-19.859 26.31-22.308 6.934-1.401 14.874-1.129 21.374 1.815 7.407 3.354 12.731 10.46 13.907 18.5 1.21 8.273-1.481 16.514-5.202 23.814-2.955 5.797-6.622 11.577-10.911 16.489-3.128 3.581-6.423 7.032-9.803 10.376C8.23-3.522 6.371-1.735 4.392-.093 3.138.947 1.65 2.316.012 2.715c-.797.195-1.611.071-2.216-.511C-3.655.813-1.448-1.39 0 0" clip-path="url(#aA)" style="fill:#000;fill-opacity:1;fill-rule:nonzero;stroke:none" transform="matrix(1.33333 0 0 -1.33333 773.628 652.912)"/><path d="M0 0a217.4 217.4 0 0 0 36.571-58.239c.332-.78 1.467-.938 2.132-.559.807.459.888 1.363.559 2.133A219 219 0 0 1 11.918-9.672 226 226 0 0 1 2.204 2.204C.879 3.716-1.318 1.504 0 0" clip-path="url(#aB)" style="fill:#000;fill-opacity:1;fill-rule:nonzero;stroke:none" transform="matrix(1.33333 0 0 -1.33333 751.26 672.99)"/><path d="M0 0c.014-6.273-3.29-11.366-7.382-11.376s-7.419 5.069-7.434 11.342c-.014 6.273 3.291 11.366 7.382 11.376S-.014 6.273 0 0" clip-path="url(#aC)" style="fill:#e8cd0e;fill-opacity:1;fill-rule:nonzero;stroke:none" transform="matrix(1.33333 0 0 -1.33333 495.24 675.703)"/><path d="M0 0c-.027-3.225-.923-7.469-3.943-9.263-2.711-1.61-5.18.683-6.385 3.032-1.747 3.404-1.791 7.758-.503 11.314.856 2.365 3.058 5.447 5.977 4.546C-1.146 8.484-.043 3.319 0 0c.026-2.005 3.143-2.01 3.117 0-.056 4.406-1.595 9.953-5.863 12.114-4.011 2.031-8.069-.341-10.09-3.966-2.434-4.367-2.623-10.128-.739-14.725 1.546-3.772 5.169-7.428 9.601-6.086C1.183-11.101 3.078-4.795 3.117 0 3.134 2.007.017 2.008 0 0" clip-path="url(#aD)" style="fill:#000;fill-opacity:1;fill-rule:nonzero;stroke:none" transform="matrix(1.33333 0 0 -1.33333 493.163 675.703)"/><path d="M0 0c.014-6.273-3.29-11.366-7.382-11.376s-7.419 5.069-7.434 11.342c-.014 6.273 3.291 11.366 7.382 11.376S-.014 6.273 0 0" clip-path="url(#aE)" style="fill:#e8cd0e;fill-opacity:1;fill-rule:nonzero;stroke:none" transform="matrix(1.33333 0 0 -1.33333 614.406 666.868)"/><path d="M0 0c-.027-3.225-.923-7.469-3.943-9.263-2.711-1.61-5.18.683-6.385 3.032-1.747 3.404-1.791 7.758-.503 11.314.856 2.365 3.058 5.447 5.977 4.546C-1.146 8.484-.043 3.319 0 0c.026-2.005 3.143-2.01 3.117 0-.056 4.406-1.595 9.953-5.863 12.114-4.011 2.031-8.069-.341-10.09-3.966-2.434-4.367-2.623-10.128-.739-14.725 1.546-3.772 5.169-7.428 9.601-6.086C1.183-11.101 3.078-4.795 3.117 0 3.134 2.007.017 2.008 0 0" clip-path="url(#aF)" style="fill:#000;fill-opacity:1;fill-rule:nonzero;stroke:none" transform="matrix(1.33333 0 0 -1.33333 612.327 666.868)"/><path d="M0 0c.014-6.273-3.29-11.366-7.382-11.376s-7.419 5.069-7.434 11.342c-.014 6.273 3.291 11.366 7.382 11.376S-.014 6.273 0 0" clip-path="url(#aG)" style="fill:#e8cd0e;fill-opacity:1;fill-rule:nonzero;stroke:none" transform="matrix(1.33333 0 0 -1.33333 557.146 607.737)"/><path d="M0 0c-.027-3.225-.923-7.469-3.943-9.263-2.711-1.61-5.18.683-6.385 3.032-1.747 3.404-1.791 7.758-.503 11.314.856 2.365 3.058 5.447 5.977 4.546C-1.146 8.484-.043 3.319 0 0c.026-2.005 3.143-2.01 3.117 0-.056 4.406-1.595 9.953-5.863 12.114-4.011 2.031-8.069-.341-10.09-3.966-2.434-4.367-2.623-10.128-.739-14.725 1.546-3.772 5.169-7.428 9.601-6.086C1.183-11.101 3.078-4.795 3.117 0 3.134 2.007.017 2.008 0 0" clip-path="url(#aH)" style="fill:#000;fill-opacity:1;fill-rule:nonzero;stroke:none" transform="matrix(1.33333 0 0 -1.33333 555.068 607.737)"/><path d="M0 0c.014-6.273-3.29-11.366-7.382-11.376s-7.419 5.069-7.434 11.342c-.014 6.273 3.291 11.366 7.382 11.376S-.014 6.273 0 0" clip-path="url(#aI)" style="fill:#e8cd0e;fill-opacity:1;fill-rule:nonzero;stroke:none" transform="matrix(1.33333 0 0 -1.33333 894.04 705.7)"/><path d="M0 0c-.027-3.225-.923-7.469-3.943-9.263-2.711-1.61-5.18.683-6.385 3.032-1.747 3.404-1.791 7.758-.503 11.314.856 2.365 3.058 5.447 5.977 4.546C-1.146 8.484-.043 3.319 0 0c.026-2.005 3.143-2.01 3.117 0-.056 4.406-1.595 9.953-5.863 12.114-4.011 2.031-8.069-.341-10.09-3.966-2.434-4.367-2.623-10.128-.739-14.725 1.546-3.772 5.169-7.428 9.601-6.086C1.183-11.101 3.078-4.795 3.117 0 3.134 2.007.017 2.008 0 0" clip-path="url(#aJ)" style="fill:#000;fill-opacity:1;fill-rule:nonzero;stroke:none" transform="matrix(1.33333 0 0 -1.33333 891.96 705.7)"/><path d="M0 0c.014-6.273-3.29-11.366-7.382-11.376s-7.419 5.069-7.434 11.342c-.014 6.273 3.291 11.366 7.382 11.376S-.014 6.273 0 0" clip-path="url(#aK)" style="fill:#e8cd0e;fill-opacity:1;fill-rule:nonzero;stroke:none" transform="matrix(1.33333 0 0 -1.33333 854.27 592.533)"/><path d="M0 0c-.027-3.225-.923-7.469-3.943-9.263-2.711-1.61-5.18.683-6.385 3.032-1.747 3.404-1.791 7.758-.503 11.314.856 2.365 3.058 5.447 5.977 4.546C-1.146 8.484-.043 3.319 0 0c.026-2.004 3.143-2.01 3.117 0-.056 4.406-1.595 9.953-5.863 12.114-4.011 2.031-8.069-.341-10.09-3.966-2.434-4.367-2.623-10.128-.739-14.725 1.546-3.772 5.169-7.428 9.601-6.086C1.183-11.101 3.078-4.795 3.117 0 3.134 2.007.017 2.008 0 0" clip-path="url(#aL)" style="fill:#000;fill-opacity:1;fill-rule:nonzero;stroke:none" transform="matrix(1.33333 0 0 -1.33333 852.191 592.533)"/><path d="M0 0c.014-6.273-3.29-11.366-7.382-11.376s-7.419 5.069-7.434 11.342c-.014 6.273 3.291 11.366 7.382 11.376S-.014 6.273 0 0" clip-path="url(#aM)" style="fill:#e8cd0e;fill-opacity:1;fill-rule:nonzero;stroke:none" transform="matrix(1.33333 0 0 -1.33333 938.03 650.286)"/><path d="M0 0c-.027-3.225-.923-7.469-3.943-9.263-2.711-1.61-5.18.683-6.385 3.032-1.747 3.404-1.791 7.758-.503 11.314.856 2.365 3.058 5.447 5.977 4.546C-1.146 8.484-.043 3.319 0 0c.026-2.005 3.143-2.01 3.117 0-.056 4.406-1.595 9.953-5.863 12.114-4.011 2.031-8.069-.341-10.09-3.966-2.434-4.367-2.623-10.128-.739-14.725 1.546-3.772 5.169-7.428 9.601-6.086C1.183-11.101 3.078-4.795 3.117 0 3.134 2.007.017 2.008 0 0" clip-path="url(#aN)" style="fill:#000;fill-opacity:1;fill-rule:nonzero;stroke:none" transform="matrix(1.33333 0 0 -1.33333 935.951 650.286)"/><path d="M0 0c.014-6.273-3.29-11.366-7.382-11.376s-7.419 5.069-7.434 11.342c-.014 6.273 3.291 11.366 7.382 11.376S-.014 6.273 0 0" clip-path="url(#aO)" style="fill:#e8cd0e;fill-opacity:1;fill-rule:nonzero;stroke:none" transform="matrix(1.33333 0 0 -1.33333 556.767 720.963)"/><path d="M0 0c-.027-3.225-.923-7.469-3.943-9.263-2.711-1.61-5.18.683-6.385 3.032-1.747 3.404-1.791 7.758-.503 11.314.856 2.365 3.058 5.447 5.977 4.546C-1.146 8.484-.043 3.319 0 0c.026-2.005 3.143-2.01 3.117 0-.056 4.406-1.595 9.953-5.863 12.114-4.011 2.031-8.069-.341-10.09-3.966-2.434-4.367-2.623-10.128-.739-14.725 1.546-3.772 5.169-7.428 9.601-6.086C1.183-11.101 3.078-4.795 3.117 0 3.134 2.007.017 2.008 0 0" clip-path="url(#aP)" style="fill:#000;fill-opacity:1;fill-rule:nonzero;stroke:none" transform="matrix(1.33333 0 0 -1.33333 554.689 720.963)"/><path d="M0 0c5.859-2.446 12.5-2.231 18.286.294.772.337.949 1.467.559 2.133-.466.796-1.358.897-2.132.559C11.674.787 5.869.902.829 3.006c-.777.325-1.715-.35-1.918-1.089C-1.335 1.019-.78.326 0 0" clip-path="url(#aQ)" style="fill:#000;fill-opacity:1;fill-rule:nonzero;stroke:none" transform="matrix(1.33333 0 0 -1.33333 713.785 722.36)"/><path d="M0 0c14.832-.085 28.374-9.613 33.235-23.666a36 36 0 0 0 1.977-12.369c-.033-2.007 3.084-2.007 3.117 0 .131 8.002-2.266 16.025-6.819 22.615C27.012-6.907 20.579-2.014 13.17.738 8.965 2.301 4.484 3.092 0 3.117-2.006 3.129-2.009.012 0 0" clip-path="url(#aR)" style="fill:#000;fill-opacity:1;fill-rule:nonzero;stroke:none" transform="matrix(1.33333 0 0 -1.33333 739.057 503.68)"/><path d="M0 0c-16.2-.168-30.754-10.623-36.059-25.923a38.5 38.5 0 0 1-2.096-13.398c.042-2.004 3.159-2.01 3.117 0-.311 14.884 8.884 28.753 22.895 33.948A36 36 0 0 0 0-3.117C2.005-3.097 2.01.021 0 0" clip-path="url(#aS)" style="fill:#000;fill-opacity:1;fill-rule:nonzero;stroke:none" transform="matrix(1.33333 0 0 -1.33333 655.137 501.2)"/></svg>