<svg xmlns="http://www.w3.org/2000/svg" width="1440" height="1440" viewBox="0 0 1440 1440"><defs><clipPath id="a" clipPathUnits="userSpaceOnUse"><path d="M-536.16 880.409h1080v-1080h-1080Z"/></clipPath><clipPath id="b" clipPathUnits="userSpaceOnUse"><path d="M-536.16 878.909h1080v-1080h-1080Z"/></clipPath><clipPath id="c" clipPathUnits="userSpaceOnUse"><path d="M-536.16 862.855h1080v-1080h-1080Z"/></clipPath><clipPath id="d" clipPathUnits="userSpaceOnUse"><path d="M-536.16 861.355h1080v-1080h-1080Z"/></clipPath><clipPath id="e" clipPathUnits="userSpaceOnUse"><path d="M-540.077 763.913h1080v-1080h-1080Z"/></clipPath><clipPath id="f" clipPathUnits="userSpaceOnUse"><path d="M-540.077 762.401h1080v-1080h-1080Z"/></clipPath><clipPath id="g" clipPathUnits="userSpaceOnUse"><path d="M-408.986 768.701h1080v-1080h-1080Z"/></clipPath><clipPath id="h" clipPathUnits="userSpaceOnUse"><path d="M-408.986 768.701h1080v-1080h-1080Z"/></clipPath><clipPath id="i" clipPathUnits="userSpaceOnUse"><path d="M-470.6 811.742h1080v-1080h-1080Z"/></clipPath><clipPath id="j" clipPathUnits="userSpaceOnUse"><path d="M-470.6 811.742h1080v-1080h-1080Z"/></clipPath><clipPath id="k" clipPathUnits="userSpaceOnUse"><path d="M-569.216 826.798h1080v-1080h-1080Z"/></clipPath><clipPath id="l" clipPathUnits="userSpaceOnUse"><path d="M-620.114 776.975h1080v-1080h-1080Z"/></clipPath><clipPath id="m" clipPathUnits="userSpaceOnUse"><path d="M-673.778 766.47h1080v-1080h-1080Z"/></clipPath><clipPath id="n" clipPathUnits="userSpaceOnUse"><path d="M-446.707 310.524h1080v-1080h-1080Z"/></clipPath><clipPath id="o" clipPathUnits="userSpaceOnUse"><path d="M-472.121 265.45h1080v-1080h-1080Z"/></clipPath><clipPath id="p" clipPathUnits="userSpaceOnUse"><path d="M-472.121 265.45h1080v-1080h-1080Z"/></clipPath><clipPath id="q" clipPathUnits="userSpaceOnUse"><path d="M-546.225 259.964h1080v-1080h-1080Z"/></clipPath><clipPath id="r" clipPathUnits="userSpaceOnUse"><path d="M-546.225 259.964h1080v-1080h-1080Z"/></clipPath><clipPath id="s" clipPathUnits="userSpaceOnUse"><path d="M-610.098 279.119h1080v-1080h-1080Z"/></clipPath><clipPath id="t" clipPathUnits="userSpaceOnUse"><path d="M-610.098 279.119h1080v-1080h-1080Z"/></clipPath><clipPath id="u" clipPathUnits="userSpaceOnUse"><path d="M-650.982 341.121h1080v-1080h-1080Z"/></clipPath><clipPath id="v" clipPathUnits="userSpaceOnUse"><path d="M-520.804 559.334h1080v-1080h-1080Z"/></clipPath><clipPath id="w" clipPathUnits="userSpaceOnUse"><path d="M-325.131 544.4h1080v-1080h-1080Z"/></clipPath><clipPath id="x" clipPathUnits="userSpaceOnUse"><path d="M-520.804 560.75h1080v-1080h-1080Z"/></clipPath><clipPath id="y" clipPathUnits="userSpaceOnUse"><path d="M-732.232 522.178h1080v-1080h-1080Z"/></clipPath><clipPath id="z" clipPathUnits="userSpaceOnUse"><path d="M-730.867 521.801h1080v-1080h-1080Z"/></clipPath><clipPath id="A" clipPathUnits="userSpaceOnUse"><path d="M-517.187 400.476h1080v-1080h-1080Z"/></clipPath><clipPath id="B" clipPathUnits="userSpaceOnUse"><path d="M-515.822 400.853h1080v-1080h-1080Z"/></clipPath><clipPath id="C" clipPathUnits="userSpaceOnUse"><path d="M-5.077 57.306c-23.878-4.772-39.528-28.831-34.952-53.738 4.575-24.905 27.642-41.227 51.52-36.455 23.88 4.772 39.528 28.83 34.953 53.736-4.039 21.989-22.488 37.287-43.188 37.285-2.746 0-5.536-.27-8.333-.828"/></clipPath><clipPath id="D" clipPathUnits="userSpaceOnUse"><path d="M-6.523 56.907c-23.878-4.772-39.528-28.83-34.952-53.738 4.575-24.905 27.642-41.227 51.52-36.455S49.573-4.455 44.998 20.45C40.958 42.44 22.51 57.737 1.81 57.735c-2.746 0-5.536-.269-8.333-.828"/></clipPath><clipPath id="E" clipPathUnits="userSpaceOnUse"><path d="M-577.315 395.94h1080v-1080h-1080Z"/></clipPath><clipPath id="F" clipPathUnits="userSpaceOnUse"><path d="M-575.95 396.317h1080v-1080h-1080Z"/></clipPath><clipPath id="G" clipPathUnits="userSpaceOnUse"><path d="M13.62 46.843C-4.848 43.152-16.95 24.547-13.41 5.286c3.536-19.261 21.374-31.882 39.84-28.192S57.001-.611 53.462 18.65c-3.124 17.005-17.392 28.835-33.4 28.834-2.123 0-4.28-.21-6.443-.641"/></clipPath><clipPath id="H" clipPathUnits="userSpaceOnUse"><path d="M12.12 46.843C-6.348 43.152-18.45 24.547-14.91 5.286c3.537-19.261 21.375-31.882 39.841-28.192S55.501-.611 51.962 18.65c-3.124 17.005-17.392 28.835-33.4 28.834-2.123 0-4.28-.21-6.443-.641"/></clipPath><clipPath id="I" clipPathUnits="userSpaceOnUse"><path d="M-483.204 439.068h1080v-1080h-1080Z"/></clipPath><clipPath id="J" clipPathUnits="userSpaceOnUse"><path d="M-483.204 437.652h1080v-1080h-1080Z"/></clipPath><clipPath id="K" clipPathUnits="userSpaceOnUse"><path d="M-485.088 464.635h1080v-1080h-1080Z"/></clipPath><clipPath id="L" clipPathUnits="userSpaceOnUse"><path d="M-483.645 458.473h1080v-1080h-1080Z"/></clipPath><clipPath id="M" clipPathUnits="userSpaceOnUse"><path d="M-533.168 446.474h1080v-1080h-1080Z"/></clipPath></defs><path d="M0 0h1080v1080H0Z" style="fill:#fff;fill-opacity:1;fill-rule:nonzero;stroke:none" transform="matrix(1.33333 0 0 -1.33333 0 1440)"/><path d="M0 0c-55.565 0-107.803 21.638-147.093 60.928s-60.928 91.529-60.928 147.093v264.775c0 55.565 21.638 107.804 60.928 147.093C-107.804 659.18-55.565 680.818 0 680.818s107.803-21.638 147.093-60.929c39.29-39.289 60.928-91.528 60.928-147.093V208.021c0-55.564-21.638-107.803-60.928-147.093S55.564 0 0 0" clip-path="url(#a)" style="fill:#fffbe9;fill-opacity:1;fill-rule:nonzero;stroke:none" transform="matrix(1.33333 0 0 -1.33333 714.88 1173.878)"/><path d="M0 0c-42.165.109-83.595 12.882-118.181 37.085-34.733 24.306-61.812 59.323-76.166 99.241-8.778 24.411-12.174 49.747-12.174 75.58v246.795c0 18.201.499 36.213 4.156 54.161 8.421 41.331 29.726 79.32 60.304 108.337 30.537 28.978 69.568 48.12 111.214 54.355 41.914 6.276 85.594-.488 123.472-19.552 37.549-18.898 69.004-49.403 89.076-86.337 16.578-30.506 24.807-64.759 24.82-99.419.004-11.78 0-23.56 0-35.339V228.921c0-11.134.292-22.342-.287-33.466-2.188-42.013-17.398-82.908-43.388-116.014C136.791 46.25 100.864 21.243 60.459 8.944 40.86 2.978 20.477.053 0 0c-1.93-.005-1.934-3.005 0-3 42.101.109 83.625 12.665 118.355 36.564 34.42 23.686 61.511 57.505 76.794 96.411 10.181 25.917 14.372 53.184 14.372 80.924v249.168c0 19.651-.891 39.092-5.294 58.367-9.383 41.067-31.492 78.651-62.468 107.151-30.918 28.446-70.117 47.198-111.735 53.099-41.377 5.867-84.142-.584-121.744-18.894-37.899-18.454-69.933-48.65-90.733-85.302-17.927-31.59-27.042-67.501-27.068-103.777-.009-11.452 0-22.905 0-34.358V227.54c0-12.873-.341-25.838.734-38.674 3.472-41.488 19.39-81.278 45.524-113.688 26.453-32.806 62.637-57.372 103.041-69.439C-40.697-.092-20.367-2.947 0-3c1.931-.005 1.933 2.995 0 3" clip-path="url(#b)" style="fill:#000;fill-opacity:1;fill-rule:nonzero;stroke:none" transform="matrix(1.33333 0 0 -1.33333 714.88 1171.878)"/><path d="M0 0c-105.192 0-190.467 85.275-190.467 190.467v264.776c0 105.192 85.275 190.467 190.467 190.467s190.467-85.275 190.467-190.467V190.467C190.467 85.275 105.192 0 0 0" clip-path="url(#c)" style="fill:#e8cd0e;fill-opacity:1;fill-rule:nonzero;stroke:none" transform="matrix(1.33333 0 0 -1.33333 714.88 1150.473)"/><path d="M0 0c-37.049 0-73.637 10.994-104.502 31.498-30.108 20.001-54.149 48.635-68.684 81.725-10.951 24.934-15.781 51.649-15.781 78.794v252.115c0 20.052 1.298 39.803 6.597 59.286 9.577 35.214 29.508 67.214 56.739 91.488 27.339 24.37 61.618 40.412 97.844 45.786 37.047 5.495 75.594-.23 109.365-16.444 32.697-15.699 60.566-40.819 79.549-71.728 18.242-29.705 27.779-64.078 27.84-98.91.019-10.815 0-21.63 0-32.444V207.987c0-13.996.306-27.998-1.364-41.927-4.382-36.561-19.778-71.524-43.661-99.536-23.635-27.723-55.145-48.375-90.087-58.739C36.372 2.599 18.228.043 0 0c-1.93-.005-1.934-3.005 0-3 37.294.087 74.124 10.923 105.308 31.439 30.241 19.897 54.663 48.322 69.596 81.314 11.66 25.76 17.063 53.471 17.063 81.681V445.52c0 21.619-1.863 42.881-8.14 63.706-10.492 34.808-31.065 66.327-58.62 90.03-27.858 23.964-62.396 39.647-98.816 44.641-36.943 5.066-75.012-.697-108.711-16.69-32.703-15.52-60.7-40.428-80.049-71.01-19.347-30.579-29.531-66.331-29.598-102.488-.02-10.555 0-21.11 0-31.665V206.425c0-15.419-.148-30.719 2.125-46.042 5.386-36.312 21.479-70.671 45.716-98.218C-120.1 34.858-88.352 14.631-53.403 4.526-36.079-.483-18.031-3 0-3c1.93 0 1.934 3 0 3" clip-path="url(#d)" style="fill:#000;fill-opacity:1;fill-rule:nonzero;stroke:none" transform="matrix(1.33333 0 0 -1.33333 714.88 1148.473)"/><path d="M0 0h-7.835c-62.824 0-113.753 50.929-113.753 113.753V333.93c0 62.824 50.929 113.753 113.753 113.753H0c62.824 0 113.753-50.929 113.753-113.753V113.753C113.753 50.929 62.824 0 0 0" clip-path="url(#e)" style="fill:#fffbe9;fill-opacity:1;fill-rule:nonzero;stroke:none" transform="matrix(1.33333 0 0 -1.33333 720.103 1018.551)"/><path d="M0 0c-10.79 0-21.397.272-31.994 2.604a112.2 112.2 0 0 0-36.343 15.08c-21.996 14.087-38.723 35.85-46.566 60.774-3.456 10.98-5.152 22.41-5.173 33.915-.004 2.131 0 4.261 0 6.392v194.246c0 6.465-.014 12.931 0 19.396.058 26.114 9.196 51.736 25.955 71.806 16.823 20.148 40.463 34.01 66.307 38.679 10.578 1.911 21.493 2.094 32.221 1.683 13.513-.518 26.928-3.484 39.381-8.766 23.962-10.162 43.95-28.735 55.934-51.826 8.694-16.75 12.518-35.084 12.518-53.87V113.679c0-20.263-4.879-40.081-15.076-57.664C84.08 33.457 63.121 15.753 38.605 6.81 26.23 2.296 13.166.036 0 0c-1.946-.005-1.95-3.03 0-3.025 26.856.073 53.041 9.484 73.709 26.653 20.298 16.86 34.484 40.702 39.458 66.63 2.078 10.837 2.098 21.648 2.098 32.599v197.784c0 10.205.122 20.317-1.514 30.449-4.216 26.117-17.735 50.382-37.59 67.845-20.072 17.652-45.971 27.896-72.695 28.696-10.922.327-21.92.072-32.684-1.933-13.06-2.432-25.695-7.198-37.133-13.951-22.561-13.321-40.174-34.289-49.416-58.8-5.535-14.68-7.333-29.925-7.333-45.497V131.916c0-6.557-.015-13.114 0-19.671.058-26.457 9.206-52.278 25.907-72.807C-80.552 18.98-56.869 4.559-31.013-.69-20.733-2.777-10.441-3.025 0-3.025 1.946-3.025 1.949 0 0 0" clip-path="url(#f)" style="fill:#000;fill-opacity:1;fill-rule:nonzero;stroke:none" transform="matrix(1.33333 0 0 -1.33333 720.103 1016.535)"/><path d="M0 0c1.129-1.206 2.209-2.162 3.227-2.872a10.4 10.4 0 0 1 3.31-1.54 6.9 6.9 0 0 1 3.508-.031c1.152.29 2.384.901 3.696 1.825 1.311.925 2.659 2.206 4.051 3.831 1.557 1.817 2.662 3.551 3.339 5.188q1.012 2.455.743 4.508c-.179 1.369-.577 2.616-1.2 3.752s-1.523 2.348-2.694 3.661zm25.698 22.857c5.605-5.812 9.163-11.355 10.748-17.488s.807-11.964-2.906-17.495c-1.199-1.785-2.58-3.36-4.165-4.704s-3.452-2.414-5.615-3.174c-2.166-.76-4.479-1.071-6.931-.904s-5.205.965-8.216 2.465c-3.011 1.498-6.061 3.714-9.057 6.669C-5.979-6.317-8.65-3.417-13.755 2.722c-2.635 3.169-3.969 5.968-4.06 8.218-.09 2.252 1.207 4.427 3.839 6.536L6.588 33.962c3.866 3.1 7.572 2.111 11.422-2.52 2.979-3.582 4.519-5.299 7.688-8.585" clip-path="url(#g)" style="fill:#fffbe9;fill-opacity:1;fill-rule:nonzero;stroke:none" transform="matrix(1.33333 0 0 -1.33333 545.315 1024.935)"/><path d="M0 0c1.129-1.206 2.209-2.162 3.227-2.872a10.4 10.4 0 0 1 3.31-1.54 6.9 6.9 0 0 1 3.508-.031c1.152.29 2.384.901 3.696 1.825 1.311.925 2.659 2.206 4.051 3.831 1.557 1.817 2.662 3.551 3.339 5.188q1.012 2.455.743 4.508c-.179 1.369-.577 2.616-1.2 3.752s-1.523 2.348-2.694 3.661zm25.698 22.857c5.605-5.812 9.163-11.355 10.748-17.488s.807-11.964-2.906-17.495c-1.199-1.785-2.58-3.36-4.165-4.704s-3.452-2.414-5.615-3.174c-2.166-.76-4.479-1.071-6.931-.904s-5.205.965-8.216 2.465c-3.011 1.498-6.061 3.714-9.057 6.669C-5.979-6.317-8.65-3.417-13.755 2.722c-2.635 3.169-3.969 5.968-4.06 8.218-.09 2.252 1.207 4.427 3.839 6.536L6.588 33.962c3.866 3.1 7.572 2.111 11.422-2.52 2.979-3.582 4.519-5.299 7.688-8.585z" clip-path="url(#h)" style="fill:none;stroke:#000;stroke-width:2.957;stroke-linecap:butt;stroke-linejoin:miter;stroke-miterlimit:10;stroke-dasharray:none;stroke-opacity:1" transform="matrix(1.33333 0 0 -1.33333 545.315 1024.935)"/><path d="M0 0c1.843-.787 3.672-.84 5.437-.165C7.201.51 8.665 1.641 9.836 3.2s2.088 3.35 2.775 5.362a21.8 21.8 0 0 1 1.171 6.128c.088 2.03-.23 3.91-.937 5.649-.708 1.74-1.816 2.923-3.364 3.585-1.503.641-3.061.595-4.723-.134-1.663-.729-3.184-1.834-4.557-3.338a19.5 19.5 0 0 1-3.387-5.141c-.876-1.931-1.412-3.888-1.581-5.877s.138-3.876.942-5.648C-3.022 2.016-1.736.742 0 0m12.608-11.993c-5.04-.118-10.476.973-16.077 3.366S-13.697-3.021-17.223.764c-3.527 3.786-5.639 7.97-6.374 12.35-.736 4.381.176 8.494 2.506 12.368 3.527 5.864 8.556 9.008 14.751 10.065 6.194 1.056 12.409.011 19.27-2.919s11.918-6.705 15.532-11.97c3.613-5.265 4.979-11.167 3.498-17.908-.978-4.454-3.101-8.041-6.561-10.617-3.461-2.575-7.753-4.009-12.791-4.126" clip-path="url(#i)" style="fill:#fffbe9;fill-opacity:1;fill-rule:nonzero;stroke:none" transform="matrix(1.33333 0 0 -1.33333 627.468 1082.323)"/><path d="M0 0c1.843-.787 3.672-.84 5.437-.165C7.201.51 8.665 1.641 9.836 3.2s2.088 3.35 2.775 5.362a21.8 21.8 0 0 1 1.171 6.128c.088 2.03-.23 3.91-.937 5.649-.708 1.74-1.816 2.923-3.364 3.585-1.503.641-3.061.595-4.723-.134-1.663-.729-3.184-1.834-4.557-3.338a19.5 19.5 0 0 1-3.387-5.141c-.876-1.931-1.412-3.888-1.581-5.877s.138-3.876.942-5.648C-3.022 2.016-1.736.742 0 0Zm12.608-11.993c-5.04-.118-10.476.973-16.077 3.366S-13.697-3.021-17.223.764c-3.527 3.786-5.639 7.97-6.374 12.35-.736 4.381.176 8.494 2.506 12.368 3.527 5.864 8.556 9.008 14.751 10.065 6.194 1.056 12.409.011 19.27-2.919s11.918-6.705 15.532-11.97c3.613-5.265 4.979-11.167 3.498-17.908-.978-4.454-3.101-8.041-6.561-10.617-3.461-2.575-7.753-4.009-12.791-4.126z" clip-path="url(#j)" style="fill:none;stroke:#000;stroke-width:2.957;stroke-linecap:butt;stroke-linejoin:miter;stroke-miterlimit:10;stroke-dasharray:none;stroke-opacity:1" transform="matrix(1.33333 0 0 -1.33333 627.468 1082.323)"/><path d="M0 0c.273-1.857-.273-3.447-1.676-4.748-1.405-1.302-3.628-2.156-6.642-2.478a13.6 13.6 0 0 0-2.369-.045c-.794.054-1.644.214-2.54.484q-1.347.406-2.363.787c-.677.253-1.527.657-2.541 1.222-1.013.564-1.805 1.02-2.379 1.358s-1.469.891-2.661 1.668a75 75 0 0 0-2.572 1.739c-6.432 4.339-9.47 6.661-15.157 11.526l-.966-13.854c-.146-2.086-.795-3.474-1.965-4.146-1.171-.673-2.974-.901-5.383-.63-2.652.297-4.555.993-5.695 2.02-1.139 1.026-1.553 2.538-1.266 4.523l4.418 30.579c.348 2.406 1.313 4.106 2.853 5.14 1.539 1.033 3.555 1.39 6.101 1.136 1.743-.173 3.127-.527 4.163-1.091 1.036-.565 2.256-1.528 3.701-2.873 7.065-6.774 10.983-9.975 19.511-15.781l-1.015 13.916c-.133 1.83.287 3.24 1.236 4.245.948 1.004 2.282 1.592 4.024 1.797 2.025.237 3.534.023 4.549-.688 1.015-.712 1.673-2.01 1.952-3.909L0 0" clip-path="url(#k)" style="fill:#fffbe9;fill-opacity:1;fill-rule:nonzero;stroke:#000;stroke-width:2.957;stroke-linecap:butt;stroke-linejoin:miter;stroke-miterlimit:10;stroke-dasharray:none;stroke-opacity:1" transform="matrix(1.33333 0 0 -1.33333 758.955 1102.397)"/><path d="m0 0 9.17-16.533c2.995-5.402 3.373-10.386.816-14.873-2.557-4.488-8.571-9.25-18.117-13.15-9.088-3.713-16.418-4.376-21.441-2.777-5.025 1.599-8.059 5.401-9.34 11.097l-4.179 18.579c-.495 2.203-.139 4.178 1.002 5.945s2.785 2.95 4.983 3.608c2.7.808 4.865 1.048 6.545.643 1.681-.405 2.995-1.935 3.91-4.632l6.678-19.689q.732-1.907 1.895-2.767a4.07 4.07 0 0 1 2.631-.812c.975.034 2.145.321 3.498.874 1.351.552 2.409 1.141 3.173 1.748q1.143.913 1.424 1.947.28 1.03.155 1.884-.123.852-.642 2.084L-15.91-7.636c-.559 1.33-.834 2.532-.834 3.607-.001 1.072.293 2.001.878 2.796A9.7 9.7 0 0 0-13.89.786c.734.554 1.662 1.118 2.784 1.706 2.5 1.311 4.616 1.838 6.418 1.516S-1.312 2.367 0 0" clip-path="url(#l)" style="fill:#fffbe9;fill-opacity:1;fill-rule:nonzero;stroke:#000;stroke-width:2.957;stroke-linecap:butt;stroke-linejoin:miter;stroke-miterlimit:10;stroke-dasharray:none;stroke-opacity:1" transform="matrix(1.33333 0 0 -1.33333 826.819 1035.967)"/><path d="M0 0c1.689-1.682 2.73-3.351 3.094-5.015.365-1.666.177-3.29-.568-4.846-.746-1.557-2.055-3.28-3.937-5.11-2.778-2.701-5.278-4.063-7.388-4.174s-4.228 1.157-6.37 3.747C-21.024-8.17-23.948-4.553-29.79 2.687c-2.09-1.81-3.15-2.688-5.297-4.391-2.652-2.104-4.93-3.247-6.747-3.515s-3.3.533-4.46 2.346c-.705 1.101-1.002 2.153-.901 3.152s.57 1.991 1.401 2.992 2.08 2.129 3.736 3.43c8.678 7.366 15.969 14.529 23.537 23.04 1.883 2.283 3.516 3.729 4.975 4.274 1.457.544 2.987.203 4.578-1.073 1.072-.859 1.668-1.859 1.772-3.002.104-1.145-.151-2.359-.769-3.622-.618-1.265-1.607-2.744-2.98-4.394a141 141 0 0 0-5.149-5.902L0 0" clip-path="url(#m)" style="fill:#fffbe9;fill-opacity:1;fill-rule:nonzero;stroke:#000;stroke-width:2.957;stroke-linecap:butt;stroke-linejoin:miter;stroke-miterlimit:10;stroke-dasharray:none;stroke-opacity:1" transform="matrix(1.33333 0 0 -1.33333 898.37 1021.96)"/><path d="M0 0c1.879-3.48 2.555-6.434 2.101-8.854-.455-2.421-1.923-4.581-4.414-6.635-2.45-2.019-4.614-2.942-6.588-2.7-1.974.241-4.07 1.906-6.26 5.069-1.882 2.656-2.824 3.983-4.708 6.637-5.545-5.161-8.23-7.936-13.379-13.872l4.907-5.71c2.531-2.946 3.764-5.663 3.765-8.127.001-2.467-1.11-5.043-3.307-7.906-2.089-2.723-4.091-4.286-6.11-4.632s-4.413.688-7.169 3.19a7812 7812 0 0 1-21.985 19.515c-2.137 1.935-3.037 4.359-2.623 7.276s1.826 6.033 4.254 9.198c2.801 3.65 5.292 5.844 7.354 6.697s4.124.035 6.192-2.371l7.777-9.05c5.423 6.253 8.25 9.176 14.088 14.615l-6.537 9.42c-1.151 1.658-1.71 3.4-1.647 5.236.063 1.834.598 3.574 1.607 5.192 1.009 1.616 2.445 3.213 4.306 4.748 3.173 2.615 5.892 4.016 8.055 4.308s4.015-1.039 5.569-3.918L0 0" clip-path="url(#n)" style="fill:#fffbe9;fill-opacity:1;fill-rule:nonzero;stroke:#1b2022;stroke-width:2.694;stroke-linecap:butt;stroke-linejoin:miter;stroke-miterlimit:10;stroke-dasharray:none;stroke-opacity:1" transform="matrix(1.33333 0 0 -1.33333 595.61 414.032)"/><path d="M0 0c-2.509-.991-4.163-2.38-4.95-4.076-.787-1.697-.653-4.06.364-7.081l2.813-8.354c5.268 2.371 7.939 3.426 13.329 5.277l-2.247 8.74C8.785-3.455 8.078-1.913 7.176-.88 6.273.153 5.241.716 4.094.8 2.945.883 1.575.622 0 0m14.14-24.284c-5.105-1.753-7.634-2.753-12.623-4.998l1.264-3.752c.81-2.407.751-4.467-.131-6.191s-2.846-3.31-5.885-4.926c-1.29-.687-2.417-1.087-3.394-1.189q-1.466-.152-2.961.586-1.498.737-3.063 2.92t-3.399 5.488c-1.222 2.203-2.647 5.071-4.266 8.608-1.415 3.089-2.339 6.15-2.723 9.202s-.287 5.887.308 8.491a30.8 30.8 0 0 0 2.75 7.458 25.3 25.3 0 0 0 4.701 6.341c1.89 1.853 3.831 3.444 5.8 4.769a32.4 32.4 0 0 0 6.201 3.268 31.5 31.5 0 0 0 7.936 2.001c2.688.311 5.505.164 8.401-.455 2.898-.62 5.501-1.743 7.796-3.325s4.297-3.907 6.004-6.938 2.832-6.612 3.457-10.701c1.007-6.584 1.494-11.513 1.501-14.78.008-3.268-.44-5.643-1.341-7.139-.902-1.498-2.485-2.517-4.774-3.136-3.215-.87-5.59-1.003-7.192-.264-1.602.74-2.738 2.326-3.375 4.802z" clip-path="url(#o)" style="fill:#fffbe9;fill-opacity:1;fill-rule:nonzero;stroke:none" transform="matrix(1.33333 0 0 -1.33333 629.495 353.934)"/><path d="M0 0c-2.509-.991-4.163-2.38-4.95-4.076-.787-1.697-.653-4.06.364-7.081l2.813-8.354c5.268 2.371 7.939 3.426 13.329 5.277l-2.247 8.74C8.785-3.455 8.078-1.913 7.176-.88 6.273.153 5.241.716 4.094.8 2.945.883 1.575.622 0 0Zm14.14-24.284c-5.105-1.753-7.634-2.753-12.623-4.998l1.264-3.752c.81-2.407.751-4.467-.131-6.191s-2.846-3.31-5.885-4.926c-1.29-.687-2.417-1.087-3.394-1.189q-1.466-.152-2.961.586-1.498.737-3.063 2.92t-3.399 5.488c-1.222 2.203-2.647 5.071-4.266 8.608-1.415 3.089-2.339 6.15-2.723 9.202s-.287 5.887.308 8.491a30.8 30.8 0 0 0 2.75 7.458 25.3 25.3 0 0 0 4.701 6.341c1.89 1.853 3.831 3.444 5.8 4.769a32.4 32.4 0 0 0 6.201 3.268 31.5 31.5 0 0 0 7.936 2.001c2.688.311 5.505.164 8.401-.455 2.898-.62 5.501-1.743 7.796-3.325s4.297-3.907 6.004-6.938 2.832-6.612 3.457-10.701c1.007-6.584 1.494-11.513 1.501-14.78.008-3.268-.44-5.643-1.341-7.139-.902-1.498-2.485-2.517-4.774-3.136-3.215-.87-5.59-1.003-7.192-.264-1.602.74-2.738 2.326-3.375 4.802z" clip-path="url(#p)" style="fill:none;stroke:#1b2022;stroke-width:2.694;stroke-linecap:butt;stroke-linejoin:miter;stroke-miterlimit:10;stroke-dasharray:none;stroke-opacity:1" transform="matrix(1.33333 0 0 -1.33333 629.495 353.934)"/><path d="M0 0c.123 1.869.012 3.366-.343 4.486s-1.054 2.001-2.095 2.628a10.3 10.3 0 0 1-3.453 1.293c-1.256.234-2.997.388-5.219.416l-.206-16.719c1.595-.021 3.008.063 4.243.267q1.85.303 3.445 1.115 1.595.811 2.528 2.449C-.478-2.971-.107-1.618 0 0m-11.491-22.108c-.051-4.104-.867-7.013-2.381-8.767s-3.781-2.655-6.863-2.826-5.383.401-6.965 1.835c-1.584 1.434-2.585 4.144-2.951 8.175l-2.895 31.89c-.278 3.073.542 5.489 2.528 7.197 1.987 1.708 4.75 2.711 8.229 2.904 6.882.381 10.332.401 17.213.096 4.187-.185 8.031-.951 11.464-2.225s6.322-2.953 8.649-4.953c2.327-1.999 3.978-4.354 4.969-6.998.993-2.646 1.213-5.42.734-8.308-.586-3.537-2.28-6.343-4.953-8.528s-5.883-3.637-9.66-4.473c-3.779-.836-7.887-1.1-12.435-.896-1.852.083-2.778.109-4.631.133z" clip-path="url(#q)" style="fill:#fffbe9;fill-opacity:1;fill-rule:nonzero;stroke:none" transform="matrix(1.33333 0 0 -1.33333 728.3 346.62)"/><path d="M0 0c.123 1.869.012 3.366-.343 4.486s-1.054 2.001-2.095 2.628a10.3 10.3 0 0 1-3.453 1.293c-1.256.234-2.997.388-5.219.416l-.206-16.719c1.595-.021 3.008.063 4.243.267q1.85.303 3.445 1.115 1.595.811 2.528 2.449C-.478-2.971-.107-1.618 0 0zm-11.491-22.108c-.051-4.104-.867-7.013-2.381-8.767s-3.781-2.655-6.863-2.826-5.383.401-6.965 1.835c-1.584 1.434-2.585 4.144-2.951 8.175l-2.895 31.89c-.278 3.073.542 5.489 2.528 7.197 1.987 1.708 4.75 2.711 8.229 2.904 6.882.381 10.332.401 17.213.096 4.187-.185 8.031-.951 11.464-2.225s6.322-2.953 8.649-4.953c2.327-1.999 3.978-4.354 4.969-6.998.993-2.646 1.213-5.42.734-8.308-.586-3.537-2.28-6.343-4.953-8.528s-5.883-3.637-9.66-4.473c-3.779-.836-7.887-1.1-12.435-.896-1.852.083-2.778.109-4.631.133z" clip-path="url(#r)" style="fill:none;stroke:#1b2022;stroke-width:2.694;stroke-linecap:butt;stroke-linejoin:miter;stroke-miterlimit:10;stroke-dasharray:none;stroke-opacity:1" transform="matrix(1.33333 0 0 -1.33333 728.3 346.62)"/><path d="M0 0c.693 1.698 1.05 3.147 1.059 4.344C1.068 5.54.678 6.659-.115 7.681a12 12 0 0 1-2.869 2.653c-1.117.742-2.716 1.612-4.806 2.56L-13.146-2.67c1.501-.68 2.863-1.189 4.094-1.513q1.844-.487 3.605-.394a5.28 5.28 0 0 1 3.15 1.233C-1.37-2.581-.6-1.47 0 0m-17.698-15.899c-1.314-3.82-2.983-6.205-4.954-7.22-1.97-1.016-4.387-.923-7.342.183s-4.94 2.582-5.983 4.571c-1.044 1.989-1.147 4.935-.247 8.858l7.119 31.037c.686 2.99 2.201 4.918 4.593 5.705s5.298.595 8.633-.653c6.597-2.47 9.859-3.876 16.276-7.029 3.904-1.918 7.311-4.249 10.176-6.892 2.864-2.643 5.093-5.446 6.691-8.315s2.444-5.786 2.574-8.694-.514-5.605-1.859-8.106c-1.649-3.063-4.127-4.959-7.346-5.857-3.22-.897-6.72-.884-10.566-.064s-7.825 2.302-12.064 4.388a129 129 0 0 1-4.337 2.05z" clip-path="url(#s)" style="fill:#fffbe9;fill-opacity:1;fill-rule:nonzero;stroke:none" transform="matrix(1.33333 0 0 -1.33333 813.463 372.158)"/><path d="M0 0c.693 1.698 1.05 3.147 1.059 4.344C1.068 5.54.678 6.659-.115 7.681a12 12 0 0 1-2.869 2.653c-1.117.742-2.716 1.612-4.806 2.56L-13.146-2.67c1.501-.68 2.863-1.189 4.094-1.513q1.844-.487 3.605-.394a5.28 5.28 0 0 1 3.15 1.233C-1.37-2.581-.6-1.47 0 0Zm-17.698-15.899c-1.314-3.82-2.983-6.205-4.954-7.22-1.97-1.016-4.387-.923-7.342.183s-4.94 2.582-5.983 4.571c-1.044 1.989-1.147 4.935-.247 8.858l7.119 31.037c.686 2.99 2.201 4.918 4.593 5.705s5.298.595 8.633-.653c6.597-2.47 9.859-3.876 16.276-7.029 3.904-1.918 7.311-4.249 10.176-6.892 2.864-2.643 5.093-5.446 6.691-8.315s2.444-5.786 2.574-8.694-.514-5.605-1.859-8.106c-1.649-3.063-4.127-4.959-7.346-5.857-3.22-.897-6.72-.884-10.566-.064s-7.825 2.302-12.064 4.388a129 129 0 0 1-4.337 2.05z" clip-path="url(#t)" style="fill:none;stroke:#1b2022;stroke-width:2.694;stroke-linecap:butt;stroke-linejoin:miter;stroke-miterlimit:10;stroke-dasharray:none;stroke-opacity:1" transform="matrix(1.33333 0 0 -1.33333 813.463 372.158)"/><path d="M0 0c-2.598-2.809-5.001-4.121-7.178-4.028-2.178.092-4.362 1.427-6.661 3.947-2.222 2.437-3.429 4.726-3.607 7.021-.176 2.295.816 5.024 3.035 8.176 2.722 3.804 4.081 5.708 6.799 9.515-1.128 8.265-1.891 12.433-3.827 20.764-.908 3.742-1.004 6.347-.138 7.816 1.361 2.308 3.577 3.277 6.644 2.728 2.911-.522 5.23-1.58 6.881-3.049 2.289-2.036 3.782-4.709 4.426-7.913 1.352-6.945 1.898-10.414 2.738-17.306 5.009-.501 7.548-.869 12.673-1.859 4.319-.773 7.878-3.028 10.501-6.628 1.943-2.667 3.013-5.198 3.224-7.486.36-3.907-.191-6.43-1.526-7.587-.738-.64-1.808-.871-3.201-.723-1.395.148-3.369.6-5.909 1.266-7.166 1.778-10.708 2.395-17.656 3.151L0 0" clip-path="url(#u)" style="fill:#fffbe9;fill-opacity:1;fill-rule:nonzero;stroke:#1b2022;stroke-width:2.694;stroke-linecap:butt;stroke-linejoin:miter;stroke-miterlimit:10;stroke-dasharray:none;stroke-opacity:1" transform="matrix(1.33333 0 0 -1.33333 867.976 454.828)"/><path d="M0 0c6.737-.78 13.555.075 20.217 1.382 8.19 1.605 16.373 3.944 23.529 8.394s13.25 11.225 15.675 19.529c2.696 9.229.397 19.854-5.836 26.983-7.422 8.488-19.094 11.418-30.112 11.875-21.726.903-42.009-8.547-47.364-31.646a39 39 0 0 1-.553-2.87C-27.049 16.713-17.54 2.032 0 0m-197.038 15.31a192 192 0 0 0 2.743 14.221c26.534 114.461 127.042 161.284 234.698 156.813 54.592-2.268 112.431-16.783 149.208-58.844 30.887-35.324 42.275-87.976 28.918-133.706-12.019-41.148-42.214-74.716-77.674-96.768s-76.007-33.64-116.589-41.597c-33.013-6.473-66.797-10.713-100.179-6.846-86.916 10.069-134.031 82.816-121.125 166.727" clip-path="url(#v)" style="fill:#dd741d;fill-opacity:1;fill-rule:nonzero;stroke:none" transform="matrix(1.33333 0 0 -1.33333 694.405 745.78)"/><path d="M0 0c5.802 37.198 21.51 73.238 46.713 101.392 22.393 25.015 51.511 43.078 83.091 54.113 33.278 11.628 68.865 15.801 103.998 14.576 40.479-1.41 82.424-9.208 117.35-30.696 17.49-10.761 32.823-25.03 44.05-42.279 11.305-17.369 18.545-37.258 21.559-57.738 3.041-20.661 1.652-42.025-4.486-62.006-6.127-19.946-16.731-38.359-30.153-54.281-29.151-34.581-69.911-55.966-112.631-69.016-23.32-7.124-47.34-12.242-71.417-16.027-25.584-4.022-51.698-5.956-77.513-3.064-34.54 3.87-67.439 18.999-90.254 45.637C8.376-93.784-2.042-60.231-2.056-26.802-2.06-17.831-1.35-8.867 0 0c.271 1.783-2.457 2.551-2.73.753-5.272-34.637-.845-71.011 16.672-101.737 16.946-29.723 45.096-51.196 77.734-61.053 21.509-6.496 44.306-7.925 66.651-6.93 26.024 1.159 51.891 5.654 77.286 11.285 45.681 10.129 91.254 26.412 127.2 57.305 31.873 27.392 54.807 65.366 57.93 107.828 3.086 41.937-12.059 85.111-42.423 114.492-30.16 29.185-71.485 42.98-112.349 48.347-37.226 4.89-75.715 3.804-112.312-4.88-33.277-7.897-65.141-22.508-91.277-44.781C35.143 97.417 15.648 66.557 4.826 32.547 1.521 22.158-1.05 11.526-2.73.753-3.008-1.03-.28-1.798 0 0" clip-path="url(#w)" style="fill:#000;fill-opacity:1;fill-rule:nonzero;stroke:none" transform="matrix(1.33333 0 0 -1.33333 433.508 725.868)"/><path d="M0 0c5.442-.599 10.899-.182 16.291.666 5.121.805 10.233 1.908 15.176 3.477 8.872 2.817 17.364 7.455 23.258 14.819 5.585 6.977 8.179 15.611 6.842 24.495-1.309 8.704-6.346 16.328-13.794 20.992-7.304 4.575-16.137 6.25-24.641 6.559-7.448.27-15.054-.636-22.082-3.185-6.643-2.409-12.773-6.279-17.414-11.649-5.182-5.995-8.464-13.589-9.545-21.425-1-7.243.06-14.826 3.844-21.167C-18.444 7.513-12.567 3.147-5.813 1.15-3.911.588-1.967.238 0 0c1.805-.219 1.789 2.615 0 2.831-6.707.813-13.015 3.823-17.398 9.031-4.219 5.013-6.123 11.616-6.054 18.098.079 7.417 2.539 14.958 6.696 21.089 3.693 5.446 8.911 9.66 14.827 12.485 6.109 2.917 12.908 4.317 19.645 4.622 7.747.35 15.779-.493 23.037-3.335 7.538-2.951 13.797-8.573 16.6-16.273 2.853-7.835 2.183-16.492-2.002-23.717-4.316-7.453-11.492-12.739-19.336-16.026-4.357-1.826-8.934-3.096-13.543-4.1-4.933-1.074-9.941-1.93-14.992-2.128A50.4 50.4 0 0 0 0 2.831C-1.809 3.03-1.794.198 0 0" clip-path="url(#x)" style="fill:#000;fill-opacity:1;fill-rule:nonzero;stroke:none" transform="matrix(1.33333 0 0 -1.33333 694.405 747.667)"/><path d="m0 0-4.553-26.57c-.024-.138-.044-.284-.067-.423-.12 1.462-.242 2.921-.378 4.377L-9.943 30.46c-1.343 14.425-.545 32.847-13.966 42.423-14.903 10.634-35.693 1.655-43.657-13.289-3.726-6.992-4.836-14.633-5.369-22.214-.623-8.86-1.198-17.712-2.015-26.567A818 818 0 0 0-91.021-91.566c-.765-3.437-6.406-30.089-13.906-20.149-3.568 4.728-2.91 12.666-3.19 18.266a676 676 0 0 0-.775 25.962 784 784 0 0 0 5.985 106.072c2.076 16.665 7.529 35.293 2.997 51.649-4.059 14.645-17.278 27.344-34.667 26.509-18.546-.892-32.066-15.821-36.499-31.67-4.758-17.013-5.68-35.013-7.979-52.321l-21.419-161.243c-.717-5.391.069-11.675-2.206-16.967-5.54-12.882-8.328 5.174-8.882 10.571a772 772 0 0 0-2.292 26.904 734 734 0 0 0-1.654 51.88 792 792 0 0 0 7.198 103.869c2.334 17.212 6.466 35.683-4.722 50.491-10.214 13.518-29.761 17.17-45.002 6.651-14.997-10.352-17.315-27.58-19.326-43.198l-6.961-54.058-13.923-108.116-3.329-25.854c-.57-4.425-1.001-8.883-1.735-13.295-.147-.884-.534-1.987-.907-3.059-2.325 5.467-3.169 13.67-4.242 20.254a466 466 0 0 0-5.354 100.812 491 491 0 0 0 5.541 51.179c2.646 16.373 6.983 35.879-10.11 46.165-16.794 10.106-36.059-2.8-42.575-18.397-6.181-14.791-10.742-30.349-15.55-45.512-7.742-24.414-14.311-49.065-21.193-73.659-3.836-13.708-7.827-27.384-12.029-41.016-2.005-6.503.645-13.428 7.768-15.617 6.336-1.946 15.213 1.411 17.227 7.945 8.049 26.107 15.067 52.414 22.478 78.652 3.57 12.639 7.303 25.245 11.306 37.79a1063 1063 0 0 0 6.805 20.582c2.108 6.171 3.3 13.572 6.255 19.889 1.521 3.252 6.24 1.683 5.802-1.907-.576-4.727-2.141-9.645-2.773-13.557a491 491 0 0 1-5.541-51.178c-1.952-35.253-.23-70.638 5.244-105.249 2.213-13.993 3.497-31.054 15.986-40.491 13.907-10.51 32.473-2.181 39.004 12.466 2.996 6.718 3.668 14.089 4.577 21.144l3.632 28.204 6.961 54.058 14.074 109.292c.614 4.765 1.825 30.121 12.407 27.092 4.995-1.429 6.26-8.517 6.456-12.537.429-8.811-1.978-18.086-3.143-26.86a792 792 0 0 1-6.899-103.874 834 834 0 0 1 1.677-52.877c.975-15.404.697-32.377 6.019-46.955 5.317-14.564 21.331-23.916 37.992-16.217 18.182 8.401 20.371 26.965 22.528 43.201l14.279 107.496 7.14 53.748 3.415 25.705c1.055 7.947 1.32 16.523 4.204 24.215 1.468 3.915 4.358 9.754 9.313 10.651 4.478.812 7.726-3.54 9.176-6.999 2.713-6.472 1.143-14.605.14-21.5-1.305-8.964-2.611-17.922-3.691-26.902a784 784 0 0 1-5.542-104.947c.125-8.619.4-17.231.776-25.833.381-8.727.542-17.458 3.924-25.613 6.386-15.401 24.712-23.801 41.799-15.62 17.378 8.32 21.009 26.74 24.52 42.525a823 823 0 0 1 9.674 51.038 813 813 0 0 1 6.6 53.576c.726 8.11 1.246 16.218 1.812 24.333.19 2.723-.175 16.631 5.621 15.719 5.108-.803 4.063-22.567 4.434-26.547l4.945-53.077c.788-8.453 1.377-16.957 2.365-25.384.869-7.407 3.478-15.115 10.113-19.615 6.529-4.427 15.389-4.62 22.621-.713 8.09 4.37 11.968 12.732 13.858 20.726 3.557 15.045 5.531 30.382 7.97 45.615.704 4.397.952 9.099-.86 13.137C19.568 17.362 1.837 10.716 0 0" clip-path="url(#y)" style="fill:#ffa1db;fill-opacity:1;fill-rule:nonzero;stroke:none" transform="matrix(1.33333 0 0 -1.33333 976.31 696.237)"/><path d="M0 0c-1.542-8.995-3.19-17.979-4.62-26.993l2.781-.376C-2.967-13.63-4.368.092-5.646 13.818c-.592 6.348-1.261 12.693-1.749 19.049-.361 4.698-.599 9.407-1.19 14.083-1.138 8.998-3.636 18.314-10.576 24.636-6.845 6.236-16.245 8.245-25.168 6.115-8.769-2.093-16.696-7.789-21.634-15.309-6.749-10.28-6.845-22.985-7.681-34.817a808 808 0 0 0-10.017-82.06 816 816 0 0 0-7.519-37.798c-1.221-5.455-2.569-11.113-5.081-16.136-.688-1.377-2.183-4.704-4.148-4.456-.959.121-1.793 1.277-2.274 1.982-1.63 2.39-2.118 5.441-2.349 8.264-.473 5.778-.467 11.656-.675 17.45a724 724 0 0 0-.436 20.735 783 783 0 0 0 3.733 82.142c1.298 13.224 3.23 26.268 5.273 39.389 1.807 11.598 3.181 24.017-.729 35.355-3.041 8.815-9.205 16.637-17.414 21.169-8.601 4.748-18.967 5.413-28.22 2.212-8.993-3.11-16.464-9.569-21.596-17.502-6.082-9.4-8.142-20.713-9.821-31.604-1.977-12.826-3.051-25.778-4.76-38.641l-5.483-41.278-10.945-82.393-2.72-20.475c-.863-6.498-1.848-12.949-2.128-19.502-.123-2.877-.299-5.792-1.22-8.543-.212-.636-1.694-4.996-2.875-4.855-.399.047-.941 1.352-1.083 1.657-.709 1.519-1.111 3.206-1.477 4.834-.784 3.488-1.162 7.02-1.511 10.573a774 774 0 0 0-1.719 20.177 731 731 0 0 0-1.805 41.39c-.422 27.55.652 55.128 3.138 82.568a762 762 0 0 0 4.713 40.329c1.547 10.7 3.225 21.824.661 32.507-2.369 9.866-8.732 18.631-17.846 23.264-8.695 4.42-19.077 4.894-28.143 1.289-9.381-3.731-16.715-11.167-20.83-20.325-3.961-8.817-5.235-18.46-6.461-27.959-7.083-54.919-14.144-109.84-21.216-164.76l-2.553-19.821c-.822-6.385-.918-13.318-3.035-19.425h2.73c-1.824 4.454-2.57 9.277-3.292 14.009-.829 5.435-1.711 10.863-2.477 16.307a461 461 0 0 0-3.612 35.911c-1.469 23.835-1.072 47.768 1.082 71.549a489 489 0 0 0 4.513 35.363c1.277 7.751 2.763 15.658 2.173 23.547-.567 7.587-3.364 14.806-9.306 19.788-6.549 5.491-15.032 7.771-23.399 5.835-8.013-1.854-15.062-7.081-20.036-13.519-2.717-3.517-4.565-7.36-6.218-11.463-2.173-5.396-4.143-10.871-6.004-16.381-7.505-22.213-14.183-44.733-20.516-67.304-6.452-22.999-12.69-46.053-19.646-68.907-1.292-4.244-2.871-8.34-1.821-12.818a12.83 12.83 0 0 1 6.469-8.378c6.511-3.428 15.713-1.378 20 4.675 1.208 1.706 1.729 3.687 2.333 5.661q1.385 4.534 2.736 9.081a1657 1657 0 0 1 5.052 17.368c3.306 11.587 6.517 23.202 9.75 34.809 6.37 22.868 12.982 45.652 20.55 68.156 1.715 5.103 3.222 10.203 4.652 15.391.671 2.436 1.391 4.865 2.315 7.218.349.891.738 2.577 1.735 3.012.844.367 1.768-.084 2.16-.877.524-1.059-.027-2.554-.229-3.643a91 91 0 0 0-.84-3.927c-.596-2.564-1.214-5.11-1.635-7.71a472 472 0 0 1-2.468-17.405c-2.951-23.766-4.147-47.747-3.657-71.689.479-23.354 2.849-46.479 6.322-69.561 2.383-15.842 5.253-35.834 22.426-42.397 7.276-2.782 15.5-1.536 22.135 2.334 7.376 4.304 12.326 11.375 14.654 19.509 1.421 4.968 1.987 10.127 2.631 15.238.749 5.936 1.527 11.869 2.291 17.803l4.579 35.564 9.298 72.2 4.654 36.143c1.377 10.695 3.005 21.391 4.115 32.117.487 4.703 2.219 29.47 11.541 24.144 3.192-1.824 4.043-6.539 4.311-9.883.436-5.443-.365-10.943-1.252-16.3-1.9-11.476-3.373-22.98-4.565-34.552a791 791 0 0 1-4.115-71.712c-.28-23.717.978-47.305 2.096-70.981.502-10.629.994-21.39 3.61-31.752 2.136-8.459 5.895-16.081 13.127-21.283 14.278-10.271 34.027-4.041 43.185 10.028 4.246 6.523 6.217 14.24 7.497 21.831 1.681 9.969 2.773 20.056 4.104 30.076l9.596 72.237 9.423 70.941c1.534 11.546 2.958 23.101 4.404 34.657.646 5.155 1.581 10.409 3.76 15.165 1.553 3.388 4.6 8.478 9.066 7.638 4.589-.864 6.715-7.115 7.168-11.079.597-5.219-.402-10.498-1.158-15.646-1.712-11.649-3.342-23.308-4.632-35.012a785 785 0 0 1-4.615-72.277 786 786 0 0 1 .206-36.137c.17-5.937.408-11.871.668-17.805.236-5.366.546-10.771 1.722-16.028 1.916-8.564 6.441-16.142 13.75-21.139 6.679-4.565 14.94-6.325 22.91-5.078 8.317 1.302 16.101 5.934 21.418 12.428 5.033 6.146 7.97 13.63 10.068 21.216 2.595 9.38 4.459 19.009 6.384 28.543a822 822 0 0 1 6.312 35.185c3.683 23.455 6.3 47.047 7.941 70.731a463 463 0 0 1 .646 10.906c.131 2.874.279 5.987 1.362 8.689.659 1.644 2.255 3.373 3.444 1.246 1.26-2.255 1.465-5.296 1.702-7.81.507-5.376.203-10.77.577-16.144.82-11.764 2.19-23.518 3.284-35.261 1.097-11.776 2.095-23.562 3.202-35.337.846-8.992 1.502-18.676 7.935-25.677 6.243-6.796 16.437-8.514 24.891-5.219 8.298 3.234 13.512 10.561 16.231 18.788 1.673 5.062 2.601 10.417 3.595 15.644 1.102 5.791 2.047 11.611 2.953 17.436.901 5.79 1.843 11.577 2.688 17.375.68 4.674.829 9.619-1.334 13.954C20.949 18.988 2.175 11.294 0 0c-.343-1.78 2.386-2.543 2.73-.753 1.202 6.242 7.684 10.858 13.917 10.854 3.253-.002 6.178-1.511 7.765-4.405 2.662-4.853 1.518-10.688.708-15.859-1.781-11.368-3.374-22.772-5.631-34.059-1.84-9.199-3.696-19.251-11.101-25.766-7.402-6.513-19.391-7.404-26.956-.654-7.572 6.757-7.82 17.785-8.665 27.141-1.051 11.645-2.082 23.29-3.166 34.933-1.046 11.225-2.431 22.476-3.137 33.727-.333 5.318-.063 10.648-.565 15.965-.321 3.408-.651 11.077-5.259 11.658-5.73.722-6.503-7.951-6.794-11.787-.644-8.486-1.002-16.998-1.696-25.487-1.928-23.584-5.012-47.086-9.057-70.398a823 823 0 0 0-6.7-34.283c-1.742-8.008-3.325-16.156-6.229-23.844-2.917-7.725-7.526-14.873-14.572-19.415-7.469-4.815-16.649-6.52-25.225-3.933-7.933 2.393-14.605 8.239-18.049 15.773-4.609 10.085-4.09 22.041-4.491 32.883-1.744 47.19.681 94.43 7.348 141.179.764 5.359 1.657 10.708 2.313 16.081.567 4.649.842 9.578-.629 14.099-1.145 3.522-3.423 7.248-6.936 8.796-3.306 1.458-6.858.214-9.384-2.146-6.461-6.039-7.715-16.585-8.651-24.836-1.288-11.36-2.842-22.684-4.348-34.018l-18.734-141.033c-1.336-10.056-2.43-20.179-4.117-30.184-1.272-7.541-3.189-15.196-7.517-21.616-4.859-7.206-13.107-12.419-21.809-13.271-8.449-.827-16.591 2.835-22.048 9.241-6.333 7.433-8.101 18.118-9.186 27.518-1.222 10.599-1.415 21.322-2.035 31.968-1.381 23.738-1.773 47.537-1.077 71.305a792 792 0 0 0 5.265 70.838c.678 5.671 1.395 11.332 2.357 16.962.92 5.384 1.91 10.796 2.101 16.267.212 6.076-.503 16.124-7.845 17.903-10.912 2.645-12.624-16.889-13.358-23.605-2.158-19.752-4.953-39.447-7.491-59.154-6.042-46.919-12.185-93.827-18.116-140.76-1.224-9.686-3.193-19.408-10.627-26.325-5.783-5.381-14.043-8.443-21.906-6.655-18.553 4.22-21.201 26.424-23.554 41.919-6.999 46.089-8.25 92.74-2.581 139.059.751 6.13 1.564 12.268 2.609 18.355.808 4.706 2.884 9.63 2.853 14.433-.02 2.903-2.876 5.231-5.731 4.445-1.413-.388-2.263-1.409-2.894-2.663-1.121-2.231-1.883-4.692-2.6-7.076-1.523-5.059-2.75-10.172-4.449-15.18a1062 1062 0 0 1-5.235-15.833c-3.584-11.135-6.959-22.337-10.191-33.579-6.538-22.74-12.623-45.609-19.275-68.317-1.65-5.631-3.125-11.393-5.081-16.926-1.405-3.974-5.22-6.368-9.22-7.177-3.924-.793-8.256.125-11.026 3.164-3.017 3.311-2.993 7.703-1.767 11.75 13.458 44.426 24.915 89.41 39.199 133.591 1.748 5.406 3.562 10.791 5.532 16.12 1.765 4.774 3.439 9.738 6.094 14.105 4.4 7.242 11.473 13.284 19.717 15.579 8.632 2.402 17.803-.312 23.936-6.83 5.426-5.766 6.701-13.718 6.423-21.356-.315-8.622-2.223-17.146-3.477-25.66a496 496 0 0 1-3.897-34.924c-1.766-23.365-1.814-46.85-.077-70.218a473 473 0 0 1 3.55-32.414c.739-5.121 1.554-10.232 2.348-15.345.698-4.495 1.449-9.06 3.182-13.291.524-1.279 2.245-1.4 2.73 0 2.018 5.82 2.131 12.37 2.915 18.453l2.663 20.683 5.306 41.202 10.497 81.517 5.193 40.329c1.288 9.996 2.358 20.41 6.659 29.657 4.462 9.592 12.699 17.202 23.078 19.833 9.492 2.405 19.907.191 27.465-6.083 8.853-7.351 12.131-18.504 12.059-29.666-.074-11.557-2.519-23.094-3.932-34.536a792 792 0 0 1-5.829-81.567 750 750 0 0 1 2.904-82.425c.656-7.235.743-15.641 3.793-22.41.875-1.941 2.569-4.137 4.954-3.057 3.294 1.491 4.645 7.026 5.133 10.12.397 2.519.471 5.065.577 7.608.14 3.37.593 6.677 1.036 10.017l2.607 19.623 5.453 41.046 10.852 81.696c1.753 13.196 3.185 26.42 4.844 39.625.815 6.492 1.807 12.969 3.232 19.358 1.163 5.218 2.531 10.37 4.98 15.148 4.494 8.765 11.852 16.332 21.143 19.924 9.427 3.644 20.098 2.975 28.723-2.404 8.417-5.249 14.011-14.107 15.977-23.739 2.568-12.572-.138-25.615-2.212-38.052-4.369-26.201-6.142-53.034-7.086-79.557a782 782 0 0 1-.394-40.247c.111-6.926.317-13.85.643-20.769.24-5.098-.111-10.404 1.115-15.398.725-2.954 2.457-7.035 5.699-8.027 2.175-.665 4.114.611 5.459 2.234 3.674 4.431 5.218 10.88 6.602 16.339 2.36 9.306 4.16 18.779 5.969 28.202a819 819 0 0 1 6.624 39.751 808 808 0 0 1 4.693 40.289c.62 6.848 1.101 13.708 1.578 20.567.437 6.28.762 12.591 2.432 18.694 2.738 10 9.375 18.208 18.878 22.502 8.858 4.002 19.427 3.65 27.127-2.679 7.508-6.172 9.86-15.972 10.869-25.21 1.23-11.269 1.916-22.626 2.968-33.917C-7.04-1.62-5.728-14.486-4.671-27.369c.12-1.466 2.513-2.066 2.781-.377C-.46-18.732 1.189-9.748 2.73-.753 3.036 1.03.308 1.795 0 0" clip-path="url(#z)" style="fill:#000;fill-opacity:1;fill-rule:nonzero;stroke:none" transform="matrix(1.33333 0 0 -1.33333 974.49 695.735)"/><path d="M0 0c4.575-24.906-11.074-48.965-34.953-53.737s-46.945 11.55-51.52 36.456S-75.4 31.684-51.521 36.456-4.575 24.906 0 0" clip-path="url(#A)" style="fill:#fffbe9;fill-opacity:1;fill-rule:nonzero;stroke:none" transform="matrix(1.33333 0 0 -1.33333 689.583 533.969)"/><path d="M0 0c3.21-17.849-4.514-36.872-20.081-46.519-7.665-4.75-16.758-6.912-25.741-6.072-8.556.799-16.797 4.454-23.268 10.084-13.975 12.159-18.885 32.323-12.746 49.701 6.022 17.048 22.294 29.294 40.562 29.048C-23.323 36-7.482 23.59-1.76 6.768A49 49 0 0 0 0 0c.336-1.789 3.065-1.031 2.73.753-3.514 18.733-18.237 34.54-37.304 37.706a44.4 44.4 0 0 1-27.893-4.52c-8.206-4.329-14.957-11.268-19.26-19.47-9.136-17.415-6.795-39.443 6.063-54.381 6.042-7.018 14.256-12.174 23.255-14.405 9.283-2.303 19.143-1.429 27.925 2.325C-6.766-44.417 4.233-25.657 3.544-6.591A52 52 0 0 1 2.73.753C2.408 2.543-.321 1.785 0 0" clip-path="url(#B)" style="fill:#000;fill-opacity:1;fill-rule:nonzero;stroke:none" transform="matrix(1.33333 0 0 -1.33333 687.763 534.47)"/><path d="M0 0c-1.544 7.277-2.878 16.474 3.746 21.367 4.752 3.511 11.497 3.701 16.163-.075 4.393-3.554 6.243-9.477 7.704-15.073a316 316 0 0 0 4.771-21.249c1.095-5.807 2.015-11.897.39-17.567-1.626-5.669-6.554-10.744-12.218-10.404-4.248.254-7.921 3.462-10.04 7.311S7.56-27.392 6.755-23.035l12.097 9.48-14.521 1.823C1.544-11.382.62-2.863.162-.753z" clip-path="url(#C)" style="fill:#000;fill-opacity:1;fill-rule:nonzero;stroke:none" transform="matrix(1.33333 0 0 -1.33333 627.657 561.768)"/><path d="M0 0c-1.357 6.435-2.946 15.462 3.363 19.893 3.309 2.324 7.704 2.97 11.479 1.432 3.848-1.568 6.252-5.309 7.729-9.024 1.716-4.318 2.715-8.943 3.79-13.451a306 306 0 0 0 3.259-15.367c1.511-8.184 2.605-19.803-6.195-24.436-4.148-2.184-8.545-.229-11.368 3.122-3.439 4.082-4.361 9.713-5.302 14.796l-.386-1.459 12.097 9.48c1.161.909.047 2.422-1.06 2.561l-9.681 1.215-2.42.304c-.682.085-1.526.051-2.175.278-.239.083-.566.557-.819 1.05C.819-6.699.674-3.154 0 0c-.403 1.887-3.296 1.089-2.893-.798.763-3.572.899-7.752 2.942-10.894 1.451-2.232 3.798-2.059 6.224-2.364l11.133-1.397-1.061 2.56-12.097-9.48c-.432-.338-.476-.972-.386-1.459.964-5.209 2.001-10.737 5.249-15.077 2.734-3.653 6.968-6.48 11.707-5.931 4.419.512 8.073 3.662 10.239 7.414 2.692 4.661 2.969 10.264 2.401 15.499-.641 5.908-1.977 11.774-3.277 17.566-1.215 5.413-2.376 10.95-4.238 16.185-1.558 4.379-3.904 8.714-7.957 11.243-3.897 2.432-8.939 2.707-13.165.995-4.63-1.876-7.81-5.76-8.678-10.683-.832-4.722-.013-9.542.964-14.177C-2.495-2.685.398-1.887 0 0" clip-path="url(#D)" style="fill:#000;fill-opacity:1;fill-rule:nonzero;stroke:none" transform="matrix(1.33333 0 0 -1.33333 629.585 561.236)"/><path d="M0 0c3.538-19.261-8.564-37.866-27.03-41.556-18.466-3.691-36.305 8.932-39.843 28.192-3.538 19.261 8.564 37.866 27.03 41.557C-21.376 31.883-3.538 19.261 0 0" clip-path="url(#E)" style="fill:#fffbe9;fill-opacity:1;fill-rule:nonzero;stroke:none" transform="matrix(1.33333 0 0 -1.33333 769.753 527.921)"/><path d="M0 0c2.439-13.647-3.448-28.183-15.334-35.583-11.752-7.316-27.138-6.052-37.572 3.034C-63.629-23.211-67.38-7.76-62.663 5.577c4.609 13.033 17.053 22.379 31.012 22.215C-17.89 27.63-5.725 18.101-1.35 5.203A38 38 0 0 0 0 0c.337-1.788 3.067-1.031 2.73.753-2.759 14.621-14.277 26.978-29.181 29.401-14.981 2.436-29.832-5.471-36.787-18.848-7.061-13.581-5.2-30.705 4.817-42.324 9.802-11.369 26.04-15.317 39.884-9.412C-4.688-34.523 3.916-19.881 3.37-4.978A41 41 0 0 1 2.73.753C2.41 2.543-.319 1.785 0 0" clip-path="url(#F)" style="fill:#000;fill-opacity:1;fill-rule:nonzero;stroke:none" transform="matrix(1.33333 0 0 -1.33333 767.933 528.423)"/><path d="M0 0c-.508 5.807-.67 13.083 4.936 16.197 4.022 2.234 9.274 1.685 12.537-1.727 3.073-3.213 3.946-8.001 4.549-12.495a248 248 0 0 0 1.685-16.985c.299-4.62.435-9.442-1.365-13.674-1.8-4.233-6.106-7.662-10.47-6.814-3.273.637-5.819 3.506-7.098 6.712s-1.507 6.745-1.718 10.211l10.289 6.108L2.248-9.553C.118-8.993.209-2.286.054-.601z" clip-path="url(#G)" style="fill:#000;fill-opacity:1;fill-rule:nonzero;stroke:none" transform="matrix(1.33333 0 0 -1.33333 698.47 552.788)"/><path d="M0 0c-.413 4.803-.963 11.658 3.756 14.642 2.468 1.56 5.689 1.844 8.381.696 3.02-1.287 4.727-4.201 5.648-7.219 1.034-3.393 1.374-6.99 1.782-10.499q.718-6.179 1.124-12.387c.422-6.443.698-15.529-6.28-18.749-3.247-1.499-6.526.08-8.448 2.866-2.421 3.508-2.655 7.959-2.907 12.075l-.743-1.296 10.289 6.109c1.096.65.902 2.41-.358 2.741l-7.72 2.028c-.901.236-2.768.489-3.302.852-.032.022-.28.473-.382.76C.008-5.059.215-2.425 0 0c-.169 1.908-3.171 1.926-3 0 .26-2.931.027-6.132 1.22-8.883.841-1.939 2.395-2.186 4.3-2.686l8.926-2.345-.358 2.742L.799-17.28c-.434-.258-.775-.775-.743-1.295.263-4.293.557-8.817 2.726-12.643 1.795-3.166 4.89-5.748 8.649-5.903 3.73-.154 7.082 2.193 9.212 5.082 2.536 3.44 3.204 7.897 3.241 12.07.043 4.728-.467 9.497-.947 14.195-.442 4.323-.816 8.75-1.807 12.99-.864 3.698-2.498 7.34-5.638 9.639-2.916 2.135-6.852 2.703-10.299 1.689-3.716-1.094-6.395-3.838-7.567-7.501C-3.506 7.507-3.313 3.647-3 0c.164-1.909 3.165-1.927 3 0" clip-path="url(#H)" style="fill:#000;fill-opacity:1;fill-rule:nonzero;stroke:none" transform="matrix(1.33333 0 0 -1.33333 700.47 552.788)"/><path d="M0 0c-7.394-.742-11.514-9.578-11.909-16.477-.776-13.537 11.086-23.127 22.688-25.815 21.267-4.929 61.951 5.589 60.476 35.019C70.843.935 64.656 8.934 56.793 9.484c-11.87.831-18.577-11.657-28.743-15.627C18.836-9.741 8.851.888 0 0" clip-path="url(#I)" style="fill:#f52855;fill-opacity:1;fill-rule:nonzero;stroke:none" transform="matrix(1.33333 0 0 -1.33333 644.271 585.424)"/><path d="M0 0c-8.401-.98-12.756-9.973-13.306-17.596-.646-8.954 4.348-16.901 11.448-21.962 11.547-8.23 27.223-7.903 40.463-4.718 12.542 3.017 26.155 9.855 31.628 22.259 3.016 6.838 3.599 15.159.059 21.913-1.987 3.793-5.194 7.003-9.194 8.613-3.782 1.523-8.143 1.246-11.892-.242-7.622-3.025-12.658-9.983-19.862-13.692-1.768-.91-3.578-1.492-5.582-1.461-2.036.032-4.024.601-5.926 1.289C13.754-4.12 9.958-1.893 5.776-.685 3.907-.145 1.947.167 0 0c-1.802-.154-1.818-2.987 0-2.831 3.833.327 7.493-1.351 10.91-2.882 3.663-1.641 7.371-3.437 11.405-3.904 7.864-.908 14.097 5.516 19.703 10.058 2.828 2.29 5.882 4.546 9.407 5.61 3.736 1.128 7.671.765 10.969-1.385 6.652-4.335 8.477-12.791 6.979-20.161C66.846-27.92 55.57-35.723 44.276-39.663a68.3 68.3 0 0 0-18.741-3.697c-5.894-.322-11.975.021-17.599 1.939C.539-38.898-6.6-33.468-9.331-25.924c-2.479 6.852-1.11 16.315 4.807 21.123C-3.233-3.752-1.659-3.025 0-2.831 1.788-2.623 1.809.211 0 0" clip-path="url(#J)" style="fill:#000;fill-opacity:1;fill-rule:nonzero;stroke:none" transform="matrix(1.33333 0 0 -1.33333 644.271 583.536)"/><path d="M0 0c-2.03 4.717-.51 11.052 3.623 14.169.61.46.926 1.222.508 1.937-.351.601-1.322.971-1.937.508-5.481-4.134-7.335-11.78-4.639-18.043.302-.703 1.335-.86 1.937-.508C.218-1.512.303-.705 0 0" clip-path="url(#K)" style="fill:#000;fill-opacity:1;fill-rule:nonzero;stroke:none" transform="matrix(1.33333 0 0 -1.33333 646.784 619.513)"/><path d="M0 0c13.895-8.907 31.833-9.274 46.021-.823a45.7 45.7 0 0 1 10.252 8.352c1.231 1.34-.766 3.347-2.002 2.002C44.002-1.649 28.378-6.715 13.581-2.89 9.259-1.773 5.185.037 1.429 2.445-.11 3.431-1.531.981 0 0" clip-path="url(#L)" style="fill:#000;fill-opacity:1;fill-rule:nonzero;stroke:none" transform="matrix(1.33333 0 0 -1.33333 644.86 611.297)"/><path d="M0 0c4.662-1.322 8.014-5.997 8.152-10.792.052-1.818 2.884-1.825 2.831 0C10.808-4.724 6.665 1.054.753 2.73-1.003 3.228-1.753.497 0 0" clip-path="url(#M)" style="fill:#000;fill-opacity:1;fill-rule:nonzero;stroke:none" transform="matrix(1.33333 0 0 -1.33333 710.891 595.3)"/></svg>