<svg xmlns="http://www.w3.org/2000/svg" width="1440" height="1440" viewBox="0 0 1440 1440"><defs><clipPath id="a" clipPathUnits="userSpaceOnUse"><path d="M-617.027 779.863h1080v-1080h-1080Z"/></clipPath><clipPath id="b" clipPathUnits="userSpaceOnUse"><path d="M-617.027 778.294h1080v-1080h-1080Z"/></clipPath><clipPath id="c" clipPathUnits="userSpaceOnUse"><path d="M-844.978 531.927h1080v-1080h-1080Z"/></clipPath><clipPath id="d" clipPathUnits="userSpaceOnUse"><path d="M-843.388 531.927h1080v-1080h-1080Z"/></clipPath><clipPath id="e" clipPathUnits="userSpaceOnUse"><path d="M-700.173 407.887h1080v-1080h-1080Z"/></clipPath><clipPath id="f" clipPathUnits="userSpaceOnUse"><path d="M-700.173 406.387h1080v-1080h-1080Z"/></clipPath><clipPath id="g" clipPathUnits="userSpaceOnUse"><path d="M-698.467 719.887h1080v-1080h-1080Z"/></clipPath><clipPath id="h" clipPathUnits="userSpaceOnUse"><path d="M-698.467 718.387h1080v-1080h-1080Z"/></clipPath><clipPath id="i" clipPathUnits="userSpaceOnUse"><path d="M-705.459 462.884h1080v-1080h-1080Z"/></clipPath><clipPath id="j" clipPathUnits="userSpaceOnUse"><path d="M-715.892 431.78h1080v-1080h-1080Z"/></clipPath><clipPath id="k" clipPathUnits="userSpaceOnUse"><path d="M-602.189 565.942h1080v-1080h-1080Z"/></clipPath><clipPath id="l" clipPathUnits="userSpaceOnUse"><path d="M-696.145 571.959h1080v-1080h-1080Z"/></clipPath><clipPath id="m" clipPathUnits="userSpaceOnUse"><path d="M-791.018 578.384h1080v-1080h-1080Z"/></clipPath><clipPath id="n" clipPathUnits="userSpaceOnUse"><path d="M-629.73 393.24h1080v-1080h-1080Z"/></clipPath><clipPath id="o" clipPathUnits="userSpaceOnUse"><path d="M-655.422 391.838h1080v-1080h-1080Z"/></clipPath><clipPath id="p" clipPathUnits="userSpaceOnUse"><path d="M-681.093 390.75h1080v-1080h-1080Z"/></clipPath><clipPath id="q" clipPathUnits="userSpaceOnUse"><path d="M-702.725 392.968h1080v-1080h-1080Z"/></clipPath><clipPath id="r" clipPathUnits="userSpaceOnUse"><path d="M-621.896 705.673h1080v-1080h-1080Z"/></clipPath><clipPath id="s" clipPathUnits="userSpaceOnUse"><path d="M-645.725 704.333h1080v-1080h-1080Z"/></clipPath><clipPath id="t" clipPathUnits="userSpaceOnUse"><path d="M-671.248 704.333h1080v-1080h-1080Z"/></clipPath><clipPath id="u" clipPathUnits="userSpaceOnUse"><path d="M-696.772 704.333h1080v-1080h-1080Z"/></clipPath><clipPath id="v" clipPathUnits="userSpaceOnUse"><path d="M-436.364 727.782h1080v-1080h-1080Z"/></clipPath><clipPath id="w" clipPathUnits="userSpaceOnUse"><path d="M-437.66 727.025h1080v-1080h-1080Z"/></clipPath><clipPath id="x" clipPathUnits="userSpaceOnUse"><path d="M-386.21 324.72h1080v-1080h-1080Z"/></clipPath><clipPath id="y" clipPathUnits="userSpaceOnUse"><path d="M-385.81 323.273h1080v-1080h-1080Z"/></clipPath><clipPath id="z" clipPathUnits="userSpaceOnUse"><path d="M-442.956 768.035h1080v-1080h-1080Z"/></clipPath><clipPath id="A" clipPathUnits="userSpaceOnUse"><path d="M-444.016 769.096h1080v-1080h-1080Z"/></clipPath><clipPath id="B" clipPathUnits="userSpaceOnUse"><path d="M-305.083 673.334h1080v-1080h-1080Z"/></clipPath><clipPath id="C" clipPathUnits="userSpaceOnUse"><path d="M-306.53 672.935h1080v-1080h-1080Z"/></clipPath><clipPath id="D" clipPathUnits="userSpaceOnUse"><path d="M-278.493 752.756h1080v-1080h-1080Z"/></clipPath><clipPath id="E" clipPathUnits="userSpaceOnUse"><path d="M-279.788 752h1080V-328h-1080Z"/></clipPath><clipPath id="F" clipPathUnits="userSpaceOnUse"><path d="M-354.91 582.456h1080v-1080h-1080Z"/></clipPath><clipPath id="G" clipPathUnits="userSpaceOnUse"><path d="M-355.668 583.751h1080v-1080h-1080Z"/></clipPath><clipPath id="H" clipPathUnits="userSpaceOnUse"><path d="M-317.939 394.094h1080v-1080h-1080Z"/></clipPath><clipPath id="I" clipPathUnits="userSpaceOnUse"><path d="M-459.756 533.9h1080v-1080h-1080Z"/></clipPath><clipPath id="J" clipPathUnits="userSpaceOnUse"><path d="M-491.06 495.04h1080v-1080h-1080Z"/></clipPath><clipPath id="K" clipPathUnits="userSpaceOnUse"><path d="M-492.12 493.98h1080v-1080h-1080Z"/></clipPath><clipPath id="L" clipPathUnits="userSpaceOnUse"><path d="M-434.688 439.808h1080v-1080h-1080Z"/></clipPath><clipPath id="M" clipPathUnits="userSpaceOnUse"><path d="M-435.749 440.869h1080v-1080h-1080Z"/></clipPath><clipPath id="N" clipPathUnits="userSpaceOnUse"><path d="M-397.142 438.047h1080v-1080h-1080Z"/></clipPath><clipPath id="O" clipPathUnits="userSpaceOnUse"><path d="M-398.203 439.107h1080v-1080h-1080Z"/></clipPath><clipPath id="P" clipPathUnits="userSpaceOnUse"><path d="M-390.305 469.073h1080v-1080h-1080Z"/></clipPath><clipPath id="Q" clipPathUnits="userSpaceOnUse"><path d="M-402.428 383.808h1080v-1080h-1080Z"/></clipPath><clipPath id="R" clipPathUnits="userSpaceOnUse"><path d="M-403.928 383.808h1080v-1080h-1080Z"/></clipPath><clipPath id="S" clipPathUnits="userSpaceOnUse"><path d="M-356.609 390.491h1080v-1080h-1080Z"/></clipPath><clipPath id="T" clipPathUnits="userSpaceOnUse"><path d="M-357.904 389.734h1080v-1080h-1080Z"/></clipPath><clipPath id="U" clipPathUnits="userSpaceOnUse"><path d="M-5.352 57.962c-1.343-5.396-.983-10.753.678-15.403-3.396-3.285-6.019-7.669-7.298-12.807C-15.239 16.622-8.564 3.66 2.938.797s23.476 5.46 26.743 18.588c1.343 5.397.983 10.754-.678 15.404 3.396 3.284 6.02 7.67 7.298 12.807 3.267 13.128-3.408 26.092-14.91 28.955-1.53.38-3.068.563-4.593.563-9.94 0-19.317-7.769-22.15-19.152"/></clipPath><clipPath id="V" clipPathUnits="userSpaceOnUse"><path d="M-6.647 57.205c-1.343-5.396-.983-10.753.678-15.403-3.396-3.285-6.02-7.669-7.298-12.807C-16.534 15.865-9.86 2.903 1.643.04S25.119 5.5 28.386 18.628c1.343 5.397.983 10.754-.678 15.404 3.396 3.284 6.019 7.67 7.298 12.807 3.267 13.128-3.408 26.092-14.91 28.955-1.53.38-3.068.563-4.593.563-9.94 0-19.317-7.769-22.15-19.152"/></clipPath><clipPath id="W" clipPathUnits="userSpaceOnUse"><path d="M-4.75 59.174c-1.342-5.397-.982-10.753.679-15.405-3.395-3.283-6.02-7.668-7.298-12.806C-14.636 17.834-7.961 4.87 3.54 2.008s23.476 5.46 26.743 18.588c1.343 5.398.984 10.754-.678 15.405 3.396 3.283 6.019 7.668 7.298 12.807 3.267 13.128-3.407 26.092-14.91 28.954a19 19 0 0 1-4.592.564c-9.94.001-19.317-7.769-22.15-19.152"/></clipPath><clipPath id="X" clipPathUnits="userSpaceOnUse"><path d="M-6.045 58.417c-1.343-5.397-.983-10.753.678-15.405-3.395-3.283-6.019-7.668-7.298-12.806-3.267-13.13 3.408-26.093 14.91-28.955s23.476 5.46 26.743 18.588c1.343 5.398.984 10.754-.678 15.405 3.396 3.283 6.02 7.668 7.298 12.807 3.267 13.128-3.408 26.092-14.91 28.954a19 19 0 0 1-4.593.564c-9.94 0-19.317-7.77-22.15-19.152"/></clipPath><clipPath id="Y" clipPathUnits="userSpaceOnUse"><path d="M-266.937 378.97h1080v-1080h-1080Z"/></clipPath><clipPath id="Z" clipPathUnits="userSpaceOnUse"><path d="M-291.447 442.993h1080v-1080h-1080Z"/></clipPath><clipPath id="aa" clipPathUnits="userSpaceOnUse"><path d="M-249.645 499.688h1080v-1080h-1080Z"/></clipPath><clipPath id="ab" clipPathUnits="userSpaceOnUse"><path d="M-295.525 595.673h1080v-1080h-1080Z"/></clipPath><clipPath id="ac" clipPathUnits="userSpaceOnUse"><path d="M-277.16 670.956h1080v-1080h-1080Z"/></clipPath><clipPath id="ad" clipPathUnits="userSpaceOnUse"><path d="M-320.896 717.026h1080v-1080h-1080Z"/></clipPath><clipPath id="ae" clipPathUnits="userSpaceOnUse"><path d="M-472.13 363.776h1080v-1080h-1080Z"/></clipPath><clipPath id="af" clipPathUnits="userSpaceOnUse"><path d="M-454.472 458.57h1080v-1080h-1080Z"/></clipPath><clipPath id="ag" clipPathUnits="userSpaceOnUse"><path d="M-496.502 724.486h1080v-1080h-1080Z"/></clipPath></defs><path d="M0 0h1080v1080H0Z" style="fill:#fff;fill-opacity:1;fill-rule:nonzero;stroke:none" transform="matrix(1.33333 0 0 -1.33333 0 1440)"/><path d="M0 0c-66.226 0-128.488 25.79-175.317 72.619s-72.618 109.091-72.618 175.317 25.789 128.488 72.618 175.317S-66.226 495.871 0 495.871s128.489-25.789 175.318-72.618 72.619-109.091 72.619-175.317-25.79-128.489-72.619-175.317S66.226 0 0 0" clip-path="url(#a)" style="fill:#fffbe9;fill-opacity:1;fill-rule:nonzero;stroke:none" transform="matrix(1.33333 0 0 -1.33333 822.702 1039.817)"/><path d="M0 0c-50.522.08-100.232 15.54-141.577 44.658-41.43 29.179-73.622 71.124-90.599 118.903-16.938 47.667-18.744 100.407-5.205 149.145 13.477 48.519 42.176 92.024 80.974 124.053 38.956 32.161 87.571 51.618 137.945 55.302 50.427 3.687 101.425-8.067 144.83-34.088 43.395-26.016 78.433-65.462 98.991-111.702 20.482-46.07 26.102-98.408 16.38-147.847-9.756-49.611-35.053-95.283-71.566-130.211-36.466-34.884-83.23-57.962-133.145-65.478C24.775.89 12.388.02 0 0c-2.019-.003-2.023-3.141 0-3.138 51.302.081 101.912 15.836 143.808 45.543 41.615 29.507 73.885 71.536 91.131 119.583 17.359 48.359 19.217 102.06 5.47 151.552-13.683 49.258-42.898 93.547-82.398 125.945-39.536 32.428-88.552 51.985-139.549 55.714-50.942 3.725-102.571-8.233-146.413-34.517-44.044-26.404-79.714-66.532-100.434-113.544-20.593-46.723-26.227-99.468-16.379-149.548 9.853-50.102 35.503-96.327 72.373-131.596C-135.369 30.578-87.794 7.064-37.078-.408A257 257 0 0 1 0-3.138C2.019-3.141 2.023-.003 0 0" clip-path="url(#b)" style="fill:#000;fill-opacity:1;fill-rule:nonzero;stroke:none" transform="matrix(1.33333 0 0 -1.33333 822.702 1037.725)"/><path d="M0 0c0-125.894-102.057-227.951-227.951-227.951S-455.901-125.894-455.901 0s102.057 227.951 227.95 227.951C-102.057 227.951 0 125.894 0 0" clip-path="url(#c)" style="fill:#23a155;fill-opacity:1;fill-rule:nonzero;stroke:none" transform="matrix(1.33333 0 0 -1.33333 1126.637 709.236)"/><path d="M0 0c-.033-23.77-3.704-47.445-11.049-70.06-7.051-21.707-17.445-42.284-30.649-60.897a227.3 227.3 0 0 0-47.199-48.914c-18.078-13.822-38.242-24.937-59.616-32.754a226.3 226.3 0 0 0-69.186-13.574c-23.769-.888-47.626 1.907-70.514 8.393-22.12 6.268-43.216 15.948-62.425 28.579-18.875 12.412-35.852 27.667-50.258 45.066-14.579 17.607-26.508 37.483-35.131 58.657-8.815 21.643-14.253 44.643-16.028 67.946-1.821 23.906.081 48.08 5.77 71.375a225.7 225.7 0 0 0 26.212 63.357c11.769 19.42 26.46 37.019 43.429 52.107a227.2 227.2 0 0 0 56.811 36.949 224.6 224.6 0 0 0 67.424 18.659c23.769 2.701 47.971 1.706 71.414-3.072a225.5 225.5 0 0 0 64.793-24.022 227.7 227.7 0 0 0 53.452-41.364 227.4 227.4 0 0 0 39.11-55.595C-13.306 80.123-6.236 57.818-2.671 34.948-.869 23.39-.016 11.695 0 0c.003-2.046 3.183-2.05 3.18 0C3.147 24.033-.556 48.039-7.983 70.905a229 229 0 0 1-31.142 61.901 232 232 0 0 1-47.692 49.447 229.4 229.4 0 0 1-60.565 33.333c-22.422 8.231-46.134 12.854-69.997 13.781-24.136.937-48.437-1.908-71.679-8.494a228.7 228.7 0 0 1-63.185-28.901c-19.264-12.667-36.623-28.225-51.282-46.023a230.7 230.7 0 0 1-35.339-59.038c-9.021-21.981-14.507-45.351-16.347-69.037-1.877-24.177.068-48.668 5.787-72.237 5.498-22.661 14.52-44.474 26.605-64.415a230.8 230.8 0 0 1 44.149-52.95c17.247-15.295 36.773-28.007 57.783-37.498a229.5 229.5 0 0 1 67.853-18.77c24.15-2.818 48.751-1.774 72.58 3.051 22.939 4.645 45.145 12.876 65.595 24.258a230.6 230.6 0 0 1 54.564 42.223c15.887 16.65 29.285 35.687 39.535 56.294C-10.281-81.102-3.068-58.437.491-35.176A235 235 0 0 1 3.18 0C3.183 2.046.003 2.049 0 0" clip-path="url(#d)" style="fill:#000;fill-opacity:1;fill-rule:nonzero;stroke:none" transform="matrix(1.33333 0 0 -1.33333 1124.517 709.236)"/><path d="M0 0h-84.622c-15.65 0-28.336 12.687-28.336 28.337s12.686 28.336 28.336 28.336H0c15.65 0 28.337-12.686 28.337-28.336S15.65 0 0 0" clip-path="url(#e)" style="fill:#e8cd0e;fill-opacity:1;fill-rule:nonzero;stroke:none" transform="matrix(1.33333 0 0 -1.33333 933.564 543.85)"/><path d="M0 0h-81.254c-2.662 0-5.336-.082-7.969.387-8.122 1.446-15.217 6.586-19.108 13.863-3.898 7.29-4.181 16.347-.666 23.844 3.492 7.449 10.256 13.003 18.277 14.884 2.987.701 5.971.695 9.006.695h76.211c1.826 0 3.652.009 5.479 0a27.13 27.13 0 0 0 20.447-9.419c5.345-6.209 7.543-14.84 5.866-22.854-1.701-8.125-7.136-15.072-14.584-18.725C8.065.89 4.044.025 0 0c-1.93-.012-1.934-3.012 0-3C8.7-2.947 17.136.865 22.756 7.547c5.639 6.704 8.056 15.539 6.672 24.183-1.357 8.487-6.585 16.111-13.898 20.588-4.941 3.024-10.544 4.355-16.299 4.355h-61.319c-7.402 0-14.803.009-22.205 0-6.739-.008-13.256-2.122-18.597-6.26-6.87-5.323-11.106-13.495-11.534-22.173-.425-8.597 3.035-17.164 9.291-23.071C-99.562-.091-92.171-2.967-84.525-3c6.816-.029 13.633 0 20.449 0H0c1.93 0 1.934 3 0 3" clip-path="url(#f)" style="fill:#000;fill-opacity:1;fill-rule:nonzero;stroke:none" transform="matrix(1.33333 0 0 -1.33333 933.564 541.85)"/><path d="M0 0h-84.622c-15.65 0-28.336 12.687-28.336 28.337s12.686 28.336 28.336 28.336H0c15.65 0 28.337-12.686 28.337-28.336S15.65 0 0 0" clip-path="url(#g)" style="fill:#e8cd0e;fill-opacity:1;fill-rule:nonzero;stroke:none" transform="matrix(1.33333 0 0 -1.33333 931.289 959.85)"/><path d="M0 0h-81.254c-2.662 0-5.336-.082-7.969.387-8.122 1.446-15.217 6.586-19.108 13.863-3.898 7.29-4.181 16.347-.666 23.844 3.492 7.449 10.256 13.003 18.277 14.884 2.987.701 5.971.695 9.006.695h76.211c1.826 0 3.652.009 5.479 0a27.13 27.13 0 0 0 20.447-9.419c5.345-6.209 7.543-14.84 5.866-22.854-1.701-8.125-7.136-15.072-14.584-18.725C8.065.89 4.044.025 0 0c-1.93-.012-1.934-3.012 0-3C8.7-2.947 17.136.865 22.756 7.547c5.639 6.704 8.056 15.539 6.672 24.183-1.357 8.487-6.585 16.111-13.898 20.588-4.941 3.024-10.544 4.355-16.299 4.355h-61.319c-7.402 0-14.803.009-22.205 0-6.739-.008-13.256-2.122-18.597-6.26-6.87-5.323-11.106-13.495-11.534-22.173-.425-8.597 3.035-17.164 9.291-23.071C-99.562-.091-92.171-2.967-84.525-3c6.816-.029 13.633 0 20.449 0H0c1.93 0 1.934 3 0 3" clip-path="url(#h)" style="fill:#000;fill-opacity:1;fill-rule:nonzero;stroke:none" transform="matrix(1.33333 0 0 -1.33333 931.289 957.85)"/><path d="M84.175-.001 50.179 1.627l-.282-31.406H34.265L33.315 0H2.858l2.579-95.59 32.367 1.488-2.04 48.82h15.094l.13-52.488 31.007.82zm96.2-48q-.001 6.188-1.43 11.93-1.434 5.743-4.114 10.78a44.7 44.7 0 0 1-6.527 9.211 41.6 41.6 0 0 1-8.637 7.172q-4.794 2.989-10.441 4.664-5.64 1.665-11.954 1.664-6.13.001-11.671-1.558a44.4 44.4 0 0 1-10.36-4.395 41.8 41.8 0 0 1-8.742-6.797 42.6 42.6 0 0 1-6.656-8.836q-2.755-4.86-4.29-10.44-1.523-5.579-1.523-11.626 0-5.916 1.418-11.59a47 47 0 0 1 4.114-10.71 46.5 46.5 0 0 1 6.492-9.247 42.7 42.7 0 0 1 8.531-7.277 41 41 0 0 1 10.242-4.758c3.671-1.13 7.547-1.7 11.625-1.7q9.855 0 17.977 3.06 8.13 3.058 13.875 8.742 5.74 5.673 8.906 13.734 3.165 8.052 3.164 17.977m-30.188 1.77c0-1.952-.288-3.848-.856-5.685q-.845-2.75-2.484-4.886a12.7 12.7 0 0 0-4.043-3.469q-2.416-1.323-5.532-1.324-3.2 0-5.718 1.16a13 13 0 0 0-4.313 3.152q-1.804 2.005-2.754 4.7-.948 2.685-.949 5.671 0 2.85.809 5.707.818 2.862 2.449 5.168a12.9 12.9 0 0 0 4.043 3.739q2.413 1.431 5.613 1.43 3.199.001 5.742-1.255 2.555-1.263 4.313-3.398 1.768-2.144 2.719-4.934.959-2.787.96-5.777m111.58-51-.68 28.827-20.262.82-5.168 64.454-28.687 1.5.14-64.453-20.261 1.09.808-32.098zm0 0" aria-label="HOT" style="fill:#fffbe9;fill-opacity:1;fill-rule:nonzero;stroke:none" transform="translate(704.337 705.154)scale(1.33333)"/><path d="m0 0-31.002.816-.136-52.486h-15.093l2.04 48.815-32.363 1.495-2.583-95.589h30.458l.952 29.778h15.637l.272-31.41 33.994 1.632z" style="fill:none;stroke:#000;stroke-width:3;stroke-linecap:butt;stroke-linejoin:miter;stroke-miterlimit:10;stroke-dasharray:none;stroke-opacity:1" transform="matrix(1.33333 0 0 -1.33333 813.66 575.889)"/><path d="M0 0q-3.161 8.056-8.906 13.733t-13.869 8.736q-8.126 3.06-17.984 3.06-6.119-.001-11.625-1.7a41 41 0 0 1-10.232-4.759 42.8 42.8 0 0 1-8.532-7.275 46 46 0 0 1-6.494-9.246 47 47 0 0 1-4.112-10.708 47.3 47.3 0 0 1-1.428-11.591q0-6.052 1.53-11.626 1.529-5.576 4.283-10.436a42.3 42.3 0 0 1 6.663-8.838 41.6 41.6 0 0 1 8.735-6.799 44.2 44.2 0 0 1 10.368-4.385q5.542-1.564 11.661-1.564 6.321 0 11.965 1.666 5.643 1.665 10.436 4.657a41.6 41.6 0 0 1 8.635 7.173A44.7 44.7 0 0 1-2.38-40.69q2.685 5.03 4.113 10.775 1.429 5.746 1.428 11.932Q3.161-8.057 0 0Zm-27.977-25.529q-.953-2.788-2.719-4.929a12.95 12.95 0 0 0-4.318-3.4q-2.55-1.258-5.745-1.257-3.196 0-5.608 1.427a13 13 0 0 0-4.045 3.74q-1.632 2.31-2.448 5.167a20.7 20.7 0 0 0-.816 5.711q0 2.99.952 5.676.951 2.685 2.753 4.691a13.1 13.1 0 0 0 4.318 3.162q2.513 1.156 5.711 1.156 3.126 0 5.541-1.326a12.7 12.7 0 0 0 4.045-3.467q1.63-2.142 2.481-4.896.85-2.753.85-5.676 0-2.993-.952-5.779z" clip-path="url(#i)" style="fill:none;stroke:#000;stroke-width:3;stroke-linecap:butt;stroke-linejoin:miter;stroke-miterlimit:10;stroke-dasharray:none;stroke-opacity:1" transform="matrix(1.33333 0 0 -1.33333 940.612 617.18)"/><path d="m0 0-.815-32.089 20.259 1.087-.135-64.451 28.69 1.495 5.167 64.452 20.26.816.679 28.826z" clip-path="url(#j)" style="fill:none;stroke:#000;stroke-width:3;stroke-linecap:butt;stroke-linejoin:miter;stroke-miterlimit:10;stroke-dasharray:none;stroke-opacity:1" transform="matrix(1.33333 0 0 -1.33333 954.522 575.708)"/><path d="M80.495-53.99q0 9.529-2.45 17.18-2.437 7.643-6.831 13.594a45.8 45.8 0 0 1-10.442 10.23Q54.726-8.704 47.52-5.953 40.31-3.2 32.19-1.864 24.068-.538 15.503-.54q-3.2.001-6.258-.164a127 127 0 0 1-6.258-.516l1.91-91.242a85.5 85.5 0 0 1 15.399-3.363q7.92-.994 15.738-.996 9.726.001 17.883 2.93 8.155 2.918 14.074 8.425 5.916 5.51 9.211 13.465 3.292 7.958 3.293 18.012m-27.867 4.36a27.3 27.3 0 0 0-.797-7.078q-.843-3.397-2.777-6.012-1.936-2.61-4.934-4.207-2.988-1.605-7.137-1.746L34.265-26.52q4.076-.608 7.406-2.684a22.5 22.5 0 0 0 5.754-5.098 23.3 23.3 0 0 0 3.738-6.726 25.4 25.4 0 0 0 1.465-7.653zM174.318-48q0 6.188-1.43 11.929-1.432 5.744-4.113 10.781a44.7 44.7 0 0 1-6.527 9.21 41.6 41.6 0 0 1-8.637 7.173q-4.794 2.989-10.441 4.664-5.638 1.665-11.953 1.664-6.13 0-11.672-1.559a44.4 44.4 0 0 1-10.36-4.394 41.8 41.8 0 0 1-8.742-6.797 42.6 42.6 0 0 1-6.656-8.836q-2.756-4.86-4.289-10.441-1.524-5.578-1.523-11.625-.001-5.917 1.418-11.59a47 47 0 0 1 4.113-10.711 46.5 46.5 0 0 1 6.492-9.246 42.7 42.7 0 0 1 8.531-7.278 41 41 0 0 1 10.242-4.757q5.507-1.698 11.625-1.7 9.855 0 17.977 3.059 8.13 3.06 13.875 8.742 5.74 5.674 8.906 13.734 3.164 8.053 3.164 17.977m-30.187 1.769q-.001-2.928-.856-5.684-.844-2.751-2.484-4.887a12.7 12.7 0 0 0-4.043-3.468q-2.416-1.324-5.531-1.325-3.2 0-5.719 1.16a13 13 0 0 0-4.312 3.153q-1.807 2.004-2.754 4.699-.95 2.685-.95 5.672 0 2.849.809 5.707.818 2.86 2.45 5.168a12.9 12.9 0 0 0 4.042 3.738q2.413 1.431 5.613 1.43 3.198.002 5.743-1.254 2.553-1.265 4.312-3.398 1.768-2.144 2.719-4.934.96-2.787.96-5.777m122.76 32.355q-3.2 4.02-7.899 7.008A52.3 52.3 0 0 1 248.937-1.9a63.7 63.7 0 0 1-11.015 2.953q-5.64.984-10.746.984-9.857-.002-18.153-3.527-8.288-3.54-14.308-9.762-6.012-6.222-9.422-14.648-3.4-8.436-3.399-18.164 0-7.406 1.7-14.508 1.71-7.103 4.863-13.395a56 56 0 0 1 7.723-11.554 50 50 0 0 1 10.336-9.083q5.775-3.807 12.644-5.917 6.865-2.11 14.684-2.11 2.916 0 6.246.246 3.338.236 6.633.82 3.304.576 6.433 1.594 3.129 1.022 5.707 2.508l-1.898 25.98a34.5 34.5 0 0 0-7.863-1.933 63 63 0 0 0-7.91-.516q-5.451.002-10.173 1.664-4.724 1.664-8.226 4.793-3.506 3.13-5.543 7.618-2.04 4.491-2.04 10.125 0 3.54.95 6.843.96 3.296 2.895 5.848 1.932 2.544 4.828 4.113 2.892 1.56 6.691 1.559 2.589 0 5.344-.68 2.752-.676 4.723-2.32l.27-5.297-16.313-.27.82-20.402q10.125-.337 20.25-.574 10.136-.245 20.402-.645zm0 0" aria-label="DOG" style="fill:#fffbe9;fill-opacity:1;fill-rule:nonzero;stroke:none" transform="translate(699.986 850.587)scale(1.33333)"/><path d="M0 0q-3.299 7.954-9.212 13.461-5.915 5.507-14.074 8.431-8.16 2.922-17.88 2.923-7.82 0-15.739-.985a85.6 85.6 0 0 1-15.399-3.366l-1.904-91.238a124 124 0 0 1 6.255-.51q3.06-.17 6.255-.17 8.566 0 16.69 1.326 8.124 1.325 15.331 4.079t13.258 7.036A45.7 45.7 0 0 1-5.983-48.781q4.385 5.95 6.833 13.598 2.447 7.648 2.447 17.166Q3.297-7.955 0 0Zm-24.577-23.319a25.2 25.2 0 0 0-1.462-7.649 23.3 23.3 0 0 0-3.739-6.731 22.5 22.5 0 0 0-5.745-5.099q-3.332-2.074-7.411-2.685l2.719 42.151q4.148-.136 7.139-1.733 2.991-1.598 4.93-4.215 1.937-2.618 2.787-6.017t.782-7.071z" clip-path="url(#k)" style="fill:none;stroke:#000;stroke-width:3;stroke-linecap:butt;stroke-linejoin:miter;stroke-miterlimit:10;stroke-dasharray:none;stroke-opacity:1" transform="matrix(1.33333 0 0 -1.33333 802.918 754.59)"/><path d="M0 0q-3.161 8.056-8.906 13.733t-13.869 8.736q-8.126 3.06-17.984 3.06-6.119-.001-11.625-1.7a41 41 0 0 1-10.232-4.759 42.8 42.8 0 0 1-8.532-7.275 46 46 0 0 1-6.494-9.246 47 47 0 0 1-4.112-10.708 47.3 47.3 0 0 1-1.428-11.591q0-6.052 1.53-11.626 1.529-5.576 4.283-10.436a42.3 42.3 0 0 1 6.663-8.838 41.6 41.6 0 0 1 8.735-6.799 44.2 44.2 0 0 1 10.368-4.385q5.542-1.564 11.661-1.564 6.321 0 11.965 1.666 5.643 1.665 10.436 4.657a41.6 41.6 0 0 1 8.635 7.173A44.7 44.7 0 0 1-2.38-40.69q2.685 5.03 4.113 10.775 1.429 5.746 1.428 11.932Q3.161-8.057 0 0Zm-27.977-25.529q-.953-2.788-2.719-4.929a12.95 12.95 0 0 0-4.318-3.4q-2.55-1.258-5.745-1.257-3.196 0-5.608 1.427a13 13 0 0 0-4.045 3.74q-1.632 2.31-2.448 5.167a20.7 20.7 0 0 0-.816 5.711q0 2.99.952 5.676.951 2.685 2.753 4.691a13.1 13.1 0 0 0 4.318 3.162q2.513 1.156 5.711 1.156 3.126 0 5.541-1.326a12.7 12.7 0 0 0 4.045-3.467q1.63-2.142 2.481-4.896.85-2.753.85-5.676 0-2.993-.952-5.779z" clip-path="url(#l)" style="fill:none;stroke:#000;stroke-width:3;stroke-linecap:butt;stroke-linejoin:miter;stroke-miterlimit:10;stroke-dasharray:none;stroke-opacity:1" transform="matrix(1.33333 0 0 -1.33333 928.193 762.612)"/><path d="M0 0q-10.268-.408-20.396-.646-10.13-.239-20.26-.578l-.817-20.396 16.318-.272-.273-5.303q-1.97-1.633-4.724-2.311-2.755-.681-5.337-.681-3.808 0-6.698 1.564a14.9 14.9 0 0 0-4.827 4.114q-1.937 2.549-2.888 5.846a24.5 24.5 0 0 0-.952 6.833q0 5.643 2.04 10.13t5.54 7.615q3.501 3.126 8.226 4.793 4.726 1.666 10.164 1.666 3.876 0 7.921-.511A34.6 34.6 0 0 0-9.11 9.926l1.903 25.971q-2.585 1.494-5.711 2.516a47 47 0 0 1-6.425 1.597 66 66 0 0 1-6.629.816q-3.33.237-6.255.238-7.817 0-14.684-2.108-6.868-2.108-12.646-5.914a50 50 0 0 1-10.334-9.077 56.2 56.2 0 0 1-7.716-11.558q-3.162-6.29-4.862-13.393a62.2 62.2 0 0 1-1.699-14.515q0-9.723 3.399-18.153t9.416-14.651 14.312-9.756q8.294-3.534 18.152-3.535 5.1 0 10.743.986a63.7 63.7 0 0 1 11.013 2.957A52 52 0 0 1-7.071-52.69q4.692 2.991 7.886 7.002z" clip-path="url(#m)" style="fill:none;stroke:#000;stroke-width:3;stroke-linecap:butt;stroke-linejoin:miter;stroke-miterlimit:10;stroke-dasharray:none;stroke-opacity:1" transform="matrix(1.33333 0 0 -1.33333 1054.69 771.178)"/><path d="M15.364.001q-1.724 0-3.668-.246a14.7 14.7 0 0 1-3.832-1.054q-1.876-.796-3.433-2.344Q2.88-5.19 1.958-7.756q-.915-2.576-.914-6.387c0-2.79.472-5.326 1.418-7.617q1.428-3.432 4.312-5.485 2.892-2.049 7.243-2.05 3.138 0 5.12.55 1.993.54 3.118 1.418 1.135.878 1.57 1.934.444 1.045.445 2.086 0 1.09-.562 2.098-.563.997-1.781 1.582-1.173.553-2.426.492a41 41 0 0 0-2.262-.07q-2.17 0-3.41.773c-.82.515-1.4 1.307-1.734 2.367q.667-.045 1.476-.059a63 63 0 0 1 1.7-.023q1.721 0 3.292.059 1.569.06 2.192.187 1.463.295 2.215 1.149.76.855.761 1.945-.001 1.055-.714 1.887-.716.834-2.297 1.171-.588.132-2.239.188a93 93 0 0 1-4.84.047q-.669-.023-1.206-.024.584 1.302 1.77 2.028 1.192.728 3.081.726.714 0 2.05-.14a6.6 6.6 0 0 1 2.59.234q2.015.624 2.016 2.637 0 1.079-.738 2.027-.728.94-2.59 1.488-1.864.54-5.25.54M38.24.048q-2.004.001-3.972-.433-1.97-.444-3.563-1.242-1.582-.796-2.531-1.922-.94-1.135-.938-2.555 0-1.758 1.067-2.742 1.064-.985 2.625-.985 1.416.001 2.332.446.924.435 1.699.879.773.434 1.652.433 1.382 0 1.383-1.09c0-.357-.322-.68-.96-.96a48 48 0 0 0-2.473-.985 20.3 20.3 0 0 1-3.141-1.523q-2.426-1.463-3.305-3.164-.879-1.698-.879-4.125 0-2.46 1.547-4.594c1.037-1.43 2.432-2.572 4.184-3.434q2.636-1.3 5.906-1.3 3.138.002 5.684.96 2.553.962 4.043 2.579 1.486 1.608 1.488 3.656-.001 1.678-.692 2.683-.694.999-1.722 1.465-1.022.457-1.98.457-1.421.002-2.133-.164-.718-.175-1.114-.363a13 13 0 0 0-.843-.352q-.434-.163-1.313-.164-.493.001-.996.34-.505.329-.504.996 0 .624.89.985.901.352 1.91.726 3.726 1.35 5.65 3.164 1.92 1.819 1.921 4.793 0 3.552-2.871 5.543Q43.43.05 38.24.048M67.703-.08q-2.088 0-3.176-1.382-1.09-1.382-1.488-4.125-.4-2.742-.398-6.797 0-1.463.035-2.754.045-1.3.094-2.438-5.029-.245-7.372-1.418-2.344-1.169-2.343-4.066 0-3.595 3.656-4.852 3.665-1.253 11.039-1.254 7.404.002 11.145 1.254 3.75 1.257 3.75 4.852c0 1.898-.792 3.246-2.368 4.043q-2.368 1.195-7.347 1.441c.061.76.105 1.57.129 2.438q.045 1.29.046 2.754-.001 6.398-1.136 9.351Q70.842-.08 67.703-.08m23.722-.128q-1.172 0-2.156-.598A4.8 4.8 0 0 1 87.675-2.4a4.07 4.07 0 0 1-.598-2.156q0-1.17.598-2.18a4.6 4.6 0 0 1 1.594-1.594 4.14 4.14 0 0 1 2.156-.586q1.17.001 2.18.586 1.004.588 1.593 1.594.585 1.01.586 2.18 0 1.172-.586 2.156a4.6 4.6 0 0 1-1.594 1.594q-1.01.597-2.18.598m0 0" aria-label="EST." style="fill:#e0330b;fill-opacity:1;fill-rule:nonzero;stroke:none" transform="translate(812.163 525.045)scale(1.33333)"/><path d="M0 0q1.862.544 2.595 1.485.731.942.732 2.03 0 2.008-2.009 2.636a6.5 6.5 0 0 1-2.594.23q-1.34-.147-2.05-.147-1.883 0-3.075.733A4.5 4.5 0 0 0-8.18 8.996q.544 0 1.213-.021.669-.02 1.381-.02 1.799 0 3.452.062 1.653.063 2.238.189 1.591.334 2.302 1.171t.711 1.883q0 1.088-.753 1.946t-2.218 1.15q-.626.126-2.196.188a82 82 0 0 1-4.979.042 43 43 0 0 1-1.486-.062q.502 1.59 1.737 2.364 1.233.774 3.41.774 1.005 0 2.26-.063a5.1 5.1 0 0 1 2.426.482q1.214.585 1.779 1.589t.564 2.093q0 1.045-.439 2.091t-1.569 1.925q-1.131.879-3.117 1.423-1.988.544-5.126.544-4.352 0-7.239-2.05-2.887-2.051-4.31-5.482t-1.423-7.615q0-3.808.921-6.381t2.469-4.122q1.547-1.548 3.431-2.343A14.7 14.7 0 0 1-8.912-.293a29 29 0 0 1 3.661-.251Q-1.861-.544 0 0z" clip-path="url(#n)" style="fill:none;stroke:#000;stroke-width:2;stroke-linecap:butt;stroke-linejoin:miter;stroke-miterlimit:10;stroke-dasharray:none;stroke-opacity:1" transform="matrix(1.33333 0 0 -1.33333 839.64 524.32)"/><path d="M0 0q2.866 1.988 2.866 5.544 0 2.97-1.925 4.791-1.925 1.82-5.648 3.159-1.005.376-1.904.733-.9.355-.9.983 0 .668.502 1.004t1.005.335q.878 0 1.317-.168.44-.167.837-.355.397-.19 1.11-.356.71-.167 2.134-.167.961 0 1.987.46 1.025.46 1.716 1.465.69 1.003.69 2.677 0 2.05-1.485 3.662-1.487 1.61-4.038 2.573-2.553.962-5.691.962-3.263 0-5.9-1.297-2.636-1.297-4.184-3.431-1.55-2.134-1.549-4.602 0-2.428.879-4.122.879-1.695 3.306-3.159a20 20 0 0 1 3.138-1.527 54 54 0 0 0 2.468-.984q.963-.419.963-.962 0-1.088-1.381-1.088a3.3 3.3 0 0 0-1.653.439q-.774.44-1.694.879-.921.44-2.343.439-1.548 0-2.615-.983t-1.068-2.741q0-1.422.942-2.552t2.531-1.925 3.558-1.234q1.965-.44 3.974-.44Q-2.867-1.988 0 0z" clip-path="url(#o)" style="fill:none;stroke:#000;stroke-width:2;stroke-linecap:butt;stroke-linejoin:miter;stroke-miterlimit:10;stroke-dasharray:none;stroke-opacity:1" transform="matrix(1.33333 0 0 -1.33333 873.896 522.45)"/><path d="M0 0q1.13 2.95 1.13 9.352 0 1.464-.042 2.761a59 59 0 0 1-.125 2.428q4.978.25 7.343 1.443 2.364 1.193 2.364 4.038 0 3.598-3.745 4.853-3.744 1.256-11.151 1.256-7.365 0-11.026-1.256-3.661-1.255-3.661-4.853 0-2.887 2.344-4.059 2.342-1.171 7.364-1.422-.043-1.13-.084-2.428a86 86 0 0 1-.042-2.761q0-4.06.397-6.8t1.486-4.121q1.087-1.381 3.18-1.381Q-1.13-2.95 0 0z" clip-path="url(#p)" style="fill:none;stroke:#000;stroke-width:2;stroke-linecap:butt;stroke-linejoin:miter;stroke-miterlimit:10;stroke-dasharray:none;stroke-opacity:1" transform="matrix(1.33333 0 0 -1.33333 908.124 521)"/><path d="M0 0q1.004.606 1.59 1.59.585.983.586 2.155 0 1.17-.586 2.176A4.35 4.35 0 0 1 0 7.511q-1.006.585-2.176.586-1.172 0-2.155-.586a4.6 4.6 0 0 1-1.59-1.59 4.14 4.14 0 0 1-.606-2.176q0-1.172.606-2.155A4.8 4.8 0 0 1-4.331 0a4 4 0 0 1 2.155-.607Q-1.006-.607 0 0z" clip-path="url(#q)" style="fill:none;stroke:#000;stroke-width:2;stroke-linecap:butt;stroke-linejoin:miter;stroke-miterlimit:10;stroke-dasharray:none;stroke-opacity:1" transform="matrix(1.33333 0 0 -1.33333 936.966 523.957)"/><path d="M11.719-.082H7.922q-1.818.002-3.258-.27-1.441-.281-2.285-1.066-.834-.796-.832-2.344-.001-1.64.902-2.496.901-.854 2.426-1.184 1.522-.338 3.457-.422-.002-2.637-.047-4.535-.048-1.908-.07-3.562a436 436 0 0 1-.012-3.457q-1.139.165-2.39.082a8 8 0 0 1-2.32-.48 4.17 4.17 0 0 1-1.759-1.208q-.693-.819-.691-2.121-.002-1.626 1.36-3.023 1.358-1.405 3.62-2.262 2.259-.866 4.852-.867 2.601 0 4.23 1.57 1.628 1.572 1.63 4.629v15.351c1.505.141 2.742.493 3.702 1.055q1.452.834 1.454 2.93 0 1.547-.844 2.344-.836.785-2.285 1.066-1.442.272-3.258.27zm22.629-.083q-.788.001-1.817-.187a4.9 4.9 0 0 1-1.863-.75c-.557-.38-.888-.95-.996-1.7q-.177-1.638.656-2.425.843-.796 2.473-.844 1.546-.162 2.8-.773 1.265-.607 1.887-2.028-3.142.212-5.824-.644-2.672-.865-4.324-3.035-1.653-2.179-1.653-5.778-.001-3.303 1.36-5.753a9.85 9.85 0 0 1 3.762-3.833q2.413-1.381 5.472-1.382 3.34 0 5.496 1.265 2.155 1.257 3.387 3.305a14.2 14.2 0 0 1 1.746 4.5q.503 2.438.504 4.828 0 2.93-1.055 5.672a16.7 16.7 0 0 1-2.87 4.898q-1.82 2.145-4.16 3.41a10.4 10.4 0 0 1-4.981 1.254m1.933-14.777q1.335 0 2.32-.984.985-.982.985-2.274 0-1.344-.984-2.32-.985-.984-2.32-.984-1.302 0-2.286.984-.984.976-.984 2.32 0 1.291.984 2.274t2.285.984M59.874-.165q-.786.001-1.816-.187a4.9 4.9 0 0 1-1.864-.75c-.556-.38-.887-.95-.996-1.7q-.177-1.638.656-2.425.843-.796 2.473-.844 1.546-.162 2.8-.773 1.266-.607 1.888-2.028-3.143.212-5.825-.644-2.67-.865-4.324-3.035-1.652-2.179-1.652-5.778-.002-3.303 1.36-5.753a9.85 9.85 0 0 1 3.76-3.833q2.415-1.381 5.474-1.382 3.338 0 5.496 1.265 2.154 1.257 3.386 3.305a14.2 14.2 0 0 1 1.747 4.5q.501 2.438.503 4.828 0 2.93-1.054 5.672a16.7 16.7 0 0 1-2.871 4.898q-1.819 2.145-4.16 3.41a10.4 10.4 0 0 1-4.981 1.254m1.934-14.777q1.336 0 2.32-.984.984-.982.984-2.274 0-1.344-.984-2.32-.984-.984-2.32-.984-1.302 0-2.286.984-.984.976-.984 2.32 0 1.291.984 2.274.985.984 2.286.984M85.398-.165q-.788.001-1.817-.187a4.9 4.9 0 0 1-1.863-.75c-.557-.38-.888-.95-.996-1.7q-.178-1.638.656-2.425.843-.796 2.473-.844 1.544-.162 2.8-.773 1.264-.607 1.887-2.028-3.143.212-5.824-.644-2.672-.865-4.324-3.035-1.653-2.179-1.653-5.778-.002-3.303 1.36-5.753a9.85 9.85 0 0 1 3.761-3.833q2.414-1.381 5.473-1.382 3.34 0 5.496 1.265 2.156 1.257 3.387 3.305a14.2 14.2 0 0 1 1.746 4.5q.502 2.438.504 4.828 0 2.93-1.055 5.672a16.7 16.7 0 0 1-2.87 4.898q-1.82 2.145-4.161 3.41a10.4 10.4 0 0 1-4.98 1.254m1.933-14.777q1.335 0 2.32-.984.985-.982.985-2.274 0-1.344-.985-2.32-.984-.984-2.32-.984-1.3 0-2.285.984-.984.976-.984 2.32 0 1.291.984 2.274t2.285.984m0 0" aria-label="1999" style="fill:#e0330b;fill-opacity:1;fill-rule:nonzero;stroke:none" transform="translate(808.523 941.008)scale(1.33333)"/><path d="M0 0q1.82 0 3.264.272 1.442.272 2.28 1.067t.837 2.343q0 2.092-1.444 2.929T1.234 7.657v15.357q0 3.054-1.631 4.624-1.633 1.569-4.227 1.569t-4.854-.858q-2.259-.858-3.619-2.26t-1.36-3.033q0-1.298.69-2.114a4.15 4.15 0 0 1 1.758-1.213 8.2 8.2 0 0 1 2.322-.481 11 11 0 0 1 2.385.084q0-1.8.021-3.453t.063-3.556.042-4.54q-1.926-.084-3.452-.418-1.528-.335-2.427-1.193-.9-.857-.9-2.49 0-1.548.837-2.343.836-.795 2.28-1.067T-7.573 0h3.786z" clip-path="url(#r)" style="fill:none;stroke:#000;stroke-width:2;stroke-linecap:butt;stroke-linejoin:miter;stroke-miterlimit:10;stroke-dasharray:none;stroke-opacity:1" transform="matrix(1.33333 0 0 -1.33333 829.194 940.897)"/><path d="M0 0q2.343 1.254 4.164 3.41A16.8 16.8 0 0 1 7.03 8.306a15.8 15.8 0 0 1 1.046 5.67q0 2.384-.502 4.832a14.2 14.2 0 0 1-1.736 4.498q-1.235 2.05-3.39 3.306-2.155 1.255-5.502 1.255-3.055 0-5.461-1.381a9.83 9.83 0 0 1-3.765-3.828q-1.361-2.449-1.361-5.754 0-3.599 1.654-5.774 1.652-2.176 4.33-3.034t5.816-.648q-.627-1.423-1.883-2.03-1.255-.607-2.803-.773-1.632-.043-2.469-.837-.838-.796-.669-2.427Q-9.5.25-8.661-.314a4.85 4.85 0 0 1 1.862-.753q1.025-.188 1.82-.188Q-2.343-1.255 0 0zm-5.335 14.499q-.983.982-.983 2.28 0 1.338.983 2.322.983.983 2.281.983 1.338 0 2.323-.983.982-.984.982-2.322 0-1.298-.982-2.28-.985-.984-2.323-.984-1.298 0-2.281.984z" clip-path="url(#s)" style="fill:none;stroke:#000;stroke-width:2;stroke-linecap:butt;stroke-linejoin:miter;stroke-miterlimit:10;stroke-dasharray:none;stroke-opacity:1" transform="matrix(1.33333 0 0 -1.33333 860.966 939.111)"/><path d="M0 0q2.343 1.254 4.164 3.41A16.8 16.8 0 0 1 7.03 8.306a15.8 15.8 0 0 1 1.046 5.67q0 2.384-.502 4.832a14.2 14.2 0 0 1-1.736 4.498q-1.235 2.05-3.39 3.306-2.155 1.255-5.502 1.255-3.055 0-5.461-1.381a9.83 9.83 0 0 1-3.765-3.828q-1.361-2.449-1.361-5.754 0-3.599 1.654-5.774 1.652-2.176 4.33-3.034t5.816-.648q-.627-1.423-1.883-2.03-1.255-.607-2.803-.773-1.632-.043-2.469-.837-.838-.796-.669-2.427Q-9.5.25-8.661-.314a4.85 4.85 0 0 1 1.862-.753q1.025-.188 1.82-.188Q-2.343-1.255 0 0zm-5.335 14.499q-.983.982-.983 2.28 0 1.338.983 2.322.983.983 2.281.983 1.338 0 2.323-.983.982-.984.982-2.322 0-1.298-.982-2.28-.985-.984-2.323-.984-1.298 0-2.281.984z" clip-path="url(#t)" style="fill:none;stroke:#000;stroke-width:2;stroke-linecap:butt;stroke-linejoin:miter;stroke-miterlimit:10;stroke-dasharray:none;stroke-opacity:1" transform="matrix(1.33333 0 0 -1.33333 894.997 939.111)"/><path d="M0 0q2.343 1.254 4.164 3.41A16.8 16.8 0 0 1 7.03 8.306a15.8 15.8 0 0 1 1.046 5.67q0 2.384-.502 4.832a14.2 14.2 0 0 1-1.736 4.498q-1.235 2.05-3.39 3.306-2.155 1.255-5.502 1.255-3.055 0-5.461-1.381a9.83 9.83 0 0 1-3.765-3.828q-1.361-2.449-1.361-5.754 0-3.599 1.654-5.774 1.652-2.176 4.33-3.034t5.816-.648q-.627-1.423-1.883-2.03-1.255-.607-2.803-.773-1.632-.043-2.469-.837-.838-.796-.669-2.427Q-9.5.25-8.661-.314a4.85 4.85 0 0 1 1.862-.753q1.025-.188 1.82-.188Q-2.343-1.255 0 0zm-5.335 14.499q-.983.982-.983 2.28 0 1.338.983 2.322.983.983 2.281.983 1.338 0 2.323-.983.982-.984.982-2.322 0-1.298-.982-2.28-.985-.984-2.323-.984-1.298 0-2.281.984z" clip-path="url(#u)" style="fill:none;stroke:#000;stroke-width:2;stroke-linecap:butt;stroke-linejoin:miter;stroke-miterlimit:10;stroke-dasharray:none;stroke-opacity:1" transform="matrix(1.33333 0 0 -1.33333 929.029 939.111)"/><path d="M0 0c-25.208 34.11-39.59 82.347-47.589 114.984-17.242 70.356-16.037 145.373 4.975 214.791 6.981 23.064 17.06 46.848 36.9 60.524 19.841 13.676 51.773 11.964 63.564-9.051 9.527-16.979 2.843-37.985-2.527-56.699-27.036-94.204-13.559-199.312 36.37-283.648 9.796-16.548 21.402-34.977 16.499-53.572-4.785-18.149-25.099-29.175-43.821-27.796C37.487-38.486 16.441-22.248 0 0" clip-path="url(#v)" style="fill:#e8b26a;fill-opacity:1;fill-rule:nonzero;stroke:none" transform="matrix(1.33333 0 0 -1.33333 581.82 970.376)"/><path d="M0 0c-19.328 26.27-31.271 57.539-40.443 88.6-9.877 33.453-16.458 67.74-18.309 102.61-2.019 38.041 1.191 76.368 9.875 113.472 3.937 16.821 8.588 33.865 15.918 49.565 6.573 14.08 15.977 27.907 29.676 35.88 11.234 6.538 25.442 8.555 37.99 5.036 5.988-1.679 11.595-4.715 15.936-9.21 5.386-5.576 8.298-13.101 9.008-20.755 1.615-17.435-5.591-34.546-9.812-51.141-4.224-16.611-7.207-33.531-9.002-50.576-3.592-34.094-2.296-68.67 3.618-102.433 5.91-33.75 16.517-66.683 31.589-97.461 3.82-7.8 7.93-15.46 12.323-22.952 4.571-7.796 9.376-15.491 13.04-23.774 3.615-8.172 6.145-17.28 4.795-26.27-1.112-7.401-4.797-13.993-10.256-19.071C84.9-38.756 69.525-41.443 55.078-38.669c-15.012 2.883-28.427 10.703-39.523 21.06C9.818-12.255 4.674-6.296 0 0c-1.138 1.533-3.743.039-2.59-1.514C6.835-14.21 18.169-25.779 32.122-33.467c12.926-7.122 28.812-11.363 43.523-8.416 13.756 2.757 26.867 11.748 31.816 25.251 6.393 17.441-2.873 35.505-11.512 50.331-9.025 15.485-17.63 31.016-24.708 47.511-7.034 16.393-12.807 33.334-17.333 50.586A369 369 0 0 0 42.055 237.86c.609 17.825 2.522 35.604 5.784 53.139a350 350 0 0 0 5.897 26.114c2.333 8.754 5.158 17.381 7.054 26.248 3.285 15.355 3.551 32.91-8.205 44.899-9.134 9.316-22.969 12.573-35.645 11.324-32.574-3.209-50.111-33.752-59.628-61.826-12.365-36.473-18.5-75.344-19.506-113.786-1.009-38.517 3.496-77.002 12.908-114.347 7.847-31.131 17.89-62.25 33.503-90.431 3.97-7.166 8.337-14.108 13.193-20.708C-1.458-3.053 1.146-1.558 0 0" clip-path="url(#w)" style="fill:#000;fill-opacity:1;fill-rule:nonzero;stroke:none" transform="matrix(1.33333 0 0 -1.33333 583.546 969.366)"/><path d="M0 0c-4.326-1.294-9.346 1.34-11.045 5.523-1.7 4.182-.132 9.353 3.4 12.166s8.68 3.256 12.803 1.414c4.122-1.841 7.156-5.772 8.27-10.147 4.875 2.795 11.638 1.71 15.393-2.471 3.756-4.18 4.112-11.02.812-15.569z" clip-path="url(#x)" style="fill:#e0330b;fill-opacity:1;fill-rule:nonzero;stroke:none" transform="matrix(1.33333 0 0 -1.33333 514.946 432.96)"/><path d="M0 0c-2.803-.772-5.769.248-7.751 2.327-2.121 2.224-2.524 5.433-1.607 8.288 2.083 6.493 10.124 8.302 15.611 4.984 3.101-1.874 5.202-5.025 6.128-8.488.255-.955 1.364-1.36 2.203-.897 4.311 2.382 10.09 1.523 13.456-2.107 3.483-3.756 3.573-9.778.697-13.88l1.694.689L4.482-1.13.798 0C-1.052.567-1.843-2.328 0-2.893l25.948-7.954 3.685-1.13c.676-.207 1.316.151 1.694.69 3.66 5.221 3.179 12.83-1.165 17.515-4.285 4.621-11.642 5.588-17.092 2.577l2.203-.897C13.107 16.015 5.19 21.975-3.311 19.814c-4.017-1.022-7.206-3.879-8.701-7.73-1.43-3.682-.99-7.983 1.481-11.109C-7.885-2.373-3.349-4.035.798-2.893 2.656-2.381 1.867.514 0 0" clip-path="url(#y)" style="fill:#000;fill-opacity:1;fill-rule:nonzero;stroke:none" transform="matrix(1.33333 0 0 -1.33333 514.414 431.031)"/><path d="M0 0c2.851 3.501 8.484 4.143 12.24 1.638s5.364-7.664 4.024-11.975c-1.341-4.311-5.352-7.571-9.797-8.364-4.444-.793-9.163.754-12.543 3.747-2.462-5.051-8.666-7.953-14.121-6.605-5.456 1.348-9.594 6.806-9.42 12.423z" clip-path="url(#z)" style="fill:#e0330b;fill-opacity:1;fill-rule:nonzero;stroke:none" transform="matrix(1.33333 0 0 -1.33333 590.607 1024.047)"/><path d="M0 0c1.872 2.199 4.857 3.156 7.684 2.545 2.94-.634 5.139-2.881 6.025-5.721 1.921-6.158-2.779-12.117-8.895-13.049-3.901-.594-7.943.849-10.89 3.392-.685.592-1.89.616-2.356-.303-2.183-4.309-7.282-7.019-12.092-5.993-5.056 1.077-8.729 5.94-8.654 11.053l-1.101-1.446 25.934 8L-.662-.386C1.177.182.393 3.078-1.459 2.507l-25.935-8-3.682-1.136a1.54 1.54 0 0 1-1.102-1.447c-.094-6.371 4.534-12.6 10.856-13.946 6.073-1.293 12.67 1.826 15.481 7.372l-2.356-.304c6.478-5.59 16.754-6.152 22.462.892 2.521 3.11 3.478 7.111 2.523 11.015-.919 3.76-3.619 6.991-7.329 8.22-4.012 1.328-8.815.196-11.58-3.052C-3.366.659-1.254-1.473 0 0" clip-path="url(#A)" style="fill:#000;fill-opacity:1;fill-rule:nonzero;stroke:none" transform="matrix(1.33333 0 0 -1.33333 592.021 1025.46)"/><path d="M0 0c-20.244 53.064-29.646 110.626-27.359 167.15a401 401 0 0 0 3.107 36.255 372 372 0 0 0 3.677 22.516c5.962 30.532 15.951 60.903 34.434 84.969s46.543 41.073 75.551 39.433 57.262-25.06 61.134-55.978c2.417-19.297-4.222-38.372-9.072-57.133-13.536-52.361-13.407-108.714.369-161.003 5.641-21.41 13.5-42.099 18.886-63.585s8.247-44.27 3.668-65.97-17.596-42.199-36.77-50.642c-55.421-24.4-94.915 31.864-115.46 75.412A407 407 0 0 0 0 0" clip-path="url(#B)" style="fill:#e0330b;fill-opacity:1;fill-rule:nonzero;stroke:none" transform="matrix(1.33333 0 0 -1.33333 406.778 897.778)"/><path d="M0 0c-14.072 37.001-22.933 75.959-26.203 115.412-3.312 39.956-1.131 80.648 7.752 119.789 7.919 34.895 22.231 70.695 50.912 93.67 12.968 10.388 28.773 17.917 45.46 19.389 15.351 1.354 30.406-2.842 43.009-11.685 12.513-8.779 22.059-21.891 25.602-36.842 4.614-19.461-1.708-39.258-6.746-57.963-10.273-38.14-13.654-77.944-9.682-117.26 1.983-19.626 5.801-38.994 11.297-57.935 5.705-19.662 12.787-38.935 17.436-58.896 7.977-34.246 8.627-76.803-20.032-102.148-11.128-9.841-26.783-14.907-41.569-14.276-13.34.569-25.771 6.162-36.349 14.077C38.531-77.94 23.322-52.32 11.646-27.438A408 408 0 0 0 0 0c-.683 1.785-3.585 1.01-2.893-.798C8.4-30.307 22.546-60.195 44.272-83.572c9.299-10.005 20.267-18.782 33.048-23.867 13.156-5.235 27.588-5.615 41.095-1.451 15.441 4.759 27.628 14.827 35.875 28.674 9.374 15.737 12.809 34.128 12.41 52.282-.919 41.824-20.388 80.177-28.72 120.607-8.329 40.415-8.698 82.543-1.1 123.102 1.88 10.039 4.355 19.919 7.041 29.768 2.709 9.936 5.404 19.915 6.595 30.169 1.999 17.213-1.618 34.136-12.136 48.087-9.055 12.011-22.015 21.071-36.49 25.241-15.552 4.48-32.311 2.596-47.158-3.505-33.622-13.817-55.019-45.292-67.056-78.387-6.718-18.47-10.991-37.812-13.901-57.222-3.101-20.681-4.542-41.605-4.408-62.515.261-40.663 6.432-81.326 18.198-120.249A423 423 0 0 1-2.893-.798C-2.213-2.584.688-1.809 0 0" clip-path="url(#C)" style="fill:#000;fill-opacity:1;fill-rule:nonzero;stroke:none" transform="matrix(1.33333 0 0 -1.33333 408.706 897.247)"/><path d="M0 0c-26.866 36.354-42.194 87.763-50.719 122.547-18.376 74.982-17.092 154.934 5.303 228.917 7.44 24.581 18.181 49.929 39.326 64.504 21.146 14.576 55.178 12.752 67.745-9.646 10.153-18.095 3.03-40.483-2.694-60.427-28.814-100.4-14.45-212.422 38.762-302.304 10.441-17.636 22.81-37.277 17.585-57.095-5.1-19.343-26.75-31.094-46.703-29.625C39.953-41.017 17.523-23.711 0 0" clip-path="url(#D)" style="fill:#e8b26a;fill-opacity:1;fill-rule:nonzero;stroke:none" transform="matrix(1.33333 0 0 -1.33333 371.324 1003.675)"/><path d="M0 0c-20.604 28.004-33.336 61.339-43.112 94.451-10.53 35.661-17.544 72.212-19.517 109.384-2.153 40.552 1.27 81.41 10.527 120.961 4.199 17.937 9.159 36.108 16.975 52.849 7.013 15.021 17.05 29.769 31.664 38.275 11.995 6.982 27.166 9.135 40.564 5.378 6.398-1.794 12.39-5.039 17.028-9.842 5.759-5.962 8.87-14.006 9.629-22.19 1.722-18.59-5.96-36.835-10.46-54.53s-7.679-35.719-9.591-53.876c-3.827-36.328-2.449-73.17 3.852-109.144 6.298-35.961 17.597-71.053 33.657-103.847a370 370 0 0 1 13.133-24.462c4.872-8.309 9.993-16.51 13.898-25.337 3.864-8.736 6.565-18.465 5.12-28.075-1.189-7.903-5.126-14.945-10.956-20.369-11.8-10.976-28.218-13.847-43.651-10.884-16.016 3.076-30.329 11.422-42.167 22.47C10.473-13.075 4.986-6.717 0 0c-1.138 1.533-3.743.039-2.59-1.514C7.444-15.032 19.514-27.348 34.369-35.533c13.752-7.578 30.658-12.095 46.31-8.959 14.625 2.93 28.577 12.483 33.84 26.842 6.804 18.563-3.066 37.787-12.26 53.565-9.618 16.504-18.789 33.057-26.333 50.637-7.499 17.478-13.656 35.54-18.482 53.935a393.3 393.3 0 0 0-12.636 113.066c.649 19.007 2.689 37.964 6.167 56.661a373 373 0 0 0 6.285 27.831c2.487 9.33 5.497 18.525 7.519 27.974 3.493 16.33 3.783 35.005-8.72 47.757-9.718 9.911-24.435 13.368-37.92 12.04-34.667-3.416-53.327-35.947-63.454-65.821-13.176-38.863-19.713-80.281-20.786-121.243-1.074-41.042 3.724-82.048 13.754-121.841 8.361-33.17 19.061-66.328 35.696-96.355C-12.42 12.919-7.766 5.52-2.59-1.514-1.458-3.053 1.146-1.558 0 0" clip-path="url(#E)" style="fill:#000;fill-opacity:1;fill-rule:nonzero;stroke:none" transform="matrix(1.33333 0 0 -1.33333 373.051 1002.665)"/><path d="m0 0 46.057 27.796c2.5 1.509 8.53 6.188 11.538 3.52 2.33-2.066-.293-5.871-1.589-7.746-3.559-5.148-8.919-8.682-13.414-12.927-7.396-6.985-14.455-14.288-20.698-22.332-5.611-7.23-14.008-16.969-12.407-26.771 1.446-8.849 9.779-14.217 18.286-14.836 8.047-.585 15.49 3.222 22.64 6.399 4.519 2.008 12.056 6.273 17.003 3.657 7.879-4.165-.356-14.242-3.923-18.435-7.15-8.405-14.564-16.595-21.786-24.94-6.319-7.301-15.252-14.838-15.478-25.257-.182-8.415 5.037-15.989 12.813-19.023 8.946-3.49 18.546-.288 26.186 4.773 2.916 1.932 14.388 12.3 18.106 9.148-.351.297-.568-3.478-.962-4.555-1.595-4.358-4.919-8.555-7.579-12.34-6.933-9.864-14.847-18.995-21.954-28.732-2.867-3.927-.635-9.925 3.205-12.225 4.494-2.692 9.396-.671 12.225 3.206 6.702 9.182 14.111 17.823 20.756 27.049 5.361 7.444 11.097 15.438 11.79 24.87.615 8.356-3.369 16.647-11.537 19.603-8.289 3-17.396-.038-24.488-4.587-4.644-2.978-12.218-11.126-18.336-9.875-7.395 1.513 6.186 13.341 7.889 15.309 7.765 8.972 15.943 17.674 23.412 26.891 6.105 7.535 11.712 16.419 10.67 26.528-.982 9.537-8.558 18.1-17.88 20.414-8.854 2.199-17.571-1.026-25.607-4.49-3.055-1.317-6.142-2.6-9.342-3.534-1.386-.405-4.18-2.068-5.632-1.463-2.881 1.201.7 4.92 1.846 6.633 3.15 4.713 6.724 9.074 10.53 13.271C49.644-6.946 57.899.011 65.646 7.6c5.002 4.9 9.178 11.262 10.585 18.207 4.26 21.026-19.361 28.526-35.12 19.877C24.046 36.319 7.649 25.49-9.019 15.43-18.854 9.495-9.881-5.963 0 0" clip-path="url(#F)" style="fill:#e8cd0e;fill-opacity:1;fill-rule:nonzero;stroke:none" transform="matrix(1.33333 0 0 -1.33333 473.214 776.608)"/><path d="m0 0 41.793 25.222c2.551 1.54 5.052 3.168 7.609 4.697 1.481.885 4.231 2.708 6.054 1.829 2.281-1.101-.657-4.915-1.502-6.125-1.911-2.736-4.39-5.015-6.908-7.182-5.499-4.73-10.775-9.617-15.785-14.87-4.967-5.206-9.517-10.73-13.926-16.41-3.934-5.07-7.982-10.498-9.627-16.811-1.529-5.871-.265-11.968 3.745-16.559 3.735-4.276 9.3-6.658 14.873-7.231 7.193-.741 14.057 2.05 20.486 4.925 2.828 1.265 5.621 2.622 8.466 3.846 2.566 1.104 5.439 2.199 8.28 2.035 2.174-.126 4.576-1.48 4.878-3.818.266-2.065-.768-4.221-1.744-5.963-2.801-5-7.002-9.255-10.741-13.54-5.231-5.994-10.53-11.927-15.743-17.936-7.657-8.826-18.051-17.713-15.93-30.679.938-5.736 4.382-10.876 9.146-14.151 5.502-3.783 12.422-4.575 18.842-3.145 5.505 1.225 10.672 3.909 15.108 7.35 3.365 2.61 6.788 5.48 10.714 7.213.668.294 1.485.597 2.153.686.219.03.84.015.816.019a1.6 1.6 0 0 0 .459-.141l1.459 2.507c-2.052.739-2.236-2.308-2.407-3.505-.338-2.373-1.325-4.367-2.559-6.418-3.133-5.205-6.943-10.118-10.624-14.943-3.868-5.069-7.886-10.021-11.785-15.065a363 363 0 0 1-2.831-3.709c-.851-1.134-1.854-2.264-2.509-3.527-1.049-2.021-1.2-4.355-.667-6.549 1.114-4.585 5.166-8.301 9.995-8.313 2.441-.006 4.765.975 6.658 2.471 2.227 1.759 3.733 4.322 5.431 6.558 7.493 9.87 15.607 19.308 22.414 29.685 5.616 8.561 10.023 19.265 5.893 29.387-1.738 4.262-4.868 7.921-9.043 9.95-4.953 2.407-10.628 2.574-15.918 1.296-4.937-1.194-9.735-3.543-13.767-6.625-3.492-2.671-6.86-5.906-10.976-7.607-1.501-.62-3.405-1.067-4.889-.474-.192.077-.165.075-.265.169-.053.049-.094.237-.078.088-.038.35-.081.363.096.951.757 2.514 3.205 4.932 5.03 6.859 1.793 1.894 3.705 3.659 5.419 5.627 4.222 4.846 8.538 9.609 12.788 14.431 4.098 4.648 8.213 9.322 11.948 14.272 3.304 4.379 6.23 9.168 7.8 14.461 1.488 5.014 1.621 10.479-.09 15.455-1.549 4.506-4.391 8.574-8.072 11.599-3.978 3.268-8.702 5.227-13.833 5.699-6.06.557-12.105-1.092-17.71-3.248-2.895-1.113-5.711-2.416-8.594-3.559-2.496-.99-5.067-1.739-7.553-2.749-.781-.317-1.655-.726-2.508-.649-.281.025-.176-.03-.155.176.042.405.312.832.511 1.172 1.091 1.871 2.531 3.637 3.788 5.398 7.198 10.09 16.276 18.507 25.306 26.912 4.252 3.958 8.65 7.84 12.023 12.608 3.08 4.356 5.31 9.37 6.011 14.682.98 7.427-1.705 14.551-7.904 18.905-5.942 4.174-13.784 5.11-20.796 3.821-4.243-.781-7.945-2.604-11.679-4.694-5.512-3.086-10.948-6.307-16.346-9.59-5.475-3.329-10.911-6.722-16.353-10.106a2085 2085 0 0 0-8.162-5.057c-2.493-1.533-5.199-2.908-7.537-4.67-6.014-4.53-4.784-13.847 1.495-17.565C-6.855-2.101-3.126-1.827 0 0c1.666.974.158 3.568-1.514 2.59-2.704-1.58-5.859-1.504-8.216.681-2.09 1.936-3.315 5.001-2.616 7.833.373 1.514 1.263 2.809 2.492 3.764 2.184 1.698 4.82 2.98 7.176 4.429 5.251 3.23 10.475 6.501 15.714 9.75 5.172 3.207 10.357 6.394 15.593 9.496a479 479 0 0 0 7.881 4.574c2.176 1.234 4.34 2.56 6.63 3.574 6.202 2.745 13.584 3.128 19.977.817 6.046-2.186 10.701-7.241 11.284-13.792.911-10.248-5.578-18.996-12.575-25.699C53.351-.102 44.47-7.779 36.899-16.787c-3.217-3.827-6.318-7.872-9.051-12.061-.926-1.42-1.799-3.347-.748-4.938 1.22-1.845 3.549-1.576 5.346-.918 5.072 1.857 10.064 3.845 15.072 5.88 5.332 2.166 10.975 4.033 16.797 3.915 9.606-.194 18.326-6.816 21.103-16.038 3.136-10.414-2.665-20.517-8.967-28.417-3.775-4.732-7.773-9.288-11.789-13.817-4.048-4.566-8.045-9.187-12.136-13.714-3.393-3.753-7.844-7.045-9.919-11.798-1.064-2.439-.58-5.051 2.216-5.897 3.87-1.171 7.965 1.068 11.061 3.182 3.526 2.407 6.618 5.408 10.303 7.583 4.522 2.671 9.671 4.643 14.977 4.719 4.818.069 9.591-1.54 12.903-5.131 2.909-3.155 4.391-7.455 4.539-11.704.372-10.689-6.764-19.957-12.764-28.132-3.618-4.93-7.44-9.707-11.222-14.511a508 508 0 0 1-5.679-7.325c-1.587-2.094-3.003-4.595-5.256-6.05-3.995-2.58-8.886-.897-10.743 3.417-.782 1.817-.972 3.988-.012 5.774.647 1.203 1.611 2.291 2.43 3.381a314 314 0 0 0 2.944 3.855c7.238 9.335 14.869 18.442 21.34 28.344 1.347 2.062 2.766 4.329 3.467 6.711.212.718.285 1.484.389 2.223.061.431.114.865.193 1.293.018.101.078.291.077.405-.004.569.677.307-.481-.402l-1.156-.151.045-.016c1.363-.491 2.631 1.579 1.459 2.507-3.278 2.594-7.915-.324-10.813-2.199-3.291-2.129-6.182-4.81-9.459-6.943-5.776-3.76-12.734-6.51-19.738-5.66-6.065.736-11.506 4.345-14.438 9.71-2.919 5.34-2.849 11.671-.157 17.079 2.691 5.408 7.067 9.716 11.089 14.131 5.226 5.736 10.263 11.661 15.384 17.492 4.133 4.707 8.562 9.332 12.144 14.488 2.477 3.567 5.533 9.071 2.716 13.28-3.468 5.182-10.371 3.718-15.219 1.744-11.546-4.704-24.42-13.417-36.891-6.37-5.117 2.891-8.527 8.099-8.2 14.088.352 6.443 4.458 12.272 8.205 17.251C26.985-4.932 36.808 5.862 47.898 15.24c2.64 2.232 5.264 4.513 7.422 7.229 1.602 2.016 3.418 4.429 3.852 7.032.46 2.761-1.341 5.141-4.143 5.391-2.522.225-5.049-1.132-7.142-2.383C34.788 24.676 21.79 16.655 8.721 8.767L-1.514 2.59C-3.165 1.594-1.659-1.001 0 0" clip-path="url(#G)" style="fill:#000;fill-opacity:1;fill-rule:nonzero;stroke:none" transform="matrix(1.33333 0 0 -1.33333 474.223 778.335)"/><path d="M0 0c-1.987-6.621-3.493-13.41-4.929-20.167-3.724-17.525-6.377-35.286-8.122-53.115-2.452-25.041-3.045-50.284-1.519-75.404 1.794-29.526 6.521-58.935 14.81-87.349 9.217-31.596 22.891-61.919 41.114-89.355a314 314 0 0 1 7.206-10.381c1.121-1.549 3.725-.053 2.59 1.514-19.463 26.891-34.426 56.821-44.724 88.361-9.3 28.48-14.887 58.107-17.335 87.948-2.098 25.572-1.943 51.32.157 76.887 1.535 18.679 4.098 37.284 7.798 55.659C-1.307-17.224.805-9.202 2.8-1.113c.026.106.061.211.093.315C3.449 1.056.555 1.847 0 0" clip-path="url(#H)" style="fill:#000;fill-opacity:1;fill-rule:nonzero;stroke:none" transform="matrix(1.33333 0 0 -1.33333 423.918 525.459)"/><path d="M0 0c.421-3.533.987-7.052 1.572-10.561 1.527-9.159 3.371-18.265 5.451-27.314a508 508 0 0 1 10.614-39.023c4.905-15.542 10.582-30.843 17.129-45.771 7.138-16.277 15.339-32.111 24.848-47.134a309 309 0 0 1 3.672-5.661c1.063-1.601 3.662-.101 2.59 1.514-9.859 14.851-18.387 30.558-25.813 46.757-6.814 14.866-12.692 30.154-17.793 45.688a504 504 0 0 0-11.344 40.122c-2.288 9.569-4.31 19.205-5.997 28.899-.505 2.9-.98 5.806-1.41 8.719q-.191 1.304-.371 2.609c-.062.451.048-.371-.011.088l-.053.398-.063.501L3 0C2.775 1.894-.228 1.916 0 0" clip-path="url(#I)" style="fill:#000;fill-opacity:1;fill-rule:nonzero;stroke:none" transform="matrix(1.33333 0 0 -1.33333 613.008 711.867)"/><path d="M0 0c-2.638 3.077-7.671 1.912-8.839-1.969l-1.599-5.313c-2.056 2.678-5.991 2.636-8.181.065-1.072-1.258-2.46-2.264-4.002-2.801-4.569-1.592-9.681-.041-13.843 2.425S-44.217-1.782-48.387.673c-12.157 7.16-28.922 5.348-39.269-4.245l-6.322-5.125-6.323 5.125C-110.648 6.021-127.413 7.833-139.57.673c-4.169-2.455-7.76-5.8-11.923-8.266-4.162-2.466-9.274-4.017-13.843-2.425-1.542.537-2.93 1.543-4.002 2.801-2.19 2.571-6.125 2.613-8.181-.065l-1.599 5.313c-1.167 3.881-6.201 5.046-8.839 1.969-7.321-8.539-10.837-20.38-8.893-31.495 2.45-14.009 13.45-26.16 27.146-29.988s29.403.859 38.761 11.568c4.771 5.46 7.882 12.168 12.306 17.913 11.283 14.65 38.019 14.67 49.317.001 4.424-5.745 7.535-12.454 12.306-17.914 9.358-10.709 25.064-15.396 38.761-11.568C-4.557-57.655 6.443-45.504 8.893-31.495 10.837-20.38 7.322-8.539 0 0" clip-path="url(#J)" style="fill:#fffbe9;fill-opacity:1;fill-rule:nonzero;stroke:none" transform="matrix(1.33333 0 0 -1.33333 654.746 660.054)"/><path d="M0 0c-2.903 3.193-8.07 2.738-10.486-.798-.745-1.09-1.041-2.434-1.416-3.681l-1.043-3.465 2.507.662c-2.017 2.459-5.494 3.103-8.303 1.643-1.537-.799-2.427-2.317-3.862-3.245-1.569-1.014-3.45-1.373-5.297-1.338-8.085.156-13.958 6.992-20.413 10.904C-59.755 7.616-75.28 6.923-86.218-.715c-3.441-2.404-6.618-5.337-9.882-7.982h2.122c-2.626 2.128-5.212 4.311-7.837 6.437-5.199 4.21-11.515 6.706-18.14 7.491-6.638.787-13.512-.317-19.511-3.284-6.902-3.415-12.153-9.995-19.85-11.797-2.002-.469-4.103-.54-6.091.032a7.6 7.6 0 0 0-2.915 1.572c-.724.627-1.287 1.397-2.051 1.98-2.85 2.177-6.98 1.773-9.267-1.016l2.507-.662c-.953 3.168-1.478 7.236-4.513 9.129-2.086 1.301-4.922 1.361-7.009.027-1.21-.774-2.064-1.949-2.924-3.075a40 40 0 0 1-2.9-4.345c-6.501-11.312-7.278-25.262-1.458-37.001 5.293-10.677 15.545-19.02 27.296-21.386 12.059-2.428 25.031 1.087 34.293 9.162 5.301 4.62 8.721 10.767 12.473 16.609 3.052 4.753 6.371 8.849 11.418 11.558 8.766 4.705 20.17 4.982 29.199.817 5.081-2.343 8.763-5.949 11.861-10.553 3.862-5.742 7.066-12.014 12.039-16.922 8.749-8.634 21.591-12.753 33.733-11.041 12.064 1.7 22.765 9.578 28.645 20.16 6.347 11.423 6.239 25.237.339 36.827C3.899-5.11 2.08-2.452 0 0c-1.251 1.474-3.364-.657-2.121-2.121 8.115-9.567 11.204-23.114 7.227-35.104C1.55-47.946-7.257-56.962-17.987-60.566c-11.045-3.711-23.573-1.498-33.021 5.203-5.282 3.746-8.897 8.942-12.286 14.364-3.075 4.921-6.062 10.046-10.716 13.652-7.767 6.016-18.228 7.86-27.78 6.173-4.711-.833-9.349-2.621-13.254-5.409-4.713-3.362-7.789-8.092-10.818-12.937-3.428-5.485-6.863-10.942-12.031-14.971-4.572-3.565-10.008-5.971-15.677-7.13-11.411-2.334-23.161 1.034-31.647 8.995-8.62 8.088-13.151 19.901-11.316 31.675.972 6.237 3.485 12.221 7.301 17.254 1.364 1.8 2.965 3.612 5.443 2.621 1.649-.659 2.097-2.129 2.558-3.661l1.205-4.005c.298-.992 1.758-1.574 2.507-.662.867 1.058 2.047 1.716 3.45 1.542 1.612-.199 2.366-1.357 3.47-2.369 2.73-2.503 6.443-3.313 10.054-2.865 7.705.955 13.137 6.581 19.363 10.603 10.807 6.982 25.474 6.495 35.956-.917 1.717-1.213 3.283-2.672 4.919-3.997l4.207-3.412c.682-.552 1.435-.557 2.122 0 2.438 1.977 4.886 3.939 7.276 5.972 4.762 4.051 10.923 6.5 17.122 7.138 6.306.649 12.82-.407 18.423-3.436 6.532-3.531 11.634-9.458 18.991-11.446 3.749-1.013 8.133-.955 11.419 1.347 1.44 1.009 2.451 2.795 4.206 3.27 1.567.424 2.985-.214 3.982-1.43.749-.912 2.209-.33 2.507.662.529 1.758 1.003 3.541 1.589 5.28.939 2.793 4.371 3.509 6.342 1.341C-.82-3.553 1.297-1.427 0 0" clip-path="url(#K)" style="fill:#000;fill-opacity:1;fill-rule:nonzero;stroke:none" transform="matrix(1.33333 0 0 -1.33333 656.16 658.64)"/><path d="M0 0c3.396 3.283 6.019 7.669 7.298 12.807 3.267 13.128-3.408 26.092-14.91 28.954s-23.475-5.459-26.743-18.588c-1.343-5.397-.984-10.753.678-15.404C-37.072 4.486-39.696.1-40.975-5.038c-3.267-13.128 3.408-26.092 14.91-28.954S-2.589-28.533.678-15.404C2.021-10.007 1.662-4.651 0 0" clip-path="url(#L)" style="fill:#fffbe9;fill-opacity:1;fill-rule:nonzero;stroke:none" transform="matrix(1.33333 0 0 -1.33333 579.584 586.411)"/><path d="M0 0c10.266 10.079 11.938 28.361 1.298 38.847a20.89 20.89 0 0 1-17.761 5.78c-6.448-.968-12.07-4.943-15.855-10.148-5.384-7.402-6.867-17.411-3.866-26.048l.386 1.459C-46.064-.188-47.736-18.47-37.096-28.957a20.89 20.89 0 0 1 17.761-5.78c6.448.968 12.07 4.944 15.855 10.148C1.903-17.187 3.387-7.178.386 1.459c-.63 1.813-3.529 1.033-2.893-.797 4.305-12.387-1.868-28.261-15.124-31.974-5.417-1.517-11.318-.414-15.759 3.069-4.596 3.605-7.311 9.294-7.857 15.05-.732 7.718 2.032 15.524 7.57 20.962.362.355.557.967.386 1.459-4.305 12.388 1.868 28.261 15.124 31.974 5.416 1.517 11.318.414 15.759-3.069 4.595-3.604 7.311-9.294 7.857-15.05.732-7.717-2.032-15.524-7.57-20.962C-3.501.767-1.379-1.354 0 0" clip-path="url(#M)" style="fill:#000;fill-opacity:1;fill-rule:nonzero;stroke:none" transform="matrix(1.33333 0 0 -1.33333 580.998 587.825)"/><path d="M0 0c3.396 3.283 6.019 7.669 7.298 12.807 3.267 13.128-3.408 26.092-14.91 28.954s-23.475-5.459-26.743-18.588c-1.343-5.397-.984-10.753.678-15.404C-37.072 4.486-39.696.1-40.975-5.038c-3.267-13.128 3.408-26.092 14.91-28.954S-2.589-28.533.678-15.404C2.021-10.008 1.662-4.651 0 0" clip-path="url(#N)" style="fill:#fffbe9;fill-opacity:1;fill-rule:nonzero;stroke:none" transform="matrix(1.33333 0 0 -1.33333 529.523 584.062)"/><path d="M0 0c10.265 10.079 11.938 28.361 1.298 38.847a20.89 20.89 0 0 1-17.761 5.78c-6.448-.968-12.07-4.943-15.855-10.148-5.384-7.402-6.867-17.411-3.866-26.048l.386 1.459C-46.064-.188-47.736-18.47-37.096-28.957a20.89 20.89 0 0 1 17.761-5.78c6.448.968 12.07 4.944 15.855 10.148C1.903-17.187 3.387-7.178.386 1.459c-.63 1.813-3.529 1.033-2.893-.797 4.305-12.387-1.868-28.261-15.124-31.974-5.417-1.517-11.318-.414-15.759 3.069-4.596 3.605-7.311 9.294-7.857 15.05-.732 7.718 2.032 15.524 7.57 20.962.362.355.557.967.386 1.459-4.305 12.388 1.868 28.261 15.124 31.974 5.416 1.517 11.318.414 15.759-3.069 4.595-3.604 7.311-9.294 7.857-15.05.732-7.717-2.032-15.524-7.57-20.962C-3.501.767-1.379-1.354 0 0" clip-path="url(#O)" style="fill:#000;fill-opacity:1;fill-rule:nonzero;stroke:none" transform="matrix(1.33333 0 0 -1.33333 530.937 585.477)"/><path d="M0 0c5.401.56 10.915-3.032 12.149-8.426 1.179-5.15-1.916-10.59-6.666-12.642-.749-.323-.903-1.409-.538-2.052.44-.773 1.313-.857 2.053-.538 5.998 2.59 9.507 9.681 8.044 16.03C13.527-1.049 6.667 3.691 0 3c-1.901-.197-1.922-3.199 0-3" clip-path="url(#P)" style="fill:#000;fill-opacity:1;fill-rule:nonzero;stroke:none" transform="matrix(1.33333 0 0 -1.33333 520.406 625.43)"/><path d="M0 0c-1.328 9.482 14.488 11.407 20.69 11.453 10.042.073 27.084-3.962 30.702-14.968 1.541-4.687-1.08-10.876-5.976-11.486-4.979-.621-8.269 3.712-11.939 6.196-4.603 3.115-10.159 4.838-15.724 4.79C13.294-4.054 3.927-7.409.954-2.551.42-1.677.116-.825 0 0" clip-path="url(#Q)" style="fill:#fffbe9;fill-opacity:1;fill-rule:nonzero;stroke:none" transform="matrix(1.33333 0 0 -1.33333 536.57 511.745)"/><path d="M0 0c-.871 6.984 8.709 8.89 13.842 9.571 7.017.932 14.246.074 20.927-2.233 6.46-2.23 16.211-7.977 13.667-16.287-.539-1.76-1.713-3.51-3.465-4.242-2.102-.878-4.363-.114-6.182 1.037-1.916 1.211-3.552 2.813-5.371 4.158-2.218 1.639-4.732 2.889-7.325 3.814a28.7 28.7 0 0 1-9.412 1.667c-2.049.013-4.082-.401-6.1-.71-2.127-.325-4.384-.666-6.535-.362C1.736-3.261.35-1.94-.054.399c-.327 1.899-3.218 1.094-2.892-.798.412-2.392 1.85-4.488 4.094-5.465 2.013-.877 4.301-.909 6.455-.731 2.231.184 4.426.624 6.642.916 2.515.332 5.081.137 7.555-.398a26.8 26.8 0 0 0 8.704-3.555c2.204-1.393 4.051-3.253 6.194-4.73 4.194-2.892 9.704-3.092 12.962 1.27 2.918 3.907 2.673 9.087.236 13.143-2.264 3.77-5.98 6.483-9.888 8.361-7.388 3.55-16.085 5.09-24.248 4.367C8.736 12.157-4.2 9.624-3 0c.236-1.891 3.239-1.914 3 0" clip-path="url(#R)" style="fill:#000;fill-opacity:1;fill-rule:nonzero;stroke:none" transform="matrix(1.33333 0 0 -1.33333 538.57 511.745)"/><path d="M0 0c-4.777 8.298 9.171 15.997 14.907 18.358 9.286 3.823 26.6 6.453 34.071-2.402 3.182-3.771 3.065-10.491-1.247-12.887-4.386-2.438-9.058.351-13.39 1.282-5.434 1.168-11.232.689-16.374-1.436C13.845 1.21 6.412-5.403 1.838-2.009 1.017-1.399.416-.722 0 0" clip-path="url(#S)" style="fill:#fffbe9;fill-opacity:1;fill-rule:nonzero;stroke:none" transform="matrix(1.33333 0 0 -1.33333 475.478 520.655)"/><path d="M0 0c-3.543 6.404 5.992 12.078 10.544 14.494 6.183 3.281 13.297 5.037 20.29 5.155 6.532.11 17.082-1.887 17.543-10.174.094-1.687-.252-3.488-1.38-4.801-1.594-1.854-4.212-2.076-6.467-1.624-2.554.511-4.96 1.57-7.515 2.079-2.57.513-5.214.701-7.828.516-3.055-.216-6.079-.875-8.914-2.041-1.789-.735-3.415-1.792-5.074-2.773C7.968-1.081 2.713-4.386 0 0c-1.014 1.639-3.61.134-2.59-1.514C-1.336-3.542.628-5.006 3.04-5.198c2.155-.172 4.287.64 6.199 1.545 1.995.943 3.85 2.143 5.754 3.249 2.099 1.219 4.305 2.032 6.683 2.547 3.013.652 6.192.763 9.244.319 2.962-.431 5.694-1.647 8.607-2.264 2.679-.567 5.538-.52 7.93.974 1.852 1.157 3.118 3.057 3.63 5.168 1.063 4.388-.704 8.844-4.121 11.671-3.365 2.784-7.611 4.024-11.893 4.467-8.197.846-17.029-.999-24.422-4.572C3.983 14.684-7.49 7.344-2.59-1.514-1.656-3.204.936-1.692 0 0" clip-path="url(#T)" style="fill:#000;fill-opacity:1;fill-rule:nonzero;stroke:none" transform="matrix(1.33333 0 0 -1.33333 477.205 519.645)"/><path d="M0 0c-2.422 3.963-1.79 9.149.114 13.385 1.903 4.236 4.92 7.86 7.337 11.826a47 47 0 0 1 6.661 20.328c.234 2.717.245 5.52 1.279 8.043s3.44 4.741 6.158 4.532c2.141-.165 3.959-1.822 4.816-3.79s.894-4.197.668-6.332c-1.119-10.564-8.224-20.011-8.201-30.634.009-3.937 1.011-7.814 1.131-11.749s-.854-8.23-3.931-10.686z" clip-path="url(#U)" style="fill:#000;fill-opacity:1;fill-rule:nonzero;stroke:none" transform="matrix(1.33333 0 0 -1.33333 490.852 630.449)"/><path d="M0 0c-4.603 7.881 2.713 16.293 6.757 22.59a49 49 0 0 1 5.549 11.874c1.336 4.278 1.846 8.605 2.216 13.05.176 2.108.473 4.364 1.727 6.134.955 1.349 2.576 2.52 4.307 2.154 4.28-.906 4.03-6.768 3.48-10.009-1.396-8.223-5.904-15.521-7.449-23.703-.429-2.276-.635-4.589-.507-6.904.148-2.677.657-5.315.925-7.979.426-4.23.183-9.051-3.329-11.98l1.46.385L-.896.689c-1.845.585-2.635-2.311-.798-2.892l15.193-4.812c.259-.082.53-.199.797-.252 1.102-.22 1.88.615 2.559 1.375 1.834 2.056 2.771 4.689 3.132 7.387.842 6.293-1.636 12.477-.681 18.791.913 6.035 3.631 11.605 5.623 17.322.976 2.803 1.785 5.659 2.183 8.606.396 2.937.425 6.091-1.067 8.753-1.291 2.304-3.781 4.051-6.492 3.891-2.686-.159-4.985-2.039-6.28-4.309-1.53-2.681-1.659-5.857-1.885-8.858a46.6 46.6 0 0 0-1.72-9.586 45.3 45.3 0 0 0-4.246-9.947c-1.784-3.089-3.973-5.916-5.84-8.952-3.401-5.53-5.705-12.673-2.172-18.72C-1.617-3.18.977-1.672 0 0" clip-path="url(#V)" style="fill:#000;fill-opacity:1;fill-rule:nonzero;stroke:none" transform="matrix(1.33333 0 0 -1.33333 492.579 629.44)"/><path d="M0 0c-2.422 3.963-1.79 9.149.114 13.385 1.903 4.236 4.92 7.86 7.337 11.826a47 47 0 0 1 6.661 20.329c.234 2.716.245 5.519 1.279 8.042s3.44 4.741 6.158 4.532c2.141-.165 3.959-1.822 4.816-3.79s.894-4.197.668-6.332c-1.119-10.564-8.224-20.011-8.201-30.634.009-3.937 1.011-7.814 1.131-11.749s-.854-8.23-3.931-10.686z" clip-path="url(#W)" style="fill:#000;fill-opacity:1;fill-rule:nonzero;stroke:none" transform="matrix(1.33333 0 0 -1.33333 540.11 634.412)"/><path d="M0 0c-4.603 7.881 2.713 16.293 6.757 22.59a49 49 0 0 1 5.549 11.874c1.336 4.278 1.846 8.605 2.216 13.05.176 2.108.473 4.364 1.727 6.134.955 1.349 2.576 2.52 4.307 2.154 4.28-.906 4.03-6.768 3.48-10.009-1.396-8.223-5.904-15.521-7.449-23.703-.429-2.276-.635-4.589-.507-6.904.148-2.677.657-5.315.925-7.979.426-4.23.183-9.051-3.329-11.98l1.46.385L-.896.689c-1.845.585-2.635-2.311-.798-2.892l15.193-4.812c.259-.082.53-.199.797-.252 1.102-.22 1.88.615 2.559 1.375 1.834 2.056 2.771 4.689 3.132 7.387.842 6.293-1.636 12.477-.681 18.791.913 6.035 3.631 11.605 5.623 17.322.976 2.803 1.785 5.659 2.183 8.606.396 2.937.425 6.091-1.067 8.753-1.291 2.304-3.781 4.051-6.492 3.891-2.686-.159-4.985-2.039-6.28-4.309-1.53-2.681-1.659-5.857-1.885-8.858a46.6 46.6 0 0 0-1.72-9.586 45.3 45.3 0 0 0-4.246-9.947c-1.784-3.089-3.973-5.916-5.84-8.952-3.401-5.53-5.705-12.673-2.172-18.72C-1.617-3.18.977-1.672 0 0" clip-path="url(#X)" style="fill:#000;fill-opacity:1;fill-rule:nonzero;stroke:none" transform="matrix(1.33333 0 0 -1.33333 541.837 633.403)"/><path d="M0 0c-3.255-1.834-5.25-5.664-4.966-9.386.298-3.91 2.946-7.022 6.594-8.322 1.973-.703 4.212-.757 6.202-.095 1.823.606 1.042 3.505-.797 2.893-3.215-1.07-7.157.478-8.539 3.675-1.338 3.098.117 7.009 3.02 8.645C3.196-1.643 1.686.95 0 0" clip-path="url(#Y)" style="fill:#000;fill-opacity:1;fill-rule:nonzero;stroke:none" transform="matrix(1.33333 0 0 -1.33333 355.916 505.293)"/><path d="M0 0c-2.798-2.835-3.46-7.534-1.369-10.971 2.055-3.378 6.378-5.035 10.17-3.963 1.855.524 1.067 3.42-.797 2.893-2.463-.697-5.405.32-6.783 2.584-1.388 2.282-.994 5.416.9 7.336C3.479-.746 1.359 1.377 0 0" clip-path="url(#Z)" style="fill:#000;fill-opacity:1;fill-rule:nonzero;stroke:none" transform="matrix(1.33333 0 0 -1.33333 388.595 590.658)"/><path d="M0 0c-2.969-3.527-3.543-8.926-.926-12.836 2.518-3.761 7.357-5.577 11.729-4.42 1.865.494 1.074 3.388-.797 2.893-3.018-.799-6.581.405-8.341 3.041-1.827 2.737-1.681 6.662.456 9.201.522.619.608 1.514 0 2.121C1.586.535.524.623 0 0" clip-path="url(#aa)" style="fill:#000;fill-opacity:1;fill-rule:nonzero;stroke:none" transform="matrix(1.33333 0 0 -1.33333 332.86 666.25)"/><path d="M0 0c-2.697-3.208-3.328-7.827-1.37-11.579 1.848-3.542 5.989-5.755 9.952-5.395.807.074 1.5.637 1.5 1.5 0 .755-.688 1.574-1.5 1.5-2.908-.264-5.824 1.142-7.263 3.725-1.398 2.511-1.044 5.932.802 8.128.521.619.608 1.513 0 2.121C1.586.535.524.623 0 0" clip-path="url(#ab)" style="fill:#000;fill-opacity:1;fill-rule:nonzero;stroke:none" transform="matrix(1.33333 0 0 -1.33333 394.033 794.23)"/><path d="M0 0c-.587-3.791.816-7.697 3.888-10.064 3.158-2.435 7.53-2.73 11.071-.981.727.359.927 1.388.538 2.053-.432.74-1.323.898-2.052.538-2.433-1.202-5.578-.923-7.738.747-2.07 1.6-3.198 4.433-2.814 6.909.124.8-.203 1.614-1.048 1.846C1.134 1.243.125.805 0 0" clip-path="url(#ac)" style="fill:#000;fill-opacity:1;fill-rule:nonzero;stroke:none" transform="matrix(1.33333 0 0 -1.33333 369.547 894.608)"/><path d="M0 0c-2.549-3.122-3.067-7.416-1.46-11.1 1.573-3.607 5.275-5.752 9.143-5.845 2.13-.051 4.319.546 6.067 1.778.661.466.972 1.311.538 2.052-.382.655-1.387 1.008-2.052.539-2.295-1.618-5.346-1.819-7.789-.586C1.862-11.857.526-9.238.608-6.415c.044 1.491.554 3.118 1.513 4.294.512.627.614 1.508 0 2.121C1.593.529.515.631 0 0" clip-path="url(#ad)" style="fill:#000;fill-opacity:1;fill-rule:nonzero;stroke:none" transform="matrix(1.33333 0 0 -1.33333 427.862 956.035)"/><path d="M0 0c-2.385-3.077-2.947-7.233-1.203-10.766 1.641-3.325 5.301-5.448 8.974-5.436 1.93.006 1.934 3.006 0 3-2.607-.009-5.074 1.456-6.292 3.771-1.178 2.238-.911 5.306.642 7.31.496.639.624 1.498 0 2.121C1.604.517.499.644 0 0" clip-path="url(#ae)" style="fill:#000;fill-opacity:1;fill-rule:nonzero;stroke:none" transform="matrix(1.33333 0 0 -1.33333 629.505 485.034)"/><path d="M0 0c-2.06-6.172 3.615-13.463 10.127-12.881.807.072 1.5.638 1.5 1.5 0 .755-.688 1.572-1.5 1.5a7 7 0 0 0-1.001-.027 9 9 0 0 0-.423.033c.324-.032-.236.044-.296.056a7 7 0 0 0-.879.241q-.233.077-.461.172c.273-.116-.14.074-.155.081-1.187.587-1.892 1.173-2.77 2.266.169-.21-.08.111-.111.155a9.4 9.4 0 0 0-.739 1.225c-.024.047-.258.556-.145.29a8.5 8.5 0 0 0-.431 1.349c-.031.137-.054.276-.084.414-.075.351.003-.169-.024.158a9 9 0 0 0-.038.981c.004.165.017.328.03.491q.018.165-.011-.048a7 7 0 0 0 .304 1.246c.256.769-.297 1.639-1.048 1.846C1.027 1.272.257.771 0 0" clip-path="url(#af)" style="fill:#000;fill-opacity:1;fill-rule:nonzero;stroke:none" transform="matrix(1.33333 0 0 -1.33333 605.962 611.426)"/><path d="M0 0c-2.835-3.015-3.856-7.518-2.629-11.476 1.201-3.873 4.527-6.747 8.477-7.576 2.227-.468 4.587-.352 6.699.53.747.311 1.282.993 1.048 1.845-.194.705-1.093 1.361-1.845 1.047-3.521-1.469-7.933-.508-10.286 2.596-2.41 3.18-2.051 8.033.657 10.913C3.443-.716 1.326 1.41 0 0" clip-path="url(#ag)" style="fill:#000;fill-opacity:1;fill-rule:nonzero;stroke:none" transform="matrix(1.33333 0 0 -1.33333 662.003 965.98)"/></svg>